<svg width="600" height="400" xmlns="http://www.w3.org/2000/svg"><path d="M263,203L266,270L333,275Z" fill="rgb(245,89,62)" stroke="rgb(245,89,62)" stroke-width="1.51"></path><path d="M333,275L338,198L263,203Z" fill="rgb(247,92,64)" stroke="rgb(247,92,64)" stroke-width="1.51"></path><path d="M412,271L411,201L338,198Z" fill="rgb(240,71,51)" stroke="rgb(240,71,51)" stroke-width="1.51"></path><path d="M339,125L261,127L338,198Z" fill="rgb(251,123,91)" stroke="rgb(251,123,91)" stroke-width="1.51"></path><path d="M338,198L261,127L263,203Z" fill="rgb(252,120,87)" stroke="rgb(252,120,87)" stroke-width="1.51"></path><path d="M333,275L412,271L338,198Z" fill="rgb(241,65,48)" stroke="rgb(241,65,48)" stroke-width="1.51"></path><path d="M408,121L339,125L338,198Z" fill="rgb(248,112,82)" stroke="rgb(248,112,82)" stroke-width="1.51"></path><path d="M261,127L189,199L263,203Z" fill="rgb(252,133,100)" stroke="rgb(252,133,100)" stroke-width="1.51"></path><path d="M263,203L189,274L266,270Z" fill="rgb(247,104,75)" stroke="rgb(247,104,75)" stroke-width="1.51"></path><path d="M189,199L189,274L263,203Z" fill="rgb(250,120,90)" stroke="rgb(250,120,90)" stroke-width="1.51"></path><path d="M265,354L333,351L333,275Z" fill="rgb(216,65,47)" stroke="rgb(216,65,47)" stroke-width="1.51"></path><path d="M333,275L410,347L412,271Z" fill="rgb(219,42,36)" stroke="rgb(219,42,36)" stroke-width="1.51"></path><path d="M265,354L333,275L266,270Z" fill="rgb(227,75,54)" stroke="rgb(227,75,54)" stroke-width="1.51"></path><path d="M189,274L265,354L266,270Z" fill="rgb(229,90,66)" stroke="rgb(229,90,66)" stroke-width="1.51"></path><path d="M411,201L408,121L338,198Z" fill="rgb(244,95,68)" stroke="rgb(244,95,68)" stroke-width="1.51"></path><path d="M184,50L183,124L261,127Z" fill="rgb(253,171,142)" stroke="rgb(253,171,142)" stroke-width="1.51"></path><path d="M333,351L410,347L333,275Z" fill="rgb(213,48,37)" stroke="rgb(213,48,37)" stroke-width="1.51"></path><path d="M261,127L183,124L189,199Z" fill="rgb(252,150,118)" stroke="rgb(252,150,118)" stroke-width="1.51"></path><path d="M189,199L111,272L189,274Z" fill="rgb(249,127,98)" stroke="rgb(249,127,98)" stroke-width="1.51"></path><path d="M262,48L261,127L339,125Z" fill="rgb(254,151,120)" stroke="rgb(254,151,120)" stroke-width="1.51"></path><path d="M189,274L184,347L265,354Z" fill="rgb(220,95,72)" stroke="rgb(220,95,72)" stroke-width="1.51"></path><path d="M111,272L184,347L189,274Z" fill="rgb(233,114,90)" stroke="rgb(233,114,90)" stroke-width="1.51"></path><path d="M486,273L484,200L412,271Z" fill="rgb(219,44,36)" stroke="rgb(219,44,36)" stroke-width="1.51"></path><path d="M412,271L484,200L411,201Z" fill="rgb(228,61,45)" stroke="rgb(228,61,45)" stroke-width="1.51"></path><path d="M411,201L484,128L408,121Z" fill="rgb(233,97,72)" stroke="rgb(233,97,72)" stroke-width="1.51"></path><path d="M410,347L486,273L412,271Z" fill="rgb(207,30,31)" stroke="rgb(207,30,31)" stroke-width="1.51"></path><path d="M408,121L340,49L339,125Z" fill="rgb(251,133,105)" stroke="rgb(251,133,105)" stroke-width="1.51"></path><path d="M413,49L340,49L408,121Z" fill="rgb(250,138,112)" stroke="rgb(250,138,112)" stroke-width="1.51"></path><path d="M340,49L262,48L339,125Z" fill="rgb(255,154,126)" stroke="rgb(255,154,126)" stroke-width="1.51"></path><path d="M265,354L333,428L333,351Z" fill="rgb(188,57,42)" stroke="rgb(188,57,42)" stroke-width="1.51"></path><path d="M333,351L408,429L410,347Z" fill="rgb(182,32,30)" stroke="rgb(182,32,30)" stroke-width="1.51"></path><path d="M184,424L261,422L265,354Z" fill="rgb(176,74,58)" stroke="rgb(176,74,58)" stroke-width="1.51"></path><path d="M109,195L111,272L189,199Z" fill="rgb(254,144,114)" stroke="rgb(254,144,114)" stroke-width="1.51"></path><path d="M261,422L333,428L265,354Z" fill="rgb(175,60,45)" stroke="rgb(175,60,45)" stroke-width="1.51"></path><path d="M410,347L487,349L486,273Z" fill="rgb(191,21,26)" stroke="rgb(191,21,26)" stroke-width="1.51"></path><path d="M183,124L109,195L189,199Z" fill="rgb(253,156,125)" stroke="rgb(253,156,125)" stroke-width="1.51"></path><path d="M115,121L109,195L183,124Z" fill="rgb(253,172,143)" stroke="rgb(253,172,143)" stroke-width="1.51"></path><path d="M484,200L484,128L411,201Z" fill="rgb(226,82,60)" stroke="rgb(226,82,60)" stroke-width="1.51"></path><path d="M565,196L484,128L484,200Z" fill="rgb(212,79,57)" stroke="rgb(212,79,57)" stroke-width="1.51"></path><path d="M340,49L334,-27L262,48Z" fill="rgb(255,170,145)" stroke="rgb(255,170,145)" stroke-width="1.51"></path><path d="M484,128L413,49L408,121Z" fill="rgb(236,120,95)" stroke="rgb(236,120,95)" stroke-width="1.51"></path><path d="M488,421L487,349L410,347Z" fill="rgb(167,15,23)" stroke="rgb(167,15,23)" stroke-width="1.51"></path><path d="M184,50L115,121L183,124Z" fill="rgb(252,185,158)" stroke="rgb(252,185,158)" stroke-width="1.51"></path><path d="M262,48L184,50L261,127Z" fill="rgb(255,173,146)" stroke="rgb(255,173,146)" stroke-width="1.51"></path><path d="M184,347L184,424L265,354Z" fill="rgb(193,87,67)" stroke="rgb(193,87,67)" stroke-width="1.51"></path><path d="M111,272L112,347L184,347Z" fill="rgb(225,118,94)" stroke="rgb(225,118,94)" stroke-width="1.51"></path><path d="M38,274L112,347L111,272Z" fill="rgb(238,134,112)" stroke="rgb(238,134,112)" stroke-width="1.51"></path><path d="M333,428L408,429L333,351Z" fill="rgb(170,36,32)" stroke="rgb(170,36,32)" stroke-width="1.51"></path><path d="M112,347L184,424L184,347Z" fill="rgb(196,102,82)" stroke="rgb(196,102,82)" stroke-width="1.51"></path><path d="M265,503L339,499L333,428Z" fill="rgb(173,52,40)" stroke="rgb(173,52,40)" stroke-width="1.51"></path><path d="M484,128L483,45L413,49Z" fill="rgb(233,126,103)" stroke="rgb(233,126,103)" stroke-width="1.51"></path><path d="M416,-23L334,-27L340,49Z" fill="rgb(255,163,141)" stroke="rgb(255,163,141)" stroke-width="1.51"></path><path d="M566,53L483,45L484,128Z" fill="rgb(219,121,99)" stroke="rgb(219,121,99)" stroke-width="1.51"></path><path d="M486,273L561,278L484,200Z" fill="rgb(205,39,33)" stroke="rgb(205,39,33)" stroke-width="1.51"></path><path d="M487,349L561,278L486,273Z" fill="rgb(187,20,25)" stroke="rgb(187,20,25)" stroke-width="1.51"></path><path d="M558,352L561,278L487,349Z" fill="rgb(169,16,22)" stroke="rgb(169,16,22)" stroke-width="1.51"></path><path d="M408,429L488,421L410,347Z" fill="rgb(155,14,23)" stroke="rgb(155,14,23)" stroke-width="1.51"></path><path d="M416,-23L340,49L413,49Z" fill="rgb(254,152,129)" stroke="rgb(254,152,129)" stroke-width="1.51"></path><path d="M262,48L191,-29L184,50Z" fill="rgb(255,194,173)" stroke="rgb(255,194,173)" stroke-width="1.51"></path><path d="M334,-27L262,-27L262,48Z" fill="rgb(255,181,158)" stroke="rgb(255,181,158)" stroke-width="1.51"></path><path d="M184,50L111,51L115,121Z" fill="rgb(254,200,178)" stroke="rgb(254,200,178)" stroke-width="1.51"></path><path d="M33,125L38,196L109,195Z" fill="rgb(255,179,155)" stroke="rgb(255,179,155)" stroke-width="1.51"></path><path d="M115,-29L111,51L184,50Z" fill="rgb(255,214,198)" stroke="rgb(255,214,198)" stroke-width="1.51"></path><path d="M561,278L565,196L484,200Z" fill="rgb(199,52,39)" stroke="rgb(199,52,39)" stroke-width="1.51"></path><path d="M408,429L491,500L488,421Z" fill="rgb(149,9,21)" stroke="rgb(149,9,21)" stroke-width="1.51"></path><path d="M333,428L339,499L408,429Z" fill="rgb(170,36,31)" stroke="rgb(170,36,31)" stroke-width="1.51"></path><path d="M265,503L333,428L261,422Z" fill="rgb(175,60,45)" stroke="rgb(175,60,45)" stroke-width="1.51"></path><path d="M109,195L38,196L111,272Z" fill="rgb(255,157,130)" stroke="rgb(255,157,130)" stroke-width="1.51"></path><path d="M33,125L109,195L115,121Z" fill="rgb(255,184,159)" stroke="rgb(255,184,159)" stroke-width="1.51"></path><path d="M38,196L38,274L111,272Z" fill="rgb(255,152,127)" stroke="rgb(255,152,127)" stroke-width="1.51"></path><path d="M112,347L109,421L184,424Z" fill="rgb(181,102,87)" stroke="rgb(181,102,87)" stroke-width="1.51"></path><path d="M189,499L265,503L261,422Z" fill="rgb(176,73,57)" stroke="rgb(176,73,57)" stroke-width="1.51"></path><path d="M36,349L109,421L112,347Z" fill="rgb(201,121,104)" stroke="rgb(201,121,104)" stroke-width="1.51"></path><path d="M189,499L261,422L184,424Z" fill="rgb(176,81,64)" stroke="rgb(176,81,64)" stroke-width="1.51"></path><path d="M565,196L561,127L484,128Z" fill="rgb(204,86,65)" stroke="rgb(204,86,65)" stroke-width="1.51"></path><path d="M488,421L558,352L487,349Z" fill="rgb(153,11,20)" stroke="rgb(153,11,20)" stroke-width="1.51"></path><path d="M561,278L633,203L565,196Z" fill="rgb(177,45,36)" stroke="rgb(177,45,36)" stroke-width="1.51"></path><path d="M483,45L416,-23L413,49Z" fill="rgb(243,144,124)" stroke="rgb(243,144,124)" stroke-width="1.51"></path><path d="M259,-103L191,-29L262,-27Z" fill="rgb(255,193,172)" stroke="rgb(255,193,172)" stroke-width="1.51"></path><path d="M262,-27L191,-29L262,48Z" fill="rgb(255,192,172)" stroke="rgb(255,192,172)" stroke-width="1.51"></path><path d="M110,503L189,499L184,424Z" fill="rgb(178,95,79)" stroke="rgb(178,95,79)" stroke-width="1.51"></path><path d="M38,274L36,349L112,347Z" fill="rgb(229,135,115)" stroke="rgb(229,135,115)" stroke-width="1.51"></path><path d="M-38,274L36,349L38,274Z" fill="rgb(241,146,126)" stroke="rgb(241,146,126)" stroke-width="1.51"></path><path d="M38,196L-35,196L38,274Z" fill="rgb(255,168,144)" stroke="rgb(255,168,144)" stroke-width="1.51"></path><path d="M40,51L33,125L115,121Z" fill="rgb(254,207,188)" stroke="rgb(254,207,188)" stroke-width="1.51"></path><path d="M40,51L115,121L111,51Z" fill="rgb(254,211,193)" stroke="rgb(254,211,193)" stroke-width="1.51"></path><path d="M339,499L413,504L408,429Z" fill="rgb(166,27,28)" stroke="rgb(166,27,28)" stroke-width="1.51"></path><path d="M488,421L559,425L558,352Z" fill="rgb(130,5,17)" stroke="rgb(130,5,17)" stroke-width="1.51"></path><path d="M265,503L413,504L339,499Z" fill="rgb(171,44,35)" stroke="rgb(171,44,35)" stroke-width="1.51"></path><path d="M491,500L559,425L488,421Z" fill="rgb(136,6,18)" stroke="rgb(136,6,18)" stroke-width="1.51"></path><path d="M639,275L633,203L561,278Z" fill="rgb(168,29,28)" stroke="rgb(168,29,28)" stroke-width="1.51"></path><path d="M483,45L489,-27L416,-23Z" fill="rgb(238,145,128)" stroke="rgb(238,145,128)" stroke-width="1.51"></path><path d="M561,127L566,53L484,128Z" fill="rgb(207,107,85)" stroke="rgb(207,107,85)" stroke-width="1.51"></path><path d="M638,128L566,53L561,127Z" fill="rgb(183,99,81)" stroke="rgb(183,99,81)" stroke-width="1.51"></path><path d="M35,-23L40,51L111,51Z" fill="rgb(255,231,219)" stroke="rgb(255,231,219)" stroke-width="1.51"></path><path d="M334,-27L259,-103L262,-27Z" fill="rgb(255,181,159)" stroke="rgb(255,181,159)" stroke-width="1.51"></path><path d="M338,-105L259,-103L334,-27Z" fill="rgb(255,175,152)" stroke="rgb(255,175,152)" stroke-width="1.51"></path><path d="M562,-26L489,-27L483,45Z" fill="rgb(225,141,124)" stroke="rgb(225,141,124)" stroke-width="1.51"></path><path d="M191,-29L115,-29L184,50Z" fill="rgb(255,212,196)" stroke="rgb(255,212,196)" stroke-width="1.51"></path><path d="M413,504L491,500L408,429Z" fill="rgb(154,14,22)" stroke="rgb(154,14,22)" stroke-width="1.51"></path><path d="M109,421L110,503L184,424Z" fill="rgb(179,102,86)" stroke="rgb(179,102,86)" stroke-width="1.51"></path><path d="M36,349L40,428L109,421Z" fill="rgb(183,118,106)" stroke="rgb(183,118,106)" stroke-width="1.51"></path><path d="M40,428L110,503L109,421Z" fill="rgb(182,113,100)" stroke="rgb(182,113,100)" stroke-width="1.51"></path><path d="M189,499L110,503L265,503Z" fill="rgb(177,87,71)" stroke="rgb(177,87,71)" stroke-width="1.51"></path><path d="M265,503L110,503L413,504Z" fill="rgb(175,67,51)" stroke="rgb(175,67,51)" stroke-width="1.51"></path><path d="M565,196L638,128L561,127Z" fill="rgb(182,79,61)" stroke="rgb(182,79,61)" stroke-width="1.51"></path><path d="M639,275L561,278L635,350Z" fill="rgb(151,10,21)" stroke="rgb(151,10,21)" stroke-width="1.51"></path><path d="M635,350L561,278L558,352Z" fill="rgb(148,9,20)" stroke="rgb(148,9,20)" stroke-width="1.51"></path><path d="M33,125L-35,196L38,196Z" fill="rgb(255,186,164)" stroke="rgb(255,186,164)" stroke-width="1.51"></path><path d="M36,349L-40,427L40,428Z" fill="rgb(185,124,115)" stroke="rgb(185,124,115)" stroke-width="1.51"></path><path d="M-40,127L-35,196L33,125Z" fill="rgb(255,196,176)" stroke="rgb(255,196,176)" stroke-width="1.51"></path><path d="M338,-105L334,-27L415,-103Z" fill="rgb(255,163,141)" stroke="rgb(255,163,141)" stroke-width="1.51"></path><path d="M191,-29L183,-103L115,-29Z" fill="rgb(255,212,196)" stroke="rgb(255,212,196)" stroke-width="1.51"></path><path d="M415,-103L334,-27L416,-23Z" fill="rgb(255,158,136)" stroke="rgb(255,158,136)" stroke-width="1.51"></path><path d="M-35,196L-38,274L38,274Z" fill="rgb(255,160,138)" stroke="rgb(255,160,138)" stroke-width="1.51"></path><path d="M559,425L635,350L558,352Z" fill="rgb(124,4,17)" stroke="rgb(124,4,17)" stroke-width="1.51"></path><path d="M641,421L635,350L559,425Z" fill="rgb(104,0,13)" stroke="rgb(104,0,13)" stroke-width="1.51"></path><path d="M709,199L638,128L633,203Z" fill="rgb(175,66,51)" stroke="rgb(175,66,51)" stroke-width="1.51"></path><path d="M633,203L638,128L565,196Z" fill="rgb(175,66,51)" stroke="rgb(175,66,51)" stroke-width="1.51"></path><path d="M485,-97L415,-103L416,-23Z" fill="rgb(244,149,130)" stroke="rgb(244,149,130)" stroke-width="1.51"></path><path d="M259,-103L183,-103L191,-29Z" fill="rgb(255,200,180)" stroke="rgb(255,200,180)" stroke-width="1.51"></path><path d="M-37,46L33,125L40,51Z" fill="rgb(255,224,210)" stroke="rgb(255,224,210)" stroke-width="1.51"></path><path d="M338,-105L183,-103L259,-103Z" fill="rgb(255,187,165)" stroke="rgb(255,187,165)" stroke-width="1.51"></path><path d="M-35,196L-112,199L-38,274Z" fill="rgb(255,169,147)" stroke="rgb(255,169,147)" stroke-width="1.51"></path><path d="M-37,46L-40,127L33,125Z" fill="rgb(255,216,200)" stroke="rgb(255,216,200)" stroke-width="1.51"></path><path d="M35,-23L111,51L115,-29Z" fill="rgb(255,231,221)" stroke="rgb(255,231,221)" stroke-width="1.51"></path><path d="M-38,274L-39,349L36,349Z" fill="rgb(232,143,126)" stroke="rgb(232,143,126)" stroke-width="1.51"></path><path d="M40,428L40,503L110,503Z" fill="rgb(183,117,106)" stroke="rgb(183,117,106)" stroke-width="1.51"></path><path d="M-111,354L-39,349L-38,274Z" fill="rgb(231,143,126)" stroke="rgb(231,143,126)" stroke-width="1.51"></path><path d="M636,47L562,-26L566,53Z" fill="rgb(190,123,111)" stroke="rgb(190,123,111)" stroke-width="1.51"></path><path d="M566,53L562,-26L483,45Z" fill="rgb(214,132,116)" stroke="rgb(214,132,116)" stroke-width="1.51"></path><path d="M489,-27L485,-97L416,-23Z" fill="rgb(238,145,128)" stroke="rgb(238,145,128)" stroke-width="1.51"></path><path d="M38,-99L35,-23L115,-29Z" fill="rgb(255,236,227)" stroke="rgb(255,236,227)" stroke-width="1.51"></path><path d="M413,504L564,501L491,500Z" fill="rgb(142,7,20)" stroke="rgb(142,7,20)" stroke-width="1.51"></path><path d="M491,500L564,501L559,425Z" fill="rgb(128,5,17)" stroke="rgb(128,5,17)" stroke-width="1.51"></path><path d="M-37,499L40,503L40,428Z" fill="rgb(185,124,114)" stroke="rgb(185,124,114)" stroke-width="1.51"></path><path d="M110,503L40,503L413,504Z" fill="rgb(177,88,71)" stroke="rgb(177,88,71)" stroke-width="1.51"></path><path d="M560,-104L485,-97L489,-27Z" fill="rgb(225,141,124)" stroke="rgb(225,141,124)" stroke-width="1.51"></path><path d="M638,128L636,47L566,53Z" fill="rgb(180,107,92)" stroke="rgb(180,107,92)" stroke-width="1.51"></path><path d="M183,-103L109,-99L115,-29Z" fill="rgb(255,219,205)" stroke="rgb(255,219,205)" stroke-width="1.51"></path><path d="M633,496L641,421L559,425Z" fill="rgb(103,0,13)" stroke="rgb(103,0,13)" stroke-width="1.51"></path><path d="M713,277L709,199L639,275Z" fill="rgb(168,30,29)" stroke="rgb(168,30,29)" stroke-width="1.51"></path><path d="M639,275L709,199L633,203Z" fill="rgb(171,44,35)" stroke="rgb(171,44,35)" stroke-width="1.51"></path><path d="M-35,-27L-37,46L35,-23Z" fill="rgb(255,245,240)" stroke="rgb(255,245,240)" stroke-width="1.51"></path><path d="M35,-23L-37,46L40,51Z" fill="rgb(255,238,230)" stroke="rgb(255,238,230)" stroke-width="1.51"></path><path d="M-39,349L-40,427L36,349Z" fill="rgb(203,132,120)" stroke="rgb(203,132,120)" stroke-width="1.51"></path><path d="M-111,354L-40,427L-39,349Z" fill="rgb(202,132,120)" stroke="rgb(202,132,120)" stroke-width="1.51"></path><path d="M713,277L639,275L635,350Z" fill="rgb(151,10,21)" stroke="rgb(151,10,21)" stroke-width="1.51"></path><path d="M638,128L711,127L636,47Z" fill="rgb(178,97,81)" stroke="rgb(178,97,81)" stroke-width="1.51"></path><path d="M716,352L713,277L635,350Z" fill="rgb(142,7,20)" stroke="rgb(142,7,20)" stroke-width="1.51"></path><path d="M-40,127L-112,199L-35,196Z" fill="rgb(255,187,165)" stroke="rgb(255,187,165)" stroke-width="1.51"></path><path d="M-117,128L-112,199L-40,127Z" fill="rgb(255,195,175)" stroke="rgb(255,195,175)" stroke-width="1.51"></path><path d="M-112,199L-116,272L-38,274Z" fill="rgb(255,160,138)" stroke="rgb(255,160,138)" stroke-width="1.51"></path><path d="M641,421L716,352L635,350Z" fill="rgb(118,3,16)" stroke="rgb(118,3,16)" stroke-width="1.51"></path><path d="M564,501L633,496L559,425Z" fill="rgb(109,1,14)" stroke="rgb(109,1,14)" stroke-width="1.51"></path><path d="M713,277L711,127L709,199Z" fill="rgb(174,55,42)" stroke="rgb(174,55,42)" stroke-width="1.51"></path><path d="M709,199L711,127L638,128Z" fill="rgb(176,76,60)" stroke="rgb(176,76,60)" stroke-width="1.51"></path><path d="M713,-26L636,-27L636,47Z" fill="rgb(185,126,117)" stroke="rgb(185,126,117)" stroke-width="1.51"></path><path d="M636,47L636,-27L562,-26Z" fill="rgb(185,126,117)" stroke="rgb(185,126,117)" stroke-width="1.51"></path><path d="M562,-26L560,-104L489,-27Z" fill="rgb(215,137,122)" stroke="rgb(215,137,122)" stroke-width="1.51"></path><path d="M485,-97L560,-104L415,-103Z" fill="rgb(231,143,126)" stroke="rgb(231,143,126)" stroke-width="1.51"></path><path d="M415,-103L560,-104L338,-105Z" fill="rgb(244,149,130)" stroke="rgb(244,149,130)" stroke-width="1.51"></path><path d="M637,-96L560,-104L562,-26Z" fill="rgb(192,128,118)" stroke="rgb(192,128,118)" stroke-width="1.51"></path><path d="M109,-99L38,-99L115,-29Z" fill="rgb(255,231,221)" stroke="rgb(255,231,221)" stroke-width="1.51"></path><path d="M183,-103L38,-99L109,-99Z" fill="rgb(255,226,213)" stroke="rgb(255,226,213)" stroke-width="1.51"></path><path d="M-34,-97L-35,-27L35,-23Z" fill="rgb(255,245,240)" stroke="rgb(255,245,240)" stroke-width="1.51"></path><path d="M-113,54L-117,128L-40,127Z" fill="rgb(255,215,198)" stroke="rgb(255,215,198)" stroke-width="1.51"></path><path d="M710,426L716,352L641,421Z" fill="rgb(103,0,13)" stroke="rgb(103,0,13)" stroke-width="1.51"></path><path d="M713,277L714,46L711,127Z" fill="rgb(176,77,60)" stroke="rgb(176,77,60)" stroke-width="1.51"></path><path d="M-110,499L-37,499L-40,427Z" fill="rgb(185,126,117)" stroke="rgb(185,126,117)" stroke-width="1.51"></path><path d="M-40,427L-37,499L40,428Z" fill="rgb(185,126,117)" stroke="rgb(185,126,117)" stroke-width="1.51"></path><path d="M-116,272L-111,354L-38,274Z" fill="rgb(241,147,129)" stroke="rgb(241,147,129)" stroke-width="1.51"></path><path d="M-112,199L-117,128L-116,272Z" fill="rgb(255,178,154)" stroke="rgb(255,178,154)" stroke-width="1.51"></path><path d="M-113,54L-40,127L-37,46Z" fill="rgb(255,225,212)" stroke="rgb(255,225,212)" stroke-width="1.51"></path><path d="M633,496L710,426L641,421Z" fill="rgb(103,0,13)" stroke="rgb(103,0,13)" stroke-width="1.51"></path><path d="M636,-27L637,-96L562,-26Z" fill="rgb(185,126,117)" stroke="rgb(185,126,117)" stroke-width="1.51"></path><path d="M711,127L714,46L636,47Z" fill="rgb(181,108,93)" stroke="rgb(181,108,93)" stroke-width="1.51"></path><path d="M716,352L714,46L713,277Z" fill="rgb(171,44,35)" stroke="rgb(171,44,35)" stroke-width="1.51"></path><path d="M-111,-23L-113,54L-37,46Z" fill="rgb(255,239,232)" stroke="rgb(255,239,232)" stroke-width="1.51"></path><path d="M-116,272L-113,424L-111,354Z" fill="rgb(221,139,123)" stroke="rgb(221,139,123)" stroke-width="1.51"></path><path d="M-111,354L-113,424L-40,427Z" fill="rgb(185,126,117)" stroke="rgb(185,126,117)" stroke-width="1.51"></path><path d="M713,-26L637,-96L636,-27Z" fill="rgb(185,126,117)" stroke="rgb(185,126,117)" stroke-width="1.51"></path><path d="M-35,-27L-111,-23L-37,46Z" fill="rgb(255,245,240)" stroke="rgb(255,245,240)" stroke-width="1.51"></path><path d="M38,-99L-34,-97L35,-23Z" fill="rgb(255,243,237)" stroke="rgb(255,243,237)" stroke-width="1.51"></path><path d="M714,46L713,-26L636,47Z" fill="rgb(184,121,111)" stroke="rgb(184,121,111)" stroke-width="1.51"></path><path d="M-112,-100L-111,-23L-35,-27Z" fill="rgb(255,245,240)" stroke="rgb(255,245,240)" stroke-width="1.51"></path><path d="M-113,54L-112,-100L-117,128Z" fill="rgb(255,239,232)" stroke="rgb(255,239,232)" stroke-width="1.51"></path><path d="M-37,499L-110,499L40,503Z" fill="rgb(185,126,117)" stroke="rgb(185,126,117)" stroke-width="1.51"></path><path d="M-113,424L-110,499L-40,427Z" fill="rgb(185,126,117)" stroke="rgb(185,126,117)" stroke-width="1.51"></path><path d="M413,504L716,502L564,501Z" fill="rgb(117,2,15)" stroke="rgb(117,2,15)" stroke-width="1.51"></path><path d="M564,501L716,502L633,496Z" fill="rgb(103,0,13)" stroke="rgb(103,0,13)" stroke-width="1.51"></path><path d="M633,496L716,502L710,426Z" fill="rgb(103,0,13)" stroke="rgb(103,0,13)" stroke-width="1.51"></path><path d="M710,426L716,502L716,352Z" fill="rgb(103,0,13)" stroke="rgb(103,0,13)" stroke-width="1.51"></path><path d="M-34,-97L-112,-100L-35,-27Z" fill="rgb(255,245,240)" stroke="rgb(255,245,240)" stroke-width="1.51"></path><path d="M-111,-23L-112,-100L-113,54Z" fill="rgb(255,245,240)" stroke="rgb(255,245,240)" stroke-width="1.51"></path><path d="M38,-99L-112,-100L-34,-97Z" fill="rgb(255,245,240)" stroke="rgb(255,245,240)" stroke-width="1.51"></path><path d="M183,-103L-112,-100L38,-99Z" fill="rgb(255,240,232)" stroke="rgb(255,240,232)" stroke-width="1.51"></path><path d="M338,-105L-112,-100L183,-103Z" fill="rgb(255,219,205)" stroke="rgb(255,219,205)" stroke-width="1.51"></path><path d="M714,46L714,-104L713,-26Z" fill="rgb(185,126,117)" stroke="rgb(185,126,117)" stroke-width="1.51"></path><path d="M713,-26L714,-104L637,-96Z" fill="rgb(185,126,117)" stroke="rgb(185,126,117)" stroke-width="1.51"></path><path d="M637,-96L714,-104L560,-104Z" fill="rgb(185,126,117)" stroke="rgb(185,126,117)" stroke-width="1.51"></path><path d="M560,-104L714,-104L338,-105Z" fill="rgb(215,137,122)" stroke="rgb(215,137,122)" stroke-width="1.51"></path><path d="M716,352L714,-104L714,46Z" fill="rgb(178,98,83)" stroke="rgb(178,98,83)" stroke-width="1.51"></path></svg>