<svg width="600" height="400" xmlns="http://www.w3.org/2000/svg"><path d="M332,203L264,199L264,274Z" fill="rgb(247,247,204)" stroke="rgb(247,247,204)" stroke-width="1.51"></path><path d="M264,274L336,274L332,203Z" fill="rgb(232,244,223)" stroke="rgb(232,244,223)" stroke-width="1.51"></path><path d="M264,199L187,273L264,274Z" fill="rgb(238,230,194)" stroke="rgb(238,230,194)" stroke-width="1.51"></path><path d="M264,274L266,350L336,274Z" fill="rgb(205,221,203)" stroke="rgb(205,221,203)" stroke-width="1.51"></path><path d="M191,346L266,350L264,274Z" fill="rgb(193,195,177)" stroke="rgb(193,195,177)" stroke-width="1.51"></path><path d="M264,199L183,204L187,273Z" fill="rgb(249,223,174)" stroke="rgb(249,223,174)" stroke-width="1.51"></path><path d="M266,350L338,347L336,274Z" fill="rgb(185,209,206)" stroke="rgb(185,209,206)" stroke-width="1.51"></path><path d="M332,203L266,120L264,199Z" fill="rgb(255,241,170)" stroke="rgb(255,241,170)" stroke-width="1.51"></path><path d="M336,274L408,198L332,203Z" fill="rgb(231,245,237)" stroke="rgb(231,245,237)" stroke-width="1.51"></path><path d="M416,270L408,198L336,274Z" fill="rgb(208,234,243)" stroke="rgb(208,234,243)" stroke-width="1.51"></path><path d="M341,121L266,120L332,203Z" fill="rgb(254,230,167)" stroke="rgb(254,230,167)" stroke-width="1.51"></path><path d="M264,199L191,123L183,204Z" fill="rgb(255,218,142)" stroke="rgb(255,218,142)" stroke-width="1.51"></path><path d="M408,198L341,121L332,203Z" fill="rgb(242,239,204)" stroke="rgb(242,239,204)" stroke-width="1.51"></path><path d="M338,347L416,270L336,274Z" fill="rgb(185,220,235)" stroke="rgb(185,220,235)" stroke-width="1.51"></path><path d="M187,273L191,346L264,274Z" fill="rgb(211,199,174)" stroke="rgb(211,199,174)" stroke-width="1.51"></path><path d="M115,351L191,346L187,273Z" fill="rgb(198,164,149)" stroke="rgb(198,164,149)" stroke-width="1.51"></path><path d="M266,120L191,123L264,199Z" fill="rgb(255,216,136)" stroke="rgb(255,216,136)" stroke-width="1.51"></path><path d="M408,198L415,127L341,121Z" fill="rgb(233,220,186)" stroke="rgb(233,220,186)" stroke-width="1.51"></path><path d="M492,202L415,127L408,198Z" fill="rgb(211,219,195)" stroke="rgb(211,219,195)" stroke-width="1.51"></path><path d="M416,270L492,202L408,198Z" fill="rgb(198,225,226)" stroke="rgb(198,225,226)" stroke-width="1.51"></path><path d="M338,347L417,350L416,270Z" fill="rgb(157,200,223)" stroke="rgb(157,200,223)" stroke-width="1.51"></path><path d="M413,420L417,350L338,347Z" fill="rgb(135,161,206)" stroke="rgb(135,161,206)" stroke-width="1.51"></path><path d="M183,204L111,270L187,273Z" fill="rgb(241,196,165)" stroke="rgb(241,196,165)" stroke-width="1.51"></path><path d="M108,202L111,270L183,204Z" fill="rgb(251,187,149)" stroke="rgb(251,187,149)" stroke-width="1.51"></path><path d="M266,350L333,422L338,347Z" fill="rgb(165,170,188)" stroke="rgb(165,170,188)" stroke-width="1.51"></path><path d="M267,426L333,422L266,350Z" fill="rgb(163,146,169)" stroke="rgb(163,146,169)" stroke-width="1.51"></path><path d="M417,350L482,274L416,270Z" fill="rgb(151,200,224)" stroke="rgb(151,200,224)" stroke-width="1.51"></path><path d="M109,121L108,202L183,204Z" fill="rgb(255,181,116)" stroke="rgb(255,181,116)" stroke-width="1.51"></path><path d="M191,429L267,426L266,350Z" fill="rgb(164,134,152)" stroke="rgb(164,134,152)" stroke-width="1.51"></path><path d="M191,429L266,350L191,346Z" fill="rgb(173,145,150)" stroke="rgb(173,145,150)" stroke-width="1.51"></path><path d="M341,121L337,49L266,120Z" fill="rgb(255,195,141)" stroke="rgb(255,195,141)" stroke-width="1.51"></path><path d="M266,120L187,54L191,123Z" fill="rgb(253,172,102)" stroke="rgb(253,172,102)" stroke-width="1.51"></path><path d="M408,54L337,49L341,121Z" fill="rgb(244,174,152)" stroke="rgb(244,174,152)" stroke-width="1.51"></path><path d="M337,49L267,46L266,120Z" fill="rgb(253,177,120)" stroke="rgb(253,177,120)" stroke-width="1.51"></path><path d="M191,123L109,121L183,204Z" fill="rgb(254,183,109)" stroke="rgb(254,183,109)" stroke-width="1.51"></path><path d="M482,274L492,202L416,270Z" fill="rgb(173,211,230)" stroke="rgb(173,211,230)" stroke-width="1.51"></path><path d="M415,127L408,54L341,121Z" fill="rgb(236,188,161)" stroke="rgb(236,188,161)" stroke-width="1.51"></path><path d="M267,46L187,54L266,120Z" fill="rgb(250,165,102)" stroke="rgb(250,165,102)" stroke-width="1.51"></path><path d="M111,270L115,351L187,273Z" fill="rgb(213,165,149)" stroke="rgb(213,165,149)" stroke-width="1.51"></path><path d="M485,121L408,54L415,127Z" fill="rgb(217,176,154)" stroke="rgb(217,176,154)" stroke-width="1.51"></path><path d="M333,422L413,420L338,347Z" fill="rgb(143,146,200)" stroke="rgb(143,146,200)" stroke-width="1.51"></path><path d="M417,350L482,354L482,274Z" fill="rgb(122,175,211)" stroke="rgb(122,175,211)" stroke-width="1.51"></path><path d="M415,497L413,420L333,422Z" fill="rgb(131,138,195)" stroke="rgb(131,138,195)" stroke-width="1.51"></path><path d="M115,351L191,429L191,346Z" fill="rgb(174,124,133)" stroke="rgb(174,124,133)" stroke-width="1.51"></path><path d="M187,54L109,121L191,123Z" fill="rgb(250,149,84)" stroke="rgb(250,149,84)" stroke-width="1.51"></path><path d="M413,420L482,354L417,350Z" fill="rgb(113,147,198)" stroke="rgb(113,147,198)" stroke-width="1.51"></path><path d="M566,278L565,201L492,202Z" fill="rgb(158,179,205)" stroke="rgb(158,179,205)" stroke-width="1.51"></path><path d="M492,202L485,121L415,127Z" fill="rgb(202,198,175)" stroke="rgb(202,198,175)" stroke-width="1.51"></path><path d="M108,202L42,200L111,270Z" fill="rgb(244,167,134)" stroke="rgb(244,167,134)" stroke-width="1.51"></path><path d="M111,270L33,279L115,351Z" fill="rgb(206,142,134)" stroke="rgb(206,142,134)" stroke-width="1.51"></path><path d="M109,121L42,200L108,202Z" fill="rgb(247,161,104)" stroke="rgb(247,161,104)" stroke-width="1.51"></path><path d="M267,46L263,-20L187,54Z" fill="rgb(231,138,88)" stroke="rgb(231,138,88)" stroke-width="1.51"></path><path d="M187,54L112,53L109,121Z" fill="rgb(244,116,69)" stroke="rgb(244,116,69)" stroke-width="1.51"></path><path d="M337,49L263,-20L267,46Z" fill="rgb(234,151,106)" stroke="rgb(234,151,106)" stroke-width="1.51"></path><path d="M338,-27L263,-20L337,49Z" fill="rgb(217,143,115)" stroke="rgb(217,143,115)" stroke-width="1.51"></path><path d="M109,121L39,120L42,200Z" fill="rgb(240,137,82)" stroke="rgb(240,137,82)" stroke-width="1.51"></path><path d="M185,-21L112,53L187,54Z" fill="rgb(227,103,62)" stroke="rgb(227,103,62)" stroke-width="1.51"></path><path d="M267,426L264,495L333,422Z" fill="rgb(163,145,169)" stroke="rgb(163,145,169)" stroke-width="1.51"></path><path d="M191,429L264,495L267,426Z" fill="rgb(164,134,152)" stroke="rgb(164,134,152)" stroke-width="1.51"></path><path d="M191,429L182,501L264,495Z" fill="rgb(165,122,141)" stroke="rgb(165,122,141)" stroke-width="1.51"></path><path d="M115,351L112,428L191,429Z" fill="rgb(166,89,117)" stroke="rgb(166,89,117)" stroke-width="1.51"></path><path d="M35,429L112,428L115,351Z" fill="rgb(158,64,103)" stroke="rgb(158,64,103)" stroke-width="1.51"></path><path d="M42,200L33,279L111,270Z" fill="rgb(230,152,137)" stroke="rgb(230,152,137)" stroke-width="1.51"></path><path d="M409,-22L338,-27L337,49Z" fill="rgb(208,137,135)" stroke="rgb(208,137,135)" stroke-width="1.51"></path><path d="M409,-22L337,49L408,54Z" fill="rgb(218,144,135)" stroke="rgb(218,144,135)" stroke-width="1.51"></path><path d="M413,420L491,429L482,354Z" fill="rgb(96,118,183)" stroke="rgb(96,118,183)" stroke-width="1.51"></path><path d="M264,495L340,504L333,422Z" fill="rgb(159,147,178)" stroke="rgb(159,147,178)" stroke-width="1.51"></path><path d="M485,121L492,49L408,54Z" fill="rgb(206,148,139)" stroke="rgb(206,148,139)" stroke-width="1.51"></path><path d="M560,124L492,49L485,121Z" fill="rgb(189,142,138)" stroke="rgb(189,142,138)" stroke-width="1.51"></path><path d="M492,202L560,124L485,121Z" fill="rgb(185,175,165)" stroke="rgb(185,175,165)" stroke-width="1.51"></path><path d="M566,278L492,202L482,274Z" fill="rgb(152,187,219)" stroke="rgb(152,187,219)" stroke-width="1.51"></path><path d="M567,353L566,278L482,354Z" fill="rgb(89,139,192)" stroke="rgb(89,139,192)" stroke-width="1.51"></path><path d="M482,354L566,278L482,274Z" fill="rgb(118,169,208)" stroke="rgb(118,169,208)" stroke-width="1.51"></path><path d="M415,497L491,429L413,420Z" fill="rgb(106,125,187)" stroke="rgb(106,125,187)" stroke-width="1.51"></path><path d="M266,-96L185,-21L263,-20Z" fill="rgb(214,127,87)" stroke="rgb(214,127,87)" stroke-width="1.51"></path><path d="M263,-20L185,-21L187,54Z" fill="rgb(215,118,77)" stroke="rgb(215,118,77)" stroke-width="1.51"></path><path d="M42,200L-36,204L33,279Z" fill="rgb(218,143,128)" stroke="rgb(218,143,128)" stroke-width="1.51"></path><path d="M40,54L39,120L109,121Z" fill="rgb(233,100,59)" stroke="rgb(233,100,59)" stroke-width="1.51"></path><path d="M40,54L109,121L112,53Z" fill="rgb(235,91,57)" stroke="rgb(235,91,57)" stroke-width="1.51"></path><path d="M492,49L409,-22L408,54Z" fill="rgb(198,132,128)" stroke="rgb(198,132,128)" stroke-width="1.51"></path><path d="M33,279L33,347L115,351Z" fill="rgb(187,117,120)" stroke="rgb(187,117,120)" stroke-width="1.51"></path><path d="M340,504L415,497L333,422Z" fill="rgb(141,143,198)" stroke="rgb(141,143,198)" stroke-width="1.51"></path><path d="M565,201L560,124L492,202Z" fill="rgb(174,174,174)" stroke="rgb(174,174,174)" stroke-width="1.51"></path><path d="M112,428L182,501L191,429Z" fill="rgb(166,100,124)" stroke="rgb(166,100,124)" stroke-width="1.51"></path><path d="M264,495L182,501L340,504Z" fill="rgb(164,139,159)" stroke="rgb(164,139,159)" stroke-width="1.51"></path><path d="M110,502L182,501L112,428Z" fill="rgb(165,86,116)" stroke="rgb(165,86,116)" stroke-width="1.51"></path><path d="M563,424L567,353L482,354Z" fill="rgb(67,104,174)" stroke="rgb(67,104,174)" stroke-width="1.51"></path><path d="M566,278L632,196L565,201Z" fill="rgb(152,152,192)" stroke="rgb(152,152,192)" stroke-width="1.51"></path><path d="M115,-23L40,54L112,53Z" fill="rgb(215,60,45)" stroke="rgb(215,60,45)" stroke-width="1.51"></path><path d="M39,120L-36,204L42,200Z" fill="rgb(222,138,96)" stroke="rgb(222,138,96)" stroke-width="1.51"></path><path d="M185,-21L115,-23L112,53Z" fill="rgb(208,78,56)" stroke="rgb(208,78,56)" stroke-width="1.51"></path><path d="M187,-101L115,-23L185,-21Z" fill="rgb(209,92,62)" stroke="rgb(209,92,62)" stroke-width="1.51"></path><path d="M182,501L110,502L340,504Z" fill="rgb(165,122,140)" stroke="rgb(165,122,140)" stroke-width="1.51"></path><path d="M37,500L110,502L112,428Z" fill="rgb(158,64,103)" stroke="rgb(158,64,103)" stroke-width="1.51"></path><path d="M33,347L35,429L115,351Z" fill="rgb(163,77,104)" stroke="rgb(163,77,104)" stroke-width="1.51"></path><path d="M561,504L489,497L415,497Z" fill="rgb(84,108,177)" stroke="rgb(84,108,177)" stroke-width="1.51"></path><path d="M415,497L489,497L491,429Z" fill="rgb(94,117,182)" stroke="rgb(94,117,182)" stroke-width="1.51"></path><path d="M491,429L563,424L482,354Z" fill="rgb(74,98,172)" stroke="rgb(74,98,172)" stroke-width="1.51"></path><path d="M560,124L563,52L492,49Z" fill="rgb(178,113,124)" stroke="rgb(178,113,124)" stroke-width="1.51"></path><path d="M492,49L486,-28L409,-22Z" fill="rgb(170,112,121)" stroke="rgb(170,112,121)" stroke-width="1.51"></path><path d="M637,52L563,52L560,124Z" fill="rgb(167,84,113)" stroke="rgb(167,84,113)" stroke-width="1.51"></path><path d="M562,-29L486,-28L492,49Z" fill="rgb(152,90,112)" stroke="rgb(152,90,112)" stroke-width="1.51"></path><path d="M337,-102L266,-96L338,-27Z" fill="rgb(216,142,115)" stroke="rgb(216,142,115)" stroke-width="1.51"></path><path d="M561,504L563,424L491,429Z" fill="rgb(62,86,165)" stroke="rgb(62,86,165)" stroke-width="1.51"></path><path d="M-43,123L-36,204L39,120Z" fill="rgb(214,121,82)" stroke="rgb(214,121,82)" stroke-width="1.51"></path><path d="M33,279L-36,352L33,347Z" fill="rgb(165,104,117)" stroke="rgb(165,104,117)" stroke-width="1.51"></path><path d="M33,347L-36,352L35,429Z" fill="rgb(141,65,101)" stroke="rgb(141,65,101)" stroke-width="1.51"></path><path d="M337,-102L338,-27L417,-97Z" fill="rgb(207,137,135)" stroke="rgb(207,137,135)" stroke-width="1.51"></path><path d="M338,-27L266,-96L263,-20Z" fill="rgb(217,141,105)" stroke="rgb(217,141,105)" stroke-width="1.51"></path><path d="M565,201L632,196L560,124Z" fill="rgb(166,147,162)" stroke="rgb(166,147,162)" stroke-width="1.51"></path><path d="M639,277L632,196L566,278Z" fill="rgb(136,140,197)" stroke="rgb(136,140,197)" stroke-width="1.51"></path><path d="M639,277L566,278L567,353Z" fill="rgb(101,126,187)" stroke="rgb(101,126,187)" stroke-width="1.51"></path><path d="M-36,204L-41,270L33,279Z" fill="rgb(203,135,134)" stroke="rgb(203,135,134)" stroke-width="1.51"></path><path d="M417,-97L338,-27L409,-22Z" fill="rgb(198,133,132)" stroke="rgb(198,133,132)" stroke-width="1.51"></path><path d="M640,354L639,277L567,353Z" fill="rgb(82,106,176)" stroke="rgb(82,106,176)" stroke-width="1.51"></path><path d="M-41,270L-36,352L33,279Z" fill="rgb(175,116,124)" stroke="rgb(175,116,124)" stroke-width="1.51"></path><path d="M266,-96L187,-101L185,-21Z" fill="rgb(212,117,77)" stroke="rgb(212,117,77)" stroke-width="1.51"></path><path d="M-38,51L39,120L40,54Z" fill="rgb(208,65,50)" stroke="rgb(208,65,50)" stroke-width="1.51"></path><path d="M337,-102L187,-101L266,-96Z" fill="rgb(216,134,96)" stroke="rgb(216,134,96)" stroke-width="1.51"></path><path d="M486,-28L417,-97L409,-22Z" fill="rgb(180,121,126)" stroke="rgb(180,121,126)" stroke-width="1.51"></path><path d="M-117,205L-116,276L-41,270Z" fill="rgb(203,135,134)" stroke="rgb(203,135,134)" stroke-width="1.51"></path><path d="M-38,51L-43,123L39,120Z" fill="rgb(207,83,58)" stroke="rgb(207,83,58)" stroke-width="1.51"></path><path d="M35,-31L40,54L115,-23Z" fill="rgb(191,31,39)" stroke="rgb(191,31,39)" stroke-width="1.51"></path><path d="M563,52L562,-29L492,49Z" fill="rgb(158,86,108)" stroke="rgb(158,86,108)" stroke-width="1.51"></path><path d="M632,196L640,126L560,124Z" fill="rgb(165,127,145)" stroke="rgb(165,127,145)" stroke-width="1.51"></path><path d="M708,203L640,126L632,196Z" fill="rgb(164,139,160)" stroke="rgb(164,139,160)" stroke-width="1.51"></path><path d="M632,429L640,354L567,353Z" fill="rgb(56,71,158)" stroke="rgb(56,71,158)" stroke-width="1.51"></path><path d="M639,277L708,203L632,196Z" fill="rgb(150,145,189)" stroke="rgb(150,145,189)" stroke-width="1.51"></path><path d="M632,429L567,353L563,424Z" fill="rgb(52,61,152)" stroke="rgb(52,61,152)" stroke-width="1.51"></path><path d="M35,429L37,500L112,428Z" fill="rgb(153,53,97)" stroke="rgb(153,53,97)" stroke-width="1.51"></path><path d="M-37,427L37,500L35,429Z" fill="rgb(133,40,93)" stroke="rgb(133,40,93)" stroke-width="1.51"></path><path d="M109,-105L35,-31L115,-23Z" fill="rgb(196,47,45)" stroke="rgb(196,47,45)" stroke-width="1.51"></path><path d="M637,52L562,-29L563,52Z" fill="rgb(147,55,98)" stroke="rgb(147,55,98)" stroke-width="1.51"></path><path d="M486,-28L491,-100L417,-97Z" fill="rgb(170,111,121)" stroke="rgb(170,111,121)" stroke-width="1.51"></path><path d="M340,504L561,504L415,497Z" fill="rgb(107,126,188)" stroke="rgb(107,126,188)" stroke-width="1.51"></path><path d="M489,497L561,504L491,429Z" fill="rgb(73,97,171)" stroke="rgb(73,97,171)" stroke-width="1.51"></path><path d="M35,-31L-38,51L40,54Z" fill="rgb(185,24,39)" stroke="rgb(185,24,39)" stroke-width="1.51"></path><path d="M-112,352L-37,427L-36,352Z" fill="rgb(136,61,100)" stroke="rgb(136,61,100)" stroke-width="1.51"></path><path d="M-36,352L-37,427L35,429Z" fill="rgb(128,38,93)" stroke="rgb(128,38,93)" stroke-width="1.51"></path><path d="M633,496L632,429L563,424Z" fill="rgb(49,54,149)" stroke="rgb(49,54,149)" stroke-width="1.51"></path><path d="M640,126L637,52L560,124Z" fill="rgb(166,95,120)" stroke="rgb(166,95,120)" stroke-width="1.51"></path><path d="M559,-96L491,-100L486,-28Z" fill="rgb(152,91,112)" stroke="rgb(152,91,112)" stroke-width="1.51"></path><path d="M417,-97L491,-100L337,-102Z" fill="rgb(189,127,129)" stroke="rgb(189,127,129)" stroke-width="1.51"></path><path d="M636,-103L109,-105L337,-102Z" fill="rgb(208,138,135)" stroke="rgb(208,138,135)" stroke-width="1.51"></path><path d="M337,-102L109,-105L187,-101Z" fill="rgb(212,116,77)" stroke="rgb(212,116,77)" stroke-width="1.51"></path><path d="M187,-101L109,-105L115,-23Z" fill="rgb(206,77,56)" stroke="rgb(206,77,56)" stroke-width="1.51"></path><path d="M714,276L639,277L713,348Z" fill="rgb(102,121,185)" stroke="rgb(102,121,185)" stroke-width="1.51"></path><path d="M714,276L708,203L639,277Z" fill="rgb(134,140,196)" stroke="rgb(134,140,196)" stroke-width="1.51"></path><path d="M640,126L707,49L637,52Z" fill="rgb(163,75,110)" stroke="rgb(163,75,110)" stroke-width="1.51"></path><path d="M-41,270L-112,352L-36,352Z" fill="rgb(161,102,117)" stroke="rgb(161,102,117)" stroke-width="1.51"></path><path d="M-117,205L-41,270L-36,204Z" fill="rgb(212,140,127)" stroke="rgb(212,140,127)" stroke-width="1.51"></path><path d="M-117,205L-36,204L-109,129Z" fill="rgb(216,136,98)" stroke="rgb(216,136,98)" stroke-width="1.51"></path><path d="M-109,129L-36,204L-43,123Z" fill="rgb(213,123,83)" stroke="rgb(213,123,83)" stroke-width="1.51"></path><path d="M-117,46L-109,129L-43,123Z" fill="rgb(207,85,59)" stroke="rgb(207,85,59)" stroke-width="1.51"></path><path d="M-117,46L-43,123L-38,51Z" fill="rgb(202,60,50)" stroke="rgb(202,60,50)" stroke-width="1.51"></path><path d="M713,348L639,277L640,354Z" fill="rgb(83,108,177)" stroke="rgb(83,108,177)" stroke-width="1.51"></path><path d="M-116,276L-112,352L-41,270Z" fill="rgb(175,116,124)" stroke="rgb(175,116,124)" stroke-width="1.51"></path><path d="M636,-103L559,-96L562,-29Z" fill="rgb(131,48,96)" stroke="rgb(131,48,96)" stroke-width="1.51"></path><path d="M562,-29L559,-96L486,-28Z" fill="rgb(144,79,107)" stroke="rgb(144,79,107)" stroke-width="1.51"></path><path d="M35,-31L-42,-29L-38,51Z" fill="rgb(165,0,38)" stroke="rgb(165,0,38)" stroke-width="1.51"></path><path d="M109,-105L38,-101L35,-31Z" fill="rgb(190,29,39)" stroke="rgb(190,29,39)" stroke-width="1.51"></path><path d="M710,422L713,348L640,354Z" fill="rgb(57,74,159)" stroke="rgb(57,74,159)" stroke-width="1.51"></path><path d="M561,504L633,496L563,424Z" fill="rgb(52,62,153)" stroke="rgb(52,62,153)" stroke-width="1.51"></path><path d="M-37,427L-40,503L37,500Z" fill="rgb(128,38,93)" stroke="rgb(128,38,93)" stroke-width="1.51"></path><path d="M37,500L-40,503L110,502Z" fill="rgb(142,46,95)" stroke="rgb(142,46,95)" stroke-width="1.51"></path><path d="M110,502L-40,503L340,504Z" fill="rgb(165,87,117)" stroke="rgb(165,87,117)" stroke-width="1.51"></path><path d="M-109,497L-40,503L-37,427Z" fill="rgb(128,38,93)" stroke="rgb(128,38,93)" stroke-width="1.51"></path><path d="M-41,-102L-42,-29L35,-31Z" fill="rgb(165,0,38)" stroke="rgb(165,0,38)" stroke-width="1.51"></path><path d="M710,422L640,354L632,429Z" fill="rgb(49,54,149)" stroke="rgb(49,54,149)" stroke-width="1.51"></path><path d="M637,52L642,-28L562,-29Z" fill="rgb(128,38,93)" stroke="rgb(128,38,93)" stroke-width="1.51"></path><path d="M708,203L714,119L640,126Z" fill="rgb(165,127,145)" stroke="rgb(165,127,145)" stroke-width="1.51"></path><path d="M714,276L714,119L708,203Z" fill="rgb(162,148,173)" stroke="rgb(162,148,173)" stroke-width="1.51"></path><path d="M707,49L642,-28L637,52Z" fill="rgb(143,46,95)" stroke="rgb(143,46,95)" stroke-width="1.51"></path><path d="M714,119L707,49L640,126Z" fill="rgb(166,92,119)" stroke="rgb(166,92,119)" stroke-width="1.51"></path><path d="M633,496L710,422L632,429Z" fill="rgb(49,54,149)" stroke="rgb(49,54,149)" stroke-width="1.51"></path><path d="M-112,352L-117,426L-37,427Z" fill="rgb(128,38,93)" stroke="rgb(128,38,93)" stroke-width="1.51"></path><path d="M-116,276L-117,426L-112,352Z" fill="rgb(147,84,109)" stroke="rgb(147,84,109)" stroke-width="1.51"></path><path d="M-117,205L-117,426L-116,276Z" fill="rgb(174,115,123)" stroke="rgb(174,115,123)" stroke-width="1.51"></path><path d="M-42,-29L-117,46L-38,51Z" fill="rgb(179,18,39)" stroke="rgb(179,18,39)" stroke-width="1.51"></path><path d="M-109,129L-117,46L-117,205Z" fill="rgb(211,106,70)" stroke="rgb(211,106,70)" stroke-width="1.51"></path><path d="M-42,-29L-116,-24L-117,46Z" fill="rgb(165,0,38)" stroke="rgb(165,0,38)" stroke-width="1.51"></path><path d="M38,-101L-41,-102L35,-31Z" fill="rgb(169,6,38)" stroke="rgb(169,6,38)" stroke-width="1.51"></path><path d="M109,-105L-41,-102L38,-101Z" fill="rgb(179,19,39)" stroke="rgb(179,19,39)" stroke-width="1.51"></path><path d="M707,-95L636,-103L642,-28Z" fill="rgb(128,38,93)" stroke="rgb(128,38,93)" stroke-width="1.51"></path><path d="M642,-28L636,-103L562,-29Z" fill="rgb(128,38,93)" stroke="rgb(128,38,93)" stroke-width="1.51"></path><path d="M559,-96L636,-103L491,-100Z" fill="rgb(137,64,101)" stroke="rgb(137,64,101)" stroke-width="1.51"></path><path d="M491,-100L636,-103L337,-102Z" fill="rgb(161,102,117)" stroke="rgb(161,102,117)" stroke-width="1.51"></path><path d="M-117,426L-109,497L-37,427Z" fill="rgb(128,38,93)" stroke="rgb(128,38,93)" stroke-width="1.51"></path><path d="M-115,-96L-116,-24L-42,-29Z" fill="rgb(165,0,38)" stroke="rgb(165,0,38)" stroke-width="1.51"></path><path d="M707,49L712,-22L642,-28Z" fill="rgb(128,38,93)" stroke="rgb(128,38,93)" stroke-width="1.51"></path><path d="M714,119L712,-22L707,49Z" fill="rgb(155,58,100)" stroke="rgb(155,58,100)" stroke-width="1.51"></path><path d="M633,496L717,504L710,422Z" fill="rgb(49,54,149)" stroke="rgb(49,54,149)" stroke-width="1.51"></path><path d="M710,422L717,504L713,348Z" fill="rgb(49,54,149)" stroke="rgb(49,54,149)" stroke-width="1.51"></path><path d="M713,348L717,504L714,276Z" fill="rgb(57,73,159)" stroke="rgb(57,73,159)" stroke-width="1.51"></path><path d="M714,276L717,504L714,119Z" fill="rgb(102,122,185)" stroke="rgb(102,122,185)" stroke-width="1.51"></path><path d="M561,504L717,504L633,496Z" fill="rgb(49,54,149)" stroke="rgb(49,54,149)" stroke-width="1.51"></path><path d="M712,-22L707,-95L642,-28Z" fill="rgb(128,38,93)" stroke="rgb(128,38,93)" stroke-width="1.51"></path><path d="M-41,-102L-115,-96L-42,-29Z" fill="rgb(165,0,38)" stroke="rgb(165,0,38)" stroke-width="1.51"></path><path d="M-116,-24L-115,-96L-117,46Z" fill="rgb(165,0,38)" stroke="rgb(165,0,38)" stroke-width="1.51"></path></svg>