<svg width="600" height="400" xmlns="http://www.w3.org/2000/svg"><path d="M334,188L417,134L345,140Z" fill="rgb(159,157,203)" stroke="rgb(159,157,203)" stroke-width="1.51"></path><path d="M334,188L436,186L417,134Z" fill="rgb(149,143,196)" stroke="rgb(149,143,196)" stroke-width="1.51"></path><path d="M334,188L400,260L436,186Z" fill="rgb(138,131,189)" stroke="rgb(138,131,189)" stroke-width="1.51"></path><path d="M436,186L488,114L417,134Z" fill="rgb(150,136,193)" stroke="rgb(150,136,193)" stroke-width="1.51"></path><path d="M400,260L498,208L436,186Z" fill="rgb(128,113,180)" stroke="rgb(128,113,180)" stroke-width="1.51"></path><path d="M417,134L419,60L345,140Z" fill="rgb(167,161,206)" stroke="rgb(167,161,206)" stroke-width="1.51"></path><path d="M488,114L419,60L417,134Z" fill="rgb(163,149,200)" stroke="rgb(163,149,200)" stroke-width="1.51"></path><path d="M498,208L488,114L436,186Z" fill="rgb(139,120,185)" stroke="rgb(139,120,185)" stroke-width="1.51"></path><path d="M334,188L317,286L400,260Z" fill="rgb(135,131,189)" stroke="rgb(135,131,189)" stroke-width="1.51"></path><path d="M334,188L239,212L317,286Z" fill="rgb(150,146,197)" stroke="rgb(150,146,197)" stroke-width="1.51"></path><path d="M237,114L239,212L334,188Z" fill="rgb(173,171,210)" stroke="rgb(173,171,210)" stroke-width="1.51"></path><path d="M237,114L334,188L345,140Z" fill="rgb(173,171,210)" stroke="rgb(173,171,210)" stroke-width="1.51"></path><path d="M419,60L344,27L345,140Z" fill="rgb(179,176,214)" stroke="rgb(179,176,214)" stroke-width="1.51"></path><path d="M239,212L283,291L317,286Z" fill="rgb(145,138,193)" stroke="rgb(145,138,193)" stroke-width="1.51"></path><path d="M278,54L237,114L345,140Z" fill="rgb(189,188,219)" stroke="rgb(189,188,219)" stroke-width="1.51"></path><path d="M322,356L396,333L317,286Z" fill="rgb(118,98,172)" stroke="rgb(118,98,172)" stroke-width="1.51"></path><path d="M317,286L396,333L400,260Z" fill="rgb(120,107,176)" stroke="rgb(120,107,176)" stroke-width="1.51"></path><path d="M400,260L503,298L498,208Z" fill="rgb(114,96,171)" stroke="rgb(114,96,171)" stroke-width="1.51"></path><path d="M344,27L278,54L345,140Z" fill="rgb(189,186,218)" stroke="rgb(189,186,218)" stroke-width="1.51"></path><path d="M498,208L546,149L488,114Z" fill="rgb(138,115,182)" stroke="rgb(138,115,182)" stroke-width="1.51"></path><path d="M488,114L494,46L419,60Z" fill="rgb(166,147,199)" stroke="rgb(166,147,199)" stroke-width="1.51"></path><path d="M546,25L494,46L488,114Z" fill="rgb(163,138,195)" stroke="rgb(163,138,195)" stroke-width="1.51"></path><path d="M392,-44L316,-31L344,27Z" fill="rgb(195,191,222)" stroke="rgb(195,191,222)" stroke-width="1.51"></path><path d="M498,208L562,190L546,149Z" fill="rgb(127,100,174)" stroke="rgb(127,100,174)" stroke-width="1.51"></path><path d="M396,333L503,298L400,260Z" fill="rgb(109,87,166)" stroke="rgb(109,87,166)" stroke-width="1.51"></path><path d="M545,253L562,190L498,208Z" fill="rgb(116,90,168)" stroke="rgb(116,90,168)" stroke-width="1.51"></path><path d="M503,298L545,253L498,208Z" fill="rgb(108,84,165)" stroke="rgb(108,84,165)" stroke-width="1.51"></path><path d="M283,291L322,356L317,286Z" fill="rgb(129,111,179)" stroke="rgb(129,111,179)" stroke-width="1.51"></path><path d="M237,114L192,137L239,212Z" fill="rgb(187,188,219)" stroke="rgb(187,188,219)" stroke-width="1.51"></path><path d="M239,212L171,264L283,291Z" fill="rgb(156,152,201)" stroke="rgb(156,152,201)" stroke-width="1.51"></path><path d="M174,55L192,137L237,114Z" fill="rgb(207,207,230)" stroke="rgb(207,207,230)" stroke-width="1.51"></path><path d="M192,137L188,215L239,212Z" fill="rgb(180,179,214)" stroke="rgb(180,179,214)" stroke-width="1.51"></path><path d="M283,291L260,341L322,356Z" fill="rgb(129,107,177)" stroke="rgb(129,107,177)" stroke-width="1.51"></path><path d="M486,416L501,343L396,333Z" fill="rgb(91,54,149)" stroke="rgb(91,54,149)" stroke-width="1.51"></path><path d="M396,333L501,343L503,298Z" fill="rgb(99,67,156)" stroke="rgb(99,67,156)" stroke-width="1.51"></path><path d="M503,298L540,342L545,253Z" fill="rgb(95,61,153)" stroke="rgb(95,61,153)" stroke-width="1.51"></path><path d="M200,328L260,341L283,291Z" fill="rgb(140,120,185)" stroke="rgb(140,120,185)" stroke-width="1.51"></path><path d="M344,27L316,-31L278,54Z" fill="rgb(200,196,224)" stroke="rgb(200,196,224)" stroke-width="1.51"></path><path d="M278,54L174,55L237,114Z" fill="rgb(207,207,230)" stroke="rgb(207,207,230)" stroke-width="1.51"></path><path d="M392,-44L344,27L419,60Z" fill="rgb(187,181,217)" stroke="rgb(187,181,217)" stroke-width="1.51"></path><path d="M477,-36L392,-44L419,60Z" fill="rgb(182,169,211)" stroke="rgb(182,169,211)" stroke-width="1.51"></path><path d="M494,46L477,-36L419,60Z" fill="rgb(175,156,204)" stroke="rgb(175,156,204)" stroke-width="1.51"></path><path d="M546,149L546,25L488,114Z" fill="rgb(154,127,190)" stroke="rgb(154,127,190)" stroke-width="1.51"></path><path d="M627,50L546,25L546,149Z" fill="rgb(153,122,185)" stroke="rgb(153,122,185)" stroke-width="1.51"></path><path d="M501,343L540,342L503,298Z" fill="rgb(91,52,149)" stroke="rgb(91,52,149)" stroke-width="1.51"></path><path d="M545,253L630,209L562,190Z" fill="rgb(111,82,162)" stroke="rgb(111,82,162)" stroke-width="1.51"></path><path d="M486,416L540,342L501,343Z" fill="rgb(83,39,142)" stroke="rgb(83,39,142)" stroke-width="1.51"></path><path d="M546,25L477,-36L494,46Z" fill="rgb(171,145,200)" stroke="rgb(171,145,200)" stroke-width="1.51"></path><path d="M188,215L171,264L239,212Z" fill="rgb(169,167,209)" stroke="rgb(169,167,209)" stroke-width="1.51"></path><path d="M105,177L171,264L188,215Z" fill="rgb(182,179,214)" stroke="rgb(182,179,214)" stroke-width="1.51"></path><path d="M316,-31L252,-16L278,54Z" fill="rgb(208,205,229)" stroke="rgb(208,205,229)" stroke-width="1.51"></path><path d="M342,414L396,333L322,356Z" fill="rgb(109,82,163)" stroke="rgb(109,82,163)" stroke-width="1.51"></path><path d="M171,264L200,328L283,291Z" fill="rgb(151,138,194)" stroke="rgb(151,138,194)" stroke-width="1.51"></path><path d="M192,137L105,177L188,215Z" fill="rgb(192,191,221)" stroke="rgb(192,191,221)" stroke-width="1.51"></path><path d="M252,-16L174,55L278,54Z" fill="rgb(214,213,232)" stroke="rgb(214,213,232)" stroke-width="1.51"></path><path d="M342,414L400,416L396,333Z" fill="rgb(100,71,157)" stroke="rgb(100,71,157)" stroke-width="1.51"></path><path d="M342,414L322,356L265,421Z" fill="rgb(112,82,162)" stroke="rgb(112,82,162)" stroke-width="1.51"></path><path d="M265,421L322,356L260,341Z" fill="rgb(123,94,170)" stroke="rgb(123,94,170)" stroke-width="1.51"></path><path d="M562,190L639,137L546,149Z" fill="rgb(129,99,173)" stroke="rgb(129,99,173)" stroke-width="1.51"></path><path d="M644,258L630,209L545,253Z" fill="rgb(101,72,157)" stroke="rgb(101,72,157)" stroke-width="1.51"></path><path d="M630,209L639,137L562,190Z" fill="rgb(120,90,167)" stroke="rgb(120,90,167)" stroke-width="1.51"></path><path d="M174,55L131,111L192,137Z" fill="rgb(214,214,233)" stroke="rgb(214,214,233)" stroke-width="1.51"></path><path d="M400,416L486,416L396,333Z" fill="rgb(92,57,149)" stroke="rgb(92,57,149)" stroke-width="1.51"></path><path d="M316,-31L282,-123L252,-16Z" fill="rgb(208,206,228)" stroke="rgb(208,206,228)" stroke-width="1.51"></path><path d="M392,-44L355,-96L316,-31Z" fill="rgb(194,190,221)" stroke="rgb(194,190,221)" stroke-width="1.51"></path><path d="M394,-122L355,-96L392,-44Z" fill="rgb(189,184,218)" stroke="rgb(189,184,218)" stroke-width="1.51"></path><path d="M578,-45L507,-83L477,-36Z" fill="rgb(170,143,198)" stroke="rgb(170,143,198)" stroke-width="1.51"></path><path d="M639,137L627,50L546,149Z" fill="rgb(141,109,178)" stroke="rgb(141,109,178)" stroke-width="1.51"></path><path d="M540,342L644,258L545,253Z" fill="rgb(93,58,150)" stroke="rgb(93,58,150)" stroke-width="1.51"></path><path d="M717,216L700,127L639,137Z" fill="rgb(126,96,170)" stroke="rgb(126,96,170)" stroke-width="1.51"></path><path d="M638,364L644,258L540,342Z" fill="rgb(81,37,139)" stroke="rgb(81,37,139)" stroke-width="1.51"></path><path d="M252,-16L190,-19L174,55Z" fill="rgb(223,223,238)" stroke="rgb(223,223,238)" stroke-width="1.51"></path><path d="M174,55L120,48L131,111Z" fill="rgb(225,224,238)" stroke="rgb(225,224,238)" stroke-width="1.51"></path><path d="M167,-124L190,-19L252,-16Z" fill="rgb(224,224,238)" stroke="rgb(224,224,238)" stroke-width="1.51"></path><path d="M200,328L265,421L260,341Z" fill="rgb(132,106,177)" stroke="rgb(132,106,177)" stroke-width="1.51"></path><path d="M342,414L390,496L400,416Z" fill="rgb(98,69,155)" stroke="rgb(98,69,155)" stroke-width="1.51"></path><path d="M493,492L559,444L486,416Z" fill="rgb(76,27,135)" stroke="rgb(76,27,135)" stroke-width="1.51"></path><path d="M171,264L127,350L200,328Z" fill="rgb(157,139,194)" stroke="rgb(157,139,194)" stroke-width="1.51"></path><path d="M131,111L105,177L192,137Z" fill="rgb(206,207,230)" stroke="rgb(206,207,230)" stroke-width="1.51"></path><path d="M477,-36L394,-122L392,-44Z" fill="rgb(184,172,212)" stroke="rgb(184,172,212)" stroke-width="1.51"></path><path d="M578,-45L477,-36L546,25Z" fill="rgb(169,140,197)" stroke="rgb(169,140,197)" stroke-width="1.51"></path><path d="M627,50L578,-45L546,25Z" fill="rgb(162,129,190)" stroke="rgb(162,129,190)" stroke-width="1.51"></path><path d="M131,111L49,141L105,177Z" fill="rgb(212,212,232)" stroke="rgb(212,212,232)" stroke-width="1.51"></path><path d="M190,-19L120,48L174,55Z" fill="rgb(229,228,241)" stroke="rgb(229,228,241)" stroke-width="1.51"></path><path d="M355,-96L282,-123L316,-31Z" fill="rgb(201,198,225)" stroke="rgb(201,198,225)" stroke-width="1.51"></path><path d="M507,-83L394,-122L477,-36Z" fill="rgb(178,160,207)" stroke="rgb(178,160,207)" stroke-width="1.51"></path><path d="M200,328L164,439L265,421Z" fill="rgb(133,103,174)" stroke="rgb(133,103,174)" stroke-width="1.51"></path><path d="M92,297L127,350L171,264Z" fill="rgb(165,148,200)" stroke="rgb(165,148,200)" stroke-width="1.51"></path><path d="M394,-122L282,-123L355,-96Z" fill="rgb(196,192,222)" stroke="rgb(196,192,222)" stroke-width="1.51"></path><path d="M190,-19L115,-28L120,48Z" fill="rgb(236,235,244)" stroke="rgb(236,235,244)" stroke-width="1.51"></path><path d="M105,177L92,297L171,264Z" fill="rgb(178,175,213)" stroke="rgb(178,175,213)" stroke-width="1.51"></path><path d="M635,413L638,364L540,342Z" fill="rgb(69,13,130)" stroke="rgb(69,13,130)" stroke-width="1.51"></path><path d="M627,50L613,-47L578,-45Z" fill="rgb(161,127,189)" stroke="rgb(161,127,189)" stroke-width="1.51"></path><path d="M578,-45L577,-99L507,-83Z" fill="rgb(166,136,194)" stroke="rgb(166,136,194)" stroke-width="1.51"></path><path d="M507,-83L577,-99L394,-122Z" fill="rgb(174,151,202)" stroke="rgb(174,151,202)" stroke-width="1.51"></path><path d="M639,137L700,127L627,50Z" fill="rgb(143,111,179)" stroke="rgb(143,111,179)" stroke-width="1.51"></path><path d="M627,50L720,-43L613,-47Z" fill="rgb(161,127,189)" stroke="rgb(161,127,189)" stroke-width="1.51"></path><path d="M717,216L639,137L630,209Z" fill="rgb(118,87,165)" stroke="rgb(118,87,165)" stroke-width="1.51"></path><path d="M717,216L630,209L644,258Z" fill="rgb(105,75,158)" stroke="rgb(105,75,158)" stroke-width="1.51"></path><path d="M486,416L559,444L540,342Z" fill="rgb(73,22,133)" stroke="rgb(73,22,133)" stroke-width="1.51"></path><path d="M493,492L486,416L400,416Z" fill="rgb(84,44,142)" stroke="rgb(84,44,142)" stroke-width="1.51"></path><path d="M323,519L390,496L342,414Z" fill="rgb(103,73,157)" stroke="rgb(103,73,157)" stroke-width="1.51"></path><path d="M255,477L342,414L265,421Z" fill="rgb(116,86,164)" stroke="rgb(116,86,164)" stroke-width="1.51"></path><path d="M164,439L255,477L265,421Z" fill="rgb(129,99,172)" stroke="rgb(129,99,172)" stroke-width="1.51"></path><path d="M613,-47L577,-99L578,-45Z" fill="rgb(162,129,190)" stroke="rgb(162,129,190)" stroke-width="1.51"></path><path d="M732,264L717,216L644,258Z" fill="rgb(99,70,156)" stroke="rgb(99,70,156)" stroke-width="1.51"></path><path d="M390,496L493,492L400,416Z" fill="rgb(90,53,147)" stroke="rgb(90,53,147)" stroke-width="1.51"></path><path d="M118,-107L115,-28L190,-19Z" fill="rgb(236,235,244)" stroke="rgb(236,235,244)" stroke-width="1.51"></path><path d="M36,58L49,141L131,111Z" fill="rgb(228,227,240)" stroke="rgb(228,227,240)" stroke-width="1.51"></path><path d="M105,177L43,259L92,297Z" fill="rgb(185,180,216)" stroke="rgb(185,180,216)" stroke-width="1.51"></path><path d="M36,58L131,111L120,48Z" fill="rgb(232,230,242)" stroke="rgb(232,230,242)" stroke-width="1.51"></path><path d="M127,350L164,439L200,328Z" fill="rgb(147,118,183)" stroke="rgb(147,118,183)" stroke-width="1.51"></path><path d="M117,436L164,439L127,350Z" fill="rgb(146,114,181)" stroke="rgb(146,114,181)" stroke-width="1.51"></path><path d="M638,364L695,348L644,258Z" fill="rgb(80,36,139)" stroke="rgb(80,36,139)" stroke-width="1.51"></path><path d="M559,444L635,413L540,342Z" fill="rgb(66,7,127)" stroke="rgb(66,7,127)" stroke-width="1.51"></path><path d="M624,482L635,413L559,444Z" fill="rgb(63,0,125)" stroke="rgb(63,0,125)" stroke-width="1.51"></path><path d="M390,496L323,519L493,492Z" fill="rgb(94,61,151)" stroke="rgb(94,61,151)" stroke-width="1.51"></path><path d="M255,477L323,519L342,414Z" fill="rgb(112,81,162)" stroke="rgb(112,81,162)" stroke-width="1.51"></path><path d="M171,496L323,519L255,477Z" fill="rgb(124,93,169)" stroke="rgb(124,93,169)" stroke-width="1.51"></path><path d="M92,297L53,328L127,350Z" fill="rgb(166,144,198)" stroke="rgb(166,144,198)" stroke-width="1.51"></path><path d="M27,222L43,259L105,177Z" fill="rgb(194,190,221)" stroke="rgb(194,190,221)" stroke-width="1.51"></path><path d="M635,413L695,348L638,364Z" fill="rgb(69,12,129)" stroke="rgb(69,12,129)" stroke-width="1.51"></path><path d="M493,492L553,488L559,444Z" fill="rgb(72,20,133)" stroke="rgb(72,20,133)" stroke-width="1.51"></path><path d="M706,511L553,488L493,492Z" fill="rgb(66,5,127)" stroke="rgb(66,5,127)" stroke-width="1.51"></path><path d="M695,348L732,264L644,258Z" fill="rgb(88,51,146)" stroke="rgb(88,51,146)" stroke-width="1.51"></path><path d="M717,216L731,39L700,127Z" fill="rgb(136,105,176)" stroke="rgb(136,105,176)" stroke-width="1.51"></path><path d="M49,141L27,222L105,177Z" fill="rgb(206,203,227)" stroke="rgb(206,203,227)" stroke-width="1.51"></path><path d="M-30,354L53,328L-58,291Z" fill="rgb(175,152,203)" stroke="rgb(175,152,203)" stroke-width="1.51"></path><path d="M43,259L53,328L92,297Z" fill="rgb(175,160,205)" stroke="rgb(175,160,205)" stroke-width="1.51"></path><path d="M49,141L-37,132L27,222Z" fill="rgb(214,213,233)" stroke="rgb(214,213,233)" stroke-width="1.51"></path><path d="M115,-28L36,58L120,48Z" fill="rgb(240,238,246)" stroke="rgb(240,238,246)" stroke-width="1.51"></path><path d="M115,-28L35,-45L36,58Z" fill="rgb(246,245,249)" stroke="rgb(246,245,249)" stroke-width="1.51"></path><path d="M282,-123L167,-124L252,-16Z" fill="rgb(218,218,235)" stroke="rgb(218,218,235)" stroke-width="1.51"></path><path d="M613,-47L627,-118L577,-99Z" fill="rgb(161,127,189)" stroke="rgb(161,127,189)" stroke-width="1.51"></path><path d="M700,127L731,39L627,50Z" fill="rgb(150,117,183)" stroke="rgb(150,117,183)" stroke-width="1.51"></path><path d="M732,264L731,39L717,216Z" fill="rgb(122,92,168)" stroke="rgb(122,92,168)" stroke-width="1.51"></path><path d="M164,439L171,496L255,477Z" fill="rgb(135,104,175)" stroke="rgb(135,104,175)" stroke-width="1.51"></path><path d="M34,434L117,436L127,350Z" fill="rgb(152,118,184)" stroke="rgb(152,118,184)" stroke-width="1.51"></path><path d="M577,-99L627,-118L394,-122Z" fill="rgb(169,140,197)" stroke="rgb(169,140,197)" stroke-width="1.51"></path><path d="M719,-89L627,-118L613,-47Z" fill="rgb(161,127,189)" stroke="rgb(161,127,189)" stroke-width="1.51"></path><path d="M117,436L171,496L164,439Z" fill="rgb(144,112,180)" stroke="rgb(144,112,180)" stroke-width="1.51"></path><path d="M167,-124L118,-107L190,-19Z" fill="rgb(233,233,243)" stroke="rgb(233,233,243)" stroke-width="1.51"></path><path d="M553,488L624,482L559,444Z" fill="rgb(66,7,127)" stroke="rgb(66,7,127)" stroke-width="1.51"></path><path d="M635,413L712,434L695,348Z" fill="rgb(64,0,125)" stroke="rgb(64,0,125)" stroke-width="1.51"></path><path d="M706,511L624,482L553,488Z" fill="rgb(63,0,125)" stroke="rgb(63,0,125)" stroke-width="1.51"></path><path d="M731,39L720,-43L627,50Z" fill="rgb(159,125,188)" stroke="rgb(159,125,188)" stroke-width="1.51"></path><path d="M118,-107L35,-45L115,-28Z" fill="rgb(243,242,248)" stroke="rgb(243,242,248)" stroke-width="1.51"></path><path d="M36,58L-37,132L49,141Z" fill="rgb(230,230,241)" stroke="rgb(230,230,241)" stroke-width="1.51"></path><path d="M624,482L712,434L635,413Z" fill="rgb(63,0,125)" stroke="rgb(63,0,125)" stroke-width="1.51"></path><path d="M695,348L712,434L732,264Z" fill="rgb(74,23,134)" stroke="rgb(74,23,134)" stroke-width="1.51"></path><path d="M-43,53L-37,132L36,58Z" fill="rgb(239,238,246)" stroke="rgb(239,238,246)" stroke-width="1.51"></path><path d="M-30,354L34,434L53,328Z" fill="rgb(165,133,193)" stroke="rgb(165,133,193)" stroke-width="1.51"></path><path d="M731,39L719,-89L720,-43Z" fill="rgb(161,127,189)" stroke="rgb(161,127,189)" stroke-width="1.51"></path><path d="M720,-43L719,-89L613,-47Z" fill="rgb(161,127,189)" stroke="rgb(161,127,189)" stroke-width="1.51"></path><path d="M117,436L102,500L171,496Z" fill="rgb(147,114,181)" stroke="rgb(147,114,181)" stroke-width="1.51"></path><path d="M171,496L102,500L323,519Z" fill="rgb(135,104,175)" stroke="rgb(135,104,175)" stroke-width="1.51"></path><path d="M34,434L102,500L117,436Z" fill="rgb(153,120,184)" stroke="rgb(153,120,184)" stroke-width="1.51"></path><path d="M34,434L127,350L53,328Z" fill="rgb(161,130,190)" stroke="rgb(161,130,190)" stroke-width="1.51"></path><path d="M-58,291L43,259L27,222Z" fill="rgb(188,182,218)" stroke="rgb(188,182,218)" stroke-width="1.51"></path><path d="M-37,132L-58,200L27,222Z" fill="rgb(209,207,229)" stroke="rgb(209,207,229)" stroke-width="1.51"></path><path d="M-129,124L-109,215L-58,200Z" fill="rgb(211,209,230)" stroke="rgb(211,209,230)" stroke-width="1.51"></path><path d="M35,-45L-43,53L36,58Z" fill="rgb(248,247,250)" stroke="rgb(248,247,250)" stroke-width="1.51"></path><path d="M35,-45L-55,-37L-43,53Z" fill="rgb(252,251,253)" stroke="rgb(252,251,253)" stroke-width="1.51"></path><path d="M118,-107L49,-123L35,-45Z" fill="rgb(246,244,249)" stroke="rgb(246,244,249)" stroke-width="1.51"></path><path d="M167,-124L49,-123L118,-107Z" fill="rgb(240,239,246)" stroke="rgb(240,239,246)" stroke-width="1.51"></path><path d="M-58,291L53,328L43,259Z" fill="rgb(180,165,209)" stroke="rgb(180,165,209)" stroke-width="1.51"></path><path d="M-58,200L-58,291L27,222Z" fill="rgb(193,190,221)" stroke="rgb(193,190,221)" stroke-width="1.51"></path><path d="M712,434L706,511L732,264Z" fill="rgb(63,0,125)" stroke="rgb(63,0,125)" stroke-width="1.51"></path><path d="M624,482L706,511L712,434Z" fill="rgb(63,0,125)" stroke="rgb(63,0,125)" stroke-width="1.51"></path><path d="M323,519L706,511L493,492Z" fill="rgb(76,28,136)" stroke="rgb(76,28,136)" stroke-width="1.51"></path><path d="M49,-123L-17,-77L35,-45Z" fill="rgb(250,249,252)" stroke="rgb(250,249,252)" stroke-width="1.51"></path><path d="M34,434L21,491L102,500Z" fill="rgb(157,122,186)" stroke="rgb(157,122,186)" stroke-width="1.51"></path><path d="M-25,498L21,491L34,434Z" fill="rgb(160,126,188)" stroke="rgb(160,126,188)" stroke-width="1.51"></path><path d="M-35,416L34,434L-30,354Z" fill="rgb(161,127,189)" stroke="rgb(161,127,189)" stroke-width="1.51"></path><path d="M-94,408L-35,416L-30,354Z" fill="rgb(162,129,190)" stroke="rgb(162,129,190)" stroke-width="1.51"></path><path d="M-129,124L-58,200L-37,132Z" fill="rgb(219,219,236)" stroke="rgb(219,219,236)" stroke-width="1.51"></path><path d="M-17,-77L-55,-37L35,-45Z" fill="rgb(252,251,253)" stroke="rgb(252,251,253)" stroke-width="1.51"></path><path d="M-130,330L-94,408L-30,354Z" fill="rgb(167,137,195)" stroke="rgb(167,137,195)" stroke-width="1.51"></path><path d="M-58,200L-109,215L-58,291Z" fill="rgb(194,190,221)" stroke="rgb(194,190,221)" stroke-width="1.51"></path><path d="M-129,124L-37,132L-43,53Z" fill="rgb(234,233,243)" stroke="rgb(234,233,243)" stroke-width="1.51"></path><path d="M-109,215L-120,251L-58,291Z" fill="rgb(190,185,219)" stroke="rgb(190,185,219)" stroke-width="1.51"></path><path d="M-129,124L-120,251L-109,215Z" fill="rgb(206,202,227)" stroke="rgb(206,202,227)" stroke-width="1.51"></path><path d="M-125,47L-129,124L-43,53Z" fill="rgb(240,239,246)" stroke="rgb(240,239,246)" stroke-width="1.51"></path><path d="M-55,-37L-94,-33L-43,53Z" fill="rgb(252,251,253)" stroke="rgb(252,251,253)" stroke-width="1.51"></path><path d="M-90,-123L-94,-33L-55,-37Z" fill="rgb(252,251,253)" stroke="rgb(252,251,253)" stroke-width="1.51"></path><path d="M-90,-123L-55,-37L-17,-77Z" fill="rgb(252,251,253)" stroke="rgb(252,251,253)" stroke-width="1.51"></path><path d="M-35,416L-25,498L34,434Z" fill="rgb(161,127,189)" stroke="rgb(161,127,189)" stroke-width="1.51"></path><path d="M21,491L-25,498L102,500Z" fill="rgb(158,124,187)" stroke="rgb(158,124,187)" stroke-width="1.51"></path><path d="M102,500L-129,521L323,519Z" fill="rgb(151,118,183)" stroke="rgb(151,118,183)" stroke-width="1.51"></path><path d="M-94,408L-25,498L-35,416Z" fill="rgb(161,127,189)" stroke="rgb(161,127,189)" stroke-width="1.51"></path><path d="M-94,-33L-125,47L-43,53Z" fill="rgb(249,248,251)" stroke="rgb(249,248,251)" stroke-width="1.51"></path><path d="M-130,330L-30,354L-58,291Z" fill="rgb(175,152,203)" stroke="rgb(175,152,203)" stroke-width="1.51"></path><path d="M-120,251L-130,330L-58,291Z" fill="rgb(181,167,210)" stroke="rgb(181,167,210)" stroke-width="1.51"></path><path d="M-129,124L-130,330L-120,251Z" fill="rgb(194,191,221)" stroke="rgb(194,191,221)" stroke-width="1.51"></path><path d="M49,-123L-90,-123L-17,-77Z" fill="rgb(252,251,253)" stroke="rgb(252,251,253)" stroke-width="1.51"></path><path d="M-94,-33L-90,-123L-125,47Z" fill="rgb(252,251,253)" stroke="rgb(252,251,253)" stroke-width="1.51"></path><path d="M167,-124L-90,-123L49,-123Z" fill="rgb(248,247,251)" stroke="rgb(248,247,251)" stroke-width="1.51"></path><path d="M-25,498L-129,521L102,500Z" fill="rgb(161,127,189)" stroke="rgb(161,127,189)" stroke-width="1.51"></path><path d="M-94,408L-129,521L-25,498Z" fill="rgb(161,127,189)" stroke="rgb(161,127,189)" stroke-width="1.51"></path><path d="M-130,330L-129,521L-94,408Z" fill="rgb(161,127,189)" stroke="rgb(161,127,189)" stroke-width="1.51"></path></svg>