<svg width="600" height="400" xmlns="http://www.w3.org/2000/svg"><path d="M344,205L342,254L409,264Z" fill="rgb(87,182,209)" stroke="rgb(87,182,209)" stroke-width="1.51"></path><path d="M409,264L411,196L344,205Z" fill="rgb(91,182,205)" stroke="rgb(91,182,205)" stroke-width="1.51"></path><path d="M342,254L352,327L409,264Z" fill="rgb(71,167,204)" stroke="rgb(71,167,204)" stroke-width="1.51"></path><path d="M409,264L485,259L411,196Z" fill="rgb(72,166,201)" stroke="rgb(72,166,201)" stroke-width="1.51"></path><path d="M426,336L485,259L409,264Z" fill="rgb(52,147,194)" stroke="rgb(52,147,194)" stroke-width="1.51"></path><path d="M352,327L426,336L409,264Z" fill="rgb(55,150,196)" stroke="rgb(55,150,196)" stroke-width="1.51"></path><path d="M244,205L251,279L342,254Z" fill="rgb(113,195,201)" stroke="rgb(113,195,201)" stroke-width="1.51"></path><path d="M342,254L281,337L352,327Z" fill="rgb(81,165,195)" stroke="rgb(81,165,195)" stroke-width="1.51"></path><path d="M411,196L320,123L344,205Z" fill="rgb(122,198,199)" stroke="rgb(122,198,199)" stroke-width="1.51"></path><path d="M411,196L426,112L320,123Z" fill="rgb(132,198,196)" stroke="rgb(132,198,196)" stroke-width="1.51"></path><path d="M473,122L426,112L411,196Z" fill="rgb(123,184,189)" stroke="rgb(123,184,189)" stroke-width="1.51"></path><path d="M485,259L507,214L411,196Z" fill="rgb(77,161,195)" stroke="rgb(77,161,195)" stroke-width="1.51"></path><path d="M244,205L342,254L344,205Z" fill="rgb(112,197,201)" stroke="rgb(112,197,201)" stroke-width="1.51"></path><path d="M259,139L244,205L344,205Z" fill="rgb(138,209,192)" stroke="rgb(138,209,192)" stroke-width="1.51"></path><path d="M507,214L473,122L411,196Z" fill="rgb(103,171,189)" stroke="rgb(103,171,189)" stroke-width="1.51"></path><path d="M251,279L281,337L342,254Z" fill="rgb(97,176,194)" stroke="rgb(97,176,194)" stroke-width="1.51"></path><path d="M414,416L477,364L426,336Z" fill="rgb(34,115,173)" stroke="rgb(34,115,173)" stroke-width="1.51"></path><path d="M320,123L259,139L344,205Z" fill="rgb(142,210,191)" stroke="rgb(142,210,191)" stroke-width="1.51"></path><path d="M426,336L477,364L485,259Z" fill="rgb(36,130,185)" stroke="rgb(36,130,185)" stroke-width="1.51"></path><path d="M577,271L556,178L507,214Z" fill="rgb(71,141,181)" stroke="rgb(71,141,181)" stroke-width="1.51"></path><path d="M414,416L426,336L352,327Z" fill="rgb(47,131,184)" stroke="rgb(47,131,184)" stroke-width="1.51"></path><path d="M426,112L428,68L320,123Z" fill="rgb(147,202,202)" stroke="rgb(147,202,202)" stroke-width="1.51"></path><path d="M320,123L269,62L259,139Z" fill="rgb(168,220,194)" stroke="rgb(168,220,194)" stroke-width="1.51"></path><path d="M473,122L428,68L426,112Z" fill="rgb(139,188,195)" stroke="rgb(139,188,195)" stroke-width="1.51"></path><path d="M473,122L495,48L428,68Z" fill="rgb(140,184,197)" stroke="rgb(140,184,197)" stroke-width="1.51"></path><path d="M507,214L556,178L473,122Z" fill="rgb(101,160,183)" stroke="rgb(101,160,183)" stroke-width="1.51"></path><path d="M577,271L507,214L485,259Z" fill="rgb(54,142,191)" stroke="rgb(54,142,191)" stroke-width="1.51"></path><path d="M281,337L332,409L352,327Z" fill="rgb(75,146,183)" stroke="rgb(75,146,183)" stroke-width="1.51"></path><path d="M251,279L178,349L281,337Z" fill="rgb(112,169,184)" stroke="rgb(112,169,184)" stroke-width="1.51"></path><path d="M281,337L269,403L332,409Z" fill="rgb(82,138,169)" stroke="rgb(82,138,169)" stroke-width="1.51"></path><path d="M244,205L198,266L251,279Z" fill="rgb(129,199,197)" stroke="rgb(129,199,197)" stroke-width="1.51"></path><path d="M166,217L198,266L244,205Z" fill="rgb(143,207,196)" stroke="rgb(143,207,196)" stroke-width="1.51"></path><path d="M332,409L414,416L352,327Z" fill="rgb(56,127,176)" stroke="rgb(56,127,176)" stroke-width="1.51"></path><path d="M580,339L577,271L485,259Z" fill="rgb(35,119,176)" stroke="rgb(35,119,176)" stroke-width="1.51"></path><path d="M259,139L198,142L244,205Z" fill="rgb(161,218,184)" stroke="rgb(161,218,184)" stroke-width="1.51"></path><path d="M339,30L269,62L320,123Z" fill="rgb(169,220,204)" stroke="rgb(169,220,204)" stroke-width="1.51"></path><path d="M269,62L198,142L259,139Z" fill="rgb(177,224,188)" stroke="rgb(177,224,188)" stroke-width="1.51"></path><path d="M178,349L269,403L281,337Z" fill="rgb(103,152,174)" stroke="rgb(103,152,174)" stroke-width="1.51"></path><path d="M428,68L339,30L320,123Z" fill="rgb(158,211,209)" stroke="rgb(158,211,209)" stroke-width="1.51"></path><path d="M477,364L580,339L485,259Z" fill="rgb(26,117,179)" stroke="rgb(26,117,179)" stroke-width="1.51"></path><path d="M414,416L489,412L477,364Z" fill="rgb(28,100,159)" stroke="rgb(28,100,159)" stroke-width="1.51"></path><path d="M198,142L166,217L244,205Z" fill="rgb(158,216,189)" stroke="rgb(158,216,189)" stroke-width="1.51"></path><path d="M198,266L178,349L251,279Z" fill="rgb(123,182,188)" stroke="rgb(123,182,188)" stroke-width="1.51"></path><path d="M428,68L410,-24L339,30Z" fill="rgb(163,208,218)" stroke="rgb(163,208,218)" stroke-width="1.51"></path><path d="M574,127L495,48L473,122Z" fill="rgb(131,169,187)" stroke="rgb(131,169,187)" stroke-width="1.51"></path><path d="M556,178L574,127L473,122Z" fill="rgb(113,158,176)" stroke="rgb(113,158,176)" stroke-width="1.51"></path><path d="M626,138L574,127L556,178Z" fill="rgb(106,143,161)" stroke="rgb(106,143,161)" stroke-width="1.51"></path><path d="M562,416L580,339L477,364Z" fill="rgb(10,90,157)" stroke="rgb(10,90,157)" stroke-width="1.51"></path><path d="M577,271L621,264L556,178Z" fill="rgb(59,126,172)" stroke="rgb(59,126,172)" stroke-width="1.51"></path><path d="M116,260L178,349L198,266Z" fill="rgb(136,188,194)" stroke="rgb(136,188,194)" stroke-width="1.51"></path><path d="M619,330L621,264L577,271Z" fill="rgb(35,105,162)" stroke="rgb(35,105,162)" stroke-width="1.51"></path><path d="M332,409L334,478L414,416Z" fill="rgb(57,121,168)" stroke="rgb(57,121,168)" stroke-width="1.51"></path><path d="M414,416L473,503L489,412Z" fill="rgb(28,99,158)" stroke="rgb(28,99,158)" stroke-width="1.51"></path><path d="M269,403L334,478L332,409Z" fill="rgb(74,129,164)" stroke="rgb(74,129,164)" stroke-width="1.51"></path><path d="M269,487L334,478L269,403Z" fill="rgb(81,131,162)" stroke="rgb(81,131,162)" stroke-width="1.51"></path><path d="M495,48L410,-24L428,68Z" fill="rgb(153,193,210)" stroke="rgb(153,193,210)" stroke-width="1.51"></path><path d="M339,30L244,-19L269,62Z" fill="rgb(187,228,211)" stroke="rgb(187,228,211)" stroke-width="1.51"></path><path d="M580,339L619,330L577,271Z" fill="rgb(26,98,159)" stroke="rgb(26,98,159)" stroke-width="1.51"></path><path d="M562,416L619,330L580,339Z" fill="rgb(9,82,149)" stroke="rgb(9,82,149)" stroke-width="1.51"></path><path d="M576,488L562,416L489,412Z" fill="rgb(9,79,145)" stroke="rgb(9,79,145)" stroke-width="1.51"></path><path d="M489,412L562,416L477,364Z" fill="rgb(15,88,153)" stroke="rgb(15,88,153)" stroke-width="1.51"></path><path d="M178,349L185,405L269,403Z" fill="rgb(109,146,164)" stroke="rgb(109,146,164)" stroke-width="1.51"></path><path d="M574,127L581,41L495,48Z" fill="rgb(132,161,184)" stroke="rgb(132,161,184)" stroke-width="1.51"></path><path d="M495,48L486,-30L410,-24Z" fill="rgb(157,191,214)" stroke="rgb(157,191,214)" stroke-width="1.51"></path><path d="M646,203L626,138L556,178Z" fill="rgb(93,135,159)" stroke="rgb(93,135,159)" stroke-width="1.51"></path><path d="M646,203L556,178L621,264Z" fill="rgb(71,127,165)" stroke="rgb(71,127,165)" stroke-width="1.51"></path><path d="M166,217L116,260L198,266Z" fill="rgb(148,206,203)" stroke="rgb(148,206,203)" stroke-width="1.51"></path><path d="M178,349L121,445L185,405Z" fill="rgb(119,143,163)" stroke="rgb(119,143,163)" stroke-width="1.51"></path><path d="M102,209L116,260L166,217Z" fill="rgb(160,213,204)" stroke="rgb(160,213,204)" stroke-width="1.51"></path><path d="M707,257L646,203L621,264Z" fill="rgb(56,121,168)" stroke="rgb(56,121,168)" stroke-width="1.51"></path><path d="M198,142L125,147L166,217Z" fill="rgb(176,224,191)" stroke="rgb(176,224,191)" stroke-width="1.51"></path><path d="M166,35L125,147L198,142Z" fill="rgb(198,233,194)" stroke="rgb(198,233,194)" stroke-width="1.51"></path><path d="M166,35L198,142L269,62Z" fill="rgb(194,231,195)" stroke="rgb(194,231,195)" stroke-width="1.51"></path><path d="M626,138L581,41L574,127Z" fill="rgb(122,146,166)" stroke="rgb(122,146,166)" stroke-width="1.51"></path><path d="M125,147L102,209L166,217Z" fill="rgb(172,222,198)" stroke="rgb(172,222,198)" stroke-width="1.51"></path><path d="M185,405L269,487L269,403Z" fill="rgb(98,136,158)" stroke="rgb(98,136,158)" stroke-width="1.51"></path><path d="M334,478L392,510L414,416Z" fill="rgb(49,118,169)" stroke="rgb(49,118,169)" stroke-width="1.51"></path><path d="M269,487L392,510L334,478Z" fill="rgb(68,126,165)" stroke="rgb(68,126,165)" stroke-width="1.51"></path><path d="M410,-24L345,-48L339,30Z" fill="rgb(174,217,225)" stroke="rgb(174,217,225)" stroke-width="1.51"></path><path d="M407,-113L343,-83L345,-48Z" fill="rgb(174,217,225)" stroke="rgb(174,217,225)" stroke-width="1.51"></path><path d="M564,-25L486,-30L495,48Z" fill="rgb(151,177,207)" stroke="rgb(151,177,207)" stroke-width="1.51"></path><path d="M345,-48L244,-19L339,30Z" fill="rgb(186,227,219)" stroke="rgb(186,227,219)" stroke-width="1.51"></path><path d="M392,510L473,503L414,416Z" fill="rgb(37,107,163)" stroke="rgb(37,107,163)" stroke-width="1.51"></path><path d="M244,-19L166,35L269,62Z" fill="rgb(201,234,205)" stroke="rgb(201,234,205)" stroke-width="1.51"></path><path d="M51,138L44,203L102,209Z" fill="rgb(184,227,206)" stroke="rgb(184,227,206)" stroke-width="1.51"></path><path d="M116,260L96,328L178,349Z" fill="rgb(138,182,196)" stroke="rgb(138,182,196)" stroke-width="1.51"></path><path d="M185,405L171,495L269,487Z" fill="rgb(108,139,158)" stroke="rgb(108,139,158)" stroke-width="1.51"></path><path d="M32,294L96,328L116,260Z" fill="rgb(148,192,206)" stroke="rgb(148,192,206)" stroke-width="1.51"></path><path d="M407,-113L345,-48L410,-24Z" fill="rgb(170,211,224)" stroke="rgb(170,211,224)" stroke-width="1.51"></path><path d="M581,41L564,-25L495,48Z" fill="rgb(143,166,196)" stroke="rgb(143,166,196)" stroke-width="1.51"></path><path d="M636,-25L564,-25L581,41Z" fill="rgb(142,154,186)" stroke="rgb(142,154,186)" stroke-width="1.51"></path><path d="M345,-48L257,-81L244,-19Z" fill="rgb(193,230,216)" stroke="rgb(193,230,216)" stroke-width="1.51"></path><path d="M407,-113L410,-24L486,-30Z" fill="rgb(161,199,217)" stroke="rgb(161,199,217)" stroke-width="1.51"></path><path d="M473,503L576,488L489,412Z" fill="rgb(14,87,152)" stroke="rgb(14,87,152)" stroke-width="1.51"></path><path d="M657,440L709,327L619,330Z" fill="rgb(9,77,143)" stroke="rgb(9,77,143)" stroke-width="1.51"></path><path d="M646,203L700,121L626,138Z" fill="rgb(102,138,157)" stroke="rgb(102,138,157)" stroke-width="1.51"></path><path d="M626,138L649,41L581,41Z" fill="rgb(126,146,170)" stroke="rgb(126,146,170)" stroke-width="1.51"></path><path d="M709,327L707,257L621,264Z" fill="rgb(38,107,163)" stroke="rgb(38,107,163)" stroke-width="1.51"></path><path d="M709,327L621,264L619,330Z" fill="rgb(28,99,158)" stroke="rgb(28,99,158)" stroke-width="1.51"></path><path d="M700,121L649,41L626,138Z" fill="rgb(121,144,164)" stroke="rgb(121,144,164)" stroke-width="1.51"></path><path d="M244,-19L169,-37L166,35Z" fill="rgb(216,240,214)" stroke="rgb(216,240,214)" stroke-width="1.51"></path><path d="M343,-83L257,-81L345,-48Z" fill="rgb(185,226,219)" stroke="rgb(185,226,219)" stroke-width="1.51"></path><path d="M96,328L121,445L178,349Z" fill="rgb(128,156,178)" stroke="rgb(128,156,178)" stroke-width="1.51"></path><path d="M121,445L171,495L185,405Z" fill="rgb(119,143,163)" stroke="rgb(119,143,163)" stroke-width="1.51"></path><path d="M269,487L171,495L392,510Z" fill="rgb(86,133,161)" stroke="rgb(86,133,161)" stroke-width="1.51"></path><path d="M102,209L44,203L116,260Z" fill="rgb(167,217,209)" stroke="rgb(167,217,209)" stroke-width="1.51"></path><path d="M96,328L56,409L121,445Z" fill="rgb(130,150,175)" stroke="rgb(130,150,175)" stroke-width="1.51"></path><path d="M51,138L102,209L125,147Z" fill="rgb(188,229,200)" stroke="rgb(188,229,200)" stroke-width="1.51"></path><path d="M720,207L700,121L646,203Z" fill="rgb(90,134,160)" stroke="rgb(90,134,160)" stroke-width="1.51"></path><path d="M100,32L51,138L125,147Z" fill="rgb(210,237,204)" stroke="rgb(210,237,204)" stroke-width="1.51"></path><path d="M257,-81L169,-37L244,-19Z" fill="rgb(208,237,210)" stroke="rgb(208,237,210)" stroke-width="1.51"></path><path d="M707,257L720,207L646,203Z" fill="rgb(67,126,166)" stroke="rgb(67,126,166)" stroke-width="1.51"></path><path d="M100,32L125,147L166,35Z" fill="rgb(212,239,206)" stroke="rgb(212,239,206)" stroke-width="1.51"></path><path d="M657,440L619,330L562,416Z" fill="rgb(8,66,131)" stroke="rgb(8,66,131)" stroke-width="1.51"></path><path d="M707,257L709,327L720,207Z" fill="rgb(45,114,166)" stroke="rgb(45,114,166)" stroke-width="1.51"></path><path d="M113,-42L100,32L166,35Z" fill="rgb(227,245,220)" stroke="rgb(227,245,220)" stroke-width="1.51"></path><path d="M343,-83L407,-113L257,-81Z" fill="rgb(180,222,221)" stroke="rgb(180,222,221)" stroke-width="1.51"></path><path d="M499,-95L407,-113L486,-30Z" fill="rgb(157,191,214)" stroke="rgb(157,191,214)" stroke-width="1.51"></path><path d="M564,-25L499,-95L486,-30Z" fill="rgb(151,177,207)" stroke="rgb(151,177,207)" stroke-width="1.51"></path><path d="M561,-108L499,-95L564,-25Z" fill="rgb(148,170,201)" stroke="rgb(148,170,201)" stroke-width="1.51"></path><path d="M576,488L657,440L562,416Z" fill="rgb(8,64,129)" stroke="rgb(8,64,129)" stroke-width="1.51"></path><path d="M15,334L32,294L-28,253Z" fill="rgb(159,197,216)" stroke="rgb(159,197,216)" stroke-width="1.51"></path><path d="M44,203L32,294L116,260Z" fill="rgb(161,210,216)" stroke="rgb(161,210,216)" stroke-width="1.51"></path><path d="M649,41L636,-25L581,41Z" fill="rgb(137,151,180)" stroke="rgb(137,151,180)" stroke-width="1.51"></path><path d="M701,-8L636,-25L649,41Z" fill="rgb(140,152,184)" stroke="rgb(140,152,184)" stroke-width="1.51"></path><path d="M657,440L727,431L709,327Z" fill="rgb(8,64,129)" stroke="rgb(8,64,129)" stroke-width="1.51"></path><path d="M576,488L633,496L657,440Z" fill="rgb(8,64,129)" stroke="rgb(8,64,129)" stroke-width="1.51"></path><path d="M473,503L633,496L576,488Z" fill="rgb(9,74,140)" stroke="rgb(9,74,140)" stroke-width="1.51"></path><path d="M392,510L633,496L473,503Z" fill="rgb(18,89,153)" stroke="rgb(18,89,153)" stroke-width="1.51"></path><path d="M15,334L56,409L96,328Z" fill="rgb(141,168,196)" stroke="rgb(141,168,196)" stroke-width="1.51"></path><path d="M121,445L93,505L171,495Z" fill="rgb(124,145,167)" stroke="rgb(124,145,167)" stroke-width="1.51"></path><path d="M32,294L15,334L96,328Z" fill="rgb(148,184,206)" stroke="rgb(148,184,206)" stroke-width="1.51"></path><path d="M-28,253L32,294L44,203Z" fill="rgb(169,214,223)" stroke="rgb(169,214,223)" stroke-width="1.51"></path><path d="M169,-37L113,-42L166,35Z" fill="rgb(226,244,218)" stroke="rgb(226,244,218)" stroke-width="1.51"></path><path d="M100,32L29,28L51,138Z" fill="rgb(224,243,217)" stroke="rgb(224,243,217)" stroke-width="1.51"></path><path d="M177,-97L113,-42L169,-37Z" fill="rgb(225,243,218)" stroke="rgb(225,243,218)" stroke-width="1.51"></path><path d="M499,-95L561,-108L407,-113Z" fill="rgb(154,184,211)" stroke="rgb(154,184,211)" stroke-width="1.51"></path><path d="M618,-118L561,-108L564,-25Z" fill="rgb(143,158,190)" stroke="rgb(143,158,190)" stroke-width="1.51"></path><path d="M257,-81L177,-97L169,-37Z" fill="rgb(214,239,213)" stroke="rgb(214,239,213)" stroke-width="1.51"></path><path d="M407,-113L177,-97L257,-81Z" fill="rgb(193,230,216)" stroke="rgb(193,230,216)" stroke-width="1.51"></path><path d="M633,496L689,478L657,440Z" fill="rgb(8,64,129)" stroke="rgb(8,64,129)" stroke-width="1.51"></path><path d="M21,510L93,505L56,409Z" fill="rgb(133,149,177)" stroke="rgb(133,149,177)" stroke-width="1.51"></path><path d="M56,409L93,505L121,445Z" fill="rgb(128,147,172)" stroke="rgb(128,147,172)" stroke-width="1.51"></path><path d="M171,495L93,505L392,510Z" fill="rgb(105,139,157)" stroke="rgb(105,139,157)" stroke-width="1.51"></path><path d="M636,-25L618,-118L564,-25Z" fill="rgb(141,152,184)" stroke="rgb(141,152,184)" stroke-width="1.51"></path><path d="M700,121L731,46L649,41Z" fill="rgb(127,147,170)" stroke="rgb(127,147,170)" stroke-width="1.51"></path><path d="M720,207L731,46L700,121Z" fill="rgb(113,141,160)" stroke="rgb(113,141,160)" stroke-width="1.51"></path><path d="M731,46L701,-8L649,41Z" fill="rgb(135,150,179)" stroke="rgb(135,150,179)" stroke-width="1.51"></path><path d="M689,478L727,431L657,440Z" fill="rgb(8,64,129)" stroke="rgb(8,64,129)" stroke-width="1.51"></path><path d="M709,327L727,431L720,207Z" fill="rgb(23,93,155)" stroke="rgb(23,93,155)" stroke-width="1.51"></path><path d="M720,207L727,431L731,46Z" fill="rgb(64,124,167)" stroke="rgb(64,124,167)" stroke-width="1.51"></path><path d="M28,-43L100,32L113,-42Z" fill="rgb(235,247,228)" stroke="rgb(235,247,228)" stroke-width="1.51"></path><path d="M28,-43L29,28L100,32Z" fill="rgb(238,249,231)" stroke="rgb(238,249,231)" stroke-width="1.51"></path><path d="M-57,212L-28,253L44,203Z" fill="rgb(181,222,221)" stroke="rgb(181,222,221)" stroke-width="1.51"></path><path d="M15,334L-46,364L56,409Z" fill="rgb(145,165,197)" stroke="rgb(145,165,197)" stroke-width="1.51"></path><path d="M-25,130L44,203L51,138Z" fill="rgb(201,234,208)" stroke="rgb(201,234,208)" stroke-width="1.51"></path><path d="M-25,64L-25,130L51,138Z" fill="rgb(222,242,217)" stroke="rgb(222,242,217)" stroke-width="1.51"></path><path d="M561,-108L618,-118L407,-113Z" fill="rgb(150,173,205)" stroke="rgb(150,173,205)" stroke-width="1.51"></path><path d="M707,-102L618,-118L636,-25Z" fill="rgb(141,152,184)" stroke="rgb(141,152,184)" stroke-width="1.51"></path><path d="M407,-113L117,-104L177,-97Z" fill="rgb(205,236,211)" stroke="rgb(205,236,211)" stroke-width="1.51"></path><path d="M177,-97L117,-104L113,-42Z" fill="rgb(228,245,220)" stroke="rgb(228,245,220)" stroke-width="1.51"></path><path d="M-25,130L-57,212L44,203Z" fill="rgb(195,231,215)" stroke="rgb(195,231,215)" stroke-width="1.51"></path><path d="M-28,253L-46,364L15,334Z" fill="rgb(156,188,212)" stroke="rgb(156,188,212)" stroke-width="1.51"></path><path d="M-126,143L-120,212L-57,212Z" fill="rgb(192,230,216)" stroke="rgb(192,230,216)" stroke-width="1.51"></path><path d="M29,28L-25,64L51,138Z" fill="rgb(227,245,221)" stroke="rgb(227,245,221)" stroke-width="1.51"></path><path d="M-42,-12L-25,64L29,28Z" fill="rgb(241,250,234)" stroke="rgb(241,250,234)" stroke-width="1.51"></path><path d="M39,-99L28,-43L113,-42Z" fill="rgb(238,249,231)" stroke="rgb(238,249,231)" stroke-width="1.51"></path><path d="M-102,346L-46,364L-28,253Z" fill="rgb(155,186,211)" stroke="rgb(155,186,211)" stroke-width="1.51"></path><path d="M93,505L21,510L392,510Z" fill="rgb(117,143,162)" stroke="rgb(117,143,162)" stroke-width="1.51"></path><path d="M-51,418L21,510L56,409Z" fill="rgb(139,151,183)" stroke="rgb(139,151,183)" stroke-width="1.51"></path><path d="M701,-8L707,-102L636,-25Z" fill="rgb(141,152,184)" stroke="rgb(141,152,184)" stroke-width="1.51"></path><path d="M731,46L707,-102L701,-8Z" fill="rgb(141,152,184)" stroke="rgb(141,152,184)" stroke-width="1.51"></path><path d="M-46,364L-51,418L56,409Z" fill="rgb(141,153,186)" stroke="rgb(141,153,186)" stroke-width="1.51"></path><path d="M-107,416L-51,418L-46,364Z" fill="rgb(141,152,185)" stroke="rgb(141,152,185)" stroke-width="1.51"></path><path d="M117,-104L39,-99L113,-42Z" fill="rgb(234,247,227)" stroke="rgb(234,247,227)" stroke-width="1.51"></path><path d="M28,-43L-42,-12L29,28Z" fill="rgb(246,251,239)" stroke="rgb(246,251,239)" stroke-width="1.51"></path><path d="M-36,-102L-42,-12L28,-43Z" fill="rgb(247,252,240)" stroke="rgb(247,252,240)" stroke-width="1.51"></path><path d="M-126,143L-57,212L-25,130Z" fill="rgb(203,235,212)" stroke="rgb(203,235,212)" stroke-width="1.51"></path><path d="M-126,285L-28,253L-57,212Z" fill="rgb(172,215,226)" stroke="rgb(172,215,226)" stroke-width="1.51"></path><path d="M-126,285L-102,346L-28,253Z" fill="rgb(160,197,216)" stroke="rgb(160,197,216)" stroke-width="1.51"></path><path d="M-96,41L-25,130L-25,64Z" fill="rgb(230,245,223)" stroke="rgb(230,245,223)" stroke-width="1.51"></path><path d="M-100,480L-56,486L-51,418Z" fill="rgb(141,152,184)" stroke="rgb(141,152,184)" stroke-width="1.51"></path><path d="M-51,418L-56,486L21,510Z" fill="rgb(141,152,184)" stroke="rgb(141,152,184)" stroke-width="1.51"></path><path d="M-102,346L-107,416L-46,364Z" fill="rgb(145,163,195)" stroke="rgb(145,163,195)" stroke-width="1.51"></path><path d="M-120,212L-126,285L-57,212Z" fill="rgb(176,219,224)" stroke="rgb(176,219,224)" stroke-width="1.51"></path><path d="M-101,-46L-96,41L-42,-12Z" fill="rgb(247,252,240)" stroke="rgb(247,252,240)" stroke-width="1.51"></path><path d="M-42,-12L-96,41L-25,64Z" fill="rgb(240,249,233)" stroke="rgb(240,249,233)" stroke-width="1.51"></path><path d="M-96,41L-126,143L-25,130Z" fill="rgb(224,243,217)" stroke="rgb(224,243,217)" stroke-width="1.51"></path><path d="M-120,212L-126,143L-126,285Z" fill="rgb(184,225,220)" stroke="rgb(184,225,220)" stroke-width="1.51"></path><path d="M-126,285L-107,416L-102,346Z" fill="rgb(150,175,206)" stroke="rgb(150,175,206)" stroke-width="1.51"></path><path d="M39,-99L-36,-102L28,-43Z" fill="rgb(246,252,238)" stroke="rgb(246,252,238)" stroke-width="1.51"></path><path d="M117,-104L-36,-102L39,-99Z" fill="rgb(241,250,234)" stroke="rgb(241,250,234)" stroke-width="1.51"></path><path d="M407,-113L-36,-102L117,-104Z" fill="rgb(223,243,217)" stroke="rgb(223,243,217)" stroke-width="1.51"></path><path d="M-126,285L-100,480L-107,416Z" fill="rgb(142,155,187)" stroke="rgb(142,155,187)" stroke-width="1.51"></path><path d="M-107,416L-100,480L-51,418Z" fill="rgb(141,152,184)" stroke="rgb(141,152,184)" stroke-width="1.51"></path><path d="M-56,486L-100,480L21,510Z" fill="rgb(141,152,184)" stroke="rgb(141,152,184)" stroke-width="1.51"></path><path d="M-36,-102L-101,-46L-42,-12Z" fill="rgb(247,252,240)" stroke="rgb(247,252,240)" stroke-width="1.51"></path><path d="M-96,41L-131,-101L-126,143Z" fill="rgb(241,250,234)" stroke="rgb(241,250,234)" stroke-width="1.51"></path><path d="M-36,-102L-131,-101L-101,-46Z" fill="rgb(247,252,240)" stroke="rgb(247,252,240)" stroke-width="1.51"></path><path d="M-101,-46L-131,-101L-96,41Z" fill="rgb(247,252,240)" stroke="rgb(247,252,240)" stroke-width="1.51"></path><path d="M-126,143L-131,-101L-126,285Z" fill="rgb(223,242,217)" stroke="rgb(223,242,217)" stroke-width="1.51"></path><path d="M407,-113L-131,-101L-36,-102Z" fill="rgb(235,247,229)" stroke="rgb(235,247,229)" stroke-width="1.51"></path><path d="M618,-118L-131,-101L407,-113Z" fill="rgb(188,228,218)" stroke="rgb(188,228,218)" stroke-width="1.51"></path></svg>