<svg width="600" height="400" xmlns="http://www.w3.org/2000/svg"><path d="M347,215L249,209L324,251Z" fill="rgb(253,124,54)" stroke="rgb(253,124,54)" stroke-width="1.51"></path><path d="M249,209L255,269L324,251Z" fill="rgb(254,123,54)" stroke="rgb(254,123,54)" stroke-width="1.51"></path><path d="M318,117L245,146L249,209Z" fill="rgb(254,165,70)" stroke="rgb(254,165,70)" stroke-width="1.51"></path><path d="M347,215L318,117L249,209Z" fill="rgb(254,147,62)" stroke="rgb(254,147,62)" stroke-width="1.51"></path><path d="M249,209L207,275L255,269Z" fill="rgb(255,129,57)" stroke="rgb(255,129,57)" stroke-width="1.51"></path><path d="M245,146L195,211L249,209Z" fill="rgb(254,163,69)" stroke="rgb(254,163,69)" stroke-width="1.51"></path><path d="M195,211L207,275L249,209Z" fill="rgb(255,145,64)" stroke="rgb(255,145,64)" stroke-width="1.51"></path><path d="M347,215L415,177L318,117Z" fill="rgb(254,131,57)" stroke="rgb(254,131,57)" stroke-width="1.51"></path><path d="M400,298L415,177L347,215Z" fill="rgb(251,90,44)" stroke="rgb(251,90,44)" stroke-width="1.51"></path><path d="M245,146L187,138L195,211Z" fill="rgb(254,177,78)" stroke="rgb(254,177,78)" stroke-width="1.51"></path><path d="M279,65L187,138L245,146Z" fill="rgb(255,188,89)" stroke="rgb(255,188,89)" stroke-width="1.51"></path><path d="M324,251L400,298L347,215Z" fill="rgb(252,85,43)" stroke="rgb(252,85,43)" stroke-width="1.51"></path><path d="M255,269L321,342L324,251Z" fill="rgb(244,99,45)" stroke="rgb(244,99,45)" stroke-width="1.51"></path><path d="M283,352L321,342L255,269Z" fill="rgb(233,96,47)" stroke="rgb(233,96,47)" stroke-width="1.51"></path><path d="M321,342L400,298L324,251Z" fill="rgb(241,73,38)" stroke="rgb(241,73,38)" stroke-width="1.51"></path><path d="M204,350L283,352L255,269Z" fill="rgb(233,106,51)" stroke="rgb(233,106,51)" stroke-width="1.51"></path><path d="M318,117L279,65L245,146Z" fill="rgb(255,181,87)" stroke="rgb(255,181,87)" stroke-width="1.51"></path><path d="M349,30L279,65L318,117Z" fill="rgb(255,181,99)" stroke="rgb(255,181,99)" stroke-width="1.51"></path><path d="M415,177L428,110L318,117Z" fill="rgb(254,137,63)" stroke="rgb(254,137,63)" stroke-width="1.51"></path><path d="M463,110L428,110L415,177Z" fill="rgb(247,128,59)" stroke="rgb(247,128,59)" stroke-width="1.51"></path><path d="M207,275L204,350L255,269Z" fill="rgb(244,118,52)" stroke="rgb(244,118,52)" stroke-width="1.51"></path><path d="M115,287L204,350L207,275Z" fill="rgb(244,130,64)" stroke="rgb(244,130,64)" stroke-width="1.51"></path><path d="M115,287L207,275L195,211Z" fill="rgb(255,145,72)" stroke="rgb(255,145,72)" stroke-width="1.51"></path><path d="M187,138L126,196L195,211Z" fill="rgb(255,181,86)" stroke="rgb(255,181,86)" stroke-width="1.51"></path><path d="M424,65L349,30L318,117Z" fill="rgb(255,164,93)" stroke="rgb(255,164,93)" stroke-width="1.51"></path><path d="M400,298L479,259L415,177Z" fill="rgb(243,67,37)" stroke="rgb(243,67,37)" stroke-width="1.51"></path><path d="M321,342L429,343L400,298Z" fill="rgb(227,49,37)" stroke="rgb(227,49,37)" stroke-width="1.51"></path><path d="M357,417L429,343L321,342Z" fill="rgb(209,50,41)" stroke="rgb(209,50,41)" stroke-width="1.51"></path><path d="M429,343L479,259L400,298Z" fill="rgb(230,33,29)" stroke="rgb(230,33,29)" stroke-width="1.51"></path><path d="M479,259L489,220L415,177Z" fill="rgb(238,81,41)" stroke="rgb(238,81,41)" stroke-width="1.51"></path><path d="M428,110L424,65L318,117Z" fill="rgb(255,151,78)" stroke="rgb(255,151,78)" stroke-width="1.51"></path><path d="M463,110L424,65L428,110Z" fill="rgb(248,141,74)" stroke="rgb(248,141,74)" stroke-width="1.51"></path><path d="M489,220L463,110L415,177Z" fill="rgb(241,108,48)" stroke="rgb(241,108,48)" stroke-width="1.51"></path><path d="M168,60L187,138L279,65Z" fill="rgb(255,204,106)" stroke="rgb(255,204,106)" stroke-width="1.51"></path><path d="M168,60L116,138L187,138Z" fill="rgb(254,211,111)" stroke="rgb(254,211,111)" stroke-width="1.51"></path><path d="M187,138L116,138L126,196Z" fill="rgb(255,196,98)" stroke="rgb(255,196,98)" stroke-width="1.51"></path><path d="M181,-9L168,60L279,65Z" fill="rgb(255,213,128)" stroke="rgb(255,213,128)" stroke-width="1.51"></path><path d="M45,257L115,287L126,196Z" fill="rgb(255,163,94)" stroke="rgb(255,163,94)" stroke-width="1.51"></path><path d="M126,196L115,287L195,211Z" fill="rgb(255,164,84)" stroke="rgb(255,164,84)" stroke-width="1.51"></path><path d="M283,352L357,417L321,342Z" fill="rgb(208,75,47)" stroke="rgb(208,75,47)" stroke-width="1.51"></path><path d="M204,350L265,422L283,352Z" fill="rgb(207,97,54)" stroke="rgb(207,97,54)" stroke-width="1.51"></path><path d="M185,437L265,422L204,350Z" fill="rgb(191,100,60)" stroke="rgb(191,100,60)" stroke-width="1.51"></path><path d="M265,422L357,417L283,352Z" fill="rgb(192,79,50)" stroke="rgb(192,79,50)" stroke-width="1.51"></path><path d="M479,259L558,285L489,220Z" fill="rgb(223,47,39)" stroke="rgb(223,47,39)" stroke-width="1.51"></path><path d="M429,343L469,350L479,259Z" fill="rgb(218,21,31)" stroke="rgb(218,21,31)" stroke-width="1.51"></path><path d="M432,438L469,350L429,343Z" fill="rgb(192,17,35)" stroke="rgb(192,17,35)" stroke-width="1.51"></path><path d="M115,287L103,330L204,350Z" fill="rgb(238,135,75)" stroke="rgb(238,135,75)" stroke-width="1.51"></path><path d="M45,257L103,330L115,287Z" fill="rgb(251,149,89)" stroke="rgb(251,149,89)" stroke-width="1.51"></path><path d="M349,30L323,-27L279,65Z" fill="rgb(255,189,119)" stroke="rgb(255,189,119)" stroke-width="1.51"></path><path d="M409,-7L323,-27L349,30Z" fill="rgb(255,178,122)" stroke="rgb(255,178,122)" stroke-width="1.51"></path><path d="M323,-27L250,-27L279,65Z" fill="rgb(255,202,132)" stroke="rgb(255,202,132)" stroke-width="1.51"></path><path d="M483,29L409,-7L424,65Z" fill="rgb(253,155,101)" stroke="rgb(253,155,101)" stroke-width="1.51"></path><path d="M424,65L409,-7L349,30Z" fill="rgb(255,163,106)" stroke="rgb(255,163,106)" stroke-width="1.51"></path><path d="M110,32L61,109L116,138Z" fill="rgb(255,225,137)" stroke="rgb(255,225,137)" stroke-width="1.51"></path><path d="M250,-27L181,-9L279,65Z" fill="rgb(255,211,134)" stroke="rgb(255,211,134)" stroke-width="1.51"></path><path d="M103,330L185,437L204,350Z" fill="rgb(211,121,72)" stroke="rgb(211,121,72)" stroke-width="1.51"></path><path d="M404,497L432,438L357,417Z" fill="rgb(184,35,40)" stroke="rgb(184,35,40)" stroke-width="1.51"></path><path d="M116,138L24,187L126,196Z" fill="rgb(255,197,110)" stroke="rgb(255,197,110)" stroke-width="1.51"></path><path d="M110,32L116,138L168,60Z" fill="rgb(255,224,134)" stroke="rgb(255,224,134)" stroke-width="1.51"></path><path d="M24,187L45,257L126,196Z" fill="rgb(255,184,110)" stroke="rgb(255,184,110)" stroke-width="1.51"></path><path d="M103,330L93,426L185,437Z" fill="rgb(195,122,82)" stroke="rgb(195,122,82)" stroke-width="1.51"></path><path d="M463,110L483,29L424,65Z" fill="rgb(247,144,84)" stroke="rgb(247,144,84)" stroke-width="1.51"></path><path d="M562,137L483,29L463,110Z" fill="rgb(232,133,78)" stroke="rgb(232,133,78)" stroke-width="1.51"></path><path d="M181,-9L110,32L168,60Z" fill="rgb(255,230,148)" stroke="rgb(255,230,148)" stroke-width="1.51"></path><path d="M357,417L432,438L429,343Z" fill="rgb(184,32,39)" stroke="rgb(184,32,39)" stroke-width="1.51"></path><path d="M322,519L357,417L265,422Z" fill="rgb(189,73,49)" stroke="rgb(189,73,49)" stroke-width="1.51"></path><path d="M469,350L558,285L479,259Z" fill="rgb(214,20,32)" stroke="rgb(214,20,32)" stroke-width="1.51"></path><path d="M489,220L562,137L463,110Z" fill="rgb(229,108,54)" stroke="rgb(229,108,54)" stroke-width="1.51"></path><path d="M564,366L558,285L469,350Z" fill="rgb(193,4,37)" stroke="rgb(193,4,37)" stroke-width="1.51"></path><path d="M558,285L570,210L489,220Z" fill="rgb(215,58,43)" stroke="rgb(215,58,43)" stroke-width="1.51"></path><path d="M570,210L562,137L489,220Z" fill="rgb(215,90,51)" stroke="rgb(215,90,51)" stroke-width="1.51"></path><path d="M61,109L24,187L116,138Z" fill="rgb(255,210,123)" stroke="rgb(255,210,123)" stroke-width="1.51"></path><path d="M185,437L239,482L265,422Z" fill="rgb(191,97,57)" stroke="rgb(191,97,57)" stroke-width="1.51"></path><path d="M564,-12L481,-8L483,29Z" fill="rgb(236,149,113)" stroke="rgb(236,149,113)" stroke-width="1.51"></path><path d="M483,29L481,-8L409,-7Z" fill="rgb(251,155,110)" stroke="rgb(251,155,110)" stroke-width="1.51"></path><path d="M394,-89L330,-80L323,-27Z" fill="rgb(255,182,124)" stroke="rgb(255,182,124)" stroke-width="1.51"></path><path d="M432,438L507,402L469,350Z" fill="rgb(174,8,36)" stroke="rgb(174,8,36)" stroke-width="1.51"></path><path d="M394,-89L323,-27L409,-7Z" fill="rgb(255,173,120)" stroke="rgb(255,173,120)" stroke-width="1.51"></path><path d="M323,-27L269,-85L250,-27Z" fill="rgb(255,203,134)" stroke="rgb(255,203,134)" stroke-width="1.51"></path><path d="M250,-27L198,-92L181,-9Z" fill="rgb(255,220,145)" stroke="rgb(255,220,145)" stroke-width="1.51"></path><path d="M330,-80L269,-85L323,-27Z" fill="rgb(255,196,130)" stroke="rgb(255,196,130)" stroke-width="1.51"></path><path d="M181,-9L114,-30L110,32Z" fill="rgb(255,238,165)" stroke="rgb(255,238,165)" stroke-width="1.51"></path><path d="M185,437L189,514L239,482Z" fill="rgb(192,104,63)" stroke="rgb(192,104,63)" stroke-width="1.51"></path><path d="M42,367L93,426L103,330Z" fill="rgb(212,133,94)" stroke="rgb(212,133,94)" stroke-width="1.51"></path><path d="M42,367L103,330L45,257Z" fill="rgb(243,146,96)" stroke="rgb(243,146,96)" stroke-width="1.51"></path><path d="M-20,296L42,367L45,257Z" fill="rgb(249,153,106)" stroke="rgb(249,153,106)" stroke-width="1.51"></path><path d="M198,-92L114,-30L181,-9Z" fill="rgb(255,232,157)" stroke="rgb(255,232,157)" stroke-width="1.51"></path><path d="M110,32L32,46L61,109Z" fill="rgb(255,235,157)" stroke="rgb(255,235,157)" stroke-width="1.51"></path><path d="M61,109L-45,131L24,187Z" fill="rgb(255,218,140)" stroke="rgb(255,218,140)" stroke-width="1.51"></path><path d="M432,438L467,499L507,402Z" fill="rgb(172,8,36)" stroke="rgb(172,8,36)" stroke-width="1.51"></path><path d="M322,519L404,497L357,417Z" fill="rgb(189,51,43)" stroke="rgb(189,51,43)" stroke-width="1.51"></path><path d="M507,402L564,366L469,350Z" fill="rgb(178,2,38)" stroke="rgb(178,2,38)" stroke-width="1.51"></path><path d="M634,202L562,137L570,210Z" fill="rgb(195,87,53)" stroke="rgb(195,87,53)" stroke-width="1.51"></path><path d="M568,403L564,366L507,402Z" fill="rgb(155,0,38)" stroke="rgb(155,0,38)" stroke-width="1.51"></path><path d="M239,482L322,519L265,422Z" fill="rgb(190,85,53)" stroke="rgb(190,85,53)" stroke-width="1.51"></path><path d="M189,514L322,519L239,482Z" fill="rgb(191,92,56)" stroke="rgb(191,92,56)" stroke-width="1.51"></path><path d="M49,-17L32,46L110,32Z" fill="rgb(255,244,177)" stroke="rgb(255,244,177)" stroke-width="1.51"></path><path d="M330,-80L394,-89L269,-85Z" fill="rgb(255,188,127)" stroke="rgb(255,188,127)" stroke-width="1.51"></path><path d="M472,-83L394,-89L409,-7Z" fill="rgb(255,162,115)" stroke="rgb(255,162,115)" stroke-width="1.51"></path><path d="M269,-85L198,-92L250,-27Z" fill="rgb(255,213,139)" stroke="rgb(255,213,139)" stroke-width="1.51"></path><path d="M394,-89L198,-92L269,-85Z" fill="rgb(255,202,133)" stroke="rgb(255,202,133)" stroke-width="1.51"></path><path d="M131,497L189,514L185,437Z" fill="rgb(192,114,72)" stroke="rgb(192,114,72)" stroke-width="1.51"></path><path d="M634,202L570,210L558,285Z" fill="rgb(194,58,45)" stroke="rgb(194,58,45)" stroke-width="1.51"></path><path d="M634,202L613,118L562,137Z" fill="rgb(191,97,57)" stroke="rgb(191,97,57)" stroke-width="1.51"></path><path d="M562,137L585,45L483,29Z" fill="rgb(220,133,87)" stroke="rgb(220,133,87)" stroke-width="1.51"></path><path d="M-51,215L-20,296L45,257Z" fill="rgb(255,171,119)" stroke="rgb(255,171,119)" stroke-width="1.51"></path><path d="M22,488L131,497L93,426Z" fill="rgb(195,127,93)" stroke="rgb(195,127,93)" stroke-width="1.51"></path><path d="M-51,215L45,257L24,187Z" fill="rgb(255,188,125)" stroke="rgb(255,188,125)" stroke-width="1.51"></path><path d="M613,118L585,45L562,137Z" fill="rgb(199,120,76)" stroke="rgb(199,120,76)" stroke-width="1.51"></path><path d="M481,-8L472,-83L409,-7Z" fill="rgb(252,157,112)" stroke="rgb(252,157,112)" stroke-width="1.51"></path><path d="M658,298L634,202L558,285Z" fill="rgb(185,37,40)" stroke="rgb(185,37,40)" stroke-width="1.51"></path><path d="M555,508L568,403L507,402Z" fill="rgb(151,0,38)" stroke="rgb(151,0,38)" stroke-width="1.51"></path><path d="M93,426L131,497L185,437Z" fill="rgb(193,120,80)" stroke="rgb(193,120,80)" stroke-width="1.51"></path><path d="M13,404L93,426L42,367Z" fill="rgb(196,131,102)" stroke="rgb(196,131,102)" stroke-width="1.51"></path><path d="M404,497L467,499L432,438Z" fill="rgb(179,21,36)" stroke="rgb(179,21,36)" stroke-width="1.51"></path><path d="M322,519L467,499L404,497Z" fill="rgb(184,35,40)" stroke="rgb(184,35,40)" stroke-width="1.51"></path><path d="M621,343L558,285L564,366Z" fill="rgb(173,4,37)" stroke="rgb(173,4,37)" stroke-width="1.51"></path><path d="M108,-98L49,-17L114,-30Z" fill="rgb(255,244,178)" stroke="rgb(255,244,178)" stroke-width="1.51"></path><path d="M114,-30L49,-17L110,32Z" fill="rgb(255,244,178)" stroke="rgb(255,244,178)" stroke-width="1.51"></path><path d="M564,-12L472,-83L481,-8Z" fill="rgb(238,150,114)" stroke="rgb(238,150,114)" stroke-width="1.51"></path><path d="M-23,354L13,404L42,367Z" fill="rgb(214,141,112)" stroke="rgb(214,141,112)" stroke-width="1.51"></path><path d="M585,45L564,-12L483,29Z" fill="rgb(222,142,107)" stroke="rgb(222,142,107)" stroke-width="1.51"></path><path d="M627,43L564,-12L585,45Z" fill="rgb(200,133,105)" stroke="rgb(200,133,105)" stroke-width="1.51"></path><path d="M-20,296L-23,354L42,367Z" fill="rgb(237,150,114)" stroke="rgb(237,150,114)" stroke-width="1.51"></path><path d="M-45,131L-51,215L24,187Z" fill="rgb(255,207,135)" stroke="rgb(255,207,135)" stroke-width="1.51"></path><path d="M-45,131L61,109L32,46Z" fill="rgb(255,235,159)" stroke="rgb(255,235,159)" stroke-width="1.51"></path><path d="M568,403L621,343L564,366Z" fill="rgb(151,0,38)" stroke="rgb(151,0,38)" stroke-width="1.51"></path><path d="M-34,49L-45,131L32,46Z" fill="rgb(255,241,172)" stroke="rgb(255,241,172)" stroke-width="1.51"></path><path d="M-93,337L-23,354L-20,296Z" fill="rgb(241,152,114)" stroke="rgb(241,152,114)" stroke-width="1.51"></path><path d="M629,-111L108,-98L198,-92Z" fill="rgb(255,194,130)" stroke="rgb(255,194,130)" stroke-width="1.51"></path><path d="M198,-92L108,-98L114,-30Z" fill="rgb(255,237,164)" stroke="rgb(255,237,164)" stroke-width="1.51"></path><path d="M613,118L627,43L585,45Z" fill="rgb(194,124,88)" stroke="rgb(194,124,88)" stroke-width="1.51"></path><path d="M719,135L627,43L613,118Z" fill="rgb(193,119,77)" stroke="rgb(193,119,77)" stroke-width="1.51"></path><path d="M-28,-37L32,46L49,-17Z" fill="rgb(255,253,199)" stroke="rgb(255,253,199)" stroke-width="1.51"></path><path d="M-28,-37L-34,49L32,46Z" fill="rgb(255,251,195)" stroke="rgb(255,251,195)" stroke-width="1.51"></path><path d="M621,343L658,298L558,285Z" fill="rgb(173,9,36)" stroke="rgb(173,9,36)" stroke-width="1.51"></path><path d="M634,202L719,135L613,118Z" fill="rgb(191,98,57)" stroke="rgb(191,98,57)" stroke-width="1.51"></path><path d="M13,404L22,488L93,426Z" fill="rgb(196,132,104)" stroke="rgb(196,132,104)" stroke-width="1.51"></path><path d="M131,497L-49,515L189,514Z" fill="rgb(195,126,91)" stroke="rgb(195,126,91)" stroke-width="1.51"></path><path d="M-16,448L22,488L13,404Z" fill="rgb(197,136,113)" stroke="rgb(197,136,113)" stroke-width="1.51"></path><path d="M621,343L692,330L658,298Z" fill="rgb(168,5,36)" stroke="rgb(168,5,36)" stroke-width="1.51"></path><path d="M568,403L648,405L621,343Z" fill="rgb(138,0,38)" stroke="rgb(138,0,38)" stroke-width="1.51"></path><path d="M467,499L555,508L507,402Z" fill="rgb(162,2,38)" stroke="rgb(162,2,38)" stroke-width="1.51"></path><path d="M322,519L555,508L467,499Z" fill="rgb(177,13,35)" stroke="rgb(177,13,35)" stroke-width="1.51"></path><path d="M-96,405L-16,448L-23,354Z" fill="rgb(197,137,115)" stroke="rgb(197,137,115)" stroke-width="1.51"></path><path d="M-23,354L-16,448L13,404Z" fill="rgb(197,137,115)" stroke="rgb(197,137,115)" stroke-width="1.51"></path><path d="M-126,104L-102,194L-45,131Z" fill="rgb(255,219,143)" stroke="rgb(255,219,143)" stroke-width="1.51"></path><path d="M-45,131L-102,194L-51,215Z" fill="rgb(255,206,135)" stroke="rgb(255,206,135)" stroke-width="1.51"></path><path d="M-51,215L-102,288L-20,296Z" fill="rgb(255,168,118)" stroke="rgb(255,168,118)" stroke-width="1.51"></path><path d="M615,521L648,405L568,403Z" fill="rgb(128,0,38)" stroke="rgb(128,0,38)" stroke-width="1.51"></path><path d="M-102,194L-102,288L-51,215Z" fill="rgb(255,182,124)" stroke="rgb(255,182,124)" stroke-width="1.51"></path><path d="M22,-106L-28,-37L49,-17Z" fill="rgb(255,253,200)" stroke="rgb(255,253,200)" stroke-width="1.51"></path><path d="M-114,53L-126,104L-45,131Z" fill="rgb(255,237,163)" stroke="rgb(255,237,163)" stroke-width="1.51"></path><path d="M627,43L630,-31L564,-12Z" fill="rgb(197,137,115)" stroke="rgb(197,137,115)" stroke-width="1.51"></path><path d="M564,-12L569,-102L472,-83Z" fill="rgb(228,147,115)" stroke="rgb(228,147,115)" stroke-width="1.51"></path><path d="M727,-33L630,-31L627,43Z" fill="rgb(197,137,115)" stroke="rgb(197,137,115)" stroke-width="1.51"></path><path d="M-102,288L-93,337L-20,296Z" fill="rgb(250,156,112)" stroke="rgb(250,156,112)" stroke-width="1.51"></path><path d="M658,298L712,256L634,202Z" fill="rgb(188,41,41)" stroke="rgb(188,41,41)" stroke-width="1.51"></path><path d="M648,405L692,330L621,343Z" fill="rgb(152,0,38)" stroke="rgb(152,0,38)" stroke-width="1.51"></path><path d="M630,-31L569,-102L564,-12Z" fill="rgb(203,138,115)" stroke="rgb(203,138,115)" stroke-width="1.51"></path><path d="M472,-83L569,-102L394,-89Z" fill="rgb(245,154,113)" stroke="rgb(245,154,113)" stroke-width="1.51"></path><path d="M394,-89L629,-111L198,-92Z" fill="rgb(255,166,117)" stroke="rgb(255,166,117)" stroke-width="1.51"></path><path d="M692,330L712,256L658,298Z" fill="rgb(178,16,36)" stroke="rgb(178,16,36)" stroke-width="1.51"></path><path d="M108,-98L22,-106L49,-17Z" fill="rgb(255,248,186)" stroke="rgb(255,248,186)" stroke-width="1.51"></path><path d="M629,-111L22,-106L108,-98Z" fill="rgb(255,209,137)" stroke="rgb(255,209,137)" stroke-width="1.51"></path><path d="M712,256L718,207L634,202Z" fill="rgb(189,65,47)" stroke="rgb(189,65,47)" stroke-width="1.51"></path><path d="M718,207L719,135L634,202Z" fill="rgb(190,86,53)" stroke="rgb(190,86,53)" stroke-width="1.51"></path><path d="M-102,194L-126,104L-102,288Z" fill="rgb(255,200,132)" stroke="rgb(255,200,132)" stroke-width="1.51"></path><path d="M-114,53L-45,131L-34,49Z" fill="rgb(255,240,171)" stroke="rgb(255,240,171)" stroke-width="1.51"></path><path d="M-102,288L-96,405L-93,337Z" fill="rgb(235,149,115)" stroke="rgb(235,149,115)" stroke-width="1.51"></path><path d="M-93,337L-96,405L-23,354Z" fill="rgb(222,145,115)" stroke="rgb(222,145,115)" stroke-width="1.51"></path><path d="M-16,448L-49,515L22,488Z" fill="rgb(197,137,115)" stroke="rgb(197,137,115)" stroke-width="1.51"></path><path d="M-102,511L-96,405L-102,288Z" fill="rgb(197,137,115)" stroke="rgb(197,137,115)" stroke-width="1.51"></path><path d="M-92,-37L-34,49L-28,-37Z" fill="rgb(255,255,204)" stroke="rgb(255,255,204)" stroke-width="1.51"></path><path d="M-92,-37L-114,53L-34,49Z" fill="rgb(255,251,194)" stroke="rgb(255,251,194)" stroke-width="1.51"></path><path d="M322,519L615,521L555,508Z" fill="rgb(165,3,37)" stroke="rgb(165,3,37)" stroke-width="1.51"></path><path d="M555,508L615,521L568,403Z" fill="rgb(136,0,38)" stroke="rgb(136,0,38)" stroke-width="1.51"></path><path d="M648,405L715,439L692,330Z" fill="rgb(133,0,38)" stroke="rgb(133,0,38)" stroke-width="1.51"></path><path d="M22,-106L-37,-96L-28,-37Z" fill="rgb(255,255,204)" stroke="rgb(255,255,204)" stroke-width="1.51"></path><path d="M569,-102L629,-111L394,-89Z" fill="rgb(229,147,115)" stroke="rgb(229,147,115)" stroke-width="1.51"></path><path d="M630,-31L629,-111L569,-102Z" fill="rgb(197,137,115)" stroke="rgb(197,137,115)" stroke-width="1.51"></path><path d="M724,-79L629,-111L630,-31Z" fill="rgb(197,137,115)" stroke="rgb(197,137,115)" stroke-width="1.51"></path><path d="M-91,-84L-92,-37L-28,-37Z" fill="rgb(255,255,204)" stroke="rgb(255,255,204)" stroke-width="1.51"></path><path d="M-102,511L-49,515L-16,448Z" fill="rgb(197,137,115)" stroke="rgb(197,137,115)" stroke-width="1.51"></path><path d="M22,488L-49,515L131,497Z" fill="rgb(196,133,106)" stroke="rgb(196,133,106)" stroke-width="1.51"></path><path d="M189,514L-49,515L322,519Z" fill="rgb(193,117,75)" stroke="rgb(193,117,75)" stroke-width="1.51"></path><path d="M718,207L735,55L719,135Z" fill="rgb(192,106,64)" stroke="rgb(192,106,64)" stroke-width="1.51"></path><path d="M719,135L735,55L627,43Z" fill="rgb(194,123,85)" stroke="rgb(194,123,85)" stroke-width="1.51"></path><path d="M615,521L715,439L648,405Z" fill="rgb(128,0,38)" stroke="rgb(128,0,38)" stroke-width="1.51"></path><path d="M692,330L715,439L712,256Z" fill="rgb(161,1,38)" stroke="rgb(161,1,38)" stroke-width="1.51"></path><path d="M712,256L732,494L718,207Z" fill="rgb(169,6,36)" stroke="rgb(169,6,36)" stroke-width="1.51"></path><path d="M718,207L732,494L735,55Z" fill="rgb(188,41,41)" stroke="rgb(188,41,41)" stroke-width="1.51"></path><path d="M-37,-96L-91,-84L-28,-37Z" fill="rgb(255,255,204)" stroke="rgb(255,255,204)" stroke-width="1.51"></path><path d="M-92,-37L-91,-84L-114,53Z" fill="rgb(255,255,204)" stroke="rgb(255,255,204)" stroke-width="1.51"></path><path d="M-114,53L-91,-84L-126,104Z" fill="rgb(255,250,193)" stroke="rgb(255,250,193)" stroke-width="1.51"></path><path d="M735,55L727,-33L627,43Z" fill="rgb(196,133,106)" stroke="rgb(196,133,106)" stroke-width="1.51"></path><path d="M-126,104L-102,511L-102,288Z" fill="rgb(253,157,112)" stroke="rgb(253,157,112)" stroke-width="1.51"></path><path d="M-96,405L-102,511L-16,448Z" fill="rgb(197,137,115)" stroke="rgb(197,137,115)" stroke-width="1.51"></path><path d="M735,55L724,-79L727,-33Z" fill="rgb(197,137,115)" stroke="rgb(197,137,115)" stroke-width="1.51"></path><path d="M727,-33L724,-79L630,-31Z" fill="rgb(197,137,115)" stroke="rgb(197,137,115)" stroke-width="1.51"></path><path d="M615,521L732,494L715,439Z" fill="rgb(128,0,38)" stroke="rgb(128,0,38)" stroke-width="1.51"></path><path d="M715,439L732,494L712,256Z" fill="rgb(130,0,38)" stroke="rgb(130,0,38)" stroke-width="1.51"></path></svg>