<svg width="600" height="400" xmlns="http://www.w3.org/2000/svg"><path d="M336,199L337,125L262,124Z" fill="rgb(253,232,166)" stroke="rgb(253,232,166)" stroke-width="1.51"></path><path d="M262,124L261,199L336,199Z" fill="rgb(255,241,170)" stroke="rgb(255,241,170)" stroke-width="1.51"></path><path d="M337,125L337,51L262,124Z" fill="rgb(255,199,141)" stroke="rgb(255,199,141)" stroke-width="1.51"></path><path d="M337,51L263,49L262,124Z" fill="rgb(254,178,120)" stroke="rgb(254,178,120)" stroke-width="1.51"></path><path d="M262,124L187,199L261,199Z" fill="rgb(255,228,150)" stroke="rgb(255,228,150)" stroke-width="1.51"></path><path d="M186,123L187,199L262,124Z" fill="rgb(255,206,126)" stroke="rgb(255,206,126)" stroke-width="1.51"></path><path d="M261,199L336,274L336,199Z" fill="rgb(244,250,214)" stroke="rgb(244,250,214)" stroke-width="1.51"></path><path d="M336,199L412,125L337,125Z" fill="rgb(243,226,190)" stroke="rgb(243,226,190)" stroke-width="1.51"></path><path d="M261,274L336,274L261,199Z" fill="rgb(236,242,213)" stroke="rgb(236,242,213)" stroke-width="1.51"></path><path d="M337,125L412,125L337,51Z" fill="rgb(245,193,163)" stroke="rgb(245,193,163)" stroke-width="1.51"></path><path d="M413,200L412,125L336,199Z" fill="rgb(232,233,202)" stroke="rgb(232,233,202)" stroke-width="1.51"></path><path d="M187,199L261,274L261,199Z" fill="rgb(248,234,183)" stroke="rgb(248,234,183)" stroke-width="1.51"></path><path d="M187,50L186,123L262,124Z" fill="rgb(252,171,101)" stroke="rgb(252,171,101)" stroke-width="1.51"></path><path d="M411,274L413,200L336,199Z" fill="rgb(220,239,234)" stroke="rgb(220,239,234)" stroke-width="1.51"></path><path d="M263,49L187,50L262,124Z" fill="rgb(251,164,101)" stroke="rgb(251,164,101)" stroke-width="1.51"></path><path d="M336,274L411,274L336,199Z" fill="rgb(218,240,247)" stroke="rgb(218,240,247)" stroke-width="1.51"></path><path d="M412,125L413,49L337,51Z" fill="rgb(235,169,150)" stroke="rgb(235,169,150)" stroke-width="1.51"></path><path d="M338,-25L261,-25L263,49Z" fill="rgb(217,140,104)" stroke="rgb(217,140,104)" stroke-width="1.51"></path><path d="M488,124L413,49L412,125Z" fill="rgb(217,174,153)" stroke="rgb(217,174,153)" stroke-width="1.51"></path><path d="M187,199L186,275L261,274Z" fill="rgb(239,218,183)" stroke="rgb(239,218,183)" stroke-width="1.51"></path><path d="M261,274L263,350L336,274Z" fill="rgb(205,221,202)" stroke="rgb(205,221,202)" stroke-width="1.51"></path><path d="M336,274L412,348L411,274Z" fill="rgb(174,214,232)" stroke="rgb(174,214,232)" stroke-width="1.51"></path><path d="M112,273L186,275L187,199Z" fill="rgb(241,196,166)" stroke="rgb(241,196,166)" stroke-width="1.51"></path><path d="M263,49L261,-25L187,50Z" fill="rgb(230,137,87)" stroke="rgb(230,137,87)" stroke-width="1.51"></path><path d="M338,-25L263,49L337,51Z" fill="rgb(233,152,116)" stroke="rgb(233,152,116)" stroke-width="1.51"></path><path d="M413,200L486,198L412,125Z" fill="rgb(211,219,195)" stroke="rgb(211,219,195)" stroke-width="1.51"></path><path d="M487,273L486,198L413,200Z" fill="rgb(188,217,221)" stroke="rgb(188,217,221)" stroke-width="1.51"></path><path d="M413,49L338,-25L337,51Z" fill="rgb(224,147,137)" stroke="rgb(224,147,137)" stroke-width="1.51"></path><path d="M186,123L111,124L187,199Z" fill="rgb(254,183,109)" stroke="rgb(254,183,109)" stroke-width="1.51"></path><path d="M112,50L111,124L186,123Z" fill="rgb(248,135,78)" stroke="rgb(248,135,78)" stroke-width="1.51"></path><path d="M112,50L186,123L187,50Z" fill="rgb(246,129,75)" stroke="rgb(246,129,75)" stroke-width="1.51"></path><path d="M111,124L111,199L187,199Z" fill="rgb(255,183,116)" stroke="rgb(255,183,116)" stroke-width="1.51"></path><path d="M186,349L263,350L261,274Z" fill="rgb(193,193,175)" stroke="rgb(193,193,175)" stroke-width="1.51"></path><path d="M486,198L488,124L412,125Z" fill="rgb(204,198,175)" stroke="rgb(204,198,175)" stroke-width="1.51"></path><path d="M263,350L337,351L336,274Z" fill="rgb(186,208,205)" stroke="rgb(186,208,205)" stroke-width="1.51"></path><path d="M411,274L487,273L413,200Z" fill="rgb(184,220,235)" stroke="rgb(184,220,235)" stroke-width="1.51"></path><path d="M113,-26L112,50L187,50Z" fill="rgb(222,87,56)" stroke="rgb(222,87,56)" stroke-width="1.51"></path><path d="M186,275L186,349L261,274Z" fill="rgb(209,197,172)" stroke="rgb(209,197,172)" stroke-width="1.51"></path><path d="M111,199L112,273L187,199Z" fill="rgb(251,189,148)" stroke="rgb(251,189,148)" stroke-width="1.51"></path><path d="M486,-25L412,-25L413,49Z" fill="rgb(180,121,126)" stroke="rgb(180,121,126)" stroke-width="1.51"></path><path d="M413,49L412,-25L338,-25Z" fill="rgb(198,133,132)" stroke="rgb(198,133,132)" stroke-width="1.51"></path><path d="M337,351L412,348L336,274Z" fill="rgb(169,204,227)" stroke="rgb(169,204,227)" stroke-width="1.51"></path><path d="M263,-100L261,-25L338,-25Z" fill="rgb(217,140,104)" stroke="rgb(217,140,104)" stroke-width="1.51"></path><path d="M187,-100L187,-26L261,-25Z" fill="rgb(212,117,77)" stroke="rgb(212,117,77)" stroke-width="1.51"></path><path d="M261,-25L187,-26L187,50Z" fill="rgb(212,117,77)" stroke="rgb(212,117,77)" stroke-width="1.51"></path><path d="M412,348L487,273L411,274Z" fill="rgb(151,201,224)" stroke="rgb(151,201,224)" stroke-width="1.51"></path><path d="M486,198L563,125L488,124Z" fill="rgb(185,175,165)" stroke="rgb(185,175,165)" stroke-width="1.51"></path><path d="M112,350L186,349L186,275Z" fill="rgb(198,161,148)" stroke="rgb(198,161,148)" stroke-width="1.51"></path><path d="M263,350L337,424L337,351Z" fill="rgb(165,168,187)" stroke="rgb(165,168,187)" stroke-width="1.51"></path><path d="M488,124L488,50L413,49Z" fill="rgb(205,147,139)" stroke="rgb(205,147,139)" stroke-width="1.51"></path><path d="M111,124L38,123L111,199Z" fill="rgb(245,148,89)" stroke="rgb(245,148,89)" stroke-width="1.51"></path><path d="M111,199L38,200L112,273Z" fill="rgb(244,167,134)" stroke="rgb(244,167,134)" stroke-width="1.51"></path><path d="M112,50L38,123L111,124Z" fill="rgb(239,111,66)" stroke="rgb(239,111,66)" stroke-width="1.51"></path><path d="M38,49L38,123L112,50Z" fill="rgb(228,78,51)" stroke="rgb(228,78,51)" stroke-width="1.51"></path><path d="M38,123L38,200L111,199Z" fill="rgb(242,151,97)" stroke="rgb(242,151,97)" stroke-width="1.51"></path><path d="M112,273L112,350L186,275Z" fill="rgb(212,164,148)" stroke="rgb(212,164,148)" stroke-width="1.51"></path><path d="M337,-100L263,-100L338,-25Z" fill="rgb(216,142,115)" stroke="rgb(216,142,115)" stroke-width="1.51"></path><path d="M488,50L486,-25L413,49Z" fill="rgb(187,121,123)" stroke="rgb(187,121,123)" stroke-width="1.51"></path><path d="M412,-25L337,-100L338,-25Z" fill="rgb(208,137,135)" stroke="rgb(208,137,135)" stroke-width="1.51"></path><path d="M187,-26L113,-26L187,50Z" fill="rgb(209,92,62)" stroke="rgb(209,92,62)" stroke-width="1.51"></path><path d="M187,-100L113,-26L187,-26Z" fill="rgb(209,92,62)" stroke="rgb(209,92,62)" stroke-width="1.51"></path><path d="M413,-101L337,-100L412,-25Z" fill="rgb(198,133,132)" stroke="rgb(198,133,132)" stroke-width="1.51"></path><path d="M412,348L488,349L487,273Z" fill="rgb(123,177,212)" stroke="rgb(123,177,212)" stroke-width="1.51"></path><path d="M337,351L412,424L412,348Z" fill="rgb(136,160,205)" stroke="rgb(136,160,205)" stroke-width="1.51"></path><path d="M262,425L337,424L263,350Z" fill="rgb(162,145,168)" stroke="rgb(162,145,168)" stroke-width="1.51"></path><path d="M188,424L262,425L263,350Z" fill="rgb(164,133,150)" stroke="rgb(164,133,150)" stroke-width="1.51"></path><path d="M37,349L112,350L112,273Z" fill="rgb(192,128,127)" stroke="rgb(192,128,127)" stroke-width="1.51"></path><path d="M188,424L263,350L186,349Z" fill="rgb(173,145,149)" stroke="rgb(173,145,149)" stroke-width="1.51"></path><path d="M563,200L563,125L486,198Z" fill="rgb(174,174,174)" stroke="rgb(174,174,174)" stroke-width="1.51"></path><path d="M412,424L488,349L412,348Z" fill="rgb(113,148,198)" stroke="rgb(113,148,198)" stroke-width="1.51"></path><path d="M488,124L563,125L488,50Z" fill="rgb(188,143,139)" stroke="rgb(188,143,139)" stroke-width="1.51"></path><path d="M488,50L562,48L486,-25Z" fill="rgb(168,100,114)" stroke="rgb(168,100,114)" stroke-width="1.51"></path><path d="M563,200L486,198L487,273Z" fill="rgb(169,194,210)" stroke="rgb(169,194,210)" stroke-width="1.51"></path><path d="M561,275L563,200L487,273Z" fill="rgb(145,176,213)" stroke="rgb(145,176,213)" stroke-width="1.51"></path><path d="M113,-26L38,49L112,50Z" fill="rgb(212,58,45)" stroke="rgb(212,58,45)" stroke-width="1.51"></path><path d="M263,-100L187,-100L261,-25Z" fill="rgb(214,127,87)" stroke="rgb(214,127,87)" stroke-width="1.51"></path><path d="M113,424L188,424L186,349Z" fill="rgb(167,102,124)" stroke="rgb(167,102,124)" stroke-width="1.51"></path><path d="M488,349L561,275L487,273Z" fill="rgb(119,169,208)" stroke="rgb(119,169,208)" stroke-width="1.51"></path><path d="M337,424L412,424L337,351Z" fill="rgb(141,143,198)" stroke="rgb(141,143,198)" stroke-width="1.51"></path><path d="M486,425L412,424L411,499Z" fill="rgb(108,127,188)" stroke="rgb(108,127,188)" stroke-width="1.51"></path><path d="M337,-100L413,-101L263,-100Z" fill="rgb(212,140,126)" stroke="rgb(212,140,126)" stroke-width="1.51"></path><path d="M263,-100L113,-102L187,-100Z" fill="rgb(211,105,69)" stroke="rgb(211,105,69)" stroke-width="1.51"></path><path d="M486,-100L413,-101L412,-25Z" fill="rgb(180,121,126)" stroke="rgb(180,121,126)" stroke-width="1.51"></path><path d="M486,-25L486,-100L412,-25Z" fill="rgb(171,112,121)" stroke="rgb(171,112,121)" stroke-width="1.51"></path><path d="M563,125L562,48L488,50Z" fill="rgb(178,113,123)" stroke="rgb(178,113,123)" stroke-width="1.51"></path><path d="M38,200L36,275L112,273Z" fill="rgb(231,152,137)" stroke="rgb(231,152,137)" stroke-width="1.51"></path><path d="M-38,274L36,275L38,200Z" fill="rgb(209,138,134)" stroke="rgb(209,138,134)" stroke-width="1.51"></path><path d="M-38,125L38,200L38,123Z" fill="rgb(218,125,82)" stroke="rgb(218,125,82)" stroke-width="1.51"></path><path d="M561,-26L486,-100L486,-25Z" fill="rgb(153,91,112)" stroke="rgb(153,91,112)" stroke-width="1.51"></path><path d="M112,350L113,424L186,349Z" fill="rgb(174,110,125)" stroke="rgb(174,110,125)" stroke-width="1.51"></path><path d="M188,424L262,499L262,425Z" fill="rgb(164,133,150)" stroke="rgb(164,133,150)" stroke-width="1.51"></path><path d="M36,424L113,424L112,350Z" fill="rgb(158,65,104)" stroke="rgb(158,65,104)" stroke-width="1.51"></path><path d="M562,48L561,-26L486,-25Z" fill="rgb(143,79,107)" stroke="rgb(143,79,107)" stroke-width="1.51"></path><path d="M37,-99L37,-26L113,-26Z" fill="rgb(190,30,39)" stroke="rgb(190,30,39)" stroke-width="1.51"></path><path d="M113,-26L37,-26L38,49Z" fill="rgb(190,30,39)" stroke="rgb(190,30,39)" stroke-width="1.51"></path><path d="M-38,50L-38,125L38,123Z" fill="rgb(207,85,59)" stroke="rgb(207,85,59)" stroke-width="1.51"></path><path d="M36,275L37,349L112,273Z" fill="rgb(202,133,128)" stroke="rgb(202,133,128)" stroke-width="1.51"></path><path d="M488,349L562,348L561,275Z" fill="rgb(93,143,194)" stroke="rgb(93,143,194)" stroke-width="1.51"></path><path d="M637,273L637,199L563,200Z" fill="rgb(151,145,188)" stroke="rgb(151,145,188)" stroke-width="1.51"></path><path d="M562,426L562,348L488,349Z" fill="rgb(68,106,175)" stroke="rgb(68,106,175)" stroke-width="1.51"></path><path d="M187,-100L113,-102L113,-26Z" fill="rgb(206,77,56)" stroke="rgb(206,77,56)" stroke-width="1.51"></path><path d="M413,-101L113,-102L263,-100Z" fill="rgb(216,134,96)" stroke="rgb(216,134,96)" stroke-width="1.51"></path><path d="M412,424L486,425L488,349Z" fill="rgb(96,118,183)" stroke="rgb(96,118,183)" stroke-width="1.51"></path><path d="M411,499L412,424L337,424Z" fill="rgb(131,138,195)" stroke="rgb(131,138,195)" stroke-width="1.51"></path><path d="M-38,50L38,123L38,49Z" fill="rgb(207,64,50)" stroke="rgb(207,64,50)" stroke-width="1.51"></path><path d="M36,275L-38,349L37,349Z" fill="rgb(167,106,118)" stroke="rgb(167,106,118)" stroke-width="1.51"></path><path d="M262,425L262,499L337,424Z" fill="rgb(163,145,168)" stroke="rgb(163,145,168)" stroke-width="1.51"></path><path d="M186,499L262,499L188,424Z" fill="rgb(165,122,141)" stroke="rgb(165,122,141)" stroke-width="1.51"></path><path d="M563,125L638,50L562,48Z" fill="rgb(166,82,112)" stroke="rgb(166,82,112)" stroke-width="1.51"></path><path d="M562,48L637,-26L561,-26Z" fill="rgb(131,47,96)" stroke="rgb(131,47,96)" stroke-width="1.51"></path><path d="M563,200L637,199L563,125Z" fill="rgb(166,146,162)" stroke="rgb(166,146,162)" stroke-width="1.51"></path><path d="M637,273L563,200L561,275Z" fill="rgb(138,148,200)" stroke="rgb(138,148,200)" stroke-width="1.51"></path><path d="M-38,125L-39,199L38,200Z" fill="rgb(216,134,95)" stroke="rgb(216,134,95)" stroke-width="1.51"></path><path d="M637,199L638,124L563,125Z" fill="rgb(165,127,145)" stroke="rgb(165,127,145)" stroke-width="1.51"></path><path d="M262,499L336,501L337,424Z" fill="rgb(159,147,178)" stroke="rgb(159,147,178)" stroke-width="1.51"></path><path d="M-114,124L-113,200L-39,199Z" fill="rgb(216,134,95)" stroke="rgb(216,134,95)" stroke-width="1.51"></path><path d="M37,-26L-38,50L38,49Z" fill="rgb(185,24,39)" stroke="rgb(185,24,39)" stroke-width="1.51"></path><path d="M-39,199L-38,274L38,200Z" fill="rgb(213,140,125)" stroke="rgb(213,140,125)" stroke-width="1.51"></path><path d="M336,501L411,499L337,424Z" fill="rgb(142,143,199)" stroke="rgb(142,143,199)" stroke-width="1.51"></path><path d="M636,349L637,273L561,275Z" fill="rgb(102,122,186)" stroke="rgb(102,122,186)" stroke-width="1.51"></path><path d="M637,199L711,125L638,124Z" fill="rgb(165,127,145)" stroke="rgb(165,127,145)" stroke-width="1.51"></path><path d="M636,349L561,275L562,348Z" fill="rgb(87,116,181)" stroke="rgb(87,116,181)" stroke-width="1.51"></path><path d="M262,499L113,501L336,501Z" fill="rgb(164,133,150)" stroke="rgb(164,133,150)" stroke-width="1.51"></path><path d="M113,424L186,499L188,424Z" fill="rgb(166,101,124)" stroke="rgb(166,101,124)" stroke-width="1.51"></path><path d="M113,501L186,499L113,424Z" fill="rgb(165,88,117)" stroke="rgb(165,88,117)" stroke-width="1.51"></path><path d="M36,424L112,350L37,349Z" fill="rgb(163,79,105)" stroke="rgb(163,79,105)" stroke-width="1.51"></path><path d="M638,124L638,50L563,125Z" fill="rgb(166,94,120)" stroke="rgb(166,94,120)" stroke-width="1.51"></path><path d="M37,-26L-39,-26L-38,50Z" fill="rgb(165,0,38)" stroke="rgb(165,0,38)" stroke-width="1.51"></path><path d="M113,-102L37,-99L113,-26Z" fill="rgb(197,48,45)" stroke="rgb(197,48,45)" stroke-width="1.51"></path><path d="M637,-26L563,-100L561,-26Z" fill="rgb(131,47,96)" stroke="rgb(131,47,96)" stroke-width="1.51"></path><path d="M561,-26L563,-100L486,-100Z" fill="rgb(143,79,107)" stroke="rgb(143,79,107)" stroke-width="1.51"></path><path d="M486,-100L563,-100L413,-101Z" fill="rgb(161,102,117)" stroke="rgb(161,102,117)" stroke-width="1.51"></path><path d="M-38,349L36,424L37,349Z" fill="rgb(143,67,102)" stroke="rgb(143,67,102)" stroke-width="1.51"></path><path d="M487,499L562,426L486,425Z" fill="rgb(74,98,172)" stroke="rgb(74,98,172)" stroke-width="1.51"></path><path d="M486,425L562,426L488,349Z" fill="rgb(74,98,172)" stroke="rgb(74,98,172)" stroke-width="1.51"></path><path d="M562,426L636,349L562,348Z" fill="rgb(60,81,163)" stroke="rgb(60,81,163)" stroke-width="1.51"></path><path d="M-38,274L-38,349L36,275Z" fill="rgb(175,116,124)" stroke="rgb(175,116,124)" stroke-width="1.51"></path><path d="M-113,274L-38,349L-38,274Z" fill="rgb(176,117,124)" stroke="rgb(176,117,124)" stroke-width="1.51"></path><path d="M411,499L487,499L486,425Z" fill="rgb(96,118,183)" stroke="rgb(96,118,183)" stroke-width="1.51"></path><path d="M336,501L487,499L411,499Z" fill="rgb(120,134,192)" stroke="rgb(120,134,192)" stroke-width="1.51"></path><path d="M638,50L637,-26L562,48Z" fill="rgb(143,46,95)" stroke="rgb(143,46,95)" stroke-width="1.51"></path><path d="M-114,124L-39,199L-38,125Z" fill="rgb(213,122,82)" stroke="rgb(213,122,82)" stroke-width="1.51"></path><path d="M37,-99L-39,-26L37,-26Z" fill="rgb(170,6,38)" stroke="rgb(170,6,38)" stroke-width="1.51"></path><path d="M37,500L113,501L113,424Z" fill="rgb(159,65,104)" stroke="rgb(159,65,104)" stroke-width="1.51"></path><path d="M186,499L113,501L262,499Z" fill="rgb(166,112,131)" stroke="rgb(166,112,131)" stroke-width="1.51"></path><path d="M638,124L712,50L638,50Z" fill="rgb(163,75,110)" stroke="rgb(163,75,110)" stroke-width="1.51"></path><path d="M638,50L711,-25L637,-26Z" fill="rgb(128,38,93)" stroke="rgb(128,38,93)" stroke-width="1.51"></path><path d="M711,200L711,125L637,199Z" fill="rgb(164,139,159)" stroke="rgb(164,139,159)" stroke-width="1.51"></path><path d="M711,200L637,199L637,273Z" fill="rgb(151,145,188)" stroke="rgb(151,145,188)" stroke-width="1.51"></path><path d="M711,275L711,200L637,273Z" fill="rgb(136,141,197)" stroke="rgb(136,141,197)" stroke-width="1.51"></path><path d="M-39,199L-113,200L-38,274Z" fill="rgb(213,140,125)" stroke="rgb(213,140,125)" stroke-width="1.51"></path><path d="M-114,124L-38,125L-38,50Z" fill="rgb(207,85,59)" stroke="rgb(207,85,59)" stroke-width="1.51"></path><path d="M-113,49L-114,124L-38,50Z" fill="rgb(202,61,50)" stroke="rgb(202,61,50)" stroke-width="1.51"></path><path d="M37,-99L-37,-101L-39,-26Z" fill="rgb(165,0,38)" stroke="rgb(165,0,38)" stroke-width="1.51"></path><path d="M-39,-26L-113,49L-38,50Z" fill="rgb(180,19,39)" stroke="rgb(180,19,39)" stroke-width="1.51"></path><path d="M113,-102L-37,-101L37,-99Z" fill="rgb(180,20,39)" stroke="rgb(180,20,39)" stroke-width="1.51"></path><path d="M711,-100L636,-100L637,-26Z" fill="rgb(128,38,93)" stroke="rgb(128,38,93)" stroke-width="1.51"></path><path d="M637,-26L636,-100L563,-100Z" fill="rgb(128,38,93)" stroke="rgb(128,38,93)" stroke-width="1.51"></path><path d="M563,-100L636,-100L413,-101Z" fill="rgb(143,78,106)" stroke="rgb(143,78,106)" stroke-width="1.51"></path><path d="M-113,-25L-113,49L-39,-26Z" fill="rgb(165,0,38)" stroke="rgb(165,0,38)" stroke-width="1.51"></path><path d="M-113,200L-113,274L-38,274Z" fill="rgb(203,135,134)" stroke="rgb(203,135,134)" stroke-width="1.51"></path><path d="M-38,499L37,500L36,424Z" fill="rgb(133,40,93)" stroke="rgb(133,40,93)" stroke-width="1.51"></path><path d="M-114,124L-113,274L-113,200Z" fill="rgb(218,143,109)" stroke="rgb(218,143,109)" stroke-width="1.51"></path><path d="M636,349L711,275L637,273Z" fill="rgb(102,122,186)" stroke="rgb(102,122,186)" stroke-width="1.51"></path><path d="M713,349L711,275L636,349Z" fill="rgb(84,109,178)" stroke="rgb(84,109,178)" stroke-width="1.51"></path><path d="M713,349L712,50L711,200Z" fill="rgb(162,148,173)" stroke="rgb(162,148,173)" stroke-width="1.51"></path><path d="M711,200L712,50L711,125Z" fill="rgb(167,112,131)" stroke="rgb(167,112,131)" stroke-width="1.51"></path><path d="M711,125L712,50L638,124Z" fill="rgb(166,94,120)" stroke="rgb(166,94,120)" stroke-width="1.51"></path><path d="M36,424L37,500L113,424Z" fill="rgb(153,53,97)" stroke="rgb(153,53,97)" stroke-width="1.51"></path><path d="M-39,425L36,424L-38,349Z" fill="rgb(128,38,93)" stroke="rgb(128,38,93)" stroke-width="1.51"></path><path d="M-113,424L-39,425L-38,349Z" fill="rgb(128,38,93)" stroke="rgb(128,38,93)" stroke-width="1.51"></path><path d="M336,501L563,500L487,499Z" fill="rgb(96,118,183)" stroke="rgb(96,118,183)" stroke-width="1.51"></path><path d="M487,499L563,500L562,426Z" fill="rgb(62,86,165)" stroke="rgb(62,86,165)" stroke-width="1.51"></path><path d="M562,426L638,425L636,349Z" fill="rgb(49,54,149)" stroke="rgb(49,54,149)" stroke-width="1.51"></path><path d="M637,499L638,425L562,426Z" fill="rgb(49,54,149)" stroke="rgb(49,54,149)" stroke-width="1.51"></path><path d="M712,50L711,-25L638,50Z" fill="rgb(143,47,95)" stroke="rgb(143,47,95)" stroke-width="1.51"></path><path d="M-113,-101L-113,-25L-39,-26Z" fill="rgb(165,0,38)" stroke="rgb(165,0,38)" stroke-width="1.51"></path><path d="M-113,49L-113,-25L-114,124Z" fill="rgb(193,39,42)" stroke="rgb(193,39,42)" stroke-width="1.51"></path><path d="M-113,274L-113,349L-38,349Z" fill="rgb(161,103,117)" stroke="rgb(161,103,117)" stroke-width="1.51"></path><path d="M-114,124L-113,349L-113,274Z" fill="rgb(203,135,134)" stroke="rgb(203,135,134)" stroke-width="1.51"></path><path d="M638,425L713,349L636,349Z" fill="rgb(57,74,159)" stroke="rgb(57,74,159)" stroke-width="1.51"></path><path d="M711,275L713,349L711,200Z" fill="rgb(119,133,192)" stroke="rgb(119,133,192)" stroke-width="1.51"></path><path d="M-39,425L-38,499L36,424Z" fill="rgb(128,38,93)" stroke="rgb(128,38,93)" stroke-width="1.51"></path><path d="M-112,500L-38,499L-39,425Z" fill="rgb(128,38,93)" stroke="rgb(128,38,93)" stroke-width="1.51"></path><path d="M638,425L713,424L713,349Z" fill="rgb(49,55,149)" stroke="rgb(49,55,149)" stroke-width="1.51"></path><path d="M563,500L637,499L562,426Z" fill="rgb(52,61,152)" stroke="rgb(52,61,152)" stroke-width="1.51"></path><path d="M712,50L711,-100L711,-25Z" fill="rgb(128,38,93)" stroke="rgb(128,38,93)" stroke-width="1.51"></path><path d="M711,-25L711,-100L637,-26Z" fill="rgb(128,38,93)" stroke="rgb(128,38,93)" stroke-width="1.51"></path><path d="M636,-100L711,-100L413,-101Z" fill="rgb(131,47,96)" stroke="rgb(131,47,96)" stroke-width="1.51"></path><path d="M-37,-101L-113,-101L-39,-26Z" fill="rgb(165,0,38)" stroke="rgb(165,0,38)" stroke-width="1.51"></path><path d="M-113,-25L-113,-101L-114,124Z" fill="rgb(165,0,38)" stroke="rgb(165,0,38)" stroke-width="1.51"></path><path d="M113,-102L-113,-101L-37,-101Z" fill="rgb(165,0,38)" stroke="rgb(165,0,38)" stroke-width="1.51"></path><path d="M-114,124L-113,424L-113,349Z" fill="rgb(176,117,124)" stroke="rgb(176,117,124)" stroke-width="1.51"></path><path d="M-113,349L-113,424L-38,349Z" fill="rgb(137,64,101)" stroke="rgb(137,64,101)" stroke-width="1.51"></path><path d="M713,499L713,424L638,425Z" fill="rgb(49,54,149)" stroke="rgb(49,54,149)" stroke-width="1.51"></path><path d="M-113,424L-112,500L-39,425Z" fill="rgb(128,38,93)" stroke="rgb(128,38,93)" stroke-width="1.51"></path><path d="M-38,499L-112,500L37,500Z" fill="rgb(128,38,93)" stroke="rgb(128,38,93)" stroke-width="1.51"></path><path d="M37,500L-112,500L113,501Z" fill="rgb(133,41,93)" stroke="rgb(133,41,93)" stroke-width="1.51"></path><path d="M637,499L713,499L638,425Z" fill="rgb(49,54,149)" stroke="rgb(49,54,149)" stroke-width="1.51"></path><path d="M563,500L713,499L637,499Z" fill="rgb(49,54,149)" stroke="rgb(49,54,149)" stroke-width="1.51"></path></svg>