<svg width="600" height="400" xmlns="http://www.w3.org/2000/svg"><path d="M318,175L350,144L245,115Z" fill="rgb(170,170,170)" stroke="rgb(170,170,170)" stroke-width="1.51"></path><path d="M350,144L322,73L245,115Z" fill="rgb(178,178,178)" stroke="rgb(178,178,178)" stroke-width="1.51"></path><path d="M322,73L293,37L245,115Z" fill="rgb(192,192,192)" stroke="rgb(192,192,192)" stroke-width="1.51"></path><path d="M245,115L210,179L318,175Z" fill="rgb(178,178,178)" stroke="rgb(178,178,178)" stroke-width="1.51"></path><path d="M293,37L203,95L245,115Z" fill="rgb(201,201,201)" stroke="rgb(201,201,201)" stroke-width="1.51"></path><path d="M203,95L210,179L245,115Z" fill="rgb(195,195,195)" stroke="rgb(195,195,195)" stroke-width="1.51"></path><path d="M350,144L406,112L322,73Z" fill="rgb(166,166,166)" stroke="rgb(166,166,166)" stroke-width="1.51"></path><path d="M322,73L334,-37L293,37Z" fill="rgb(194,194,194)" stroke="rgb(194,194,194)" stroke-width="1.51"></path><path d="M442,202L406,112L350,144Z" fill="rgb(144,144,144)" stroke="rgb(144,144,144)" stroke-width="1.51"></path><path d="M210,179L239,227L318,175Z" fill="rgb(164,164,164)" stroke="rgb(164,164,164)" stroke-width="1.51"></path><path d="M239,227L260,252L318,175Z" fill="rgb(150,150,150)" stroke="rgb(150,150,150)" stroke-width="1.51"></path><path d="M318,175L442,202L350,144Z" fill="rgb(143,143,143)" stroke="rgb(143,143,143)" stroke-width="1.51"></path><path d="M293,37L192,32L203,95Z" fill="rgb(212,212,212)" stroke="rgb(212,212,212)" stroke-width="1.51"></path><path d="M116,215L239,227L210,179Z" fill="rgb(174,174,174)" stroke="rgb(174,174,174)" stroke-width="1.51"></path><path d="M406,112L437,70L322,73Z" fill="rgb(165,165,165)" stroke="rgb(165,165,165)" stroke-width="1.51"></path><path d="M260,252L319,275L318,175Z" fill="rgb(138,138,138)" stroke="rgb(138,138,138)" stroke-width="1.51"></path><path d="M406,112L480,112L437,70Z" fill="rgb(149,149,149)" stroke="rgb(149,149,149)" stroke-width="1.51"></path><path d="M382,286L442,202L318,175Z" fill="rgb(123,123,123)" stroke="rgb(123,123,123)" stroke-width="1.51"></path><path d="M437,70L334,-37L322,73Z" fill="rgb(180,180,180)" stroke="rgb(180,180,180)" stroke-width="1.51"></path><path d="M293,37L235,-48L192,32Z" fill="rgb(216,216,216)" stroke="rgb(216,216,216)" stroke-width="1.51"></path><path d="M442,202L465,172L406,112Z" fill="rgb(132,132,132)" stroke="rgb(132,132,132)" stroke-width="1.51"></path><path d="M465,172L480,112L406,112Z" fill="rgb(138,138,138)" stroke="rgb(138,138,138)" stroke-width="1.51"></path><path d="M437,70L427,-40L334,-37Z" fill="rgb(176,176,176)" stroke="rgb(176,176,176)" stroke-width="1.51"></path><path d="M319,275L382,286L318,175Z" fill="rgb(124,124,124)" stroke="rgb(124,124,124)" stroke-width="1.51"></path><path d="M442,202L543,221L465,172Z" fill="rgb(104,104,104)" stroke="rgb(104,104,104)" stroke-width="1.51"></path><path d="M334,-37L235,-48L293,37Z" fill="rgb(204,204,204)" stroke="rgb(204,204,204)" stroke-width="1.51"></path><path d="M239,227L193,296L260,252Z" fill="rgb(147,147,147)" stroke="rgb(147,147,147)" stroke-width="1.51"></path><path d="M260,252L210,349L319,275Z" fill="rgb(127,127,127)" stroke="rgb(127,127,127)" stroke-width="1.51"></path><path d="M319,275L356,319L382,286Z" fill="rgb(105,105,105)" stroke="rgb(105,105,105)" stroke-width="1.51"></path><path d="M116,215L193,296L239,227Z" fill="rgb(160,160,160)" stroke="rgb(160,160,160)" stroke-width="1.51"></path><path d="M116,215L210,179L82,105Z" fill="rgb(198,198,198)" stroke="rgb(198,198,198)" stroke-width="1.51"></path><path d="M254,394L356,319L319,275Z" fill="rgb(98,98,98)" stroke="rgb(98,98,98)" stroke-width="1.51"></path><path d="M82,105L210,179L203,95Z" fill="rgb(206,206,206)" stroke="rgb(206,206,206)" stroke-width="1.51"></path><path d="M266,-126L213,-86L235,-48Z" fill="rgb(218,218,218)" stroke="rgb(218,218,218)" stroke-width="1.51"></path><path d="M500,38L427,-40L437,70Z" fill="rgb(159,159,159)" stroke="rgb(159,159,159)" stroke-width="1.51"></path><path d="M192,32L115,23L203,95Z" fill="rgb(224,224,224)" stroke="rgb(224,224,224)" stroke-width="1.51"></path><path d="M119,-29L115,23L192,32Z" fill="rgb(235,235,235)" stroke="rgb(235,235,235)" stroke-width="1.51"></path><path d="M235,-48L175,-46L192,32Z" fill="rgb(226,226,226)" stroke="rgb(226,226,226)" stroke-width="1.51"></path><path d="M115,23L82,105L203,95Z" fill="rgb(225,225,225)" stroke="rgb(225,225,225)" stroke-width="1.51"></path><path d="M480,112L500,38L437,70Z" fill="rgb(144,144,144)" stroke="rgb(144,144,144)" stroke-width="1.51"></path><path d="M591,114L500,38L480,112Z" fill="rgb(123,123,123)" stroke="rgb(123,123,123)" stroke-width="1.51"></path><path d="M35,222L111,244L116,215Z" fill="rgb(182,182,182)" stroke="rgb(182,182,182)" stroke-width="1.51"></path><path d="M116,215L111,244L193,296Z" fill="rgb(165,165,165)" stroke="rgb(165,165,165)" stroke-width="1.51"></path><path d="M307,-116L235,-48L334,-37Z" fill="rgb(203,203,203)" stroke="rgb(203,203,203)" stroke-width="1.51"></path><path d="M235,-48L213,-86L175,-46Z" fill="rgb(225,225,225)" stroke="rgb(225,225,225)" stroke-width="1.51"></path><path d="M136,-107L119,-29L175,-46Z" fill="rgb(237,237,237)" stroke="rgb(237,237,237)" stroke-width="1.51"></path><path d="M175,-46L119,-29L192,32Z" fill="rgb(233,233,233)" stroke="rgb(233,233,233)" stroke-width="1.51"></path><path d="M53,28L44,115L82,105Z" fill="rgb(234,234,234)" stroke="rgb(234,234,234)" stroke-width="1.51"></path><path d="M427,-40L386,-98L334,-37Z" fill="rgb(181,181,181)" stroke="rgb(181,181,181)" stroke-width="1.51"></path><path d="M495,-131L386,-98L427,-40Z" fill="rgb(168,168,168)" stroke="rgb(168,168,168)" stroke-width="1.51"></path><path d="M386,-98L307,-116L334,-37Z" fill="rgb(191,191,191)" stroke="rgb(191,191,191)" stroke-width="1.51"></path><path d="M98,353L210,349L193,296Z" fill="rgb(127,127,127)" stroke="rgb(127,127,127)" stroke-width="1.51"></path><path d="M193,296L210,349L260,252Z" fill="rgb(135,135,135)" stroke="rgb(135,135,135)" stroke-width="1.51"></path><path d="M465,172L543,221L480,112Z" fill="rgb(112,112,112)" stroke="rgb(112,112,112)" stroke-width="1.51"></path><path d="M382,286L479,288L442,202Z" fill="rgb(99,99,99)" stroke="rgb(99,99,99)" stroke-width="1.51"></path><path d="M421,356L479,288L382,286Z" fill="rgb(82,82,82)" stroke="rgb(82,82,82)" stroke-width="1.51"></path><path d="M307,-116L266,-126L235,-48Z" fill="rgb(210,210,210)" stroke="rgb(210,210,210)" stroke-width="1.51"></path><path d="M213,-86L136,-107L175,-46Z" fill="rgb(231,231,231)" stroke="rgb(231,231,231)" stroke-width="1.51"></path><path d="M495,-131L266,-126L307,-116Z" fill="rgb(187,187,187)" stroke="rgb(187,187,187)" stroke-width="1.51"></path><path d="M82,105L44,115L116,215Z" fill="rgb(215,215,215)" stroke="rgb(215,215,215)" stroke-width="1.51"></path><path d="M53,28L82,105L115,23Z" fill="rgb(238,238,238)" stroke="rgb(238,238,238)" stroke-width="1.51"></path><path d="M160,428L235,378L210,349Z" fill="rgb(99,99,99)" stroke="rgb(99,99,99)" stroke-width="1.51"></path><path d="M210,349L235,378L319,275Z" fill="rgb(109,109,109)" stroke="rgb(109,109,109)" stroke-width="1.51"></path><path d="M356,319L421,356L382,286Z" fill="rgb(86,86,86)" stroke="rgb(86,86,86)" stroke-width="1.51"></path><path d="M428,409L421,356L363,452Z" fill="rgb(52,52,52)" stroke="rgb(52,52,52)" stroke-width="1.51"></path><path d="M479,288L543,221L442,202Z" fill="rgb(90,90,90)" stroke="rgb(90,90,90)" stroke-width="1.51"></path><path d="M559,259L543,221L479,288Z" fill="rgb(72,72,72)" stroke="rgb(72,72,72)" stroke-width="1.51"></path><path d="M119,-29L53,28L115,23Z" fill="rgb(243,243,243)" stroke="rgb(243,243,243)" stroke-width="1.51"></path><path d="M500,38L510,-42L427,-40Z" fill="rgb(154,154,154)" stroke="rgb(154,154,154)" stroke-width="1.51"></path><path d="M558,-25L510,-42L500,38Z" fill="rgb(138,138,138)" stroke="rgb(138,138,138)" stroke-width="1.51"></path><path d="M235,378L254,394L319,275Z" fill="rgb(98,98,98)" stroke="rgb(98,98,98)" stroke-width="1.51"></path><path d="M421,356L471,345L479,288Z" fill="rgb(66,66,66)" stroke="rgb(66,66,66)" stroke-width="1.51"></path><path d="M428,409L471,345L421,356Z" fill="rgb(54,54,54)" stroke="rgb(54,54,54)" stroke-width="1.51"></path><path d="M44,115L35,222L116,215Z" fill="rgb(201,201,201)" stroke="rgb(201,201,201)" stroke-width="1.51"></path><path d="M111,244L98,353L193,296Z" fill="rgb(149,149,149)" stroke="rgb(149,149,149)" stroke-width="1.51"></path><path d="M235,378L160,428L254,394Z" fill="rgb(91,91,91)" stroke="rgb(91,91,91)" stroke-width="1.51"></path><path d="M119,-29L21,5L53,28Z" fill="rgb(248,248,248)" stroke="rgb(248,248,248)" stroke-width="1.51"></path><path d="M266,-126L136,-107L213,-86Z" fill="rgb(225,225,225)" stroke="rgb(225,225,225)" stroke-width="1.51"></path><path d="M35,222L54,280L111,244Z" fill="rgb(177,177,177)" stroke="rgb(177,177,177)" stroke-width="1.51"></path><path d="M543,221L591,114L480,112Z" fill="rgb(105,105,105)" stroke="rgb(105,105,105)" stroke-width="1.51"></path><path d="M651,202L648,131L591,114Z" fill="rgb(91,91,91)" stroke="rgb(91,91,91)" stroke-width="1.51"></path><path d="M555,347L559,259L479,288Z" fill="rgb(58,58,58)" stroke="rgb(58,58,58)" stroke-width="1.51"></path><path d="M510,-42L495,-131L427,-40Z" fill="rgb(154,154,154)" stroke="rgb(154,154,154)" stroke-width="1.51"></path><path d="M592,50L558,-25L500,38Z" fill="rgb(129,129,129)" stroke="rgb(129,129,129)" stroke-width="1.51"></path><path d="M591,114L592,50L500,38Z" fill="rgb(119,119,119)" stroke="rgb(119,119,119)" stroke-width="1.51"></path><path d="M44,115L-17,116L35,222Z" fill="rgb(219,219,219)" stroke="rgb(219,219,219)" stroke-width="1.51"></path><path d="M53,28L-17,116L44,115Z" fill="rgb(236,236,236)" stroke="rgb(236,236,236)" stroke-width="1.51"></path><path d="M21,-91L21,5L119,-29Z" fill="rgb(249,249,249)" stroke="rgb(249,249,249)" stroke-width="1.51"></path><path d="M54,280L98,353L111,244Z" fill="rgb(158,158,158)" stroke="rgb(158,158,158)" stroke-width="1.51"></path><path d="M471,345L555,347L479,288Z" fill="rgb(53,53,53)" stroke="rgb(53,53,53)" stroke-width="1.51"></path><path d="M363,452L421,356L356,319Z" fill="rgb(65,65,65)" stroke="rgb(65,65,65)" stroke-width="1.51"></path><path d="M-53,72L-17,116L53,28Z" fill="rgb(242,242,242)" stroke="rgb(242,242,242)" stroke-width="1.51"></path><path d="M-22,272L48,342L54,280Z" fill="rgb(162,162,162)" stroke="rgb(162,162,162)" stroke-width="1.51"></path><path d="M386,-98L495,-131L307,-116Z" fill="rgb(178,178,178)" stroke="rgb(178,178,178)" stroke-width="1.51"></path><path d="M560,-83L495,-131L510,-42Z" fill="rgb(139,139,139)" stroke="rgb(139,139,139)" stroke-width="1.51"></path><path d="M558,-25L560,-83L510,-42Z" fill="rgb(133,133,133)" stroke="rgb(133,133,133)" stroke-width="1.51"></path><path d="M661,-48L560,-83L558,-25Z" fill="rgb(121,121,121)" stroke="rgb(121,121,121)" stroke-width="1.51"></path><path d="M54,280L48,342L98,353Z" fill="rgb(145,145,145)" stroke="rgb(145,145,145)" stroke-width="1.51"></path><path d="M337,493L363,452L286,499Z" fill="rgb(67,67,67)" stroke="rgb(67,67,67)" stroke-width="1.51"></path><path d="M-22,272L54,280L35,222Z" fill="rgb(178,178,178)" stroke="rgb(178,178,178)" stroke-width="1.51"></path><path d="M160,428L210,349L98,353Z" fill="rgb(110,110,110)" stroke="rgb(110,110,110)" stroke-width="1.51"></path><path d="M254,394L363,452L356,319Z" fill="rgb(72,72,72)" stroke="rgb(72,72,72)" stroke-width="1.51"></path><path d="M97,453L160,428L98,353Z" fill="rgb(107,107,107)" stroke="rgb(107,107,107)" stroke-width="1.51"></path><path d="M648,131L592,50L591,114Z" fill="rgb(103,103,103)" stroke="rgb(103,103,103)" stroke-width="1.51"></path><path d="M533,423L555,347L471,345Z" fill="rgb(32,32,32)" stroke="rgb(32,32,32)" stroke-width="1.51"></path><path d="M465,439L471,345L428,409Z" fill="rgb(42,42,42)" stroke="rgb(42,42,42)" stroke-width="1.51"></path><path d="M592,50L633,27L558,-25Z" fill="rgb(118,118,118)" stroke="rgb(118,118,118)" stroke-width="1.51"></path><path d="M648,131L633,27L592,50Z" fill="rgb(108,108,108)" stroke="rgb(108,108,108)" stroke-width="1.51"></path><path d="M591,114L543,221L651,202Z" fill="rgb(81,81,81)" stroke="rgb(81,81,81)" stroke-width="1.51"></path><path d="M651,202L543,221L559,259Z" fill="rgb(68,68,68)" stroke="rgb(68,68,68)" stroke-width="1.51"></path><path d="M136,-107L21,-91L119,-29Z" fill="rgb(245,245,245)" stroke="rgb(245,245,245)" stroke-width="1.51"></path><path d="M21,5L-53,72L53,28Z" fill="rgb(249,249,249)" stroke="rgb(249,249,249)" stroke-width="1.51"></path><path d="M-60,-107L21,-91L136,-107Z" fill="rgb(252,252,252)" stroke="rgb(252,252,252)" stroke-width="1.51"></path><path d="M-65,198L-22,272L35,222Z" fill="rgb(189,189,189)" stroke="rgb(189,189,189)" stroke-width="1.51"></path><path d="M-17,116L-65,198L35,222Z" fill="rgb(210,210,210)" stroke="rgb(210,210,210)" stroke-width="1.51"></path><path d="M21,-91L-29,-11L21,5Z" fill="rgb(254,254,254)" stroke="rgb(254,254,254)" stroke-width="1.51"></path><path d="M-29,-11L-53,72L21,5Z" fill="rgb(251,251,251)" stroke="rgb(251,251,251)" stroke-width="1.51"></path><path d="M407,481L465,439L428,409Z" fill="rgb(46,46,46)" stroke="rgb(46,46,46)" stroke-width="1.51"></path><path d="M555,347L616,293L559,259Z" fill="rgb(48,48,48)" stroke="rgb(48,48,48)" stroke-width="1.51"></path><path d="M657,352L616,293L555,347Z" fill="rgb(30,30,30)" stroke="rgb(30,30,30)" stroke-width="1.51"></path><path d="M616,293L651,202L559,259Z" fill="rgb(57,57,57)" stroke="rgb(57,57,57)" stroke-width="1.51"></path><path d="M286,499L363,452L254,394Z" fill="rgb(73,73,73)" stroke="rgb(73,73,73)" stroke-width="1.51"></path><path d="M363,452L407,481L428,409Z" fill="rgb(53,53,53)" stroke="rgb(53,53,53)" stroke-width="1.51"></path><path d="M-125,117L-65,198L-17,116Z" fill="rgb(224,224,224)" stroke="rgb(224,224,224)" stroke-width="1.51"></path><path d="M337,493L407,481L363,452Z" fill="rgb(59,59,59)" stroke="rgb(59,59,59)" stroke-width="1.51"></path><path d="M162,488L286,499L254,394Z" fill="rgb(88,88,88)" stroke="rgb(88,88,88)" stroke-width="1.51"></path><path d="M495,510L533,423L465,439Z" fill="rgb(30,30,30)" stroke="rgb(30,30,30)" stroke-width="1.51"></path><path d="M465,439L533,423L471,345Z" fill="rgb(31,31,31)" stroke="rgb(31,31,31)" stroke-width="1.51"></path><path d="M160,428L162,488L254,394Z" fill="rgb(95,95,95)" stroke="rgb(95,95,95)" stroke-width="1.51"></path><path d="M48,342L44,411L98,353Z" fill="rgb(125,125,125)" stroke="rgb(125,125,125)" stroke-width="1.51"></path><path d="M-51,405L44,411L48,342Z" fill="rgb(123,123,123)" stroke="rgb(123,123,123)" stroke-width="1.51"></path><path d="M-65,340L48,342L-22,272Z" fill="rgb(154,154,154)" stroke="rgb(154,154,154)" stroke-width="1.51"></path><path d="M44,411L97,453L98,353Z" fill="rgb(112,112,112)" stroke="rgb(112,112,112)" stroke-width="1.51"></path><path d="M97,453L162,488L160,428Z" fill="rgb(104,104,104)" stroke="rgb(104,104,104)" stroke-width="1.51"></path><path d="M648,131L705,101L633,27Z" fill="rgb(105,105,105)" stroke="rgb(105,105,105)" stroke-width="1.51"></path><path d="M651,202L686,185L648,131Z" fill="rgb(82,82,82)" stroke="rgb(82,82,82)" stroke-width="1.51"></path><path d="M741,293L686,185L651,202Z" fill="rgb(65,65,65)" stroke="rgb(65,65,65)" stroke-width="1.51"></path><path d="M741,293L651,202L616,293Z" fill="rgb(54,54,54)" stroke="rgb(54,54,54)" stroke-width="1.51"></path><path d="M-53,72L-125,117L-17,116Z" fill="rgb(235,235,235)" stroke="rgb(235,235,235)" stroke-width="1.51"></path><path d="M-29,-11L-88,53L-53,72Z" fill="rgb(249,249,249)" stroke="rgb(249,249,249)" stroke-width="1.51"></path><path d="M-108,-45L-88,53L-29,-11Z" fill="rgb(255,255,255)" stroke="rgb(255,255,255)" stroke-width="1.51"></path><path d="M633,27L661,-48L558,-25Z" fill="rgb(119,119,119)" stroke="rgb(119,119,119)" stroke-width="1.51"></path><path d="M560,-83L700,-125L495,-131Z" fill="rgb(123,123,123)" stroke="rgb(123,123,123)" stroke-width="1.51"></path><path d="M709,31L661,-48L633,27Z" fill="rgb(118,118,118)" stroke="rgb(118,118,118)" stroke-width="1.51"></path><path d="M686,185L705,101L648,131Z" fill="rgb(93,93,93)" stroke="rgb(93,93,93)" stroke-width="1.51"></path><path d="M661,-48L661,-74L560,-83Z" fill="rgb(119,119,119)" stroke="rgb(119,119,119)" stroke-width="1.51"></path><path d="M691,-47L661,-74L661,-48Z" fill="rgb(119,119,119)" stroke="rgb(119,119,119)" stroke-width="1.51"></path><path d="M-65,198L-105,225L-22,272Z" fill="rgb(189,189,189)" stroke="rgb(189,189,189)" stroke-width="1.51"></path><path d="M-125,117L-105,225L-65,198Z" fill="rgb(209,209,209)" stroke="rgb(209,209,209)" stroke-width="1.51"></path><path d="M97,453L86,484L162,488Z" fill="rgb(107,107,107)" stroke="rgb(107,107,107)" stroke-width="1.51"></path><path d="M162,488L13,503L286,499Z" fill="rgb(102,102,102)" stroke="rgb(102,102,102)" stroke-width="1.51"></path><path d="M44,411L86,484L97,453Z" fill="rgb(112,112,112)" stroke="rgb(112,112,112)" stroke-width="1.51"></path><path d="M13,503L86,484L44,411Z" fill="rgb(115,115,115)" stroke="rgb(115,115,115)" stroke-width="1.51"></path><path d="M705,101L709,31L633,27Z" fill="rgb(112,112,112)" stroke="rgb(112,112,112)" stroke-width="1.51"></path><path d="M-114,250L-65,340L-22,272Z" fill="rgb(169,169,169)" stroke="rgb(169,169,169)" stroke-width="1.51"></path><path d="M-88,53L-125,117L-53,72Z" fill="rgb(240,240,240)" stroke="rgb(240,240,240)" stroke-width="1.51"></path><path d="M627,442L657,352L555,347Z" fill="rgb(11,11,11)" stroke="rgb(11,11,11)" stroke-width="1.51"></path><path d="M686,185L741,293L705,101Z" fill="rgb(75,75,75)" stroke="rgb(75,75,75)" stroke-width="1.51"></path><path d="M21,-91L-60,-107L-29,-11Z" fill="rgb(255,255,255)" stroke="rgb(255,255,255)" stroke-width="1.51"></path><path d="M-88,53L-108,-45L-125,117Z" fill="rgb(248,248,248)" stroke="rgb(248,248,248)" stroke-width="1.51"></path><path d="M266,-126L-60,-107L136,-107Z" fill="rgb(241,241,241)" stroke="rgb(241,241,241)" stroke-width="1.51"></path><path d="M709,31L691,-47L661,-48Z" fill="rgb(119,119,119)" stroke="rgb(119,119,119)" stroke-width="1.51"></path><path d="M-105,225L-114,250L-22,272Z" fill="rgb(183,183,183)" stroke="rgb(183,183,183)" stroke-width="1.51"></path><path d="M-125,117L-114,250L-105,225Z" fill="rgb(202,202,202)" stroke="rgb(202,202,202)" stroke-width="1.51"></path><path d="M627,442L685,352L657,352Z" fill="rgb(10,10,10)" stroke="rgb(10,10,10)" stroke-width="1.51"></path><path d="M407,481L495,510L465,439Z" fill="rgb(41,41,41)" stroke="rgb(41,41,41)" stroke-width="1.51"></path><path d="M337,493L495,510L407,481Z" fill="rgb(50,50,50)" stroke="rgb(50,50,50)" stroke-width="1.51"></path><path d="M286,499L495,510L337,493Z" fill="rgb(58,58,58)" stroke="rgb(58,58,58)" stroke-width="1.51"></path><path d="M-60,-107L-108,-45L-29,-11Z" fill="rgb(255,255,255)" stroke="rgb(255,255,255)" stroke-width="1.51"></path><path d="M657,352L685,352L616,293Z" fill="rgb(29,29,29)" stroke="rgb(29,29,29)" stroke-width="1.51"></path><path d="M627,442L555,347L533,423Z" fill="rgb(10,10,10)" stroke="rgb(10,10,10)" stroke-width="1.51"></path><path d="M-65,340L-51,405L48,342Z" fill="rgb(133,133,133)" stroke="rgb(133,133,133)" stroke-width="1.51"></path><path d="M-107,362L-51,405L-65,340Z" fill="rgb(131,131,131)" stroke="rgb(131,131,131)" stroke-width="1.51"></path><path d="M495,510L565,489L533,423Z" fill="rgb(21,21,21)" stroke="rgb(21,21,21)" stroke-width="1.51"></path><path d="M565,489L627,442L533,423Z" fill="rgb(9,9,9)" stroke="rgb(9,9,9)" stroke-width="1.51"></path><path d="M-119,454L-107,362L-130,494Z" fill="rgb(119,119,119)" stroke="rgb(119,119,119)" stroke-width="1.51"></path><path d="M-114,250L-107,362L-65,340Z" fill="rgb(155,155,155)" stroke="rgb(155,155,155)" stroke-width="1.51"></path><path d="M709,31L700,-125L691,-47Z" fill="rgb(119,119,119)" stroke="rgb(119,119,119)" stroke-width="1.51"></path><path d="M691,-47L700,-125L661,-74Z" fill="rgb(119,119,119)" stroke="rgb(119,119,119)" stroke-width="1.51"></path><path d="M661,-74L700,-125L560,-83Z" fill="rgb(119,119,119)" stroke="rgb(119,119,119)" stroke-width="1.51"></path><path d="M738,435L741,293L685,352Z" fill="rgb(19,19,19)" stroke="rgb(19,19,19)" stroke-width="1.51"></path><path d="M685,352L741,293L616,293Z" fill="rgb(37,37,37)" stroke="rgb(37,37,37)" stroke-width="1.51"></path><path d="M705,101L741,293L709,31Z" fill="rgb(92,92,92)" stroke="rgb(92,92,92)" stroke-width="1.51"></path><path d="M709,31L741,293L700,-125Z" fill="rgb(109,109,109)" stroke="rgb(109,109,109)" stroke-width="1.51"></path><path d="M-57,518L13,503L-51,405Z" fill="rgb(119,119,119)" stroke="rgb(119,119,119)" stroke-width="1.51"></path><path d="M-51,405L13,503L44,411Z" fill="rgb(119,119,119)" stroke="rgb(119,119,119)" stroke-width="1.51"></path><path d="M86,484L13,503L162,488Z" fill="rgb(111,111,111)" stroke="rgb(111,111,111)" stroke-width="1.51"></path><path d="M286,499L-57,518L495,510Z" fill="rgb(86,86,86)" stroke="rgb(86,86,86)" stroke-width="1.51"></path><path d="M266,-126L-115,-111L-60,-107Z" fill="rgb(252,252,252)" stroke="rgb(252,252,252)" stroke-width="1.51"></path><path d="M-60,-107L-115,-111L-108,-45Z" fill="rgb(255,255,255)" stroke="rgb(255,255,255)" stroke-width="1.51"></path><path d="M-108,-45L-115,-111L-125,117Z" fill="rgb(255,255,255)" stroke="rgb(255,255,255)" stroke-width="1.51"></path><path d="M627,442L738,435L685,352Z" fill="rgb(0,0,0)" stroke="rgb(0,0,0)" stroke-width="1.51"></path><path d="M565,489L643,473L627,442Z" fill="rgb(0,0,0)" stroke="rgb(0,0,0)" stroke-width="1.51"></path><path d="M717,488L643,473L565,489Z" fill="rgb(0,0,0)" stroke="rgb(0,0,0)" stroke-width="1.51"></path><path d="M-119,454L-57,518L-51,405Z" fill="rgb(119,119,119)" stroke="rgb(119,119,119)" stroke-width="1.51"></path><path d="M13,503L-57,518L286,499Z" fill="rgb(112,112,112)" stroke="rgb(112,112,112)" stroke-width="1.51"></path><path d="M-107,362L-119,454L-51,405Z" fill="rgb(119,119,119)" stroke="rgb(119,119,119)" stroke-width="1.51"></path><path d="M-130,494L-107,362L-114,250Z" fill="rgb(131,131,131)" stroke="rgb(131,131,131)" stroke-width="1.51"></path><path d="M643,473L738,435L627,442Z" fill="rgb(0,0,0)" stroke="rgb(0,0,0)" stroke-width="1.51"></path><path d="M643,473L717,488L738,435Z" fill="rgb(0,0,0)" stroke="rgb(0,0,0)" stroke-width="1.51"></path><path d="M495,510L717,488L565,489Z" fill="rgb(2,3,2)" stroke="rgb(2,3,2)" stroke-width="1.51"></path><path d="M-119,454L-130,494L-57,518Z" fill="rgb(119,119,119)" stroke="rgb(119,119,119)" stroke-width="1.51"></path><path d="M-125,117L-130,494L-114,250Z" fill="rgb(169,169,169)" stroke="rgb(169,169,169)" stroke-width="1.51"></path></svg>