<svg width="600" height="400" xmlns="http://www.w3.org/2000/svg"><path d="M267,189L244,124L195,188Z" fill="rgb(255,224,142)" stroke="rgb(255,224,142)" stroke-width="1.51"></path><path d="M244,124L179,112L195,188Z" fill="rgb(254,199,117)" stroke="rgb(254,199,117)" stroke-width="1.51"></path><path d="M244,124L273,68L179,112Z" fill="rgb(254,182,108)" stroke="rgb(254,182,108)" stroke-width="1.51"></path><path d="M351,116L273,68L244,124Z" fill="rgb(255,199,132)" stroke="rgb(255,199,132)" stroke-width="1.51"></path><path d="M179,112L125,144L195,188Z" fill="rgb(254,185,108)" stroke="rgb(254,185,108)" stroke-width="1.51"></path><path d="M267,189L351,116L244,124Z" fill="rgb(255,225,150)" stroke="rgb(255,225,150)" stroke-width="1.51"></path><path d="M331,251L337,202L267,189Z" fill="rgb(245,251,177)" stroke="rgb(245,251,177)" stroke-width="1.51"></path><path d="M195,188L257,278L267,189Z" fill="rgb(247,236,153)" stroke="rgb(247,236,153)" stroke-width="1.51"></path><path d="M108,186L199,276L195,188Z" fill="rgb(249,205,129)" stroke="rgb(249,205,129)" stroke-width="1.51"></path><path d="M199,276L257,278L195,188Z" fill="rgb(232,221,128)" stroke="rgb(232,221,128)" stroke-width="1.51"></path><path d="M125,144L108,186L195,188Z" fill="rgb(255,185,116)" stroke="rgb(255,185,116)" stroke-width="1.51"></path><path d="M337,202L351,116L267,189Z" fill="rgb(250,241,163)" stroke="rgb(250,241,163)" stroke-width="1.51"></path><path d="M337,202L413,140L351,116Z" fill="rgb(234,226,133)" stroke="rgb(234,226,133)" stroke-width="1.51"></path><path d="M257,278L331,251L267,189Z" fill="rgb(237,243,159)" stroke="rgb(237,243,159)" stroke-width="1.51"></path><path d="M179,112L127,31L125,144Z" fill="rgb(248,136,79)" stroke="rgb(248,136,79)" stroke-width="1.51"></path><path d="M273,68L181,37L179,112Z" fill="rgb(249,152,89)" stroke="rgb(249,152,89)" stroke-width="1.51"></path><path d="M273,68L204,-25L181,37Z" fill="rgb(230,130,79)" stroke="rgb(230,130,79)" stroke-width="1.51"></path><path d="M351,116L316,34L273,68Z" fill="rgb(250,178,118)" stroke="rgb(250,178,118)" stroke-width="1.51"></path><path d="M181,37L127,31L179,112Z" fill="rgb(241,120,70)" stroke="rgb(241,120,70)" stroke-width="1.51"></path><path d="M25,119L39,213L108,186Z" fill="rgb(241,149,94)" stroke="rgb(241,149,94)" stroke-width="1.51"></path><path d="M204,-25L127,31L181,37Z" fill="rgb(219,102,64)" stroke="rgb(219,102,64)" stroke-width="1.51"></path><path d="M108,186L102,286L199,276Z" fill="rgb(232,184,102)" stroke="rgb(232,184,102)" stroke-width="1.51"></path><path d="M199,276L249,352L257,278Z" fill="rgb(196,212,118)" stroke="rgb(196,212,118)" stroke-width="1.51"></path><path d="M418,204L413,140L337,202Z" fill="rgb(224,235,146)" stroke="rgb(224,235,146)" stroke-width="1.51"></path><path d="M351,116L396,57L316,34Z" fill="rgb(236,172,100)" stroke="rgb(236,172,100)" stroke-width="1.51"></path><path d="M165,370L249,352L199,276Z" fill="rgb(177,188,103)" stroke="rgb(177,188,103)" stroke-width="1.51"></path><path d="M257,278L342,363L331,251Z" fill="rgb(195,229,142)" stroke="rgb(195,229,142)" stroke-width="1.51"></path><path d="M396,273L337,202L331,251Z" fill="rgb(217,239,141)" stroke="rgb(217,239,141)" stroke-width="1.51"></path><path d="M396,273L418,204L337,202Z" fill="rgb(214,238,142)" stroke="rgb(214,238,142)" stroke-width="1.51"></path><path d="M279,-25L204,-25L273,68Z" fill="rgb(219,134,90)" stroke="rgb(219,134,90)" stroke-width="1.51"></path><path d="M316,34L279,-25L273,68Z" fill="rgb(234,151,106)" stroke="rgb(234,151,106)" stroke-width="1.51"></path><path d="M318,-27L279,-25L316,34Z" fill="rgb(217,143,107)" stroke="rgb(217,143,107)" stroke-width="1.51"></path><path d="M393,329L396,273L331,251Z" fill="rgb(183,224,118)" stroke="rgb(183,224,118)" stroke-width="1.51"></path><path d="M413,140L396,57L351,116Z" fill="rgb(227,192,104)" stroke="rgb(227,192,104)" stroke-width="1.51"></path><path d="M108,186L39,213L102,286Z" fill="rgb(236,165,99)" stroke="rgb(236,165,99)" stroke-width="1.51"></path><path d="M25,119L108,186L125,144Z" fill="rgb(245,148,88)" stroke="rgb(245,148,88)" stroke-width="1.51"></path><path d="M279,-25L197,-109L204,-25Z" fill="rgb(213,123,81)" stroke="rgb(213,123,81)" stroke-width="1.51"></path><path d="M396,57L318,-27L316,34Z" fill="rgb(219,148,93)" stroke="rgb(219,148,93)" stroke-width="1.51"></path><path d="M46,48L25,119L125,144Z" fill="rgb(235,106,62)" stroke="rgb(235,106,62)" stroke-width="1.51"></path><path d="M92,368L165,370L102,286Z" fill="rgb(174,147,77)" stroke="rgb(174,147,77)" stroke-width="1.51"></path><path d="M102,286L165,370L199,276Z" fill="rgb(194,176,92)" stroke="rgb(194,176,92)" stroke-width="1.51"></path><path d="M39,213L32,255L102,286Z" fill="rgb(218,151,82)" stroke="rgb(218,151,82)" stroke-width="1.51"></path><path d="M-41,212L32,255L39,213Z" fill="rgb(210,142,93)" stroke="rgb(210,142,93)" stroke-width="1.51"></path><path d="M127,31L46,48L125,144Z" fill="rgb(237,96,60)" stroke="rgb(237,96,60)" stroke-width="1.51"></path><path d="M94,-33L46,48L127,31Z" fill="rgb(206,55,45)" stroke="rgb(206,55,45)" stroke-width="1.51"></path><path d="M281,413L342,363L249,352Z" fill="rgb(148,191,124)" stroke="rgb(148,191,124)" stroke-width="1.51"></path><path d="M249,352L342,363L257,278Z" fill="rgb(174,213,134)" stroke="rgb(174,213,134)" stroke-width="1.51"></path><path d="M491,278L508,197L418,204Z" fill="rgb(172,219,128)" stroke="rgb(172,219,128)" stroke-width="1.51"></path><path d="M342,363L393,329L331,251Z" fill="rgb(167,217,121)" stroke="rgb(167,217,121)" stroke-width="1.51"></path><path d="M116,-88L94,-33L204,-25Z" fill="rgb(206,78,56)" stroke="rgb(206,78,56)" stroke-width="1.51"></path><path d="M204,-25L94,-33L127,31Z" fill="rgb(207,80,57)" stroke="rgb(207,80,57)" stroke-width="1.51"></path><path d="M22,339L92,368L102,286Z" fill="rgb(173,134,67)" stroke="rgb(173,134,67)" stroke-width="1.51"></path><path d="M342,363L430,403L393,329Z" fill="rgb(120,187,99)" stroke="rgb(120,187,99)" stroke-width="1.51"></path><path d="M186,419L281,413L249,352Z" fill="rgb(143,166,96)" stroke="rgb(143,166,96)" stroke-width="1.51"></path><path d="M186,419L249,352L165,370Z" fill="rgb(151,161,88)" stroke="rgb(151,161,88)" stroke-width="1.51"></path><path d="M117,414L186,419L165,370Z" fill="rgb(145,131,69)" stroke="rgb(145,131,69)" stroke-width="1.51"></path><path d="M25,119L-29,122L39,213Z" fill="rgb(219,126,81)" stroke="rgb(219,126,81)" stroke-width="1.51"></path><path d="M-27,65L-29,122L25,119Z" fill="rgb(208,87,60)" stroke="rgb(208,87,60)" stroke-width="1.51"></path><path d="M-27,65L25,119L46,48Z" fill="rgb(209,67,52)" stroke="rgb(209,67,52)" stroke-width="1.51"></path><path d="M281,413L348,406L342,363Z" fill="rgb(133,179,112)" stroke="rgb(133,179,112)" stroke-width="1.51"></path><path d="M423,-48L335,-90L318,-27Z" fill="rgb(201,138,85)" stroke="rgb(201,138,85)" stroke-width="1.51"></path><path d="M413,140L492,104L396,57Z" fill="rgb(208,180,93)" stroke="rgb(208,180,93)" stroke-width="1.51"></path><path d="M508,197L492,104L413,140Z" fill="rgb(188,202,112)" stroke="rgb(188,202,112)" stroke-width="1.51"></path><path d="M508,197L413,140L418,204Z" fill="rgb(198,223,134)" stroke="rgb(198,223,134)" stroke-width="1.51"></path><path d="M94,-33L36,-22L46,48Z" fill="rgb(189,28,39)" stroke="rgb(189,28,39)" stroke-width="1.51"></path><path d="M92,368L117,414L165,370Z" fill="rgb(152,126,66)" stroke="rgb(152,126,66)" stroke-width="1.51"></path><path d="M32,255L22,339L102,286Z" fill="rgb(191,139,69)" stroke="rgb(191,139,69)" stroke-width="1.51"></path><path d="M-28,264L22,339L32,255Z" fill="rgb(177,130,69)" stroke="rgb(177,130,69)" stroke-width="1.51"></path><path d="M37,405L117,414L92,368Z" fill="rgb(141,103,53)" stroke="rgb(141,103,53)" stroke-width="1.51"></path><path d="M318,-27L335,-90L279,-25Z" fill="rgb(215,143,105)" stroke="rgb(215,143,105)" stroke-width="1.51"></path><path d="M94,-33L59,-91L36,-22Z" fill="rgb(190,31,39)" stroke="rgb(190,31,39)" stroke-width="1.51"></path><path d="M423,-48L318,-27L396,57Z" fill="rgb(193,135,80)" stroke="rgb(193,135,80)" stroke-width="1.51"></path><path d="M277,-119L197,-109L279,-25Z" fill="rgb(215,131,90)" stroke="rgb(215,131,90)" stroke-width="1.51"></path><path d="M-29,122L-41,212L39,213Z" fill="rgb(216,137,99)" stroke="rgb(216,137,99)" stroke-width="1.51"></path><path d="M-29,122L-107,120L-41,212Z" fill="rgb(213,123,81)" stroke="rgb(213,123,81)" stroke-width="1.51"></path><path d="M36,-22L-27,65L46,48Z" fill="rgb(191,30,39)" stroke="rgb(191,30,39)" stroke-width="1.51"></path><path d="M-41,212L-28,264L32,255Z" fill="rgb(198,137,84)" stroke="rgb(198,137,84)" stroke-width="1.51"></path><path d="M197,-109L116,-88L204,-25Z" fill="rgb(210,98,64)" stroke="rgb(210,98,64)" stroke-width="1.51"></path><path d="M491,278L418,204L396,273Z" fill="rgb(177,222,116)" stroke="rgb(177,222,116)" stroke-width="1.51"></path><path d="M491,278L396,273L393,329Z" fill="rgb(153,211,105)" stroke="rgb(153,211,105)" stroke-width="1.51"></path><path d="M496,349L491,278L393,329Z" fill="rgb(115,194,100)" stroke="rgb(115,194,100)" stroke-width="1.51"></path><path d="M492,104L497,66L396,57Z" fill="rgb(195,158,82)" stroke="rgb(195,158,82)" stroke-width="1.51"></path><path d="M563,114L497,66L492,104Z" fill="rgb(171,156,82)" stroke="rgb(171,156,82)" stroke-width="1.51"></path><path d="M497,66L423,-48L396,57Z" fill="rgb(185,136,69)" stroke="rgb(185,136,69)" stroke-width="1.51"></path><path d="M335,-90L277,-119L279,-25Z" fill="rgb(218,143,108)" stroke="rgb(218,143,108)" stroke-width="1.51"></path><path d="M464,-90L277,-119L335,-90Z" fill="rgb(201,138,85)" stroke="rgb(201,138,85)" stroke-width="1.51"></path><path d="M464,-90L417,-80L423,-48Z" fill="rgb(171,127,69)" stroke="rgb(171,127,69)" stroke-width="1.51"></path><path d="M423,-48L417,-80L335,-90Z" fill="rgb(188,133,77)" stroke="rgb(188,133,77)" stroke-width="1.51"></path><path d="M116,-88L59,-91L94,-33Z" fill="rgb(197,49,46)" stroke="rgb(197,49,46)" stroke-width="1.51"></path><path d="M36,-22L-56,-17L-27,65Z" fill="rgb(170,7,38)" stroke="rgb(170,7,38)" stroke-width="1.51"></path><path d="M197,-109L59,-91L116,-88Z" fill="rgb(205,68,53)" stroke="rgb(205,68,53)" stroke-width="1.51"></path><path d="M22,339L37,405L92,368Z" fill="rgb(144,108,55)" stroke="rgb(144,108,55)" stroke-width="1.51"></path><path d="M-29,442L37,405L22,339Z" fill="rgb(117,83,47)" stroke="rgb(117,83,47)" stroke-width="1.51"></path><path d="M408,477L430,403L348,406Z" fill="rgb(105,163,86)" stroke="rgb(105,163,86)" stroke-width="1.51"></path><path d="M348,406L430,403L342,363Z" fill="rgb(118,173,95)" stroke="rgb(118,173,95)" stroke-width="1.51"></path><path d="M186,419L187,484L281,413Z" fill="rgb(143,155,88)" stroke="rgb(143,155,88)" stroke-width="1.51"></path><path d="M281,413L328,499L348,406Z" fill="rgb(133,175,112)" stroke="rgb(133,175,112)" stroke-width="1.51"></path><path d="M117,414L187,484L186,419Z" fill="rgb(145,134,71)" stroke="rgb(145,134,71)" stroke-width="1.51"></path><path d="M95,506L187,484L117,414Z" fill="rgb(146,120,64)" stroke="rgb(146,120,64)" stroke-width="1.51"></path><path d="M430,403L496,349L393,329Z" fill="rgb(96,180,92)" stroke="rgb(96,180,92)" stroke-width="1.51"></path><path d="M575,189L563,114L508,197Z" fill="rgb(154,188,111)" stroke="rgb(154,188,111)" stroke-width="1.51"></path><path d="M-124,219L-28,264L-41,212Z" fill="rgb(204,139,90)" stroke="rgb(204,139,90)" stroke-width="1.51"></path><path d="M-91,338L-57,332L-127,284Z" fill="rgb(154,118,66)" stroke="rgb(154,118,66)" stroke-width="1.51"></path><path d="M-28,264L-57,332L22,339Z" fill="rgb(157,120,67)" stroke="rgb(157,120,67)" stroke-width="1.51"></path><path d="M497,66L494,-43L423,-48Z" fill="rgb(156,120,67)" stroke="rgb(156,120,67)" stroke-width="1.51"></path><path d="M569,-2L494,-43L497,66Z" fill="rgb(141,110,60)" stroke="rgb(141,110,60)" stroke-width="1.51"></path><path d="M508,197L563,114L492,104Z" fill="rgb(167,183,101)" stroke="rgb(167,183,101)" stroke-width="1.51"></path><path d="M575,189L508,197L579,262Z" fill="rgb(142,195,120)" stroke="rgb(142,195,120)" stroke-width="1.51"></path><path d="M187,484L267,501L281,413Z" fill="rgb(141,165,97)" stroke="rgb(141,165,97)" stroke-width="1.51"></path><path d="M-52,-97L-56,-17L36,-22Z" fill="rgb(165,0,38)" stroke="rgb(165,0,38)" stroke-width="1.51"></path><path d="M-27,65L-107,120L-29,122Z" fill="rgb(208,87,60)" stroke="rgb(208,87,60)" stroke-width="1.51"></path><path d="M-107,57L-107,120L-27,65Z" fill="rgb(204,66,52)" stroke="rgb(204,66,52)" stroke-width="1.51"></path><path d="M579,262L508,197L491,278Z" fill="rgb(137,198,108)" stroke="rgb(137,198,108)" stroke-width="1.51"></path><path d="M494,-43L464,-90L423,-48Z" fill="rgb(160,122,67)" stroke="rgb(160,122,67)" stroke-width="1.51"></path><path d="M417,-80L464,-90L335,-90Z" fill="rgb(183,131,73)" stroke="rgb(183,131,73)" stroke-width="1.51"></path><path d="M267,501L328,499L281,413Z" fill="rgb(139,176,116)" stroke="rgb(139,176,116)" stroke-width="1.51"></path><path d="M430,403L499,407L496,349Z" fill="rgb(66,155,81)" stroke="rgb(66,155,81)" stroke-width="1.51"></path><path d="M-56,-17L-107,57L-27,65Z" fill="rgb(187,25,39)" stroke="rgb(187,25,39)" stroke-width="1.51"></path><path d="M494,-43L572,-77L464,-90Z" fill="rgb(140,110,62)" stroke="rgb(140,110,62)" stroke-width="1.51"></path><path d="M563,114L574,60L497,66Z" fill="rgb(161,137,72)" stroke="rgb(161,137,72)" stroke-width="1.51"></path><path d="M625,118L574,60L563,114Z" fill="rgb(149,131,70)" stroke="rgb(149,131,70)" stroke-width="1.51"></path><path d="M328,499L408,477L348,406Z" fill="rgb(120,170,95)" stroke="rgb(120,170,95)" stroke-width="1.51"></path><path d="M-107,57L-124,219L-107,120Z" fill="rgb(212,110,72)" stroke="rgb(212,110,72)" stroke-width="1.51"></path><path d="M-107,120L-124,219L-41,212Z" fill="rgb(217,137,99)" stroke="rgb(217,137,99)" stroke-width="1.51"></path><path d="M543,367L579,262L491,278Z" fill="rgb(88,177,91)" stroke="rgb(88,177,91)" stroke-width="1.51"></path><path d="M408,477L499,407L430,403Z" fill="rgb(80,153,78)" stroke="rgb(80,153,78)" stroke-width="1.51"></path><path d="M543,367L491,278L496,349Z" fill="rgb(77,174,91)" stroke="rgb(77,174,91)" stroke-width="1.51"></path><path d="M575,189L625,118L563,114Z" fill="rgb(146,158,88)" stroke="rgb(146,158,88)" stroke-width="1.51"></path><path d="M-127,284L-57,332L-28,264Z" fill="rgb(169,126,69)" stroke="rgb(169,126,69)" stroke-width="1.51"></path><path d="M-57,332L-29,442L22,339Z" fill="rgb(124,95,54)" stroke="rgb(124,95,54)" stroke-width="1.51"></path><path d="M37,405L95,506L117,414Z" fill="rgb(139,101,51)" stroke="rgb(139,101,51)" stroke-width="1.51"></path><path d="M20,510L95,506L37,405Z" fill="rgb(131,91,46)" stroke="rgb(131,91,46)" stroke-width="1.51"></path><path d="M187,484L95,506L267,501Z" fill="rgb(145,143,76)" stroke="rgb(145,143,76)" stroke-width="1.51"></path><path d="M499,407L543,367L496,349Z" fill="rgb(46,151,80)" stroke="rgb(46,151,80)" stroke-width="1.51"></path><path d="M574,60L569,-2L497,66Z" fill="rgb(151,116,57)" stroke="rgb(151,116,57)" stroke-width="1.51"></path><path d="M-124,219L-127,284L-28,264Z" fill="rgb(191,134,79)" stroke="rgb(191,134,79)" stroke-width="1.51"></path><path d="M-50,498L-29,442L-118,426Z" fill="rgb(112,78,45)" stroke="rgb(112,78,45)" stroke-width="1.51"></path><path d="M-91,338L-29,442L-57,332Z" fill="rgb(124,96,54)" stroke="rgb(124,96,54)" stroke-width="1.51"></path><path d="M-56,-17L-95,-37L-107,57Z" fill="rgb(165,1,38)" stroke="rgb(165,1,38)" stroke-width="1.51"></path><path d="M-52,-97L-95,-37L-56,-17Z" fill="rgb(165,0,38)" stroke="rgb(165,0,38)" stroke-width="1.51"></path><path d="M59,-91L-52,-97L36,-22Z" fill="rgb(171,8,39)" stroke="rgb(171,8,39)" stroke-width="1.51"></path><path d="M197,-109L-52,-97L59,-91Z" fill="rgb(192,35,41)" stroke="rgb(192,35,41)" stroke-width="1.51"></path><path d="M277,-119L-52,-97L197,-109Z" fill="rgb(207,79,57)" stroke="rgb(207,79,57)" stroke-width="1.51"></path><path d="M629,221L625,118L575,189Z" fill="rgb(140,169,105)" stroke="rgb(140,169,105)" stroke-width="1.51"></path><path d="M574,60L636,30L569,-2Z" fill="rgb(131,91,47)" stroke="rgb(131,91,47)" stroke-width="1.51"></path><path d="M656,256L629,221L579,262Z" fill="rgb(116,168,93)" stroke="rgb(116,168,93)" stroke-width="1.51"></path><path d="M579,262L629,221L575,189Z" fill="rgb(129,175,106)" stroke="rgb(129,175,106)" stroke-width="1.51"></path><path d="M-29,442L20,510L37,405Z" fill="rgb(116,81,45)" stroke="rgb(116,81,45)" stroke-width="1.51"></path><path d="M95,506L502,519L267,501Z" fill="rgb(139,175,115)" stroke="rgb(139,175,115)" stroke-width="1.51"></path><path d="M267,501L502,519L328,499Z" fill="rgb(118,169,94)" stroke="rgb(118,169,94)" stroke-width="1.51"></path><path d="M644,370L656,256L579,262Z" fill="rgb(81,154,78)" stroke="rgb(81,154,78)" stroke-width="1.51"></path><path d="M499,407L555,417L543,367Z" fill="rgb(23,132,69)" stroke="rgb(23,132,69)" stroke-width="1.51"></path><path d="M502,519L555,417L499,407Z" fill="rgb(34,134,71)" stroke="rgb(34,134,71)" stroke-width="1.51"></path><path d="M630,-45L572,-77L569,-2Z" fill="rgb(115,82,47)" stroke="rgb(115,82,47)" stroke-width="1.51"></path><path d="M569,-2L572,-77L494,-43Z" fill="rgb(127,100,56)" stroke="rgb(127,100,56)" stroke-width="1.51"></path><path d="M464,-90L650,-117L277,-119Z" fill="rgb(159,121,67)" stroke="rgb(159,121,67)" stroke-width="1.51"></path><path d="M-52,-97L-106,-82L-95,-37Z" fill="rgb(165,0,38)" stroke="rgb(165,0,38)" stroke-width="1.51"></path><path d="M-95,-37L-106,-82L-107,57Z" fill="rgb(165,0,38)" stroke="rgb(165,0,38)" stroke-width="1.51"></path><path d="M-107,57L-106,-82L-124,219Z" fill="rgb(199,53,47)" stroke="rgb(199,53,47)" stroke-width="1.51"></path><path d="M721,58L636,30L625,118Z" fill="rgb(143,109,56)" stroke="rgb(143,109,56)" stroke-width="1.51"></path><path d="M625,118L636,30L574,60Z" fill="rgb(143,109,56)" stroke="rgb(143,109,56)" stroke-width="1.51"></path><path d="M629,221L710,197L625,118Z" fill="rgb(140,170,106)" stroke="rgb(140,170,106)" stroke-width="1.51"></path><path d="M644,370L579,262L543,367Z" fill="rgb(50,144,76)" stroke="rgb(50,144,76)" stroke-width="1.51"></path><path d="M-29,442L-50,498L20,510Z" fill="rgb(112,78,45)" stroke="rgb(112,78,45)" stroke-width="1.51"></path><path d="M-118,426L-29,442L-91,338Z" fill="rgb(112,78,45)" stroke="rgb(112,78,45)" stroke-width="1.51"></path><path d="M-127,284L-118,426L-91,338Z" fill="rgb(135,106,60)" stroke="rgb(135,106,60)" stroke-width="1.51"></path><path d="M408,477L502,519L499,407Z" fill="rgb(66,148,77)" stroke="rgb(66,148,77)" stroke-width="1.51"></path><path d="M555,417L644,370L543,367Z" fill="rgb(8,120,64)" stroke="rgb(8,120,64)" stroke-width="1.51"></path><path d="M328,499L502,519L408,477Z" fill="rgb(97,160,82)" stroke="rgb(97,160,82)" stroke-width="1.51"></path><path d="M20,510L502,519L95,506Z" fill="rgb(143,151,84)" stroke="rgb(143,151,84)" stroke-width="1.51"></path><path d="M636,30L630,-45L569,-2Z" fill="rgb(112,78,45)" stroke="rgb(112,78,45)" stroke-width="1.51"></path><path d="M709,-20L630,-45L636,30Z" fill="rgb(112,78,45)" stroke="rgb(112,78,45)" stroke-width="1.51"></path><path d="M623,434L644,370L555,417Z" fill="rgb(0,104,55)" stroke="rgb(0,104,55)" stroke-width="1.51"></path><path d="M502,519L545,515L555,417Z" fill="rgb(21,130,68)" stroke="rgb(21,130,68)" stroke-width="1.51"></path><path d="M545,515L623,434L555,417Z" fill="rgb(5,114,60)" stroke="rgb(5,114,60)" stroke-width="1.51"></path><path d="M704,352L689,297L644,370Z" fill="rgb(41,137,72)" stroke="rgb(41,137,72)" stroke-width="1.51"></path><path d="M644,370L689,297L656,256Z" fill="rgb(71,150,77)" stroke="rgb(71,150,77)" stroke-width="1.51"></path><path d="M656,256L710,197L629,221Z" fill="rgb(128,173,105)" stroke="rgb(128,173,105)" stroke-width="1.51"></path><path d="M689,297L710,197L656,256Z" fill="rgb(114,167,92)" stroke="rgb(114,167,92)" stroke-width="1.51"></path><path d="M-127,284L-135,494L-118,426Z" fill="rgb(112,78,45)" stroke="rgb(112,78,45)" stroke-width="1.51"></path><path d="M-118,426L-135,494L-50,498Z" fill="rgb(112,78,45)" stroke="rgb(112,78,45)" stroke-width="1.51"></path><path d="M-50,498L-135,494L20,510Z" fill="rgb(112,78,45)" stroke="rgb(112,78,45)" stroke-width="1.51"></path><path d="M710,197L723,102L625,118Z" fill="rgb(143,152,85)" stroke="rgb(143,152,85)" stroke-width="1.51"></path><path d="M723,102L721,58L625,118Z" fill="rgb(146,123,65)" stroke="rgb(146,123,65)" stroke-width="1.51"></path><path d="M630,-45L650,-117L572,-77Z" fill="rgb(112,78,45)" stroke="rgb(112,78,45)" stroke-width="1.51"></path><path d="M572,-77L650,-117L464,-90Z" fill="rgb(122,93,53)" stroke="rgb(122,93,53)" stroke-width="1.51"></path><path d="M693,-124L650,-117L630,-45Z" fill="rgb(112,78,45)" stroke="rgb(112,78,45)" stroke-width="1.51"></path><path d="M689,297L704,352L710,197Z" fill="rgb(93,158,80)" stroke="rgb(93,158,80)" stroke-width="1.51"></path><path d="M710,197L724,511L723,102Z" fill="rgb(101,162,84)" stroke="rgb(101,162,84)" stroke-width="1.51"></path><path d="M688,424L704,352L644,370Z" fill="rgb(5,114,60)" stroke="rgb(5,114,60)" stroke-width="1.51"></path><path d="M688,424L644,370L623,434Z" fill="rgb(0,104,55)" stroke="rgb(0,104,55)" stroke-width="1.51"></path><path d="M721,58L709,-20L636,30Z" fill="rgb(125,86,46)" stroke="rgb(125,86,46)" stroke-width="1.51"></path><path d="M653,482L688,424L623,434Z" fill="rgb(0,104,55)" stroke="rgb(0,104,55)" stroke-width="1.51"></path><path d="M545,515L653,482L623,434Z" fill="rgb(0,104,55)" stroke="rgb(0,104,55)" stroke-width="1.51"></path><path d="M709,-20L693,-124L630,-45Z" fill="rgb(112,78,45)" stroke="rgb(112,78,45)" stroke-width="1.51"></path><path d="M650,-117L693,-124L277,-119Z" fill="rgb(128,102,57)" stroke="rgb(128,102,57)" stroke-width="1.51"></path><path d="M545,515L724,511L653,482Z" fill="rgb(0,104,55)" stroke="rgb(0,104,55)" stroke-width="1.51"></path><path d="M653,482L724,511L688,424Z" fill="rgb(0,104,55)" stroke="rgb(0,104,55)" stroke-width="1.51"></path><path d="M688,424L724,511L704,352Z" fill="rgb(0,104,55)" stroke="rgb(0,104,55)" stroke-width="1.51"></path><path d="M704,352L724,511L710,197Z" fill="rgb(25,130,69)" stroke="rgb(25,130,69)" stroke-width="1.51"></path><path d="M502,519L724,511L545,515Z" fill="rgb(1,108,57)" stroke="rgb(1,108,57)" stroke-width="1.51"></path></svg>