<svg width="600" height="400" xmlns="http://www.w3.org/2000/svg"><path d="M351,198L255,196L337,251Z" fill="rgb(151,146,197)" stroke="rgb(151,146,197)" stroke-width="1.51"></path><path d="M351,198L276,146L255,196Z" fill="rgb(165,162,205)" stroke="rgb(165,162,205)" stroke-width="1.51"></path><path d="M255,196L240,293L337,251Z" fill="rgb(149,145,197)" stroke="rgb(149,145,197)" stroke-width="1.51"></path><path d="M351,198L351,104L276,146Z" fill="rgb(168,166,207)" stroke="rgb(168,166,207)" stroke-width="1.51"></path><path d="M337,251L403,177L351,198Z" fill="rgb(143,139,193)" stroke="rgb(143,139,193)" stroke-width="1.51"></path><path d="M403,177L351,104L351,198Z" fill="rgb(157,155,202)" stroke="rgb(157,155,202)" stroke-width="1.51"></path><path d="M240,293L311,337L337,251Z" fill="rgb(135,121,184)" stroke="rgb(135,121,184)" stroke-width="1.51"></path><path d="M441,290L460,205L403,177Z" fill="rgb(128,115,181)" stroke="rgb(128,115,181)" stroke-width="1.51"></path><path d="M240,293L240,324L311,337Z" fill="rgb(137,118,183)" stroke="rgb(137,118,183)" stroke-width="1.51"></path><path d="M255,196L202,290L240,293Z" fill="rgb(155,150,200)" stroke="rgb(155,150,200)" stroke-width="1.51"></path><path d="M170,219L202,290L255,196Z" fill="rgb(166,164,206)" stroke="rgb(166,164,206)" stroke-width="1.51"></path><path d="M202,290L240,324L240,293Z" fill="rgb(147,132,191)" stroke="rgb(147,132,191)" stroke-width="1.51"></path><path d="M161,99L170,219L255,196Z" fill="rgb(187,187,218)" stroke="rgb(187,187,218)" stroke-width="1.51"></path><path d="M441,290L403,177L337,251Z" fill="rgb(129,122,184)" stroke="rgb(129,122,184)" stroke-width="1.51"></path><path d="M403,177L422,100L351,104Z" fill="rgb(163,157,204)" stroke="rgb(163,157,204)" stroke-width="1.51"></path><path d="M311,337L441,290L337,251Z" fill="rgb(121,108,177)" stroke="rgb(121,108,177)" stroke-width="1.51"></path><path d="M276,146L161,99L255,196Z" fill="rgb(188,188,219)" stroke="rgb(188,188,219)" stroke-width="1.51"></path><path d="M351,104L246,64L276,146Z" fill="rgb(188,186,218)" stroke="rgb(188,186,218)" stroke-width="1.51"></path><path d="M460,205L422,100L403,177Z" fill="rgb(148,137,193)" stroke="rgb(148,137,193)" stroke-width="1.51"></path><path d="M351,104L353,34L246,64Z" fill="rgb(191,188,219)" stroke="rgb(191,188,219)" stroke-width="1.51"></path><path d="M202,290L182,338L240,324Z" fill="rgb(148,130,190)" stroke="rgb(148,130,190)" stroke-width="1.51"></path><path d="M240,324L310,415L311,337Z" fill="rgb(124,97,172)" stroke="rgb(124,97,172)" stroke-width="1.51"></path><path d="M117,280L182,338L202,290Z" fill="rgb(159,143,197)" stroke="rgb(159,143,197)" stroke-width="1.51"></path><path d="M246,64L161,99L276,146Z" fill="rgb(201,202,226)" stroke="rgb(201,202,226)" stroke-width="1.51"></path><path d="M441,290L475,273L460,205Z" fill="rgb(115,98,172)" stroke="rgb(115,98,172)" stroke-width="1.51"></path><path d="M403,44L353,34L351,104Z" fill="rgb(183,179,215)" stroke="rgb(183,179,215)" stroke-width="1.51"></path><path d="M489,32L403,44L422,100Z" fill="rgb(173,158,205)" stroke="rgb(173,158,205)" stroke-width="1.51"></path><path d="M422,100L403,44L351,104Z" fill="rgb(174,168,210)" stroke="rgb(174,168,210)" stroke-width="1.51"></path><path d="M170,219L117,280L202,290Z" fill="rgb(168,162,206)" stroke="rgb(168,162,206)" stroke-width="1.51"></path><path d="M103,198L117,280L170,219Z" fill="rgb(182,178,214)" stroke="rgb(182,178,214)" stroke-width="1.51"></path><path d="M311,337L422,372L441,290Z" fill="rgb(108,85,165)" stroke="rgb(108,85,165)" stroke-width="1.51"></path><path d="M441,290L473,350L475,273Z" fill="rgb(103,76,161)" stroke="rgb(103,76,161)" stroke-width="1.51"></path><path d="M310,415L422,372L311,337Z" fill="rgb(109,81,162)" stroke="rgb(109,81,162)" stroke-width="1.51"></path><path d="M99,140L103,198L170,219Z" fill="rgb(196,194,222)" stroke="rgb(196,194,222)" stroke-width="1.51"></path><path d="M213,421L310,415L240,324Z" fill="rgb(126,96,171)" stroke="rgb(126,96,171)" stroke-width="1.51"></path><path d="M161,99L99,140L170,219Z" fill="rgb(203,203,228)" stroke="rgb(203,203,228)" stroke-width="1.51"></path><path d="M246,64L175,41L161,99Z" fill="rgb(215,215,234)" stroke="rgb(215,215,234)" stroke-width="1.51"></path><path d="M212,-44L175,41L246,64Z" fill="rgb(220,219,236)" stroke="rgb(220,219,236)" stroke-width="1.51"></path><path d="M59,106L99,140L161,99Z" fill="rgb(219,219,236)" stroke="rgb(219,219,236)" stroke-width="1.51"></path><path d="M422,372L473,350L441,290Z" fill="rgb(99,67,156)" stroke="rgb(99,67,156)" stroke-width="1.51"></path><path d="M182,338L213,421L240,324Z" fill="rgb(139,112,181)" stroke="rgb(139,112,181)" stroke-width="1.51"></path><path d="M114,431L213,421L182,338Z" fill="rgb(141,109,178)" stroke="rgb(141,109,178)" stroke-width="1.51"></path><path d="M460,205L505,111L422,100Z" fill="rgb(150,133,192)" stroke="rgb(150,133,192)" stroke-width="1.51"></path><path d="M561,222L505,111L460,205Z" fill="rgb(131,108,178)" stroke="rgb(131,108,178)" stroke-width="1.51"></path><path d="M535,257L460,205L475,273Z" fill="rgb(114,94,170)" stroke="rgb(114,94,170)" stroke-width="1.51"></path><path d="M310,415L434,446L422,372Z" fill="rgb(96,65,153)" stroke="rgb(96,65,153)" stroke-width="1.51"></path><path d="M422,372L482,412L473,350Z" fill="rgb(89,50,147)" stroke="rgb(89,50,147)" stroke-width="1.51"></path><path d="M213,421L291,443L310,415Z" fill="rgb(119,89,166)" stroke="rgb(119,89,166)" stroke-width="1.51"></path><path d="M534,357L535,257L475,273Z" fill="rgb(98,65,156)" stroke="rgb(98,65,156)" stroke-width="1.51"></path><path d="M175,41L140,30L161,99Z" fill="rgb(225,224,238)" stroke="rgb(225,224,238)" stroke-width="1.51"></path><path d="M212,-44L140,30L175,41Z" fill="rgb(229,228,241)" stroke="rgb(229,228,241)" stroke-width="1.51"></path><path d="M353,34L280,-48L246,64Z" fill="rgb(204,201,226)" stroke="rgb(204,201,226)" stroke-width="1.51"></path><path d="M403,44L396,-15L353,34Z" fill="rgb(186,180,216)" stroke="rgb(186,180,216)" stroke-width="1.51"></path><path d="M489,32L396,-15L403,44Z" fill="rgb(180,166,209)" stroke="rgb(180,166,209)" stroke-width="1.51"></path><path d="M535,257L561,222L460,205Z" fill="rgb(115,91,169)" stroke="rgb(115,91,169)" stroke-width="1.51"></path><path d="M608,220L561,222L535,257Z" fill="rgb(107,80,162)" stroke="rgb(107,80,162)" stroke-width="1.51"></path><path d="M396,-15L328,-45L353,34Z" fill="rgb(193,189,221)" stroke="rgb(193,189,221)" stroke-width="1.51"></path><path d="M505,111L489,32L422,100Z" fill="rgb(164,144,198)" stroke="rgb(164,144,198)" stroke-width="1.51"></path><path d="M591,37L489,32L505,111Z" fill="rgb(161,133,193)" stroke="rgb(161,133,193)" stroke-width="1.51"></path><path d="M32,257L117,280L103,198Z" fill="rgb(184,180,215)" stroke="rgb(184,180,215)" stroke-width="1.51"></path><path d="M31,362L95,372L117,280Z" fill="rgb(165,139,196)" stroke="rgb(165,139,196)" stroke-width="1.51"></path><path d="M117,280L95,372L182,338Z" fill="rgb(160,137,194)" stroke="rgb(160,137,194)" stroke-width="1.51"></path><path d="M328,-45L280,-48L353,34Z" fill="rgb(201,197,224)" stroke="rgb(201,197,224)" stroke-width="1.51"></path><path d="M99,140L11,176L103,198Z" fill="rgb(207,206,228)" stroke="rgb(207,206,228)" stroke-width="1.51"></path><path d="M140,30L59,106L161,99Z" fill="rgb(227,226,239)" stroke="rgb(227,226,239)" stroke-width="1.51"></path><path d="M419,473L434,446L310,415Z" fill="rgb(96,66,153)" stroke="rgb(96,66,153)" stroke-width="1.51"></path><path d="M473,350L534,357L475,273Z" fill="rgb(94,58,152)" stroke="rgb(94,58,152)" stroke-width="1.51"></path><path d="M434,446L482,412L422,372Z" fill="rgb(86,48,144)" stroke="rgb(86,48,144)" stroke-width="1.51"></path><path d="M482,412L534,357L473,350Z" fill="rgb(84,41,143)" stroke="rgb(84,41,143)" stroke-width="1.51"></path><path d="M280,-48L212,-44L246,64Z" fill="rgb(216,214,233)" stroke="rgb(216,214,233)" stroke-width="1.51"></path><path d="M140,30L24,64L59,106Z" fill="rgb(235,234,244)" stroke="rgb(235,234,244)" stroke-width="1.51"></path><path d="M11,176L32,257L103,198Z" fill="rgb(198,194,222)" stroke="rgb(198,194,222)" stroke-width="1.51"></path><path d="M434,446L501,477L482,412Z" fill="rgb(82,40,141)" stroke="rgb(82,40,141)" stroke-width="1.51"></path><path d="M352,522L419,473L310,415Z" fill="rgb(101,72,157)" stroke="rgb(101,72,157)" stroke-width="1.51"></path><path d="M114,431L184,472L213,421Z" fill="rgb(140,109,178)" stroke="rgb(140,109,178)" stroke-width="1.51"></path><path d="M213,421L270,510L291,443Z" fill="rgb(123,92,168)" stroke="rgb(123,92,168)" stroke-width="1.51"></path><path d="M291,443L352,522L310,415Z" fill="rgb(110,79,161)" stroke="rgb(110,79,161)" stroke-width="1.51"></path><path d="M280,-48L268,-71L212,-44Z" fill="rgb(214,213,232)" stroke="rgb(214,213,232)" stroke-width="1.51"></path><path d="M328,-45L268,-71L280,-48Z" fill="rgb(206,203,227)" stroke="rgb(206,203,227)" stroke-width="1.51"></path><path d="M95,372L114,431L182,338Z" fill="rgb(150,120,185)" stroke="rgb(150,120,185)" stroke-width="1.51"></path><path d="M28,453L114,431L95,372Z" fill="rgb(154,120,184)" stroke="rgb(154,120,184)" stroke-width="1.51"></path><path d="M59,106L11,176L99,140Z" fill="rgb(218,217,235)" stroke="rgb(218,217,235)" stroke-width="1.51"></path><path d="M184,472L270,510L213,421Z" fill="rgb(130,99,173)" stroke="rgb(130,99,173)" stroke-width="1.51"></path><path d="M561,222L584,101L505,111Z" fill="rgb(137,110,179)" stroke="rgb(137,110,179)" stroke-width="1.51"></path><path d="M129,-71L140,30L212,-44Z" fill="rgb(233,232,243)" stroke="rgb(233,232,243)" stroke-width="1.51"></path><path d="M129,-71L99,-12L140,30Z" fill="rgb(239,238,246)" stroke="rgb(239,238,246)" stroke-width="1.51"></path><path d="M59,106L-34,125L11,176Z" fill="rgb(223,223,238)" stroke="rgb(223,223,238)" stroke-width="1.51"></path><path d="M561,222L631,147L584,101Z" fill="rgb(128,98,172)" stroke="rgb(128,98,172)" stroke-width="1.51"></path><path d="M633,304L608,220L535,257Z" fill="rgb(97,66,154)" stroke="rgb(97,66,154)" stroke-width="1.51"></path><path d="M32,257L31,362L117,280Z" fill="rgb(175,157,205)" stroke="rgb(175,157,205)" stroke-width="1.51"></path><path d="M-14,331L31,362L32,257Z" fill="rgb(175,154,203)" stroke="rgb(175,154,203)" stroke-width="1.51"></path><path d="M270,510L352,522L291,443Z" fill="rgb(113,82,162)" stroke="rgb(113,82,162)" stroke-width="1.51"></path><path d="M45,-2L24,64L140,30Z" fill="rgb(242,240,247)" stroke="rgb(242,240,247)" stroke-width="1.51"></path><path d="M-18,224L32,257L11,176Z" fill="rgb(199,195,223)" stroke="rgb(199,195,223)" stroke-width="1.51"></path><path d="M-18,224L-12,246L32,257Z" fill="rgb(192,188,220)" stroke="rgb(192,188,220)" stroke-width="1.51"></path><path d="M396,-15L361,-98L328,-45Z" fill="rgb(192,189,220)" stroke="rgb(192,189,220)" stroke-width="1.51"></path><path d="M328,-45L361,-98L268,-71Z" fill="rgb(201,198,224)" stroke="rgb(201,198,224)" stroke-width="1.51"></path><path d="M412,-105L361,-98L396,-15Z" fill="rgb(188,181,217)" stroke="rgb(188,181,217)" stroke-width="1.51"></path><path d="M510,-32L396,-15L489,32Z" fill="rgb(178,158,206)" stroke="rgb(178,158,206)" stroke-width="1.51"></path><path d="M-34,125L-18,224L11,176Z" fill="rgb(212,210,231)" stroke="rgb(212,210,231)" stroke-width="1.51"></path><path d="M542,-8L510,-32L489,32Z" fill="rgb(172,145,199)" stroke="rgb(172,145,199)" stroke-width="1.51"></path><path d="M591,37L542,-8L489,32Z" fill="rgb(166,136,194)" stroke="rgb(166,136,194)" stroke-width="1.51"></path><path d="M352,522L501,477L419,473Z" fill="rgb(90,54,148)" stroke="rgb(90,54,148)" stroke-width="1.51"></path><path d="M419,473L501,477L434,446Z" fill="rgb(86,46,144)" stroke="rgb(86,46,144)" stroke-width="1.51"></path><path d="M482,412L578,436L534,357Z" fill="rgb(73,21,133)" stroke="rgb(73,21,133)" stroke-width="1.51"></path><path d="M534,357L633,304L535,257Z" fill="rgb(89,50,147)" stroke="rgb(89,50,147)" stroke-width="1.51"></path><path d="M99,-12L45,-2L140,30Z" fill="rgb(242,240,247)" stroke="rgb(242,240,247)" stroke-width="1.51"></path><path d="M187,-117L129,-71L212,-44Z" fill="rgb(230,229,241)" stroke="rgb(230,229,241)" stroke-width="1.51"></path><path d="M187,-117L212,-44L268,-71Z" fill="rgb(220,220,237)" stroke="rgb(220,220,237)" stroke-width="1.51"></path><path d="M608,220L631,147L561,222Z" fill="rgb(115,84,163)" stroke="rgb(115,84,163)" stroke-width="1.51"></path><path d="M584,101L591,37L505,111Z" fill="rgb(152,123,186)" stroke="rgb(152,123,186)" stroke-width="1.51"></path><path d="M39,-88L45,-2L99,-12Z" fill="rgb(246,245,249)" stroke="rgb(246,245,249)" stroke-width="1.51"></path><path d="M361,-98L187,-117L268,-71Z" fill="rgb(210,208,230)" stroke="rgb(210,208,230)" stroke-width="1.51"></path><path d="M500,-76L412,-105L396,-15Z" fill="rgb(181,167,210)" stroke="rgb(181,167,210)" stroke-width="1.51"></path><path d="M-133,275L-14,331L-12,246Z" fill="rgb(183,170,211)" stroke="rgb(183,170,211)" stroke-width="1.51"></path><path d="M-12,246L-14,331L32,257Z" fill="rgb(184,173,213)" stroke="rgb(184,173,213)" stroke-width="1.51"></path><path d="M28,453L83,499L114,431Z" fill="rgb(155,121,185)" stroke="rgb(155,121,185)" stroke-width="1.51"></path><path d="M626,34L591,37L584,101Z" fill="rgb(153,119,184)" stroke="rgb(153,119,184)" stroke-width="1.51"></path><path d="M650,378L633,304L534,357Z" fill="rgb(75,24,134)" stroke="rgb(75,24,134)" stroke-width="1.51"></path><path d="M717,217L687,134L631,147Z" fill="rgb(124,94,169)" stroke="rgb(124,94,169)" stroke-width="1.51"></path><path d="M24,64L-34,125L59,106Z" fill="rgb(234,233,243)" stroke="rgb(234,233,243)" stroke-width="1.51"></path><path d="M-18,224L-105,226L-12,246Z" fill="rgb(195,191,222)" stroke="rgb(195,191,222)" stroke-width="1.51"></path><path d="M-62,46L-34,125L24,64Z" fill="rgb(239,238,246)" stroke="rgb(239,238,246)" stroke-width="1.51"></path><path d="M412,-105L187,-117L361,-98Z" fill="rgb(201,197,224)" stroke="rgb(201,197,224)" stroke-width="1.51"></path><path d="M591,-125L500,-76L542,-8Z" fill="rgb(168,138,195)" stroke="rgb(168,138,195)" stroke-width="1.51"></path><path d="M542,-8L500,-76L510,-32Z" fill="rgb(171,144,199)" stroke="rgb(171,144,199)" stroke-width="1.51"></path><path d="M510,-32L500,-76L396,-15Z" fill="rgb(177,157,205)" stroke="rgb(177,157,205)" stroke-width="1.51"></path><path d="M501,477L578,436L482,412Z" fill="rgb(74,24,134)" stroke="rgb(74,24,134)" stroke-width="1.51"></path><path d="M184,472L83,499L270,510Z" fill="rgb(138,107,177)" stroke="rgb(138,107,177)" stroke-width="1.51"></path><path d="M270,510L83,499L352,522Z" fill="rgb(127,97,171)" stroke="rgb(127,97,171)" stroke-width="1.51"></path><path d="M114,431L83,499L184,472Z" fill="rgb(147,115,181)" stroke="rgb(147,115,181)" stroke-width="1.51"></path><path d="M28,453L95,372L31,362Z" fill="rgb(157,124,187)" stroke="rgb(157,124,187)" stroke-width="1.51"></path><path d="M-9,413L28,453L31,362Z" fill="rgb(160,126,188)" stroke="rgb(160,126,188)" stroke-width="1.51"></path><path d="M591,37L635,-47L542,-8Z" fill="rgb(162,129,190)" stroke="rgb(162,129,190)" stroke-width="1.51"></path><path d="M631,147L626,34L584,101Z" fill="rgb(146,113,180)" stroke="rgb(146,113,180)" stroke-width="1.51"></path><path d="M-97,400L-9,413L-14,331Z" fill="rgb(164,132,192)" stroke="rgb(164,132,192)" stroke-width="1.51"></path><path d="M-14,331L-9,413L31,362Z" fill="rgb(166,135,194)" stroke="rgb(166,135,194)" stroke-width="1.51"></path><path d="M-35,491L32,479L28,453Z" fill="rgb(160,126,188)" stroke="rgb(160,126,188)" stroke-width="1.51"></path><path d="M28,453L32,479L83,499Z" fill="rgb(157,123,186)" stroke="rgb(157,123,186)" stroke-width="1.51"></path><path d="M578,436L650,378L534,357Z" fill="rgb(67,8,128)" stroke="rgb(67,8,128)" stroke-width="1.51"></path><path d="M717,217L631,147L608,220Z" fill="rgb(115,85,163)" stroke="rgb(115,85,163)" stroke-width="1.51"></path><path d="M631,147L687,134L626,34Z" fill="rgb(143,111,179)" stroke="rgb(143,111,179)" stroke-width="1.51"></path><path d="M717,217L608,220L633,304Z" fill="rgb(99,70,156)" stroke="rgb(99,70,156)" stroke-width="1.51"></path><path d="M45,-2L-62,46L24,64Z" fill="rgb(247,246,250)" stroke="rgb(247,246,250)" stroke-width="1.51"></path><path d="M129,-71L39,-88L99,-12Z" fill="rgb(243,242,248)" stroke="rgb(243,242,248)" stroke-width="1.51"></path><path d="M187,-117L39,-88L129,-71Z" fill="rgb(239,238,246)" stroke="rgb(239,238,246)" stroke-width="1.51"></path><path d="M-34,125L-105,226L-18,224Z" fill="rgb(207,205,228)" stroke="rgb(207,205,228)" stroke-width="1.51"></path><path d="M-26,-48L-62,46L45,-2Z" fill="rgb(252,251,253)" stroke="rgb(252,251,253)" stroke-width="1.51"></path><path d="M352,522L589,500L501,477Z" fill="rgb(81,37,140)" stroke="rgb(81,37,140)" stroke-width="1.51"></path><path d="M501,477L589,500L578,436Z" fill="rgb(70,14,130)" stroke="rgb(70,14,130)" stroke-width="1.51"></path><path d="M578,436L651,434L650,378Z" fill="rgb(63,0,125)" stroke="rgb(63,0,125)" stroke-width="1.51"></path><path d="M-131,121L-105,226L-34,125Z" fill="rgb(218,217,235)" stroke="rgb(218,217,235)" stroke-width="1.51"></path><path d="M618,502L651,434L578,436Z" fill="rgb(63,0,125)" stroke="rgb(63,0,125)" stroke-width="1.51"></path><path d="M739,294L717,217L633,304Z" fill="rgb(93,60,150)" stroke="rgb(93,60,150)" stroke-width="1.51"></path><path d="M707,376L633,304L650,378Z" fill="rgb(73,21,133)" stroke="rgb(73,21,133)" stroke-width="1.51"></path><path d="M39,-88L-26,-48L45,-2Z" fill="rgb(250,249,252)" stroke="rgb(250,249,252)" stroke-width="1.51"></path><path d="M626,34L635,-47L591,37Z" fill="rgb(160,126,188)" stroke="rgb(160,126,188)" stroke-width="1.51"></path><path d="M500,-76L591,-125L412,-105Z" fill="rgb(173,148,201)" stroke="rgb(173,148,201)" stroke-width="1.51"></path><path d="M685,-29L635,-47L626,34Z" fill="rgb(161,127,189)" stroke="rgb(161,127,189)" stroke-width="1.51"></path><path d="M703,30L626,34L687,134Z" fill="rgb(151,118,183)" stroke="rgb(151,118,183)" stroke-width="1.51"></path><path d="M352,522L618,502L589,500Z" fill="rgb(75,24,134)" stroke="rgb(75,24,134)" stroke-width="1.51"></path><path d="M589,500L618,502L578,436Z" fill="rgb(64,1,125)" stroke="rgb(64,1,125)" stroke-width="1.51"></path><path d="M703,402L650,378L651,434Z" fill="rgb(63,0,125)" stroke="rgb(63,0,125)" stroke-width="1.51"></path><path d="M703,402L707,376L650,378Z" fill="rgb(66,7,127)" stroke="rgb(66,7,127)" stroke-width="1.51"></path><path d="M-9,413L-35,491L28,453Z" fill="rgb(161,127,189)" stroke="rgb(161,127,189)" stroke-width="1.51"></path><path d="M32,479L-35,491L83,499Z" fill="rgb(159,125,187)" stroke="rgb(159,125,187)" stroke-width="1.51"></path><path d="M83,499L-124,486L352,522Z" fill="rgb(151,118,183)" stroke="rgb(151,118,183)" stroke-width="1.51"></path><path d="M-97,400L-35,491L-9,413Z" fill="rgb(161,127,189)" stroke="rgb(161,127,189)" stroke-width="1.51"></path><path d="M-105,226L-133,275L-12,246Z" fill="rgb(190,187,219)" stroke="rgb(190,187,219)" stroke-width="1.51"></path><path d="M-131,121L-133,275L-105,226Z" fill="rgb(203,199,225)" stroke="rgb(203,199,225)" stroke-width="1.51"></path><path d="M717,217L703,30L687,134Z" fill="rgb(136,105,176)" stroke="rgb(136,105,176)" stroke-width="1.51"></path><path d="M-109,378L-97,400L-14,331Z" fill="rgb(167,136,194)" stroke="rgb(167,136,194)" stroke-width="1.51"></path><path d="M729,494L703,402L651,434Z" fill="rgb(63,0,125)" stroke="rgb(63,0,125)" stroke-width="1.51"></path><path d="M-133,275L-109,378L-14,331Z" fill="rgb(174,151,202)" stroke="rgb(174,151,202)" stroke-width="1.51"></path><path d="M-62,46L-131,121L-34,125Z" fill="rgb(235,235,244)" stroke="rgb(235,235,244)" stroke-width="1.51"></path><path d="M-110,46L-131,121L-62,46Z" fill="rgb(241,240,247)" stroke="rgb(241,240,247)" stroke-width="1.51"></path><path d="M717,217L734,-106L703,30Z" fill="rgb(155,121,185)" stroke="rgb(155,121,185)" stroke-width="1.51"></path><path d="M707,376L739,294L633,304Z" fill="rgb(80,35,139)" stroke="rgb(80,35,139)" stroke-width="1.51"></path><path d="M729,494L739,294L707,376Z" fill="rgb(66,6,127)" stroke="rgb(66,6,127)" stroke-width="1.51"></path><path d="M645,-74L591,-125L635,-47Z" fill="rgb(161,127,189)" stroke="rgb(161,127,189)" stroke-width="1.51"></path><path d="M635,-47L591,-125L542,-8Z" fill="rgb(162,129,190)" stroke="rgb(162,129,190)" stroke-width="1.51"></path><path d="M412,-105L591,-125L187,-117Z" fill="rgb(187,179,216)" stroke="rgb(187,179,216)" stroke-width="1.51"></path><path d="M-126,-22L-110,46L-62,46Z" fill="rgb(249,247,251)" stroke="rgb(249,247,251)" stroke-width="1.51"></path><path d="M685,-29L645,-74L635,-47Z" fill="rgb(161,127,189)" stroke="rgb(161,127,189)" stroke-width="1.51"></path><path d="M703,30L685,-29L626,34Z" fill="rgb(160,126,188)" stroke="rgb(160,126,188)" stroke-width="1.51"></path><path d="M-26,-48L-126,-22L-62,46Z" fill="rgb(252,251,253)" stroke="rgb(252,251,253)" stroke-width="1.51"></path><path d="M39,-88L-46,-85L-26,-48Z" fill="rgb(252,251,253)" stroke="rgb(252,251,253)" stroke-width="1.51"></path><path d="M-93,-118L-46,-85L39,-88Z" fill="rgb(252,251,253)" stroke="rgb(252,251,253)" stroke-width="1.51"></path><path d="M-110,46L-126,-22L-131,121Z" fill="rgb(245,244,249)" stroke="rgb(245,244,249)" stroke-width="1.51"></path><path d="M-46,-85L-126,-22L-26,-48Z" fill="rgb(252,251,253)" stroke="rgb(252,251,253)" stroke-width="1.51"></path><path d="M-35,491L-124,486L83,499Z" fill="rgb(161,127,189)" stroke="rgb(161,127,189)" stroke-width="1.51"></path><path d="M-97,400L-124,486L-35,491Z" fill="rgb(161,127,189)" stroke="rgb(161,127,189)" stroke-width="1.51"></path><path d="M-109,378L-124,486L-97,400Z" fill="rgb(161,127,189)" stroke="rgb(161,127,189)" stroke-width="1.51"></path><path d="M-133,275L-124,486L-109,378Z" fill="rgb(165,133,192)" stroke="rgb(165,133,192)" stroke-width="1.51"></path><path d="M703,402L729,494L707,376Z" fill="rgb(63,0,125)" stroke="rgb(63,0,125)" stroke-width="1.51"></path><path d="M618,502L729,494L651,434Z" fill="rgb(63,0,125)" stroke="rgb(63,0,125)" stroke-width="1.51"></path><path d="M352,522L729,494L618,502Z" fill="rgb(68,11,129)" stroke="rgb(68,11,129)" stroke-width="1.51"></path><path d="M-46,-85L-93,-118L-126,-22Z" fill="rgb(252,251,253)" stroke="rgb(252,251,253)" stroke-width="1.51"></path><path d="M187,-117L-93,-118L39,-88Z" fill="rgb(248,247,250)" stroke="rgb(248,247,250)" stroke-width="1.51"></path><path d="M591,-125L-93,-118L187,-117Z" fill="rgb(219,219,236)" stroke="rgb(219,219,236)" stroke-width="1.51"></path><path d="M739,294L734,-106L717,217Z" fill="rgb(134,103,175)" stroke="rgb(134,103,175)" stroke-width="1.51"></path><path d="M703,30L734,-106L685,-29Z" fill="rgb(161,127,189)" stroke="rgb(161,127,189)" stroke-width="1.51"></path><path d="M685,-29L734,-106L645,-74Z" fill="rgb(161,127,189)" stroke="rgb(161,127,189)" stroke-width="1.51"></path><path d="M645,-74L734,-106L591,-125Z" fill="rgb(161,127,189)" stroke="rgb(161,127,189)" stroke-width="1.51"></path></svg>