<svg width="600" height="400" xmlns="http://www.w3.org/2000/svg"><path d="M261,197L260,124L189,122Z" fill="rgb(166,220,183)" stroke="rgb(166,220,183)" stroke-width="1.51"></path><path d="M189,122L187,201L261,197Z" fill="rgb(161,218,186)" stroke="rgb(161,218,186)" stroke-width="1.51"></path><path d="M189,122L114,198L187,201Z" fill="rgb(174,223,191)" stroke="rgb(174,223,191)" stroke-width="1.51"></path><path d="M260,124L264,50L189,122Z" fill="rgb(183,227,191)" stroke="rgb(183,227,191)" stroke-width="1.51"></path><path d="M337,124L264,50L260,124Z" fill="rgb(170,221,195)" stroke="rgb(170,221,195)" stroke-width="1.51"></path><path d="M189,122L111,123L114,198Z" fill="rgb(189,229,191)" stroke="rgb(189,229,191)" stroke-width="1.51"></path><path d="M114,49L111,123L189,122Z" fill="rgb(206,236,199)" stroke="rgb(206,236,199)" stroke-width="1.51"></path><path d="M187,201L262,275L261,197Z" fill="rgb(136,205,193)" stroke="rgb(136,205,193)" stroke-width="1.51"></path><path d="M111,274L189,275L187,201Z" fill="rgb(147,206,203)" stroke="rgb(147,206,203)" stroke-width="1.51"></path><path d="M264,50L188,47L189,122Z" fill="rgb(195,231,196)" stroke="rgb(195,231,196)" stroke-width="1.51"></path><path d="M261,197L337,124L260,124Z" fill="rgb(151,214,188)" stroke="rgb(151,214,188)" stroke-width="1.51"></path><path d="M339,199L337,124L261,197Z" fill="rgb(133,206,194)" stroke="rgb(133,206,194)" stroke-width="1.51"></path><path d="M189,275L262,275L187,201Z" fill="rgb(134,201,198)" stroke="rgb(134,201,198)" stroke-width="1.51"></path><path d="M262,275L339,199L261,197Z" fill="rgb(119,199,199)" stroke="rgb(119,199,199)" stroke-width="1.51"></path><path d="M188,47L114,49L189,122Z" fill="rgb(207,236,201)" stroke="rgb(207,236,201)" stroke-width="1.51"></path><path d="M114,198L111,274L187,201Z" fill="rgb(160,214,202)" stroke="rgb(160,214,202)" stroke-width="1.51"></path><path d="M37,201L111,274L114,198Z" fill="rgb(167,217,209)" stroke="rgb(167,217,209)" stroke-width="1.51"></path><path d="M337,124L339,51L264,50Z" fill="rgb(168,219,204)" stroke="rgb(168,219,204)" stroke-width="1.51"></path><path d="M264,50L264,-24L188,47Z" fill="rgb(199,233,207)" stroke="rgb(199,233,207)" stroke-width="1.51"></path><path d="M412,124L339,51L337,124Z" fill="rgb(153,209,204)" stroke="rgb(153,209,204)" stroke-width="1.51"></path><path d="M262,349L262,275L189,275Z" fill="rgb(114,178,188)" stroke="rgb(114,178,188)" stroke-width="1.51"></path><path d="M262,349L337,277L262,275Z" fill="rgb(96,173,192)" stroke="rgb(96,173,192)" stroke-width="1.51"></path><path d="M262,275L337,277L339,199Z" fill="rgb(100,189,205)" stroke="rgb(100,189,205)" stroke-width="1.51"></path><path d="M111,123L38,123L114,198Z" fill="rgb(195,232,198)" stroke="rgb(195,232,198)" stroke-width="1.51"></path><path d="M38,51L38,123L111,123Z" fill="rgb(216,240,210)" stroke="rgb(216,240,210)" stroke-width="1.51"></path><path d="M339,51L264,-24L264,50Z" fill="rgb(184,227,211)" stroke="rgb(184,227,211)" stroke-width="1.51"></path><path d="M188,47L186,-25L114,49Z" fill="rgb(217,241,212)" stroke="rgb(217,241,212)" stroke-width="1.51"></path><path d="M264,-24L186,-25L188,47Z" fill="rgb(211,238,212)" stroke="rgb(211,238,212)" stroke-width="1.51"></path><path d="M114,49L38,51L111,123Z" fill="rgb(218,241,211)" stroke="rgb(218,241,211)" stroke-width="1.51"></path><path d="M38,123L37,201L114,198Z" fill="rgb(189,229,205)" stroke="rgb(189,229,205)" stroke-width="1.51"></path><path d="M189,350L262,349L189,275Z" fill="rgb(118,171,183)" stroke="rgb(118,171,183)" stroke-width="1.51"></path><path d="M114,350L189,350L189,275Z" fill="rgb(130,175,189)" stroke="rgb(130,175,189)" stroke-width="1.51"></path><path d="M412,277L412,198L339,199Z" fill="rgb(90,182,206)" stroke="rgb(90,182,206)" stroke-width="1.51"></path><path d="M339,199L412,124L337,124Z" fill="rgb(134,202,195)" stroke="rgb(134,202,195)" stroke-width="1.51"></path><path d="M412,198L412,124L339,199Z" fill="rgb(116,192,198)" stroke="rgb(116,192,198)" stroke-width="1.51"></path><path d="M39,-23L38,51L114,49Z" fill="rgb(231,246,225)" stroke="rgb(231,246,225)" stroke-width="1.51"></path><path d="M-40,272L35,275L37,201Z" fill="rgb(171,215,224)" stroke="rgb(171,215,224)" stroke-width="1.51"></path><path d="M114,-100L114,-27L186,-25Z" fill="rgb(227,244,220)" stroke="rgb(227,244,220)" stroke-width="1.51"></path><path d="M186,-25L114,-27L114,49Z" fill="rgb(227,244,220)" stroke="rgb(227,244,220)" stroke-width="1.51"></path><path d="M339,51L338,-26L264,-24Z" fill="rgb(185,226,219)" stroke="rgb(185,226,219)" stroke-width="1.51"></path><path d="M412,124L412,51L339,51Z" fill="rgb(153,205,208)" stroke="rgb(153,205,208)" stroke-width="1.51"></path><path d="M111,274L114,350L189,275Z" fill="rgb(139,187,196)" stroke="rgb(139,187,196)" stroke-width="1.51"></path><path d="M36,348L114,350L111,274Z" fill="rgb(142,180,199)" stroke="rgb(142,180,199)" stroke-width="1.51"></path><path d="M264,-24L260,-99L186,-25Z" fill="rgb(205,235,211)" stroke="rgb(205,235,211)" stroke-width="1.51"></path><path d="M412,51L338,-26L339,51Z" fill="rgb(168,215,219)" stroke="rgb(168,215,219)" stroke-width="1.51"></path><path d="M-36,198L37,201L38,123Z" fill="rgb(196,232,212)" stroke="rgb(196,232,212)" stroke-width="1.51"></path><path d="M37,201L35,275L111,274Z" fill="rgb(162,212,217)" stroke="rgb(162,212,217)" stroke-width="1.51"></path><path d="M337,277L412,277L339,199Z" fill="rgb(82,180,210)" stroke="rgb(82,180,210)" stroke-width="1.51"></path><path d="M411,349L412,277L337,277Z" fill="rgb(59,156,199)" stroke="rgb(59,156,199)" stroke-width="1.51"></path><path d="M262,349L337,352L337,277Z" fill="rgb(82,159,190)" stroke="rgb(82,159,190)" stroke-width="1.51"></path><path d="M262,424L337,352L262,349Z" fill="rgb(86,143,172)" stroke="rgb(86,143,172)" stroke-width="1.51"></path><path d="M262,424L262,349L189,350Z" fill="rgb(103,148,169)" stroke="rgb(103,148,169)" stroke-width="1.51"></path><path d="M114,-27L39,-23L114,49Z" fill="rgb(234,247,227)" stroke="rgb(234,247,227)" stroke-width="1.51"></path><path d="M-40,126L38,123L-39,49Z" fill="rgb(226,244,218)" stroke="rgb(226,244,218)" stroke-width="1.51"></path><path d="M-40,126L-36,198L38,123Z" fill="rgb(208,237,210)" stroke="rgb(208,237,210)" stroke-width="1.51"></path><path d="M336,-99L260,-99L264,-24Z" fill="rgb(191,230,216)" stroke="rgb(191,230,216)" stroke-width="1.51"></path><path d="M114,-27L38,-101L39,-23Z" fill="rgb(237,248,231)" stroke="rgb(237,248,231)" stroke-width="1.51"></path><path d="M114,350L187,423L189,350Z" fill="rgb(123,155,174)" stroke="rgb(123,155,174)" stroke-width="1.51"></path><path d="M110,425L187,423L114,350Z" fill="rgb(123,145,166)" stroke="rgb(123,145,166)" stroke-width="1.51"></path><path d="M35,275L36,348L111,274Z" fill="rgb(150,191,207)" stroke="rgb(150,191,207)" stroke-width="1.51"></path><path d="M-39,349L36,348L35,275Z" fill="rgb(153,185,209)" stroke="rgb(153,185,209)" stroke-width="1.51"></path><path d="M412,124L486,125L412,51Z" fill="rgb(140,190,196)" stroke="rgb(140,190,196)" stroke-width="1.51"></path><path d="M412,51L413,-27L338,-26Z" fill="rgb(170,211,224)" stroke="rgb(170,211,224)" stroke-width="1.51"></path><path d="M412,198L486,125L412,124Z" fill="rgb(121,183,188)" stroke="rgb(121,183,188)" stroke-width="1.51"></path><path d="M488,197L486,125L412,198Z" fill="rgb(105,172,188)" stroke="rgb(105,172,188)" stroke-width="1.51"></path><path d="M485,276L488,197L412,198Z" fill="rgb(77,162,195)" stroke="rgb(77,162,195)" stroke-width="1.51"></path><path d="M337,352L411,349L337,277Z" fill="rgb(64,151,195)" stroke="rgb(64,151,195)" stroke-width="1.51"></path><path d="M412,425L411,349L337,352Z" fill="rgb(49,127,179)" stroke="rgb(49,127,179)" stroke-width="1.51"></path><path d="M-39,49L38,123L38,51Z" fill="rgb(229,245,222)" stroke="rgb(229,245,222)" stroke-width="1.51"></path><path d="M187,423L262,424L189,350Z" fill="rgb(107,140,158)" stroke="rgb(107,140,158)" stroke-width="1.51"></path><path d="M260,-99L188,-103L186,-25Z" fill="rgb(211,238,212)" stroke="rgb(211,238,212)" stroke-width="1.51"></path><path d="M487,49L413,-27L412,51Z" fill="rgb(156,196,212)" stroke="rgb(156,196,212)" stroke-width="1.51"></path><path d="M338,-26L336,-99L264,-24Z" fill="rgb(185,226,219)" stroke="rgb(185,226,219)" stroke-width="1.51"></path><path d="M485,276L412,198L412,277Z" fill="rgb(65,163,202)" stroke="rgb(65,163,202)" stroke-width="1.51"></path><path d="M188,-103L114,-100L186,-25Z" fill="rgb(223,243,217)" stroke="rgb(223,243,217)" stroke-width="1.51"></path><path d="M260,-99L336,-99L188,-103Z" fill="rgb(198,233,214)" stroke="rgb(198,233,214)" stroke-width="1.51"></path><path d="M412,-98L336,-99L338,-26Z" fill="rgb(175,217,224)" stroke="rgb(175,217,224)" stroke-width="1.51"></path><path d="M-39,-24L-39,49L39,-23Z" fill="rgb(247,252,240)" stroke="rgb(247,252,240)" stroke-width="1.51"></path><path d="M39,-23L-39,49L38,51Z" fill="rgb(239,249,232)" stroke="rgb(239,249,232)" stroke-width="1.51"></path><path d="M411,349L485,276L412,277Z" fill="rgb(47,143,192)" stroke="rgb(47,143,192)" stroke-width="1.51"></path><path d="M-36,198L-40,272L37,201Z" fill="rgb(180,222,221)" stroke="rgb(180,222,221)" stroke-width="1.51"></path><path d="M-115,199L-40,272L-36,198Z" fill="rgb(180,222,221)" stroke="rgb(180,222,221)" stroke-width="1.51"></path><path d="M560,123L487,49L486,125Z" fill="rgb(131,170,187)" stroke="rgb(131,170,187)" stroke-width="1.51"></path><path d="M486,125L487,49L412,51Z" fill="rgb(141,185,198)" stroke="rgb(141,185,198)" stroke-width="1.51"></path><path d="M38,423L110,425L114,350Z" fill="rgb(129,148,173)" stroke="rgb(129,148,173)" stroke-width="1.51"></path><path d="M187,423L260,499L262,424Z" fill="rgb(100,137,157)" stroke="rgb(100,137,157)" stroke-width="1.51"></path><path d="M38,423L114,350L36,348Z" fill="rgb(137,160,187)" stroke="rgb(137,160,187)" stroke-width="1.51"></path><path d="M262,424L337,425L337,352Z" fill="rgb(74,129,164)" stroke="rgb(74,129,164)" stroke-width="1.51"></path><path d="M411,349L488,352L485,276Z" fill="rgb(35,127,184)" stroke="rgb(35,127,184)" stroke-width="1.51"></path><path d="M260,499L337,425L262,424Z" fill="rgb(83,132,161)" stroke="rgb(83,132,161)" stroke-width="1.51"></path><path d="M336,-99L487,-101L188,-103Z" fill="rgb(180,222,222)" stroke="rgb(180,222,222)" stroke-width="1.51"></path><path d="M413,-27L412,-98L338,-26Z" fill="rgb(170,211,224)" stroke="rgb(170,211,224)" stroke-width="1.51"></path><path d="M487,-101L412,-98L413,-27Z" fill="rgb(161,198,217)" stroke="rgb(161,198,217)" stroke-width="1.51"></path><path d="M-39,349L38,423L36,348Z" fill="rgb(144,163,195)" stroke="rgb(144,163,195)" stroke-width="1.51"></path><path d="M114,-100L38,-101L114,-27Z" fill="rgb(234,247,227)" stroke="rgb(234,247,227)" stroke-width="1.51"></path><path d="M188,-103L38,-101L114,-100Z" fill="rgb(231,246,224)" stroke="rgb(231,246,224)" stroke-width="1.51"></path><path d="M-36,-100L-39,-24L39,-23Z" fill="rgb(247,252,240)" stroke="rgb(247,252,240)" stroke-width="1.51"></path><path d="M-39,49L-114,124L-40,126Z" fill="rgb(226,244,218)" stroke="rgb(226,244,218)" stroke-width="1.51"></path><path d="M-40,272L-39,349L35,275Z" fill="rgb(159,195,216)" stroke="rgb(159,195,216)" stroke-width="1.51"></path><path d="M337,425L412,425L337,352Z" fill="rgb(56,121,168)" stroke="rgb(56,121,168)" stroke-width="1.51"></path><path d="M487,49L489,-27L413,-27Z" fill="rgb(157,191,214)" stroke="rgb(157,191,214)" stroke-width="1.51"></path><path d="M563,-24L489,-27L487,49Z" fill="rgb(151,178,208)" stroke="rgb(151,178,208)" stroke-width="1.51"></path><path d="M412,425L488,352L411,349Z" fill="rgb(35,114,172)" stroke="rgb(35,114,172)" stroke-width="1.51"></path><path d="M560,201L560,123L488,197Z" fill="rgb(98,153,178)" stroke="rgb(98,153,178)" stroke-width="1.51"></path><path d="M488,197L560,123L486,125Z" fill="rgb(113,163,180)" stroke="rgb(113,163,180)" stroke-width="1.51"></path><path d="M560,201L488,197L485,276Z" fill="rgb(71,150,190)" stroke="rgb(71,150,190)" stroke-width="1.51"></path><path d="M561,276L560,201L485,276Z" fill="rgb(52,137,188)" stroke="rgb(52,137,188)" stroke-width="1.51"></path><path d="M-40,126L-115,199L-36,198Z" fill="rgb(198,233,214)" stroke="rgb(198,233,214)" stroke-width="1.51"></path><path d="M-40,272L-115,274L-39,349Z" fill="rgb(159,195,216)" stroke="rgb(159,195,216)" stroke-width="1.51"></path><path d="M-114,48L-114,124L-39,49Z" fill="rgb(231,246,224)" stroke="rgb(231,246,224)" stroke-width="1.51"></path><path d="M185,501L187,423L110,425Z" fill="rgb(119,143,163)" stroke="rgb(119,143,163)" stroke-width="1.51"></path><path d="M185,501L260,499L187,423Z" fill="rgb(107,139,158)" stroke="rgb(107,139,158)" stroke-width="1.51"></path><path d="M337,425L339,502L412,425Z" fill="rgb(56,121,169)" stroke="rgb(56,121,169)" stroke-width="1.51"></path><path d="M-114,124L-115,199L-40,126Z" fill="rgb(208,237,210)" stroke="rgb(208,237,210)" stroke-width="1.51"></path><path d="M113,501L185,501L110,425Z" fill="rgb(123,145,166)" stroke="rgb(123,145,166)" stroke-width="1.51"></path><path d="M-114,124L-114,48L-115,199Z" fill="rgb(217,240,214)" stroke="rgb(217,240,214)" stroke-width="1.51"></path><path d="M-39,-24L-114,48L-39,49Z" fill="rgb(242,250,235)" stroke="rgb(242,250,235)" stroke-width="1.51"></path><path d="M-114,-26L-114,48L-39,-24Z" fill="rgb(247,252,240)" stroke="rgb(247,252,240)" stroke-width="1.51"></path><path d="M488,352L561,276L485,276Z" fill="rgb(32,124,183)" stroke="rgb(32,124,183)" stroke-width="1.51"></path><path d="M635,48L563,48L560,123Z" fill="rgb(128,150,174)" stroke="rgb(128,150,174)" stroke-width="1.51"></path><path d="M-115,199L-115,274L-40,272Z" fill="rgb(172,216,226)" stroke="rgb(172,216,226)" stroke-width="1.51"></path><path d="M-40,425L38,423L-39,349Z" fill="rgb(141,152,185)" stroke="rgb(141,152,185)" stroke-width="1.51"></path><path d="M38,498L110,425L38,423Z" fill="rgb(132,149,176)" stroke="rgb(132,149,176)" stroke-width="1.51"></path><path d="M38,498L113,501L110,425Z" fill="rgb(129,147,172)" stroke="rgb(129,147,172)" stroke-width="1.51"></path><path d="M639,124L560,123L639,199Z" fill="rgb(104,138,156)" stroke="rgb(104,138,156)" stroke-width="1.51"></path><path d="M560,123L563,48L487,49Z" fill="rgb(134,165,188)" stroke="rgb(134,165,188)" stroke-width="1.51"></path><path d="M260,499L339,502L337,425Z" fill="rgb(74,129,164)" stroke="rgb(74,129,164)" stroke-width="1.51"></path><path d="M412,425L485,427L488,352Z" fill="rgb(27,98,158)" stroke="rgb(27,98,158)" stroke-width="1.51"></path><path d="M185,501L339,502L260,499Z" fill="rgb(92,135,159)" stroke="rgb(92,135,159)" stroke-width="1.51"></path><path d="M113,501L339,502L185,501Z" fill="rgb(107,139,158)" stroke="rgb(107,139,158)" stroke-width="1.51"></path><path d="M38,-101L-36,-100L39,-23Z" fill="rgb(245,251,238)" stroke="rgb(245,251,238)" stroke-width="1.51"></path><path d="M561,-102L487,-101L489,-27Z" fill="rgb(152,178,208)" stroke="rgb(152,178,208)" stroke-width="1.51"></path><path d="M489,-27L487,-101L413,-27Z" fill="rgb(157,191,214)" stroke="rgb(157,191,214)" stroke-width="1.51"></path><path d="M412,-98L487,-101L336,-99Z" fill="rgb(165,205,221)" stroke="rgb(165,205,221)" stroke-width="1.51"></path><path d="M-112,423L-40,425L-39,349Z" fill="rgb(141,152,185)" stroke="rgb(141,152,185)" stroke-width="1.51"></path><path d="M413,501L485,427L412,425Z" fill="rgb(34,104,161)" stroke="rgb(34,104,161)" stroke-width="1.51"></path><path d="M488,352L563,351L561,276Z" fill="rgb(21,109,173)" stroke="rgb(21,109,173)" stroke-width="1.51"></path><path d="M-40,425L38,498L38,423Z" fill="rgb(139,151,183)" stroke="rgb(139,151,183)" stroke-width="1.51"></path><path d="M-114,48L-115,-99L-115,199Z" fill="rgb(236,248,229)" stroke="rgb(236,248,229)" stroke-width="1.51"></path><path d="M-115,-99L-114,-26L-39,-24Z" fill="rgb(247,252,240)" stroke="rgb(247,252,240)" stroke-width="1.51"></path><path d="M563,48L563,-24L487,49Z" fill="rgb(143,169,198)" stroke="rgb(143,169,198)" stroke-width="1.51"></path><path d="M-115,274L-114,350L-39,349Z" fill="rgb(154,185,211)" stroke="rgb(154,185,211)" stroke-width="1.51"></path><path d="M562,423L563,351L488,352Z" fill="rgb(10,90,157)" stroke="rgb(10,90,157)" stroke-width="1.51"></path><path d="M639,199L560,123L560,201Z" fill="rgb(93,138,163)" stroke="rgb(93,138,163)" stroke-width="1.51"></path><path d="M339,502L413,501L412,425Z" fill="rgb(47,116,167)" stroke="rgb(47,116,167)" stroke-width="1.51"></path><path d="M485,427L562,423L488,352Z" fill="rgb(14,87,152)" stroke="rgb(14,87,152)" stroke-width="1.51"></path><path d="M639,199L560,201L639,276Z" fill="rgb(65,125,166)" stroke="rgb(65,125,166)" stroke-width="1.51"></path><path d="M563,48L635,48L563,-24Z" fill="rgb(137,154,183)" stroke="rgb(137,154,183)" stroke-width="1.51"></path><path d="M639,276L560,201L561,276Z" fill="rgb(50,123,173)" stroke="rgb(50,123,173)" stroke-width="1.51"></path><path d="M-40,425L-39,500L38,498Z" fill="rgb(141,152,184)" stroke="rgb(141,152,184)" stroke-width="1.51"></path><path d="M-114,350L-112,423L-39,349Z" fill="rgb(146,163,196)" stroke="rgb(146,163,196)" stroke-width="1.51"></path><path d="M-36,-100L-115,-99L-39,-24Z" fill="rgb(247,252,240)" stroke="rgb(247,252,240)" stroke-width="1.51"></path><path d="M-114,-26L-115,-99L-114,48Z" fill="rgb(247,252,240)" stroke="rgb(247,252,240)" stroke-width="1.51"></path><path d="M38,-101L-115,-99L-36,-100Z" fill="rgb(247,252,240)" stroke="rgb(247,252,240)" stroke-width="1.51"></path><path d="M188,-103L-115,-99L38,-101Z" fill="rgb(242,250,235)" stroke="rgb(242,250,235)" stroke-width="1.51"></path><path d="M639,124L635,48L560,123Z" fill="rgb(122,144,164)" stroke="rgb(122,144,164)" stroke-width="1.51"></path><path d="M563,-24L561,-102L489,-27Z" fill="rgb(149,171,203)" stroke="rgb(149,171,203)" stroke-width="1.51"></path><path d="M637,-99L561,-102L563,-24Z" fill="rgb(142,156,188)" stroke="rgb(142,156,188)" stroke-width="1.51"></path><path d="M487,-101L561,-102L188,-103Z" fill="rgb(165,205,221)" stroke="rgb(165,205,221)" stroke-width="1.51"></path><path d="M563,351L639,276L561,276Z" fill="rgb(30,104,163)" stroke="rgb(30,104,163)" stroke-width="1.51"></path><path d="M564,501L562,423L485,427Z" fill="rgb(9,80,147)" stroke="rgb(9,80,147)" stroke-width="1.51"></path><path d="M413,501L485,500L485,427Z" fill="rgb(28,99,158)" stroke="rgb(28,99,158)" stroke-width="1.51"></path><path d="M-114,500L-39,500L-40,425Z" fill="rgb(141,152,184)" stroke="rgb(141,152,184)" stroke-width="1.51"></path><path d="M38,498L-39,500L113,501Z" fill="rgb(136,150,179)" stroke="rgb(136,150,179)" stroke-width="1.51"></path><path d="M639,350L639,276L563,351Z" fill="rgb(21,92,155)" stroke="rgb(21,92,155)" stroke-width="1.51"></path><path d="M635,48L636,-26L563,-24Z" fill="rgb(141,152,184)" stroke="rgb(141,152,184)" stroke-width="1.51"></path><path d="M710,-26L636,-26L635,48Z" fill="rgb(141,152,184)" stroke="rgb(141,152,184)" stroke-width="1.51"></path><path d="M636,426L639,350L563,351Z" fill="rgb(9,73,139)" stroke="rgb(9,73,139)" stroke-width="1.51"></path><path d="M636,426L563,351L562,423Z" fill="rgb(9,67,132)" stroke="rgb(9,67,132)" stroke-width="1.51"></path><path d="M-112,423L-114,500L-40,425Z" fill="rgb(141,152,184)" stroke="rgb(141,152,184)" stroke-width="1.51"></path><path d="M-39,500L-114,500L113,501Z" fill="rgb(141,152,184)" stroke="rgb(141,152,184)" stroke-width="1.51"></path><path d="M113,501L-114,500L339,502Z" fill="rgb(126,146,169)" stroke="rgb(126,146,169)" stroke-width="1.51"></path><path d="M-114,350L-114,500L-112,423Z" fill="rgb(141,152,184)" stroke="rgb(141,152,184)" stroke-width="1.51"></path><path d="M-115,274L-114,500L-114,350Z" fill="rgb(146,163,196)" stroke="rgb(146,163,196)" stroke-width="1.51"></path><path d="M339,502L564,501L413,501Z" fill="rgb(33,104,161)" stroke="rgb(33,104,161)" stroke-width="1.51"></path><path d="M413,501L564,501L485,500Z" fill="rgb(21,92,155)" stroke="rgb(21,92,155)" stroke-width="1.51"></path><path d="M485,500L564,501L485,427Z" fill="rgb(14,87,152)" stroke="rgb(14,87,152)" stroke-width="1.51"></path><path d="M639,124L710,51L635,48Z" fill="rgb(126,146,169)" stroke="rgb(126,146,169)" stroke-width="1.51"></path><path d="M639,199L710,126L639,124Z" fill="rgb(104,138,156)" stroke="rgb(104,138,156)" stroke-width="1.51"></path><path d="M710,198L710,126L639,199Z" fill="rgb(92,135,159)" stroke="rgb(92,135,159)" stroke-width="1.51"></path><path d="M710,198L639,199L639,276Z" fill="rgb(66,125,166)" stroke="rgb(66,125,166)" stroke-width="1.51"></path><path d="M714,275L710,198L639,276Z" fill="rgb(50,119,169)" stroke="rgb(50,119,169)" stroke-width="1.51"></path><path d="M636,-26L637,-99L563,-24Z" fill="rgb(141,152,184)" stroke="rgb(141,152,184)" stroke-width="1.51"></path><path d="M710,-26L637,-99L636,-26Z" fill="rgb(141,152,184)" stroke="rgb(141,152,184)" stroke-width="1.51"></path><path d="M712,348L714,275L639,276Z" fill="rgb(30,101,159)" stroke="rgb(30,101,159)" stroke-width="1.51"></path><path d="M564,501L636,426L562,423Z" fill="rgb(9,67,132)" stroke="rgb(9,67,132)" stroke-width="1.51"></path><path d="M710,126L710,51L639,124Z" fill="rgb(121,144,164)" stroke="rgb(121,144,164)" stroke-width="1.51"></path><path d="M712,348L639,276L639,350Z" fill="rgb(21,92,155)" stroke="rgb(21,92,155)" stroke-width="1.51"></path><path d="M710,198L714,275L710,126Z" fill="rgb(78,131,163)" stroke="rgb(78,131,163)" stroke-width="1.51"></path><path d="M710,126L714,275L710,51Z" fill="rgb(103,138,156)" stroke="rgb(103,138,156)" stroke-width="1.51"></path><path d="M710,51L710,-26L635,48Z" fill="rgb(136,150,179)" stroke="rgb(136,150,179)" stroke-width="1.51"></path><path d="M714,-102L710,-26L710,51Z" fill="rgb(141,152,184)" stroke="rgb(141,152,184)" stroke-width="1.51"></path><path d="M713,426L639,350L636,426Z" fill="rgb(8,64,129)" stroke="rgb(8,64,129)" stroke-width="1.51"></path><path d="M713,426L712,348L639,350Z" fill="rgb(9,74,140)" stroke="rgb(9,74,140)" stroke-width="1.51"></path><path d="M564,501L635,501L636,426Z" fill="rgb(8,64,129)" stroke="rgb(8,64,129)" stroke-width="1.51"></path><path d="M339,502L635,501L564,501Z" fill="rgb(14,87,152)" stroke="rgb(14,87,152)" stroke-width="1.51"></path><path d="M710,-26L714,-102L637,-99Z" fill="rgb(141,152,184)" stroke="rgb(141,152,184)" stroke-width="1.51"></path><path d="M637,-99L714,-102L561,-102Z" fill="rgb(141,152,184)" stroke="rgb(141,152,184)" stroke-width="1.51"></path><path d="M561,-102L714,-102L188,-103Z" fill="rgb(154,185,211)" stroke="rgb(154,185,211)" stroke-width="1.51"></path><path d="M714,275L714,-102L710,51Z" fill="rgb(126,146,169)" stroke="rgb(126,146,169)" stroke-width="1.51"></path><path d="M713,501L713,426L636,426Z" fill="rgb(8,64,129)" stroke="rgb(8,64,129)" stroke-width="1.51"></path><path d="M712,348L713,426L714,275Z" fill="rgb(10,84,150)" stroke="rgb(10,84,150)" stroke-width="1.51"></path><path d="M635,501L713,501L636,426Z" fill="rgb(8,64,129)" stroke="rgb(8,64,129)" stroke-width="1.51"></path><path d="M713,426L713,501L714,275Z" fill="rgb(8,64,129)" stroke="rgb(8,64,129)" stroke-width="1.51"></path><path d="M339,502L713,501L635,501Z" fill="rgb(9,74,139)" stroke="rgb(9,74,139)" stroke-width="1.51"></path></svg>