<svg width="600" height="400" xmlns="http://www.w3.org/2000/svg"><path d="M318,193L421,220L358,135Z" fill="rgb(141,141,141)" stroke="rgb(141,141,141)" stroke-width="1.51"></path><path d="M421,220L431,105L358,135Z" fill="rgb(143,143,143)" stroke="rgb(143,143,143)" stroke-width="1.51"></path><path d="M472,115L431,105L421,220Z" fill="rgb(137,137,137)" stroke="rgb(137,137,137)" stroke-width="1.51"></path><path d="M318,193L317,277L421,220Z" fill="rgb(127,127,127)" stroke="rgb(127,127,127)" stroke-width="1.51"></path><path d="M421,220L433,283L468,223Z" fill="rgb(103,103,103)" stroke="rgb(103,103,103)" stroke-width="1.51"></path><path d="M317,277L433,283L421,220Z" fill="rgb(108,108,108)" stroke="rgb(108,108,108)" stroke-width="1.51"></path><path d="M318,193L282,268L317,277Z" fill="rgb(132,132,132)" stroke="rgb(132,132,132)" stroke-width="1.51"></path><path d="M468,223L472,115L421,220Z" fill="rgb(119,119,119)" stroke="rgb(119,119,119)" stroke-width="1.51"></path><path d="M318,193L246,196L282,268Z" fill="rgb(148,148,148)" stroke="rgb(148,148,148)" stroke-width="1.51"></path><path d="M251,110L246,196L318,193Z" fill="rgb(170,170,170)" stroke="rgb(170,170,170)" stroke-width="1.51"></path><path d="M468,223L549,175L472,115Z" fill="rgb(110,110,110)" stroke="rgb(110,110,110)" stroke-width="1.51"></path><path d="M433,283L470,282L468,223Z" fill="rgb(92,92,92)" stroke="rgb(92,92,92)" stroke-width="1.51"></path><path d="M358,135L251,110L318,193Z" fill="rgb(168,168,168)" stroke="rgb(168,168,168)" stroke-width="1.51"></path><path d="M335,42L251,110L358,135Z" fill="rgb(180,180,180)" stroke="rgb(180,180,180)" stroke-width="1.51"></path><path d="M433,283L399,337L470,282Z" fill="rgb(85,85,85)" stroke="rgb(85,85,85)" stroke-width="1.51"></path><path d="M317,277L399,337L433,283Z" fill="rgb(97,97,97)" stroke="rgb(97,97,97)" stroke-width="1.51"></path><path d="M321,350L399,337L317,277Z" fill="rgb(94,94,94)" stroke="rgb(94,94,94)" stroke-width="1.51"></path><path d="M431,105L335,42L358,135Z" fill="rgb(166,166,166)" stroke="rgb(166,166,166)" stroke-width="1.51"></path><path d="M428,42L335,42L431,105Z" fill="rgb(167,167,167)" stroke="rgb(167,167,167)" stroke-width="1.51"></path><path d="M468,53L428,42L431,105Z" fill="rgb(155,155,155)" stroke="rgb(155,155,155)" stroke-width="1.51"></path><path d="M472,115L468,53L431,105Z" fill="rgb(146,146,146)" stroke="rgb(146,146,146)" stroke-width="1.51"></path><path d="M253,333L321,350L317,277Z" fill="rgb(106,106,106)" stroke="rgb(106,106,106)" stroke-width="1.51"></path><path d="M253,333L317,277L282,268Z" fill="rgb(122,122,122)" stroke="rgb(122,122,122)" stroke-width="1.51"></path><path d="M335,42L277,43L251,110Z" fill="rgb(194,194,194)" stroke="rgb(194,194,194)" stroke-width="1.51"></path><path d="M585,261L549,175L468,223Z" fill="rgb(82,82,82)" stroke="rgb(82,82,82)" stroke-width="1.51"></path><path d="M472,115L553,28L468,53Z" fill="rgb(137,137,137)" stroke="rgb(137,137,137)" stroke-width="1.51"></path><path d="M246,196L202,296L282,268Z" fill="rgb(145,145,145)" stroke="rgb(145,145,145)" stroke-width="1.51"></path><path d="M194,137L195,198L246,196Z" fill="rgb(181,181,181)" stroke="rgb(181,181,181)" stroke-width="1.51"></path><path d="M194,137L246,196L251,110Z" fill="rgb(188,188,188)" stroke="rgb(188,188,188)" stroke-width="1.51"></path><path d="M549,175L556,146L472,115Z" fill="rgb(109,109,109)" stroke="rgb(109,109,109)" stroke-width="1.51"></path><path d="M198,43L194,137L251,110Z" fill="rgb(206,206,206)" stroke="rgb(206,206,206)" stroke-width="1.51"></path><path d="M202,296L253,333L282,268Z" fill="rgb(129,129,129)" stroke="rgb(129,129,129)" stroke-width="1.51"></path><path d="M195,198L202,296L246,196Z" fill="rgb(160,160,160)" stroke="rgb(160,160,160)" stroke-width="1.51"></path><path d="M497,-37L412,-22L428,42Z" fill="rgb(165,165,165)" stroke="rgb(165,165,165)" stroke-width="1.51"></path><path d="M428,42L412,-22L335,42Z" fill="rgb(176,176,176)" stroke="rgb(176,176,176)" stroke-width="1.51"></path><path d="M335,42L254,-40L277,43Z" fill="rgb(202,202,202)" stroke="rgb(202,202,202)" stroke-width="1.51"></path><path d="M497,-37L428,42L468,53Z" fill="rgb(156,156,156)" stroke="rgb(156,156,156)" stroke-width="1.51"></path><path d="M399,337L498,368L470,282Z" fill="rgb(66,66,66)" stroke="rgb(66,66,66)" stroke-width="1.51"></path><path d="M470,282L585,261L468,223Z" fill="rgb(78,78,78)" stroke="rgb(78,78,78)" stroke-width="1.51"></path><path d="M479,434L498,368L399,337Z" fill="rgb(47,47,47)" stroke="rgb(47,47,47)" stroke-width="1.51"></path><path d="M572,330L585,261L470,282Z" fill="rgb(58,58,58)" stroke="rgb(58,58,58)" stroke-width="1.51"></path><path d="M636,176L615,119L556,146Z" fill="rgb(91,91,91)" stroke="rgb(91,91,91)" stroke-width="1.51"></path><path d="M277,43L198,43L251,110Z" fill="rgb(206,206,206)" stroke="rgb(206,206,206)" stroke-width="1.51"></path><path d="M254,-40L198,43L277,43Z" fill="rgb(214,214,214)" stroke="rgb(214,214,214)" stroke-width="1.51"></path><path d="M412,-22L354,-47L335,42Z" fill="rgb(185,185,185)" stroke="rgb(185,185,185)" stroke-width="1.51"></path><path d="M195,198L126,293L202,296Z" fill="rgb(156,156,156)" stroke="rgb(156,156,156)" stroke-width="1.51"></path><path d="M194,137L135,192L195,198Z" fill="rgb(188,188,188)" stroke="rgb(188,188,188)" stroke-width="1.51"></path><path d="M132,127L135,192L194,137Z" fill="rgb(201,201,201)" stroke="rgb(201,201,201)" stroke-width="1.51"></path><path d="M321,350L340,426L399,337Z" fill="rgb(72,72,72)" stroke="rgb(72,72,72)" stroke-width="1.51"></path><path d="M253,441L340,426L321,350Z" fill="rgb(72,72,72)" stroke="rgb(72,72,72)" stroke-width="1.51"></path><path d="M253,441L321,350L253,333Z" fill="rgb(87,87,87)" stroke="rgb(87,87,87)" stroke-width="1.51"></path><path d="M556,146L553,28L472,115Z" fill="rgb(121,121,121)" stroke="rgb(121,121,121)" stroke-width="1.51"></path><path d="M412,-22L422,-91L354,-47Z" fill="rgb(178,178,178)" stroke="rgb(178,178,178)" stroke-width="1.51"></path><path d="M615,119L553,28L556,146Z" fill="rgb(109,109,109)" stroke="rgb(109,109,109)" stroke-width="1.51"></path><path d="M498,368L572,330L470,282Z" fill="rgb(50,50,50)" stroke="rgb(50,50,50)" stroke-width="1.51"></path><path d="M198,43L132,127L194,137Z" fill="rgb(212,212,212)" stroke="rgb(212,212,212)" stroke-width="1.51"></path><path d="M636,176L549,175L585,261Z" fill="rgb(74,74,74)" stroke="rgb(74,74,74)" stroke-width="1.51"></path><path d="M636,176L556,146L549,175Z" fill="rgb(90,90,90)" stroke="rgb(90,90,90)" stroke-width="1.51"></path><path d="M553,28L497,-37L468,53Z" fill="rgb(143,143,143)" stroke="rgb(143,143,143)" stroke-width="1.51"></path><path d="M198,43L122,44L132,127Z" fill="rgb(223,223,223)" stroke="rgb(223,223,223)" stroke-width="1.51"></path><path d="M354,-47L254,-40L335,42Z" fill="rgb(198,198,198)" stroke="rgb(198,198,198)" stroke-width="1.51"></path><path d="M498,368L564,428L572,330Z" fill="rgb(25,25,25)" stroke="rgb(25,25,25)" stroke-width="1.51"></path><path d="M340,426L418,447L399,337Z" fill="rgb(55,55,55)" stroke="rgb(55,55,55)" stroke-width="1.51"></path><path d="M636,266L636,176L585,261Z" fill="rgb(62,62,62)" stroke="rgb(62,62,62)" stroke-width="1.51"></path><path d="M202,296L177,364L253,333Z" fill="rgb(120,120,120)" stroke="rgb(120,120,120)" stroke-width="1.51"></path><path d="M126,293L177,364L202,296Z" fill="rgb(134,134,134)" stroke="rgb(134,134,134)" stroke-width="1.51"></path><path d="M418,447L479,434L399,337Z" fill="rgb(46,46,46)" stroke="rgb(46,46,46)" stroke-width="1.51"></path><path d="M135,192L126,293L195,198Z" fill="rgb(172,172,172)" stroke="rgb(172,172,172)" stroke-width="1.51"></path><path d="M16,265L126,293L135,192Z" fill="rgb(173,173,173)" stroke="rgb(173,173,173)" stroke-width="1.51"></path><path d="M572,330L636,266L585,261Z" fill="rgb(47,47,47)" stroke="rgb(47,47,47)" stroke-width="1.51"></path><path d="M659,335L636,266L572,330Z" fill="rgb(38,38,38)" stroke="rgb(38,38,38)" stroke-width="1.51"></path><path d="M177,364L253,441L253,333Z" fill="rgb(97,97,97)" stroke="rgb(97,97,97)" stroke-width="1.51"></path><path d="M340,426L394,497L418,447Z" fill="rgb(56,56,56)" stroke="rgb(56,56,56)" stroke-width="1.51"></path><path d="M497,-37L422,-91L412,-22Z" fill="rgb(166,166,166)" stroke="rgb(166,166,166)" stroke-width="1.51"></path><path d="M354,-47L284,-99L254,-40Z" fill="rgb(202,202,202)" stroke="rgb(202,202,202)" stroke-width="1.51"></path><path d="M254,-40L177,-23L198,43Z" fill="rgb(225,225,225)" stroke="rgb(225,225,225)" stroke-width="1.51"></path><path d="M195,-124L177,-23L254,-40Z" fill="rgb(225,225,225)" stroke="rgb(225,225,225)" stroke-width="1.51"></path><path d="M177,-23L122,44L198,43Z" fill="rgb(230,230,230)" stroke="rgb(230,230,230)" stroke-width="1.51"></path><path d="M132,127L27,183L135,192Z" fill="rgb(204,204,204)" stroke="rgb(204,204,204)" stroke-width="1.51"></path><path d="M553,28L576,-33L497,-37Z" fill="rgb(133,133,133)" stroke="rgb(133,133,133)" stroke-width="1.51"></path><path d="M615,119L644,69L553,28Z" fill="rgb(108,108,108)" stroke="rgb(108,108,108)" stroke-width="1.51"></path><path d="M718,126L644,69L615,119Z" fill="rgb(101,101,101)" stroke="rgb(101,101,101)" stroke-width="1.51"></path><path d="M718,126L615,119L636,176Z" fill="rgb(92,92,92)" stroke="rgb(92,92,92)" stroke-width="1.51"></path><path d="M177,364L169,442L253,441Z" fill="rgb(94,94,94)" stroke="rgb(94,94,94)" stroke-width="1.51"></path><path d="M126,293L130,361L177,364Z" fill="rgb(127,127,127)" stroke="rgb(127,127,127)" stroke-width="1.51"></path><path d="M646,-14L576,-33L553,28Z" fill="rgb(121,121,121)" stroke="rgb(121,121,121)" stroke-width="1.51"></path><path d="M497,-37L483,-110L422,-91Z" fill="rgb(158,158,158)" stroke="rgb(158,158,158)" stroke-width="1.51"></path><path d="M314,-123L284,-99L354,-47Z" fill="rgb(197,197,197)" stroke="rgb(197,197,197)" stroke-width="1.51"></path><path d="M479,434L564,428L498,368Z" fill="rgb(25,25,25)" stroke="rgb(25,25,25)" stroke-width="1.51"></path><path d="M578,499L564,428L479,434Z" fill="rgb(19,19,19)" stroke="rgb(19,19,19)" stroke-width="1.51"></path><path d="M323,507L394,497L340,426Z" fill="rgb(62,62,62)" stroke="rgb(62,62,62)" stroke-width="1.51"></path><path d="M418,447L474,519L479,434Z" fill="rgb(41,41,41)" stroke="rgb(41,41,41)" stroke-width="1.51"></path><path d="M95,-77L114,-4L177,-23Z" fill="rgb(239,239,239)" stroke="rgb(239,239,239)" stroke-width="1.51"></path><path d="M422,-91L314,-123L354,-47Z" fill="rgb(185,185,185)" stroke="rgb(185,185,185)" stroke-width="1.51"></path><path d="M422,-91L483,-110L314,-123Z" fill="rgb(175,175,175)" stroke="rgb(175,175,175)" stroke-width="1.51"></path><path d="M568,-110L483,-110L497,-37Z" fill="rgb(141,141,141)" stroke="rgb(141,141,141)" stroke-width="1.51"></path><path d="M726,189L718,126L636,176Z" fill="rgb(85,85,85)" stroke="rgb(85,85,85)" stroke-width="1.51"></path><path d="M620,445L659,335L572,330Z" fill="rgb(15,15,15)" stroke="rgb(15,15,15)" stroke-width="1.51"></path><path d="M248,515L323,507L253,441Z" fill="rgb(79,79,79)" stroke="rgb(79,79,79)" stroke-width="1.51"></path><path d="M253,441L323,507L340,426Z" fill="rgb(72,72,72)" stroke="rgb(72,72,72)" stroke-width="1.51"></path><path d="M177,-23L114,-4L122,44Z" fill="rgb(237,237,237)" stroke="rgb(237,237,237)" stroke-width="1.51"></path><path d="M122,44L58,69L132,127Z" fill="rgb(228,228,228)" stroke="rgb(228,228,228)" stroke-width="1.51"></path><path d="M195,-124L254,-40L284,-99Z" fill="rgb(216,216,216)" stroke="rgb(216,216,216)" stroke-width="1.51"></path><path d="M130,361L169,442L177,364Z" fill="rgb(105,105,105)" stroke="rgb(105,105,105)" stroke-width="1.51"></path><path d="M114,-4L58,69L122,44Z" fill="rgb(238,238,238)" stroke="rgb(238,238,238)" stroke-width="1.51"></path><path d="M126,293L15,351L130,361Z" fill="rgb(137,137,137)" stroke="rgb(137,137,137)" stroke-width="1.51"></path><path d="M576,-33L568,-110L497,-37Z" fill="rgb(132,132,132)" stroke="rgb(132,132,132)" stroke-width="1.51"></path><path d="M644,69L646,-14L553,28Z" fill="rgb(115,115,115)" stroke="rgb(115,115,115)" stroke-width="1.51"></path><path d="M689,33L646,-14L644,69Z" fill="rgb(115,115,115)" stroke="rgb(115,115,115)" stroke-width="1.51"></path><path d="M564,428L620,445L572,330Z" fill="rgb(5,5,5)" stroke="rgb(5,5,5)" stroke-width="1.51"></path><path d="M394,497L474,519L418,447Z" fill="rgb(47,47,47)" stroke="rgb(47,47,47)" stroke-width="1.51"></path><path d="M323,507L474,519L394,497Z" fill="rgb(53,53,53)" stroke="rgb(53,53,53)" stroke-width="1.51"></path><path d="M24,136L27,183L132,127Z" fill="rgb(216,216,216)" stroke="rgb(216,216,216)" stroke-width="1.51"></path><path d="M130,361L111,446L169,442Z" fill="rgb(104,104,104)" stroke="rgb(104,104,104)" stroke-width="1.51"></path><path d="M726,189L636,176L636,266Z" fill="rgb(70,70,70)" stroke="rgb(70,70,70)" stroke-width="1.51"></path><path d="M186,517L248,515L253,441Z" fill="rgb(89,89,89)" stroke="rgb(89,89,89)" stroke-width="1.51"></path><path d="M323,507L248,515L474,519Z" fill="rgb(63,63,63)" stroke="rgb(63,63,63)" stroke-width="1.51"></path><path d="M718,126L689,33L644,69Z" fill="rgb(107,107,107)" stroke="rgb(107,107,107)" stroke-width="1.51"></path><path d="M733,271L726,189L636,266Z" fill="rgb(60,60,60)" stroke="rgb(60,60,60)" stroke-width="1.51"></path><path d="M58,69L24,136L132,127Z" fill="rgb(226,226,226)" stroke="rgb(226,226,226)" stroke-width="1.51"></path><path d="M659,335L733,271L636,266Z" fill="rgb(45,45,45)" stroke="rgb(45,45,45)" stroke-width="1.51"></path><path d="M578,499L620,445L564,428Z" fill="rgb(4,5,4)" stroke="rgb(4,5,4)" stroke-width="1.51"></path><path d="M483,-110L568,-110L314,-123Z" fill="rgb(162,162,162)" stroke="rgb(162,162,162)" stroke-width="1.51"></path><path d="M660,-94L568,-110L576,-33Z" fill="rgb(119,119,119)" stroke="rgb(119,119,119)" stroke-width="1.51"></path><path d="M660,-94L576,-33L646,-14Z" fill="rgb(119,119,119)" stroke="rgb(119,119,119)" stroke-width="1.51"></path><path d="M114,-4L22,-22L58,69Z" fill="rgb(246,246,246)" stroke="rgb(246,246,246)" stroke-width="1.51"></path><path d="M314,-123L195,-124L284,-99Z" fill="rgb(211,211,211)" stroke="rgb(211,211,211)" stroke-width="1.51"></path><path d="M-20,204L16,265L27,183Z" fill="rgb(194,194,194)" stroke="rgb(194,194,194)" stroke-width="1.51"></path><path d="M27,183L16,265L135,192Z" fill="rgb(191,191,191)" stroke="rgb(191,191,191)" stroke-width="1.51"></path><path d="M169,442L186,517L253,441Z" fill="rgb(94,94,94)" stroke="rgb(94,94,94)" stroke-width="1.51"></path><path d="M15,351L111,446L130,361Z" fill="rgb(116,116,116)" stroke="rgb(116,116,116)" stroke-width="1.51"></path><path d="M714,334L733,271L659,335Z" fill="rgb(37,37,37)" stroke="rgb(37,37,37)" stroke-width="1.51"></path><path d="M701,403L714,334L659,335Z" fill="rgb(20,20,20)" stroke="rgb(20,20,20)" stroke-width="1.51"></path><path d="M474,519L578,499L479,434Z" fill="rgb(26,26,26)" stroke="rgb(26,26,26)" stroke-width="1.51"></path><path d="M620,445L701,403L659,335Z" fill="rgb(3,3,3)" stroke="rgb(3,3,3)" stroke-width="1.51"></path><path d="M93,479L186,517L169,442Z" fill="rgb(102,102,102)" stroke="rgb(102,102,102)" stroke-width="1.51"></path><path d="M248,515L186,517L474,519Z" fill="rgb(73,73,73)" stroke="rgb(73,73,73)" stroke-width="1.51"></path><path d="M195,-124L95,-77L177,-23Z" fill="rgb(235,235,235)" stroke="rgb(235,235,235)" stroke-width="1.51"></path><path d="M58,69L-46,115L24,136Z" fill="rgb(233,233,233)" stroke="rgb(233,233,233)" stroke-width="1.51"></path><path d="M734,491L701,403L620,445Z" fill="rgb(0,0,0)" stroke="rgb(0,0,0)" stroke-width="1.51"></path><path d="M714,334L734,491L733,271Z" fill="rgb(17,17,17)" stroke="rgb(17,17,17)" stroke-width="1.51"></path><path d="M16,265L15,351L126,293Z" fill="rgb(158,158,158)" stroke="rgb(158,158,158)" stroke-width="1.51"></path><path d="M16,265L-34,274L15,351Z" fill="rgb(165,165,165)" stroke="rgb(165,165,165)" stroke-width="1.51"></path><path d="M24,136L-20,204L27,183Z" fill="rgb(211,211,211)" stroke="rgb(211,211,211)" stroke-width="1.51"></path><path d="M-46,115L-20,204L24,136Z" fill="rgb(221,221,221)" stroke="rgb(221,221,221)" stroke-width="1.51"></path><path d="M689,33L705,-39L646,-14Z" fill="rgb(119,119,119)" stroke="rgb(119,119,119)" stroke-width="1.51"></path><path d="M718,126L705,-39L689,33Z" fill="rgb(114,114,114)" stroke="rgb(114,114,114)" stroke-width="1.51"></path><path d="M726,189L705,-39L718,126Z" fill="rgb(104,104,104)" stroke="rgb(104,104,104)" stroke-width="1.51"></path><path d="M690,-79L660,-94L646,-14Z" fill="rgb(119,119,119)" stroke="rgb(119,119,119)" stroke-width="1.51"></path><path d="M111,446L93,479L169,442Z" fill="rgb(106,106,106)" stroke="rgb(106,106,106)" stroke-width="1.51"></path><path d="M23,449L93,479L111,446Z" fill="rgb(112,112,112)" stroke="rgb(112,112,112)" stroke-width="1.51"></path><path d="M95,-77L22,-22L114,-4Z" fill="rgb(247,247,247)" stroke="rgb(247,247,247)" stroke-width="1.51"></path><path d="M705,-39L690,-79L646,-14Z" fill="rgb(119,119,119)" stroke="rgb(119,119,119)" stroke-width="1.51"></path><path d="M15,351L23,449L111,446Z" fill="rgb(115,115,115)" stroke="rgb(115,115,115)" stroke-width="1.51"></path><path d="M-20,204L-34,274L16,265Z" fill="rgb(184,184,184)" stroke="rgb(184,184,184)" stroke-width="1.51"></path><path d="M-94,254L-34,274L-20,204Z" fill="rgb(185,185,185)" stroke="rgb(185,185,185)" stroke-width="1.51"></path><path d="M578,499L644,513L620,445Z" fill="rgb(0,0,0)" stroke="rgb(0,0,0)" stroke-width="1.51"></path><path d="M474,519L644,513L578,499Z" fill="rgb(12,12,12)" stroke="rgb(12,12,12)" stroke-width="1.51"></path><path d="M-59,54L-46,115L58,69Z" fill="rgb(240,240,240)" stroke="rgb(240,240,240)" stroke-width="1.51"></path><path d="M-34,436L23,449L15,351Z" fill="rgb(119,119,119)" stroke="rgb(119,119,119)" stroke-width="1.51"></path><path d="M-34,274L-40,364L15,351Z" fill="rgb(149,149,149)" stroke="rgb(149,149,149)" stroke-width="1.51"></path><path d="M-136,325L-40,364L-34,274Z" fill="rgb(153,153,153)" stroke="rgb(153,153,153)" stroke-width="1.51"></path><path d="M-128,183L-94,254L-20,204Z" fill="rgb(196,196,196)" stroke="rgb(196,196,196)" stroke-width="1.51"></path><path d="M22,-22L-59,54L58,69Z" fill="rgb(249,249,249)" stroke="rgb(249,249,249)" stroke-width="1.51"></path><path d="M-15,-84L-39,-14L22,-22Z" fill="rgb(255,255,255)" stroke="rgb(255,255,255)" stroke-width="1.51"></path><path d="M22,-22L-39,-14L-59,54Z" fill="rgb(254,254,254)" stroke="rgb(254,254,254)" stroke-width="1.51"></path><path d="M95,-77L29,-122L22,-22Z" fill="rgb(250,250,250)" stroke="rgb(250,250,250)" stroke-width="1.51"></path><path d="M195,-124L29,-122L95,-77Z" fill="rgb(242,242,242)" stroke="rgb(242,242,242)" stroke-width="1.51"></path><path d="M23,449L30,501L93,479Z" fill="rgb(115,115,115)" stroke="rgb(115,115,115)" stroke-width="1.51"></path><path d="M93,479L30,501L186,517Z" fill="rgb(108,108,108)" stroke="rgb(108,108,108)" stroke-width="1.51"></path><path d="M-60,491L30,501L23,449Z" fill="rgb(119,119,119)" stroke="rgb(119,119,119)" stroke-width="1.51"></path><path d="M701,403L734,491L714,334Z" fill="rgb(0,0,0)" stroke="rgb(0,0,0)" stroke-width="1.51"></path><path d="M644,513L734,491L620,445Z" fill="rgb(0,0,0)" stroke="rgb(0,0,0)" stroke-width="1.51"></path><path d="M-128,183L-20,204L-46,115Z" fill="rgb(214,214,214)" stroke="rgb(214,214,214)" stroke-width="1.51"></path><path d="M29,-122L-15,-84L22,-22Z" fill="rgb(254,254,254)" stroke="rgb(254,254,254)" stroke-width="1.51"></path><path d="M-102,412L-34,436L-40,364Z" fill="rgb(119,119,119)" stroke="rgb(119,119,119)" stroke-width="1.51"></path><path d="M-40,364L-34,436L15,351Z" fill="rgb(125,125,125)" stroke="rgb(125,125,125)" stroke-width="1.51"></path><path d="M-59,54L-118,103L-46,115Z" fill="rgb(238,238,238)" stroke="rgb(238,238,238)" stroke-width="1.51"></path><path d="M-111,54L-118,103L-59,54Z" fill="rgb(243,243,243)" stroke="rgb(243,243,243)" stroke-width="1.51"></path><path d="M-111,54L-59,54L-39,-14Z" fill="rgb(250,250,250)" stroke="rgb(250,250,250)" stroke-width="1.51"></path><path d="M-118,103L-128,183L-46,115Z" fill="rgb(226,226,226)" stroke="rgb(226,226,226)" stroke-width="1.51"></path><path d="M-136,325L-102,412L-40,364Z" fill="rgb(131,131,131)" stroke="rgb(131,131,131)" stroke-width="1.51"></path><path d="M-116,-46L-111,54L-39,-14Z" fill="rgb(255,255,255)" stroke="rgb(255,255,255)" stroke-width="1.51"></path><path d="M-136,325L-34,274L-94,254Z" fill="rgb(170,170,170)" stroke="rgb(170,170,170)" stroke-width="1.51"></path><path d="M-34,436L-60,491L23,449Z" fill="rgb(119,119,119)" stroke="rgb(119,119,119)" stroke-width="1.51"></path><path d="M-128,183L-136,325L-94,254Z" fill="rgb(181,181,181)" stroke="rgb(181,181,181)" stroke-width="1.51"></path><path d="M-102,412L-60,491L-34,436Z" fill="rgb(119,119,119)" stroke="rgb(119,119,119)" stroke-width="1.51"></path><path d="M-128,183L-116,-46L-136,325Z" fill="rgb(220,220,220)" stroke="rgb(220,220,220)" stroke-width="1.51"></path><path d="M-118,103L-116,-46L-128,183Z" fill="rgb(240,240,240)" stroke="rgb(240,240,240)" stroke-width="1.51"></path><path d="M-111,54L-116,-46L-118,103Z" fill="rgb(249,249,249)" stroke="rgb(249,249,249)" stroke-width="1.51"></path><path d="M-15,-84L-116,-46L-39,-14Z" fill="rgb(255,255,255)" stroke="rgb(255,255,255)" stroke-width="1.51"></path><path d="M-110,-112L-116,-46L-15,-84Z" fill="rgb(255,255,255)" stroke="rgb(255,255,255)" stroke-width="1.51"></path><path d="M29,-122L-110,-112L-15,-84Z" fill="rgb(255,255,255)" stroke="rgb(255,255,255)" stroke-width="1.51"></path><path d="M-60,491L-130,509L30,501Z" fill="rgb(119,119,119)" stroke="rgb(119,119,119)" stroke-width="1.51"></path><path d="M30,501L-130,509L186,517Z" fill="rgb(116,116,116)" stroke="rgb(116,116,116)" stroke-width="1.51"></path><path d="M-102,412L-130,509L-60,491Z" fill="rgb(119,119,119)" stroke="rgb(119,119,119)" stroke-width="1.51"></path><path d="M-136,325L-130,509L-102,412Z" fill="rgb(119,119,119)" stroke="rgb(119,119,119)" stroke-width="1.51"></path></svg>