<svg width="600" height="400" xmlns="http://www.w3.org/2000/svg"><path d="M275,235L256,258L311,266Z" fill="rgb(96,158,201)" stroke="rgb(96,158,201)" stroke-width="1.51"></path><path d="M311,266L335,223L275,235Z" fill="rgb(91,157,201)" stroke="rgb(91,157,201)" stroke-width="1.51"></path><path d="M256,258L250,353L311,266Z" fill="rgb(90,146,195)" stroke="rgb(90,146,195)" stroke-width="1.51"></path><path d="M256,258L181,247L250,353Z" fill="rgb(108,154,199)" stroke="rgb(108,154,199)" stroke-width="1.51"></path><path d="M275,235L181,247L256,258Z" fill="rgb(115,166,205)" stroke="rgb(115,166,205)" stroke-width="1.51"></path><path d="M166,197L181,247L275,235Z" fill="rgb(135,175,210)" stroke="rgb(135,175,210)" stroke-width="1.51"></path><path d="M250,353L312,382L311,266Z" fill="rgb(76,133,180)" stroke="rgb(76,133,180)" stroke-width="1.51"></path><path d="M311,266L389,334L335,223Z" fill="rgb(63,141,191)" stroke="rgb(63,141,191)" stroke-width="1.51"></path><path d="M312,382L389,334L311,266Z" fill="rgb(57,127,178)" stroke="rgb(57,127,178)" stroke-width="1.51"></path><path d="M181,247L207,368L250,353Z" fill="rgb(107,146,190)" stroke="rgb(107,146,190)" stroke-width="1.51"></path><path d="M250,353L293,435L312,382Z" fill="rgb(71,116,152)" stroke="rgb(71,116,152)" stroke-width="1.51"></path><path d="M181,247L113,368L207,368Z" fill="rgb(121,150,192)" stroke="rgb(121,150,192)" stroke-width="1.51"></path><path d="M282,107L166,197L275,235Z" fill="rgb(147,181,214)" stroke="rgb(147,181,214)" stroke-width="1.51"></path><path d="M335,223L282,107L275,235Z" fill="rgb(123,172,208)" stroke="rgb(123,172,208)" stroke-width="1.51"></path><path d="M319,102L282,107L335,223Z" fill="rgb(141,178,213)" stroke="rgb(141,178,213)" stroke-width="1.51"></path><path d="M447,302L421,190L335,223Z" fill="rgb(58,141,191)" stroke="rgb(58,141,191)" stroke-width="1.51"></path><path d="M421,190L400,152L335,223Z" fill="rgb(94,157,200)" stroke="rgb(94,157,200)" stroke-width="1.51"></path><path d="M127,210L122,251L181,247Z" fill="rgb(149,181,214)" stroke="rgb(149,181,214)" stroke-width="1.51"></path><path d="M400,152L319,102L335,223Z" fill="rgb(120,168,207)" stroke="rgb(120,168,207)" stroke-width="1.51"></path><path d="M166,197L127,210L181,247Z" fill="rgb(154,183,216)" stroke="rgb(154,183,216)" stroke-width="1.51"></path><path d="M120,134L127,210L166,197Z" fill="rgb(176,195,222)" stroke="rgb(176,195,222)" stroke-width="1.51"></path><path d="M389,334L447,302L335,223Z" fill="rgb(38,129,184)" stroke="rgb(38,129,184)" stroke-width="1.51"></path><path d="M484,310L447,302L502,357Z" fill="rgb(5,103,161)" stroke="rgb(5,103,161)" stroke-width="1.51"></path><path d="M199,416L293,435L250,353Z" fill="rgb(82,116,149)" stroke="rgb(82,116,149)" stroke-width="1.51"></path><path d="M312,382L420,460L389,334Z" fill="rgb(30,101,143)" stroke="rgb(30,101,143)" stroke-width="1.51"></path><path d="M293,435L312,435L312,382Z" fill="rgb(61,109,145)" stroke="rgb(61,109,145)" stroke-width="1.51"></path><path d="M207,368L199,416L250,353Z" fill="rgb(96,128,163)" stroke="rgb(96,128,163)" stroke-width="1.51"></path><path d="M113,368L199,416L207,368Z" fill="rgb(108,132,164)" stroke="rgb(108,132,164)" stroke-width="1.51"></path><path d="M282,107L181,115L166,197Z" fill="rgb(175,193,221)" stroke="rgb(175,193,221)" stroke-width="1.51"></path><path d="M206,59L181,115L282,107Z" fill="rgb(190,201,225)" stroke="rgb(190,201,225)" stroke-width="1.51"></path><path d="M122,251L113,368L181,247Z" fill="rgb(135,164,206)" stroke="rgb(135,164,206)" stroke-width="1.51"></path><path d="M447,302L495,185L421,190Z" fill="rgb(58,133,187)" stroke="rgb(58,133,187)" stroke-width="1.51"></path><path d="M502,357L447,302L389,334Z" fill="rgb(7,106,165)" stroke="rgb(7,106,165)" stroke-width="1.51"></path><path d="M181,115L120,134L166,197Z" fill="rgb(186,198,224)" stroke="rgb(186,198,224)" stroke-width="1.51"></path><path d="M23,214L54,294L122,251Z" fill="rgb(156,187,217)" stroke="rgb(156,187,217)" stroke-width="1.51"></path><path d="M63,412L106,403L113,368Z" fill="rgb(122,138,164)" stroke="rgb(122,138,164)" stroke-width="1.51"></path><path d="M420,460L502,357L389,334Z" fill="rgb(10,91,141)" stroke="rgb(10,91,141)" stroke-width="1.51"></path><path d="M293,435L308,473L312,435Z" fill="rgb(61,109,145)" stroke="rgb(61,109,145)" stroke-width="1.51"></path><path d="M256,509L308,473L293,435Z" fill="rgb(68,112,146)" stroke="rgb(68,112,146)" stroke-width="1.51"></path><path d="M181,115L126,20L120,134Z" fill="rgb(213,212,232)" stroke="rgb(213,212,232)" stroke-width="1.51"></path><path d="M246,44L206,59L282,107Z" fill="rgb(190,203,227)" stroke="rgb(190,203,227)" stroke-width="1.51"></path><path d="M319,102L246,44L282,107Z" fill="rgb(174,195,222)" stroke="rgb(174,195,222)" stroke-width="1.51"></path><path d="M268,5L246,44L319,102Z" fill="rgb(185,203,227)" stroke="rgb(185,203,227)" stroke-width="1.51"></path><path d="M400,152L435,73L319,102Z" fill="rgb(136,172,209)" stroke="rgb(136,172,209)" stroke-width="1.51"></path><path d="M421,190L495,185L400,152Z" fill="rgb(93,147,196)" stroke="rgb(93,147,196)" stroke-width="1.51"></path><path d="M484,310L495,185L447,302Z" fill="rgb(29,119,175)" stroke="rgb(29,119,175)" stroke-width="1.51"></path><path d="M199,416L256,509L293,435Z" fill="rgb(82,116,149)" stroke="rgb(82,116,149)" stroke-width="1.51"></path><path d="M113,368L106,403L199,416Z" fill="rgb(114,131,159)" stroke="rgb(114,131,159)" stroke-width="1.51"></path><path d="M54,294L113,368L122,251Z" fill="rgb(140,165,206)" stroke="rgb(140,165,206)" stroke-width="1.51"></path><path d="M23,214L122,251L127,210Z" fill="rgb(164,190,219)" stroke="rgb(164,190,219)" stroke-width="1.51"></path><path d="M484,310L580,284L495,185Z" fill="rgb(30,115,166)" stroke="rgb(30,115,166)" stroke-width="1.51"></path><path d="M420,460L312,382L312,435Z" fill="rgb(43,102,141)" stroke="rgb(43,102,141)" stroke-width="1.51"></path><path d="M308,473L420,460L312,435Z" fill="rgb(44,102,141)" stroke="rgb(44,102,141)" stroke-width="1.51"></path><path d="M476,90L435,73L400,152Z" fill="rgb(130,161,204)" stroke="rgb(130,161,204)" stroke-width="1.51"></path><path d="M195,519L256,509L199,416Z" fill="rgb(92,120,151)" stroke="rgb(92,120,151)" stroke-width="1.51"></path><path d="M446,534L467,499L420,460Z" fill="rgb(6,84,131)" stroke="rgb(6,84,131)" stroke-width="1.51"></path><path d="M435,73L362,21L319,102Z" fill="rgb(152,184,216)" stroke="rgb(152,184,216)" stroke-width="1.51"></path><path d="M120,134L57,147L127,210Z" fill="rgb(190,203,227)" stroke="rgb(190,203,227)" stroke-width="1.51"></path><path d="M18,64L57,147L120,134Z" fill="rgb(218,218,235)" stroke="rgb(218,218,235)" stroke-width="1.51"></path><path d="M246,44L205,-46L206,59Z" fill="rgb(209,216,234)" stroke="rgb(209,216,234)" stroke-width="1.51"></path><path d="M206,59L126,20L181,115Z" fill="rgb(212,214,233)" stroke="rgb(212,214,233)" stroke-width="1.51"></path><path d="M313,-12L268,5L319,102Z" fill="rgb(182,203,226)" stroke="rgb(182,203,226)" stroke-width="1.51"></path><path d="M495,185L476,90L400,152Z" fill="rgb(110,150,197)" stroke="rgb(110,150,197)" stroke-width="1.51"></path><path d="M435,73L431,0L362,21Z" fill="rgb(154,181,215)" stroke="rgb(154,181,215)" stroke-width="1.51"></path><path d="M57,147L23,214L127,210Z" fill="rgb(184,202,226)" stroke="rgb(184,202,226)" stroke-width="1.51"></path><path d="M106,403L195,519L199,416Z" fill="rgb(106,126,155)" stroke="rgb(106,126,155)" stroke-width="1.51"></path><path d="M4,382L63,412L113,368Z" fill="rgb(129,144,170)" stroke="rgb(129,144,170)" stroke-width="1.51"></path><path d="M4,382L113,368L54,294Z" fill="rgb(140,160,192)" stroke="rgb(140,160,192)" stroke-width="1.51"></path><path d="M88,530L195,519L106,403Z" fill="rgb(115,131,158)" stroke="rgb(115,131,158)" stroke-width="1.51"></path><path d="M502,357L580,284L484,310Z" fill="rgb(5,97,153)" stroke="rgb(5,97,153)" stroke-width="1.51"></path><path d="M420,460L513,413L502,357Z" fill="rgb(3,79,124)" stroke="rgb(3,79,124)" stroke-width="1.51"></path><path d="M362,21L313,-12L319,102Z" fill="rgb(171,196,223)" stroke="rgb(171,196,223)" stroke-width="1.51"></path><path d="M367,-83L313,-12L362,21Z" fill="rgb(174,199,225)" stroke="rgb(174,199,225)" stroke-width="1.51"></path><path d="M513,413L545,380L502,357Z" fill="rgb(4,79,124)" stroke="rgb(4,79,124)" stroke-width="1.51"></path><path d="M538,89L477,45L476,90Z" fill="rgb(133,157,195)" stroke="rgb(133,157,195)" stroke-width="1.51"></path><path d="M205,-46L126,20L206,59Z" fill="rgb(222,222,237)" stroke="rgb(222,222,237)" stroke-width="1.51"></path><path d="M205,-46L246,44L268,5Z" fill="rgb(207,216,234)" stroke="rgb(207,216,234)" stroke-width="1.51"></path><path d="M476,90L477,45L435,73Z" fill="rgb(138,163,203)" stroke="rgb(138,163,203)" stroke-width="1.51"></path><path d="M538,89L476,90L495,185Z" fill="rgb(115,146,188)" stroke="rgb(115,146,188)" stroke-width="1.51"></path><path d="M545,380L580,284L502,357Z" fill="rgb(3,88,138)" stroke="rgb(3,88,138)" stroke-width="1.51"></path><path d="M580,284L573,184L495,185Z" fill="rgb(57,118,162)" stroke="rgb(57,118,162)" stroke-width="1.51"></path><path d="M420,460L467,499L513,413Z" fill="rgb(3,81,127)" stroke="rgb(3,81,127)" stroke-width="1.51"></path><path d="M513,413L589,420L545,380Z" fill="rgb(2,67,106)" stroke="rgb(2,67,106)" stroke-width="1.51"></path><path d="M446,534L420,460L308,473Z" fill="rgb(24,95,137)" stroke="rgb(24,95,137)" stroke-width="1.51"></path><path d="M446,534L308,473L256,509Z" fill="rgb(48,104,142)" stroke="rgb(48,104,142)" stroke-width="1.51"></path><path d="M477,45L431,0L435,73Z" fill="rgb(147,171,210)" stroke="rgb(147,171,210)" stroke-width="1.51"></path><path d="M-48,324L4,382L54,294Z" fill="rgb(149,168,202)" stroke="rgb(149,168,202)" stroke-width="1.51"></path><path d="M57,147L-5,175L23,214Z" fill="rgb(195,210,230)" stroke="rgb(195,210,230)" stroke-width="1.51"></path><path d="M18,64L-5,175L57,147Z" fill="rgb(217,219,236)" stroke="rgb(217,219,236)" stroke-width="1.51"></path><path d="M-48,324L54,294L23,214Z" fill="rgb(158,184,217)" stroke="rgb(158,184,217)" stroke-width="1.51"></path><path d="M70,521L88,530L106,403Z" fill="rgb(122,136,161)" stroke="rgb(122,136,161)" stroke-width="1.51"></path><path d="M477,45L503,-50L431,0Z" fill="rgb(152,174,208)" stroke="rgb(152,174,208)" stroke-width="1.51"></path><path d="M573,184L538,89L495,185Z" fill="rgb(97,135,175)" stroke="rgb(97,135,175)" stroke-width="1.51"></path><path d="M550,488L589,420L513,413Z" fill="rgb(2,67,105)" stroke="rgb(2,67,105)" stroke-width="1.51"></path><path d="M195,519L446,534L256,509Z" fill="rgb(63,110,145)" stroke="rgb(63,110,145)" stroke-width="1.51"></path><path d="M286,-116L268,5L313,-12Z" fill="rgb(191,209,230)" stroke="rgb(191,209,230)" stroke-width="1.51"></path><path d="M286,-116L205,-46L268,5Z" fill="rgb(202,214,233)" stroke="rgb(202,214,233)" stroke-width="1.51"></path><path d="M580,284L601,272L573,184Z" fill="rgb(32,103,144)" stroke="rgb(32,103,144)" stroke-width="1.51"></path><path d="M643,332L601,272L580,284Z" fill="rgb(6,85,131)" stroke="rgb(6,85,131)" stroke-width="1.51"></path><path d="M126,20L18,64L120,134Z" fill="rgb(227,224,239)" stroke="rgb(227,224,239)" stroke-width="1.51"></path><path d="M72,-58L18,64L126,20Z" fill="rgb(244,238,245)" stroke="rgb(244,238,245)" stroke-width="1.51"></path><path d="M70,521L106,403L63,412Z" fill="rgb(123,138,161)" stroke="rgb(123,138,161)" stroke-width="1.51"></path><path d="M195,519L88,530L446,534Z" fill="rgb(84,117,150)" stroke="rgb(84,117,150)" stroke-width="1.51"></path><path d="M-37,454L70,521L63,412Z" fill="rgb(130,142,164)" stroke="rgb(130,142,164)" stroke-width="1.51"></path><path d="M4,382L-37,454L63,412Z" fill="rgb(132,144,166)" stroke="rgb(132,144,166)" stroke-width="1.51"></path><path d="M-70,247L-48,324L23,214Z" fill="rgb(163,190,220)" stroke="rgb(163,190,220)" stroke-width="1.51"></path><path d="M-70,247L23,214L-5,175Z" fill="rgb(182,204,227)" stroke="rgb(182,204,227)" stroke-width="1.51"></path><path d="M545,380L643,332L580,284Z" fill="rgb(3,79,123)" stroke="rgb(3,79,123)" stroke-width="1.51"></path><path d="M550,488L513,413L467,499Z" fill="rgb(3,75,117)" stroke="rgb(3,75,117)" stroke-width="1.51"></path><path d="M156,-78L147,-59L205,-46Z" fill="rgb(226,225,239)" stroke="rgb(226,225,239)" stroke-width="1.51"></path><path d="M205,-46L147,-59L126,20Z" fill="rgb(229,226,240)" stroke="rgb(229,226,240)" stroke-width="1.51"></path><path d="M446,534L550,488L467,499Z" fill="rgb(3,78,122)" stroke="rgb(3,78,122)" stroke-width="1.51"></path><path d="M-95,167L-70,247L-5,175Z" fill="rgb(190,208,230)" stroke="rgb(190,208,230)" stroke-width="1.51"></path><path d="M431,0L367,-83L362,21Z" fill="rgb(164,192,221)" stroke="rgb(164,192,221)" stroke-width="1.51"></path><path d="M503,-50L367,-83L431,0Z" fill="rgb(157,181,215)" stroke="rgb(157,181,215)" stroke-width="1.51"></path><path d="M538,89L576,53L477,45Z" fill="rgb(133,153,187)" stroke="rgb(133,153,187)" stroke-width="1.51"></path><path d="M659,83L576,53L538,89Z" fill="rgb(119,135,162)" stroke="rgb(119,135,162)" stroke-width="1.51"></path><path d="M659,83L538,89L573,184Z" fill="rgb(105,127,158)" stroke="rgb(105,127,158)" stroke-width="1.51"></path><path d="M286,-116L156,-78L205,-46Z" fill="rgb(213,219,235)" stroke="rgb(213,219,235)" stroke-width="1.51"></path><path d="M72,-58L-36,51L18,64Z" fill="rgb(249,242,248)" stroke="rgb(249,242,248)" stroke-width="1.51"></path><path d="M601,272L673,230L573,184Z" fill="rgb(45,103,141)" stroke="rgb(45,103,141)" stroke-width="1.51"></path><path d="M589,420L643,332L545,380Z" fill="rgb(2,65,102)" stroke="rgb(2,65,102)" stroke-width="1.51"></path><path d="M667,423L643,332L589,420Z" fill="rgb(2,58,92)" stroke="rgb(2,58,92)" stroke-width="1.51"></path><path d="M-67,508L-37,454L-141,446Z" fill="rgb(133,145,166)" stroke="rgb(133,145,166)" stroke-width="1.51"></path><path d="M-48,324L-37,454L4,382Z" fill="rgb(137,151,174)" stroke="rgb(137,151,174)" stroke-width="1.51"></path><path d="M367,-83L286,-116L313,-12Z" fill="rgb(181,204,227)" stroke="rgb(181,204,227)" stroke-width="1.51"></path><path d="M576,53L547,-9L477,45Z" fill="rgb(140,158,189)" stroke="rgb(140,158,189)" stroke-width="1.51"></path><path d="M-36,51L-62,109L18,64Z" fill="rgb(238,233,243)" stroke="rgb(238,233,243)" stroke-width="1.51"></path><path d="M18,64L-62,109L-5,175Z" fill="rgb(225,225,238)" stroke="rgb(225,225,238)" stroke-width="1.51"></path><path d="M367,-83L381,-131L286,-116Z" fill="rgb(175,200,225)" stroke="rgb(175,200,225)" stroke-width="1.51"></path><path d="M547,-9L503,-50L477,45Z" fill="rgb(148,167,199)" stroke="rgb(148,167,199)" stroke-width="1.51"></path><path d="M72,-58L126,20L147,-59Z" fill="rgb(238,233,243)" stroke="rgb(238,233,243)" stroke-width="1.51"></path><path d="M156,-78L136,-92L147,-59Z" fill="rgb(232,228,241)" stroke="rgb(232,228,241)" stroke-width="1.51"></path><path d="M286,-116L136,-92L156,-78Z" fill="rgb(220,222,237)" stroke="rgb(220,222,237)" stroke-width="1.51"></path><path d="M136,-92L72,-58L147,-59Z" fill="rgb(237,232,243)" stroke="rgb(237,232,243)" stroke-width="1.51"></path><path d="M-62,109L-95,167L-5,175Z" fill="rgb(211,218,235)" stroke="rgb(211,218,235)" stroke-width="1.51"></path><path d="M-70,247L-114,246L-48,324Z" fill="rgb(161,187,218)" stroke="rgb(161,187,218)" stroke-width="1.51"></path><path d="M-130,101L-95,167L-62,109Z" fill="rgb(221,223,237)" stroke="rgb(221,223,237)" stroke-width="1.51"></path><path d="M643,332L673,230L601,272Z" fill="rgb(17,90,134)" stroke="rgb(17,90,134)" stroke-width="1.51"></path><path d="M576,53L639,-50L547,-9Z" fill="rgb(136,149,171)" stroke="rgb(136,149,171)" stroke-width="1.51"></path><path d="M-95,167L-114,246L-70,247Z" fill="rgb(179,202,226)" stroke="rgb(179,202,226)" stroke-width="1.51"></path><path d="M509,-86L381,-131L367,-83Z" fill="rgb(159,184,217)" stroke="rgb(159,184,217)" stroke-width="1.51"></path><path d="M-95,167L-130,101L-114,246Z" fill="rgb(201,213,233)" stroke="rgb(201,213,233)" stroke-width="1.51"></path><path d="M-36,51L-78,65L-62,109Z" fill="rgb(238,233,243)" stroke="rgb(238,233,243)" stroke-width="1.51"></path><path d="M-67,-40L-78,65L-36,51Z" fill="rgb(250,243,248)" stroke="rgb(250,243,248)" stroke-width="1.51"></path><path d="M503,-50L509,-86L367,-83Z" fill="rgb(153,175,211)" stroke="rgb(153,175,211)" stroke-width="1.51"></path><path d="M565,-90L509,-86L503,-50Z" fill="rgb(146,165,195)" stroke="rgb(146,165,195)" stroke-width="1.51"></path><path d="M565,-90L503,-50L547,-9Z" fill="rgb(144,161,190)" stroke="rgb(144,161,190)" stroke-width="1.51"></path><path d="M667,100L659,83L573,184Z" fill="rgb(101,124,154)" stroke="rgb(101,124,154)" stroke-width="1.51"></path><path d="M690,172L667,100L573,184Z" fill="rgb(88,119,151)" stroke="rgb(88,119,151)" stroke-width="1.51"></path><path d="M618,516L667,423L589,420Z" fill="rgb(2,56,88)" stroke="rgb(2,56,88)" stroke-width="1.51"></path><path d="M643,332L720,250L673,230Z" fill="rgb(20,92,135)" stroke="rgb(20,92,135)" stroke-width="1.51"></path><path d="M673,230L690,172L573,184Z" fill="rgb(66,111,146)" stroke="rgb(66,111,146)" stroke-width="1.51"></path><path d="M720,250L690,172L673,230Z" fill="rgb(52,106,143)" stroke="rgb(52,106,143)" stroke-width="1.51"></path><path d="M446,534L618,516L550,488Z" fill="rgb(3,70,110)" stroke="rgb(3,70,110)" stroke-width="1.51"></path><path d="M550,488L618,516L589,420Z" fill="rgb(2,59,93)" stroke="rgb(2,59,93)" stroke-width="1.51"></path><path d="M-37,454L-67,508L70,521Z" fill="rgb(133,145,166)" stroke="rgb(133,145,166)" stroke-width="1.51"></path><path d="M70,521L-67,508L88,530Z" fill="rgb(130,143,164)" stroke="rgb(130,143,164)" stroke-width="1.51"></path><path d="M-141,446L-37,454L-48,324Z" fill="rgb(133,145,166)" stroke="rgb(133,145,166)" stroke-width="1.51"></path><path d="M-114,246L-141,339L-48,324Z" fill="rgb(154,176,213)" stroke="rgb(154,176,213)" stroke-width="1.51"></path><path d="M-130,101L-141,339L-114,246Z" fill="rgb(175,200,224)" stroke="rgb(175,200,224)" stroke-width="1.51"></path><path d="M728,109L694,71L667,100Z" fill="rgb(113,130,157)" stroke="rgb(113,130,157)" stroke-width="1.51"></path><path d="M738,356L720,250L643,332Z" fill="rgb(3,80,126)" stroke="rgb(3,80,126)" stroke-width="1.51"></path><path d="M-78,65L-130,101L-62,109Z" fill="rgb(234,230,241)" stroke="rgb(234,230,241)" stroke-width="1.51"></path><path d="M-148,-45L-130,101L-78,65Z" fill="rgb(247,240,247)" stroke="rgb(247,240,247)" stroke-width="1.51"></path><path d="M509,-86L565,-90L381,-131Z" fill="rgb(151,171,205)" stroke="rgb(151,171,205)" stroke-width="1.51"></path><path d="M639,-50L565,-90L547,-9Z" fill="rgb(136,149,172)" stroke="rgb(136,149,172)" stroke-width="1.51"></path><path d="M659,83L639,-50L576,53Z" fill="rgb(128,141,164)" stroke="rgb(128,141,164)" stroke-width="1.51"></path><path d="M667,100L694,71L659,83Z" fill="rgb(115,131,158)" stroke="rgb(115,131,158)" stroke-width="1.51"></path><path d="M728,109L667,100L690,172Z" fill="rgb(100,123,153)" stroke="rgb(100,123,153)" stroke-width="1.51"></path><path d="M72,-58L-67,-40L-36,51Z" fill="rgb(255,247,251)" stroke="rgb(255,247,251)" stroke-width="1.51"></path><path d="M136,-92L24,-121L72,-58Z" fill="rgb(245,238,246)" stroke="rgb(245,238,246)" stroke-width="1.51"></path><path d="M286,-116L24,-121L136,-92Z" fill="rgb(231,228,240)" stroke="rgb(231,228,240)" stroke-width="1.51"></path><path d="M381,-131L24,-121L286,-116Z" fill="rgb(209,217,234)" stroke="rgb(209,217,234)" stroke-width="1.51"></path><path d="M-35,-109L-67,-40L72,-58Z" fill="rgb(255,247,251)" stroke="rgb(255,247,251)" stroke-width="1.51"></path><path d="M-141,339L-141,446L-48,324Z" fill="rgb(141,157,184)" stroke="rgb(141,157,184)" stroke-width="1.51"></path><path d="M720,250L728,109L690,172Z" fill="rgb(76,114,148)" stroke="rgb(76,114,148)" stroke-width="1.51"></path><path d="M667,423L738,356L643,332Z" fill="rgb(2,66,103)" stroke="rgb(2,66,103)" stroke-width="1.51"></path><path d="M718,442L738,356L667,423Z" fill="rgb(2,56,88)" stroke="rgb(2,56,88)" stroke-width="1.51"></path><path d="M618,516L704,469L667,423Z" fill="rgb(2,56,88)" stroke="rgb(2,56,88)" stroke-width="1.51"></path><path d="M694,71L639,-50L659,83Z" fill="rgb(127,140,163)" stroke="rgb(127,140,163)" stroke-width="1.51"></path><path d="M738,356L728,109L720,250Z" fill="rgb(39,101,140)" stroke="rgb(39,101,140)" stroke-width="1.51"></path><path d="M704,469L718,442L667,423Z" fill="rgb(2,56,88)" stroke="rgb(2,56,88)" stroke-width="1.51"></path><path d="M655,-114L639,-50L721,-57Z" fill="rgb(133,145,166)" stroke="rgb(133,145,166)" stroke-width="1.51"></path><path d="M24,-121L-35,-109L72,-58Z" fill="rgb(252,245,250)" stroke="rgb(252,245,250)" stroke-width="1.51"></path><path d="M-67,508L-134,522L88,530Z" fill="rgb(133,145,166)" stroke="rgb(133,145,166)" stroke-width="1.51"></path><path d="M-141,446L-134,522L-67,508Z" fill="rgb(133,145,166)" stroke="rgb(133,145,166)" stroke-width="1.51"></path><path d="M-35,-109L-124,-66L-67,-40Z" fill="rgb(255,247,251)" stroke="rgb(255,247,251)" stroke-width="1.51"></path><path d="M-67,-40L-148,-45L-78,65Z" fill="rgb(255,247,251)" stroke="rgb(255,247,251)" stroke-width="1.51"></path><path d="M-130,101L-148,-45L-141,339Z" fill="rgb(219,221,237)" stroke="rgb(219,221,237)" stroke-width="1.51"></path><path d="M721,-57L639,-50L694,71Z" fill="rgb(133,145,166)" stroke="rgb(133,145,166)" stroke-width="1.51"></path><path d="M639,-50L655,-114L565,-90Z" fill="rgb(133,145,166)" stroke="rgb(133,145,166)" stroke-width="1.51"></path><path d="M565,-90L655,-114L381,-131Z" fill="rgb(145,162,192)" stroke="rgb(145,162,192)" stroke-width="1.51"></path><path d="M-124,-66L-148,-45L-67,-40Z" fill="rgb(255,247,251)" stroke="rgb(255,247,251)" stroke-width="1.51"></path><path d="M-141,339L-148,-45L-141,446Z" fill="rgb(167,195,222)" stroke="rgb(167,195,222)" stroke-width="1.51"></path><path d="M728,109L721,-57L694,71Z" fill="rgb(126,140,163)" stroke="rgb(126,140,163)" stroke-width="1.51"></path><path d="M728,109L726,-135L721,-57Z" fill="rgb(133,145,166)" stroke="rgb(133,145,166)" stroke-width="1.51"></path><path d="M721,-57L726,-135L655,-114Z" fill="rgb(133,145,166)" stroke="rgb(133,145,166)" stroke-width="1.51"></path><path d="M655,-114L726,-135L381,-131Z" fill="rgb(136,149,171)" stroke="rgb(136,149,171)" stroke-width="1.51"></path><path d="M738,356L726,-135L728,109Z" fill="rgb(107,126,155)" stroke="rgb(107,126,155)" stroke-width="1.51"></path></svg>