<svg width="600" height="400" xmlns="http://www.w3.org/2000/svg"><path d="M263,197L257,126L190,201Z" fill="rgb(110,197,190)" stroke="rgb(110,197,190)" stroke-width="1.51"></path><path d="M257,126L184,125L190,201Z" fill="rgb(135,208,187)" stroke="rgb(135,208,187)" stroke-width="1.51"></path><path d="M190,201L261,274L263,197Z" fill="rgb(90,182,192)" stroke="rgb(90,182,192)" stroke-width="1.51"></path><path d="M115,202L184,272L190,201Z" fill="rgb(133,195,188)" stroke="rgb(133,195,188)" stroke-width="1.51"></path><path d="M184,272L261,274L190,201Z" fill="rgb(99,177,190)" stroke="rgb(99,177,190)" stroke-width="1.51"></path><path d="M184,125L115,202L190,201Z" fill="rgb(148,210,187)" stroke="rgb(148,210,187)" stroke-width="1.51"></path><path d="M257,126L258,50L184,125Z" fill="rgb(163,218,184)" stroke="rgb(163,218,184)" stroke-width="1.51"></path><path d="M336,49L258,50L257,126Z" fill="rgb(159,213,187)" stroke="rgb(159,213,187)" stroke-width="1.51"></path><path d="M263,197L341,125L257,126Z" fill="rgb(106,195,191)" stroke="rgb(106,195,191)" stroke-width="1.51"></path><path d="M261,274L339,201L263,197Z" fill="rgb(66,175,195)" stroke="rgb(66,175,195)" stroke-width="1.51"></path><path d="M258,50L184,49L184,125Z" fill="rgb(183,226,183)" stroke="rgb(183,226,183)" stroke-width="1.51"></path><path d="M184,125L109,123L115,202Z" fill="rgb(169,220,183)" stroke="rgb(169,220,183)" stroke-width="1.51"></path><path d="M112,53L109,123L184,125Z" fill="rgb(203,234,180)" stroke="rgb(203,234,180)" stroke-width="1.51"></path><path d="M339,201L341,125L263,197Z" fill="rgb(83,184,194)" stroke="rgb(83,184,194)" stroke-width="1.51"></path><path d="M258,352L339,278L261,274Z" fill="rgb(64,138,181)" stroke="rgb(64,138,181)" stroke-width="1.51"></path><path d="M115,202L113,271L184,272Z" fill="rgb(139,190,187)" stroke="rgb(139,190,187)" stroke-width="1.51"></path><path d="M42,198L113,271L115,202Z" fill="rgb(157,204,187)" stroke="rgb(157,204,187)" stroke-width="1.51"></path><path d="M184,49L112,53L184,125Z" fill="rgb(204,234,180)" stroke="rgb(204,234,180)" stroke-width="1.51"></path><path d="M341,125L336,49L257,126Z" fill="rgb(142,204,188)" stroke="rgb(142,204,188)" stroke-width="1.51"></path><path d="M258,50L189,-30L184,49Z" fill="rgb(197,231,193)" stroke="rgb(197,231,193)" stroke-width="1.51"></path><path d="M411,200L410,126L341,125Z" fill="rgb(91,170,188)" stroke="rgb(91,170,188)" stroke-width="1.51"></path><path d="M261,274L339,278L339,201Z" fill="rgb(47,159,194)" stroke="rgb(47,159,194)" stroke-width="1.51"></path><path d="M189,347L261,274L184,272Z" fill="rgb(99,151,179)" stroke="rgb(99,151,179)" stroke-width="1.51"></path><path d="M109,123L42,198L115,202Z" fill="rgb(172,219,186)" stroke="rgb(172,219,186)" stroke-width="1.51"></path><path d="M34,124L42,198L109,123Z" fill="rgb(188,227,186)" stroke="rgb(188,227,186)" stroke-width="1.51"></path><path d="M113,271L189,347L184,272Z" fill="rgb(126,160,177)" stroke="rgb(126,160,177)" stroke-width="1.51"></path><path d="M411,200L341,125L339,201Z" fill="rgb(75,171,193)" stroke="rgb(75,171,193)" stroke-width="1.51"></path><path d="M341,125L413,50L336,49Z" fill="rgb(148,195,187)" stroke="rgb(148,195,187)" stroke-width="1.51"></path><path d="M412,276L411,200L339,201Z" fill="rgb(42,149,191)" stroke="rgb(42,149,191)" stroke-width="1.51"></path><path d="M189,347L258,352L261,274Z" fill="rgb(89,136,174)" stroke="rgb(89,136,174)" stroke-width="1.51"></path><path d="M38,54L34,124L109,123Z" fill="rgb(220,241,183)" stroke="rgb(220,241,183)" stroke-width="1.51"></path><path d="M336,-25L257,-29L258,50Z" fill="rgb(178,221,206)" stroke="rgb(178,221,206)" stroke-width="1.51"></path><path d="M184,49L117,-22L112,53Z" fill="rgb(226,243,188)" stroke="rgb(226,243,188)" stroke-width="1.51"></path><path d="M257,-29L189,-30L258,50Z" fill="rgb(191,229,202)" stroke="rgb(191,229,202)" stroke-width="1.51"></path><path d="M112,53L38,54L109,123Z" fill="rgb(224,243,178)" stroke="rgb(224,243,178)" stroke-width="1.51"></path><path d="M189,-30L117,-22L184,49Z" fill="rgb(221,242,199)" stroke="rgb(221,242,199)" stroke-width="1.51"></path><path d="M38,-21L38,54L112,53Z" fill="rgb(243,250,189)" stroke="rgb(243,250,189)" stroke-width="1.51"></path><path d="M113,271L111,354L189,347Z" fill="rgb(135,150,171)" stroke="rgb(135,150,171)" stroke-width="1.51"></path><path d="M42,198L37,275L113,271Z" fill="rgb(158,196,189)" stroke="rgb(158,196,189)" stroke-width="1.51"></path><path d="M-40,200L37,275L42,198Z" fill="rgb(167,208,203)" stroke="rgb(167,208,203)" stroke-width="1.51"></path><path d="M339,278L412,276L339,201Z" fill="rgb(34,147,192)" stroke="rgb(34,147,192)" stroke-width="1.51"></path><path d="M342,351L412,276L339,278Z" fill="rgb(39,121,180)" stroke="rgb(39,121,180)" stroke-width="1.51"></path><path d="M413,50L336,-25L336,49Z" fill="rgb(162,200,196)" stroke="rgb(162,200,196)" stroke-width="1.51"></path><path d="M336,49L336,-25L258,50Z" fill="rgb(168,214,197)" stroke="rgb(168,214,197)" stroke-width="1.51"></path><path d="M258,352L342,351L339,278Z" fill="rgb(57,122,176)" stroke="rgb(57,122,176)" stroke-width="1.51"></path><path d="M410,126L413,50L341,125Z" fill="rgb(134,183,185)" stroke="rgb(134,183,185)" stroke-width="1.51"></path><path d="M483,127L413,50L410,126Z" fill="rgb(132,165,178)" stroke="rgb(132,165,178)" stroke-width="1.51"></path><path d="M483,127L410,126L411,200Z" fill="rgb(90,153,181)" stroke="rgb(90,153,181)" stroke-width="1.51"></path><path d="M37,275L111,354L113,271Z" fill="rgb(149,166,176)" stroke="rgb(149,166,176)" stroke-width="1.51"></path><path d="M190,424L264,420L258,352Z" fill="rgb(72,110,139)" stroke="rgb(72,110,139)" stroke-width="1.51"></path><path d="M258,352L264,420L342,351Z" fill="rgb(60,111,156)" stroke="rgb(60,111,156)" stroke-width="1.51"></path><path d="M190,424L258,352L189,347Z" fill="rgb(92,121,153)" stroke="rgb(92,121,153)" stroke-width="1.51"></path><path d="M489,203L483,127L411,200Z" fill="rgb(75,139,179)" stroke="rgb(75,139,179)" stroke-width="1.51"></path><path d="M34,124L-40,200L42,198Z" fill="rgb(183,224,201)" stroke="rgb(183,224,201)" stroke-width="1.51"></path><path d="M38,54L-34,124L34,124Z" fill="rgb(225,244,195)" stroke="rgb(225,244,195)" stroke-width="1.51"></path><path d="M111,354L190,424L189,347Z" fill="rgb(116,128,151)" stroke="rgb(116,128,151)" stroke-width="1.51"></path><path d="M38,54L-40,49L-34,124Z" fill="rgb(237,248,198)" stroke="rgb(237,248,198)" stroke-width="1.51"></path><path d="M117,-22L38,-21L112,53Z" fill="rgb(242,250,196)" stroke="rgb(242,250,196)" stroke-width="1.51"></path><path d="M38,-99L38,-21L117,-22Z" fill="rgb(248,252,200)" stroke="rgb(248,252,200)" stroke-width="1.51"></path><path d="M111,354L110,423L190,424Z" fill="rgb(116,124,135)" stroke="rgb(116,124,135)" stroke-width="1.51"></path><path d="M37,275L39,352L111,354Z" fill="rgb(153,155,173)" stroke="rgb(153,155,173)" stroke-width="1.51"></path><path d="M-33,347L39,352L37,275Z" fill="rgb(157,158,185)" stroke="rgb(157,158,185)" stroke-width="1.51"></path><path d="M483,276L489,203L411,200Z" fill="rgb(48,124,180)" stroke="rgb(48,124,180)" stroke-width="1.51"></path><path d="M342,351L416,348L412,276Z" fill="rgb(40,104,173)" stroke="rgb(40,104,173)" stroke-width="1.51"></path><path d="M415,426L416,348L342,351Z" fill="rgb(35,86,151)" stroke="rgb(35,86,151)" stroke-width="1.51"></path><path d="M-34,124L-40,200L34,124Z" fill="rgb(194,230,202)" stroke="rgb(194,230,202)" stroke-width="1.51"></path><path d="M483,276L411,200L412,276Z" fill="rgb(34,124,183)" stroke="rgb(34,124,183)" stroke-width="1.51"></path><path d="M413,50L412,-28L336,-25Z" fill="rgb(163,194,204)" stroke="rgb(163,194,204)" stroke-width="1.51"></path><path d="M339,-102L257,-103L257,-29Z" fill="rgb(178,221,206)" stroke="rgb(178,221,206)" stroke-width="1.51"></path><path d="M257,-29L257,-103L189,-30Z" fill="rgb(191,229,202)" stroke="rgb(191,229,202)" stroke-width="1.51"></path><path d="M483,-22L412,-28L413,50Z" fill="rgb(160,175,196)" stroke="rgb(160,175,196)" stroke-width="1.51"></path><path d="M339,-102L257,-29L336,-25Z" fill="rgb(172,216,206)" stroke="rgb(172,216,206)" stroke-width="1.51"></path><path d="M189,-30L115,-104L117,-22Z" fill="rgb(230,245,198)" stroke="rgb(230,245,198)" stroke-width="1.51"></path><path d="M257,-103L187,-104L189,-30Z" fill="rgb(200,233,201)" stroke="rgb(200,233,201)" stroke-width="1.51"></path><path d="M416,348L483,276L412,276Z" fill="rgb(35,98,170)" stroke="rgb(35,98,170)" stroke-width="1.51"></path><path d="M264,420L337,423L342,351Z" fill="rgb(43,99,141)" stroke="rgb(43,99,141)" stroke-width="1.51"></path><path d="M264,495L337,423L264,420Z" fill="rgb(51,103,140)" stroke="rgb(51,103,140)" stroke-width="1.51"></path><path d="M39,352L110,423L111,354Z" fill="rgb(137,136,149)" stroke="rgb(137,136,149)" stroke-width="1.51"></path><path d="M-40,200L-36,276L37,275Z" fill="rgb(163,198,205)" stroke="rgb(163,198,205)" stroke-width="1.51"></path><path d="M558,52L484,50L483,127Z" fill="rgb(141,146,168)" stroke="rgb(141,146,168)" stroke-width="1.51"></path><path d="M483,127L484,50L413,50Z" fill="rgb(142,160,175)" stroke="rgb(142,160,175)" stroke-width="1.51"></path><path d="M-34,124L-108,195L-40,200Z" fill="rgb(184,224,204)" stroke="rgb(184,224,204)" stroke-width="1.51"></path><path d="M38,-21L-40,49L38,54Z" fill="rgb(249,253,203)" stroke="rgb(249,253,203)" stroke-width="1.51"></path><path d="M38,-21L-40,-21L-40,49Z" fill="rgb(255,255,216)" stroke="rgb(255,255,216)" stroke-width="1.51"></path><path d="M187,-104L115,-104L189,-30Z" fill="rgb(221,242,199)" stroke="rgb(221,242,199)" stroke-width="1.51"></path><path d="M257,-103L411,-104L187,-104Z" fill="rgb(177,221,206)" stroke="rgb(177,221,206)" stroke-width="1.51"></path><path d="M412,-28L339,-102L336,-25Z" fill="rgb(165,202,206)" stroke="rgb(165,202,206)" stroke-width="1.51"></path><path d="M39,352L36,421L110,423Z" fill="rgb(132,130,138)" stroke="rgb(132,130,138)" stroke-width="1.51"></path><path d="M-36,276L-33,347L37,275Z" fill="rgb(159,171,194)" stroke="rgb(159,171,194)" stroke-width="1.51"></path><path d="M-113,275L-33,347L-36,276Z" fill="rgb(159,171,194)" stroke="rgb(159,171,194)" stroke-width="1.51"></path><path d="M-33,347L36,421L39,352Z" fill="rgb(147,140,166)" stroke="rgb(147,140,166)" stroke-width="1.51"></path><path d="M412,-28L411,-104L339,-102Z" fill="rgb(163,193,204)" stroke="rgb(163,193,204)" stroke-width="1.51"></path><path d="M484,50L483,-22L413,50Z" fill="rgb(155,165,183)" stroke="rgb(155,165,183)" stroke-width="1.51"></path><path d="M558,52L483,-22L484,50Z" fill="rgb(154,151,177)" stroke="rgb(154,151,177)" stroke-width="1.51"></path><path d="M416,348L488,349L483,276Z" fill="rgb(37,81,161)" stroke="rgb(37,81,161)" stroke-width="1.51"></path><path d="M560,273L564,195L489,203Z" fill="rgb(52,105,166)" stroke="rgb(52,105,166)" stroke-width="1.51"></path><path d="M490,421L488,349L416,348Z" fill="rgb(31,63,142)" stroke="rgb(31,63,142)" stroke-width="1.51"></path><path d="M115,-104L38,-99L117,-22Z" fill="rgb(243,250,197)" stroke="rgb(243,250,197)" stroke-width="1.51"></path><path d="M-40,-97L-40,-21L38,-21Z" fill="rgb(255,255,217)" stroke="rgb(255,255,217)" stroke-width="1.51"></path><path d="M337,423L415,426L342,351Z" fill="rgb(30,87,139)" stroke="rgb(30,87,139)" stroke-width="1.51"></path><path d="M338,502L415,426L337,423Z" fill="rgb(30,87,139)" stroke="rgb(30,87,139)" stroke-width="1.51"></path><path d="M339,-102L411,-104L257,-103Z" fill="rgb(168,209,206)" stroke="rgb(168,209,206)" stroke-width="1.51"></path><path d="M484,-100L411,-104L412,-28Z" fill="rgb(160,176,196)" stroke="rgb(160,176,196)" stroke-width="1.51"></path><path d="M182,502L190,424L110,423Z" fill="rgb(108,121,135)" stroke="rgb(108,121,135)" stroke-width="1.51"></path><path d="M182,502L264,495L190,424Z" fill="rgb(83,113,137)" stroke="rgb(83,113,137)" stroke-width="1.51"></path><path d="M190,424L264,495L264,420Z" fill="rgb(71,109,138)" stroke="rgb(71,109,138)" stroke-width="1.51"></path><path d="M-40,200L-113,275L-36,276Z" fill="rgb(163,198,205)" stroke="rgb(163,198,205)" stroke-width="1.51"></path><path d="M-110,122L-108,195L-34,124Z" fill="rgb(196,231,202)" stroke="rgb(196,231,202)" stroke-width="1.51"></path><path d="M-110,122L-34,124L-40,49Z" fill="rgb(228,244,198)" stroke="rgb(228,244,198)" stroke-width="1.51"></path><path d="M-115,53L-110,122L-40,49Z" fill="rgb(237,248,198)" stroke="rgb(237,248,198)" stroke-width="1.51"></path><path d="M110,504L182,502L110,423Z" fill="rgb(116,124,134)" stroke="rgb(116,124,134)" stroke-width="1.51"></path><path d="M489,203L564,195L483,127Z" fill="rgb(79,124,172)" stroke="rgb(79,124,172)" stroke-width="1.51"></path><path d="M560,273L489,203L483,276Z" fill="rgb(43,102,172)" stroke="rgb(43,102,172)" stroke-width="1.51"></path><path d="M564,195L565,125L483,127Z" fill="rgb(92,124,164)" stroke="rgb(92,124,164)" stroke-width="1.51"></path><path d="M483,-22L484,-100L412,-28Z" fill="rgb(158,167,192)" stroke="rgb(158,167,192)" stroke-width="1.51"></path><path d="M565,125L558,52L483,127Z" fill="rgb(127,135,162)" stroke="rgb(127,135,162)" stroke-width="1.51"></path><path d="M488,349L560,273L483,276Z" fill="rgb(38,78,160)" stroke="rgb(38,78,160)" stroke-width="1.51"></path><path d="M-108,195L-113,275L-40,200Z" fill="rgb(169,209,206)" stroke="rgb(169,209,206)" stroke-width="1.51"></path><path d="M-33,347L-39,428L36,421Z" fill="rgb(138,133,153)" stroke="rgb(138,133,153)" stroke-width="1.51"></path><path d="M-110,122L-113,275L-108,195Z" fill="rgb(174,219,207)" stroke="rgb(174,219,207)" stroke-width="1.51"></path><path d="M264,495L338,502L337,423Z" fill="rgb(42,98,140)" stroke="rgb(42,98,140)" stroke-width="1.51"></path><path d="M182,502L338,502L264,495Z" fill="rgb(63,106,139)" stroke="rgb(63,106,139)" stroke-width="1.51"></path><path d="M-110,122L-115,53L-113,275Z" fill="rgb(194,230,202)" stroke="rgb(194,230,202)" stroke-width="1.51"></path><path d="M-40,-21L-115,53L-40,49Z" fill="rgb(250,253,206)" stroke="rgb(250,253,206)" stroke-width="1.51"></path><path d="M-113,-30L-115,53L-40,-21Z" fill="rgb(255,255,217)" stroke="rgb(255,255,217)" stroke-width="1.51"></path><path d="M182,502L409,504L338,502Z" fill="rgb(43,99,141)" stroke="rgb(43,99,141)" stroke-width="1.51"></path><path d="M41,502L110,504L110,423Z" fill="rgb(128,129,134)" stroke="rgb(128,129,134)" stroke-width="1.51"></path><path d="M41,502L110,423L36,421Z" fill="rgb(132,130,137)" stroke="rgb(132,130,137)" stroke-width="1.51"></path><path d="M488,349L564,354L560,273Z" fill="rgb(35,61,148)" stroke="rgb(35,61,148)" stroke-width="1.51"></path><path d="M415,426L490,421L416,348Z" fill="rgb(24,64,129)" stroke="rgb(24,64,129)" stroke-width="1.51"></path><path d="M484,504L490,421L415,426Z" fill="rgb(23,57,125)" stroke="rgb(23,57,125)" stroke-width="1.51"></path><path d="M560,-28L484,-100L483,-22Z" fill="rgb(157,152,186)" stroke="rgb(157,152,186)" stroke-width="1.51"></path><path d="M38,-99L-40,-97L38,-21Z" fill="rgb(254,255,214)" stroke="rgb(254,255,214)" stroke-width="1.51"></path><path d="M-111,-103L-40,-97L38,-99Z" fill="rgb(255,255,217)" stroke="rgb(255,255,217)" stroke-width="1.51"></path><path d="M-115,354L-39,428L-33,347Z" fill="rgb(147,139,167)" stroke="rgb(147,139,167)" stroke-width="1.51"></path><path d="M-35,497L41,502L36,421Z" fill="rgb(136,132,149)" stroke="rgb(136,132,149)" stroke-width="1.51"></path><path d="M338,502L409,504L415,426Z" fill="rgb(26,80,137)" stroke="rgb(26,80,137)" stroke-width="1.51"></path><path d="M110,504L409,504L182,502Z" fill="rgb(73,110,137)" stroke="rgb(73,110,137)" stroke-width="1.51"></path><path d="M558,52L560,-28L483,-22Z" fill="rgb(155,145,180)" stroke="rgb(155,145,180)" stroke-width="1.51"></path><path d="M634,48L560,-28L558,52Z" fill="rgb(138,134,150)" stroke="rgb(138,134,150)" stroke-width="1.51"></path><path d="M490,421L564,354L488,349Z" fill="rgb(31,49,134)" stroke="rgb(31,49,134)" stroke-width="1.51"></path><path d="M560,273L637,201L564,195Z" fill="rgb(41,96,145)" stroke="rgb(41,96,145)" stroke-width="1.51"></path><path d="M564,195L637,127L565,125Z" fill="rgb(80,114,142)" stroke="rgb(80,114,142)" stroke-width="1.51"></path><path d="M560,425L564,354L490,421Z" fill="rgb(20,38,112)" stroke="rgb(20,38,112)" stroke-width="1.51"></path><path d="M-113,275L-115,354L-33,347Z" fill="rgb(158,158,189)" stroke="rgb(158,158,189)" stroke-width="1.51"></path><path d="M-115,53L-115,354L-113,275Z" fill="rgb(168,208,206)" stroke="rgb(168,208,206)" stroke-width="1.51"></path><path d="M-40,-97L-113,-30L-40,-21Z" fill="rgb(255,255,217)" stroke="rgb(255,255,217)" stroke-width="1.51"></path><path d="M565,125L634,48L558,52Z" fill="rgb(125,129,141)" stroke="rgb(125,129,141)" stroke-width="1.51"></path><path d="M635,279L637,201L560,273Z" fill="rgb(26,84,138)" stroke="rgb(26,84,138)" stroke-width="1.51"></path><path d="M637,201L637,127L564,195Z" fill="rgb(63,106,139)" stroke="rgb(63,106,139)" stroke-width="1.51"></path><path d="M-39,428L-35,497L36,421Z" fill="rgb(137,132,152)" stroke="rgb(137,132,152)" stroke-width="1.51"></path><path d="M-113,425L-35,497L-39,428Z" fill="rgb(137,132,152)" stroke="rgb(137,132,152)" stroke-width="1.51"></path><path d="M560,-28L558,-97L484,-100Z" fill="rgb(155,145,181)" stroke="rgb(155,145,181)" stroke-width="1.51"></path><path d="M484,-100L638,-103L411,-104Z" fill="rgb(158,151,186)" stroke="rgb(158,151,186)" stroke-width="1.51"></path><path d="M634,-26L558,-97L560,-28Z" fill="rgb(141,136,159)" stroke="rgb(141,136,159)" stroke-width="1.51"></path><path d="M564,354L635,279L560,273Z" fill="rgb(25,62,132)" stroke="rgb(25,62,132)" stroke-width="1.51"></path><path d="M561,504L560,425L490,421Z" fill="rgb(20,38,113)" stroke="rgb(20,38,113)" stroke-width="1.51"></path><path d="M637,127L634,48L565,125Z" fill="rgb(112,123,135)" stroke="rgb(112,123,135)" stroke-width="1.51"></path><path d="M639,348L635,279L564,354Z" fill="rgb(23,50,122)" stroke="rgb(23,50,122)" stroke-width="1.51"></path><path d="M-115,354L-113,425L-39,428Z" fill="rgb(137,132,152)" stroke="rgb(137,132,152)" stroke-width="1.51"></path><path d="M409,504L484,504L415,426Z" fill="rgb(23,65,129)" stroke="rgb(23,65,129)" stroke-width="1.51"></path><path d="M-40,-97L-111,-103L-113,-30Z" fill="rgb(255,255,217)" stroke="rgb(255,255,217)" stroke-width="1.51"></path><path d="M115,-104L-111,-103L38,-99Z" fill="rgb(254,255,213)" stroke="rgb(254,255,213)" stroke-width="1.51"></path><path d="M634,48L634,-26L560,-28Z" fill="rgb(137,132,152)" stroke="rgb(137,132,152)" stroke-width="1.51"></path><path d="M712,-26L634,-26L634,48Z" fill="rgb(137,132,152)" stroke="rgb(137,132,152)" stroke-width="1.51"></path><path d="M639,426L639,348L564,354Z" fill="rgb(15,34,102)" stroke="rgb(15,34,102)" stroke-width="1.51"></path><path d="M635,279L710,204L637,201Z" fill="rgb(36,92,140)" stroke="rgb(36,92,140)" stroke-width="1.51"></path><path d="M637,201L710,204L637,127Z" fill="rgb(61,106,139)" stroke="rgb(61,106,139)" stroke-width="1.51"></path><path d="M639,426L564,354L560,425Z" fill="rgb(10,31,92)" stroke="rgb(10,31,92)" stroke-width="1.51"></path><path d="M484,504L561,504L490,421Z" fill="rgb(23,44,119)" stroke="rgb(23,44,119)" stroke-width="1.51"></path><path d="M-113,425L-117,501L-35,497Z" fill="rgb(137,132,152)" stroke="rgb(137,132,152)" stroke-width="1.51"></path><path d="M-35,497L-117,501L41,502Z" fill="rgb(137,132,152)" stroke="rgb(137,132,152)" stroke-width="1.51"></path><path d="M41,502L-117,501L110,504Z" fill="rgb(136,132,149)" stroke="rgb(136,132,149)" stroke-width="1.51"></path><path d="M-115,354L-117,501L-113,425Z" fill="rgb(137,132,152)" stroke="rgb(137,132,152)" stroke-width="1.51"></path><path d="M-115,53L-117,501L-115,354Z" fill="rgb(159,169,193)" stroke="rgb(159,169,193)" stroke-width="1.51"></path><path d="M637,127L709,53L634,48Z" fill="rgb(121,126,135)" stroke="rgb(121,126,135)" stroke-width="1.51"></path><path d="M710,278L710,204L635,279Z" fill="rgb(26,82,138)" stroke="rgb(26,82,138)" stroke-width="1.51"></path><path d="M639,348L710,278L635,279Z" fill="rgb(22,60,126)" stroke="rgb(22,60,126)" stroke-width="1.51"></path><path d="M561,504L639,426L560,425Z" fill="rgb(10,31,93)" stroke="rgb(10,31,93)" stroke-width="1.51"></path><path d="M710,204L715,125L637,127Z" fill="rgb(75,111,137)" stroke="rgb(75,111,137)" stroke-width="1.51"></path><path d="M634,-26L638,-103L558,-97Z" fill="rgb(137,132,152)" stroke="rgb(137,132,152)" stroke-width="1.51"></path><path d="M558,-97L638,-103L484,-100Z" fill="rgb(148,140,169)" stroke="rgb(148,140,169)" stroke-width="1.51"></path><path d="M707,-98L638,-103L634,-26Z" fill="rgb(137,132,152)" stroke="rgb(137,132,152)" stroke-width="1.51"></path><path d="M715,125L709,53L637,127Z" fill="rgb(111,123,135)" stroke="rgb(111,123,135)" stroke-width="1.51"></path><path d="M710,349L710,278L639,348Z" fill="rgb(23,50,122)" stroke="rgb(23,50,122)" stroke-width="1.51"></path><path d="M710,204L710,278L715,125Z" fill="rgb(45,100,141)" stroke="rgb(45,100,141)" stroke-width="1.51"></path><path d="M639,426L710,349L639,348Z" fill="rgb(16,35,103)" stroke="rgb(16,35,103)" stroke-width="1.51"></path><path d="M710,278L716,425L715,125Z" fill="rgb(25,72,133)" stroke="rgb(25,72,133)" stroke-width="1.51"></path><path d="M709,53L712,-26L634,48Z" fill="rgb(134,131,143)" stroke="rgb(134,131,143)" stroke-width="1.51"></path><path d="M715,125L712,-26L709,53Z" fill="rgb(131,129,134)" stroke="rgb(131,129,134)" stroke-width="1.51"></path><path d="M639,426L716,425L710,349Z" fill="rgb(8,29,88)" stroke="rgb(8,29,88)" stroke-width="1.51"></path><path d="M561,504L640,502L639,426Z" fill="rgb(8,29,88)" stroke="rgb(8,29,88)" stroke-width="1.51"></path><path d="M712,-26L707,-98L634,-26Z" fill="rgb(137,132,152)" stroke="rgb(137,132,152)" stroke-width="1.51"></path><path d="M712,498L716,425L639,426Z" fill="rgb(8,29,88)" stroke="rgb(8,29,88)" stroke-width="1.51"></path><path d="M710,349L716,425L710,278Z" fill="rgb(23,40,117)" stroke="rgb(23,40,117)" stroke-width="1.51"></path><path d="M640,502L712,498L639,426Z" fill="rgb(8,29,88)" stroke="rgb(8,29,88)" stroke-width="1.51"></path></svg>