<svg width="600" height="400" xmlns="http://www.w3.org/2000/svg"><path d="M339,197L410,203L407,124Z" fill="rgb(149,145,197)" stroke="rgb(149,145,197)" stroke-width="1.51"></path><path d="M407,124L341,125L339,197Z" fill="rgb(161,160,204)" stroke="rgb(161,160,204)" stroke-width="1.51"></path><path d="M410,203L483,199L407,124Z" fill="rgb(142,130,189)" stroke="rgb(142,130,189)" stroke-width="1.51"></path><path d="M483,199L489,126L407,124Z" fill="rgb(146,131,190)" stroke="rgb(146,131,190)" stroke-width="1.51"></path><path d="M339,197L337,277L410,203Z" fill="rgb(138,134,191)" stroke="rgb(138,134,191)" stroke-width="1.51"></path><path d="M410,203L488,271L483,199Z" fill="rgb(124,107,177)" stroke="rgb(124,107,177)" stroke-width="1.51"></path><path d="M337,277L416,278L410,203Z" fill="rgb(126,120,183)" stroke="rgb(126,120,183)" stroke-width="1.51"></path><path d="M407,124L340,48L341,125Z" fill="rgb(176,173,211)" stroke="rgb(176,173,211)" stroke-width="1.51"></path><path d="M257,128L258,197L339,197Z" fill="rgb(169,166,207)" stroke="rgb(169,166,207)" stroke-width="1.51"></path><path d="M339,197L259,276L337,277Z" fill="rgb(141,137,192)" stroke="rgb(141,137,192)" stroke-width="1.51"></path><path d="M413,46L340,48L407,124Z" fill="rgb(177,171,211)" stroke="rgb(177,171,211)" stroke-width="1.51"></path><path d="M257,128L339,197L341,125Z" fill="rgb(171,169,209)" stroke="rgb(171,169,209)" stroke-width="1.51"></path><path d="M489,126L413,46L407,124Z" fill="rgb(165,152,201)" stroke="rgb(165,152,201)" stroke-width="1.51"></path><path d="M258,52L257,128L341,125Z" fill="rgb(190,189,219)" stroke="rgb(190,189,219)" stroke-width="1.51"></path><path d="M483,199L561,201L489,126Z" fill="rgb(132,108,179)" stroke="rgb(132,108,179)" stroke-width="1.51"></path><path d="M416,278L488,271L410,203Z" fill="rgb(119,106,176)" stroke="rgb(119,106,176)" stroke-width="1.51"></path><path d="M489,126L485,45L413,46Z" fill="rgb(167,148,201)" stroke="rgb(167,148,201)" stroke-width="1.51"></path><path d="M258,197L259,276L339,197Z" fill="rgb(154,150,199)" stroke="rgb(154,150,199)" stroke-width="1.51"></path><path d="M190,270L259,276L258,197Z" fill="rgb(157,155,202)" stroke="rgb(157,155,202)" stroke-width="1.51"></path><path d="M340,48L258,52L341,125Z" fill="rgb(190,187,219)" stroke="rgb(190,187,219)" stroke-width="1.51"></path><path d="M488,271L561,201L483,199Z" fill="rgb(117,94,170)" stroke="rgb(117,94,170)" stroke-width="1.51"></path><path d="M489,126L561,52L485,45Z" fill="rgb(160,135,194)" stroke="rgb(160,135,194)" stroke-width="1.51"></path><path d="M416,278L488,353L488,271Z" fill="rgb(104,77,161)" stroke="rgb(104,77,161)" stroke-width="1.51"></path><path d="M488,271L561,276L561,201Z" fill="rgb(106,81,163)" stroke="rgb(106,81,163)" stroke-width="1.51"></path><path d="M337,277L412,349L416,278Z" fill="rgb(115,98,172)" stroke="rgb(115,98,172)" stroke-width="1.51"></path><path d="M333,348L412,349L337,277Z" fill="rgb(116,96,171)" stroke="rgb(116,96,171)" stroke-width="1.51"></path><path d="M561,201L562,128L489,126Z" fill="rgb(136,110,180)" stroke="rgb(136,110,180)" stroke-width="1.51"></path><path d="M266,351L333,348L337,277Z" fill="rgb(125,104,176)" stroke="rgb(125,104,176)" stroke-width="1.51"></path><path d="M340,48L265,-28L258,52Z" fill="rgb(204,201,226)" stroke="rgb(204,201,226)" stroke-width="1.51"></path><path d="M413,46L341,-22L340,48Z" fill="rgb(189,185,218)" stroke="rgb(189,185,218)" stroke-width="1.51"></path><path d="M409,-26L341,-22L413,46Z" fill="rgb(188,182,217)" stroke="rgb(188,182,217)" stroke-width="1.51"></path><path d="M484,-27L409,-26L413,46Z" fill="rgb(182,167,210)" stroke="rgb(182,167,210)" stroke-width="1.51"></path><path d="M257,128L186,201L258,197Z" fill="rgb(179,178,214)" stroke="rgb(179,178,214)" stroke-width="1.51"></path><path d="M187,122L186,201L257,128Z" fill="rgb(191,192,222)" stroke="rgb(191,192,222)" stroke-width="1.51"></path><path d="M258,52L187,122L257,128Z" fill="rgb(201,201,227)" stroke="rgb(201,201,227)" stroke-width="1.51"></path><path d="M488,353L561,276L488,271Z" fill="rgb(97,64,154)" stroke="rgb(97,64,154)" stroke-width="1.51"></path><path d="M561,201L636,199L562,128Z" fill="rgb(123,93,169)" stroke="rgb(123,93,169)" stroke-width="1.51"></path><path d="M186,201L190,270L258,197Z" fill="rgb(169,167,208)" stroke="rgb(169,167,208)" stroke-width="1.51"></path><path d="M259,276L266,351L337,277Z" fill="rgb(135,119,183)" stroke="rgb(135,119,183)" stroke-width="1.51"></path><path d="M485,45L484,-27L413,46Z" fill="rgb(175,157,205)" stroke="rgb(175,157,205)" stroke-width="1.51"></path><path d="M562,128L561,52L489,126Z" fill="rgb(151,124,187)" stroke="rgb(151,124,187)" stroke-width="1.51"></path><path d="M185,349L266,351L259,276Z" fill="rgb(140,120,185)" stroke="rgb(140,120,185)" stroke-width="1.51"></path><path d="M336,428L411,429L412,349Z" fill="rgb(96,66,154)" stroke="rgb(96,66,154)" stroke-width="1.51"></path><path d="M412,349L488,353L416,278Z" fill="rgb(102,74,159)" stroke="rgb(102,74,159)" stroke-width="1.51"></path><path d="M483,420L488,353L412,349Z" fill="rgb(89,51,147)" stroke="rgb(89,51,147)" stroke-width="1.51"></path><path d="M558,-21L484,-27L485,45Z" fill="rgb(172,146,200)" stroke="rgb(172,146,200)" stroke-width="1.51"></path><path d="M258,52L183,50L187,122Z" fill="rgb(211,211,232)" stroke="rgb(211,211,232)" stroke-width="1.51"></path><path d="M341,-22L265,-28L340,48Z" fill="rgb(202,198,225)" stroke="rgb(202,198,225)" stroke-width="1.51"></path><path d="M339,-102L265,-28L341,-22Z" fill="rgb(202,198,225)" stroke="rgb(202,198,225)" stroke-width="1.51"></path><path d="M339,-102L341,-22L409,-26Z" fill="rgb(192,189,220)" stroke="rgb(192,189,220)" stroke-width="1.51"></path><path d="M191,-26L183,50L258,52Z" fill="rgb(219,219,236)" stroke="rgb(219,219,236)" stroke-width="1.51"></path><path d="M187,122L116,201L186,201Z" fill="rgb(193,192,221)" stroke="rgb(193,192,221)" stroke-width="1.51"></path><path d="M561,52L558,-21L485,45Z" fill="rgb(165,136,195)" stroke="rgb(165,136,195)" stroke-width="1.51"></path><path d="M562,128L640,54L561,52Z" fill="rgb(150,118,183)" stroke="rgb(150,118,183)" stroke-width="1.51"></path><path d="M561,52L641,-22L558,-21Z" fill="rgb(162,129,190)" stroke="rgb(162,129,190)" stroke-width="1.51"></path><path d="M641,272L636,199L561,201Z" fill="rgb(106,76,159)" stroke="rgb(106,76,159)" stroke-width="1.51"></path><path d="M641,272L561,201L561,276Z" fill="rgb(100,71,157)" stroke="rgb(100,71,157)" stroke-width="1.51"></path><path d="M488,353L561,354L561,276Z" fill="rgb(88,46,146)" stroke="rgb(88,46,146)" stroke-width="1.51"></path><path d="M483,420L561,354L488,353Z" fill="rgb(81,36,140)" stroke="rgb(81,36,140)" stroke-width="1.51"></path><path d="M190,270L185,349L259,276Z" fill="rgb(151,137,194)" stroke="rgb(151,137,194)" stroke-width="1.51"></path><path d="M186,201L116,201L190,270Z" fill="rgb(178,176,212)" stroke="rgb(178,176,212)" stroke-width="1.51"></path><path d="M108,122L116,201L187,122Z" fill="rgb(205,205,229)" stroke="rgb(205,205,229)" stroke-width="1.51"></path><path d="M636,199L640,128L562,128Z" fill="rgb(129,99,172)" stroke="rgb(129,99,172)" stroke-width="1.51"></path><path d="M336,428L412,349L333,348Z" fill="rgb(106,79,161)" stroke="rgb(106,79,161)" stroke-width="1.51"></path><path d="M267,426L336,428L333,348Z" fill="rgb(111,80,161)" stroke="rgb(111,80,161)" stroke-width="1.51"></path><path d="M111,275L185,349L190,270Z" fill="rgb(161,146,198)" stroke="rgb(161,146,198)" stroke-width="1.51"></path><path d="M267,426L333,348L266,351Z" fill="rgb(121,92,169)" stroke="rgb(121,92,169)" stroke-width="1.51"></path><path d="M183,50L108,122L187,122Z" fill="rgb(217,216,234)" stroke="rgb(217,216,234)" stroke-width="1.51"></path><path d="M265,-28L191,-26L258,52Z" fill="rgb(217,216,235)" stroke="rgb(217,216,235)" stroke-width="1.51"></path><path d="M484,-27L417,-101L409,-26Z" fill="rgb(181,167,210)" stroke="rgb(181,167,210)" stroke-width="1.51"></path><path d="M265,-28L260,-105L191,-26Z" fill="rgb(217,216,234)" stroke="rgb(217,216,234)" stroke-width="1.51"></path><path d="M491,-98L417,-101L484,-27Z" fill="rgb(178,158,206)" stroke="rgb(178,158,206)" stroke-width="1.51"></path><path d="M417,-101L339,-102L409,-26Z" fill="rgb(188,182,217)" stroke="rgb(188,182,217)" stroke-width="1.51"></path><path d="M107,48L108,122L183,50Z" fill="rgb(226,225,239)" stroke="rgb(226,225,239)" stroke-width="1.51"></path><path d="M411,429L483,420L412,349Z" fill="rgb(88,51,146)" stroke="rgb(88,51,146)" stroke-width="1.51"></path><path d="M190,425L267,426L266,351Z" fill="rgb(126,95,170)" stroke="rgb(126,95,170)" stroke-width="1.51"></path><path d="M639,351L641,272L561,276Z" fill="rgb(86,46,144)" stroke="rgb(86,46,144)" stroke-width="1.51"></path><path d="M716,200L708,120L640,128Z" fill="rgb(129,99,172)" stroke="rgb(129,99,172)" stroke-width="1.51"></path><path d="M641,-22L640,54L716,53Z" fill="rgb(158,123,186)" stroke="rgb(158,123,186)" stroke-width="1.51"></path><path d="M640,128L640,54L562,128Z" fill="rgb(143,111,179)" stroke="rgb(143,111,179)" stroke-width="1.51"></path><path d="M560,-99L491,-98L558,-21Z" fill="rgb(169,139,196)" stroke="rgb(169,139,196)" stroke-width="1.51"></path><path d="M558,-21L491,-98L484,-27Z" fill="rgb(172,145,200)" stroke="rgb(172,145,200)" stroke-width="1.51"></path><path d="M116,201L111,275L190,270Z" fill="rgb(175,172,211)" stroke="rgb(175,172,211)" stroke-width="1.51"></path><path d="M34,198L111,275L116,201Z" fill="rgb(189,186,218)" stroke="rgb(189,186,218)" stroke-width="1.51"></path><path d="M417,-101L260,-105L339,-102Z" fill="rgb(197,193,223)" stroke="rgb(197,193,223)" stroke-width="1.51"></path><path d="M339,-102L260,-105L265,-28Z" fill="rgb(207,205,228)" stroke="rgb(207,205,228)" stroke-width="1.51"></path><path d="M115,-28L183,50L191,-26Z" fill="rgb(232,232,242)" stroke="rgb(232,232,242)" stroke-width="1.51"></path><path d="M115,-28L107,48L183,50Z" fill="rgb(234,233,243)" stroke="rgb(234,233,243)" stroke-width="1.51"></path><path d="M560,495L566,422L483,420Z" fill="rgb(72,19,132)" stroke="rgb(72,19,132)" stroke-width="1.51"></path><path d="M483,420L566,422L561,354Z" fill="rgb(73,20,132)" stroke="rgb(73,20,132)" stroke-width="1.51"></path><path d="M561,354L639,351L561,276Z" fill="rgb(81,37,140)" stroke="rgb(81,37,140)" stroke-width="1.51"></path><path d="M417,-101L708,-100L260,-105Z" fill="rgb(178,159,206)" stroke="rgb(178,159,206)" stroke-width="1.51"></path><path d="M491,-98L560,-99L417,-101Z" fill="rgb(175,152,203)" stroke="rgb(175,152,203)" stroke-width="1.51"></path><path d="M633,-97L560,-99L558,-21Z" fill="rgb(163,130,191)" stroke="rgb(163,130,191)" stroke-width="1.51"></path><path d="M185,349L190,425L266,351Z" fill="rgb(136,108,178)" stroke="rgb(136,108,178)" stroke-width="1.51"></path><path d="M267,426L336,495L336,428Z" fill="rgb(111,80,161)" stroke="rgb(111,80,161)" stroke-width="1.51"></path><path d="M116,429L190,425L185,349Z" fill="rgb(142,110,178)" stroke="rgb(142,110,178)" stroke-width="1.51"></path><path d="M566,422L639,351L561,354Z" fill="rgb(70,15,131)" stroke="rgb(70,15,131)" stroke-width="1.51"></path><path d="M640,54L641,-22L561,52Z" fill="rgb(157,123,187)" stroke="rgb(157,123,187)" stroke-width="1.51"></path><path d="M708,120L640,54L640,128Z" fill="rgb(144,112,180)" stroke="rgb(144,112,180)" stroke-width="1.51"></path><path d="M188,-101L115,-28L191,-26Z" fill="rgb(232,231,242)" stroke="rgb(232,231,242)" stroke-width="1.51"></path><path d="M260,-105L188,-101L191,-26Z" fill="rgb(222,222,237)" stroke="rgb(222,222,237)" stroke-width="1.51"></path><path d="M34,198L116,201L108,122Z" fill="rgb(205,203,227)" stroke="rgb(205,203,227)" stroke-width="1.51"></path><path d="M33,277L111,354L111,275Z" fill="rgb(171,154,203)" stroke="rgb(171,154,203)" stroke-width="1.51"></path><path d="M111,275L111,354L185,349Z" fill="rgb(160,138,195)" stroke="rgb(160,138,195)" stroke-width="1.51"></path><path d="M336,428L336,495L411,429Z" fill="rgb(101,71,157)" stroke="rgb(101,71,157)" stroke-width="1.51"></path><path d="M411,429L488,498L483,420Z" fill="rgb(84,43,142)" stroke="rgb(84,43,142)" stroke-width="1.51"></path><path d="M262,497L336,495L267,426Z" fill="rgb(116,85,164)" stroke="rgb(116,85,164)" stroke-width="1.51"></path><path d="M716,200L640,128L636,199Z" fill="rgb(121,91,167)" stroke="rgb(121,91,167)" stroke-width="1.51"></path><path d="M716,200L636,199L641,272Z" fill="rgb(106,76,159)" stroke="rgb(106,76,159)" stroke-width="1.51"></path><path d="M336,495L414,497L411,429Z" fill="rgb(96,66,153)" stroke="rgb(96,66,153)" stroke-width="1.51"></path><path d="M709,278L716,200L641,272Z" fill="rgb(98,69,155)" stroke="rgb(98,69,155)" stroke-width="1.51"></path><path d="M41,50L36,122L108,122Z" fill="rgb(230,229,240)" stroke="rgb(230,229,240)" stroke-width="1.51"></path><path d="M41,50L108,122L107,48Z" fill="rgb(232,231,242)" stroke="rgb(232,231,242)" stroke-width="1.51"></path><path d="M36,122L34,198L108,122Z" fill="rgb(216,215,234)" stroke="rgb(216,215,234)" stroke-width="1.51"></path><path d="M709,345L709,278L641,272Z" fill="rgb(86,47,144)" stroke="rgb(86,47,144)" stroke-width="1.51"></path><path d="M414,497L488,498L411,429Z" fill="rgb(88,50,146)" stroke="rgb(88,50,146)" stroke-width="1.51"></path><path d="M566,422L633,426L639,351Z" fill="rgb(63,0,125)" stroke="rgb(63,0,125)" stroke-width="1.51"></path><path d="M336,495L262,497L414,497Z" fill="rgb(106,76,159)" stroke="rgb(106,76,159)" stroke-width="1.51"></path><path d="M414,497L185,503L488,498Z" fill="rgb(101,72,156)" stroke="rgb(101,72,156)" stroke-width="1.51"></path><path d="M190,425L262,497L267,426Z" fill="rgb(126,96,170)" stroke="rgb(126,96,170)" stroke-width="1.51"></path><path d="M185,503L262,497L190,425Z" fill="rgb(132,101,174)" stroke="rgb(132,101,174)" stroke-width="1.51"></path><path d="M35,-23L41,50L107,48Z" fill="rgb(243,242,247)" stroke="rgb(243,242,247)" stroke-width="1.51"></path><path d="M716,200L716,53L708,120Z" fill="rgb(137,106,176)" stroke="rgb(137,106,176)" stroke-width="1.51"></path><path d="M708,120L716,53L640,54Z" fill="rgb(149,116,182)" stroke="rgb(149,116,182)" stroke-width="1.51"></path><path d="M34,198L33,277L111,275Z" fill="rgb(185,181,217)" stroke="rgb(185,181,217)" stroke-width="1.51"></path><path d="M639,351L709,345L641,272Z" fill="rgb(80,37,139)" stroke="rgb(80,37,139)" stroke-width="1.51"></path><path d="M560,495L633,426L566,422Z" fill="rgb(65,4,126)" stroke="rgb(65,4,126)" stroke-width="1.51"></path><path d="M708,-100L633,-97L641,-22Z" fill="rgb(161,127,189)" stroke="rgb(161,127,189)" stroke-width="1.51"></path><path d="M641,-22L633,-97L558,-21Z" fill="rgb(161,127,189)" stroke="rgb(161,127,189)" stroke-width="1.51"></path><path d="M111,354L116,429L185,349Z" fill="rgb(150,120,185)" stroke="rgb(150,120,185)" stroke-width="1.51"></path><path d="M36,425L116,429L111,354Z" fill="rgb(153,119,184)" stroke="rgb(153,119,184)" stroke-width="1.51"></path><path d="M115,-28L35,-23L107,48Z" fill="rgb(244,242,248)" stroke="rgb(244,242,248)" stroke-width="1.51"></path><path d="M188,-101L117,-101L115,-28Z" fill="rgb(236,236,244)" stroke="rgb(236,236,244)" stroke-width="1.51"></path><path d="M260,-105L117,-101L188,-101Z" fill="rgb(227,227,240)" stroke="rgb(227,227,240)" stroke-width="1.51"></path><path d="M707,428L709,345L639,351Z" fill="rgb(69,12,129)" stroke="rgb(69,12,129)" stroke-width="1.51"></path><path d="M709,278L709,345L716,200Z" fill="rgb(92,59,150)" stroke="rgb(92,59,150)" stroke-width="1.51"></path><path d="M488,498L560,495L483,420Z" fill="rgb(76,28,136)" stroke="rgb(76,28,136)" stroke-width="1.51"></path><path d="M716,53L717,-24L641,-22Z" fill="rgb(160,126,189)" stroke="rgb(160,126,189)" stroke-width="1.51"></path><path d="M716,200L717,-24L716,53Z" fill="rgb(149,116,182)" stroke="rgb(149,116,182)" stroke-width="1.51"></path><path d="M116,429L185,503L190,425Z" fill="rgb(142,110,178)" stroke="rgb(142,110,178)" stroke-width="1.51"></path><path d="M262,497L185,503L414,497Z" fill="rgb(116,86,164)" stroke="rgb(116,86,164)" stroke-width="1.51"></path><path d="M-35,122L34,198L36,122Z" fill="rgb(220,220,236)" stroke="rgb(220,220,236)" stroke-width="1.51"></path><path d="M-35,122L-35,201L34,198Z" fill="rgb(213,211,232)" stroke="rgb(213,211,232)" stroke-width="1.51"></path><path d="M34,198L-35,201L33,277Z" fill="rgb(196,193,222)" stroke="rgb(196,193,222)" stroke-width="1.51"></path><path d="M36,-96L35,-23L115,-28Z" fill="rgb(246,245,249)" stroke="rgb(246,245,249)" stroke-width="1.51"></path><path d="M33,277L33,352L111,354Z" fill="rgb(169,146,200)" stroke="rgb(169,146,200)" stroke-width="1.51"></path><path d="M116,429L113,496L185,503Z" fill="rgb(146,113,181)" stroke="rgb(146,113,181)" stroke-width="1.51"></path><path d="M33,277L-38,354L33,352Z" fill="rgb(173,150,202)" stroke="rgb(173,150,202)" stroke-width="1.51"></path><path d="M-35,122L36,122L41,50Z" fill="rgb(234,233,243)" stroke="rgb(234,233,243)" stroke-width="1.51"></path><path d="M-41,50L-35,122L41,50Z" fill="rgb(240,239,246)" stroke="rgb(240,239,246)" stroke-width="1.51"></path><path d="M488,498L634,498L560,495Z" fill="rgb(69,12,129)" stroke="rgb(69,12,129)" stroke-width="1.51"></path><path d="M560,495L634,498L633,426Z" fill="rgb(63,0,125)" stroke="rgb(63,0,125)" stroke-width="1.51"></path><path d="M633,426L707,428L639,351Z" fill="rgb(63,0,125)" stroke="rgb(63,0,125)" stroke-width="1.51"></path><path d="M715,499L634,498L488,498Z" fill="rgb(63,0,125)" stroke="rgb(63,0,125)" stroke-width="1.51"></path><path d="M634,498L707,428L633,426Z" fill="rgb(63,0,125)" stroke="rgb(63,0,125)" stroke-width="1.51"></path><path d="M709,345L715,499L716,200Z" fill="rgb(74,24,134)" stroke="rgb(74,24,134)" stroke-width="1.51"></path><path d="M717,-24L708,-100L641,-22Z" fill="rgb(161,127,189)" stroke="rgb(161,127,189)" stroke-width="1.51"></path><path d="M633,-97L708,-100L560,-99Z" fill="rgb(161,127,189)" stroke="rgb(161,127,189)" stroke-width="1.51"></path><path d="M560,-99L708,-100L417,-101Z" fill="rgb(166,134,193)" stroke="rgb(166,134,193)" stroke-width="1.51"></path><path d="M36,425L113,496L116,429Z" fill="rgb(153,119,184)" stroke="rgb(153,119,184)" stroke-width="1.51"></path><path d="M33,352L36,425L111,354Z" fill="rgb(160,129,190)" stroke="rgb(160,129,190)" stroke-width="1.51"></path><path d="M-35,201L-37,272L33,277Z" fill="rgb(190,186,219)" stroke="rgb(190,186,219)" stroke-width="1.51"></path><path d="M-110,197L-37,272L-35,201Z" fill="rgb(198,194,223)" stroke="rgb(198,194,223)" stroke-width="1.51"></path><path d="M-34,421L36,425L33,352Z" fill="rgb(160,126,188)" stroke="rgb(160,126,188)" stroke-width="1.51"></path><path d="M117,-101L36,-96L115,-28Z" fill="rgb(243,242,248)" stroke="rgb(243,242,248)" stroke-width="1.51"></path><path d="M35,-23L-41,50L41,50Z" fill="rgb(247,246,250)" stroke="rgb(247,246,250)" stroke-width="1.51"></path><path d="M-35,122L-110,197L-35,201Z" fill="rgb(213,211,232)" stroke="rgb(213,211,232)" stroke-width="1.51"></path><path d="M-36,-26L-41,50L35,-23Z" fill="rgb(252,251,253)" stroke="rgb(252,251,253)" stroke-width="1.51"></path><path d="M36,-96L-36,-26L35,-23Z" fill="rgb(251,250,252)" stroke="rgb(251,250,252)" stroke-width="1.51"></path><path d="M-37,272L-38,354L33,277Z" fill="rgb(180,162,208)" stroke="rgb(180,162,208)" stroke-width="1.51"></path><path d="M-113,276L-38,354L-37,272Z" fill="rgb(180,162,208)" stroke="rgb(180,162,208)" stroke-width="1.51"></path><path d="M707,428L715,499L709,345Z" fill="rgb(63,0,125)" stroke="rgb(63,0,125)" stroke-width="1.51"></path><path d="M716,200L715,499L717,-24Z" fill="rgb(106,76,159)" stroke="rgb(106,76,159)" stroke-width="1.51"></path><path d="M634,498L715,499L707,428Z" fill="rgb(63,0,125)" stroke="rgb(63,0,125)" stroke-width="1.51"></path><path d="M185,503L715,499L488,498Z" fill="rgb(83,43,142)" stroke="rgb(83,43,142)" stroke-width="1.51"></path><path d="M-40,496L35,502L36,425Z" fill="rgb(160,126,188)" stroke="rgb(160,126,188)" stroke-width="1.51"></path><path d="M36,425L35,502L113,496Z" fill="rgb(156,122,185)" stroke="rgb(156,122,185)" stroke-width="1.51"></path><path d="M113,496L35,502L185,503Z" fill="rgb(150,117,182)" stroke="rgb(150,117,182)" stroke-width="1.51"></path><path d="M-38,354L-34,421L33,352Z" fill="rgb(165,134,193)" stroke="rgb(165,134,193)" stroke-width="1.51"></path><path d="M-38,354L-116,423L-34,421Z" fill="rgb(161,127,189)" stroke="rgb(161,127,189)" stroke-width="1.51"></path><path d="M-110,126L-110,197L-35,122Z" fill="rgb(220,220,237)" stroke="rgb(220,220,237)" stroke-width="1.51"></path><path d="M-110,126L-35,122L-41,50Z" fill="rgb(235,234,244)" stroke="rgb(235,234,244)" stroke-width="1.51"></path><path d="M-117,48L-110,126L-41,50Z" fill="rgb(240,239,246)" stroke="rgb(240,239,246)" stroke-width="1.51"></path><path d="M36,-96L-43,-105L-36,-26Z" fill="rgb(252,251,253)" stroke="rgb(252,251,253)" stroke-width="1.51"></path><path d="M-108,-21L-117,48L-41,50Z" fill="rgb(248,247,251)" stroke="rgb(248,247,251)" stroke-width="1.51"></path><path d="M117,-101L-43,-105L36,-96Z" fill="rgb(249,247,251)" stroke="rgb(249,247,251)" stroke-width="1.51"></path><path d="M260,-105L-43,-105L117,-101Z" fill="rgb(240,239,246)" stroke="rgb(240,239,246)" stroke-width="1.51"></path><path d="M-110,197L-113,276L-37,272Z" fill="rgb(190,187,219)" stroke="rgb(190,187,219)" stroke-width="1.51"></path><path d="M-117,48L-113,276L-110,197Z" fill="rgb(213,211,232)" stroke="rgb(213,211,232)" stroke-width="1.51"></path><path d="M-110,126L-117,48L-110,197Z" fill="rgb(228,227,240)" stroke="rgb(228,227,240)" stroke-width="1.51"></path><path d="M-108,-21L-41,50L-36,-26Z" fill="rgb(252,251,253)" stroke="rgb(252,251,253)" stroke-width="1.51"></path><path d="M-113,-99L-108,-21L-36,-26Z" fill="rgb(252,251,253)" stroke="rgb(252,251,253)" stroke-width="1.51"></path><path d="M-113,276L-117,350L-38,354Z" fill="rgb(175,151,202)" stroke="rgb(175,151,202)" stroke-width="1.51"></path><path d="M-34,421L-40,496L36,425Z" fill="rgb(161,127,189)" stroke="rgb(161,127,189)" stroke-width="1.51"></path><path d="M-117,48L-117,350L-113,276Z" fill="rgb(197,194,223)" stroke="rgb(197,194,223)" stroke-width="1.51"></path><path d="M-116,423L-40,496L-34,421Z" fill="rgb(161,127,189)" stroke="rgb(161,127,189)" stroke-width="1.51"></path><path d="M-43,-105L-113,-99L-36,-26Z" fill="rgb(252,251,253)" stroke="rgb(252,251,253)" stroke-width="1.51"></path><path d="M-108,-21L-113,-99L-117,48Z" fill="rgb(252,251,253)" stroke="rgb(252,251,253)" stroke-width="1.51"></path><path d="M-117,350L-116,423L-38,354Z" fill="rgb(165,134,193)" stroke="rgb(165,134,193)" stroke-width="1.51"></path><path d="M-40,496L-114,495L35,502Z" fill="rgb(161,127,189)" stroke="rgb(161,127,189)" stroke-width="1.51"></path><path d="M-116,423L-114,495L-40,496Z" fill="rgb(161,127,189)" stroke="rgb(161,127,189)" stroke-width="1.51"></path></svg>