<svg width="600" height="400" xmlns="http://www.w3.org/2000/svg"><path d="M325,202L259,183L270,255Z" fill="rgb(143,148,197)" stroke="rgb(143,148,197)" stroke-width="1.51"></path><path d="M259,183L199,182L270,255Z" fill="rgb(147,161,204)" stroke="rgb(147,161,204)" stroke-width="1.51"></path><path d="M328,110L252,144L259,183Z" fill="rgb(153,175,211)" stroke="rgb(153,175,211)" stroke-width="1.51"></path><path d="M252,144L199,182L259,183Z" fill="rgb(153,177,212)" stroke="rgb(153,177,212)" stroke-width="1.51"></path><path d="M270,255L341,294L325,202Z" fill="rgb(141,125,186)" stroke="rgb(141,125,186)" stroke-width="1.51"></path><path d="M270,255L246,341L341,294Z" fill="rgb(143,114,180)" stroke="rgb(143,114,180)" stroke-width="1.51"></path><path d="M199,182L191,279L270,255Z" fill="rgb(152,153,200)" stroke="rgb(152,153,200)" stroke-width="1.51"></path><path d="M325,202L328,110L259,183Z" fill="rgb(147,162,204)" stroke="rgb(147,162,204)" stroke-width="1.51"></path><path d="M407,117L328,110L325,202Z" fill="rgb(153,155,201)" stroke="rgb(153,155,201)" stroke-width="1.51"></path><path d="M191,279L246,341L270,255Z" fill="rgb(150,129,187)" stroke="rgb(150,129,187)" stroke-width="1.51"></path><path d="M341,294L407,283L325,202Z" fill="rgb(141,108,177)" stroke="rgb(141,108,177)" stroke-width="1.51"></path><path d="M395,366L407,283L341,294Z" fill="rgb(138,80,161)" stroke="rgb(138,80,161)" stroke-width="1.51"></path><path d="M407,283L427,208L325,202Z" fill="rgb(141,113,179)" stroke="rgb(141,113,179)" stroke-width="1.51"></path><path d="M191,279L202,333L246,341Z" fill="rgb(153,124,182)" stroke="rgb(153,124,182)" stroke-width="1.51"></path><path d="M246,341L318,359L341,294Z" fill="rgb(140,98,167)" stroke="rgb(140,98,167)" stroke-width="1.51"></path><path d="M340,412L318,359L245,439Z" fill="rgb(112,80,134)" stroke="rgb(112,80,134)" stroke-width="1.51"></path><path d="M427,208L407,117L325,202Z" fill="rgb(146,135,191)" stroke="rgb(146,135,191)" stroke-width="1.51"></path><path d="M252,144L168,105L199,182Z" fill="rgb(164,192,221)" stroke="rgb(164,192,221)" stroke-width="1.51"></path><path d="M199,182L98,208L191,279Z" fill="rgb(163,168,208)" stroke="rgb(163,168,208)" stroke-width="1.51"></path><path d="M205,68L168,105L252,144Z" fill="rgb(176,200,225)" stroke="rgb(176,200,225)" stroke-width="1.51"></path><path d="M275,38L252,144L328,110Z" fill="rgb(169,185,216)" stroke="rgb(169,185,216)" stroke-width="1.51"></path><path d="M275,38L205,68L252,144Z" fill="rgb(178,198,224)" stroke="rgb(178,198,224)" stroke-width="1.51"></path><path d="M347,30L275,38L328,110Z" fill="rgb(180,185,217)" stroke="rgb(180,185,217)" stroke-width="1.51"></path><path d="M318,359L395,366L341,294Z" fill="rgb(138,81,157)" stroke="rgb(138,81,157)" stroke-width="1.51"></path><path d="M482,289L489,215L427,208Z" fill="rgb(139,89,166)" stroke="rgb(139,89,166)" stroke-width="1.51"></path><path d="M131,46L122,126L168,105Z" fill="rgb(196,214,232)" stroke="rgb(196,214,232)" stroke-width="1.51"></path><path d="M168,105L122,126L199,182Z" fill="rgb(176,200,225)" stroke="rgb(176,200,225)" stroke-width="1.51"></path><path d="M191,279L110,353L202,333Z" fill="rgb(162,129,185)" stroke="rgb(162,129,185)" stroke-width="1.51"></path><path d="M122,126L98,208L199,182Z" fill="rgb(173,192,220)" stroke="rgb(173,192,220)" stroke-width="1.51"></path><path d="M98,208L104,281L191,279Z" fill="rgb(171,159,204)" stroke="rgb(171,159,204)" stroke-width="1.51"></path><path d="M412,58L347,30L328,110Z" fill="rgb(177,170,210)" stroke="rgb(177,170,210)" stroke-width="1.51"></path><path d="M473,125L412,58L407,117Z" fill="rgb(166,144,196)" stroke="rgb(166,144,196)" stroke-width="1.51"></path><path d="M407,117L412,58L328,110Z" fill="rgb(168,157,203)" stroke="rgb(168,157,203)" stroke-width="1.51"></path><path d="M318,359L340,412L395,366Z" fill="rgb(122,70,138)" stroke="rgb(122,70,138)" stroke-width="1.51"></path><path d="M245,439L318,359L246,341Z" fill="rgb(127,92,148)" stroke="rgb(127,92,148)" stroke-width="1.51"></path><path d="M245,439L246,341L169,413Z" fill="rgb(124,100,145)" stroke="rgb(124,100,145)" stroke-width="1.51"></path><path d="M427,208L473,125L407,117Z" fill="rgb(151,132,189)" stroke="rgb(151,132,189)" stroke-width="1.51"></path><path d="M482,289L427,208L407,283Z" fill="rgb(139,86,166)" stroke="rgb(139,86,166)" stroke-width="1.51"></path><path d="M489,215L473,125L427,208Z" fill="rgb(144,113,178)" stroke="rgb(144,113,178)" stroke-width="1.51"></path><path d="M484,364L482,289L407,283Z" fill="rgb(135,59,151)" stroke="rgb(135,59,151)" stroke-width="1.51"></path><path d="M104,281L110,353L191,279Z" fill="rgb(170,140,193)" stroke="rgb(170,140,193)" stroke-width="1.51"></path><path d="M169,413L246,341L202,333Z" fill="rgb(147,111,165)" stroke="rgb(147,111,165)" stroke-width="1.51"></path><path d="M110,353L169,413L202,333Z" fill="rgb(154,116,166)" stroke="rgb(154,116,166)" stroke-width="1.51"></path><path d="M205,68L131,46L168,105Z" fill="rgb(196,214,232)" stroke="rgb(196,214,232)" stroke-width="1.51"></path><path d="M45,214L54,264L98,208Z" fill="rgb(184,181,215)" stroke="rgb(184,181,215)" stroke-width="1.51"></path><path d="M121,-11L131,46L183,-45Z" fill="rgb(220,232,242)" stroke="rgb(220,232,242)" stroke-width="1.51"></path><path d="M259,-43L205,68L275,38Z" fill="rgb(195,210,230)" stroke="rgb(195,210,230)" stroke-width="1.51"></path><path d="M104,281L44,341L110,353Z" fill="rgb(179,140,190)" stroke="rgb(179,140,190)" stroke-width="1.51"></path><path d="M98,208L54,264L104,281Z" fill="rgb(180,168,209)" stroke="rgb(180,168,209)" stroke-width="1.51"></path><path d="M45,214L98,208L17,124Z" fill="rgb(189,202,226)" stroke="rgb(189,202,226)" stroke-width="1.51"></path><path d="M395,366L484,364L407,283Z" fill="rgb(135,57,147)" stroke="rgb(135,57,147)" stroke-width="1.51"></path><path d="M340,412L428,405L395,366Z" fill="rgb(112,55,125)" stroke="rgb(112,55,125)" stroke-width="1.51"></path><path d="M341,487L428,405L340,412Z" fill="rgb(109,60,125)" stroke="rgb(109,60,125)" stroke-width="1.51"></path><path d="M17,124L98,208L122,126Z" fill="rgb(190,210,230)" stroke="rgb(190,210,230)" stroke-width="1.51"></path><path d="M347,30L346,-22L275,38Z" fill="rgb(190,191,221)" stroke="rgb(190,191,221)" stroke-width="1.51"></path><path d="M395,-19L346,-22L347,30Z" fill="rgb(194,181,216)" stroke="rgb(194,181,216)" stroke-width="1.51"></path><path d="M395,-19L347,30L412,58Z" fill="rgb(189,172,211)" stroke="rgb(189,172,211)" stroke-width="1.51"></path><path d="M482,289L543,293L489,215Z" fill="rgb(136,67,152)" stroke="rgb(136,67,152)" stroke-width="1.51"></path><path d="M428,405L484,364L395,366Z" fill="rgb(118,44,128)" stroke="rgb(118,44,128)" stroke-width="1.51"></path><path d="M474,-21L395,-19L412,58Z" fill="rgb(192,163,207)" stroke="rgb(192,163,207)" stroke-width="1.51"></path><path d="M334,-88L259,-43L346,-22Z" fill="rgb(193,196,223)" stroke="rgb(193,196,223)" stroke-width="1.51"></path><path d="M346,-22L259,-43L275,38Z" fill="rgb(195,201,226)" stroke="rgb(195,201,226)" stroke-width="1.51"></path><path d="M484,364L543,293L482,289Z" fill="rgb(133,44,140)" stroke="rgb(133,44,140)" stroke-width="1.51"></path><path d="M489,215L544,133L473,125Z" fill="rgb(149,114,174)" stroke="rgb(149,114,174)" stroke-width="1.51"></path><path d="M473,125L505,49L412,58Z" fill="rgb(173,141,193)" stroke="rgb(173,141,193)" stroke-width="1.51"></path><path d="M559,183L544,133L489,215Z" fill="rgb(142,100,163)" stroke="rgb(142,100,163)" stroke-width="1.51"></path><path d="M54,264L44,341L104,281Z" fill="rgb(184,153,202)" stroke="rgb(184,153,202)" stroke-width="1.51"></path><path d="M110,353L92,416L169,413Z" fill="rgb(145,114,155)" stroke="rgb(145,114,155)" stroke-width="1.51"></path><path d="M-29,291L44,341L54,264Z" fill="rgb(190,156,204)" stroke="rgb(190,156,204)" stroke-width="1.51"></path><path d="M502,501L482,404L428,405Z" fill="rgb(105,29,110)" stroke="rgb(105,29,110)" stroke-width="1.51"></path><path d="M428,405L482,404L484,364Z" fill="rgb(110,32,116)" stroke="rgb(110,32,116)" stroke-width="1.51"></path><path d="M484,364L560,350L543,293Z" fill="rgb(129,25,127)" stroke="rgb(129,25,127)" stroke-width="1.51"></path><path d="M543,293L559,183L489,215Z" fill="rgb(136,78,152)" stroke="rgb(136,78,152)" stroke-width="1.51"></path><path d="M544,133L505,49L473,125Z" fill="rgb(165,125,180)" stroke="rgb(165,125,180)" stroke-width="1.51"></path><path d="M245,439L341,487L340,412Z" fill="rgb(112,78,133)" stroke="rgb(112,78,133)" stroke-width="1.51"></path><path d="M246,490L341,487L245,439Z" fill="rgb(115,85,137)" stroke="rgb(115,85,137)" stroke-width="1.51"></path><path d="M193,512L246,490L245,439Z" fill="rgb(121,97,143)" stroke="rgb(121,97,143)" stroke-width="1.51"></path><path d="M193,512L245,439L169,413Z" fill="rgb(126,101,145)" stroke="rgb(126,101,145)" stroke-width="1.51"></path><path d="M44,341L92,416L110,353Z" fill="rgb(168,127,171)" stroke="rgb(168,127,171)" stroke-width="1.51"></path><path d="M26,54L17,124L122,126Z" fill="rgb(210,225,238)" stroke="rgb(210,225,238)" stroke-width="1.51"></path><path d="M183,-45L131,46L205,68Z" fill="rgb(209,224,237)" stroke="rgb(209,224,237)" stroke-width="1.51"></path><path d="M259,-43L183,-45L205,68Z" fill="rgb(205,221,236)" stroke="rgb(205,221,236)" stroke-width="1.51"></path><path d="M45,214L-29,291L54,264Z" fill="rgb(191,173,212)" stroke="rgb(191,173,212)" stroke-width="1.51"></path><path d="M26,54L122,126L131,46Z" fill="rgb(212,226,239)" stroke="rgb(212,226,239)" stroke-width="1.51"></path><path d="M395,-19L334,-88L346,-22Z" fill="rgb(194,183,217)" stroke="rgb(194,183,217)" stroke-width="1.51"></path><path d="M505,49L474,-21L412,58Z" fill="rgb(187,150,199)" stroke="rgb(187,150,199)" stroke-width="1.51"></path><path d="M567,-8L474,-21L505,49Z" fill="rgb(190,142,189)" stroke="rgb(190,142,189)" stroke-width="1.51"></path><path d="M121,-11L26,54L131,46Z" fill="rgb(225,236,244)" stroke="rgb(225,236,244)" stroke-width="1.51"></path><path d="M543,293L619,256L559,183Z" fill="rgb(119,65,135)" stroke="rgb(119,65,135)" stroke-width="1.51"></path><path d="M548,411L560,350L484,364Z" fill="rgb(113,10,109)" stroke="rgb(113,10,109)" stroke-width="1.51"></path><path d="M408,-107L334,-88L395,-19Z" fill="rgb(194,176,214)" stroke="rgb(194,176,214)" stroke-width="1.51"></path><path d="M259,-43L167,-88L183,-45Z" fill="rgb(208,223,237)" stroke="rgb(208,223,237)" stroke-width="1.51"></path><path d="M246,490L193,512L341,487Z" fill="rgb(117,90,139)" stroke="rgb(117,90,139)" stroke-width="1.51"></path><path d="M117,488L193,512L169,413Z" fill="rgb(135,107,148)" stroke="rgb(135,107,148)" stroke-width="1.51"></path><path d="M341,487L413,506L428,405Z" fill="rgb(108,53,122)" stroke="rgb(108,53,122)" stroke-width="1.51"></path><path d="M482,404L548,411L484,364Z" fill="rgb(107,17,107)" stroke="rgb(107,17,107)" stroke-width="1.51"></path><path d="M193,512L413,506L341,487Z" fill="rgb(112,75,132)" stroke="rgb(112,75,132)" stroke-width="1.51"></path><path d="M544,133L552,44L505,49Z" fill="rgb(169,126,176)" stroke="rgb(169,126,176)" stroke-width="1.51"></path><path d="M632,117L552,44L544,133Z" fill="rgb(146,113,158)" stroke="rgb(146,113,158)" stroke-width="1.51"></path><path d="M92,416L117,488L169,413Z" fill="rgb(142,112,151)" stroke="rgb(142,112,151)" stroke-width="1.51"></path><path d="M20,486L117,488L92,416Z" fill="rgb(151,119,156)" stroke="rgb(151,119,156)" stroke-width="1.51"></path><path d="M17,124L-33,180L45,214Z" fill="rgb(197,210,230)" stroke="rgb(197,210,230)" stroke-width="1.51"></path><path d="M-34,124L-33,180L17,124Z" fill="rgb(205,221,236)" stroke="rgb(205,221,236)" stroke-width="1.51"></path><path d="M44,341L23,413L92,416Z" fill="rgb(161,124,162)" stroke="rgb(161,124,162)" stroke-width="1.51"></path><path d="M-33,180L-29,291L45,214Z" fill="rgb(194,187,219)" stroke="rgb(194,187,219)" stroke-width="1.51"></path><path d="M269,-116L167,-88L259,-43Z" fill="rgb(202,218,234)" stroke="rgb(202,218,234)" stroke-width="1.51"></path><path d="M183,-45L167,-88L121,-11Z" fill="rgb(218,230,241)" stroke="rgb(218,230,241)" stroke-width="1.51"></path><path d="M121,-11L18,-10L26,54Z" fill="rgb(236,244,248)" stroke="rgb(236,244,248)" stroke-width="1.51"></path><path d="M502,501L548,411L482,404Z" fill="rgb(103,14,102)" stroke="rgb(103,14,102)" stroke-width="1.51"></path><path d="M-18,346L23,413L44,341Z" fill="rgb(179,134,177)" stroke="rgb(179,134,177)" stroke-width="1.51"></path><path d="M-29,291L-18,346L44,341Z" fill="rgb(193,148,196)" stroke="rgb(193,148,196)" stroke-width="1.51"></path><path d="M334,-88L269,-116L259,-43Z" fill="rgb(195,203,227)" stroke="rgb(195,203,227)" stroke-width="1.51"></path><path d="M-41,59L-34,124L17,124Z" fill="rgb(218,231,241)" stroke="rgb(218,231,241)" stroke-width="1.51"></path><path d="M559,183L632,117L544,133Z" fill="rgb(132,103,152)" stroke="rgb(132,103,152)" stroke-width="1.51"></path><path d="M560,350L619,256L543,293Z" fill="rgb(115,38,123)" stroke="rgb(115,38,123)" stroke-width="1.51"></path><path d="M632,367L619,256L560,350Z" fill="rgb(104,23,107)" stroke="rgb(104,23,107)" stroke-width="1.51"></path><path d="M334,-88L408,-107L269,-116Z" fill="rgb(194,189,220)" stroke="rgb(194,189,220)" stroke-width="1.51"></path><path d="M474,-21L408,-107L395,-19Z" fill="rgb(194,164,208)" stroke="rgb(194,164,208)" stroke-width="1.51"></path><path d="M497,-93L408,-107L474,-21Z" fill="rgb(193,155,203)" stroke="rgb(193,155,203)" stroke-width="1.51"></path><path d="M26,54L-41,59L17,124Z" fill="rgb(226,236,244)" stroke="rgb(226,236,244)" stroke-width="1.51"></path><path d="M49,-102L18,-10L121,-11Z" fill="rgb(237,245,249)" stroke="rgb(237,245,249)" stroke-width="1.51"></path><path d="M413,506L502,501L428,405Z" fill="rgb(106,36,115)" stroke="rgb(106,36,115)" stroke-width="1.51"></path><path d="M552,44L567,-8L505,49Z" fill="rgb(179,133,179)" stroke="rgb(179,133,179)" stroke-width="1.51"></path><path d="M624,44L567,-8L552,44Z" fill="rgb(164,126,164)" stroke="rgb(164,126,164)" stroke-width="1.51"></path><path d="M651,219L632,117L559,183Z" fill="rgb(117,90,139)" stroke="rgb(117,90,139)" stroke-width="1.51"></path><path d="M-123,196L-95,280L-33,180Z" fill="rgb(194,191,221)" stroke="rgb(194,191,221)" stroke-width="1.51"></path><path d="M-95,280L-18,346L-29,291Z" fill="rgb(193,156,203)" stroke="rgb(193,156,203)" stroke-width="1.51"></path><path d="M18,-10L-41,59L26,54Z" fill="rgb(239,246,250)" stroke="rgb(239,246,250)" stroke-width="1.51"></path><path d="M619,256L651,219L559,183Z" fill="rgb(111,72,130)" stroke="rgb(111,72,130)" stroke-width="1.51"></path><path d="M720,280L651,219L619,256Z" fill="rgb(109,57,124)" stroke="rgb(109,57,124)" stroke-width="1.51"></path><path d="M632,367L560,350L548,411Z" fill="rgb(95,4,93)" stroke="rgb(95,4,93)" stroke-width="1.51"></path><path d="M269,-116L110,-106L167,-88Z" fill="rgb(212,226,239)" stroke="rgb(212,226,239)" stroke-width="1.51"></path><path d="M167,-88L110,-106L121,-11Z" fill="rgb(223,234,243)" stroke="rgb(223,234,243)" stroke-width="1.51"></path><path d="M567,-8L497,-93L474,-21Z" fill="rgb(192,143,190)" stroke="rgb(192,143,190)" stroke-width="1.51"></path><path d="M636,419L632,367L548,411Z" fill="rgb(77,0,75)" stroke="rgb(77,0,75)" stroke-width="1.51"></path><path d="M23,413L20,486L92,416Z" fill="rgb(156,122,158)" stroke="rgb(156,122,158)" stroke-width="1.51"></path><path d="M117,488L20,486L193,512Z" fill="rgb(145,114,152)" stroke="rgb(145,114,152)" stroke-width="1.51"></path><path d="M-40,416L20,486L23,413Z" fill="rgb(162,126,160)" stroke="rgb(162,126,160)" stroke-width="1.51"></path><path d="M567,-8L547,-119L497,-93Z" fill="rgb(186,138,183)" stroke="rgb(186,138,183)" stroke-width="1.51"></path><path d="M632,117L624,44L552,44Z" fill="rgb(146,115,153)" stroke="rgb(146,115,153)" stroke-width="1.51"></path><path d="M722,69L624,44L632,117Z" fill="rgb(143,114,152)" stroke="rgb(143,114,152)" stroke-width="1.51"></path><path d="M-95,280L-29,291L-33,180Z" fill="rgb(194,177,215)" stroke="rgb(194,177,215)" stroke-width="1.51"></path><path d="M-113,363L-40,416L-18,346Z" fill="rgb(176,133,174)" stroke="rgb(176,133,174)" stroke-width="1.51"></path><path d="M-18,346L-40,416L23,413Z" fill="rgb(167,128,165)" stroke="rgb(167,128,165)" stroke-width="1.51"></path><path d="M-96,137L-33,180L-34,124Z" fill="rgb(204,220,236)" stroke="rgb(204,220,236)" stroke-width="1.51"></path><path d="M-41,59L-96,137L-34,124Z" fill="rgb(217,230,240)" stroke="rgb(217,230,240)" stroke-width="1.51"></path><path d="M110,-106L49,-102L121,-11Z" fill="rgb(232,241,247)" stroke="rgb(232,241,247)" stroke-width="1.51"></path><path d="M18,-10L-44,-18L-41,59Z" fill="rgb(245,250,252)" stroke="rgb(245,250,252)" stroke-width="1.51"></path><path d="M-41,59L-122,63L-96,137Z" fill="rgb(224,235,243)" stroke="rgb(224,235,243)" stroke-width="1.51"></path><path d="M502,501L572,496L548,411Z" fill="rgb(97,4,94)" stroke="rgb(97,4,94)" stroke-width="1.51"></path><path d="M-40,-88L-44,-18L18,-10Z" fill="rgb(247,252,253)" stroke="rgb(247,252,253)" stroke-width="1.51"></path><path d="M572,496L636,419L548,411Z" fill="rgb(82,1,79)" stroke="rgb(82,1,79)" stroke-width="1.51"></path><path d="M720,280L697,187L651,219Z" fill="rgb(111,68,128)" stroke="rgb(111,68,128)" stroke-width="1.51"></path><path d="M-122,63L-123,196L-96,137Z" fill="rgb(209,224,237)" stroke="rgb(209,224,237)" stroke-width="1.51"></path><path d="M-96,137L-123,196L-33,180Z" fill="rgb(199,211,231)" stroke="rgb(199,211,231)" stroke-width="1.51"></path><path d="M651,219L697,187L632,117Z" fill="rgb(117,89,139)" stroke="rgb(117,89,139)" stroke-width="1.51"></path><path d="M720,280L619,256L632,367Z" fill="rgb(106,34,114)" stroke="rgb(106,34,114)" stroke-width="1.51"></path><path d="M-95,280L-113,363L-18,346Z" fill="rgb(192,147,194)" stroke="rgb(192,147,194)" stroke-width="1.51"></path><path d="M-40,416L-58,482L20,486Z" fill="rgb(162,126,160)" stroke="rgb(162,126,160)" stroke-width="1.51"></path><path d="M-123,196L-113,363L-95,280Z" fill="rgb(194,166,209)" stroke="rgb(194,166,209)" stroke-width="1.51"></path><path d="M497,-93L547,-119L408,-107Z" fill="rgb(192,149,197)" stroke="rgb(192,149,197)" stroke-width="1.51"></path><path d="M408,-107L547,-119L269,-116Z" fill="rgb(194,169,210)" stroke="rgb(194,169,210)" stroke-width="1.51"></path><path d="M634,-113L547,-119L567,-8Z" fill="rgb(169,130,166)" stroke="rgb(169,130,166)" stroke-width="1.51"></path><path d="M644,-15L567,-8L624,44Z" fill="rgb(161,125,160)" stroke="rgb(161,125,160)" stroke-width="1.51"></path><path d="M692,-25L644,-15L624,44Z" fill="rgb(162,126,160)" stroke="rgb(162,126,160)" stroke-width="1.51"></path><path d="M-113,363L-98,410L-40,416Z" fill="rgb(164,127,162)" stroke="rgb(164,127,162)" stroke-width="1.51"></path><path d="M-98,410L-58,482L-40,416Z" fill="rgb(162,126,160)" stroke="rgb(162,126,160)" stroke-width="1.51"></path><path d="M20,486L-105,514L193,512Z" fill="rgb(157,123,158)" stroke="rgb(157,123,158)" stroke-width="1.51"></path><path d="M-44,-18L-122,63L-41,59Z" fill="rgb(239,246,250)" stroke="rgb(239,246,250)" stroke-width="1.51"></path><path d="M697,187L712,115L632,117Z" fill="rgb(125,100,144)" stroke="rgb(125,100,144)" stroke-width="1.51"></path><path d="M697,187L720,280L712,115Z" fill="rgb(113,82,135)" stroke="rgb(113,82,135)" stroke-width="1.51"></path><path d="M721,364L720,280L632,367Z" fill="rgb(103,16,103)" stroke="rgb(103,16,103)" stroke-width="1.51"></path><path d="M-44,-18L-107,-36L-122,63Z" fill="rgb(246,251,252)" stroke="rgb(246,251,252)" stroke-width="1.51"></path><path d="M49,-102L-40,-88L18,-10Z" fill="rgb(246,251,253)" stroke="rgb(246,251,253)" stroke-width="1.51"></path><path d="M636,419L721,364L632,367Z" fill="rgb(85,1,83)" stroke="rgb(85,1,83)" stroke-width="1.51"></path><path d="M572,496L631,514L636,419Z" fill="rgb(77,0,75)" stroke="rgb(77,0,75)" stroke-width="1.51"></path><path d="M502,501L631,514L572,496Z" fill="rgb(87,2,85)" stroke="rgb(87,2,85)" stroke-width="1.51"></path><path d="M413,506L631,514L502,501Z" fill="rgb(103,11,101)" stroke="rgb(103,11,101)" stroke-width="1.51"></path><path d="M193,512L631,514L413,506Z" fill="rgb(108,47,119)" stroke="rgb(108,47,119)" stroke-width="1.51"></path><path d="M721,439L721,364L636,419Z" fill="rgb(77,0,75)" stroke="rgb(77,0,75)" stroke-width="1.51"></path><path d="M712,115L722,69L632,117Z" fill="rgb(137,108,149)" stroke="rgb(137,108,149)" stroke-width="1.51"></path><path d="M720,280L722,69L712,115Z" fill="rgb(121,96,143)" stroke="rgb(121,96,143)" stroke-width="1.51"></path><path d="M731,504L722,69L720,280Z" fill="rgb(107,43,118)" stroke="rgb(107,43,118)" stroke-width="1.51"></path><path d="M-40,-88L-107,-36L-44,-18Z" fill="rgb(247,252,253)" stroke="rgb(247,252,253)" stroke-width="1.51"></path><path d="M722,69L692,-25L624,44Z" fill="rgb(156,122,158)" stroke="rgb(156,122,158)" stroke-width="1.51"></path><path d="M644,-15L634,-113L567,-8Z" fill="rgb(162,126,160)" stroke="rgb(162,126,160)" stroke-width="1.51"></path><path d="M692,-25L634,-113L644,-15Z" fill="rgb(162,126,160)" stroke="rgb(162,126,160)" stroke-width="1.51"></path><path d="M721,364L731,504L720,280Z" fill="rgb(85,1,83)" stroke="rgb(85,1,83)" stroke-width="1.51"></path><path d="M631,514L721,439L636,419Z" fill="rgb(77,0,75)" stroke="rgb(77,0,75)" stroke-width="1.51"></path><path d="M-58,482L-105,514L20,486Z" fill="rgb(162,126,160)" stroke="rgb(162,126,160)" stroke-width="1.51"></path><path d="M193,512L-105,514L631,514Z" fill="rgb(120,94,142)" stroke="rgb(120,94,142)" stroke-width="1.51"></path><path d="M-98,410L-105,514L-58,482Z" fill="rgb(162,126,160)" stroke="rgb(162,126,160)" stroke-width="1.51"></path><path d="M-113,363L-105,514L-98,410Z" fill="rgb(162,126,160)" stroke="rgb(162,126,160)" stroke-width="1.51"></path><path d="M-123,196L-105,514L-113,363Z" fill="rgb(187,138,183)" stroke="rgb(187,138,183)" stroke-width="1.51"></path><path d="M-40,-88L-133,-101L-107,-36Z" fill="rgb(247,252,253)" stroke="rgb(247,252,253)" stroke-width="1.51"></path><path d="M-107,-36L-133,-101L-122,63Z" fill="rgb(247,252,253)" stroke="rgb(247,252,253)" stroke-width="1.51"></path><path d="M-122,63L-133,-101L-123,196Z" fill="rgb(235,243,248)" stroke="rgb(235,243,248)" stroke-width="1.51"></path><path d="M49,-102L-133,-101L-40,-88Z" fill="rgb(247,252,253)" stroke="rgb(247,252,253)" stroke-width="1.51"></path><path d="M110,-106L-133,-101L49,-102Z" fill="rgb(246,251,253)" stroke="rgb(246,251,253)" stroke-width="1.51"></path><path d="M269,-116L-133,-101L110,-106Z" fill="rgb(234,243,248)" stroke="rgb(234,243,248)" stroke-width="1.51"></path><path d="M631,514L731,504L721,439Z" fill="rgb(77,0,75)" stroke="rgb(77,0,75)" stroke-width="1.51"></path><path d="M721,439L731,504L721,364Z" fill="rgb(77,0,75)" stroke="rgb(77,0,75)" stroke-width="1.51"></path><path d="M692,-25L726,-85L634,-113Z" fill="rgb(162,126,160)" stroke="rgb(162,126,160)" stroke-width="1.51"></path><path d="M722,69L726,-85L692,-25Z" fill="rgb(162,126,160)" stroke="rgb(162,126,160)" stroke-width="1.51"></path><path d="M731,504L726,-85L722,69Z" fill="rgb(119,93,141)" stroke="rgb(119,93,141)" stroke-width="1.51"></path></svg>