<svg width="600" height="400" xmlns="http://www.w3.org/2000/svg"><path d="M262,200L261,124L188,199Z" fill="rgb(147,182,215)" stroke="rgb(147,182,215)" stroke-width="1.51"></path><path d="M261,124L187,123L188,199Z" fill="rgb(170,191,220)" stroke="rgb(170,191,220)" stroke-width="1.51"></path><path d="M261,124L261,50L187,123Z" fill="rgb(183,197,224)" stroke="rgb(183,197,224)" stroke-width="1.51"></path><path d="M337,124L261,50L261,124Z" fill="rgb(164,191,220)" stroke="rgb(164,191,220)" stroke-width="1.51"></path><path d="M262,200L337,124L261,124Z" fill="rgb(143,181,214)" stroke="rgb(143,181,214)" stroke-width="1.51"></path><path d="M188,199L187,274L262,200Z" fill="rgb(131,174,211)" stroke="rgb(131,174,211)" stroke-width="1.51"></path><path d="M111,200L187,274L188,199Z" fill="rgb(146,181,214)" stroke="rgb(146,181,214)" stroke-width="1.51"></path><path d="M187,123L113,125L188,199Z" fill="rgb(184,197,224)" stroke="rgb(184,197,224)" stroke-width="1.51"></path><path d="M186,50L113,125L187,123Z" fill="rgb(205,207,229)" stroke="rgb(205,207,229)" stroke-width="1.51"></path><path d="M262,200L338,200L337,124Z" fill="rgb(118,172,209)" stroke="rgb(118,172,209)" stroke-width="1.51"></path><path d="M263,275L338,200L262,200Z" fill="rgb(99,164,204)" stroke="rgb(99,164,204)" stroke-width="1.51"></path><path d="M187,274L263,275L262,200Z" fill="rgb(112,165,205)" stroke="rgb(112,165,205)" stroke-width="1.51"></path><path d="M261,50L186,50L187,123Z" fill="rgb(198,205,228)" stroke="rgb(198,205,228)" stroke-width="1.51"></path><path d="M113,125L111,200L188,199Z" fill="rgb(176,195,223)" stroke="rgb(176,195,223)" stroke-width="1.51"></path><path d="M337,124L337,50L261,50Z" fill="rgb(163,191,220)" stroke="rgb(163,191,220)" stroke-width="1.51"></path><path d="M412,50L337,50L337,124Z" fill="rgb(152,182,215)" stroke="rgb(152,182,215)" stroke-width="1.51"></path><path d="M263,275L338,274L338,200Z" fill="rgb(77,154,198)" stroke="rgb(77,154,198)" stroke-width="1.51"></path><path d="M186,50L112,50L113,125Z" fill="rgb(218,214,233)" stroke="rgb(218,214,233)" stroke-width="1.51"></path><path d="M113,125L38,124L111,200Z" fill="rgb(199,206,229)" stroke="rgb(199,206,229)" stroke-width="1.51"></path><path d="M111,200L111,275L187,274Z" fill="rgb(144,178,212)" stroke="rgb(144,178,212)" stroke-width="1.51"></path><path d="M187,274L262,350L263,275Z" fill="rgb(97,158,177)" stroke="rgb(97,158,177)" stroke-width="1.51"></path><path d="M338,274L412,198L338,200Z" fill="rgb(73,152,197)" stroke="rgb(73,152,197)" stroke-width="1.51"></path><path d="M338,200L412,198L337,124Z" fill="rgb(105,163,204)" stroke="rgb(105,163,204)" stroke-width="1.51"></path><path d="M261,50L187,-25L186,50Z" fill="rgb(210,214,233)" stroke="rgb(210,214,233)" stroke-width="1.51"></path><path d="M186,50L187,-25L112,50Z" fill="rgb(224,221,236)" stroke="rgb(224,221,236)" stroke-width="1.51"></path><path d="M337,50L262,-25L261,50Z" fill="rgb(183,204,227)" stroke="rgb(183,204,227)" stroke-width="1.51"></path><path d="M263,275L337,350L338,274Z" fill="rgb(61,147,170)" stroke="rgb(61,147,170)" stroke-width="1.51"></path><path d="M187,350L262,350L187,274Z" fill="rgb(104,155,166)" stroke="rgb(104,155,166)" stroke-width="1.51"></path><path d="M412,198L413,125L337,124Z" fill="rgb(116,165,201)" stroke="rgb(116,165,201)" stroke-width="1.51"></path><path d="M337,50L337,-24L262,-25Z" fill="rgb(180,205,228)" stroke="rgb(180,205,228)" stroke-width="1.51"></path><path d="M262,-25L187,-25L261,50Z" fill="rgb(207,216,234)" stroke="rgb(207,216,234)" stroke-width="1.51"></path><path d="M112,50L38,124L113,125Z" fill="rgb(220,216,234)" stroke="rgb(220,216,234)" stroke-width="1.51"></path><path d="M111,200L37,274L111,275Z" fill="rgb(154,183,215)" stroke="rgb(154,183,215)" stroke-width="1.51"></path><path d="M113,349L187,350L187,274Z" fill="rgb(118,162,169)" stroke="rgb(118,162,169)" stroke-width="1.51"></path><path d="M38,124L37,200L111,200Z" fill="rgb(189,204,228)" stroke="rgb(189,204,228)" stroke-width="1.51"></path><path d="M412,50L337,-24L337,50Z" fill="rgb(164,191,220)" stroke="rgb(164,191,220)" stroke-width="1.51"></path><path d="M413,125L412,50L337,124Z" fill="rgb(139,175,206)" stroke="rgb(139,175,206)" stroke-width="1.51"></path><path d="M111,275L113,349L187,274Z" fill="rgb(128,170,184)" stroke="rgb(128,170,184)" stroke-width="1.51"></path><path d="M37,349L113,349L111,275Z" fill="rgb(134,171,174)" stroke="rgb(134,171,174)" stroke-width="1.51"></path><path d="M262,350L337,350L263,275Z" fill="rgb(71,145,160)" stroke="rgb(71,145,160)" stroke-width="1.51"></path><path d="M338,274L412,276L412,198Z" fill="rgb(52,143,187)" stroke="rgb(52,143,187)" stroke-width="1.51"></path><path d="M337,350L412,276L338,274Z" fill="rgb(42,139,166)" stroke="rgb(42,139,166)" stroke-width="1.51"></path><path d="M412,198L487,201L413,125Z" fill="rgb(88,155,179)" stroke="rgb(88,155,179)" stroke-width="1.51"></path><path d="M112,50L38,50L38,124Z" fill="rgb(230,223,238)" stroke="rgb(230,223,238)" stroke-width="1.51"></path><path d="M38,124L-37,199L37,200Z" fill="rgb(196,211,231)" stroke="rgb(196,211,231)" stroke-width="1.51"></path><path d="M112,-26L38,50L112,50Z" fill="rgb(238,230,242)" stroke="rgb(238,230,242)" stroke-width="1.51"></path><path d="M37,200L37,274L111,200Z" fill="rgb(166,193,221)" stroke="rgb(166,193,221)" stroke-width="1.51"></path><path d="M187,-100L112,-26L187,-25Z" fill="rgb(228,226,239)" stroke="rgb(228,226,239)" stroke-width="1.51"></path><path d="M187,-25L112,-26L112,50Z" fill="rgb(234,229,241)" stroke="rgb(234,229,241)" stroke-width="1.51"></path><path d="M188,425L261,423L187,350Z" fill="rgb(91,129,133)" stroke="rgb(91,129,133)" stroke-width="1.51"></path><path d="M187,350L261,423L262,350Z" fill="rgb(87,137,141)" stroke="rgb(87,137,141)" stroke-width="1.51"></path><path d="M262,350L337,424L337,350Z" fill="rgb(55,126,135)" stroke="rgb(55,126,135)" stroke-width="1.51"></path><path d="M412,276L487,201L412,198Z" fill="rgb(55,144,173)" stroke="rgb(55,144,173)" stroke-width="1.51"></path><path d="M337,350L412,349L412,276Z" fill="rgb(33,130,147)" stroke="rgb(33,130,147)" stroke-width="1.51"></path><path d="M337,424L412,349L337,350Z" fill="rgb(39,118,131)" stroke="rgb(39,118,131)" stroke-width="1.51"></path><path d="M413,125L488,124L412,50Z" fill="rgb(128,170,188)" stroke="rgb(128,170,188)" stroke-width="1.51"></path><path d="M487,273L487,201L412,276Z" fill="rgb(36,135,161)" stroke="rgb(36,135,161)" stroke-width="1.51"></path><path d="M412,50L412,-25L337,-24Z" fill="rgb(163,193,217)" stroke="rgb(163,193,217)" stroke-width="1.51"></path><path d="M337,-99L262,-100L262,-25Z" fill="rgb(188,209,230)" stroke="rgb(188,209,230)" stroke-width="1.51"></path><path d="M262,-25L262,-100L187,-25Z" fill="rgb(207,216,234)" stroke="rgb(207,216,234)" stroke-width="1.51"></path><path d="M487,49L412,-25L412,50Z" fill="rgb(148,184,195)" stroke="rgb(148,184,195)" stroke-width="1.51"></path><path d="M337,-99L262,-25L337,-24Z" fill="rgb(180,205,228)" stroke="rgb(180,205,228)" stroke-width="1.51"></path><path d="M37,200L-37,199L37,274Z" fill="rgb(173,200,225)" stroke="rgb(173,200,225)" stroke-width="1.51"></path><path d="M-37,124L-37,199L38,124Z" fill="rgb(211,218,235)" stroke="rgb(211,218,235)" stroke-width="1.51"></path><path d="M112,424L188,425L187,350Z" fill="rgb(105,136,136)" stroke="rgb(105,136,136)" stroke-width="1.51"></path><path d="M37,274L37,349L111,275Z" fill="rgb(142,179,189)" stroke="rgb(142,179,189)" stroke-width="1.51"></path><path d="M-39,275L37,349L37,274Z" fill="rgb(148,186,193)" stroke="rgb(148,186,193)" stroke-width="1.51"></path><path d="M112,424L187,350L113,349Z" fill="rgb(116,149,148)" stroke="rgb(116,149,148)" stroke-width="1.51"></path><path d="M262,-100L187,-100L187,-25Z" fill="rgb(214,219,236)" stroke="rgb(214,219,236)" stroke-width="1.51"></path><path d="M487,201L488,124L413,125Z" fill="rgb(101,157,173)" stroke="rgb(101,157,173)" stroke-width="1.51"></path><path d="M38,50L-37,124L38,124Z" fill="rgb(230,226,239)" stroke="rgb(230,226,239)" stroke-width="1.51"></path><path d="M-38,50L-37,124L38,50Z" fill="rgb(238,232,243)" stroke="rgb(238,232,243)" stroke-width="1.51"></path><path d="M112,-26L36,-25L38,50Z" fill="rgb(247,238,246)" stroke="rgb(247,238,246)" stroke-width="1.51"></path><path d="M37,-100L36,-25L112,-26Z" fill="rgb(247,238,246)" stroke="rgb(247,238,246)" stroke-width="1.51"></path><path d="M488,350L487,273L412,276Z" fill="rgb(4,127,134)" stroke="rgb(4,127,134)" stroke-width="1.51"></path><path d="M487,201L562,200L488,124Z" fill="rgb(81,145,153)" stroke="rgb(81,145,153)" stroke-width="1.51"></path><path d="M412,-25L337,-99L337,-24Z" fill="rgb(168,196,223)" stroke="rgb(168,196,223)" stroke-width="1.51"></path><path d="M261,423L337,424L262,350Z" fill="rgb(62,120,128)" stroke="rgb(62,120,128)" stroke-width="1.51"></path><path d="M263,498L337,424L261,423Z" fill="rgb(62,119,127)" stroke="rgb(62,119,127)" stroke-width="1.51"></path><path d="M488,124L487,49L412,50Z" fill="rgb(132,172,181)" stroke="rgb(132,172,181)" stroke-width="1.51"></path><path d="M37,349L112,424L113,349Z" fill="rgb(125,154,151)" stroke="rgb(125,154,151)" stroke-width="1.51"></path><path d="M187,-100L112,-100L112,-26Z" fill="rgb(234,229,241)" stroke="rgb(234,229,241)" stroke-width="1.51"></path><path d="M-112,200L-39,275L-37,199Z" fill="rgb(174,201,226)" stroke="rgb(174,201,226)" stroke-width="1.51"></path><path d="M36,-25L-38,50L38,50Z" fill="rgb(248,240,247)" stroke="rgb(248,240,247)" stroke-width="1.51"></path><path d="M-37,199L-39,275L37,274Z" fill="rgb(166,194,222)" stroke="rgb(166,194,222)" stroke-width="1.51"></path><path d="M37,349L38,426L112,424Z" fill="rgb(123,147,142)" stroke="rgb(123,147,142)" stroke-width="1.51"></path><path d="M-112,125L-37,199L-37,124Z" fill="rgb(211,218,235)" stroke="rgb(211,218,235)" stroke-width="1.51"></path><path d="M487,49L486,-26L412,-25Z" fill="rgb(148,186,189)" stroke="rgb(148,186,189)" stroke-width="1.51"></path><path d="M412,-25L413,-100L337,-99Z" fill="rgb(163,193,217)" stroke="rgb(163,193,217)" stroke-width="1.51"></path><path d="M337,-99L413,-100L262,-100Z" fill="rgb(174,201,226)" stroke="rgb(174,201,226)" stroke-width="1.51"></path><path d="M486,-26L413,-100L412,-25Z" fill="rgb(152,189,198)" stroke="rgb(152,189,198)" stroke-width="1.51"></path><path d="M412,349L488,350L412,276Z" fill="rgb(13,125,130)" stroke="rgb(13,125,130)" stroke-width="1.51"></path><path d="M487,273L562,200L487,201Z" fill="rgb(51,134,147)" stroke="rgb(51,134,147)" stroke-width="1.51"></path><path d="M413,425L488,350L412,349Z" fill="rgb(12,110,108)" stroke="rgb(12,110,108)" stroke-width="1.51"></path><path d="M337,424L413,425L412,349Z" fill="rgb(29,105,116)" stroke="rgb(29,105,116)" stroke-width="1.51"></path><path d="M412,499L413,425L337,424Z" fill="rgb(29,105,116)" stroke="rgb(29,105,116)" stroke-width="1.51"></path><path d="M36,-25L-38,-26L-38,50Z" fill="rgb(255,247,251)" stroke="rgb(255,247,251)" stroke-width="1.51"></path><path d="M112,-100L37,-100L112,-26Z" fill="rgb(243,235,244)" stroke="rgb(243,235,244)" stroke-width="1.51"></path><path d="M-38,424L38,426L37,349Z" fill="rgb(129,153,145)" stroke="rgb(129,153,145)" stroke-width="1.51"></path><path d="M187,499L263,498L188,425Z" fill="rgb(91,129,133)" stroke="rgb(91,129,133)" stroke-width="1.51"></path><path d="M188,425L263,498L261,423Z" fill="rgb(83,126,131)" stroke="rgb(83,126,131)" stroke-width="1.51"></path><path d="M37,-100L-38,-26L36,-25Z" fill="rgb(253,245,250)" stroke="rgb(253,245,250)" stroke-width="1.51"></path><path d="M-38,50L-112,125L-37,124Z" fill="rgb(231,228,240)" stroke="rgb(231,228,240)" stroke-width="1.51"></path><path d="M-39,275L-39,350L37,349Z" fill="rgb(145,182,180)" stroke="rgb(145,182,180)" stroke-width="1.51"></path><path d="M187,499L188,425L113,499Z" fill="rgb(105,136,136)" stroke="rgb(105,136,136)" stroke-width="1.51"></path><path d="M488,124L561,50L487,49Z" fill="rgb(127,165,163)" stroke="rgb(127,165,163)" stroke-width="1.51"></path><path d="M487,49L563,-26L486,-26Z" fill="rgb(142,178,171)" stroke="rgb(142,178,171)" stroke-width="1.51"></path><path d="M562,275L562,200L487,273Z" fill="rgb(36,123,136)" stroke="rgb(36,123,136)" stroke-width="1.51"></path><path d="M562,200L562,124L488,124Z" fill="rgb(96,145,148)" stroke="rgb(96,145,148)" stroke-width="1.51"></path><path d="M113,499L188,425L112,424Z" fill="rgb(111,139,138)" stroke="rgb(111,139,138)" stroke-width="1.51"></path><path d="M-113,50L-112,125L-38,50Z" fill="rgb(238,232,243)" stroke="rgb(238,232,243)" stroke-width="1.51"></path><path d="M-39,275L-112,274L-39,350Z" fill="rgb(149,187,193)" stroke="rgb(149,187,193)" stroke-width="1.51"></path><path d="M-112,125L-112,200L-37,199Z" fill="rgb(197,213,232)" stroke="rgb(197,213,232)" stroke-width="1.51"></path><path d="M486,-26L487,-101L413,-100Z" fill="rgb(148,186,189)" stroke="rgb(148,186,189)" stroke-width="1.51"></path><path d="M562,124L561,50L488,124Z" fill="rgb(117,155,153)" stroke="rgb(117,155,153)" stroke-width="1.51"></path><path d="M263,498L337,499L337,424Z" fill="rgb(52,116,126)" stroke="rgb(52,116,126)" stroke-width="1.51"></path><path d="M187,499L337,499L263,498Z" fill="rgb(73,123,129)" stroke="rgb(73,123,129)" stroke-width="1.51"></path><path d="M488,350L562,275L487,273Z" fill="rgb(6,120,118)" stroke="rgb(6,120,118)" stroke-width="1.51"></path><path d="M38,426L113,499L112,424Z" fill="rgb(119,144,140)" stroke="rgb(119,144,140)" stroke-width="1.51"></path><path d="M-112,200L-112,274L-39,275Z" fill="rgb(165,194,222)" stroke="rgb(165,194,222)" stroke-width="1.51"></path><path d="M-112,125L-113,50L-112,200Z" fill="rgb(221,223,238)" stroke="rgb(221,223,238)" stroke-width="1.51"></path><path d="M-112,200L-114,350L-112,274Z" fill="rgb(158,191,207)" stroke="rgb(158,191,207)" stroke-width="1.51"></path><path d="M-38,-26L-113,50L-38,50Z" fill="rgb(250,242,248)" stroke="rgb(250,242,248)" stroke-width="1.51"></path><path d="M563,-26L487,-101L486,-26Z" fill="rgb(142,178,171)" stroke="rgb(142,178,171)" stroke-width="1.51"></path><path d="M413,-100L487,-101L262,-100Z" fill="rgb(163,193,217)" stroke="rgb(163,193,217)" stroke-width="1.51"></path><path d="M262,-100L-37,-101L187,-100Z" fill="rgb(234,229,241)" stroke="rgb(234,229,241)" stroke-width="1.51"></path><path d="M187,-100L-37,-101L112,-100Z" fill="rgb(243,235,244)" stroke="rgb(243,235,244)" stroke-width="1.51"></path><path d="M112,-100L-37,-101L37,-100Z" fill="rgb(250,242,248)" stroke="rgb(250,242,248)" stroke-width="1.51"></path><path d="M488,350L563,350L562,275Z" fill="rgb(4,109,98)" stroke="rgb(4,109,98)" stroke-width="1.51"></path><path d="M413,425L488,425L488,350Z" fill="rgb(4,97,90)" stroke="rgb(4,97,90)" stroke-width="1.51"></path><path d="M488,500L488,425L413,425Z" fill="rgb(4,97,90)" stroke="rgb(4,97,90)" stroke-width="1.51"></path><path d="M38,426L37,499L113,499Z" fill="rgb(123,147,142)" stroke="rgb(123,147,142)" stroke-width="1.51"></path><path d="M-39,350L-38,424L37,349Z" fill="rgb(136,166,157)" stroke="rgb(136,166,157)" stroke-width="1.51"></path><path d="M-113,424L-38,424L-39,350Z" fill="rgb(130,155,146)" stroke="rgb(130,155,146)" stroke-width="1.51"></path><path d="M-38,-26L-113,-26L-113,50Z" fill="rgb(255,247,251)" stroke="rgb(255,247,251)" stroke-width="1.51"></path><path d="M37,-100L-37,-101L-38,-26Z" fill="rgb(255,247,251)" stroke="rgb(255,247,251)" stroke-width="1.51"></path><path d="M487,-101L-37,-101L262,-100Z" fill="rgb(207,216,234)" stroke="rgb(207,216,234)" stroke-width="1.51"></path><path d="M337,499L412,499L337,424Z" fill="rgb(37,108,121)" stroke="rgb(37,108,121)" stroke-width="1.51"></path><path d="M-38,499L37,499L38,426Z" fill="rgb(129,153,145)" stroke="rgb(129,153,145)" stroke-width="1.51"></path><path d="M563,424L563,350L488,350Z" fill="rgb(1,95,77)" stroke="rgb(1,95,77)" stroke-width="1.51"></path><path d="M638,198L636,124L562,200Z" fill="rgb(74,123,129)" stroke="rgb(74,123,129)" stroke-width="1.51"></path><path d="M562,200L636,124L562,124Z" fill="rgb(90,132,135)" stroke="rgb(90,132,135)" stroke-width="1.51"></path><path d="M636,50L561,50L562,124Z" fill="rgb(117,145,143)" stroke="rgb(117,145,143)" stroke-width="1.51"></path><path d="M636,50L563,-26L561,50Z" fill="rgb(128,154,147)" stroke="rgb(128,154,147)" stroke-width="1.51"></path><path d="M561,50L563,-26L487,49Z" fill="rgb(135,168,161)" stroke="rgb(135,168,161)" stroke-width="1.51"></path><path d="M-112,-100L-113,-26L-38,-26Z" fill="rgb(255,247,251)" stroke="rgb(255,247,251)" stroke-width="1.51"></path><path d="M-112,274L-114,350L-39,350Z" fill="rgb(145,182,180)" stroke="rgb(145,182,180)" stroke-width="1.51"></path><path d="M-38,424L-38,499L38,426Z" fill="rgb(130,155,146)" stroke="rgb(130,155,146)" stroke-width="1.51"></path><path d="M-113,50L-114,350L-112,200Z" fill="rgb(183,207,229)" stroke="rgb(183,207,229)" stroke-width="1.51"></path><path d="M-113,-26L-114,350L-113,50Z" fill="rgb(222,223,238)" stroke="rgb(222,223,238)" stroke-width="1.51"></path><path d="M638,198L562,200L637,274Z" fill="rgb(45,112,123)" stroke="rgb(45,112,123)" stroke-width="1.51"></path><path d="M637,274L562,200L562,275Z" fill="rgb(33,109,123)" stroke="rgb(33,109,123)" stroke-width="1.51"></path><path d="M712,50L636,50L636,124Z" fill="rgb(115,141,139)" stroke="rgb(115,141,139)" stroke-width="1.51"></path><path d="M636,124L636,50L562,124Z" fill="rgb(108,137,137)" stroke="rgb(108,137,137)" stroke-width="1.51"></path><path d="M636,349L637,274L562,275Z" fill="rgb(5,99,95)" stroke="rgb(5,99,95)" stroke-width="1.51"></path><path d="M563,350L636,349L562,275Z" fill="rgb(3,97,86)" stroke="rgb(3,97,86)" stroke-width="1.51"></path><path d="M488,425L563,424L488,350Z" fill="rgb(2,90,75)" stroke="rgb(2,90,75)" stroke-width="1.51"></path><path d="M562,500L563,424L488,425Z" fill="rgb(1,85,68)" stroke="rgb(1,85,68)" stroke-width="1.51"></path><path d="M-113,424L-38,499L-38,424Z" fill="rgb(130,155,146)" stroke="rgb(130,155,146)" stroke-width="1.51"></path><path d="M-37,-101L-112,-100L-38,-26Z" fill="rgb(255,247,251)" stroke="rgb(255,247,251)" stroke-width="1.51"></path><path d="M412,499L488,500L413,425Z" fill="rgb(11,100,99)" stroke="rgb(11,100,99)" stroke-width="1.51"></path><path d="M337,499L488,500L412,499Z" fill="rgb(21,103,107)" stroke="rgb(21,103,107)" stroke-width="1.51"></path><path d="M187,499L488,500L337,499Z" fill="rgb(45,112,123)" stroke="rgb(45,112,123)" stroke-width="1.51"></path><path d="M113,499L488,500L187,499Z" fill="rgb(73,123,129)" stroke="rgb(73,123,129)" stroke-width="1.51"></path><path d="M37,499L488,500L113,499Z" fill="rgb(91,129,133)" stroke="rgb(91,129,133)" stroke-width="1.51"></path><path d="M-38,499L488,500L37,499Z" fill="rgb(105,136,136)" stroke="rgb(105,136,136)" stroke-width="1.51"></path><path d="M-114,350L-113,424L-39,350Z" fill="rgb(136,166,156)" stroke="rgb(136,166,156)" stroke-width="1.51"></path><path d="M637,-101L563,-101L563,-26Z" fill="rgb(132,158,150)" stroke="rgb(132,158,150)" stroke-width="1.51"></path><path d="M563,-26L563,-101L487,-101Z" fill="rgb(139,172,163)" stroke="rgb(139,172,163)" stroke-width="1.51"></path><path d="M563,424L636,349L563,350Z" fill="rgb(1,82,66)" stroke="rgb(1,82,66)" stroke-width="1.51"></path><path d="M636,50L638,-26L563,-26Z" fill="rgb(130,155,146)" stroke="rgb(130,155,146)" stroke-width="1.51"></path><path d="M712,50L638,-26L636,50Z" fill="rgb(126,150,144)" stroke="rgb(126,150,144)" stroke-width="1.51"></path><path d="M563,424L638,425L636,349Z" fill="rgb(1,70,54)" stroke="rgb(1,70,54)" stroke-width="1.51"></path><path d="M488,500L562,500L488,425Z" fill="rgb(2,90,75)" stroke="rgb(2,90,75)" stroke-width="1.51"></path><path d="M-113,424L-113,499L-38,499Z" fill="rgb(130,155,146)" stroke="rgb(130,155,146)" stroke-width="1.51"></path><path d="M-38,499L-113,499L488,500Z" fill="rgb(115,141,139)" stroke="rgb(115,141,139)" stroke-width="1.51"></path><path d="M-114,350L-113,499L-113,424Z" fill="rgb(130,155,146)" stroke="rgb(130,155,146)" stroke-width="1.51"></path><path d="M638,198L713,125L636,124Z" fill="rgb(88,128,132)" stroke="rgb(88,128,132)" stroke-width="1.51"></path><path d="M637,274L711,198L638,198Z" fill="rgb(45,112,123)" stroke="rgb(45,112,123)" stroke-width="1.51"></path><path d="M712,275L711,198L637,274Z" fill="rgb(33,106,120)" stroke="rgb(33,106,120)" stroke-width="1.51"></path><path d="M712,275L637,274L636,349Z" fill="rgb(5,99,95)" stroke="rgb(5,99,95)" stroke-width="1.51"></path><path d="M638,-26L637,-101L563,-26Z" fill="rgb(130,155,146)" stroke="rgb(130,155,146)" stroke-width="1.51"></path><path d="M711,-100L637,-101L638,-26Z" fill="rgb(130,155,146)" stroke="rgb(130,155,146)" stroke-width="1.51"></path><path d="M711,198L713,125L638,198Z" fill="rgb(74,123,129)" stroke="rgb(74,123,129)" stroke-width="1.51"></path><path d="M637,500L638,425L563,424Z" fill="rgb(1,70,54)" stroke="rgb(1,70,54)" stroke-width="1.51"></path><path d="M713,125L712,50L636,124Z" fill="rgb(108,137,137)" stroke="rgb(108,137,137)" stroke-width="1.51"></path><path d="M713,351L712,275L636,349Z" fill="rgb(3,93,83)" stroke="rgb(3,93,83)" stroke-width="1.51"></path><path d="M711,198L712,275L713,125Z" fill="rgb(56,118,127)" stroke="rgb(56,118,127)" stroke-width="1.51"></path><path d="M712,50L713,-25L638,-26Z" fill="rgb(130,155,146)" stroke="rgb(130,155,146)" stroke-width="1.51"></path><path d="M713,125L713,-25L712,50Z" fill="rgb(122,145,141)" stroke="rgb(122,145,141)" stroke-width="1.51"></path><path d="M638,425L713,351L636,349Z" fill="rgb(1,79,62)" stroke="rgb(1,79,62)" stroke-width="1.51"></path><path d="M712,275L713,351L713,125Z" fill="rgb(32,106,120)" stroke="rgb(32,106,120)" stroke-width="1.51"></path><path d="M712,424L713,351L638,425Z" fill="rgb(1,70,54)" stroke="rgb(1,70,54)" stroke-width="1.51"></path><path d="M562,500L637,500L563,424Z" fill="rgb(1,73,57)" stroke="rgb(1,73,57)" stroke-width="1.51"></path><path d="M713,-25L711,-100L638,-26Z" fill="rgb(130,155,146)" stroke="rgb(130,155,146)" stroke-width="1.51"></path><path d="M712,499L712,424L638,425Z" fill="rgb(1,70,54)" stroke="rgb(1,70,54)" stroke-width="1.51"></path><path d="M637,500L712,499L638,425Z" fill="rgb(1,70,54)" stroke="rgb(1,70,54)" stroke-width="1.51"></path><path d="M712,424L712,499L713,351Z" fill="rgb(1,70,54)" stroke="rgb(1,70,54)" stroke-width="1.51"></path></svg>