<svg width="600" height="400" xmlns="http://www.w3.org/2000/svg"><path d="M329,193L392,194L404,146Z" fill="rgb(98,161,202)" stroke="rgb(98,161,202)" stroke-width="1.51"></path><path d="M404,146L331,120L329,193Z" fill="rgb(121,169,207)" stroke="rgb(121,169,207)" stroke-width="1.51"></path><path d="M331,120L280,144L329,193Z" fill="rgb(131,176,211)" stroke="rgb(131,176,211)" stroke-width="1.51"></path><path d="M404,146L406,66L331,120Z" fill="rgb(135,174,208)" stroke="rgb(135,174,208)" stroke-width="1.51"></path><path d="M331,120L250,67L280,144Z" fill="rgb(159,188,219)" stroke="rgb(159,188,219)" stroke-width="1.51"></path><path d="M406,66L326,54L331,120Z" fill="rgb(152,183,215)" stroke="rgb(152,183,215)" stroke-width="1.51"></path><path d="M392,194L476,189L404,146Z" fill="rgb(90,156,184)" stroke="rgb(90,156,184)" stroke-width="1.51"></path><path d="M404,146L487,125L406,66Z" fill="rgb(124,168,188)" stroke="rgb(124,168,188)" stroke-width="1.51"></path><path d="M280,144L249,211L329,193Z" fill="rgb(122,175,210)" stroke="rgb(122,175,210)" stroke-width="1.51"></path><path d="M329,193L342,284L392,194Z" fill="rgb(76,154,198)" stroke="rgb(76,154,198)" stroke-width="1.51"></path><path d="M392,194L435,266L476,189Z" fill="rgb(60,146,175)" stroke="rgb(60,146,175)" stroke-width="1.51"></path><path d="M249,211L342,284L329,193Z" fill="rgb(88,160,202)" stroke="rgb(88,160,202)" stroke-width="1.51"></path><path d="M342,284L435,266L392,194Z" fill="rgb(52,143,187)" stroke="rgb(52,143,187)" stroke-width="1.51"></path><path d="M476,189L487,125L404,146Z" fill="rgb(100,157,175)" stroke="rgb(100,157,175)" stroke-width="1.51"></path><path d="M326,54L250,67L331,120Z" fill="rgb(164,192,221)" stroke="rgb(164,192,221)" stroke-width="1.51"></path><path d="M280,144L210,207L249,211Z" fill="rgb(135,179,213)" stroke="rgb(135,179,213)" stroke-width="1.51"></path><path d="M249,211L250,297L342,284Z" fill="rgb(87,157,193)" stroke="rgb(87,157,193)" stroke-width="1.51"></path><path d="M169,113L210,207L280,144Z" fill="rgb(165,188,219)" stroke="rgb(165,188,219)" stroke-width="1.51"></path><path d="M487,125L488,66L406,66Z" fill="rgb(129,170,181)" stroke="rgb(129,170,181)" stroke-width="1.51"></path><path d="M406,66L331,-24L326,54Z" fill="rgb(164,192,220)" stroke="rgb(164,192,220)" stroke-width="1.51"></path><path d="M476,189L544,133L487,125Z" fill="rgb(99,151,160)" stroke="rgb(99,151,160)" stroke-width="1.51"></path><path d="M487,125L544,133L488,66Z" fill="rgb(116,159,162)" stroke="rgb(116,159,162)" stroke-width="1.51"></path><path d="M435,266L499,257L476,189Z" fill="rgb(45,137,160)" stroke="rgb(45,137,160)" stroke-width="1.51"></path><path d="M505,341L499,257L435,266Z" fill="rgb(16,127,134)" stroke="rgb(16,127,134)" stroke-width="1.51"></path><path d="M195,283L250,297L249,211Z" fill="rgb(111,163,197)" stroke="rgb(111,163,197)" stroke-width="1.51"></path><path d="M342,284L414,330L435,266Z" fill="rgb(32,136,160)" stroke="rgb(32,136,160)" stroke-width="1.51"></path><path d="M323,371L414,330L342,284Z" fill="rgb(43,133,152)" stroke="rgb(43,133,152)" stroke-width="1.51"></path><path d="M544,192L544,133L476,189Z" fill="rgb(83,144,150)" stroke="rgb(83,144,150)" stroke-width="1.51"></path><path d="M499,257L544,192L476,189Z" fill="rgb(57,138,151)" stroke="rgb(57,138,151)" stroke-width="1.51"></path><path d="M326,54L262,-15L250,67Z" fill="rgb(184,203,227)" stroke="rgb(184,203,227)" stroke-width="1.51"></path><path d="M434,-42L331,-24L406,66Z" fill="rgb(162,193,216)" stroke="rgb(162,193,216)" stroke-width="1.51"></path><path d="M250,67L169,113L280,144Z" fill="rgb(181,196,223)" stroke="rgb(181,196,223)" stroke-width="1.51"></path><path d="M262,-15L207,45L250,67Z" fill="rgb(200,209,231)" stroke="rgb(200,209,231)" stroke-width="1.51"></path><path d="M207,45L169,113L250,67Z" fill="rgb(199,205,228)" stroke="rgb(199,205,228)" stroke-width="1.51"></path><path d="M331,-24L262,-15L326,54Z" fill="rgb(180,205,228)" stroke="rgb(180,205,228)" stroke-width="1.51"></path><path d="M118,186L195,283L210,207Z" fill="rgb(143,179,213)" stroke="rgb(143,179,213)" stroke-width="1.51"></path><path d="M210,207L195,283L249,211Z" fill="rgb(126,171,209)" stroke="rgb(126,171,209)" stroke-width="1.51"></path><path d="M196,358L272,352L250,297Z" fill="rgb(92,149,158)" stroke="rgb(92,149,158)" stroke-width="1.51"></path><path d="M250,297L272,352L342,284Z" fill="rgb(71,148,167)" stroke="rgb(71,148,167)" stroke-width="1.51"></path><path d="M488,66L434,-42L406,66Z" fill="rgb(146,181,192)" stroke="rgb(146,181,192)" stroke-width="1.51"></path><path d="M544,133L543,50L488,66Z" fill="rgb(123,161,158)" stroke="rgb(123,161,158)" stroke-width="1.51"></path><path d="M272,352L323,371L342,284Z" fill="rgb(59,139,153)" stroke="rgb(59,139,153)" stroke-width="1.51"></path><path d="M489,-37L434,-42L488,66Z" fill="rgb(147,184,185)" stroke="rgb(147,184,185)" stroke-width="1.51"></path><path d="M331,-24L243,-82L262,-15Z" fill="rgb(191,210,230)" stroke="rgb(191,210,230)" stroke-width="1.51"></path><path d="M499,257L561,267L544,192Z" fill="rgb(42,126,138)" stroke="rgb(42,126,138)" stroke-width="1.51"></path><path d="M544,192L631,133L544,133Z" fill="rgb(89,134,138)" stroke="rgb(89,134,138)" stroke-width="1.51"></path><path d="M544,133L631,133L543,50Z" fill="rgb(110,144,143)" stroke="rgb(110,144,143)" stroke-width="1.51"></path><path d="M505,341L561,267L499,257Z" fill="rgb(16,121,120)" stroke="rgb(16,121,120)" stroke-width="1.51"></path><path d="M505,341L435,266L414,330Z" fill="rgb(3,126,131)" stroke="rgb(3,126,131)" stroke-width="1.51"></path><path d="M415,403L505,341L414,330Z" fill="rgb(8,116,112)" stroke="rgb(8,116,112)" stroke-width="1.51"></path><path d="M543,50L489,-37L488,66Z" fill="rgb(138,174,170)" stroke="rgb(138,174,170)" stroke-width="1.51"></path><path d="M411,-91L358,-79L434,-42Z" fill="rgb(160,192,212)" stroke="rgb(160,192,212)" stroke-width="1.51"></path><path d="M434,-42L358,-79L331,-24Z" fill="rgb(166,194,222)" stroke="rgb(166,194,222)" stroke-width="1.51"></path><path d="M169,113L118,186L210,207Z" fill="rgb(172,193,222)" stroke="rgb(172,193,222)" stroke-width="1.51"></path><path d="M133,50L122,133L169,113Z" fill="rgb(210,210,231)" stroke="rgb(210,210,231)" stroke-width="1.51"></path><path d="M133,50L169,113L207,45Z" fill="rgb(211,211,231)" stroke="rgb(211,211,231)" stroke-width="1.51"></path><path d="M122,133L118,186L169,113Z" fill="rgb(192,201,226)" stroke="rgb(192,201,226)" stroke-width="1.51"></path><path d="M323,371L415,403L414,330Z" fill="rgb(32,118,129)" stroke="rgb(32,118,129)" stroke-width="1.51"></path><path d="M272,352L328,403L323,371Z" fill="rgb(57,126,135)" stroke="rgb(57,126,135)" stroke-width="1.51"></path><path d="M271,435L328,403L272,352Z" fill="rgb(61,120,129)" stroke="rgb(61,120,129)" stroke-width="1.51"></path><path d="M328,403L415,403L323,371Z" fill="rgb(40,112,124)" stroke="rgb(40,112,124)" stroke-width="1.51"></path><path d="M187,-32L207,45L262,-15Z" fill="rgb(213,219,235)" stroke="rgb(213,219,235)" stroke-width="1.51"></path><path d="M187,-32L133,50L207,45Z" fill="rgb(221,220,236)" stroke="rgb(221,220,236)" stroke-width="1.51"></path><path d="M492,-105L411,-91L434,-42Z" fill="rgb(150,188,195)" stroke="rgb(150,188,195)" stroke-width="1.51"></path><path d="M195,283L196,358L250,297Z" fill="rgb(104,158,172)" stroke="rgb(104,158,172)" stroke-width="1.51"></path><path d="M125,333L196,358L195,283Z" fill="rgb(116,161,169)" stroke="rgb(116,161,169)" stroke-width="1.51"></path><path d="M243,-82L187,-32L262,-15Z" fill="rgb(209,217,235)" stroke="rgb(209,217,235)" stroke-width="1.51"></path><path d="M190,-118L243,-82L358,-79Z" fill="rgb(196,213,232)" stroke="rgb(196,213,232)" stroke-width="1.51"></path><path d="M358,-79L243,-82L331,-24Z" fill="rgb(181,205,228)" stroke="rgb(181,205,228)" stroke-width="1.51"></path><path d="M650,205L631,133L544,192Z" fill="rgb(72,122,129)" stroke="rgb(72,122,129)" stroke-width="1.51"></path><path d="M543,50L582,-14L489,-37Z" fill="rgb(139,172,163)" stroke="rgb(139,172,163)" stroke-width="1.51"></path><path d="M561,267L650,205L544,192Z" fill="rgb(47,117,128)" stroke="rgb(47,117,128)" stroke-width="1.51"></path><path d="M505,341L579,326L561,267Z" fill="rgb(4,110,102)" stroke="rgb(4,110,102)" stroke-width="1.51"></path><path d="M551,413L579,326L505,341Z" fill="rgb(1,99,80)" stroke="rgb(1,99,80)" stroke-width="1.51"></path><path d="M624,27L582,-14L543,50Z" fill="rgb(129,155,149)" stroke="rgb(129,155,149)" stroke-width="1.51"></path><path d="M489,-37L492,-105L434,-42Z" fill="rgb(147,184,185)" stroke="rgb(147,184,185)" stroke-width="1.51"></path><path d="M579,326L624,270L561,267Z" fill="rgb(14,104,103)" stroke="rgb(14,104,103)" stroke-width="1.51"></path><path d="M328,403L345,489L415,403Z" fill="rgb(37,108,121)" stroke="rgb(37,108,121)" stroke-width="1.51"></path><path d="M196,358L271,435L272,352Z" fill="rgb(82,132,137)" stroke="rgb(82,132,137)" stroke-width="1.51"></path><path d="M196,358L169,411L271,435Z" fill="rgb(91,129,133)" stroke="rgb(91,129,133)" stroke-width="1.51"></path><path d="M99,291L125,333L195,283Z" fill="rgb(127,169,182)" stroke="rgb(127,169,182)" stroke-width="1.51"></path><path d="M624,270L650,205L561,267Z" fill="rgb(33,107,120)" stroke="rgb(33,107,120)" stroke-width="1.51"></path><path d="M118,186L99,291L195,283Z" fill="rgb(143,177,210)" stroke="rgb(143,177,210)" stroke-width="1.51"></path><path d="M27,256L99,291L118,186Z" fill="rgb(157,185,217)" stroke="rgb(157,185,217)" stroke-width="1.51"></path><path d="M38,145L118,186L122,133Z" fill="rgb(195,204,228)" stroke="rgb(195,204,228)" stroke-width="1.51"></path><path d="M708,45L624,27L631,133Z" fill="rgb(117,142,139)" stroke="rgb(117,142,139)" stroke-width="1.51"></path><path d="M631,133L624,27L543,50Z" fill="rgb(116,142,139)" stroke="rgb(116,142,139)" stroke-width="1.51"></path><path d="M411,-91L190,-118L358,-79Z" fill="rgb(178,204,227)" stroke="rgb(178,204,227)" stroke-width="1.51"></path><path d="M541,-118L492,-105L489,-37Z" fill="rgb(143,179,172)" stroke="rgb(143,179,172)" stroke-width="1.51"></path><path d="M541,-118L489,-37L582,-14Z" fill="rgb(139,173,163)" stroke="rgb(139,173,163)" stroke-width="1.51"></path><path d="M415,403L497,435L505,341Z" fill="rgb(4,98,90)" stroke="rgb(4,98,90)" stroke-width="1.51"></path><path d="M579,326L648,354L624,270Z" fill="rgb(4,95,86)" stroke="rgb(4,95,86)" stroke-width="1.51"></path><path d="M471,518L497,435L415,403Z" fill="rgb(4,97,91)" stroke="rgb(4,97,91)" stroke-width="1.51"></path><path d="M125,333L169,411L196,358Z" fill="rgb(111,149,149)" stroke="rgb(111,149,149)" stroke-width="1.51"></path><path d="M106,414L169,411L125,333Z" fill="rgb(114,145,143)" stroke="rgb(114,145,143)" stroke-width="1.51"></path><path d="M497,435L551,413L505,341Z" fill="rgb(2,91,75)" stroke="rgb(2,91,75)" stroke-width="1.51"></path><path d="M624,27L621,-27L582,-14Z" fill="rgb(130,155,146)" stroke="rgb(130,155,146)" stroke-width="1.51"></path><path d="M705,-3L621,-27L624,27Z" fill="rgb(130,155,146)" stroke="rgb(130,155,146)" stroke-width="1.51"></path><path d="M37,72L38,145L122,133Z" fill="rgb(216,215,234)" stroke="rgb(216,215,234)" stroke-width="1.51"></path><path d="M37,72L122,133L133,50Z" fill="rgb(222,217,235)" stroke="rgb(222,217,235)" stroke-width="1.51"></path><path d="M187,-32L95,-28L133,50Z" fill="rgb(233,229,241)" stroke="rgb(233,229,241)" stroke-width="1.51"></path><path d="M107,-115L95,-28L187,-32Z" fill="rgb(235,230,242)" stroke="rgb(235,230,242)" stroke-width="1.51"></path><path d="M243,-82L190,-118L187,-32Z" fill="rgb(216,220,237)" stroke="rgb(216,220,237)" stroke-width="1.51"></path><path d="M492,-105L190,-118L411,-91Z" fill="rgb(168,196,222)" stroke="rgb(168,196,222)" stroke-width="1.51"></path><path d="M271,435L345,489L328,403Z" fill="rgb(52,116,125)" stroke="rgb(52,116,125)" stroke-width="1.51"></path><path d="M240,519L345,489L271,435Z" fill="rgb(63,120,127)" stroke="rgb(63,120,127)" stroke-width="1.51"></path><path d="M492,-105L541,-118L190,-118Z" fill="rgb(158,191,209)" stroke="rgb(158,191,209)" stroke-width="1.51"></path><path d="M622,-102L541,-118L582,-14Z" fill="rgb(133,160,151)" stroke="rgb(133,160,151)" stroke-width="1.51"></path><path d="M95,-28L37,72L133,50Z" fill="rgb(237,228,241)" stroke="rgb(237,228,241)" stroke-width="1.51"></path><path d="M718,294L717,194L650,205Z" fill="rgb(42,110,122)" stroke="rgb(42,110,122)" stroke-width="1.51"></path><path d="M551,413L648,354L579,326Z" fill="rgb(1,85,68)" stroke="rgb(1,85,68)" stroke-width="1.51"></path><path d="M345,489L390,506L415,403Z" fill="rgb(30,105,117)" stroke="rgb(30,105,117)" stroke-width="1.51"></path><path d="M497,435L544,489L551,413Z" fill="rgb(1,87,70)" stroke="rgb(1,87,70)" stroke-width="1.51"></path><path d="M55,373L106,414L125,333Z" fill="rgb(123,154,150)" stroke="rgb(123,154,150)" stroke-width="1.51"></path><path d="M38,145L19,220L118,186Z" fill="rgb(185,203,227)" stroke="rgb(185,203,227)" stroke-width="1.51"></path><path d="M-50,207L19,220L38,145Z" fill="rgb(188,209,230)" stroke="rgb(188,209,230)" stroke-width="1.51"></path><path d="M19,220L27,256L118,186Z" fill="rgb(169,195,222)" stroke="rgb(169,195,222)" stroke-width="1.51"></path><path d="M650,205L712,135L631,133Z" fill="rgb(83,126,131)" stroke="rgb(83,126,131)" stroke-width="1.51"></path><path d="M717,194L712,135L650,205Z" fill="rgb(71,122,129)" stroke="rgb(71,122,129)" stroke-width="1.51"></path><path d="M718,294L650,205L624,270Z" fill="rgb(30,105,117)" stroke="rgb(30,105,117)" stroke-width="1.51"></path><path d="M209,511L240,519L271,435Z" fill="rgb(82,126,131)" stroke="rgb(82,126,131)" stroke-width="1.51"></path><path d="M345,489L240,519L390,506Z" fill="rgb(49,114,124)" stroke="rgb(49,114,124)" stroke-width="1.51"></path><path d="M55,373L125,333L99,291Z" fill="rgb(131,168,170)" stroke="rgb(131,168,170)" stroke-width="1.51"></path><path d="M621,-27L622,-102L582,-14Z" fill="rgb(130,155,146)" stroke="rgb(130,155,146)" stroke-width="1.51"></path><path d="M712,135L708,45L631,133Z" fill="rgb(106,136,136)" stroke="rgb(106,136,136)" stroke-width="1.51"></path><path d="M729,-95L708,45L712,135Z" fill="rgb(125,149,144)" stroke="rgb(125,149,144)" stroke-width="1.51"></path><path d="M729,-95L622,-102L621,-27Z" fill="rgb(130,155,146)" stroke="rgb(130,155,146)" stroke-width="1.51"></path><path d="M27,256L55,373L99,291Z" fill="rgb(141,178,185)" stroke="rgb(141,178,185)" stroke-width="1.51"></path><path d="M551,413L659,405L648,354Z" fill="rgb(1,73,57)" stroke="rgb(1,73,57)" stroke-width="1.51"></path><path d="M390,506L471,518L415,403Z" fill="rgb(17,101,103)" stroke="rgb(17,101,103)" stroke-width="1.51"></path><path d="M95,-28L20,-19L37,72Z" fill="rgb(247,238,247)" stroke="rgb(247,238,247)" stroke-width="1.51"></path><path d="M190,-118L107,-115L187,-32Z" fill="rgb(228,226,239)" stroke="rgb(228,226,239)" stroke-width="1.51"></path><path d="M471,518L544,489L497,435Z" fill="rgb(3,92,77)" stroke="rgb(3,92,77)" stroke-width="1.51"></path><path d="M390,506L240,519L471,518Z" fill="rgb(35,107,121)" stroke="rgb(35,107,121)" stroke-width="1.51"></path><path d="M209,511L271,435L169,411Z" fill="rgb(90,129,132)" stroke="rgb(90,129,132)" stroke-width="1.51"></path><path d="M708,45L705,-3L624,27Z" fill="rgb(126,150,144)" stroke="rgb(126,150,144)" stroke-width="1.51"></path><path d="M648,354L718,294L624,270Z" fill="rgb(4,97,92)" stroke="rgb(4,97,92)" stroke-width="1.51"></path><path d="M722,372L718,294L648,354Z" fill="rgb(2,91,76)" stroke="rgb(2,91,76)" stroke-width="1.51"></path><path d="M135,520L209,511L169,411Z" fill="rgb(103,134,135)" stroke="rgb(103,134,135)" stroke-width="1.51"></path><path d="M135,520L169,411L106,414Z" fill="rgb(111,139,138)" stroke="rgb(111,139,138)" stroke-width="1.51"></path><path d="M640,500L659,405L551,413Z" fill="rgb(1,70,54)" stroke="rgb(1,70,54)" stroke-width="1.51"></path><path d="M37,72L-47,111L38,145Z" fill="rgb(226,224,239)" stroke="rgb(226,224,239)" stroke-width="1.51"></path><path d="M32,-117L20,-19L95,-28Z" fill="rgb(249,240,247)" stroke="rgb(249,240,247)" stroke-width="1.51"></path><path d="M20,-19L-27,55L37,72Z" fill="rgb(246,238,246)" stroke="rgb(246,238,246)" stroke-width="1.51"></path><path d="M19,220L-45,255L27,256Z" fill="rgb(168,196,223)" stroke="rgb(168,196,223)" stroke-width="1.51"></path><path d="M27,256L-53,339L55,373Z" fill="rgb(145,181,180)" stroke="rgb(145,181,180)" stroke-width="1.51"></path><path d="M-27,55L-47,111L37,72Z" fill="rgb(237,231,242)" stroke="rgb(237,231,242)" stroke-width="1.51"></path><path d="M-47,111L-50,207L38,145Z" fill="rgb(208,217,235)" stroke="rgb(208,217,235)" stroke-width="1.51"></path><path d="M55,373L45,431L106,414Z" fill="rgb(123,146,142)" stroke="rgb(123,146,142)" stroke-width="1.51"></path><path d="M-53,339L45,431L55,373Z" fill="rgb(132,161,153)" stroke="rgb(132,161,153)" stroke-width="1.51"></path><path d="M-50,207L-45,255L19,220Z" fill="rgb(174,200,225)" stroke="rgb(174,200,225)" stroke-width="1.51"></path><path d="M32,-117L-17,-15L20,-19Z" fill="rgb(253,245,250)" stroke="rgb(253,245,250)" stroke-width="1.51"></path><path d="M20,-19L-17,-15L-27,55Z" fill="rgb(253,245,250)" stroke="rgb(253,245,250)" stroke-width="1.51"></path><path d="M-135,112L-91,177L-47,111Z" fill="rgb(218,221,237)" stroke="rgb(218,221,237)" stroke-width="1.51"></path><path d="M659,405L722,372L648,354Z" fill="rgb(1,78,62)" stroke="rgb(1,78,62)" stroke-width="1.51"></path><path d="M718,294L731,422L717,194Z" fill="rgb(4,98,93)" stroke="rgb(4,98,93)" stroke-width="1.51"></path><path d="M731,422L722,372L659,405Z" fill="rgb(1,70,54)" stroke="rgb(1,70,54)" stroke-width="1.51"></path><path d="M45,431L135,520L106,414Z" fill="rgb(118,143,140)" stroke="rgb(118,143,140)" stroke-width="1.51"></path><path d="M209,511L135,520L240,519Z" fill="rgb(96,131,134)" stroke="rgb(96,131,134)" stroke-width="1.51"></path><path d="M240,519L135,520L471,518Z" fill="rgb(64,120,128)" stroke="rgb(64,120,128)" stroke-width="1.51"></path><path d="M107,-115L32,-117L95,-28Z" fill="rgb(245,236,245)" stroke="rgb(245,236,245)" stroke-width="1.51"></path><path d="M190,-118L32,-117L107,-115Z" fill="rgb(239,232,243)" stroke="rgb(239,232,243)" stroke-width="1.51"></path><path d="M544,489L640,500L551,413Z" fill="rgb(1,75,59)" stroke="rgb(1,75,59)" stroke-width="1.51"></path><path d="M471,518L640,500L544,489Z" fill="rgb(1,82,65)" stroke="rgb(1,82,65)" stroke-width="1.51"></path><path d="M708,45L729,-95L705,-3Z" fill="rgb(130,155,146)" stroke="rgb(130,155,146)" stroke-width="1.51"></path><path d="M705,-3L729,-95L621,-27Z" fill="rgb(130,155,146)" stroke="rgb(130,155,146)" stroke-width="1.51"></path><path d="M622,-102L729,-95L541,-118Z" fill="rgb(130,155,146)" stroke="rgb(130,155,146)" stroke-width="1.51"></path><path d="M717,194L729,-95L712,135Z" fill="rgb(114,140,139)" stroke="rgb(114,140,139)" stroke-width="1.51"></path><path d="M731,422L729,-95L717,194Z" fill="rgb(74,123,129)" stroke="rgb(74,123,129)" stroke-width="1.51"></path><path d="M-92,351L-53,339L-121,277Z" fill="rgb(146,182,181)" stroke="rgb(146,182,181)" stroke-width="1.51"></path><path d="M-45,255L-53,339L27,256Z" fill="rgb(155,189,203)" stroke="rgb(155,189,203)" stroke-width="1.51"></path><path d="M45,431L30,515L135,520Z" fill="rgb(122,146,142)" stroke="rgb(122,146,142)" stroke-width="1.51"></path><path d="M-50,207L-121,277L-45,255Z" fill="rgb(167,195,222)" stroke="rgb(167,195,222)" stroke-width="1.51"></path><path d="M-47,111L-91,177L-50,207Z" fill="rgb(203,215,233)" stroke="rgb(203,215,233)" stroke-width="1.51"></path><path d="M-104,63L-47,111L-27,55Z" fill="rgb(238,232,243)" stroke="rgb(238,232,243)" stroke-width="1.51"></path><path d="M722,372L731,422L718,294Z" fill="rgb(1,84,67)" stroke="rgb(1,84,67)" stroke-width="1.51"></path><path d="M706,513L731,422L659,405Z" fill="rgb(1,70,54)" stroke="rgb(1,70,54)" stroke-width="1.51"></path><path d="M-17,-15L-104,63L-27,55Z" fill="rgb(248,240,247)" stroke="rgb(248,240,247)" stroke-width="1.51"></path><path d="M-129,-40L-104,63L-17,-15Z" fill="rgb(254,246,250)" stroke="rgb(254,246,250)" stroke-width="1.51"></path><path d="M-46,488L30,515L45,431Z" fill="rgb(129,153,146)" stroke="rgb(129,153,146)" stroke-width="1.51"></path><path d="M-53,339L-60,441L45,431Z" fill="rgb(130,155,146)" stroke="rgb(130,155,146)" stroke-width="1.51"></path><path d="M-121,277L-53,339L-45,255Z" fill="rgb(152,189,198)" stroke="rgb(152,189,198)" stroke-width="1.51"></path><path d="M-121,277L-50,207L-91,177Z" fill="rgb(176,202,226)" stroke="rgb(176,202,226)" stroke-width="1.51"></path><path d="M471,518L706,513L640,500Z" fill="rgb(1,70,54)" stroke="rgb(1,70,54)" stroke-width="1.51"></path><path d="M640,500L706,513L659,405Z" fill="rgb(1,70,54)" stroke="rgb(1,70,54)" stroke-width="1.51"></path><path d="M32,-117L-56,-104L-17,-15Z" fill="rgb(255,247,251)" stroke="rgb(255,247,251)" stroke-width="1.51"></path><path d="M-135,112L-121,277L-91,177Z" fill="rgb(190,210,231)" stroke="rgb(190,210,231)" stroke-width="1.51"></path><path d="M-104,63L-135,112L-47,111Z" fill="rgb(233,229,241)" stroke="rgb(233,229,241)" stroke-width="1.51"></path><path d="M-129,-40L-135,112L-104,63Z" fill="rgb(246,237,246)" stroke="rgb(246,237,246)" stroke-width="1.51"></path><path d="M-46,488L-60,441L-112,499Z" fill="rgb(130,155,146)" stroke="rgb(130,155,146)" stroke-width="1.51"></path><path d="M-92,351L-60,441L-53,339Z" fill="rgb(135,164,156)" stroke="rgb(135,164,156)" stroke-width="1.51"></path><path d="M-60,441L-46,488L45,431Z" fill="rgb(130,155,146)" stroke="rgb(130,155,146)" stroke-width="1.51"></path><path d="M-115,444L-60,441L-92,351Z" fill="rgb(130,155,146)" stroke="rgb(130,155,146)" stroke-width="1.51"></path><path d="M-56,-104L-107,-79L-17,-15Z" fill="rgb(255,247,251)" stroke="rgb(255,247,251)" stroke-width="1.51"></path><path d="M-107,-79L-129,-40L-17,-15Z" fill="rgb(255,247,251)" stroke="rgb(255,247,251)" stroke-width="1.51"></path><path d="M-135,112L-115,444L-121,277Z" fill="rgb(157,190,206)" stroke="rgb(157,190,206)" stroke-width="1.51"></path><path d="M-121,277L-115,444L-92,351Z" fill="rgb(139,173,163)" stroke="rgb(139,173,163)" stroke-width="1.51"></path><path d="M-115,444L-112,499L-60,441Z" fill="rgb(130,155,146)" stroke="rgb(130,155,146)" stroke-width="1.51"></path><path d="M-46,488L-112,499L30,515Z" fill="rgb(130,155,146)" stroke="rgb(130,155,146)" stroke-width="1.51"></path><path d="M-135,112L-112,499L-115,444Z" fill="rgb(141,176,166)" stroke="rgb(141,176,166)" stroke-width="1.51"></path></svg>