<svg width="600" height="400" xmlns="http://www.w3.org/2000/svg"><path d="M277,200L280,266L335,185Z" fill="rgb(249,100,69)" stroke="rgb(249,100,69)" stroke-width="1.51"></path><path d="M280,266L343,280L335,185Z" fill="rgb(245,81,57)" stroke="rgb(245,81,57)" stroke-width="1.51"></path><path d="M343,280L404,212L335,185Z" fill="rgb(243,77,54)" stroke="rgb(243,77,54)" stroke-width="1.51"></path><path d="M343,280L394,285L404,212Z" fill="rgb(234,55,42)" stroke="rgb(234,55,42)" stroke-width="1.51"></path><path d="M277,200L205,188L280,266Z" fill="rgb(250,112,80)" stroke="rgb(250,112,80)" stroke-width="1.51"></path><path d="M255,122L205,188L277,200Z" fill="rgb(252,133,100)" stroke="rgb(252,133,100)" stroke-width="1.51"></path><path d="M280,266L267,344L343,280Z" fill="rgb(228,73,52)" stroke="rgb(228,73,52)" stroke-width="1.51"></path><path d="M343,280L330,367L394,285Z" fill="rgb(218,50,39)" stroke="rgb(218,50,39)" stroke-width="1.51"></path><path d="M176,293L267,344L280,266Z" fill="rgb(228,90,66)" stroke="rgb(228,90,66)" stroke-width="1.51"></path><path d="M335,185L255,122L277,200Z" fill="rgb(252,122,89)" stroke="rgb(252,122,89)" stroke-width="1.51"></path><path d="M426,113L321,107L335,185Z" fill="rgb(249,118,88)" stroke="rgb(249,118,88)" stroke-width="1.51"></path><path d="M321,107L255,122L335,185Z" fill="rgb(252,131,99)" stroke="rgb(252,131,99)" stroke-width="1.51"></path><path d="M267,344L330,367L343,280Z" fill="rgb(214,64,46)" stroke="rgb(214,64,46)" stroke-width="1.51"></path><path d="M205,188L176,293L280,266Z" fill="rgb(247,109,80)" stroke="rgb(247,109,80)" stroke-width="1.51"></path><path d="M404,212L426,113L335,185Z" fill="rgb(243,97,69)" stroke="rgb(243,97,69)" stroke-width="1.51"></path><path d="M394,285L469,219L404,212Z" fill="rgb(229,56,42)" stroke="rgb(229,56,42)" stroke-width="1.51"></path><path d="M483,254L469,219L394,285Z" fill="rgb(220,42,36)" stroke="rgb(220,42,36)" stroke-width="1.51"></path><path d="M469,125L426,113L404,212Z" fill="rgb(233,97,72)" stroke="rgb(233,97,72)" stroke-width="1.51"></path><path d="M330,367L405,368L394,285Z" fill="rgb(205,39,33)" stroke="rgb(205,39,33)" stroke-width="1.51"></path><path d="M478,339L483,254L394,285Z" fill="rgb(205,27,30)" stroke="rgb(205,27,30)" stroke-width="1.51"></path><path d="M267,344L262,410L330,367Z" fill="rgb(192,65,48)" stroke="rgb(192,65,48)" stroke-width="1.51"></path><path d="M176,293L198,363L267,344Z" fill="rgb(217,94,71)" stroke="rgb(217,94,71)" stroke-width="1.51"></path><path d="M426,113L343,55L321,107Z" fill="rgb(252,136,107)" stroke="rgb(252,136,107)" stroke-width="1.51"></path><path d="M321,107L257,37L255,122Z" fill="rgb(255,158,128)" stroke="rgb(255,158,128)" stroke-width="1.51"></path><path d="M255,122L181,114L205,188Z" fill="rgb(252,153,121)" stroke="rgb(252,153,121)" stroke-width="1.51"></path><path d="M124,207L132,284L176,293Z" fill="rgb(247,128,101)" stroke="rgb(247,128,101)" stroke-width="1.51"></path><path d="M181,68L181,114L255,122Z" fill="rgb(253,172,143)" stroke="rgb(253,172,143)" stroke-width="1.51"></path><path d="M426,113L416,54L343,55Z" fill="rgb(248,136,110)" stroke="rgb(248,136,110)" stroke-width="1.51"></path><path d="M469,219L469,125L404,212Z" fill="rgb(229,79,57)" stroke="rgb(229,79,57)" stroke-width="1.51"></path><path d="M560,213L469,125L469,219Z" fill="rgb(215,74,53)" stroke="rgb(215,74,53)" stroke-width="1.51"></path><path d="M198,363L262,410L267,344Z" fill="rgb(194,78,59)" stroke="rgb(194,78,59)" stroke-width="1.51"></path><path d="M330,367L357,425L405,368Z" fill="rgb(178,37,31)" stroke="rgb(178,37,31)" stroke-width="1.51"></path><path d="M176,293L122,357L198,363Z" fill="rgb(217,108,84)" stroke="rgb(217,108,84)" stroke-width="1.51"></path><path d="M124,207L176,293L205,188Z" fill="rgb(251,132,102)" stroke="rgb(251,132,102)" stroke-width="1.51"></path><path d="M181,114L124,207L205,188Z" fill="rgb(253,154,123)" stroke="rgb(253,154,123)" stroke-width="1.51"></path><path d="M405,368L478,339L394,285Z" fill="rgb(197,28,29)" stroke="rgb(197,28,29)" stroke-width="1.51"></path><path d="M405,368L494,406L478,339Z" fill="rgb(168,15,23)" stroke="rgb(168,15,23)" stroke-width="1.51"></path><path d="M262,410L357,425L330,367Z" fill="rgb(173,51,39)" stroke="rgb(173,51,39)" stroke-width="1.51"></path><path d="M343,55L257,37L321,107Z" fill="rgb(255,159,131)" stroke="rgb(255,159,131)" stroke-width="1.51"></path><path d="M343,55L326,-10L257,37Z" fill="rgb(255,169,145)" stroke="rgb(255,169,145)" stroke-width="1.51"></path><path d="M469,125L416,54L426,113Z" fill="rgb(236,120,95)" stroke="rgb(236,120,95)" stroke-width="1.51"></path><path d="M181,114L124,105L124,207Z" fill="rgb(253,172,143)" stroke="rgb(253,172,143)" stroke-width="1.51"></path><path d="M257,37L181,68L255,122Z" fill="rgb(255,174,147)" stroke="rgb(255,174,147)" stroke-width="1.51"></path><path d="M357,425L405,434L405,368Z" fill="rgb(165,26,27)" stroke="rgb(165,26,27)" stroke-width="1.51"></path><path d="M356,491L405,434L357,425Z" fill="rgb(168,31,29)" stroke="rgb(168,31,29)" stroke-width="1.51"></path><path d="M181,68L124,105L181,114Z" fill="rgb(252,186,159)" stroke="rgb(252,186,159)" stroke-width="1.51"></path><path d="M198,363L181,440L262,410Z" fill="rgb(176,80,64)" stroke="rgb(176,80,64)" stroke-width="1.51"></path><path d="M132,284L122,357L176,293Z" fill="rgb(228,117,93)" stroke="rgb(228,117,93)" stroke-width="1.51"></path><path d="M23,341L122,357L132,284Z" fill="rgb(225,128,107)" stroke="rgb(225,128,107)" stroke-width="1.51"></path><path d="M19,266L132,284L124,207Z" fill="rgb(253,144,118)" stroke="rgb(253,144,118)" stroke-width="1.51"></path><path d="M257,37L184,-12L181,68Z" fill="rgb(255,194,172)" stroke="rgb(255,194,172)" stroke-width="1.51"></path><path d="M416,54L326,-10L343,55Z" fill="rgb(255,156,131)" stroke="rgb(255,156,131)" stroke-width="1.51"></path><path d="M483,254L560,213L469,219Z" fill="rgb(209,53,40)" stroke="rgb(209,53,40)" stroke-width="1.51"></path><path d="M469,125L497,29L416,54Z" fill="rgb(233,128,106)" stroke="rgb(233,128,106)" stroke-width="1.51"></path><path d="M572,291L560,213L483,254Z" fill="rgb(195,36,31)" stroke="rgb(195,36,31)" stroke-width="1.51"></path><path d="M326,-10L252,-7L257,37Z" fill="rgb(255,181,158)" stroke="rgb(255,181,158)" stroke-width="1.51"></path><path d="M181,68L103,67L124,105Z" fill="rgb(253,198,175)" stroke="rgb(253,198,175)" stroke-width="1.51"></path><path d="M129,422L181,440L198,363Z" fill="rgb(178,93,76)" stroke="rgb(178,93,76)" stroke-width="1.51"></path><path d="M260,496L356,491L357,425Z" fill="rgb(172,48,38)" stroke="rgb(172,48,38)" stroke-width="1.51"></path><path d="M478,339L572,291L483,254Z" fill="rgb(189,23,26)" stroke="rgb(189,23,26)" stroke-width="1.51"></path><path d="M405,434L494,406L405,368Z" fill="rgb(155,15,23)" stroke="rgb(155,15,23)" stroke-width="1.51"></path><path d="M494,406L545,357L478,339Z" fill="rgb(159,12,21)" stroke="rgb(159,12,21)" stroke-width="1.51"></path><path d="M405,434L483,487L494,406Z" fill="rgb(149,9,21)" stroke="rgb(149,9,21)" stroke-width="1.51"></path><path d="M260,496L357,425L262,410Z" fill="rgb(174,58,44)" stroke="rgb(174,58,44)" stroke-width="1.51"></path><path d="M545,357L572,291L478,339Z" fill="rgb(170,16,22)" stroke="rgb(170,16,22)" stroke-width="1.51"></path><path d="M122,357L129,422L198,363Z" fill="rgb(191,103,84)" stroke="rgb(191,103,84)" stroke-width="1.51"></path><path d="M124,105L36,181L124,207Z" fill="rgb(255,175,149)" stroke="rgb(255,175,149)" stroke-width="1.51"></path><path d="M184,-12L103,67L181,68Z" fill="rgb(254,206,186)" stroke="rgb(254,206,186)" stroke-width="1.51"></path><path d="M182,502L260,496L181,440Z" fill="rgb(177,82,65)" stroke="rgb(177,82,65)" stroke-width="1.51"></path><path d="M181,440L260,496L262,410Z" fill="rgb(176,74,58)" stroke="rgb(176,74,58)" stroke-width="1.51"></path><path d="M565,122L497,29L469,125Z" fill="rgb(217,115,92)" stroke="rgb(217,115,92)" stroke-width="1.51"></path><path d="M416,54L421,-43L326,-10Z" fill="rgb(255,158,136)" stroke="rgb(255,158,136)" stroke-width="1.51"></path><path d="M624,184L565,122L560,213Z" fill="rgb(183,70,53)" stroke="rgb(183,70,53)" stroke-width="1.51"></path><path d="M560,213L565,122L469,125Z" fill="rgb(207,86,63)" stroke="rgb(207,86,63)" stroke-width="1.51"></path><path d="M259,-89L184,-12L252,-7Z" fill="rgb(255,194,173)" stroke="rgb(255,194,173)" stroke-width="1.51"></path><path d="M252,-7L184,-12L257,37Z" fill="rgb(255,193,172)" stroke="rgb(255,193,172)" stroke-width="1.51"></path><path d="M33,138L36,181L124,105Z" fill="rgb(255,190,167)" stroke="rgb(255,190,167)" stroke-width="1.51"></path><path d="M122,357L57,440L129,422Z" fill="rgb(181,109,96)" stroke="rgb(181,109,96)" stroke-width="1.51"></path><path d="M356,491L423,500L405,434Z" fill="rgb(164,25,27)" stroke="rgb(164,25,27)" stroke-width="1.51"></path><path d="M494,406L547,435L545,357Z" fill="rgb(132,5,18)" stroke="rgb(132,5,18)" stroke-width="1.51"></path><path d="M260,496L423,500L356,491Z" fill="rgb(171,41,34)" stroke="rgb(171,41,34)" stroke-width="1.51"></path><path d="M497,29L421,-43L416,54Z" fill="rgb(242,145,126)" stroke="rgb(242,145,126)" stroke-width="1.51"></path><path d="M326,-10L259,-89L252,-7Z" fill="rgb(255,183,160)" stroke="rgb(255,183,160)" stroke-width="1.51"></path><path d="M103,67L33,138L124,105Z" fill="rgb(254,201,180)" stroke="rgb(254,201,180)" stroke-width="1.51"></path><path d="M-54,211L19,266L36,181Z" fill="rgb(255,171,148)" stroke="rgb(255,171,148)" stroke-width="1.51"></path><path d="M36,181L19,266L124,207Z" fill="rgb(255,163,137)" stroke="rgb(255,163,137)" stroke-width="1.51"></path><path d="M126,505L182,502L181,440Z" fill="rgb(178,94,78)" stroke="rgb(178,94,78)" stroke-width="1.51"></path><path d="M260,496L182,502L423,500Z" fill="rgb(174,60,45)" stroke="rgb(174,60,45)" stroke-width="1.51"></path><path d="M126,505L181,440L129,422Z" fill="rgb(178,99,83)" stroke="rgb(178,99,83)" stroke-width="1.51"></path><path d="M423,500L483,487L405,434Z" fill="rgb(154,14,23)" stroke="rgb(154,14,23)" stroke-width="1.51"></path><path d="M483,487L547,435L494,406Z" fill="rgb(137,7,19)" stroke="rgb(137,7,19)" stroke-width="1.51"></path><path d="M651,337L656,289L572,291Z" fill="rgb(150,9,21)" stroke="rgb(150,9,21)" stroke-width="1.51"></path><path d="M497,29L501,-37L421,-43Z" fill="rgb(235,144,127)" stroke="rgb(235,144,127)" stroke-width="1.51"></path><path d="M565,122L550,31L497,29Z" fill="rgb(210,123,104)" stroke="rgb(210,123,104)" stroke-width="1.51"></path><path d="M656,289L560,213L572,291Z" fill="rgb(165,25,27)" stroke="rgb(165,25,27)" stroke-width="1.51"></path><path d="M656,289L624,184L560,213Z" fill="rgb(171,42,34)" stroke="rgb(171,42,34)" stroke-width="1.51"></path><path d="M565,122L654,68L550,31Z" fill="rgb(185,109,94)" stroke="rgb(185,109,94)" stroke-width="1.51"></path><path d="M19,266L23,341L132,284Z" fill="rgb(240,140,119)" stroke="rgb(240,140,119)" stroke-width="1.51"></path><path d="M624,184L623,126L565,122Z" fill="rgb(176,80,63)" stroke="rgb(176,80,63)" stroke-width="1.51"></path><path d="M351,-95L259,-89L326,-10Z" fill="rgb(255,175,152)" stroke="rgb(255,175,152)" stroke-width="1.51"></path><path d="M184,-12L119,-35L103,67Z" fill="rgb(255,218,203)" stroke="rgb(255,218,203)" stroke-width="1.51"></path><path d="M421,-43L351,-95L326,-10Z" fill="rgb(255,162,140)" stroke="rgb(255,162,140)" stroke-width="1.51"></path><path d="M554,-18L501,-37L497,29Z" fill="rgb(223,140,124)" stroke="rgb(223,140,124)" stroke-width="1.51"></path><path d="M554,-18L497,29L550,31Z" fill="rgb(216,135,119)" stroke="rgb(216,135,119)" stroke-width="1.51"></path><path d="M423,-94L351,-95L421,-43Z" fill="rgb(254,156,135)" stroke="rgb(254,156,135)" stroke-width="1.51"></path><path d="M103,67L31,30L33,138Z" fill="rgb(254,216,200)" stroke="rgb(254,216,200)" stroke-width="1.51"></path><path d="M171,-94L119,-35L184,-12Z" fill="rgb(255,214,197)" stroke="rgb(255,214,197)" stroke-width="1.51"></path><path d="M23,341L57,440L122,357Z" fill="rgb(197,122,107)" stroke="rgb(197,122,107)" stroke-width="1.51"></path><path d="M57,440L126,505L129,422Z" fill="rgb(181,109,95)" stroke="rgb(181,109,95)" stroke-width="1.51"></path><path d="M182,502L126,505L423,500Z" fill="rgb(176,72,56)" stroke="rgb(176,72,56)" stroke-width="1.51"></path><path d="M479,-106L423,-94L421,-43Z" fill="rgb(243,148,130)" stroke="rgb(243,148,130)" stroke-width="1.51"></path><path d="M633,-38L554,-18L550,31Z" fill="rgb(195,129,119)" stroke="rgb(195,129,119)" stroke-width="1.51"></path><path d="M501,-37L479,-106L421,-43Z" fill="rgb(237,145,127)" stroke="rgb(237,145,127)" stroke-width="1.51"></path><path d="M719,122L654,68L623,126Z" fill="rgb(178,96,79)" stroke="rgb(178,96,79)" stroke-width="1.51"></path><path d="M651,337L572,291L545,357Z" fill="rgb(145,8,20)" stroke="rgb(145,8,20)" stroke-width="1.51"></path><path d="M119,-35L31,30L103,67Z" fill="rgb(255,227,216)" stroke="rgb(255,227,216)" stroke-width="1.51"></path><path d="M-52,284L23,341L19,266Z" fill="rgb(242,148,129)" stroke="rgb(242,148,129)" stroke-width="1.51"></path><path d="M621,434L651,337L545,357Z" fill="rgb(117,2,15)" stroke="rgb(117,2,15)" stroke-width="1.51"></path><path d="M547,435L621,434L545,357Z" fill="rgb(114,2,15)" stroke="rgb(114,2,15)" stroke-width="1.51"></path><path d="M483,487L562,483L547,435Z" fill="rgb(131,5,18)" stroke="rgb(131,5,18)" stroke-width="1.51"></path><path d="M423,500L562,483L483,487Z" fill="rgb(142,7,20)" stroke="rgb(142,7,20)" stroke-width="1.51"></path><path d="M119,-35L50,-44L31,30Z" fill="rgb(255,235,226)" stroke="rgb(255,235,226)" stroke-width="1.51"></path><path d="M259,-89L171,-94L184,-12Z" fill="rgb(255,201,182)" stroke="rgb(255,201,182)" stroke-width="1.51"></path><path d="M351,-95L171,-94L259,-89Z" fill="rgb(255,187,165)" stroke="rgb(255,187,165)" stroke-width="1.51"></path><path d="M23,341L-18,364L57,440Z" fill="rgb(197,128,116)" stroke="rgb(197,128,116)" stroke-width="1.51"></path><path d="M-52,284L-18,364L23,341Z" fill="rgb(229,142,125)" stroke="rgb(229,142,125)" stroke-width="1.51"></path><path d="M-33,117L36,181L33,138Z" fill="rgb(255,196,175)" stroke="rgb(255,196,175)" stroke-width="1.51"></path><path d="M57,440L52,482L126,505Z" fill="rgb(182,115,103)" stroke="rgb(182,115,103)" stroke-width="1.51"></path><path d="M-22,488L52,482L57,440Z" fill="rgb(184,122,111)" stroke="rgb(184,122,111)" stroke-width="1.51"></path><path d="M562,483L621,434L547,435Z" fill="rgb(112,1,15)" stroke="rgb(112,1,15)" stroke-width="1.51"></path><path d="M-19,45L-33,117L33,138Z" fill="rgb(255,216,200)" stroke="rgb(255,216,200)" stroke-width="1.51"></path><path d="M-33,117L-54,211L36,181Z" fill="rgb(255,189,167)" stroke="rgb(255,189,167)" stroke-width="1.51"></path><path d="M-54,211L-52,284L19,266Z" fill="rgb(255,159,137)" stroke="rgb(255,159,137)" stroke-width="1.51"></path><path d="M39,-120L115,-101L171,-94Z" fill="rgb(255,226,214)" stroke="rgb(255,226,214)" stroke-width="1.51"></path><path d="M423,-94L479,-106L351,-95Z" fill="rgb(249,152,132)" stroke="rgb(249,152,132)" stroke-width="1.51"></path><path d="M564,-86L479,-106L501,-37Z" fill="rgb(224,140,124)" stroke="rgb(224,140,124)" stroke-width="1.51"></path><path d="M554,-18L564,-86L501,-37Z" fill="rgb(214,136,122)" stroke="rgb(214,136,122)" stroke-width="1.51"></path><path d="M623,126L654,68L565,122Z" fill="rgb(178,96,79)" stroke="rgb(178,96,79)" stroke-width="1.51"></path><path d="M704,199L623,126L624,184Z" fill="rgb(175,69,53)" stroke="rgb(175,69,53)" stroke-width="1.51"></path><path d="M31,30L-19,45L33,138Z" fill="rgb(255,224,211)" stroke="rgb(255,224,211)" stroke-width="1.51"></path><path d="M115,-101L50,-44L119,-35Z" fill="rgb(255,229,218)" stroke="rgb(255,229,218)" stroke-width="1.51"></path><path d="M-35,-11L-19,45L31,30Z" fill="rgb(255,240,233)" stroke="rgb(255,240,233)" stroke-width="1.51"></path><path d="M-33,117L-93,209L-54,211Z" fill="rgb(255,185,163)" stroke="rgb(255,185,163)" stroke-width="1.51"></path><path d="M39,-120L171,-94L351,-95Z" fill="rgb(255,206,188)" stroke="rgb(255,206,188)" stroke-width="1.51"></path><path d="M171,-94L115,-101L119,-35Z" fill="rgb(255,219,205)" stroke="rgb(255,219,205)" stroke-width="1.51"></path><path d="M656,289L704,199L624,184Z" fill="rgb(172,44,35)" stroke="rgb(172,44,35)" stroke-width="1.51"></path><path d="M730,269L704,199L656,289Z" fill="rgb(167,29,28)" stroke="rgb(167,29,28)" stroke-width="1.51"></path><path d="M707,367L656,289L651,337Z" fill="rgb(140,7,19)" stroke="rgb(140,7,19)" stroke-width="1.51"></path><path d="M-130,335L-41,411L-18,364Z" fill="rgb(207,134,120)" stroke="rgb(207,134,120)" stroke-width="1.51"></path><path d="M-18,364L-41,411L57,440Z" fill="rgb(185,126,117)" stroke="rgb(185,126,117)" stroke-width="1.51"></path><path d="M633,-38L564,-86L554,-18Z" fill="rgb(193,129,118)" stroke="rgb(193,129,118)" stroke-width="1.51"></path><path d="M-97,107L-93,209L-33,117Z" fill="rgb(255,198,178)" stroke="rgb(255,198,178)" stroke-width="1.51"></path><path d="M-54,211L-97,282L-52,284Z" fill="rgb(255,157,136)" stroke="rgb(255,157,136)" stroke-width="1.51"></path><path d="M-52,284L-130,335L-18,364Z" fill="rgb(230,143,126)" stroke="rgb(230,143,126)" stroke-width="1.51"></path><path d="M695,427L707,367L651,337Z" fill="rgb(117,2,15)" stroke="rgb(117,2,15)" stroke-width="1.51"></path><path d="M695,427L651,337L621,434Z" fill="rgb(103,0,13)" stroke="rgb(103,0,13)" stroke-width="1.51"></path><path d="M707,367L730,269L656,289Z" fill="rgb(149,9,21)" stroke="rgb(149,9,21)" stroke-width="1.51"></path><path d="M654,68L633,-38L550,31Z" fill="rgb(184,121,112)" stroke="rgb(184,121,112)" stroke-width="1.51"></path><path d="M702,67L633,-38L654,68Z" fill="rgb(184,119,108)" stroke="rgb(184,119,108)" stroke-width="1.51"></path><path d="M719,122L623,126L704,199Z" fill="rgb(176,78,61)" stroke="rgb(176,78,61)" stroke-width="1.51"></path><path d="M-93,209L-97,282L-54,211Z" fill="rgb(255,166,143)" stroke="rgb(255,166,143)" stroke-width="1.51"></path><path d="M730,269L719,122L704,199Z" fill="rgb(174,57,44)" stroke="rgb(174,57,44)" stroke-width="1.51"></path><path d="M719,122L702,67L654,68Z" fill="rgb(179,103,88)" stroke="rgb(179,103,88)" stroke-width="1.51"></path><path d="M423,500L651,490L562,483Z" fill="rgb(125,4,17)" stroke="rgb(125,4,17)" stroke-width="1.51"></path><path d="M562,483L651,490L621,434Z" fill="rgb(103,0,13)" stroke="rgb(103,0,13)" stroke-width="1.51"></path><path d="M52,482L-22,488L126,505Z" fill="rgb(183,118,108)" stroke="rgb(183,118,108)" stroke-width="1.51"></path><path d="M-41,411L-22,488L57,440Z" fill="rgb(185,126,117)" stroke="rgb(185,126,117)" stroke-width="1.51"></path><path d="M-111,441L-22,488L-41,411Z" fill="rgb(185,126,117)" stroke="rgb(185,126,117)" stroke-width="1.51"></path><path d="M651,490L695,427L621,434Z" fill="rgb(103,0,13)" stroke="rgb(103,0,13)" stroke-width="1.51"></path><path d="M707,367L705,497L730,269Z" fill="rgb(116,2,15)" stroke="rgb(116,2,15)" stroke-width="1.51"></path><path d="M-52,-94L-35,-11L50,-44Z" fill="rgb(255,245,240)" stroke="rgb(255,245,240)" stroke-width="1.51"></path><path d="M50,-44L-35,-11L31,30Z" fill="rgb(255,243,237)" stroke="rgb(255,243,237)" stroke-width="1.51"></path><path d="M-19,45L-97,107L-33,117Z" fill="rgb(255,220,205)" stroke="rgb(255,220,205)" stroke-width="1.51"></path><path d="M-93,209L-130,335L-97,282Z" fill="rgb(250,153,133)" stroke="rgb(250,153,133)" stroke-width="1.51"></path><path d="M-102,36L-97,107L-19,45Z" fill="rgb(255,230,218)" stroke="rgb(255,230,218)" stroke-width="1.51"></path><path d="M479,-106L39,-120L351,-95Z" fill="rgb(255,180,157)" stroke="rgb(255,180,157)" stroke-width="1.51"></path><path d="M115,-101L39,-120L50,-44Z" fill="rgb(255,235,226)" stroke="rgb(255,235,226)" stroke-width="1.51"></path><path d="M-97,282L-130,335L-52,284Z" fill="rgb(241,147,129)" stroke="rgb(241,147,129)" stroke-width="1.51"></path><path d="M-97,107L-130,335L-93,209Z" fill="rgb(255,172,149)" stroke="rgb(255,172,149)" stroke-width="1.51"></path><path d="M-97,107L-102,36L-130,335Z" fill="rgb(255,192,171)" stroke="rgb(255,192,171)" stroke-width="1.51"></path><path d="M-35,-11L-102,36L-19,45Z" fill="rgb(255,240,233)" stroke="rgb(255,240,233)" stroke-width="1.51"></path><path d="M-109,-16L-102,36L-35,-11Z" fill="rgb(255,244,239)" stroke="rgb(255,244,239)" stroke-width="1.51"></path><path d="M651,490L705,497L695,427Z" fill="rgb(103,0,13)" stroke="rgb(103,0,13)" stroke-width="1.51"></path><path d="M695,427L705,497L707,367Z" fill="rgb(103,0,13)" stroke="rgb(103,0,13)" stroke-width="1.51"></path><path d="M423,500L705,497L651,490Z" fill="rgb(106,0,14)" stroke="rgb(106,0,14)" stroke-width="1.51"></path><path d="M-133,520L705,497L423,500Z" fill="rgb(172,46,36)" stroke="rgb(172,46,36)" stroke-width="1.51"></path><path d="M-130,335L-111,441L-41,411Z" fill="rgb(188,127,117)" stroke="rgb(188,127,117)" stroke-width="1.51"></path><path d="M725,-41L633,-38L702,67Z" fill="rgb(185,126,117)" stroke="rgb(185,126,117)" stroke-width="1.51"></path><path d="M725,-41L657,-103L633,-38Z" fill="rgb(185,126,117)" stroke="rgb(185,126,117)" stroke-width="1.51"></path><path d="M633,-38L657,-103L564,-86Z" fill="rgb(185,126,117)" stroke="rgb(185,126,117)" stroke-width="1.51"></path><path d="M564,-86L657,-103L479,-106Z" fill="rgb(201,132,120)" stroke="rgb(201,132,120)" stroke-width="1.51"></path><path d="M479,-106L657,-103L39,-120Z" fill="rgb(255,157,136)" stroke="rgb(255,157,136)" stroke-width="1.51"></path><path d="M39,-120L-52,-94L50,-44Z" fill="rgb(255,243,237)" stroke="rgb(255,243,237)" stroke-width="1.51"></path><path d="M719,122L725,-41L702,67Z" fill="rgb(182,116,104)" stroke="rgb(182,116,104)" stroke-width="1.51"></path><path d="M730,269L725,-41L719,122Z" fill="rgb(178,91,74)" stroke="rgb(178,91,74)" stroke-width="1.51"></path><path d="M-52,-94L-109,-16L-35,-11Z" fill="rgb(255,245,240)" stroke="rgb(255,245,240)" stroke-width="1.51"></path><path d="M-102,36L-109,-16L-130,335Z" fill="rgb(255,208,191)" stroke="rgb(255,208,191)" stroke-width="1.51"></path><path d="M725,-41L724,-99L657,-103Z" fill="rgb(185,126,117)" stroke="rgb(185,126,117)" stroke-width="1.51"></path><path d="M126,505L-133,520L423,500Z" fill="rgb(179,101,85)" stroke="rgb(179,101,85)" stroke-width="1.51"></path><path d="M-22,488L-133,520L126,505Z" fill="rgb(185,126,117)" stroke="rgb(185,126,117)" stroke-width="1.51"></path><path d="M-111,441L-133,520L-22,488Z" fill="rgb(185,126,117)" stroke="rgb(185,126,117)" stroke-width="1.51"></path><path d="M-130,335L-133,520L-111,441Z" fill="rgb(185,126,117)" stroke="rgb(185,126,117)" stroke-width="1.51"></path><path d="M-52,-94L-107,-113L-109,-16Z" fill="rgb(255,245,240)" stroke="rgb(255,245,240)" stroke-width="1.51"></path><path d="M-109,-16L-107,-113L-130,335Z" fill="rgb(255,227,215)" stroke="rgb(255,227,215)" stroke-width="1.51"></path><path d="M39,-120L-107,-113L-52,-94Z" fill="rgb(255,245,240)" stroke="rgb(255,245,240)" stroke-width="1.51"></path></svg>