<svg width="600" height="400" xmlns="http://www.w3.org/2000/svg"><path d="M324,198L340,274L397,202Z" fill="rgb(227,243,152)" stroke="rgb(227,243,152)" stroke-width="1.51"></path><path d="M340,274L402,267L397,202Z" fill="rgb(204,234,130)" stroke="rgb(204,234,130)" stroke-width="1.51"></path><path d="M340,274L413,338L402,267Z" fill="rgb(171,219,114)" stroke="rgb(171,219,114)" stroke-width="1.51"></path><path d="M324,198L272,289L340,274Z" fill="rgb(224,242,155)" stroke="rgb(224,242,155)" stroke-width="1.51"></path><path d="M324,198L249,212L272,289Z" fill="rgb(240,244,162)" stroke="rgb(240,244,162)" stroke-width="1.51"></path><path d="M344,361L413,338L340,274Z" fill="rgb(156,211,116)" stroke="rgb(156,211,116)" stroke-width="1.51"></path><path d="M476,111L402,107L397,202Z" fill="rgb(210,208,111)" stroke="rgb(210,208,111)" stroke-width="1.51"></path><path d="M397,202L332,111L324,198Z" fill="rgb(239,237,150)" stroke="rgb(239,237,150)" stroke-width="1.51"></path><path d="M324,198L255,132L249,212Z" fill="rgb(255,241,168)" stroke="rgb(255,241,168)" stroke-width="1.51"></path><path d="M397,202L402,107L332,111Z" fill="rgb(230,217,124)" stroke="rgb(230,217,124)" stroke-width="1.51"></path><path d="M491,212L397,202L402,267Z" fill="rgb(193,228,130)" stroke="rgb(193,228,130)" stroke-width="1.51"></path><path d="M268,337L344,361L340,274Z" fill="rgb(172,218,136)" stroke="rgb(172,218,136)" stroke-width="1.51"></path><path d="M502,261L491,212L402,267Z" fill="rgb(165,216,117)" stroke="rgb(165,216,117)" stroke-width="1.51"></path><path d="M272,289L268,337L340,274Z" fill="rgb(196,228,144)" stroke="rgb(196,228,144)" stroke-width="1.51"></path><path d="M203,291L268,337L272,289Z" fill="rgb(193,214,124)" stroke="rgb(193,214,124)" stroke-width="1.51"></path><path d="M332,111L255,132L324,198Z" fill="rgb(255,231,156)" stroke="rgb(255,231,156)" stroke-width="1.51"></path><path d="M413,338L502,261L402,267Z" fill="rgb(150,209,105)" stroke="rgb(150,209,105)" stroke-width="1.51"></path><path d="M249,212L203,291L272,289Z" fill="rgb(221,226,130)" stroke="rgb(221,226,130)" stroke-width="1.51"></path><path d="M180,214L203,291L249,212Z" fill="rgb(238,220,129)" stroke="rgb(238,220,129)" stroke-width="1.51"></path><path d="M562,188L476,111L491,212Z" fill="rgb(169,202,120)" stroke="rgb(169,202,120)" stroke-width="1.51"></path><path d="M491,212L476,111L397,202Z" fill="rgb(194,219,130)" stroke="rgb(194,219,130)" stroke-width="1.51"></path><path d="M332,111L264,58L255,132Z" fill="rgb(255,196,128)" stroke="rgb(255,196,128)" stroke-width="1.51"></path><path d="M402,107L333,59L332,111Z" fill="rgb(239,187,108)" stroke="rgb(239,187,108)" stroke-width="1.51"></path><path d="M414,62L333,59L402,107Z" fill="rgb(227,172,94)" stroke="rgb(227,172,94)" stroke-width="1.51"></path><path d="M476,111L414,62L402,107Z" fill="rgb(209,176,90)" stroke="rgb(209,176,90)" stroke-width="1.51"></path><path d="M255,132L180,214L249,212Z" fill="rgb(255,229,151)" stroke="rgb(255,229,151)" stroke-width="1.51"></path><path d="M413,338L501,350L502,261Z" fill="rgb(110,193,100)" stroke="rgb(110,193,100)" stroke-width="1.51"></path><path d="M487,417L501,350L413,338Z" fill="rgb(77,168,88)" stroke="rgb(77,168,88)" stroke-width="1.51"></path><path d="M255,132L178,112L180,214Z" fill="rgb(254,205,122)" stroke="rgb(254,205,122)" stroke-width="1.51"></path><path d="M333,59L264,58L332,111Z" fill="rgb(252,181,121)" stroke="rgb(252,181,121)" stroke-width="1.51"></path><path d="M344,361L409,431L413,338Z" fill="rgb(116,180,95)" stroke="rgb(116,180,95)" stroke-width="1.51"></path><path d="M268,337L331,428L344,361Z" fill="rgb(143,191,122)" stroke="rgb(143,191,122)" stroke-width="1.51"></path><path d="M265,437L331,428L268,337Z" fill="rgb(139,175,115)" stroke="rgb(139,175,115)" stroke-width="1.51"></path><path d="M502,261L559,267L491,212Z" fill="rgb(140,201,110)" stroke="rgb(140,201,110)" stroke-width="1.51"></path><path d="M568,334L559,267L502,261Z" fill="rgb(100,181,92)" stroke="rgb(100,181,92)" stroke-width="1.51"></path><path d="M331,428L409,431L344,361Z" fill="rgb(120,170,95)" stroke="rgb(120,170,95)" stroke-width="1.51"></path><path d="M559,267L562,188L491,212Z" fill="rgb(144,200,120)" stroke="rgb(144,200,120)" stroke-width="1.51"></path><path d="M203,291L184,347L268,337Z" fill="rgb(181,197,110)" stroke="rgb(181,197,110)" stroke-width="1.51"></path><path d="M110,285L184,347L203,291Z" fill="rgb(195,182,95)" stroke="rgb(195,182,95)" stroke-width="1.51"></path><path d="M264,58L178,112L255,132Z" fill="rgb(253,182,108)" stroke="rgb(253,182,108)" stroke-width="1.51"></path><path d="M414,62L414,-16L333,59Z" fill="rgb(212,148,79)" stroke="rgb(212,148,79)" stroke-width="1.51"></path><path d="M204,-15L181,55L264,58Z" fill="rgb(234,131,78)" stroke="rgb(234,131,78)" stroke-width="1.51"></path><path d="M476,111L499,57L414,62Z" fill="rgb(194,158,82)" stroke="rgb(194,158,82)" stroke-width="1.51"></path><path d="M562,126L499,57L476,111Z" fill="rgb(174,159,84)" stroke="rgb(174,159,84)" stroke-width="1.51"></path><path d="M409,431L487,417L413,338Z" fill="rgb(86,158,81)" stroke="rgb(86,158,81)" stroke-width="1.51"></path><path d="M501,350L568,334L502,261Z" fill="rgb(84,177,92)" stroke="rgb(84,177,92)" stroke-width="1.51"></path><path d="M184,347L265,437L268,337Z" fill="rgb(151,180,103)" stroke="rgb(151,180,103)" stroke-width="1.51"></path><path d="M331,428L411,505L409,431Z" fill="rgb(110,165,89)" stroke="rgb(110,165,89)" stroke-width="1.51"></path><path d="M562,188L562,126L476,111Z" fill="rgb(161,181,100)" stroke="rgb(161,181,100)" stroke-width="1.51"></path><path d="M568,428L568,334L501,350Z" fill="rgb(22,143,75)" stroke="rgb(22,143,75)" stroke-width="1.51"></path><path d="M559,267L637,205L562,188Z" fill="rgb(133,180,111)" stroke="rgb(133,180,111)" stroke-width="1.51"></path><path d="M637,130L577,58L562,126Z" fill="rgb(147,134,71)" stroke="rgb(147,134,71)" stroke-width="1.51"></path><path d="M264,58L181,55L178,112Z" fill="rgb(249,151,89)" stroke="rgb(249,151,89)" stroke-width="1.51"></path><path d="M276,-15L264,58L333,59Z" fill="rgb(240,155,107)" stroke="rgb(240,155,107)" stroke-width="1.51"></path><path d="M471,-11L414,-16L414,62Z" fill="rgb(179,132,70)" stroke="rgb(179,132,70)" stroke-width="1.51"></path><path d="M180,214L110,285L203,291Z" fill="rgb(224,194,104)" stroke="rgb(224,194,104)" stroke-width="1.51"></path><path d="M184,347L176,429L265,437Z" fill="rgb(143,152,85)" stroke="rgb(143,152,85)" stroke-width="1.51"></path><path d="M103,184L110,285L180,214Z" fill="rgb(243,185,112)" stroke="rgb(243,185,112)" stroke-width="1.51"></path><path d="M103,184L180,214L124,118Z" fill="rgb(254,181,114)" stroke="rgb(254,181,114)" stroke-width="1.51"></path><path d="M330,-33L276,-15L333,59Z" fill="rgb(216,144,104)" stroke="rgb(216,144,104)" stroke-width="1.51"></path><path d="M124,118L180,214L178,112Z" fill="rgb(253,182,106)" stroke="rgb(253,182,106)" stroke-width="1.51"></path><path d="M181,55L124,118L178,112Z" fill="rgb(250,145,82)" stroke="rgb(250,145,82)" stroke-width="1.51"></path><path d="M110,285L124,352L184,347Z" fill="rgb(183,162,85)" stroke="rgb(183,162,85)" stroke-width="1.51"></path><path d="M414,-16L330,-33L333,59Z" fill="rgb(203,139,85)" stroke="rgb(203,139,85)" stroke-width="1.51"></path><path d="M398,-91L320,-89L330,-33Z" fill="rgb(203,139,89)" stroke="rgb(203,139,89)" stroke-width="1.51"></path><path d="M499,57L471,-11L414,62Z" fill="rgb(183,136,68)" stroke="rgb(183,136,68)" stroke-width="1.51"></path><path d="M565,-26L471,-11L499,57Z" fill="rgb(143,112,62)" stroke="rgb(143,112,62)" stroke-width="1.51"></path><path d="M124,352L176,429L184,347Z" fill="rgb(155,148,78)" stroke="rgb(155,148,78)" stroke-width="1.51"></path><path d="M562,126L577,58L499,57Z" fill="rgb(161,137,71)" stroke="rgb(161,137,71)" stroke-width="1.51"></path><path d="M637,130L562,126L562,188Z" fill="rgb(145,162,92)" stroke="rgb(145,162,92)" stroke-width="1.51"></path><path d="M638,277L637,205L559,267Z" fill="rgb(114,167,92)" stroke="rgb(114,167,92)" stroke-width="1.51"></path><path d="M645,337L638,277L568,334Z" fill="rgb(63,147,77)" stroke="rgb(63,147,77)" stroke-width="1.51"></path><path d="M409,431L473,494L487,417Z" fill="rgb(74,151,78)" stroke="rgb(74,151,78)" stroke-width="1.51"></path><path d="M325,512L411,505L331,428Z" fill="rgb(122,170,97)" stroke="rgb(122,170,97)" stroke-width="1.51"></path><path d="M325,512L331,428L265,437Z" fill="rgb(137,177,117)" stroke="rgb(137,177,117)" stroke-width="1.51"></path><path d="M568,428L501,350L487,417Z" fill="rgb(35,135,71)" stroke="rgb(35,135,71)" stroke-width="1.51"></path><path d="M568,334L638,277L559,267Z" fill="rgb(86,159,82)" stroke="rgb(86,159,82)" stroke-width="1.51"></path><path d="M271,509L325,512L265,437Z" fill="rgb(139,175,114)" stroke="rgb(139,175,114)" stroke-width="1.51"></path><path d="M411,505L473,494L409,431Z" fill="rgb(88,157,79)" stroke="rgb(88,157,79)" stroke-width="1.51"></path><path d="M551,499L568,428L487,417Z" fill="rgb(19,129,68)" stroke="rgb(19,129,68)" stroke-width="1.51"></path><path d="M181,55L103,60L124,118Z" fill="rgb(245,117,70)" stroke="rgb(245,117,70)" stroke-width="1.51"></path><path d="M276,-15L204,-15L264,58Z" fill="rgb(220,134,89)" stroke="rgb(220,134,89)" stroke-width="1.51"></path><path d="M264,-111L204,-15L276,-15Z" fill="rgb(215,131,88)" stroke="rgb(215,131,88)" stroke-width="1.51"></path><path d="M200,505L271,509L265,437Z" fill="rgb(141,165,98)" stroke="rgb(141,165,98)" stroke-width="1.51"></path><path d="M708,186L637,130L637,205Z" fill="rgb(140,169,104)" stroke="rgb(140,169,104)" stroke-width="1.51"></path><path d="M637,205L637,130L562,188Z" fill="rgb(140,169,104)" stroke="rgb(140,169,104)" stroke-width="1.51"></path><path d="M636,409L645,337L568,334Z" fill="rgb(13,128,67)" stroke="rgb(13,128,67)" stroke-width="1.51"></path><path d="M724,267L708,186L637,205Z" fill="rgb(130,174,108)" stroke="rgb(130,174,108)" stroke-width="1.51"></path><path d="M106,-12L103,60L181,55Z" fill="rgb(227,86,55)" stroke="rgb(227,86,55)" stroke-width="1.51"></path><path d="M26,120L27,184L103,184Z" fill="rgb(237,143,88)" stroke="rgb(237,143,88)" stroke-width="1.51"></path><path d="M119,507L200,505L176,429Z" fill="rgb(145,135,71)" stroke="rgb(145,135,71)" stroke-width="1.51"></path><path d="M110,285L22,352L124,352Z" fill="rgb(175,139,71)" stroke="rgb(175,139,71)" stroke-width="1.51"></path><path d="M103,184L49,259L110,285Z" fill="rgb(230,165,92)" stroke="rgb(230,165,92)" stroke-width="1.51"></path><path d="M27,184L49,259L103,184Z" fill="rgb(241,158,105)" stroke="rgb(241,158,105)" stroke-width="1.51"></path><path d="M176,429L200,505L265,437Z" fill="rgb(143,154,86)" stroke="rgb(143,154,86)" stroke-width="1.51"></path><path d="M102,433L176,429L124,352Z" fill="rgb(146,121,64)" stroke="rgb(146,121,64)" stroke-width="1.51"></path><path d="M330,-33L320,-89L276,-15Z" fill="rgb(216,143,106)" stroke="rgb(216,143,106)" stroke-width="1.51"></path><path d="M398,-91L330,-33L414,-16Z" fill="rgb(192,135,80)" stroke="rgb(192,135,80)" stroke-width="1.51"></path><path d="M471,-11L398,-91L414,-16Z" fill="rgb(174,128,69)" stroke="rgb(174,128,69)" stroke-width="1.51"></path><path d="M479,-112L398,-91L471,-11Z" fill="rgb(165,124,68)" stroke="rgb(165,124,68)" stroke-width="1.51"></path><path d="M22,352L102,433L124,352Z" fill="rgb(148,114,58)" stroke="rgb(148,114,58)" stroke-width="1.51"></path><path d="M625,36L565,-26L577,58Z" fill="rgb(128,91,48)" stroke="rgb(128,91,48)" stroke-width="1.51"></path><path d="M577,58L565,-26L499,57Z" fill="rgb(144,110,56)" stroke="rgb(144,110,56)" stroke-width="1.51"></path><path d="M637,130L625,36L577,58Z" fill="rgb(144,112,58)" stroke="rgb(144,112,58)" stroke-width="1.51"></path><path d="M568,428L636,409L568,334Z" fill="rgb(4,113,60)" stroke="rgb(4,113,60)" stroke-width="1.51"></path><path d="M648,504L636,409L568,428Z" fill="rgb(0,104,55)" stroke="rgb(0,104,55)" stroke-width="1.51"></path><path d="M473,494L551,499L487,417Z" fill="rgb(45,138,73)" stroke="rgb(45,138,73)" stroke-width="1.51"></path><path d="M411,505L551,499L473,494Z" fill="rgb(60,146,76)" stroke="rgb(60,146,76)" stroke-width="1.51"></path><path d="M648,504L551,499L720,515Z" fill="rgb(0,104,55)" stroke="rgb(0,104,55)" stroke-width="1.51"></path><path d="M26,120L103,184L124,118Z" fill="rgb(243,142,83)" stroke="rgb(243,142,83)" stroke-width="1.51"></path><path d="M103,60L26,120L124,118Z" fill="rgb(239,111,65)" stroke="rgb(239,111,65)" stroke-width="1.51"></path><path d="M204,-15L106,-12L181,55Z" fill="rgb(214,96,63)" stroke="rgb(214,96,63)" stroke-width="1.51"></path><path d="M105,-95L106,-12L204,-15Z" fill="rgb(206,78,56)" stroke="rgb(206,78,56)" stroke-width="1.51"></path><path d="M24,67L26,120L103,60Z" fill="rgb(226,81,54)" stroke="rgb(226,81,54)" stroke-width="1.51"></path><path d="M724,267L638,277L645,337Z" fill="rgb(83,154,79)" stroke="rgb(83,154,79)" stroke-width="1.51"></path><path d="M724,267L637,205L638,277Z" fill="rgb(114,167,92)" stroke="rgb(114,167,92)" stroke-width="1.51"></path><path d="M637,130L711,62L625,36Z" fill="rgb(144,112,59)" stroke="rgb(144,112,59)" stroke-width="1.51"></path><path d="M320,-89L264,-111L276,-15Z" fill="rgb(217,140,104)" stroke="rgb(217,140,104)" stroke-width="1.51"></path><path d="M398,-91L264,-111L320,-89Z" fill="rgb(210,141,98)" stroke="rgb(210,141,98)" stroke-width="1.51"></path><path d="M49,259L22,352L110,285Z" fill="rgb(191,140,69)" stroke="rgb(191,140,69)" stroke-width="1.51"></path><path d="M-22,335L22,352L49,259Z" fill="rgb(162,123,67)" stroke="rgb(162,123,67)" stroke-width="1.51"></path><path d="M-22,335L49,259L-55,264Z" fill="rgb(174,128,69)" stroke="rgb(174,128,69)" stroke-width="1.51"></path><path d="M708,186L707,133L637,130Z" fill="rgb(142,158,90)" stroke="rgb(142,158,90)" stroke-width="1.51"></path><path d="M398,-91L479,-112L264,-111Z" fill="rgb(193,135,80)" stroke="rgb(193,135,80)" stroke-width="1.51"></path><path d="M553,-103L479,-112L471,-11Z" fill="rgb(144,112,63)" stroke="rgb(144,112,63)" stroke-width="1.51"></path><path d="M102,433L119,507L176,429Z" fill="rgb(145,120,63)" stroke="rgb(145,120,63)" stroke-width="1.51"></path><path d="M200,505L119,507L271,509Z" fill="rgb(144,148,81)" stroke="rgb(144,148,81)" stroke-width="1.51"></path><path d="M271,509L119,507L325,512Z" fill="rgb(141,163,95)" stroke="rgb(141,163,95)" stroke-width="1.51"></path><path d="M43,488L119,507L102,433Z" fill="rgb(140,103,53)" stroke="rgb(140,103,53)" stroke-width="1.51"></path><path d="M708,186L724,267L707,133Z" fill="rgb(139,176,117)" stroke="rgb(139,176,117)" stroke-width="1.51"></path><path d="M726,361L724,267L645,337Z" fill="rgb(57,144,76)" stroke="rgb(57,144,76)" stroke-width="1.51"></path><path d="M-40,198L49,259L27,184Z" fill="rgb(217,145,101)" stroke="rgb(217,145,101)" stroke-width="1.51"></path><path d="M46,-12L24,67L103,60Z" fill="rgb(213,47,39)" stroke="rgb(213,47,39)" stroke-width="1.51"></path><path d="M106,-12L46,-12L103,60Z" fill="rgb(203,51,45)" stroke="rgb(203,51,45)" stroke-width="1.51"></path><path d="M264,-111L191,-106L204,-15Z" fill="rgb(213,120,79)" stroke="rgb(213,120,79)" stroke-width="1.51"></path><path d="M711,62L648,-21L625,36Z" fill="rgb(127,88,46)" stroke="rgb(127,88,46)" stroke-width="1.51"></path><path d="M625,36L648,-21L565,-26Z" fill="rgb(112,78,45)" stroke="rgb(112,78,45)" stroke-width="1.51"></path><path d="M565,-26L553,-103L471,-11Z" fill="rgb(132,105,59)" stroke="rgb(132,105,59)" stroke-width="1.51"></path><path d="M22,352L32,434L102,433Z" fill="rgb(132,91,46)" stroke="rgb(132,91,46)" stroke-width="1.51"></path><path d="M630,-115L553,-103L565,-26Z" fill="rgb(117,85,49)" stroke="rgb(117,85,49)" stroke-width="1.51"></path><path d="M705,414L726,361L645,337Z" fill="rgb(9,121,64)" stroke="rgb(9,121,64)" stroke-width="1.51"></path><path d="M705,414L645,337L636,409Z" fill="rgb(4,112,59)" stroke="rgb(4,112,59)" stroke-width="1.51"></path><path d="M724,267L711,62L707,133Z" fill="rgb(142,160,92)" stroke="rgb(142,160,92)" stroke-width="1.51"></path><path d="M707,133L711,62L637,130Z" fill="rgb(145,134,71)" stroke="rgb(145,134,71)" stroke-width="1.51"></path><path d="M648,504L705,414L636,409Z" fill="rgb(0,104,55)" stroke="rgb(0,104,55)" stroke-width="1.51"></path><path d="M22,352L-26,439L32,434Z" fill="rgb(116,81,45)" stroke="rgb(116,81,45)" stroke-width="1.51"></path><path d="M-40,198L27,184L-48,138Z" fill="rgb(216,133,93)" stroke="rgb(216,133,93)" stroke-width="1.51"></path><path d="M105,-95L46,-12L106,-12Z" fill="rgb(196,47,45)" stroke="rgb(196,47,45)" stroke-width="1.51"></path><path d="M720,515L551,499L411,505Z" fill="rgb(8,119,63)" stroke="rgb(8,119,63)" stroke-width="1.51"></path><path d="M551,499L648,504L568,428Z" fill="rgb(2,108,57)" stroke="rgb(2,108,57)" stroke-width="1.51"></path><path d="M-48,138L27,184L26,120Z" fill="rgb(213,121,79)" stroke="rgb(213,121,79)" stroke-width="1.51"></path><path d="M-48,138L26,120L-52,59Z" fill="rgb(209,90,61)" stroke="rgb(209,90,61)" stroke-width="1.51"></path><path d="M32,434L43,488L102,433Z" fill="rgb(135,93,46)" stroke="rgb(135,93,46)" stroke-width="1.51"></path><path d="M-24,494L43,488L32,434Z" fill="rgb(118,82,46)" stroke="rgb(118,82,46)" stroke-width="1.51"></path><path d="M191,-106L105,-95L204,-15Z" fill="rgb(209,95,63)" stroke="rgb(209,95,63)" stroke-width="1.51"></path><path d="M-22,335L-26,439L22,352Z" fill="rgb(122,93,53)" stroke="rgb(122,93,53)" stroke-width="1.51"></path><path d="M-40,198L-55,264L49,259Z" fill="rgb(200,138,85)" stroke="rgb(200,138,85)" stroke-width="1.51"></path><path d="M-40,198L-98,186L-55,264Z" fill="rgb(211,142,99)" stroke="rgb(211,142,99)" stroke-width="1.51"></path><path d="M-52,59L26,120L24,67Z" fill="rgb(205,68,53)" stroke="rgb(205,68,53)" stroke-width="1.51"></path><path d="M711,62L701,-33L648,-21Z" fill="rgb(113,79,45)" stroke="rgb(113,79,45)" stroke-width="1.51"></path><path d="M648,-21L630,-115L565,-26Z" fill="rgb(112,78,45)" stroke="rgb(112,78,45)" stroke-width="1.51"></path><path d="M-117,408L-26,439L-22,335Z" fill="rgb(114,82,47)" stroke="rgb(114,82,47)" stroke-width="1.51"></path><path d="M553,-103L630,-115L479,-112Z" fill="rgb(125,97,54)" stroke="rgb(125,97,54)" stroke-width="1.51"></path><path d="M479,-112L630,-115L264,-111Z" fill="rgb(162,122,68)" stroke="rgb(162,122,68)" stroke-width="1.51"></path><path d="M703,-96L630,-115L648,-21Z" fill="rgb(112,78,45)" stroke="rgb(112,78,45)" stroke-width="1.51"></path><path d="M-48,138L-98,186L-40,198Z" fill="rgb(216,134,93)" stroke="rgb(216,134,93)" stroke-width="1.51"></path><path d="M-32,-36L-52,59L24,67Z" fill="rgb(183,23,39)" stroke="rgb(183,23,39)" stroke-width="1.51"></path><path d="M-32,-36L24,67L46,-12Z" fill="rgb(174,13,38)" stroke="rgb(174,13,38)" stroke-width="1.51"></path><path d="M-123,122L-98,186L-48,138Z" fill="rgb(213,121,80)" stroke="rgb(213,121,80)" stroke-width="1.51"></path><path d="M-55,264L-112,345L-22,335Z" fill="rgb(156,120,67)" stroke="rgb(156,120,67)" stroke-width="1.51"></path><path d="M648,504L720,515L705,414Z" fill="rgb(0,104,55)" stroke="rgb(0,104,55)" stroke-width="1.51"></path><path d="M705,414L720,515L726,361Z" fill="rgb(0,104,55)" stroke="rgb(0,104,55)" stroke-width="1.51"></path><path d="M325,512L720,515L411,505Z" fill="rgb(56,144,76)" stroke="rgb(56,144,76)" stroke-width="1.51"></path><path d="M43,488L-24,494L119,507Z" fill="rgb(130,89,46)" stroke="rgb(130,89,46)" stroke-width="1.51"></path><path d="M-26,439L-24,494L32,434Z" fill="rgb(112,78,45)" stroke="rgb(112,78,45)" stroke-width="1.51"></path><path d="M-130,503L-24,494L-26,439Z" fill="rgb(112,78,45)" stroke="rgb(112,78,45)" stroke-width="1.51"></path><path d="M105,-95L36,-109L46,-12Z" fill="rgb(190,30,39)" stroke="rgb(190,30,39)" stroke-width="1.51"></path><path d="M191,-106L36,-109L105,-95Z" fill="rgb(202,61,50)" stroke="rgb(202,61,50)" stroke-width="1.51"></path><path d="M264,-111L36,-109L191,-106Z" fill="rgb(209,93,62)" stroke="rgb(209,93,62)" stroke-width="1.51"></path><path d="M-121,-111L36,-109L264,-111Z" fill="rgb(190,29,39)" stroke="rgb(190,29,39)" stroke-width="1.51"></path><path d="M-27,-86L-32,-36L46,-12Z" fill="rgb(165,0,38)" stroke="rgb(165,0,38)" stroke-width="1.51"></path><path d="M-52,59L-123,122L-48,138Z" fill="rgb(209,91,61)" stroke="rgb(209,91,61)" stroke-width="1.51"></path><path d="M701,-33L703,-96L648,-21Z" fill="rgb(112,78,45)" stroke="rgb(112,78,45)" stroke-width="1.51"></path><path d="M711,62L703,-96L701,-33Z" fill="rgb(112,78,45)" stroke="rgb(112,78,45)" stroke-width="1.51"></path><path d="M724,267L703,-96L711,62Z" fill="rgb(145,113,59)" stroke="rgb(145,113,59)" stroke-width="1.51"></path><path d="M-98,186L-122,265L-55,264Z" fill="rgb(201,138,86)" stroke="rgb(201,138,86)" stroke-width="1.51"></path><path d="M-123,122L-122,265L-98,186Z" fill="rgb(217,140,104)" stroke="rgb(217,140,104)" stroke-width="1.51"></path><path d="M-122,265L-112,345L-55,264Z" fill="rgb(170,126,69)" stroke="rgb(170,126,69)" stroke-width="1.51"></path><path d="M-103,44L-123,122L-52,59Z" fill="rgb(202,62,50)" stroke="rgb(202,62,50)" stroke-width="1.51"></path><path d="M-32,-36L-103,44L-52,59Z" fill="rgb(179,18,39)" stroke="rgb(179,18,39)" stroke-width="1.51"></path><path d="M-32,-36L-125,-31L-103,44Z" fill="rgb(165,0,38)" stroke="rgb(165,0,38)" stroke-width="1.51"></path><path d="M36,-109L-27,-86L46,-12Z" fill="rgb(172,10,39)" stroke="rgb(172,10,39)" stroke-width="1.51"></path><path d="M-122,265L-117,408L-112,345Z" fill="rgb(141,110,62)" stroke="rgb(141,110,62)" stroke-width="1.51"></path><path d="M-112,345L-117,408L-22,335Z" fill="rgb(127,101,56)" stroke="rgb(127,101,56)" stroke-width="1.51"></path><path d="M-103,44L-125,-31L-123,122Z" fill="rgb(192,34,40)" stroke="rgb(192,34,40)" stroke-width="1.51"></path><path d="M-123,122L-130,503L-122,265Z" fill="rgb(167,125,68)" stroke="rgb(167,125,68)" stroke-width="1.51"></path><path d="M-27,-86L-125,-31L-32,-36Z" fill="rgb(165,0,38)" stroke="rgb(165,0,38)" stroke-width="1.51"></path><path d="M-122,265L-130,503L-117,408Z" fill="rgb(115,83,48)" stroke="rgb(115,83,48)" stroke-width="1.51"></path><path d="M-117,408L-130,503L-26,439Z" fill="rgb(112,78,45)" stroke="rgb(112,78,45)" stroke-width="1.51"></path><path d="M-24,494L-130,503L119,507Z" fill="rgb(112,78,45)" stroke="rgb(112,78,45)" stroke-width="1.51"></path><path d="M119,507L-130,503L325,512Z" fill="rgb(143,109,57)" stroke="rgb(143,109,57)" stroke-width="1.51"></path><path d="M-125,-31L-130,503L-123,122Z" fill="rgb(218,143,108)" stroke="rgb(218,143,108)" stroke-width="1.51"></path><path d="M-27,-86L-121,-111L-125,-31Z" fill="rgb(165,0,38)" stroke="rgb(165,0,38)" stroke-width="1.51"></path><path d="M36,-109L-121,-111L-27,-86Z" fill="rgb(165,0,38)" stroke="rgb(165,0,38)" stroke-width="1.51"></path><path d="M630,-115L-121,-111L264,-111Z" fill="rgb(215,133,92)" stroke="rgb(215,133,92)" stroke-width="1.51"></path></svg>