<svg width="600" height="400" xmlns="http://www.w3.org/2000/svg"><path d="M325,189L336,127L251,138Z" fill="rgb(168,168,168)" stroke="rgb(168,168,168)" stroke-width="1.51"></path><path d="M251,138L254,198L325,189Z" fill="rgb(165,165,165)" stroke="rgb(165,165,165)" stroke-width="1.51"></path><path d="M251,138L191,209L254,198Z" fill="rgb(174,174,174)" stroke="rgb(174,174,174)" stroke-width="1.51"></path><path d="M269,48L201,116L251,138Z" fill="rgb(199,199,199)" stroke="rgb(199,199,199)" stroke-width="1.51"></path><path d="M254,198L270,255L325,189Z" fill="rgb(149,149,149)" stroke="rgb(149,149,149)" stroke-width="1.51"></path><path d="M191,209L270,255L254,198Z" fill="rgb(158,158,158)" stroke="rgb(158,158,158)" stroke-width="1.51"></path><path d="M336,127L269,48L251,138Z" fill="rgb(186,186,186)" stroke="rgb(186,186,186)" stroke-width="1.51"></path><path d="M405,198L407,133L336,127Z" fill="rgb(149,149,149)" stroke="rgb(149,149,149)" stroke-width="1.51"></path><path d="M336,127L343,34L269,48Z" fill="rgb(186,186,186)" stroke="rgb(186,186,186)" stroke-width="1.51"></path><path d="M405,198L336,127L325,189Z" fill="rgb(148,148,148)" stroke="rgb(148,148,148)" stroke-width="1.51"></path><path d="M351,272L405,198L325,189Z" fill="rgb(129,129,129)" stroke="rgb(129,129,129)" stroke-width="1.51"></path><path d="M201,116L191,209L251,138Z" fill="rgb(189,189,189)" stroke="rgb(189,189,189)" stroke-width="1.51"></path><path d="M414,68L343,34L336,127Z" fill="rgb(172,172,172)" stroke="rgb(172,172,172)" stroke-width="1.51"></path><path d="M270,255L351,272L325,189Z" fill="rgb(133,133,133)" stroke="rgb(133,133,133)" stroke-width="1.51"></path><path d="M407,133L414,68L336,127Z" fill="rgb(159,159,159)" stroke="rgb(159,159,159)" stroke-width="1.51"></path><path d="M469,52L414,68L500,132Z" fill="rgb(146,146,146)" stroke="rgb(146,146,146)" stroke-width="1.51"></path><path d="M191,209L199,272L270,255Z" fill="rgb(154,154,154)" stroke="rgb(154,154,154)" stroke-width="1.51"></path><path d="M270,255L333,344L351,272Z" fill="rgb(114,114,114)" stroke="rgb(114,114,114)" stroke-width="1.51"></path><path d="M269,48L177,37L201,116Z" fill="rgb(212,212,212)" stroke="rgb(212,212,212)" stroke-width="1.51"></path><path d="M201,116L128,106L191,209Z" fill="rgb(200,200,200)" stroke="rgb(200,200,200)" stroke-width="1.51"></path><path d="M180,-16L177,37L269,48Z" fill="rgb(221,221,221)" stroke="rgb(221,221,221)" stroke-width="1.51"></path><path d="M177,37L128,106L201,116Z" fill="rgb(216,216,216)" stroke="rgb(216,216,216)" stroke-width="1.51"></path><path d="M191,209L103,259L199,272Z" fill="rgb(163,163,163)" stroke="rgb(163,163,163)" stroke-width="1.51"></path><path d="M343,34L336,-24L269,48Z" fill="rgb(194,194,194)" stroke="rgb(194,194,194)" stroke-width="1.51"></path><path d="M403,-31L336,-24L343,34Z" fill="rgb(186,186,186)" stroke="rgb(186,186,186)" stroke-width="1.51"></path><path d="M199,272L243,332L270,255Z" fill="rgb(135,135,135)" stroke="rgb(135,135,135)" stroke-width="1.51"></path><path d="M500,132L414,68L407,133Z" fill="rgb(146,146,146)" stroke="rgb(146,146,146)" stroke-width="1.51"></path><path d="M351,272L426,292L405,198Z" fill="rgb(109,109,109)" stroke="rgb(109,109,109)" stroke-width="1.51"></path><path d="M409,332L426,292L351,272Z" fill="rgb(94,94,94)" stroke="rgb(94,94,94)" stroke-width="1.51"></path><path d="M128,106L111,208L191,209Z" fill="rgb(194,194,194)" stroke="rgb(194,194,194)" stroke-width="1.51"></path><path d="M199,272L185,331L243,332Z" fill="rgb(130,130,130)" stroke="rgb(130,130,130)" stroke-width="1.51"></path><path d="M243,332L333,344L270,255Z" fill="rgb(114,114,114)" stroke="rgb(114,114,114)" stroke-width="1.51"></path><path d="M336,-24L258,-42L269,48Z" fill="rgb(204,204,204)" stroke="rgb(204,204,204)" stroke-width="1.51"></path><path d="M414,68L403,-31L343,34Z" fill="rgb(176,176,176)" stroke="rgb(176,176,176)" stroke-width="1.51"></path><path d="M494,203L407,133L405,198Z" fill="rgb(126,126,126)" stroke="rgb(126,126,126)" stroke-width="1.51"></path><path d="M177,37L94,38L128,106Z" fill="rgb(228,228,228)" stroke="rgb(228,228,228)" stroke-width="1.51"></path><path d="M258,-42L180,-16L269,48Z" fill="rgb(218,218,218)" stroke="rgb(218,218,218)" stroke-width="1.51"></path><path d="M426,292L494,203L405,198Z" fill="rgb(107,107,107)" stroke="rgb(107,107,107)" stroke-width="1.51"></path><path d="M494,203L500,132L407,133Z" fill="rgb(125,125,125)" stroke="rgb(125,125,125)" stroke-width="1.51"></path><path d="M103,259L185,331L199,272Z" fill="rgb(149,149,149)" stroke="rgb(149,149,149)" stroke-width="1.51"></path><path d="M243,332L326,407L333,344Z" fill="rgb(86,86,86)" stroke="rgb(86,86,86)" stroke-width="1.51"></path><path d="M336,-24L346,-86L258,-42Z" fill="rgb(198,198,198)" stroke="rgb(198,198,198)" stroke-width="1.51"></path><path d="M469,52L403,-31L414,68Z" fill="rgb(165,165,165)" stroke="rgb(165,165,165)" stroke-width="1.51"></path><path d="M333,344L409,332L351,272Z" fill="rgb(93,93,93)" stroke="rgb(93,93,93)" stroke-width="1.51"></path><path d="M426,292L489,286L494,203Z" fill="rgb(89,89,89)" stroke="rgb(89,89,89)" stroke-width="1.51"></path><path d="M111,208L103,259L191,209Z" fill="rgb(176,176,176)" stroke="rgb(176,176,176)" stroke-width="1.51"></path><path d="M128,106L23,110L111,208Z" fill="rgb(215,215,215)" stroke="rgb(215,215,215)" stroke-width="1.51"></path><path d="M111,208L43,261L103,259Z" fill="rgb(177,177,177)" stroke="rgb(177,177,177)" stroke-width="1.51"></path><path d="M108,-31L94,38L177,37Z" fill="rgb(237,237,237)" stroke="rgb(237,237,237)" stroke-width="1.51"></path><path d="M494,203L554,139L500,132Z" fill="rgb(108,108,108)" stroke="rgb(108,108,108)" stroke-width="1.51"></path><path d="M480,358L489,286L426,292Z" fill="rgb(72,72,72)" stroke="rgb(72,72,72)" stroke-width="1.51"></path><path d="M403,-31L346,-86L336,-24Z" fill="rgb(186,186,186)" stroke="rgb(186,186,186)" stroke-width="1.51"></path><path d="M258,-42L204,-88L180,-16Z" fill="rgb(224,224,224)" stroke="rgb(224,224,224)" stroke-width="1.51"></path><path d="M346,-86L260,-100L258,-42Z" fill="rgb(204,204,204)" stroke="rgb(204,204,204)" stroke-width="1.51"></path><path d="M180,-16L108,-31L177,37Z" fill="rgb(235,235,235)" stroke="rgb(235,235,235)" stroke-width="1.51"></path><path d="M469,52L480,-25L403,-31Z" fill="rgb(164,164,164)" stroke="rgb(164,164,164)" stroke-width="1.51"></path><path d="M403,-31L410,-98L346,-86Z" fill="rgb(180,180,180)" stroke="rgb(180,180,180)" stroke-width="1.51"></path><path d="M549,68L480,-25L469,52Z" fill="rgb(142,142,142)" stroke="rgb(142,142,142)" stroke-width="1.51"></path><path d="M409,332L480,358L426,292Z" fill="rgb(72,72,72)" stroke="rgb(72,72,72)" stroke-width="1.51"></path><path d="M333,344L326,407L409,332Z" fill="rgb(74,74,74)" stroke="rgb(74,74,74)" stroke-width="1.51"></path><path d="M263,444L326,407L243,332Z" fill="rgb(80,80,80)" stroke="rgb(80,80,80)" stroke-width="1.51"></path><path d="M260,-100L204,-88L258,-42Z" fill="rgb(217,217,217)" stroke="rgb(217,217,217)" stroke-width="1.51"></path><path d="M500,132L549,68L469,52Z" fill="rgb(130,130,130)" stroke="rgb(130,130,130)" stroke-width="1.51"></path><path d="M553,206L554,139L494,203Z" fill="rgb(94,94,94)" stroke="rgb(94,94,94)" stroke-width="1.51"></path><path d="M116,-106L108,-31L180,-16Z" fill="rgb(238,238,238)" stroke="rgb(238,238,238)" stroke-width="1.51"></path><path d="M489,286L553,206L494,203Z" fill="rgb(84,84,84)" stroke="rgb(84,84,84)" stroke-width="1.51"></path><path d="M185,331L186,406L243,332Z" fill="rgb(109,109,109)" stroke="rgb(109,109,109)" stroke-width="1.51"></path><path d="M103,259L110,342L185,331Z" fill="rgb(143,143,143)" stroke="rgb(143,143,143)" stroke-width="1.51"></path><path d="M554,139L549,68L500,132Z" fill="rgb(115,115,115)" stroke="rgb(115,115,115)" stroke-width="1.51"></path><path d="M346,-86L410,-98L260,-100Z" fill="rgb(192,192,192)" stroke="rgb(192,192,192)" stroke-width="1.51"></path><path d="M480,-25L410,-98L403,-31Z" fill="rgb(169,169,169)" stroke="rgb(169,169,169)" stroke-width="1.51"></path><path d="M94,38L23,110L128,106Z" fill="rgb(231,231,231)" stroke="rgb(231,231,231)" stroke-width="1.51"></path><path d="M103,259L35,334L110,342Z" fill="rgb(150,150,150)" stroke="rgb(150,150,150)" stroke-width="1.51"></path><path d="M30,-14L44,42L94,38Z" fill="rgb(246,246,246)" stroke="rgb(246,246,246)" stroke-width="1.51"></path><path d="M23,203L43,261L111,208Z" fill="rgb(186,186,186)" stroke="rgb(186,186,186)" stroke-width="1.51"></path><path d="M44,42L23,110L94,38Z" fill="rgb(239,239,239)" stroke="rgb(239,239,239)" stroke-width="1.51"></path><path d="M489,286L573,261L553,206Z" fill="rgb(71,71,71)" stroke="rgb(71,71,71)" stroke-width="1.51"></path><path d="M416,442L480,358L409,332Z" fill="rgb(53,53,53)" stroke="rgb(53,53,53)" stroke-width="1.51"></path><path d="M110,342L186,406L185,331Z" fill="rgb(115,115,115)" stroke="rgb(115,115,115)" stroke-width="1.51"></path><path d="M23,110L23,203L111,208Z" fill="rgb(207,207,207)" stroke="rgb(207,207,207)" stroke-width="1.51"></path><path d="M186,406L263,444L243,332Z" fill="rgb(91,91,91)" stroke="rgb(91,91,91)" stroke-width="1.51"></path><path d="M326,407L416,442L409,332Z" fill="rgb(58,58,58)" stroke="rgb(58,58,58)" stroke-width="1.51"></path><path d="M577,349L573,261L489,286Z" fill="rgb(54,54,54)" stroke="rgb(54,54,54)" stroke-width="1.51"></path><path d="M553,206L633,207L554,139Z" fill="rgb(83,83,83)" stroke="rgb(83,83,83)" stroke-width="1.51"></path><path d="M645,63L575,-31L549,68Z" fill="rgb(117,117,117)" stroke="rgb(117,117,117)" stroke-width="1.51"></path><path d="M480,-25L496,-88L410,-98Z" fill="rgb(160,160,160)" stroke="rgb(160,160,160)" stroke-width="1.51"></path><path d="M545,-94L496,-88L480,-25Z" fill="rgb(144,144,144)" stroke="rgb(144,144,144)" stroke-width="1.51"></path><path d="M108,-31L30,-14L94,38Z" fill="rgb(247,247,247)" stroke="rgb(247,247,247)" stroke-width="1.51"></path><path d="M-30,60L-21,106L23,110Z" fill="rgb(238,238,238)" stroke="rgb(238,238,238)" stroke-width="1.51"></path><path d="M44,-94L30,-14L108,-31Z" fill="rgb(249,249,249)" stroke="rgb(249,249,249)" stroke-width="1.51"></path><path d="M325,483L416,442L326,407Z" fill="rgb(62,62,62)" stroke="rgb(62,62,62)" stroke-width="1.51"></path><path d="M480,358L577,349L489,286Z" fill="rgb(47,47,47)" stroke="rgb(47,47,47)" stroke-width="1.51"></path><path d="M204,-88L116,-106L180,-16Z" fill="rgb(233,233,233)" stroke="rgb(233,233,233)" stroke-width="1.51"></path><path d="M260,-100L116,-106L204,-88Z" fill="rgb(228,228,228)" stroke="rgb(228,228,228)" stroke-width="1.51"></path><path d="M724,-120L116,-106L260,-100Z" fill="rgb(185,185,185)" stroke="rgb(185,185,185)" stroke-width="1.51"></path><path d="M186,406L188,485L263,444Z" fill="rgb(92,92,92)" stroke="rgb(92,92,92)" stroke-width="1.51"></path><path d="M110,342L124,417L186,406Z" fill="rgb(108,108,108)" stroke="rgb(108,108,108)" stroke-width="1.51"></path><path d="M34,440L124,417L110,342Z" fill="rgb(111,111,111)" stroke="rgb(111,111,111)" stroke-width="1.51"></path><path d="M-49,271L35,334L43,261Z" fill="rgb(167,167,167)" stroke="rgb(167,167,167)" stroke-width="1.51"></path><path d="M43,261L35,334L103,259Z" fill="rgb(164,164,164)" stroke="rgb(164,164,164)" stroke-width="1.51"></path><path d="M23,110L-21,106L23,203Z" fill="rgb(224,224,224)" stroke="rgb(224,224,224)" stroke-width="1.51"></path><path d="M23,203L-23,217L43,261Z" fill="rgb(190,190,190)" stroke="rgb(190,190,190)" stroke-width="1.51"></path><path d="M-30,60L23,110L44,42Z" fill="rgb(241,241,241)" stroke="rgb(241,241,241)" stroke-width="1.51"></path><path d="M-21,106L-23,217L23,203Z" fill="rgb(211,211,211)" stroke="rgb(211,211,211)" stroke-width="1.51"></path><path d="M263,444L325,483L326,407Z" fill="rgb(72,72,72)" stroke="rgb(72,72,72)" stroke-width="1.51"></path><path d="M255,510L325,483L263,444Z" fill="rgb(77,77,77)" stroke="rgb(77,77,77)" stroke-width="1.51"></path><path d="M549,68L575,-31L480,-25Z" fill="rgb(135,135,135)" stroke="rgb(135,135,135)" stroke-width="1.51"></path><path d="M645,63L549,68L554,139Z" fill="rgb(109,109,109)" stroke="rgb(109,109,109)" stroke-width="1.51"></path><path d="M416,442L480,432L480,358Z" fill="rgb(41,41,41)" stroke="rgb(41,41,41)" stroke-width="1.51"></path><path d="M428,499L480,432L416,442Z" fill="rgb(45,45,45)" stroke="rgb(45,45,45)" stroke-width="1.51"></path><path d="M-126,186L-49,271L-23,217Z" fill="rgb(192,192,192)" stroke="rgb(192,192,192)" stroke-width="1.51"></path><path d="M30,-14L-30,60L44,42Z" fill="rgb(249,249,249)" stroke="rgb(249,249,249)" stroke-width="1.51"></path><path d="M573,261L633,207L553,206Z" fill="rgb(69,69,69)" stroke="rgb(69,69,69)" stroke-width="1.51"></path><path d="M618,281L633,207L573,261Z" fill="rgb(58,58,58)" stroke="rgb(58,58,58)" stroke-width="1.51"></path><path d="M564,443L577,349L480,358Z" fill="rgb(24,24,24)" stroke="rgb(24,24,24)" stroke-width="1.51"></path><path d="M577,349L618,281L573,261Z" fill="rgb(46,46,46)" stroke="rgb(46,46,46)" stroke-width="1.51"></path><path d="M575,-31L545,-94L480,-25Z" fill="rgb(136,136,136)" stroke="rgb(136,136,136)" stroke-width="1.51"></path><path d="M496,-88L545,-94L410,-98Z" fill="rgb(152,152,152)" stroke="rgb(152,152,152)" stroke-width="1.51"></path><path d="M103,518L188,485L124,417Z" fill="rgb(104,104,104)" stroke="rgb(104,104,104)" stroke-width="1.51"></path><path d="M124,417L188,485L186,406Z" fill="rgb(100,100,100)" stroke="rgb(100,100,100)" stroke-width="1.51"></path><path d="M30,-14L-31,-26L-30,60Z" fill="rgb(254,254,254)" stroke="rgb(254,254,254)" stroke-width="1.51"></path><path d="M116,-106L44,-94L108,-31Z" fill="rgb(245,245,245)" stroke="rgb(245,245,245)" stroke-width="1.51"></path><path d="M633,207L652,133L554,139Z" fill="rgb(87,87,87)" stroke="rgb(87,87,87)" stroke-width="1.51"></path><path d="M716,191L652,133L633,207Z" fill="rgb(81,81,81)" stroke="rgb(81,81,81)" stroke-width="1.51"></path><path d="M575,-31L622,-107L545,-94Z" fill="rgb(124,124,124)" stroke="rgb(124,124,124)" stroke-width="1.51"></path><path d="M652,133L645,63L554,139Z" fill="rgb(99,99,99)" stroke="rgb(99,99,99)" stroke-width="1.51"></path><path d="M188,485L255,510L263,444Z" fill="rgb(88,88,88)" stroke="rgb(88,88,88)" stroke-width="1.51"></path><path d="M325,483L428,499L416,442Z" fill="rgb(54,54,54)" stroke="rgb(54,54,54)" stroke-width="1.51"></path><path d="M-23,217L-49,271L43,261Z" fill="rgb(182,182,182)" stroke="rgb(182,182,182)" stroke-width="1.51"></path><path d="M35,334L34,440L110,342Z" fill="rgb(124,124,124)" stroke="rgb(124,124,124)" stroke-width="1.51"></path><path d="M-107,142L-23,217L-21,106Z" fill="rgb(219,219,219)" stroke="rgb(219,219,219)" stroke-width="1.51"></path><path d="M625,416L624,334L577,349Z" fill="rgb(17,17,17)" stroke="rgb(17,17,17)" stroke-width="1.51"></path><path d="M255,510L428,499L325,483Z" fill="rgb(66,66,66)" stroke="rgb(66,66,66)" stroke-width="1.51"></path><path d="M-102,49L-107,142L-21,106Z" fill="rgb(236,236,236)" stroke="rgb(236,236,236)" stroke-width="1.51"></path><path d="M44,-94L-31,-26L30,-14Z" fill="rgb(253,253,253)" stroke="rgb(253,253,253)" stroke-width="1.51"></path><path d="M711,267L716,191L633,207Z" fill="rgb(66,66,66)" stroke="rgb(66,66,66)" stroke-width="1.51"></path><path d="M577,349L624,334L618,281Z" fill="rgb(34,34,34)" stroke="rgb(34,34,34)" stroke-width="1.51"></path><path d="M564,443L480,358L480,432Z" fill="rgb(27,27,27)" stroke="rgb(27,27,27)" stroke-width="1.51"></path><path d="M645,63L633,-31L575,-31Z" fill="rgb(119,119,119)" stroke="rgb(119,119,119)" stroke-width="1.51"></path><path d="M-49,418L34,440L35,334Z" fill="rgb(120,120,120)" stroke="rgb(120,120,120)" stroke-width="1.51"></path><path d="M188,485L103,518L255,510Z" fill="rgb(97,97,97)" stroke="rgb(97,97,97)" stroke-width="1.51"></path><path d="M428,499L479,499L480,432Z" fill="rgb(39,39,39)" stroke="rgb(39,39,39)" stroke-width="1.51"></path><path d="M548,514L479,499L428,499Z" fill="rgb(33,33,33)" stroke="rgb(33,33,33)" stroke-width="1.51"></path><path d="M479,499L564,443L480,432Z" fill="rgb(27,27,27)" stroke="rgb(27,27,27)" stroke-width="1.51"></path><path d="M-49,271L-50,346L35,334Z" fill="rgb(155,155,155)" stroke="rgb(155,155,155)" stroke-width="1.51"></path><path d="M-102,49L-21,106L-30,60Z" fill="rgb(242,242,242)" stroke="rgb(242,242,242)" stroke-width="1.51"></path><path d="M-49,271L-123,286L-50,346Z" fill="rgb(164,164,164)" stroke="rgb(164,164,164)" stroke-width="1.51"></path><path d="M-31,-26L-102,49L-30,60Z" fill="rgb(251,251,251)" stroke="rgb(251,251,251)" stroke-width="1.51"></path><path d="M34,440L103,518L124,417Z" fill="rgb(111,111,111)" stroke="rgb(111,111,111)" stroke-width="1.51"></path><path d="M255,510L548,514L428,499Z" fill="rgb(50,50,50)" stroke="rgb(50,50,50)" stroke-width="1.51"></path><path d="M20,483L103,518L34,440Z" fill="rgb(115,115,115)" stroke="rgb(115,115,115)" stroke-width="1.51"></path><path d="M633,-31L622,-107L575,-31Z" fill="rgb(119,119,119)" stroke="rgb(119,119,119)" stroke-width="1.51"></path><path d="M545,-94L622,-107L410,-98Z" fill="rgb(138,138,138)" stroke="rgb(138,138,138)" stroke-width="1.51"></path><path d="M410,-98L724,-120L260,-100Z" fill="rgb(159,159,159)" stroke="rgb(159,159,159)" stroke-width="1.51"></path><path d="M44,-94L-43,-96L-31,-26Z" fill="rgb(255,255,255)" stroke="rgb(255,255,255)" stroke-width="1.51"></path><path d="M-31,-26L-128,-28L-102,49Z" fill="rgb(255,255,255)" stroke="rgb(255,255,255)" stroke-width="1.51"></path><path d="M-97,-108L-43,-96L44,-94Z" fill="rgb(255,255,255)" stroke="rgb(255,255,255)" stroke-width="1.51"></path><path d="M652,133L722,114L645,63Z" fill="rgb(102,102,102)" stroke="rgb(102,102,102)" stroke-width="1.51"></path><path d="M645,63L704,-37L633,-31Z" fill="rgb(119,119,119)" stroke="rgb(119,119,119)" stroke-width="1.51"></path><path d="M633,-31L704,-37L622,-107Z" fill="rgb(119,119,119)" stroke="rgb(119,119,119)" stroke-width="1.51"></path><path d="M711,267L633,207L618,281Z" fill="rgb(57,57,57)" stroke="rgb(57,57,57)" stroke-width="1.51"></path><path d="M711,267L618,281L702,335Z" fill="rgb(45,45,45)" stroke="rgb(45,45,45)" stroke-width="1.51"></path><path d="M564,443L625,416L577,349Z" fill="rgb(4,4,4)" stroke="rgb(4,4,4)" stroke-width="1.51"></path><path d="M656,513L625,416L564,443Z" fill="rgb(0,0,0)" stroke="rgb(0,0,0)" stroke-width="1.51"></path><path d="M-102,49L-126,186L-107,142Z" fill="rgb(229,229,229)" stroke="rgb(229,229,229)" stroke-width="1.51"></path><path d="M-107,142L-126,186L-23,217Z" fill="rgb(209,209,209)" stroke="rgb(209,209,209)" stroke-width="1.51"></path><path d="M716,191L722,114L652,133Z" fill="rgb(91,91,91)" stroke="rgb(91,91,91)" stroke-width="1.51"></path><path d="M702,335L618,281L624,334Z" fill="rgb(36,36,36)" stroke="rgb(36,36,36)" stroke-width="1.51"></path><path d="M716,191L711,267L722,114Z" fill="rgb(76,76,76)" stroke="rgb(76,76,76)" stroke-width="1.51"></path><path d="M-49,418L20,483L34,440Z" fill="rgb(119,119,119)" stroke="rgb(119,119,119)" stroke-width="1.51"></path><path d="M722,114L716,52L645,63Z" fill="rgb(107,107,107)" stroke="rgb(107,107,107)" stroke-width="1.51"></path><path d="M-94,360L-49,418L-50,346Z" fill="rgb(128,128,128)" stroke="rgb(128,128,128)" stroke-width="1.51"></path><path d="M-50,346L-49,418L35,334Z" fill="rgb(131,131,131)" stroke="rgb(131,131,131)" stroke-width="1.51"></path><path d="M-126,186L-123,286L-49,271Z" fill="rgb(184,184,184)" stroke="rgb(184,184,184)" stroke-width="1.51"></path><path d="M479,499L548,514L564,443Z" fill="rgb(21,21,21)" stroke="rgb(21,21,21)" stroke-width="1.51"></path><path d="M103,518L548,514L255,510Z" fill="rgb(73,73,73)" stroke="rgb(73,73,73)" stroke-width="1.51"></path><path d="M-123,286L-94,360L-50,346Z" fill="rgb(148,148,148)" stroke="rgb(148,148,148)" stroke-width="1.51"></path><path d="M625,416L702,335L624,334Z" fill="rgb(18,18,18)" stroke="rgb(18,18,18)" stroke-width="1.51"></path><path d="M694,436L702,335L625,416Z" fill="rgb(2,3,2)" stroke="rgb(2,3,2)" stroke-width="1.51"></path><path d="M716,52L704,-37L645,63Z" fill="rgb(115,115,115)" stroke="rgb(115,115,115)" stroke-width="1.51"></path><path d="M-102,49L-128,-28L-126,186Z" fill="rgb(243,243,243)" stroke="rgb(243,243,243)" stroke-width="1.51"></path><path d="M-43,-96L-128,-28L-31,-26Z" fill="rgb(255,255,255)" stroke="rgb(255,255,255)" stroke-width="1.51"></path><path d="M-43,-96L-97,-108L-128,-28Z" fill="rgb(255,255,255)" stroke="rgb(255,255,255)" stroke-width="1.51"></path><path d="M116,-106L-97,-108L44,-94Z" fill="rgb(253,253,253)" stroke="rgb(253,253,253)" stroke-width="1.51"></path><path d="M724,-120L-97,-108L116,-106Z" fill="rgb(215,215,215)" stroke="rgb(215,215,215)" stroke-width="1.51"></path><path d="M-101,497L-21,504L-49,418Z" fill="rgb(119,119,119)" stroke="rgb(119,119,119)" stroke-width="1.51"></path><path d="M-49,418L-21,504L20,483Z" fill="rgb(119,119,119)" stroke="rgb(119,119,119)" stroke-width="1.51"></path><path d="M20,483L-21,504L103,518Z" fill="rgb(116,116,116)" stroke="rgb(116,116,116)" stroke-width="1.51"></path><path d="M702,335L700,496L711,267Z" fill="rgb(17,17,17)" stroke="rgb(17,17,17)" stroke-width="1.51"></path><path d="M656,513L694,436L625,416Z" fill="rgb(0,0,0)" stroke="rgb(0,0,0)" stroke-width="1.51"></path><path d="M622,-107L724,-120L410,-98Z" fill="rgb(122,122,122)" stroke="rgb(122,122,122)" stroke-width="1.51"></path><path d="M704,-37L724,-120L622,-107Z" fill="rgb(119,119,119)" stroke="rgb(119,119,119)" stroke-width="1.51"></path><path d="M716,52L724,-120L704,-37Z" fill="rgb(119,119,119)" stroke="rgb(119,119,119)" stroke-width="1.51"></path><path d="M722,114L724,-120L716,52Z" fill="rgb(117,117,117)" stroke="rgb(117,117,117)" stroke-width="1.51"></path><path d="M-128,-28L-131,430L-126,186Z" fill="rgb(203,203,203)" stroke="rgb(203,203,203)" stroke-width="1.51"></path><path d="M-126,186L-131,430L-123,286Z" fill="rgb(164,164,164)" stroke="rgb(164,164,164)" stroke-width="1.51"></path><path d="M-123,286L-131,430L-94,360Z" fill="rgb(135,135,135)" stroke="rgb(135,135,135)" stroke-width="1.51"></path><path d="M-94,360L-131,430L-49,418Z" fill="rgb(119,119,119)" stroke="rgb(119,119,119)" stroke-width="1.51"></path><path d="M548,514L656,513L564,443Z" fill="rgb(4,4,4)" stroke="rgb(4,4,4)" stroke-width="1.51"></path><path d="M-131,430L-101,497L-49,418Z" fill="rgb(119,119,119)" stroke="rgb(119,119,119)" stroke-width="1.51"></path><path d="M-21,504L-101,497L103,518Z" fill="rgb(119,119,119)" stroke="rgb(119,119,119)" stroke-width="1.51"></path><path d="M656,513L700,496L694,436Z" fill="rgb(0,0,0)" stroke="rgb(0,0,0)" stroke-width="1.51"></path><path d="M694,436L700,496L702,335Z" fill="rgb(0,0,0)" stroke="rgb(0,0,0)" stroke-width="1.51"></path><path d="M711,267L700,496L722,114Z" fill="rgb(45,45,45)" stroke="rgb(45,45,45)" stroke-width="1.51"></path></svg>