<svg width="600" height="400" xmlns="http://www.w3.org/2000/svg"><path d="M276,175L326,94L273,111Z" fill="rgb(250,145,174)" stroke="rgb(250,145,174)" stroke-width="1.51"></path><path d="M276,175L366,189L326,94Z" fill="rgb(245,125,169)" stroke="rgb(245,125,169)" stroke-width="1.51"></path><path d="M366,189L390,112L326,94Z" fill="rgb(240,124,169)" stroke="rgb(240,124,169)" stroke-width="1.51"></path><path d="M366,189L419,170L390,112Z" fill="rgb(231,104,162)" stroke="rgb(231,104,162)" stroke-width="1.51"></path><path d="M326,94L309,27L273,111Z" fill="rgb(252,158,183)" stroke="rgb(252,158,183)" stroke-width="1.51"></path><path d="M408,71L309,27L326,94Z" fill="rgb(245,150,184)" stroke="rgb(245,150,184)" stroke-width="1.51"></path><path d="M276,175L329,258L366,189Z" fill="rgb(241,93,159)" stroke="rgb(241,93,159)" stroke-width="1.51"></path><path d="M366,189L415,283L419,170Z" fill="rgb(223,67,151)" stroke="rgb(223,67,151)" stroke-width="1.51"></path><path d="M390,112L408,71L326,94Z" fill="rgb(239,135,174)" stroke="rgb(239,135,174)" stroke-width="1.51"></path><path d="M508,130L408,71L390,112Z" fill="rgb(220,119,161)" stroke="rgb(220,119,161)" stroke-width="1.51"></path><path d="M273,111L182,116L276,175Z" fill="rgb(251,159,180)" stroke="rgb(251,159,180)" stroke-width="1.51"></path><path d="M309,27L237,42L273,111Z" fill="rgb(253,174,191)" stroke="rgb(253,174,191)" stroke-width="1.51"></path><path d="M237,42L182,116L273,111Z" fill="rgb(252,179,188)" stroke="rgb(252,179,188)" stroke-width="1.51"></path><path d="M276,175L260,283L329,258Z" fill="rgb(238,91,159)" stroke="rgb(238,91,159)" stroke-width="1.51"></path><path d="M182,116L192,205L276,175Z" fill="rgb(250,153,178)" stroke="rgb(250,153,178)" stroke-width="1.51"></path><path d="M237,42L201,43L182,116Z" fill="rgb(253,192,197)" stroke="rgb(253,192,197)" stroke-width="1.51"></path><path d="M207,-41L201,43L237,42Z" fill="rgb(254,202,209)" stroke="rgb(254,202,209)" stroke-width="1.51"></path><path d="M192,205L260,283L276,175Z" fill="rgb(243,117,167)" stroke="rgb(243,117,167)" stroke-width="1.51"></path><path d="M309,27L282,-35L237,42Z" fill="rgb(255,184,202)" stroke="rgb(255,184,202)" stroke-width="1.51"></path><path d="M408,71L319,-23L309,27Z" fill="rgb(247,161,193)" stroke="rgb(247,161,193)" stroke-width="1.51"></path><path d="M329,258L415,283L366,189Z" fill="rgb(224,58,152)" stroke="rgb(224,58,152)" stroke-width="1.51"></path><path d="M345,339L415,283L329,258Z" fill="rgb(202,41,141)" stroke="rgb(202,41,141)" stroke-width="1.51"></path><path d="M319,-23L282,-35L309,27Z" fill="rgb(255,178,201)" stroke="rgb(255,178,201)" stroke-width="1.51"></path><path d="M192,205L175,270L260,283Z" fill="rgb(236,115,167)" stroke="rgb(236,115,167)" stroke-width="1.51"></path><path d="M117,218L175,270L192,205Z" fill="rgb(243,137,173)" stroke="rgb(243,137,173)" stroke-width="1.51"></path><path d="M260,283L262,329L329,258Z" fill="rgb(216,75,148)" stroke="rgb(216,75,148)" stroke-width="1.51"></path><path d="M212,345L262,329L260,283Z" fill="rgb(202,86,150)" stroke="rgb(202,86,150)" stroke-width="1.51"></path><path d="M419,170L508,130L390,112Z" fill="rgb(217,104,157)" stroke="rgb(217,104,157)" stroke-width="1.51"></path><path d="M408,71L398,-56L319,-23Z" fill="rgb(244,159,196)" stroke="rgb(244,159,196)" stroke-width="1.51"></path><path d="M513,228L508,130L419,170Z" fill="rgb(201,78,147)" stroke="rgb(201,78,147)" stroke-width="1.51"></path><path d="M262,329L345,339L329,258Z" fill="rgb(204,59,142)" stroke="rgb(204,59,142)" stroke-width="1.51"></path><path d="M182,116L117,218L192,205Z" fill="rgb(251,160,179)" stroke="rgb(251,160,179)" stroke-width="1.51"></path><path d="M95,117L117,218L182,116Z" fill="rgb(251,182,190)" stroke="rgb(251,182,190)" stroke-width="1.51"></path><path d="M201,43L120,49L182,116Z" fill="rgb(253,201,199)" stroke="rgb(253,201,199)" stroke-width="1.51"></path><path d="M282,-35L207,-41L237,42Z" fill="rgb(255,198,209)" stroke="rgb(255,198,209)" stroke-width="1.51"></path><path d="M207,-41L120,49L201,43Z" fill="rgb(254,212,211)" stroke="rgb(254,212,211)" stroke-width="1.51"></path><path d="M508,130L515,77L408,71Z" fill="rgb(205,117,160)" stroke="rgb(205,117,160)" stroke-width="1.51"></path><path d="M466,321L482,271L415,283Z" fill="rgb(176,7,128)" stroke="rgb(176,7,128)" stroke-width="1.51"></path><path d="M415,283L482,271L419,170Z" fill="rgb(203,42,141)" stroke="rgb(203,42,141)" stroke-width="1.51"></path><path d="M486,-25L398,-56L408,71Z" fill="rgb(226,147,186)" stroke="rgb(226,147,186)" stroke-width="1.51"></path><path d="M319,-23L268,-85L282,-35Z" fill="rgb(255,182,203)" stroke="rgb(255,182,203)" stroke-width="1.51"></path><path d="M282,-35L268,-85L207,-41Z" fill="rgb(255,195,208)" stroke="rgb(255,195,208)" stroke-width="1.51"></path><path d="M120,49L95,117L182,116Z" fill="rgb(252,202,197)" stroke="rgb(252,202,197)" stroke-width="1.51"></path><path d="M398,-56L364,-71L319,-23Z" fill="rgb(246,163,197)" stroke="rgb(246,163,197)" stroke-width="1.51"></path><path d="M482,271L513,228L419,170Z" fill="rgb(197,49,140)" stroke="rgb(197,49,140)" stroke-width="1.51"></path><path d="M508,130L549,141L515,77Z" fill="rgb(188,103,154)" stroke="rgb(188,103,154)" stroke-width="1.51"></path><path d="M345,339L419,337L415,283Z" fill="rgb(182,25,134)" stroke="rgb(182,25,134)" stroke-width="1.51"></path><path d="M175,270L212,345L260,283Z" fill="rgb(213,99,154)" stroke="rgb(213,99,154)" stroke-width="1.51"></path><path d="M262,329L244,420L345,339Z" fill="rgb(178,64,141)" stroke="rgb(178,64,141)" stroke-width="1.51"></path><path d="M345,339L406,433L419,337Z" fill="rgb(157,22,130)" stroke="rgb(157,22,130)" stroke-width="1.51"></path><path d="M101,292L212,345L175,270Z" fill="rgb(214,114,158)" stroke="rgb(214,114,158)" stroke-width="1.51"></path><path d="M364,-71L268,-85L319,-23Z" fill="rgb(253,175,200)" stroke="rgb(253,175,200)" stroke-width="1.51"></path><path d="M482,271L564,268L513,228Z" fill="rgb(171,26,134)" stroke="rgb(171,26,134)" stroke-width="1.51"></path><path d="M419,337L466,321L415,283Z" fill="rgb(172,10,128)" stroke="rgb(172,10,128)" stroke-width="1.51"></path><path d="M557,183L549,141L508,130Z" fill="rgb(182,87,149)" stroke="rgb(182,87,149)" stroke-width="1.51"></path><path d="M515,77L486,-25L408,71Z" fill="rgb(210,131,174)" stroke="rgb(210,131,174)" stroke-width="1.51"></path><path d="M398,-56L439,-103L364,-71Z" fill="rgb(236,154,192)" stroke="rgb(236,154,192)" stroke-width="1.51"></path><path d="M567,23L486,-25L515,77Z" fill="rgb(191,129,175)" stroke="rgb(191,129,175)" stroke-width="1.51"></path><path d="M564,268L557,183L513,228Z" fill="rgb(170,43,136)" stroke="rgb(170,43,136)" stroke-width="1.51"></path><path d="M513,228L557,183L508,130Z" fill="rgb(184,71,144)" stroke="rgb(184,71,144)" stroke-width="1.51"></path><path d="M64,295L101,292L117,218Z" fill="rgb(232,138,178)" stroke="rgb(232,138,178)" stroke-width="1.51"></path><path d="M117,218L101,292L175,270Z" fill="rgb(234,133,173)" stroke="rgb(234,133,173)" stroke-width="1.51"></path><path d="M207,-41L100,-34L120,49Z" fill="rgb(254,223,219)" stroke="rgb(254,223,219)" stroke-width="1.51"></path><path d="M120,49L22,97L95,117Z" fill="rgb(253,214,209)" stroke="rgb(253,214,209)" stroke-width="1.51"></path><path d="M123,-85L100,-34L207,-41Z" fill="rgb(254,223,219)" stroke="rgb(254,223,219)" stroke-width="1.51"></path><path d="M364,-71L439,-103L268,-85Z" fill="rgb(247,164,197)" stroke="rgb(247,164,197)" stroke-width="1.51"></path><path d="M486,-25L439,-103L398,-56Z" fill="rgb(223,145,185)" stroke="rgb(223,145,185)" stroke-width="1.51"></path><path d="M95,117L44,211L117,218Z" fill="rgb(253,174,192)" stroke="rgb(253,174,192)" stroke-width="1.51"></path><path d="M22,97L44,211L95,117Z" fill="rgb(254,198,205)" stroke="rgb(254,198,205)" stroke-width="1.51"></path><path d="M486,-25L497,-107L439,-103Z" fill="rgb(210,140,182)" stroke="rgb(210,140,182)" stroke-width="1.51"></path><path d="M606,119L567,23L515,77Z" fill="rgb(176,112,160)" stroke="rgb(176,112,160)" stroke-width="1.51"></path><path d="M606,119L515,77L549,141Z" fill="rgb(177,101,152)" stroke="rgb(177,101,152)" stroke-width="1.51"></path><path d="M538,350L564,268L482,271Z" fill="rgb(149,3,123)" stroke="rgb(149,3,123)" stroke-width="1.51"></path><path d="M557,183L606,119L549,141Z" fill="rgb(171,86,147)" stroke="rgb(171,86,147)" stroke-width="1.51"></path><path d="M439,-103L165,-103L268,-85Z" fill="rgb(255,182,202)" stroke="rgb(255,182,202)" stroke-width="1.51"></path><path d="M268,-85L165,-103L207,-41Z" fill="rgb(254,206,213)" stroke="rgb(254,206,213)" stroke-width="1.51"></path><path d="M171,427L244,420L212,345Z" fill="rgb(163,86,145)" stroke="rgb(163,86,145)" stroke-width="1.51"></path><path d="M212,345L244,420L262,329Z" fill="rgb(178,81,146)" stroke="rgb(178,81,146)" stroke-width="1.51"></path><path d="M419,337L465,427L466,321Z" fill="rgb(143,0,121)" stroke="rgb(143,0,121)" stroke-width="1.51"></path><path d="M101,292L99,361L212,345Z" fill="rgb(197,115,159)" stroke="rgb(197,115,159)" stroke-width="1.51"></path><path d="M44,211L64,295L117,218Z" fill="rgb(243,151,187)" stroke="rgb(243,151,187)" stroke-width="1.51"></path><path d="M7,52L22,97L120,49Z" fill="rgb(254,223,220)" stroke="rgb(254,223,220)" stroke-width="1.51"></path><path d="M100,-34L7,52L120,49Z" fill="rgb(254,230,227)" stroke="rgb(254,230,227)" stroke-width="1.51"></path><path d="M165,-103L123,-85L207,-41Z" fill="rgb(255,219,216)" stroke="rgb(255,219,216)" stroke-width="1.51"></path><path d="M649,200L606,119L557,183Z" fill="rgb(161,72,140)" stroke="rgb(161,72,140)" stroke-width="1.51"></path><path d="M64,295L99,361L101,292Z" fill="rgb(208,126,170)" stroke="rgb(208,126,170)" stroke-width="1.51"></path><path d="M364,449L406,433L345,339Z" fill="rgb(148,25,129)" stroke="rgb(148,25,129)" stroke-width="1.51"></path><path d="M466,321L538,350L482,271Z" fill="rgb(152,1,123)" stroke="rgb(152,1,123)" stroke-width="1.51"></path><path d="M567,23L564,-35L486,-25Z" fill="rgb(186,132,179)" stroke="rgb(186,132,179)" stroke-width="1.51"></path><path d="M641,-15L564,-35L567,23Z" fill="rgb(168,126,175)" stroke="rgb(168,126,175)" stroke-width="1.51"></path><path d="M465,427L538,350L466,321Z" fill="rgb(127,0,119)" stroke="rgb(127,0,119)" stroke-width="1.51"></path><path d="M439,-103L497,-107L165,-103Z" fill="rgb(245,161,197)" stroke="rgb(245,161,197)" stroke-width="1.51"></path><path d="M566,-82L497,-107L486,-25Z" fill="rgb(194,135,180)" stroke="rgb(194,135,180)" stroke-width="1.51"></path><path d="M244,420L364,449L345,339Z" fill="rgb(157,46,133)" stroke="rgb(157,46,133)" stroke-width="1.51"></path><path d="M22,97L-14,170L44,211Z" fill="rgb(255,196,207)" stroke="rgb(255,196,207)" stroke-width="1.51"></path><path d="M9,-46L7,52L100,-34Z" fill="rgb(255,241,237)" stroke="rgb(255,241,237)" stroke-width="1.51"></path><path d="M99,361L171,427L212,345Z" fill="rgb(174,102,151)" stroke="rgb(174,102,151)" stroke-width="1.51"></path><path d="M244,420L332,472L364,449Z" fill="rgb(157,48,133)" stroke="rgb(157,48,133)" stroke-width="1.51"></path><path d="M478,488L465,427L406,433Z" fill="rgb(125,0,116)" stroke="rgb(125,0,116)" stroke-width="1.51"></path><path d="M406,433L465,427L419,337Z" fill="rgb(131,5,120)" stroke="rgb(131,5,120)" stroke-width="1.51"></path><path d="M606,119L630,72L567,23Z" fill="rgb(163,108,158)" stroke="rgb(163,108,158)" stroke-width="1.51"></path><path d="M701,69L630,72L606,119Z" fill="rgb(163,104,153)" stroke="rgb(163,104,153)" stroke-width="1.51"></path><path d="M649,200L557,183L564,268Z" fill="rgb(159,44,133)" stroke="rgb(159,44,133)" stroke-width="1.51"></path><path d="M44,211L-32,279L64,295Z" fill="rgb(237,151,190)" stroke="rgb(237,151,190)" stroke-width="1.51"></path><path d="M29,394L94,432L99,361Z" fill="rgb(165,115,164)" stroke="rgb(165,115,164)" stroke-width="1.51"></path><path d="M-66,114L-14,170L22,97Z" fill="rgb(254,212,214)" stroke="rgb(254,212,214)" stroke-width="1.51"></path><path d="M267,470L332,472L244,420Z" fill="rgb(160,60,136)" stroke="rgb(160,60,136)" stroke-width="1.51"></path><path d="M422,512L478,488L406,433Z" fill="rgb(129,3,119)" stroke="rgb(129,3,119)" stroke-width="1.51"></path><path d="M171,491L267,470L244,420Z" fill="rgb(161,81,143)" stroke="rgb(161,81,143)" stroke-width="1.51"></path><path d="M564,-35L566,-82L486,-25Z" fill="rgb(186,132,179)" stroke="rgb(186,132,179)" stroke-width="1.51"></path><path d="M641,-15L566,-82L564,-35Z" fill="rgb(168,126,174)" stroke="rgb(168,126,174)" stroke-width="1.51"></path><path d="M538,350L613,302L564,268Z" fill="rgb(130,0,118)" stroke="rgb(130,0,118)" stroke-width="1.51"></path><path d="M653,345L613,302L538,350Z" fill="rgb(108,0,114)" stroke="rgb(108,0,114)" stroke-width="1.51"></path><path d="M613,302L649,200L564,268Z" fill="rgb(144,20,127)" stroke="rgb(144,20,127)" stroke-width="1.51"></path><path d="M27,-98L9,-46L100,-34Z" fill="rgb(255,240,236)" stroke="rgb(255,240,236)" stroke-width="1.51"></path><path d="M7,52L-66,114L22,97Z" fill="rgb(254,225,221)" stroke="rgb(254,225,221)" stroke-width="1.51"></path><path d="M27,-98L100,-34L123,-85Z" fill="rgb(254,234,230)" stroke="rgb(254,234,230)" stroke-width="1.51"></path><path d="M478,488L555,411L465,427Z" fill="rgb(107,0,114)" stroke="rgb(107,0,114)" stroke-width="1.51"></path><path d="M465,427L555,411L538,350Z" fill="rgb(102,0,113)" stroke="rgb(102,0,113)" stroke-width="1.51"></path><path d="M171,427L171,491L244,420Z" fill="rgb(162,89,146)" stroke="rgb(162,89,146)" stroke-width="1.51"></path><path d="M99,361L94,432L171,427Z" fill="rgb(163,106,155)" stroke="rgb(163,106,155)" stroke-width="1.51"></path><path d="M24,370L99,361L64,295Z" fill="rgb(194,126,172)" stroke="rgb(194,126,172)" stroke-width="1.51"></path><path d="M701,69L641,-15L630,72Z" fill="rgb(164,116,165)" stroke="rgb(164,116,165)" stroke-width="1.51"></path><path d="M630,72L641,-15L567,23Z" fill="rgb(164,119,168)" stroke="rgb(164,119,168)" stroke-width="1.51"></path><path d="M-32,279L24,370L64,295Z" fill="rgb(211,138,179)" stroke="rgb(211,138,179)" stroke-width="1.51"></path><path d="M-14,170L-32,279L44,211Z" fill="rgb(251,171,199)" stroke="rgb(251,171,199)" stroke-width="1.51"></path><path d="M-112,263L-32,279L-14,170Z" fill="rgb(247,164,198)" stroke="rgb(247,164,198)" stroke-width="1.51"></path><path d="M165,-103L27,-98L123,-85Z" fill="rgb(254,230,226)" stroke="rgb(254,230,226)" stroke-width="1.51"></path><path d="M94,432L171,491L171,427Z" fill="rgb(163,102,150)" stroke="rgb(163,102,150)" stroke-width="1.51"></path><path d="M267,470L422,512L332,472Z" fill="rgb(153,38,131)" stroke="rgb(153,38,131)" stroke-width="1.51"></path><path d="M-52,32L7,52L9,-46Z" fill="rgb(255,244,240)" stroke="rgb(255,244,240)" stroke-width="1.51"></path><path d="M-52,32L-66,114L7,52Z" fill="rgb(254,231,227)" stroke="rgb(254,231,227)" stroke-width="1.51"></path><path d="M94,432L100,529L171,491Z" fill="rgb(163,106,155)" stroke="rgb(163,106,155)" stroke-width="1.51"></path><path d="M24,370L29,394L99,361Z" fill="rgb(177,122,169)" stroke="rgb(177,122,169)" stroke-width="1.51"></path><path d="M-37,378L29,394L24,370Z" fill="rgb(175,128,175)" stroke="rgb(175,128,175)" stroke-width="1.51"></path><path d="M-62,5L-52,32L9,-46Z" fill="rgb(255,247,243)" stroke="rgb(255,247,243)" stroke-width="1.51"></path><path d="M422,512L406,433L364,449Z" fill="rgb(140,17,125)" stroke="rgb(140,17,125)" stroke-width="1.51"></path><path d="M422,512L364,449L332,472Z" fill="rgb(148,24,129)" stroke="rgb(148,24,129)" stroke-width="1.51"></path><path d="M171,491L422,512L267,470Z" fill="rgb(160,58,136)" stroke="rgb(160,58,136)" stroke-width="1.51"></path><path d="M649,200L703,188L606,119Z" fill="rgb(161,71,140)" stroke="rgb(161,71,140)" stroke-width="1.51"></path><path d="M723,280L703,188L649,200Z" fill="rgb(154,41,132)" stroke="rgb(154,41,132)" stroke-width="1.51"></path><path d="M723,280L649,200L613,302Z" fill="rgb(142,19,126)" stroke="rgb(142,19,126)" stroke-width="1.51"></path><path d="M725,94L701,69L606,119Z" fill="rgb(163,102,151)" stroke="rgb(163,102,151)" stroke-width="1.51"></path><path d="M555,411L653,345L538,350Z" fill="rgb(95,0,111)" stroke="rgb(95,0,111)" stroke-width="1.51"></path><path d="M652,406L653,345L555,411Z" fill="rgb(80,0,108)" stroke="rgb(80,0,108)" stroke-width="1.51"></path><path d="M-52,32L-121,50L-66,114Z" fill="rgb(254,231,227)" stroke="rgb(254,231,227)" stroke-width="1.51"></path><path d="M-50,-97L-62,5L9,-46Z" fill="rgb(255,247,243)" stroke="rgb(255,247,243)" stroke-width="1.51"></path><path d="M703,188L725,94L606,119Z" fill="rgb(162,88,146)" stroke="rgb(162,88,146)" stroke-width="1.51"></path><path d="M721,-96L643,-121L641,-15Z" fill="rgb(165,125,173)" stroke="rgb(165,125,173)" stroke-width="1.51"></path><path d="M-82,345L-37,378L-32,279Z" fill="rgb(200,137,181)" stroke="rgb(200,137,181)" stroke-width="1.51"></path><path d="M-32,279L-37,378L24,370Z" fill="rgb(195,136,180)" stroke="rgb(195,136,180)" stroke-width="1.51"></path><path d="M29,394L43,477L94,432Z" fill="rgb(164,117,166)" stroke="rgb(164,117,166)" stroke-width="1.51"></path><path d="M641,-15L643,-121L566,-82Z" fill="rgb(165,125,173)" stroke="rgb(165,125,173)" stroke-width="1.51"></path><path d="M566,-82L643,-121L497,-107Z" fill="rgb(176,129,176)" stroke="rgb(176,129,176)" stroke-width="1.51"></path><path d="M497,-107L643,-121L165,-103Z" fill="rgb(224,146,186)" stroke="rgb(224,146,186)" stroke-width="1.51"></path><path d="M-99,-100L-50,-97L27,-98Z" fill="rgb(255,247,243)" stroke="rgb(255,247,243)" stroke-width="1.51"></path><path d="M722,-10L641,-15L701,69Z" fill="rgb(165,122,171)" stroke="rgb(165,122,171)" stroke-width="1.51"></path><path d="M478,488L563,489L555,411Z" fill="rgb(96,0,112)" stroke="rgb(96,0,112)" stroke-width="1.51"></path><path d="M422,512L563,489L478,488Z" fill="rgb(111,0,115)" stroke="rgb(111,0,115)" stroke-width="1.51"></path><path d="M-65,401L43,477L29,394Z" fill="rgb(165,125,173)" stroke="rgb(165,125,173)" stroke-width="1.51"></path><path d="M653,345L723,280L613,302Z" fill="rgb(120,0,116)" stroke="rgb(120,0,116)" stroke-width="1.51"></path><path d="M703,188L723,280L725,94Z" fill="rgb(160,60,136)" stroke="rgb(160,60,136)" stroke-width="1.51"></path><path d="M563,489L652,406L555,411Z" fill="rgb(77,0,107)" stroke="rgb(77,0,107)" stroke-width="1.51"></path><path d="M27,-98L-50,-97L9,-46Z" fill="rgb(255,247,243)" stroke="rgb(255,247,243)" stroke-width="1.51"></path><path d="M-99,-100L27,-98L165,-103Z" fill="rgb(255,242,238)" stroke="rgb(255,242,238)" stroke-width="1.51"></path><path d="M728,376L723,280L653,345Z" fill="rgb(107,0,114)" stroke="rgb(107,0,114)" stroke-width="1.51"></path><path d="M725,94L722,-10L701,69Z" fill="rgb(163,114,163)" stroke="rgb(163,114,163)" stroke-width="1.51"></path><path d="M-66,114L-127,182L-14,170Z" fill="rgb(255,201,211)" stroke="rgb(255,201,211)" stroke-width="1.51"></path><path d="M-139,123L-127,182L-66,114Z" fill="rgb(255,207,213)" stroke="rgb(255,207,213)" stroke-width="1.51"></path><path d="M-121,50L-52,32L-62,5Z" fill="rgb(255,240,236)" stroke="rgb(255,240,236)" stroke-width="1.51"></path><path d="M-127,182L-112,263L-14,170Z" fill="rgb(254,177,201)" stroke="rgb(254,177,201)" stroke-width="1.51"></path><path d="M43,477L100,529L94,432Z" fill="rgb(163,114,162)" stroke="rgb(163,114,162)" stroke-width="1.51"></path><path d="M171,491L100,529L422,512Z" fill="rgb(161,79,143)" stroke="rgb(161,79,143)" stroke-width="1.51"></path><path d="M-135,-20L-121,50L-62,5Z" fill="rgb(255,244,240)" stroke="rgb(255,244,240)" stroke-width="1.51"></path><path d="M-112,263L-82,345L-32,279Z" fill="rgb(222,145,184)" stroke="rgb(222,145,184)" stroke-width="1.51"></path><path d="M-37,378L-65,401L29,394Z" fill="rgb(169,127,174)" stroke="rgb(169,127,174)" stroke-width="1.51"></path><path d="M-121,50L-139,123L-66,114Z" fill="rgb(254,223,218)" stroke="rgb(254,223,218)" stroke-width="1.51"></path><path d="M-127,182L-101,446L-112,263Z" fill="rgb(221,144,184)" stroke="rgb(221,144,184)" stroke-width="1.51"></path><path d="M43,477L-47,515L100,529Z" fill="rgb(164,120,169)" stroke="rgb(164,120,169)" stroke-width="1.51"></path><path d="M-82,345L-65,401L-37,378Z" fill="rgb(178,130,177)" stroke="rgb(178,130,177)" stroke-width="1.51"></path><path d="M-101,446L-65,401L-82,345Z" fill="rgb(166,126,174)" stroke="rgb(166,126,174)" stroke-width="1.51"></path><path d="M652,406L694,416L653,345Z" fill="rgb(79,0,107)" stroke="rgb(79,0,107)" stroke-width="1.51"></path><path d="M702,481L694,416L652,406Z" fill="rgb(73,0,106)" stroke="rgb(73,0,106)" stroke-width="1.51"></path><path d="M722,-10L721,-96L641,-15Z" fill="rgb(165,125,173)" stroke="rgb(165,125,173)" stroke-width="1.51"></path><path d="M725,94L721,-96L722,-10Z" fill="rgb(165,125,173)" stroke="rgb(165,125,173)" stroke-width="1.51"></path><path d="M-121,50L-135,-20L-139,123Z" fill="rgb(254,235,231)" stroke="rgb(254,235,231)" stroke-width="1.51"></path><path d="M-99,-100L-135,-20L-62,5Z" fill="rgb(255,247,243)" stroke="rgb(255,247,243)" stroke-width="1.51"></path><path d="M-50,-97L-99,-100L-62,5Z" fill="rgb(255,247,243)" stroke="rgb(255,247,243)" stroke-width="1.51"></path><path d="M643,-121L-99,-100L165,-103Z" fill="rgb(255,200,210)" stroke="rgb(255,200,210)" stroke-width="1.51"></path><path d="M694,416L728,376L653,345Z" fill="rgb(84,0,109)" stroke="rgb(84,0,109)" stroke-width="1.51"></path><path d="M723,280L728,376L725,94Z" fill="rgb(147,23,128)" stroke="rgb(147,23,128)" stroke-width="1.51"></path><path d="M694,416L702,481L728,376Z" fill="rgb(73,0,106)" stroke="rgb(73,0,106)" stroke-width="1.51"></path><path d="M563,489L657,520L652,406Z" fill="rgb(73,0,106)" stroke="rgb(73,0,106)" stroke-width="1.51"></path><path d="M422,512L657,520L563,489Z" fill="rgb(91,0,111)" stroke="rgb(91,0,111)" stroke-width="1.51"></path><path d="M100,529L657,520L422,512Z" fill="rgb(142,18,126)" stroke="rgb(142,18,126)" stroke-width="1.51"></path><path d="M-139,123L-101,446L-127,182Z" fill="rgb(244,159,196)" stroke="rgb(244,159,196)" stroke-width="1.51"></path><path d="M-112,263L-101,446L-82,345Z" fill="rgb(191,134,180)" stroke="rgb(191,134,180)" stroke-width="1.51"></path><path d="M-65,401L-47,515L43,477Z" fill="rgb(165,125,173)" stroke="rgb(165,125,173)" stroke-width="1.51"></path><path d="M657,520L702,481L652,406Z" fill="rgb(73,0,106)" stroke="rgb(73,0,106)" stroke-width="1.51"></path><path d="M-101,446L-47,515L-65,401Z" fill="rgb(165,125,173)" stroke="rgb(165,125,173)" stroke-width="1.51"></path><path d="M-101,446L-100,499L-47,515Z" fill="rgb(165,125,173)" stroke="rgb(165,125,173)" stroke-width="1.51"></path><path d="M-139,123L-100,499L-101,446Z" fill="rgb(188,133,179)" stroke="rgb(188,133,179)" stroke-width="1.51"></path></svg>