<svg width="600" height="400" xmlns="http://www.w3.org/2000/svg"><path d="M315,177L271,208L330,261Z" fill="rgb(249,252,205)" stroke="rgb(249,252,205)" stroke-width="1.51"></path><path d="M271,208L244,285L330,261Z" fill="rgb(235,240,211)" stroke="rgb(235,240,211)" stroke-width="1.51"></path><path d="M330,261L426,180L315,177Z" fill="rgb(239,248,223)" stroke="rgb(239,248,223)" stroke-width="1.51"></path><path d="M363,355L387,290L330,261Z" fill="rgb(183,218,234)" stroke="rgb(183,218,234)" stroke-width="1.51"></path><path d="M315,177L286,104L271,208Z" fill="rgb(255,238,166)" stroke="rgb(255,238,166)" stroke-width="1.51"></path><path d="M271,208L187,191L244,285Z" fill="rgb(247,233,185)" stroke="rgb(247,233,185)" stroke-width="1.51"></path><path d="M346,99L286,104L315,177Z" fill="rgb(254,217,155)" stroke="rgb(254,217,155)" stroke-width="1.51"></path><path d="M387,290L426,180L330,261Z" fill="rgb(213,237,245)" stroke="rgb(213,237,245)" stroke-width="1.51"></path><path d="M427,133L346,99L315,177Z" fill="rgb(244,218,181)" stroke="rgb(244,218,181)" stroke-width="1.51"></path><path d="M286,104L187,191L271,208Z" fill="rgb(255,229,151)" stroke="rgb(255,229,151)" stroke-width="1.51"></path><path d="M244,285L238,327L330,261Z" fill="rgb(211,222,198)" stroke="rgb(211,222,198)" stroke-width="1.51"></path><path d="M181,286L238,327L244,285Z" fill="rgb(209,201,176)" stroke="rgb(209,201,176)" stroke-width="1.51"></path><path d="M238,327L363,355L330,261Z" fill="rgb(192,215,207)" stroke="rgb(192,215,207)" stroke-width="1.51"></path><path d="M426,180L427,133L315,177Z" fill="rgb(231,228,195)" stroke="rgb(231,228,195)" stroke-width="1.51"></path><path d="M187,191L181,286L244,285Z" fill="rgb(237,214,180)" stroke="rgb(237,214,180)" stroke-width="1.51"></path><path d="M346,99L354,63L286,104Z" fill="rgb(252,188,144)" stroke="rgb(252,188,144)" stroke-width="1.51"></path><path d="M427,133L354,63L346,99Z" fill="rgb(241,189,161)" stroke="rgb(241,189,161)" stroke-width="1.51"></path><path d="M286,104L181,101L187,191Z" fill="rgb(255,198,119)" stroke="rgb(255,198,119)" stroke-width="1.51"></path><path d="M354,63L241,68L286,104Z" fill="rgb(255,182,124)" stroke="rgb(255,182,124)" stroke-width="1.51"></path><path d="M363,355L403,368L387,290Z" fill="rgb(151,189,219)" stroke="rgb(151,189,219)" stroke-width="1.51"></path><path d="M387,290L481,278L426,180Z" fill="rgb(187,223,236)" stroke="rgb(187,223,236)" stroke-width="1.51"></path><path d="M346,403L403,368L363,355Z" fill="rgb(143,162,207)" stroke="rgb(143,162,207)" stroke-width="1.51"></path><path d="M403,368L481,278L387,290Z" fill="rgb(148,198,223)" stroke="rgb(148,198,223)" stroke-width="1.51"></path><path d="M426,180L488,150L427,133Z" fill="rgb(209,207,181)" stroke="rgb(209,207,181)" stroke-width="1.51"></path><path d="M241,68L181,101L286,104Z" fill="rgb(253,176,107)" stroke="rgb(253,176,107)" stroke-width="1.51"></path><path d="M187,191L110,190L181,286Z" fill="rgb(251,201,154)" stroke="rgb(251,201,154)" stroke-width="1.51"></path><path d="M284,415L346,403L363,355Z" fill="rgb(155,153,190)" stroke="rgb(155,153,190)" stroke-width="1.51"></path><path d="M427,133L398,32L354,63Z" fill="rgb(233,169,150)" stroke="rgb(233,169,150)" stroke-width="1.51"></path><path d="M500,186L488,150L426,180Z" fill="rgb(197,205,187)" stroke="rgb(197,205,187)" stroke-width="1.51"></path><path d="M481,278L500,186L426,180Z" fill="rgb(189,215,213)" stroke="rgb(189,215,213)" stroke-width="1.51"></path><path d="M238,327L284,415L363,355Z" fill="rgb(170,177,184)" stroke="rgb(170,177,184)" stroke-width="1.51"></path><path d="M181,286L184,364L238,327Z" fill="rgb(195,178,161)" stroke="rgb(195,178,161)" stroke-width="1.51"></path><path d="M184,364L284,415L238,327Z" fill="rgb(173,159,160)" stroke="rgb(173,159,160)" stroke-width="1.51"></path><path d="M120,132L110,190L187,191Z" fill="rgb(255,183,116)" stroke="rgb(255,183,116)" stroke-width="1.51"></path><path d="M181,286L120,365L184,364Z" fill="rgb(190,151,144)" stroke="rgb(190,151,144)" stroke-width="1.51"></path><path d="M277,-46L196,38L241,68Z" fill="rgb(227,135,87)" stroke="rgb(227,135,87)" stroke-width="1.51"></path><path d="M490,53L398,32L427,133Z" fill="rgb(215,155,142)" stroke="rgb(215,155,142)" stroke-width="1.51"></path><path d="M112,72L120,132L181,101Z" fill="rgb(249,137,79)" stroke="rgb(249,137,79)" stroke-width="1.51"></path><path d="M181,101L120,132L187,191Z" fill="rgb(253,179,105)" stroke="rgb(253,179,105)" stroke-width="1.51"></path><path d="M110,190L106,281L181,286Z" fill="rgb(239,180,156)" stroke="rgb(239,180,156)" stroke-width="1.51"></path><path d="M241,68L196,38L181,101Z" fill="rgb(247,147,87)" stroke="rgb(247,147,87)" stroke-width="1.51"></path><path d="M334,-6L241,68L354,63Z" fill="rgb(244,160,116)" stroke="rgb(244,160,116)" stroke-width="1.51"></path><path d="M481,278L553,211L500,186Z" fill="rgb(169,193,211)" stroke="rgb(169,193,211)" stroke-width="1.51"></path><path d="M403,368L504,337L481,278Z" fill="rgb(120,173,209)" stroke="rgb(120,173,209)" stroke-width="1.51"></path><path d="M488,406L504,337L403,368Z" fill="rgb(99,141,194)" stroke="rgb(99,141,194)" stroke-width="1.51"></path><path d="M387,-2L334,-6L354,63Z" fill="rgb(221,145,136)" stroke="rgb(221,145,136)" stroke-width="1.51"></path><path d="M346,403L407,432L403,368Z" fill="rgb(131,138,196)" stroke="rgb(131,138,196)" stroke-width="1.51"></path><path d="M349,475L407,432L346,403Z" fill="rgb(139,142,198)" stroke="rgb(139,142,198)" stroke-width="1.51"></path><path d="M398,32L387,-2L354,63Z" fill="rgb(222,146,136)" stroke="rgb(222,146,136)" stroke-width="1.51"></path><path d="M487,-24L387,-2L398,32Z" fill="rgb(186,126,128)" stroke="rgb(186,126,128)" stroke-width="1.51"></path><path d="M184,364L209,437L284,415Z" fill="rgb(165,128,146)" stroke="rgb(165,128,146)" stroke-width="1.51"></path><path d="M284,415L349,475L346,403Z" fill="rgb(154,146,184)" stroke="rgb(154,146,184)" stroke-width="1.51"></path><path d="M134,419L209,437L184,364Z" fill="rgb(167,107,127)" stroke="rgb(167,107,127)" stroke-width="1.51"></path><path d="M500,186L567,129L488,150Z" fill="rgb(182,176,167)" stroke="rgb(182,176,167)" stroke-width="1.51"></path><path d="M488,150L490,53L427,133Z" fill="rgb(204,172,154)" stroke="rgb(204,172,154)" stroke-width="1.51"></path><path d="M573,255L553,211L481,278Z" fill="rgb(147,177,214)" stroke="rgb(147,177,214)" stroke-width="1.51"></path><path d="M106,281L120,365L181,286Z" fill="rgb(206,157,145)" stroke="rgb(206,157,145)" stroke-width="1.51"></path><path d="M567,129L490,53L488,150Z" fill="rgb(188,150,143)" stroke="rgb(188,150,143)" stroke-width="1.51"></path><path d="M196,38L112,72L181,101Z" fill="rgb(245,127,74)" stroke="rgb(245,127,74)" stroke-width="1.51"></path><path d="M34,208L53,250L110,190Z" fill="rgb(242,160,124)" stroke="rgb(242,160,124)" stroke-width="1.51"></path><path d="M110,190L53,250L106,281Z" fill="rgb(241,166,147)" stroke="rgb(241,166,147)" stroke-width="1.51"></path><path d="M504,337L573,255L481,278Z" fill="rgb(123,170,209)" stroke="rgb(123,170,209)" stroke-width="1.51"></path><path d="M407,432L488,406L403,368Z" fill="rgb(110,128,189)" stroke="rgb(110,128,189)" stroke-width="1.51"></path><path d="M407,432L463,489L488,406Z" fill="rgb(101,121,185)" stroke="rgb(101,121,185)" stroke-width="1.51"></path><path d="M274,499L349,475L284,415Z" fill="rgb(161,148,174)" stroke="rgb(161,148,174)" stroke-width="1.51"></path><path d="M488,406L542,345L504,337Z" fill="rgb(81,128,186)" stroke="rgb(81,128,186)" stroke-width="1.51"></path><path d="M106,281L29,330L120,365Z" fill="rgb(191,127,126)" stroke="rgb(191,127,126)" stroke-width="1.51"></path><path d="M34,208L110,190L14,111Z" fill="rgb(238,146,94)" stroke="rgb(238,146,94)" stroke-width="1.51"></path><path d="M553,211L567,129L500,186Z" fill="rgb(173,174,174)" stroke="rgb(173,174,174)" stroke-width="1.51"></path><path d="M542,345L573,255L504,337Z" fill="rgb(99,148,197)" stroke="rgb(99,148,197)" stroke-width="1.51"></path><path d="M209,437L274,499L284,415Z" fill="rgb(164,137,157)" stroke="rgb(164,137,157)" stroke-width="1.51"></path><path d="M120,365L134,419L184,364Z" fill="rgb(172,108,125)" stroke="rgb(172,108,125)" stroke-width="1.51"></path><path d="M12,446L134,419L120,365Z" fill="rgb(159,65,104)" stroke="rgb(159,65,104)" stroke-width="1.51"></path><path d="M334,-6L277,-46L241,68Z" fill="rgb(221,142,103)" stroke="rgb(221,142,103)" stroke-width="1.51"></path><path d="M196,38L90,-32L112,72Z" fill="rgb(222,84,55)" stroke="rgb(222,84,55)" stroke-width="1.51"></path><path d="M336,-114L277,-46L334,-6Z" fill="rgb(216,142,116)" stroke="rgb(216,142,116)" stroke-width="1.51"></path><path d="M649,224L567,129L553,211Z" fill="rgb(165,150,169)" stroke="rgb(165,150,169)" stroke-width="1.51"></path><path d="M14,111L110,190L120,132Z" fill="rgb(244,143,85)" stroke="rgb(244,143,85)" stroke-width="1.51"></path><path d="M204,503L274,499L209,437Z" fill="rgb(165,129,147)" stroke="rgb(165,129,147)" stroke-width="1.51"></path><path d="M349,475L410,499L407,432Z" fill="rgb(130,138,195)" stroke="rgb(130,138,195)" stroke-width="1.51"></path><path d="M488,406L549,400L542,345Z" fill="rgb(71,104,175)" stroke="rgb(71,104,175)" stroke-width="1.51"></path><path d="M274,499L410,499L349,475Z" fill="rgb(148,145,192)" stroke="rgb(148,145,192)" stroke-width="1.51"></path><path d="M542,345L620,266L573,255Z" fill="rgb(112,140,194)" stroke="rgb(112,140,194)" stroke-width="1.51"></path><path d="M542,503L549,400L488,406Z" fill="rgb(68,91,168)" stroke="rgb(68,91,168)" stroke-width="1.51"></path><path d="M112,72L14,111L120,132Z" fill="rgb(239,114,66)" stroke="rgb(239,114,66)" stroke-width="1.51"></path><path d="M277,-46L170,-43L196,38Z" fill="rgb(213,118,78)" stroke="rgb(213,118,78)" stroke-width="1.51"></path><path d="M336,-114L244,-94L277,-46Z" fill="rgb(217,140,104)" stroke="rgb(217,140,104)" stroke-width="1.51"></path><path d="M490,53L487,-24L398,32Z" fill="rgb(185,121,124)" stroke="rgb(185,121,124)" stroke-width="1.51"></path><path d="M574,-43L487,-24L490,53Z" fill="rgb(150,88,111)" stroke="rgb(150,88,111)" stroke-width="1.51"></path><path d="M134,419L204,503L209,437Z" fill="rgb(166,110,129)" stroke="rgb(166,110,129)" stroke-width="1.51"></path><path d="M274,499L204,503L410,499Z" fill="rgb(162,147,172)" stroke="rgb(162,147,172)" stroke-width="1.51"></path><path d="M53,250L29,330L106,281Z" fill="rgb(210,139,131)" stroke="rgb(210,139,131)" stroke-width="1.51"></path><path d="M134,419L94,491L204,503Z" fill="rgb(165,91,119)" stroke="rgb(165,91,119)" stroke-width="1.51"></path><path d="M-35,295L29,330L53,250Z" fill="rgb(187,125,127)" stroke="rgb(187,125,127)" stroke-width="1.51"></path><path d="M410,499L463,489L407,432Z" fill="rgb(113,130,190)" stroke="rgb(113,130,190)" stroke-width="1.51"></path><path d="M573,255L649,224L553,211Z" fill="rgb(149,149,194)" stroke="rgb(149,149,194)" stroke-width="1.51"></path><path d="M653,366L620,266L542,345Z" fill="rgb(84,108,177)" stroke="rgb(84,108,177)" stroke-width="1.51"></path><path d="M567,129L585,65L490,53Z" fill="rgb(177,112,125)" stroke="rgb(177,112,125)" stroke-width="1.51"></path><path d="M635,116L585,65L567,129Z" fill="rgb(167,100,122)" stroke="rgb(167,100,122)" stroke-width="1.51"></path><path d="M34,208L-35,295L53,250Z" fill="rgb(210,139,135)" stroke="rgb(210,139,135)" stroke-width="1.51"></path><path d="M19,49L14,111L112,72Z" fill="rgb(224,76,52)" stroke="rgb(224,76,52)" stroke-width="1.51"></path><path d="M277,-46L244,-94L170,-43Z" fill="rgb(214,124,84)" stroke="rgb(214,124,84)" stroke-width="1.51"></path><path d="M336,-114L334,-6L387,-2Z" fill="rgb(210,138,132)" stroke="rgb(210,138,132)" stroke-width="1.51"></path><path d="M429,-106L336,-114L387,-2Z" fill="rgb(200,134,133)" stroke="rgb(200,134,133)" stroke-width="1.51"></path><path d="M620,266L649,224L573,255Z" fill="rgb(137,141,197)" stroke="rgb(137,141,197)" stroke-width="1.51"></path><path d="M695,278L649,224L620,266Z" fill="rgb(132,139,196)" stroke="rgb(132,139,196)" stroke-width="1.51"></path><path d="M170,-43L90,-32L196,38Z" fill="rgb(208,86,60)" stroke="rgb(208,86,60)" stroke-width="1.51"></path><path d="M103,-91L90,-32L170,-43Z" fill="rgb(204,66,52)" stroke="rgb(204,66,52)" stroke-width="1.51"></path><path d="M649,224L635,116L567,129Z" fill="rgb(164,131,149)" stroke="rgb(164,131,149)" stroke-width="1.51"></path><path d="M90,-32L19,49L112,72Z" fill="rgb(212,52,42)" stroke="rgb(212,52,42)" stroke-width="1.51"></path><path d="M487,-24L429,-106L387,-2Z" fill="rgb(181,121,126)" stroke="rgb(181,121,126)" stroke-width="1.51"></path><path d="M501,-93L429,-106L487,-24Z" fill="rgb(166,109,120)" stroke="rgb(166,109,120)" stroke-width="1.51"></path><path d="M501,-93L487,-24L574,-43Z" fill="rgb(149,87,110)" stroke="rgb(149,87,110)" stroke-width="1.51"></path><path d="M12,446L94,491L134,419Z" fill="rgb(157,61,102)" stroke="rgb(157,61,102)" stroke-width="1.51"></path><path d="M29,330L12,446L120,365Z" fill="rgb(158,71,102)" stroke="rgb(158,71,102)" stroke-width="1.51"></path><path d="M-60,207L-35,295L34,208Z" fill="rgb(209,138,133)" stroke="rgb(209,138,133)" stroke-width="1.51"></path><path d="M-60,207L34,208L14,111Z" fill="rgb(216,134,96)" stroke="rgb(216,134,96)" stroke-width="1.51"></path><path d="M336,-114L175,-112L244,-94Z" fill="rgb(215,131,92)" stroke="rgb(215,131,92)" stroke-width="1.51"></path><path d="M244,-94L175,-112L170,-43Z" fill="rgb(212,110,72)" stroke="rgb(212,110,72)" stroke-width="1.51"></path><path d="M410,499L542,503L463,489Z" fill="rgb(91,115,181)" stroke="rgb(91,115,181)" stroke-width="1.51"></path><path d="M463,489L542,503L488,406Z" fill="rgb(80,104,175)" stroke="rgb(80,104,175)" stroke-width="1.51"></path><path d="M549,400L653,366L542,345Z" fill="rgb(61,87,166)" stroke="rgb(61,87,166)" stroke-width="1.51"></path><path d="M614,518L542,503L410,499Z" fill="rgb(69,93,169)" stroke="rgb(69,93,169)" stroke-width="1.51"></path><path d="M-38,72L14,111L19,49Z" fill="rgb(203,63,51)" stroke="rgb(203,63,51)" stroke-width="1.51"></path><path d="M-38,72L-32,100L14,111Z" fill="rgb(207,79,57)" stroke="rgb(207,79,57)" stroke-width="1.51"></path><path d="M574,-43L490,53L585,65Z" fill="rgb(156,80,106)" stroke="rgb(156,80,106)" stroke-width="1.51"></path><path d="M635,116L640,49L585,65Z" fill="rgb(164,76,111)" stroke="rgb(164,76,111)" stroke-width="1.51"></path><path d="M720,107L640,49L635,116Z" fill="rgb(165,87,116)" stroke="rgb(165,87,116)" stroke-width="1.51"></path><path d="M635,432L653,366L549,400Z" fill="rgb(49,55,149)" stroke="rgb(49,55,149)" stroke-width="1.51"></path><path d="M640,49L574,-43L585,65Z" fill="rgb(142,46,95)" stroke="rgb(142,46,95)" stroke-width="1.51"></path><path d="M-32,100L-60,207L14,111Z" fill="rgb(212,115,77)" stroke="rgb(212,115,77)" stroke-width="1.51"></path><path d="M90,-32L24,-47L19,49Z" fill="rgb(183,22,39)" stroke="rgb(183,22,39)" stroke-width="1.51"></path><path d="M175,-112L103,-91L170,-43Z" fill="rgb(207,85,59)" stroke="rgb(207,85,59)" stroke-width="1.51"></path><path d="M-50,372L12,446L29,330Z" fill="rgb(134,56,98)" stroke="rgb(134,56,98)" stroke-width="1.51"></path><path d="M649,224L690,192L635,116Z" fill="rgb(163,140,160)" stroke="rgb(163,140,160)" stroke-width="1.51"></path><path d="M695,278L690,192L649,224Z" fill="rgb(147,145,193)" stroke="rgb(147,145,193)" stroke-width="1.51"></path><path d="M-32,100L-89,119L-60,207Z" fill="rgb(213,117,78)" stroke="rgb(213,117,78)" stroke-width="1.51"></path><path d="M-91,27L-38,72L-55,-48Z" fill="rgb(175,14,39)" stroke="rgb(175,14,39)" stroke-width="1.51"></path><path d="M542,503L635,432L549,400Z" fill="rgb(54,67,156)" stroke="rgb(54,67,156)" stroke-width="1.51"></path><path d="M735,323L695,278L653,366Z" fill="rgb(86,111,178)" stroke="rgb(86,111,178)" stroke-width="1.51"></path><path d="M653,366L695,278L620,266Z" fill="rgb(99,120,184)" stroke="rgb(99,120,184)" stroke-width="1.51"></path><path d="M-35,295L-50,372L29,330Z" fill="rgb(157,97,115)" stroke="rgb(157,97,115)" stroke-width="1.51"></path><path d="M-115,290L-50,372L-35,295Z" fill="rgb(164,106,119)" stroke="rgb(164,106,119)" stroke-width="1.51"></path><path d="M36,-82L24,-47L90,-32Z" fill="rgb(186,25,39)" stroke="rgb(186,25,39)" stroke-width="1.51"></path><path d="M12,446L11,495L94,491Z" fill="rgb(144,47,95)" stroke="rgb(144,47,95)" stroke-width="1.51"></path><path d="M94,491L-33,510L204,503Z" fill="rgb(159,65,104)" stroke="rgb(159,65,104)" stroke-width="1.51"></path><path d="M-33,510L11,495L12,446Z" fill="rgb(128,38,93)" stroke="rgb(128,38,93)" stroke-width="1.51"></path><path d="M103,-91L36,-82L90,-32Z" fill="rgb(194,41,42)" stroke="rgb(194,41,42)" stroke-width="1.51"></path><path d="M-91,27L-89,119L-38,72Z" fill="rgb(202,60,50)" stroke="rgb(202,60,50)" stroke-width="1.51"></path><path d="M-62,-118L36,-82L103,-91Z" fill="rgb(175,14,39)" stroke="rgb(175,14,39)" stroke-width="1.51"></path><path d="M501,-93L550,-115L429,-106Z" fill="rgb(159,99,116)" stroke="rgb(159,99,116)" stroke-width="1.51"></path><path d="M429,-106L550,-115L336,-114Z" fill="rgb(180,120,126)" stroke="rgb(180,120,126)" stroke-width="1.51"></path><path d="M574,-43L550,-115L501,-93Z" fill="rgb(142,76,106)" stroke="rgb(142,76,106)" stroke-width="1.51"></path><path d="M662,-125L550,-115L574,-43Z" fill="rgb(129,41,94)" stroke="rgb(129,41,94)" stroke-width="1.51"></path><path d="M640,49L638,-35L574,-43Z" fill="rgb(128,38,93)" stroke="rgb(128,38,93)" stroke-width="1.51"></path><path d="M689,27L638,-35L640,49Z" fill="rgb(136,42,94)" stroke="rgb(136,42,94)" stroke-width="1.51"></path><path d="M-60,207L-115,290L-35,295Z" fill="rgb(196,131,132)" stroke="rgb(196,131,132)" stroke-width="1.51"></path><path d="M-38,72L-89,119L-32,100Z" fill="rgb(207,82,58)" stroke="rgb(207,82,58)" stroke-width="1.51"></path><path d="M-38,72L19,49L-55,-48Z" fill="rgb(180,19,39)" stroke="rgb(180,19,39)" stroke-width="1.51"></path><path d="M735,323L720,107L690,192Z" fill="rgb(159,147,178)" stroke="rgb(159,147,178)" stroke-width="1.51"></path><path d="M690,192L720,107L635,116Z" fill="rgb(166,120,139)" stroke="rgb(166,120,139)" stroke-width="1.51"></path><path d="M720,107L689,27L640,49Z" fill="rgb(159,66,104)" stroke="rgb(159,66,104)" stroke-width="1.51"></path><path d="M635,432L703,406L653,366Z" fill="rgb(49,54,149)" stroke="rgb(49,54,149)" stroke-width="1.51"></path><path d="M542,503L614,518L635,432Z" fill="rgb(50,56,150)" stroke="rgb(50,56,150)" stroke-width="1.51"></path><path d="M204,503L614,518L410,499Z" fill="rgb(121,134,193)" stroke="rgb(121,134,193)" stroke-width="1.51"></path><path d="M732,478L703,406L635,432Z" fill="rgb(49,54,149)" stroke="rgb(49,54,149)" stroke-width="1.51"></path><path d="M695,278L735,323L690,192Z" fill="rgb(126,136,194)" stroke="rgb(126,136,194)" stroke-width="1.51"></path><path d="M-50,372L-62,442L12,446Z" fill="rgb(128,38,93)" stroke="rgb(128,38,93)" stroke-width="1.51"></path><path d="M-132,181L-115,290L-60,207Z" fill="rgb(212,140,126)" stroke="rgb(212,140,126)" stroke-width="1.51"></path><path d="M703,406L735,323L653,366Z" fill="rgb(60,82,163)" stroke="rgb(60,82,163)" stroke-width="1.51"></path><path d="M-98,448L-62,442L-50,372Z" fill="rgb(128,38,93)" stroke="rgb(128,38,93)" stroke-width="1.51"></path><path d="M-89,119L-132,181L-60,207Z" fill="rgb(215,132,93)" stroke="rgb(215,132,93)" stroke-width="1.51"></path><path d="M-91,27L-132,181L-89,119Z" fill="rgb(209,93,62)" stroke="rgb(209,93,62)" stroke-width="1.51"></path><path d="M-55,-48L19,49L24,-47Z" fill="rgb(165,0,38)" stroke="rgb(165,0,38)" stroke-width="1.51"></path><path d="M-62,442L-33,510L12,446Z" fill="rgb(128,38,93)" stroke="rgb(128,38,93)" stroke-width="1.51"></path><path d="M11,495L-33,510L94,491Z" fill="rgb(138,43,94)" stroke="rgb(138,43,94)" stroke-width="1.51"></path><path d="M204,503L-33,510L614,518Z" fill="rgb(164,139,159)" stroke="rgb(164,139,159)" stroke-width="1.51"></path><path d="M36,-82L-55,-48L24,-47Z" fill="rgb(165,1,38)" stroke="rgb(165,1,38)" stroke-width="1.51"></path><path d="M-115,290L-120,366L-50,372Z" fill="rgb(152,90,112)" stroke="rgb(152,90,112)" stroke-width="1.51"></path><path d="M-62,442L-117,477L-33,510Z" fill="rgb(128,38,93)" stroke="rgb(128,38,93)" stroke-width="1.51"></path><path d="M-132,181L-120,366L-115,290Z" fill="rgb(187,127,129)" stroke="rgb(187,127,129)" stroke-width="1.51"></path><path d="M720,107L707,-32L689,27Z" fill="rgb(149,50,96)" stroke="rgb(149,50,96)" stroke-width="1.51"></path><path d="M689,27L707,-32L638,-35Z" fill="rgb(128,38,93)" stroke="rgb(128,38,93)" stroke-width="1.51"></path><path d="M638,-35L662,-125L574,-43Z" fill="rgb(128,38,93)" stroke="rgb(128,38,93)" stroke-width="1.51"></path><path d="M-120,366L-98,448L-50,372Z" fill="rgb(129,43,94)" stroke="rgb(129,43,94)" stroke-width="1.51"></path><path d="M-55,-48L-95,-32L-91,27Z" fill="rgb(165,0,38)" stroke="rgb(165,0,38)" stroke-width="1.51"></path><path d="M-91,27L-129,-98L-132,181Z" fill="rgb(188,27,39)" stroke="rgb(188,27,39)" stroke-width="1.51"></path><path d="M686,-121L662,-125L638,-35Z" fill="rgb(128,38,93)" stroke="rgb(128,38,93)" stroke-width="1.51"></path><path d="M550,-115L662,-125L336,-114Z" fill="rgb(151,89,111)" stroke="rgb(151,89,111)" stroke-width="1.51"></path><path d="M336,-114L-62,-118L175,-112Z" fill="rgb(207,85,59)" stroke="rgb(207,85,59)" stroke-width="1.51"></path><path d="M703,406L732,478L735,323Z" fill="rgb(49,54,149)" stroke="rgb(49,54,149)" stroke-width="1.51"></path><path d="M614,518L732,478L635,432Z" fill="rgb(49,54,149)" stroke="rgb(49,54,149)" stroke-width="1.51"></path><path d="M-120,366L-117,477L-98,448Z" fill="rgb(128,38,93)" stroke="rgb(128,38,93)" stroke-width="1.51"></path><path d="M-98,448L-117,477L-62,442Z" fill="rgb(128,38,93)" stroke="rgb(128,38,93)" stroke-width="1.51"></path><path d="M-132,181L-117,477L-120,366Z" fill="rgb(152,91,112)" stroke="rgb(152,91,112)" stroke-width="1.51"></path><path d="M-55,-48L-129,-98L-95,-32Z" fill="rgb(165,0,38)" stroke="rgb(165,0,38)" stroke-width="1.51"></path><path d="M36,-82L-62,-118L-55,-48Z" fill="rgb(165,0,38)" stroke="rgb(165,0,38)" stroke-width="1.51"></path><path d="M175,-112L-62,-118L103,-91Z" fill="rgb(193,37,41)" stroke="rgb(193,37,41)" stroke-width="1.51"></path><path d="M662,-125L-62,-118L336,-114Z" fill="rgb(217,143,115)" stroke="rgb(217,143,115)" stroke-width="1.51"></path><path d="M707,-32L686,-121L638,-35Z" fill="rgb(128,38,93)" stroke="rgb(128,38,93)" stroke-width="1.51"></path><path d="M-62,-118L-129,-98L-55,-48Z" fill="rgb(165,0,38)" stroke="rgb(165,0,38)" stroke-width="1.51"></path><path d="M-95,-32L-129,-98L-91,27Z" fill="rgb(165,0,38)" stroke="rgb(165,0,38)" stroke-width="1.51"></path></svg>