<svg width="600" height="400" xmlns="http://www.w3.org/2000/svg"><path d="M336,196L335,121L260,126Z" fill="rgb(171,170,209)" stroke="rgb(171,170,209)" stroke-width="1.51"></path><path d="M260,126L259,204L336,196Z" fill="rgb(168,166,207)" stroke="rgb(168,166,207)" stroke-width="1.51"></path><path d="M260,126L188,203L259,204Z" fill="rgb(178,176,213)" stroke="rgb(178,176,213)" stroke-width="1.51"></path><path d="M265,46L190,123L260,126Z" fill="rgb(201,201,225)" stroke="rgb(201,201,225)" stroke-width="1.51"></path><path d="M335,121L265,46L260,126Z" fill="rgb(191,189,219)" stroke="rgb(191,189,219)" stroke-width="1.51"></path><path d="M259,204L266,273L336,196Z" fill="rgb(154,150,198)" stroke="rgb(154,150,198)" stroke-width="1.51"></path><path d="M188,273L266,273L259,204Z" fill="rgb(156,154,202)" stroke="rgb(156,154,202)" stroke-width="1.51"></path><path d="M335,121L341,47L265,46Z" fill="rgb(191,188,219)" stroke="rgb(191,188,219)" stroke-width="1.51"></path><path d="M408,48L341,47L335,121Z" fill="rgb(182,178,215)" stroke="rgb(182,178,215)" stroke-width="1.51"></path><path d="M190,123L188,203L260,126Z" fill="rgb(191,191,221)" stroke="rgb(191,191,221)" stroke-width="1.51"></path><path d="M336,196L416,123L335,121Z" fill="rgb(162,160,204)" stroke="rgb(162,160,204)" stroke-width="1.51"></path><path d="M337,276L413,200L336,196Z" fill="rgb(139,135,191)" stroke="rgb(139,135,191)" stroke-width="1.51"></path><path d="M413,200L416,123L336,196Z" fill="rgb(149,145,197)" stroke="rgb(149,145,197)" stroke-width="1.51"></path><path d="M266,273L337,276L336,196Z" fill="rgb(141,137,192)" stroke="rgb(141,137,192)" stroke-width="1.51"></path><path d="M416,123L408,48L335,121Z" fill="rgb(172,167,210)" stroke="rgb(172,167,210)" stroke-width="1.51"></path><path d="M188,203L188,273L259,204Z" fill="rgb(168,166,208)" stroke="rgb(168,166,208)" stroke-width="1.51"></path><path d="M266,273L334,347L337,276Z" fill="rgb(131,115,181)" stroke="rgb(131,115,181)" stroke-width="1.51"></path><path d="M265,46L183,48L190,123Z" fill="rgb(211,211,231)" stroke="rgb(211,211,231)" stroke-width="1.51"></path><path d="M190,123L116,202L188,203Z" fill="rgb(192,191,221)" stroke="rgb(192,191,221)" stroke-width="1.51"></path><path d="M188,203L116,202L188,273Z" fill="rgb(178,175,213)" stroke="rgb(178,175,213)" stroke-width="1.51"></path><path d="M413,200L486,198L416,123Z" fill="rgb(143,129,189)" stroke="rgb(143,129,189)" stroke-width="1.51"></path><path d="M337,276L415,279L413,200Z" fill="rgb(126,120,184)" stroke="rgb(126,120,184)" stroke-width="1.51"></path><path d="M408,351L415,279L337,276Z" fill="rgb(115,98,172)" stroke="rgb(115,98,172)" stroke-width="1.51"></path><path d="M265,46L259,-22L183,48Z" fill="rgb(215,214,233)" stroke="rgb(215,214,233)" stroke-width="1.51"></path><path d="M334,-28L259,-22L265,46Z" fill="rgb(208,205,228)" stroke="rgb(208,205,228)" stroke-width="1.51"></path><path d="M334,-28L265,46L341,47Z" fill="rgb(199,196,224)" stroke="rgb(199,196,224)" stroke-width="1.51"></path><path d="M109,121L116,202L190,123Z" fill="rgb(205,205,228)" stroke="rgb(205,205,228)" stroke-width="1.51"></path><path d="M416,-25L334,-28L341,47Z" fill="rgb(192,188,220)" stroke="rgb(192,188,220)" stroke-width="1.51"></path><path d="M487,276L486,198L413,200Z" fill="rgb(124,107,177)" stroke="rgb(124,107,177)" stroke-width="1.51"></path><path d="M416,123L490,46L408,48Z" fill="rgb(171,156,204)" stroke="rgb(171,156,204)" stroke-width="1.51"></path><path d="M260,348L334,347L266,273Z" fill="rgb(131,111,179)" stroke="rgb(131,111,179)" stroke-width="1.51"></path><path d="M486,198L490,126L416,123Z" fill="rgb(146,130,190)" stroke="rgb(146,130,190)" stroke-width="1.51"></path><path d="M408,48L416,-25L341,47Z" fill="rgb(185,178,216)" stroke="rgb(185,178,216)" stroke-width="1.51"></path><path d="M188,273L260,348L266,273Z" fill="rgb(146,132,190)" stroke="rgb(146,132,190)" stroke-width="1.51"></path><path d="M184,351L260,348L188,273Z" fill="rgb(146,126,188)" stroke="rgb(146,126,188)" stroke-width="1.51"></path><path d="M183,48L109,121L190,123Z" fill="rgb(216,216,234)" stroke="rgb(216,216,234)" stroke-width="1.51"></path><path d="M183,48L115,49L109,121Z" fill="rgb(225,225,239)" stroke="rgb(225,225,239)" stroke-width="1.51"></path><path d="M113,-29L115,49L183,48Z" fill="rgb(234,233,243)" stroke="rgb(234,233,243)" stroke-width="1.51"></path><path d="M261,-104L189,-26L259,-22Z" fill="rgb(217,217,235)" stroke="rgb(217,217,235)" stroke-width="1.51"></path><path d="M259,-22L189,-26L183,48Z" fill="rgb(223,223,238)" stroke="rgb(223,223,238)" stroke-width="1.51"></path><path d="M490,46L416,-25L408,48Z" fill="rgb(178,164,208)" stroke="rgb(178,164,208)" stroke-width="1.51"></path><path d="M334,347L408,351L337,276Z" fill="rgb(116,96,171)" stroke="rgb(116,96,171)" stroke-width="1.51"></path><path d="M415,279L487,276L413,200Z" fill="rgb(119,106,176)" stroke="rgb(119,106,176)" stroke-width="1.51"></path><path d="M336,427L408,351L334,347Z" fill="rgb(106,79,161)" stroke="rgb(106,79,161)" stroke-width="1.51"></path><path d="M486,348L487,276L415,279Z" fill="rgb(104,77,162)" stroke="rgb(104,77,162)" stroke-width="1.51"></path><path d="M486,198L558,127L490,126Z" fill="rgb(140,117,184)" stroke="rgb(140,117,184)" stroke-width="1.51"></path><path d="M490,126L490,46L416,123Z" fill="rgb(161,144,197)" stroke="rgb(161,144,197)" stroke-width="1.51"></path><path d="M116,202L111,278L188,273Z" fill="rgb(175,171,212)" stroke="rgb(175,171,212)" stroke-width="1.51"></path><path d="M41,272L111,278L116,202Z" fill="rgb(182,177,215)" stroke="rgb(182,177,215)" stroke-width="1.51"></path><path d="M111,278L184,351L188,273Z" fill="rgb(161,145,198)" stroke="rgb(161,145,198)" stroke-width="1.51"></path><path d="M260,348L265,423L334,347Z" fill="rgb(121,93,169)" stroke="rgb(121,93,169)" stroke-width="1.51"></path><path d="M416,-25L341,-97L334,-28Z" fill="rgb(192,188,220)" stroke="rgb(192,188,220)" stroke-width="1.51"></path><path d="M334,-28L261,-104L259,-22Z" fill="rgb(208,205,228)" stroke="rgb(208,205,228)" stroke-width="1.51"></path><path d="M409,-103L341,-97L416,-25Z" fill="rgb(188,182,217)" stroke="rgb(188,182,217)" stroke-width="1.51"></path><path d="M490,126L558,127L490,46Z" fill="rgb(155,130,191)" stroke="rgb(155,130,191)" stroke-width="1.51"></path><path d="M561,201L558,127L486,198Z" fill="rgb(129,103,176)" stroke="rgb(129,103,176)" stroke-width="1.51"></path><path d="M490,46L486,-26L416,-25Z" fill="rgb(178,158,206)" stroke="rgb(178,158,206)" stroke-width="1.51"></path><path d="M560,45L486,-26L490,46Z" fill="rgb(169,142,198)" stroke="rgb(169,142,198)" stroke-width="1.51"></path><path d="M109,121L38,202L116,202Z" fill="rgb(204,202,226)" stroke="rgb(204,202,226)" stroke-width="1.51"></path><path d="M38,48L39,122L109,121Z" fill="rgb(230,229,241)" stroke="rgb(230,229,241)" stroke-width="1.51"></path><path d="M38,48L109,121L115,49Z" fill="rgb(232,231,242)" stroke="rgb(232,231,242)" stroke-width="1.51"></path><path d="M487,276L561,201L486,198Z" fill="rgb(117,93,170)" stroke="rgb(117,93,170)" stroke-width="1.51"></path><path d="M189,-26L113,-29L183,48Z" fill="rgb(232,232,243)" stroke="rgb(232,232,243)" stroke-width="1.51"></path><path d="M116,-98L113,-29L189,-26Z" fill="rgb(236,236,244)" stroke="rgb(236,236,244)" stroke-width="1.51"></path><path d="M487,276L564,270L561,201Z" fill="rgb(107,81,163)" stroke="rgb(107,81,163)" stroke-width="1.51"></path><path d="M408,351L486,348L415,279Z" fill="rgb(103,75,160)" stroke="rgb(103,75,160)" stroke-width="1.51"></path><path d="M39,122L38,202L109,121Z" fill="rgb(215,214,234)" stroke="rgb(215,214,234)" stroke-width="1.51"></path><path d="M341,-97L261,-104L334,-28Z" fill="rgb(202,199,225)" stroke="rgb(202,199,225)" stroke-width="1.51"></path><path d="M183,423L265,423L260,348Z" fill="rgb(128,97,171)" stroke="rgb(128,97,171)" stroke-width="1.51"></path><path d="M408,351L415,421L486,348Z" fill="rgb(93,58,151)" stroke="rgb(93,58,151)" stroke-width="1.51"></path><path d="M265,423L336,427L334,347Z" fill="rgb(111,81,161)" stroke="rgb(111,81,161)" stroke-width="1.51"></path><path d="M184,351L183,423L260,348Z" fill="rgb(137,109,178)" stroke="rgb(137,109,178)" stroke-width="1.51"></path><path d="M111,278L108,351L184,351Z" fill="rgb(160,138,195)" stroke="rgb(160,138,195)" stroke-width="1.51"></path><path d="M37,346L108,351L111,278Z" fill="rgb(167,144,198)" stroke="rgb(167,144,198)" stroke-width="1.51"></path><path d="M38,202L41,272L116,202Z" fill="rgb(192,188,219)" stroke="rgb(192,188,219)" stroke-width="1.51"></path><path d="M341,-97L409,-103L261,-104Z" fill="rgb(197,194,223)" stroke="rgb(197,194,223)" stroke-width="1.51"></path><path d="M484,-103L409,-103L416,-25Z" fill="rgb(181,167,210)" stroke="rgb(181,167,210)" stroke-width="1.51"></path><path d="M486,-26L484,-103L416,-25Z" fill="rgb(178,159,206)" stroke="rgb(178,159,206)" stroke-width="1.51"></path><path d="M558,127L560,45L490,46Z" fill="rgb(157,129,190)" stroke="rgb(157,129,190)" stroke-width="1.51"></path><path d="M636,54L560,45L558,127Z" fill="rgb(151,119,184)" stroke="rgb(151,119,184)" stroke-width="1.51"></path><path d="M39,122L-37,195L38,202Z" fill="rgb(212,210,231)" stroke="rgb(212,210,231)" stroke-width="1.51"></path><path d="M113,-29L38,48L115,49Z" fill="rgb(240,239,246)" stroke="rgb(240,239,246)" stroke-width="1.51"></path><path d="M336,427L415,421L408,351Z" fill="rgb(96,66,154)" stroke="rgb(96,66,154)" stroke-width="1.51"></path><path d="M113,-29L36,-24L38,48Z" fill="rgb(246,245,249)" stroke="rgb(246,245,249)" stroke-width="1.51"></path><path d="M261,-104L184,-103L189,-26Z" fill="rgb(222,222,238)" stroke="rgb(222,222,238)" stroke-width="1.51"></path><path d="M561,350L564,270L487,276Z" fill="rgb(94,59,152)" stroke="rgb(94,59,152)" stroke-width="1.51"></path><path d="M561,201L634,128L558,127Z" fill="rgb(131,102,174)" stroke="rgb(131,102,174)" stroke-width="1.51"></path><path d="M561,350L487,276L486,348Z" fill="rgb(92,54,150)" stroke="rgb(92,54,150)" stroke-width="1.51"></path><path d="M108,351L183,423L184,351Z" fill="rgb(147,118,183)" stroke="rgb(147,118,183)" stroke-width="1.51"></path><path d="M265,423L337,498L336,427Z" fill="rgb(111,80,161)" stroke="rgb(111,80,161)" stroke-width="1.51"></path><path d="M184,-103L116,-98L189,-26Z" fill="rgb(232,232,242)" stroke="rgb(232,232,242)" stroke-width="1.51"></path><path d="M409,-103L484,-103L261,-104Z" fill="rgb(189,183,218)" stroke="rgb(189,183,218)" stroke-width="1.51"></path><path d="M560,-99L484,-103L486,-26Z" fill="rgb(172,146,200)" stroke="rgb(172,146,200)" stroke-width="1.51"></path><path d="M37,-101L36,-24L113,-29Z" fill="rgb(246,245,249)" stroke="rgb(246,245,249)" stroke-width="1.51"></path><path d="M-40,124L-37,195L39,122Z" fill="rgb(221,221,237)" stroke="rgb(221,221,237)" stroke-width="1.51"></path><path d="M560,45L561,-29L486,-26Z" fill="rgb(169,139,196)" stroke="rgb(169,139,196)" stroke-width="1.51"></path><path d="M641,-29L561,-29L560,45Z" fill="rgb(163,129,190)" stroke="rgb(163,129,190)" stroke-width="1.51"></path><path d="M108,351L109,427L183,423Z" fill="rgb(147,114,181)" stroke="rgb(147,114,181)" stroke-width="1.51"></path><path d="M41,272L37,346L111,278Z" fill="rgb(175,158,205)" stroke="rgb(175,158,205)" stroke-width="1.51"></path><path d="M-38,270L37,346L41,272Z" fill="rgb(179,164,208)" stroke="rgb(179,164,208)" stroke-width="1.51"></path><path d="M-38,270L41,272L38,202Z" fill="rgb(190,185,219)" stroke="rgb(190,185,219)" stroke-width="1.51"></path><path d="M491,427L561,350L486,348Z" fill="rgb(81,35,140)" stroke="rgb(81,35,140)" stroke-width="1.51"></path><path d="M36,427L109,427L108,351Z" fill="rgb(153,120,184)" stroke="rgb(153,120,184)" stroke-width="1.51"></path><path d="M262,502L337,498L265,423Z" fill="rgb(116,86,164)" stroke="rgb(116,86,164)" stroke-width="1.51"></path><path d="M415,421L491,427L486,348Z" fill="rgb(84,42,142)" stroke="rgb(84,42,142)" stroke-width="1.51"></path><path d="M415,499L491,427L415,421Z" fill="rgb(87,50,145)" stroke="rgb(87,50,145)" stroke-width="1.51"></path><path d="M641,200L561,201L564,270Z" fill="rgb(108,78,160)" stroke="rgb(108,78,160)" stroke-width="1.51"></path><path d="M641,200L634,128L561,201Z" fill="rgb(121,90,167)" stroke="rgb(121,90,167)" stroke-width="1.51"></path><path d="M-40,124L39,122L-40,50Z" fill="rgb(235,235,244)" stroke="rgb(235,235,244)" stroke-width="1.51"></path><path d="M336,427L415,499L415,421Z" fill="rgb(96,65,153)" stroke="rgb(96,65,153)" stroke-width="1.51"></path><path d="M262,502L265,423L188,497Z" fill="rgb(127,96,170)" stroke="rgb(127,96,170)" stroke-width="1.51"></path><path d="M-40,50L39,122L38,48Z" fill="rgb(239,238,246)" stroke="rgb(239,238,246)" stroke-width="1.51"></path><path d="M640,271L641,200L564,270Z" fill="rgb(99,70,156)" stroke="rgb(99,70,156)" stroke-width="1.51"></path><path d="M188,497L265,423L183,423Z" fill="rgb(132,101,174)" stroke="rgb(132,101,174)" stroke-width="1.51"></path><path d="M714,125L636,54L634,128Z" fill="rgb(144,112,179)" stroke="rgb(144,112,179)" stroke-width="1.51"></path><path d="M634,128L636,54L558,127Z" fill="rgb(143,111,179)" stroke="rgb(143,111,179)" stroke-width="1.51"></path><path d="M-37,195L-38,270L38,202Z" fill="rgb(198,195,223)" stroke="rgb(198,195,223)" stroke-width="1.51"></path><path d="M37,346L36,427L108,351Z" fill="rgb(161,129,190)" stroke="rgb(161,129,190)" stroke-width="1.51"></path><path d="M-117,195L-38,270L-37,195Z" fill="rgb(199,195,223)" stroke="rgb(199,195,223)" stroke-width="1.51"></path><path d="M113,501L188,497L183,423Z" fill="rgb(142,110,179)" stroke="rgb(142,110,179)" stroke-width="1.51"></path><path d="M-36,-27L-40,50L38,48Z" fill="rgb(249,247,251)" stroke="rgb(249,247,251)" stroke-width="1.51"></path><path d="M633,345L640,271L564,270Z" fill="rgb(87,49,145)" stroke="rgb(87,49,145)" stroke-width="1.51"></path><path d="M633,345L564,270L561,350Z" fill="rgb(83,39,141)" stroke="rgb(83,39,141)" stroke-width="1.51"></path><path d="M262,502L415,499L337,498Z" fill="rgb(106,76,159)" stroke="rgb(106,76,159)" stroke-width="1.51"></path><path d="M337,498L415,499L336,427Z" fill="rgb(101,72,156)" stroke="rgb(101,72,156)" stroke-width="1.51"></path><path d="M641,-100L560,-99L561,-29Z" fill="rgb(163,129,190)" stroke="rgb(163,129,190)" stroke-width="1.51"></path><path d="M561,-29L560,-99L486,-26Z" fill="rgb(169,139,196)" stroke="rgb(169,139,196)" stroke-width="1.51"></path><path d="M36,-24L-36,-27L38,48Z" fill="rgb(251,250,252)" stroke="rgb(251,250,252)" stroke-width="1.51"></path><path d="M116,-98L37,-101L113,-29Z" fill="rgb(243,242,248)" stroke="rgb(243,242,248)" stroke-width="1.51"></path><path d="M184,-103L37,-101L116,-98Z" fill="rgb(240,239,246)" stroke="rgb(240,239,246)" stroke-width="1.51"></path><path d="M560,502L560,426L491,427Z" fill="rgb(72,19,132)" stroke="rgb(72,19,132)" stroke-width="1.51"></path><path d="M491,427L560,426L561,350Z" fill="rgb(72,19,132)" stroke="rgb(72,19,132)" stroke-width="1.51"></path><path d="M109,427L113,501L183,423Z" fill="rgb(146,114,181)" stroke="rgb(146,114,181)" stroke-width="1.51"></path><path d="M-40,353L36,427L37,346Z" fill="rgb(165,133,193)" stroke="rgb(165,133,193)" stroke-width="1.51"></path><path d="M636,426L633,345L561,350Z" fill="rgb(69,12,129)" stroke="rgb(69,12,129)" stroke-width="1.51"></path><path d="M-34,-99L-36,-27L36,-24Z" fill="rgb(252,251,253)" stroke="rgb(252,251,253)" stroke-width="1.51"></path><path d="M636,54L641,-29L560,45Z" fill="rgb(158,124,187)" stroke="rgb(158,124,187)" stroke-width="1.51"></path><path d="M714,52L641,-29L636,54Z" fill="rgb(158,124,187)" stroke="rgb(158,124,187)" stroke-width="1.51"></path><path d="M37,499L113,501L109,427Z" fill="rgb(153,119,184)" stroke="rgb(153,119,184)" stroke-width="1.51"></path><path d="M188,497L113,501L262,502Z" fill="rgb(137,105,176)" stroke="rgb(137,105,176)" stroke-width="1.51"></path><path d="M415,499L484,504L491,427Z" fill="rgb(84,43,142)" stroke="rgb(84,43,142)" stroke-width="1.51"></path><path d="M262,502L484,504L415,499Z" fill="rgb(96,66,153)" stroke="rgb(96,66,153)" stroke-width="1.51"></path><path d="M113,501L484,504L262,502Z" fill="rgb(116,86,164)" stroke="rgb(116,86,164)" stroke-width="1.51"></path><path d="M-38,270L-40,353L37,346Z" fill="rgb(175,153,203)" stroke="rgb(175,153,203)" stroke-width="1.51"></path><path d="M-109,277L-40,353L-38,270Z" fill="rgb(180,163,208)" stroke="rgb(180,163,208)" stroke-width="1.51"></path><path d="M-40,124L-117,195L-37,195Z" fill="rgb(213,212,232)" stroke="rgb(213,212,232)" stroke-width="1.51"></path><path d="M-110,52L-112,121L-40,124Z" fill="rgb(235,234,244)" stroke="rgb(235,234,244)" stroke-width="1.51"></path><path d="M-110,52L-40,124L-40,50Z" fill="rgb(240,239,246)" stroke="rgb(240,239,246)" stroke-width="1.51"></path><path d="M641,200L714,125L634,128Z" fill="rgb(129,99,172)" stroke="rgb(129,99,172)" stroke-width="1.51"></path><path d="M714,199L714,125L641,200Z" fill="rgb(122,91,167)" stroke="rgb(122,91,167)" stroke-width="1.51"></path><path d="M714,199L641,200L708,271Z" fill="rgb(106,76,159)" stroke="rgb(106,76,159)" stroke-width="1.51"></path><path d="M708,271L641,200L640,271Z" fill="rgb(99,70,156)" stroke="rgb(99,70,156)" stroke-width="1.51"></path><path d="M-112,121L-117,195L-40,124Z" fill="rgb(221,221,237)" stroke="rgb(221,221,237)" stroke-width="1.51"></path><path d="M37,-101L-34,-99L36,-24Z" fill="rgb(251,250,252)" stroke="rgb(251,250,252)" stroke-width="1.51"></path><path d="M-116,-24L-110,52L-40,50Z" fill="rgb(248,247,251)" stroke="rgb(248,247,251)" stroke-width="1.51"></path><path d="M633,345L708,271L640,271Z" fill="rgb(87,49,145)" stroke="rgb(87,49,145)" stroke-width="1.51"></path><path d="M714,351L708,271L633,345Z" fill="rgb(81,37,139)" stroke="rgb(81,37,139)" stroke-width="1.51"></path><path d="M-112,121L-116,-24L-117,195Z" fill="rgb(235,235,244)" stroke="rgb(235,235,244)" stroke-width="1.51"></path><path d="M-116,-24L-40,50L-36,-27Z" fill="rgb(252,251,253)" stroke="rgb(252,251,253)" stroke-width="1.51"></path><path d="M-117,195L-109,277L-38,270Z" fill="rgb(191,187,220)" stroke="rgb(191,187,220)" stroke-width="1.51"></path><path d="M714,125L714,52L636,54Z" fill="rgb(149,116,182)" stroke="rgb(149,116,182)" stroke-width="1.51"></path><path d="M710,-97L641,-100L641,-29Z" fill="rgb(161,127,189)" stroke="rgb(161,127,189)" stroke-width="1.51"></path><path d="M641,-29L641,-100L561,-29Z" fill="rgb(161,127,189)" stroke="rgb(161,127,189)" stroke-width="1.51"></path><path d="M560,-99L641,-100L484,-103Z" fill="rgb(166,134,193)" stroke="rgb(166,134,193)" stroke-width="1.51"></path><path d="M560,426L636,426L561,350Z" fill="rgb(65,4,126)" stroke="rgb(65,4,126)" stroke-width="1.51"></path><path d="M635,497L636,426L560,426Z" fill="rgb(63,0,125)" stroke="rgb(63,0,125)" stroke-width="1.51"></path><path d="M-42,426L36,427L-40,353Z" fill="rgb(161,127,189)" stroke="rgb(161,127,189)" stroke-width="1.51"></path><path d="M-38,500L37,499L36,427Z" fill="rgb(160,126,188)" stroke="rgb(160,126,188)" stroke-width="1.51"></path><path d="M36,427L37,499L109,427Z" fill="rgb(156,122,186)" stroke="rgb(156,122,186)" stroke-width="1.51"></path><path d="M484,504L560,502L491,427Z" fill="rgb(76,27,136)" stroke="rgb(76,27,136)" stroke-width="1.51"></path><path d="M-117,421L-42,426L-40,353Z" fill="rgb(161,127,189)" stroke="rgb(161,127,189)" stroke-width="1.51"></path><path d="M-109,277L-110,348L-40,353Z" fill="rgb(175,152,203)" stroke="rgb(175,152,203)" stroke-width="1.51"></path><path d="M-117,195L-110,348L-109,277Z" fill="rgb(185,175,214)" stroke="rgb(185,175,214)" stroke-width="1.51"></path><path d="M-110,52L-116,-24L-112,121Z" fill="rgb(245,244,249)" stroke="rgb(245,244,249)" stroke-width="1.51"></path><path d="M-109,-102L-116,-24L-36,-27Z" fill="rgb(252,251,253)" stroke="rgb(252,251,253)" stroke-width="1.51"></path><path d="M714,52L714,-30L641,-29Z" fill="rgb(161,127,189)" stroke="rgb(161,127,189)" stroke-width="1.51"></path><path d="M636,426L714,351L633,345Z" fill="rgb(69,12,129)" stroke="rgb(69,12,129)" stroke-width="1.51"></path><path d="M708,271L714,351L714,199Z" fill="rgb(92,59,150)" stroke="rgb(92,59,150)" stroke-width="1.51"></path><path d="M709,429L714,351L636,426Z" fill="rgb(63,0,125)" stroke="rgb(63,0,125)" stroke-width="1.51"></path><path d="M560,502L635,497L560,426Z" fill="rgb(65,5,127)" stroke="rgb(65,5,127)" stroke-width="1.51"></path><path d="M-42,426L-38,500L36,427Z" fill="rgb(161,127,189)" stroke="rgb(161,127,189)" stroke-width="1.51"></path><path d="M37,499L-38,500L113,501Z" fill="rgb(158,124,187)" stroke="rgb(158,124,187)" stroke-width="1.51"></path><path d="M113,501L-38,500L484,504Z" fill="rgb(137,106,176)" stroke="rgb(137,106,176)" stroke-width="1.51"></path><path d="M-111,496L-38,500L-42,426Z" fill="rgb(161,127,189)" stroke="rgb(161,127,189)" stroke-width="1.51"></path><path d="M714,-30L710,-97L641,-29Z" fill="rgb(161,127,189)" stroke="rgb(161,127,189)" stroke-width="1.51"></path><path d="M-34,-99L-109,-102L-36,-27Z" fill="rgb(252,251,253)" stroke="rgb(252,251,253)" stroke-width="1.51"></path><path d="M37,-101L-109,-102L-34,-99Z" fill="rgb(252,251,253)" stroke="rgb(252,251,253)" stroke-width="1.51"></path><path d="M184,-103L-109,-102L37,-101Z" fill="rgb(249,247,251)" stroke="rgb(249,247,251)" stroke-width="1.51"></path><path d="M261,-104L-109,-102L184,-103Z" fill="rgb(240,239,246)" stroke="rgb(240,239,246)" stroke-width="1.51"></path><path d="M635,497L709,429L636,426Z" fill="rgb(63,0,125)" stroke="rgb(63,0,125)" stroke-width="1.51"></path><path d="M-117,195L-117,421L-110,348Z" fill="rgb(175,154,203)" stroke="rgb(175,154,203)" stroke-width="1.51"></path><path d="M-110,348L-117,421L-40,353Z" fill="rgb(166,134,193)" stroke="rgb(166,134,193)" stroke-width="1.51"></path><path d="M-117,421L-111,496L-42,426Z" fill="rgb(161,127,189)" stroke="rgb(161,127,189)" stroke-width="1.51"></path><path d="M635,497L709,502L709,429Z" fill="rgb(63,0,125)" stroke="rgb(63,0,125)" stroke-width="1.51"></path><path d="M709,429L709,502L714,351Z" fill="rgb(63,0,125)" stroke="rgb(63,0,125)" stroke-width="1.51"></path><path d="M560,502L709,502L635,497Z" fill="rgb(63,0,125)" stroke="rgb(63,0,125)" stroke-width="1.51"></path><path d="M484,504L709,502L560,502Z" fill="rgb(66,5,127)" stroke="rgb(66,5,127)" stroke-width="1.51"></path></svg>