<svg width="600" height="400" xmlns="http://www.w3.org/2000/svg"><path d="M268,200L263,268L333,208Z" fill="rgb(144,144,144)" stroke="rgb(144,144,144)" stroke-width="1.51"></path><path d="M263,268L342,268L333,208Z" fill="rgb(130,130,130)" stroke="rgb(130,130,130)" stroke-width="1.51"></path><path d="M263,268L272,341L342,268Z" fill="rgb(120,120,120)" stroke="rgb(120,120,120)" stroke-width="1.51"></path><path d="M268,200L197,191L263,268Z" fill="rgb(158,158,158)" stroke="rgb(158,158,158)" stroke-width="1.51"></path><path d="M263,268L191,284L272,341Z" fill="rgb(130,130,130)" stroke="rgb(130,130,130)" stroke-width="1.51"></path><path d="M264,122L197,191L268,200Z" fill="rgb(175,175,175)" stroke="rgb(175,175,175)" stroke-width="1.51"></path><path d="M197,191L191,284L263,268Z" fill="rgb(154,154,154)" stroke="rgb(154,154,154)" stroke-width="1.51"></path><path d="M333,116L264,122L268,200Z" fill="rgb(173,173,173)" stroke="rgb(173,173,173)" stroke-width="1.51"></path><path d="M272,341L347,347L342,268Z" fill="rgb(101,101,101)" stroke="rgb(101,101,101)" stroke-width="1.51"></path><path d="M333,208L333,116L268,200Z" fill="rgb(157,157,157)" stroke="rgb(157,157,157)" stroke-width="1.51"></path><path d="M410,118L333,116L333,208Z" fill="rgb(155,155,155)" stroke="rgb(155,155,155)" stroke-width="1.51"></path><path d="M419,198L333,208L342,268Z" fill="rgb(126,126,126)" stroke="rgb(126,126,126)" stroke-width="1.51"></path><path d="M347,347L414,284L342,268Z" fill="rgb(100,100,100)" stroke="rgb(100,100,100)" stroke-width="1.51"></path><path d="M414,284L419,198L342,268Z" fill="rgb(111,111,111)" stroke="rgb(111,111,111)" stroke-width="1.51"></path><path d="M347,347L403,349L414,284Z" fill="rgb(82,82,82)" stroke="rgb(82,82,82)" stroke-width="1.51"></path><path d="M264,122L195,119L197,191Z" fill="rgb(191,191,191)" stroke="rgb(191,191,191)" stroke-width="1.51"></path><path d="M197,191L108,193L191,284Z" fill="rgb(172,172,172)" stroke="rgb(172,172,172)" stroke-width="1.51"></path><path d="M265,52L195,119L264,122Z" fill="rgb(199,199,199)" stroke="rgb(199,199,199)" stroke-width="1.51"></path><path d="M191,284L192,360L272,341Z" fill="rgb(120,120,120)" stroke="rgb(120,120,120)" stroke-width="1.51"></path><path d="M272,341L334,426L347,347Z" fill="rgb(79,79,79)" stroke="rgb(79,79,79)" stroke-width="1.51"></path><path d="M347,347L409,427L403,349Z" fill="rgb(64,64,64)" stroke="rgb(64,64,64)" stroke-width="1.51"></path><path d="M419,198L410,118L333,208Z" fill="rgb(139,139,139)" stroke="rgb(139,139,139)" stroke-width="1.51"></path><path d="M496,275L479,205L414,284Z" fill="rgb(93,93,93)" stroke="rgb(93,93,93)" stroke-width="1.51"></path><path d="M414,284L479,205L419,198Z" fill="rgb(108,108,108)" stroke="rgb(108,108,108)" stroke-width="1.51"></path><path d="M419,198L481,116L410,118Z" fill="rgb(138,138,138)" stroke="rgb(138,138,138)" stroke-width="1.51"></path><path d="M333,116L265,52L264,122Z" fill="rgb(187,187,187)" stroke="rgb(187,187,187)" stroke-width="1.51"></path><path d="M339,48L265,52L333,116Z" fill="rgb(186,186,186)" stroke="rgb(186,186,186)" stroke-width="1.51"></path><path d="M410,118L339,48L333,116Z" fill="rgb(170,170,170)" stroke="rgb(170,170,170)" stroke-width="1.51"></path><path d="M264,432L334,426L272,341Z" fill="rgb(75,75,75)" stroke="rgb(75,75,75)" stroke-width="1.51"></path><path d="M117,114L108,193L197,191Z" fill="rgb(198,198,198)" stroke="rgb(198,198,198)" stroke-width="1.51"></path><path d="M191,284L108,349L192,360Z" fill="rgb(128,128,128)" stroke="rgb(128,128,128)" stroke-width="1.51"></path><path d="M117,114L197,191L195,119Z" fill="rgb(202,202,202)" stroke="rgb(202,202,202)" stroke-width="1.51"></path><path d="M108,193L103,276L191,284Z" fill="rgb(166,166,166)" stroke="rgb(166,166,166)" stroke-width="1.51"></path><path d="M192,360L264,432L272,341Z" fill="rgb(94,94,94)" stroke="rgb(94,94,94)" stroke-width="1.51"></path><path d="M195,432L264,432L192,360Z" fill="rgb(91,91,91)" stroke="rgb(91,91,91)" stroke-width="1.51"></path><path d="M481,356L414,284L403,349Z" fill="rgb(72,72,72)" stroke="rgb(72,72,72)" stroke-width="1.51"></path><path d="M481,356L496,275L414,284Z" fill="rgb(75,75,75)" stroke="rgb(75,75,75)" stroke-width="1.51"></path><path d="M181,46L117,114L195,119Z" fill="rgb(216,216,216)" stroke="rgb(216,216,216)" stroke-width="1.51"></path><path d="M481,116L415,54L410,118Z" fill="rgb(151,151,151)" stroke="rgb(151,151,151)" stroke-width="1.51"></path><path d="M410,118L415,54L339,48Z" fill="rgb(167,167,167)" stroke="rgb(167,167,167)" stroke-width="1.51"></path><path d="M103,276L108,349L191,284Z" fill="rgb(147,147,147)" stroke="rgb(147,147,147)" stroke-width="1.51"></path><path d="M409,427L481,356L403,349Z" fill="rgb(54,54,54)" stroke="rgb(54,54,54)" stroke-width="1.51"></path><path d="M479,205L481,116L419,198Z" fill="rgb(122,122,122)" stroke="rgb(122,122,122)" stroke-width="1.51"></path><path d="M553,127L481,116L479,205Z" fill="rgb(115,115,115)" stroke="rgb(115,115,115)" stroke-width="1.51"></path><path d="M117,423L195,432L192,360Z" fill="rgb(99,99,99)" stroke="rgb(99,99,99)" stroke-width="1.51"></path><path d="M334,426L409,427L347,347Z" fill="rgb(60,60,60)" stroke="rgb(60,60,60)" stroke-width="1.51"></path><path d="M405,490L409,427L334,426Z" fill="rgb(56,56,56)" stroke="rgb(56,56,56)" stroke-width="1.51"></path><path d="M186,-23L181,46L265,52Z" fill="rgb(220,220,220)" stroke="rgb(220,220,220)" stroke-width="1.51"></path><path d="M265,52L181,46L195,119Z" fill="rgb(211,211,211)" stroke="rgb(211,211,211)" stroke-width="1.51"></path><path d="M103,276L45,283L108,349Z" fill="rgb(154,154,154)" stroke="rgb(154,154,154)" stroke-width="1.51"></path><path d="M108,193L45,283L103,276Z" fill="rgb(174,174,174)" stroke="rgb(174,174,174)" stroke-width="1.51"></path><path d="M30,191L45,283L108,193Z" fill="rgb(187,187,187)" stroke="rgb(187,187,187)" stroke-width="1.51"></path><path d="M563,359L565,273L496,275Z" fill="rgb(54,54,54)" stroke="rgb(54,54,54)" stroke-width="1.51"></path><path d="M409,427L481,416L481,356Z" fill="rgb(41,41,41)" stroke="rgb(41,41,41)" stroke-width="1.51"></path><path d="M339,48L333,-20L265,52Z" fill="rgb(194,194,194)" stroke="rgb(194,194,194)" stroke-width="1.51"></path><path d="M415,54L333,-20L339,48Z" fill="rgb(182,182,182)" stroke="rgb(182,182,182)" stroke-width="1.51"></path><path d="M108,349L117,423L192,360Z" fill="rgb(112,112,112)" stroke="rgb(112,112,112)" stroke-width="1.51"></path><path d="M42,425L117,423L108,349Z" fill="rgb(111,111,111)" stroke="rgb(111,111,111)" stroke-width="1.51"></path><path d="M481,116L480,48L415,54Z" fill="rgb(150,150,150)" stroke="rgb(150,150,150)" stroke-width="1.51"></path><path d="M415,54L420,-34L333,-20Z" fill="rgb(179,179,179)" stroke="rgb(179,179,179)" stroke-width="1.51"></path><path d="M559,56L480,48L481,116Z" fill="rgb(132,132,132)" stroke="rgb(132,132,132)" stroke-width="1.51"></path><path d="M39,129L30,191L108,193Z" fill="rgb(207,207,207)" stroke="rgb(207,207,207)" stroke-width="1.51"></path><path d="M181,46L112,39L117,114Z" fill="rgb(226,226,226)" stroke="rgb(226,226,226)" stroke-width="1.51"></path><path d="M186,-23L112,39L181,46Z" fill="rgb(231,231,231)" stroke="rgb(231,231,231)" stroke-width="1.51"></path><path d="M39,129L108,193L117,114Z" fill="rgb(214,214,214)" stroke="rgb(214,214,214)" stroke-width="1.51"></path><path d="M496,275L565,195L479,205Z" fill="rgb(86,86,86)" stroke="rgb(86,86,86)" stroke-width="1.51"></path><path d="M563,359L496,275L481,356Z" fill="rgb(49,49,49)" stroke="rgb(49,49,49)" stroke-width="1.51"></path><path d="M565,273L565,195L496,275Z" fill="rgb(71,71,71)" stroke="rgb(71,71,71)" stroke-width="1.51"></path><path d="M333,-20L268,-35L265,52Z" fill="rgb(204,204,204)" stroke="rgb(204,204,204)" stroke-width="1.51"></path><path d="M409,427L405,490L481,416Z" fill="rgb(46,46,46)" stroke="rgb(46,46,46)" stroke-width="1.51"></path><path d="M264,432L339,506L334,426Z" fill="rgb(70,70,70)" stroke="rgb(70,70,70)" stroke-width="1.51"></path><path d="M260,509L339,506L264,432Z" fill="rgb(76,76,76)" stroke="rgb(76,76,76)" stroke-width="1.51"></path><path d="M260,509L264,432L195,432Z" fill="rgb(87,87,87)" stroke="rgb(87,87,87)" stroke-width="1.51"></path><path d="M184,500L260,509L195,432Z" fill="rgb(92,92,92)" stroke="rgb(92,92,92)" stroke-width="1.51"></path><path d="M339,506L405,490L334,426Z" fill="rgb(61,61,61)" stroke="rgb(61,61,61)" stroke-width="1.51"></path><path d="M565,195L553,127L479,205Z" fill="rgb(97,97,97)" stroke="rgb(97,97,97)" stroke-width="1.51"></path><path d="M44,59L39,129L117,114Z" fill="rgb(229,229,229)" stroke="rgb(229,229,229)" stroke-width="1.51"></path><path d="M268,-35L186,-23L265,52Z" fill="rgb(217,217,217)" stroke="rgb(217,217,217)" stroke-width="1.51"></path><path d="M45,283L31,341L108,349Z" fill="rgb(145,145,145)" stroke="rgb(145,145,145)" stroke-width="1.51"></path><path d="M-43,282L31,341L45,283Z" fill="rgb(162,162,162)" stroke="rgb(162,162,162)" stroke-width="1.51"></path><path d="M117,423L184,500L195,432Z" fill="rgb(100,100,100)" stroke="rgb(100,100,100)" stroke-width="1.51"></path><path d="M120,500L184,500L117,423Z" fill="rgb(104,104,104)" stroke="rgb(104,104,104)" stroke-width="1.51"></path><path d="M481,416L563,359L481,356Z" fill="rgb(33,33,33)" stroke="rgb(33,33,33)" stroke-width="1.51"></path><path d="M572,433L563,359L481,416Z" fill="rgb(20,20,20)" stroke="rgb(20,20,20)" stroke-width="1.51"></path><path d="M329,-109L261,-105L268,-35Z" fill="rgb(205,205,205)" stroke="rgb(205,205,205)" stroke-width="1.51"></path><path d="M480,48L420,-34L415,54Z" fill="rgb(164,164,164)" stroke="rgb(164,164,164)" stroke-width="1.51"></path><path d="M496,-23L420,-34L480,48Z" fill="rgb(158,158,158)" stroke="rgb(158,158,158)" stroke-width="1.51"></path><path d="M35,-36L44,59L112,39Z" fill="rgb(245,245,245)" stroke="rgb(245,245,245)" stroke-width="1.51"></path><path d="M112,39L44,59L117,114Z" fill="rgb(232,232,232)" stroke="rgb(232,232,232)" stroke-width="1.51"></path><path d="M-45,200L-43,282L30,191Z" fill="rgb(192,192,192)" stroke="rgb(192,192,192)" stroke-width="1.51"></path><path d="M31,341L42,425L108,349Z" fill="rgb(124,124,124)" stroke="rgb(124,124,124)" stroke-width="1.51"></path><path d="M38,491L120,500L117,423Z" fill="rgb(110,110,110)" stroke="rgb(110,110,110)" stroke-width="1.51"></path><path d="M184,500L120,500L260,509Z" fill="rgb(96,96,96)" stroke="rgb(96,96,96)" stroke-width="1.51"></path><path d="M553,127L559,56L481,116Z" fill="rgb(119,119,119)" stroke="rgb(119,119,119)" stroke-width="1.51"></path><path d="M644,120L559,56L553,127Z" fill="rgb(105,105,105)" stroke="rgb(105,105,105)" stroke-width="1.51"></path><path d="M186,-23L117,-36L112,39Z" fill="rgb(238,238,238)" stroke="rgb(238,238,238)" stroke-width="1.51"></path><path d="M194,-95L117,-36L186,-23Z" fill="rgb(233,233,233)" stroke="rgb(233,233,233)" stroke-width="1.51"></path><path d="M194,-95L186,-23L268,-35Z" fill="rgb(223,223,223)" stroke="rgb(223,223,223)" stroke-width="1.51"></path><path d="M559,56L496,-23L480,48Z" fill="rgb(139,139,139)" stroke="rgb(139,139,139)" stroke-width="1.51"></path><path d="M565,195L644,120L553,127Z" fill="rgb(94,94,94)" stroke="rgb(94,94,94)" stroke-width="1.51"></path><path d="M565,273L627,265L565,195Z" fill="rgb(62,62,62)" stroke="rgb(62,62,62)" stroke-width="1.51"></path><path d="M563,359L627,265L565,273Z" fill="rgb(46,46,46)" stroke="rgb(46,46,46)" stroke-width="1.51"></path><path d="M405,490L484,510L481,416Z" fill="rgb(41,41,41)" stroke="rgb(41,41,41)" stroke-width="1.51"></path><path d="M563,359L646,360L627,265Z" fill="rgb(31,31,31)" stroke="rgb(31,31,31)" stroke-width="1.51"></path><path d="M339,506L484,510L405,490Z" fill="rgb(51,51,51)" stroke="rgb(51,51,51)" stroke-width="1.51"></path><path d="M260,509L484,510L339,506Z" fill="rgb(60,60,60)" stroke="rgb(60,60,60)" stroke-width="1.51"></path><path d="M484,510L572,433L481,416Z" fill="rgb(25,25,25)" stroke="rgb(25,25,25)" stroke-width="1.51"></path><path d="M31,341L-32,351L42,425Z" fill="rgb(128,128,128)" stroke="rgb(128,128,128)" stroke-width="1.51"></path><path d="M30,191L-43,282L45,283Z" fill="rgb(181,181,181)" stroke="rgb(181,181,181)" stroke-width="1.51"></path><path d="M-45,200L30,191L-35,119Z" fill="rgb(213,213,213)" stroke="rgb(213,213,213)" stroke-width="1.51"></path><path d="M409,-91L333,-20L420,-34Z" fill="rgb(179,179,179)" stroke="rgb(179,179,179)" stroke-width="1.51"></path><path d="M329,-109L268,-35L333,-20Z" fill="rgb(199,199,199)" stroke="rgb(199,199,199)" stroke-width="1.51"></path><path d="M-35,119L30,191L39,129Z" fill="rgb(222,222,222)" stroke="rgb(222,222,222)" stroke-width="1.51"></path><path d="M483,-95L409,-91L420,-34Z" fill="rgb(167,167,167)" stroke="rgb(167,167,167)" stroke-width="1.51"></path><path d="M627,265L642,209L565,195Z" fill="rgb(66,66,66)" stroke="rgb(66,66,66)" stroke-width="1.51"></path><path d="M261,-105L194,-95L268,-35Z" fill="rgb(217,217,217)" stroke="rgb(217,217,217)" stroke-width="1.51"></path><path d="M409,-91L329,-109L333,-20Z" fill="rgb(187,187,187)" stroke="rgb(187,187,187)" stroke-width="1.51"></path><path d="M-43,282L-32,351L31,341Z" fill="rgb(151,151,151)" stroke="rgb(151,151,151)" stroke-width="1.51"></path><path d="M-30,54L-35,119L44,59Z" fill="rgb(241,241,241)" stroke="rgb(241,241,241)" stroke-width="1.51"></path><path d="M44,59L-35,119L39,129Z" fill="rgb(234,234,234)" stroke="rgb(234,234,234)" stroke-width="1.51"></path><path d="M42,425L38,491L117,423Z" fill="rgb(113,113,113)" stroke="rgb(113,113,113)" stroke-width="1.51"></path><path d="M-46,417L38,491L42,425Z" fill="rgb(118,118,118)" stroke="rgb(118,118,118)" stroke-width="1.51"></path><path d="M559,56L555,-22L496,-23Z" fill="rgb(134,134,134)" stroke="rgb(134,134,134)" stroke-width="1.51"></path><path d="M496,-23L483,-95L420,-34Z" fill="rgb(158,158,158)" stroke="rgb(158,158,158)" stroke-width="1.51"></path><path d="M646,49L555,-22L559,56Z" fill="rgb(119,119,119)" stroke="rgb(119,119,119)" stroke-width="1.51"></path><path d="M642,209L644,120L565,195Z" fill="rgb(82,82,82)" stroke="rgb(82,82,82)" stroke-width="1.51"></path><path d="M628,418L646,360L563,359Z" fill="rgb(11,11,11)" stroke="rgb(11,11,11)" stroke-width="1.51"></path><path d="M720,268L709,196L642,209Z" fill="rgb(66,66,66)" stroke="rgb(66,66,66)" stroke-width="1.51"></path><path d="M642,209L709,196L644,120Z" fill="rgb(81,81,81)" stroke="rgb(81,81,81)" stroke-width="1.51"></path><path d="M-113,123L-104,206L-45,200Z" fill="rgb(211,211,211)" stroke="rgb(211,211,211)" stroke-width="1.51"></path><path d="M35,-36L-30,54L44,59Z" fill="rgb(249,249,249)" stroke="rgb(249,249,249)" stroke-width="1.51"></path><path d="M35,-36L112,39L117,-36Z" fill="rgb(245,245,245)" stroke="rgb(245,245,245)" stroke-width="1.51"></path><path d="M572,433L628,418L563,359Z" fill="rgb(4,5,4)" stroke="rgb(4,5,4)" stroke-width="1.51"></path><path d="M484,510L569,497L572,433Z" fill="rgb(18,18,18)" stroke="rgb(18,18,18)" stroke-width="1.51"></path><path d="M102,-97L35,-36L117,-36Z" fill="rgb(246,246,246)" stroke="rgb(246,246,246)" stroke-width="1.51"></path><path d="M569,497L628,418L572,433Z" fill="rgb(3,4,3)" stroke="rgb(3,4,3)" stroke-width="1.51"></path><path d="M409,-91L483,-95L329,-109Z" fill="rgb(175,175,175)" stroke="rgb(175,175,175)" stroke-width="1.51"></path><path d="M552,-97L483,-95L496,-23Z" fill="rgb(143,143,143)" stroke="rgb(143,143,143)" stroke-width="1.51"></path><path d="M-33,-101L102,-97L261,-105Z" fill="rgb(242,242,242)" stroke="rgb(242,242,242)" stroke-width="1.51"></path><path d="M261,-105L102,-97L194,-95Z" fill="rgb(229,229,229)" stroke="rgb(229,229,229)" stroke-width="1.51"></path><path d="M194,-95L102,-97L117,-36Z" fill="rgb(238,238,238)" stroke="rgb(238,238,238)" stroke-width="1.51"></path><path d="M-32,351L-46,417L42,425Z" fill="rgb(120,120,120)" stroke="rgb(120,120,120)" stroke-width="1.51"></path><path d="M-114,353L-46,417L-32,351Z" fill="rgb(129,129,129)" stroke="rgb(129,129,129)" stroke-width="1.51"></path><path d="M-114,353L-32,351L-43,282Z" fill="rgb(149,149,149)" stroke="rgb(149,149,149)" stroke-width="1.51"></path><path d="M555,-22L552,-97L496,-23Z" fill="rgb(135,135,135)" stroke="rgb(135,135,135)" stroke-width="1.51"></path><path d="M644,120L646,49L559,56Z" fill="rgb(107,107,107)" stroke="rgb(107,107,107)" stroke-width="1.51"></path><path d="M703,49L646,49L644,120Z" fill="rgb(108,108,108)" stroke="rgb(108,108,108)" stroke-width="1.51"></path><path d="M-45,200L-104,206L-43,282Z" fill="rgb(190,190,190)" stroke="rgb(190,190,190)" stroke-width="1.51"></path><path d="M-113,123L-45,200L-35,119Z" fill="rgb(222,222,222)" stroke="rgb(222,222,222)" stroke-width="1.51"></path><path d="M-104,206L-110,280L-43,282Z" fill="rgb(180,180,180)" stroke="rgb(180,180,180)" stroke-width="1.51"></path><path d="M720,268L642,209L627,265Z" fill="rgb(58,58,58)" stroke="rgb(58,58,58)" stroke-width="1.51"></path><path d="M720,268L627,265L646,360Z" fill="rgb(43,43,43)" stroke="rgb(43,43,43)" stroke-width="1.51"></path><path d="M483,-95L640,-110L329,-109Z" fill="rgb(152,152,152)" stroke="rgb(152,152,152)" stroke-width="1.51"></path><path d="M647,-28L552,-97L555,-22Z" fill="rgb(123,123,123)" stroke="rgb(123,123,123)" stroke-width="1.51"></path><path d="M102,-97L37,-94L35,-36Z" fill="rgb(249,249,249)" stroke="rgb(249,249,249)" stroke-width="1.51"></path><path d="M35,-36L-38,-25L-30,54Z" fill="rgb(255,255,255)" stroke="rgb(255,255,255)" stroke-width="1.51"></path><path d="M-30,54L-113,123L-35,119Z" fill="rgb(236,236,236)" stroke="rgb(236,236,236)" stroke-width="1.51"></path><path d="M-33,-101L37,-94L102,-97Z" fill="rgb(251,251,251)" stroke="rgb(251,251,251)" stroke-width="1.51"></path><path d="M-33,-101L-38,-25L35,-36Z" fill="rgb(255,255,255)" stroke="rgb(255,255,255)" stroke-width="1.51"></path><path d="M716,352L720,268L646,360Z" fill="rgb(31,31,31)" stroke="rgb(31,31,31)" stroke-width="1.51"></path><path d="M-104,206L-113,123L-110,280Z" fill="rgb(200,200,200)" stroke="rgb(200,200,200)" stroke-width="1.51"></path><path d="M-123,46L-113,123L-30,54Z" fill="rgb(242,242,242)" stroke="rgb(242,242,242)" stroke-width="1.51"></path><path d="M-110,280L-114,353L-43,282Z" fill="rgb(161,161,161)" stroke="rgb(161,161,161)" stroke-width="1.51"></path><path d="M-123,46L-114,353L-110,280Z" fill="rgb(191,191,191)" stroke="rgb(191,191,191)" stroke-width="1.51"></path><path d="M38,491L-42,506L120,500Z" fill="rgb(115,115,115)" stroke="rgb(115,115,115)" stroke-width="1.51"></path><path d="M120,500L-42,506L260,509Z" fill="rgb(107,107,107)" stroke="rgb(107,107,107)" stroke-width="1.51"></path><path d="M-46,417L-42,506L38,491Z" fill="rgb(119,119,119)" stroke="rgb(119,119,119)" stroke-width="1.51"></path><path d="M-105,435L-42,506L-46,417Z" fill="rgb(119,119,119)" stroke="rgb(119,119,119)" stroke-width="1.51"></path><path d="M719,422L716,352L646,360Z" fill="rgb(11,11,11)" stroke="rgb(11,11,11)" stroke-width="1.51"></path><path d="M719,422L646,360L628,418Z" fill="rgb(0,0,0)" stroke="rgb(0,0,0)" stroke-width="1.51"></path><path d="M646,49L647,-28L555,-22Z" fill="rgb(119,119,119)" stroke="rgb(119,119,119)" stroke-width="1.51"></path><path d="M703,49L647,-28L646,49Z" fill="rgb(116,116,116)" stroke="rgb(116,116,116)" stroke-width="1.51"></path><path d="M569,497L643,508L628,418Z" fill="rgb(0,0,0)" stroke="rgb(0,0,0)" stroke-width="1.51"></path><path d="M484,510L643,508L569,497Z" fill="rgb(12,12,12)" stroke="rgb(12,12,12)" stroke-width="1.51"></path><path d="M720,268L722,122L709,196Z" fill="rgb(75,75,75)" stroke="rgb(75,75,75)" stroke-width="1.51"></path><path d="M709,196L722,122L644,120Z" fill="rgb(91,91,91)" stroke="rgb(91,91,91)" stroke-width="1.51"></path><path d="M722,122L703,49L644,120Z" fill="rgb(103,103,103)" stroke="rgb(103,103,103)" stroke-width="1.51"></path><path d="M-114,353L-105,435L-46,417Z" fill="rgb(119,119,119)" stroke="rgb(119,119,119)" stroke-width="1.51"></path><path d="M-113,123L-123,46L-110,280Z" fill="rgb(222,222,222)" stroke="rgb(222,222,222)" stroke-width="1.51"></path><path d="M-38,-25L-123,46L-30,54Z" fill="rgb(251,251,251)" stroke="rgb(251,251,251)" stroke-width="1.51"></path><path d="M-113,-30L-123,46L-38,-25Z" fill="rgb(255,255,255)" stroke="rgb(255,255,255)" stroke-width="1.51"></path><path d="M643,508L719,422L628,418Z" fill="rgb(0,0,0)" stroke="rgb(0,0,0)" stroke-width="1.51"></path><path d="M716,352L719,422L720,268Z" fill="rgb(23,23,23)" stroke="rgb(23,23,23)" stroke-width="1.51"></path><path d="M720,268L719,495L722,122Z" fill="rgb(44,44,44)" stroke="rgb(44,44,44)" stroke-width="1.51"></path><path d="M37,-94L-33,-101L35,-36Z" fill="rgb(253,253,253)" stroke="rgb(253,253,253)" stroke-width="1.51"></path><path d="M-120,-108L-33,-101L261,-105Z" fill="rgb(251,251,251)" stroke="rgb(251,251,251)" stroke-width="1.51"></path><path d="M705,-106L640,-110L647,-28Z" fill="rgb(119,119,119)" stroke="rgb(119,119,119)" stroke-width="1.51"></path><path d="M647,-28L640,-110L552,-97Z" fill="rgb(119,119,119)" stroke="rgb(119,119,119)" stroke-width="1.51"></path><path d="M552,-97L640,-110L483,-95Z" fill="rgb(129,129,129)" stroke="rgb(129,129,129)" stroke-width="1.51"></path><path d="M-33,-101L-113,-30L-38,-25Z" fill="rgb(255,255,255)" stroke="rgb(255,255,255)" stroke-width="1.51"></path><path d="M-42,506L-114,509L260,509Z" fill="rgb(116,116,116)" stroke="rgb(116,116,116)" stroke-width="1.51"></path><path d="M260,509L-114,509L484,510Z" fill="rgb(93,93,93)" stroke="rgb(93,93,93)" stroke-width="1.51"></path><path d="M-105,435L-114,509L-42,506Z" fill="rgb(119,119,119)" stroke="rgb(119,119,119)" stroke-width="1.51"></path><path d="M-114,353L-114,509L-105,435Z" fill="rgb(119,119,119)" stroke="rgb(119,119,119)" stroke-width="1.51"></path><path d="M-123,46L-114,509L-114,353Z" fill="rgb(162,162,162)" stroke="rgb(162,162,162)" stroke-width="1.51"></path><path d="M643,508L719,495L719,422Z" fill="rgb(0,0,0)" stroke="rgb(0,0,0)" stroke-width="1.51"></path><path d="M719,422L719,495L720,268Z" fill="rgb(2,3,2)" stroke="rgb(2,3,2)" stroke-width="1.51"></path><path d="M703,49L717,-28L647,-28Z" fill="rgb(119,119,119)" stroke="rgb(119,119,119)" stroke-width="1.51"></path><path d="M722,122L717,-28L703,49Z" fill="rgb(113,113,113)" stroke="rgb(113,113,113)" stroke-width="1.51"></path><path d="M717,-28L705,-106L647,-28Z" fill="rgb(119,119,119)" stroke="rgb(119,119,119)" stroke-width="1.51"></path><path d="M-33,-101L-120,-108L-113,-30Z" fill="rgb(255,255,255)" stroke="rgb(255,255,255)" stroke-width="1.51"></path><path d="M-113,-30L-120,-108L-123,46Z" fill="rgb(255,255,255)" stroke="rgb(255,255,255)" stroke-width="1.51"></path><path d="M329,-109L-120,-108L261,-105Z" fill="rgb(234,234,234)" stroke="rgb(234,234,234)" stroke-width="1.51"></path><path d="M640,-110L-120,-108L329,-109Z" fill="rgb(206,206,206)" stroke="rgb(206,206,206)" stroke-width="1.51"></path></svg>