<svg width="600" height="400" xmlns="http://www.w3.org/2000/svg"><path d="M335,200L263,126L263,198Z" fill="rgb(252,120,87)" stroke="rgb(252,120,87)" stroke-width="1.51"></path><path d="M335,200L338,125L263,126Z" fill="rgb(251,123,91)" stroke="rgb(251,123,91)" stroke-width="1.51"></path><path d="M335,200L411,198L338,125Z" fill="rgb(247,100,71)" stroke="rgb(247,100,71)" stroke-width="1.51"></path><path d="M263,198L336,273L335,200Z" fill="rgb(248,93,64)" stroke="rgb(248,93,64)" stroke-width="1.51"></path><path d="M335,200L336,273L411,198Z" fill="rgb(244,78,55)" stroke="rgb(244,78,55)" stroke-width="1.51"></path><path d="M338,125L264,51L263,126Z" fill="rgb(254,151,119)" stroke="rgb(254,151,119)" stroke-width="1.51"></path><path d="M338,125L336,49L264,51Z" fill="rgb(255,154,126)" stroke="rgb(255,154,126)" stroke-width="1.51"></path><path d="M411,198L411,124L338,125Z" fill="rgb(244,106,78)" stroke="rgb(244,106,78)" stroke-width="1.51"></path><path d="M263,126L189,124L263,198Z" fill="rgb(252,143,111)" stroke="rgb(252,143,111)" stroke-width="1.51"></path><path d="M263,198L261,275L336,273Z" fill="rgb(245,90,63)" stroke="rgb(245,90,63)" stroke-width="1.51"></path><path d="M264,51L189,124L263,126Z" fill="rgb(253,163,134)" stroke="rgb(253,163,134)" stroke-width="1.51"></path><path d="M189,124L188,200L263,198Z" fill="rgb(252,140,108)" stroke="rgb(252,140,108)" stroke-width="1.51"></path><path d="M410,49L336,49L338,125Z" fill="rgb(254,143,115)" stroke="rgb(254,143,115)" stroke-width="1.51"></path><path d="M188,200L261,275L263,198Z" fill="rgb(249,114,83)" stroke="rgb(249,114,83)" stroke-width="1.51"></path><path d="M264,51L189,51L189,124Z" fill="rgb(254,179,153)" stroke="rgb(254,179,153)" stroke-width="1.51"></path><path d="M114,201L185,276L188,200Z" fill="rgb(252,135,105)" stroke="rgb(252,135,105)" stroke-width="1.51"></path><path d="M264,-26L189,51L264,51Z" fill="rgb(255,187,164)" stroke="rgb(255,187,164)" stroke-width="1.51"></path><path d="M411,124L410,49L338,125Z" fill="rgb(248,128,100)" stroke="rgb(248,128,100)" stroke-width="1.51"></path><path d="M335,351L410,276L336,273Z" fill="rgb(222,50,39)" stroke="rgb(222,50,39)" stroke-width="1.51"></path><path d="M336,273L410,276L411,198Z" fill="rgb(236,58,43)" stroke="rgb(236,58,43)" stroke-width="1.51"></path><path d="M188,200L185,276L261,275Z" fill="rgb(248,112,82)" stroke="rgb(248,112,82)" stroke-width="1.51"></path><path d="M261,275L262,348L336,273Z" fill="rgb(228,76,54)" stroke="rgb(228,76,54)" stroke-width="1.51"></path><path d="M114,201L188,200L113,126Z" fill="rgb(255,160,130)" stroke="rgb(255,160,130)" stroke-width="1.51"></path><path d="M486,200L485,123L411,198Z" fill="rgb(226,83,61)" stroke="rgb(226,83,61)" stroke-width="1.51"></path><path d="M411,198L485,123L411,124Z" fill="rgb(233,97,73)" stroke="rgb(233,97,73)" stroke-width="1.51"></path><path d="M411,124L485,123L410,49Z" fill="rgb(236,120,94)" stroke="rgb(236,120,94)" stroke-width="1.51"></path><path d="M410,276L486,200L411,198Z" fill="rgb(228,61,45)" stroke="rgb(228,61,45)" stroke-width="1.51"></path><path d="M187,350L262,348L261,275Z" fill="rgb(219,88,65)" stroke="rgb(219,88,65)" stroke-width="1.51"></path><path d="M113,126L188,200L189,124Z" fill="rgb(253,163,133)" stroke="rgb(253,163,133)" stroke-width="1.51"></path><path d="M114,51L113,126L189,124Z" fill="rgb(253,190,164)" stroke="rgb(253,190,164)" stroke-width="1.51"></path><path d="M336,49L264,-26L264,51Z" fill="rgb(255,176,150)" stroke="rgb(255,176,150)" stroke-width="1.51"></path><path d="M189,51L114,51L189,124Z" fill="rgb(253,192,168)" stroke="rgb(253,192,168)" stroke-width="1.51"></path><path d="M335,-27L264,-26L336,49Z" fill="rgb(255,175,152)" stroke="rgb(255,175,152)" stroke-width="1.51"></path><path d="M412,-23L335,-27L336,49Z" fill="rgb(255,163,141)" stroke="rgb(255,163,141)" stroke-width="1.51"></path><path d="M412,-23L336,49L410,49Z" fill="rgb(255,152,130)" stroke="rgb(255,152,130)" stroke-width="1.51"></path><path d="M262,348L335,351L336,273Z" fill="rgb(217,65,47)" stroke="rgb(217,65,47)" stroke-width="1.51"></path><path d="M485,49L412,-23L410,49Z" fill="rgb(243,144,124)" stroke="rgb(243,144,124)" stroke-width="1.51"></path><path d="M186,-27L114,51L189,51Z" fill="rgb(255,207,189)" stroke="rgb(255,207,189)" stroke-width="1.51"></path><path d="M485,123L485,49L410,49Z" fill="rgb(233,126,104)" stroke="rgb(233,126,104)" stroke-width="1.51"></path><path d="M561,123L485,49L485,123Z" fill="rgb(216,112,89)" stroke="rgb(216,112,89)" stroke-width="1.51"></path><path d="M185,276L187,350L261,275Z" fill="rgb(230,99,74)" stroke="rgb(230,99,74)" stroke-width="1.51"></path><path d="M114,201L113,272L185,276Z" fill="rgb(251,133,105)" stroke="rgb(251,133,105)" stroke-width="1.51"></path><path d="M37,199L113,272L114,201Z" fill="rgb(255,155,128)" stroke="rgb(255,155,128)" stroke-width="1.51"></path><path d="M410,276L488,273L486,200Z" fill="rgb(218,43,36)" stroke="rgb(218,43,36)" stroke-width="1.51"></path><path d="M486,200L561,123L485,123Z" fill="rgb(213,90,67)" stroke="rgb(213,90,67)" stroke-width="1.51"></path><path d="M487,349L488,273L410,276Z" fill="rgb(200,24,28)" stroke="rgb(200,24,28)" stroke-width="1.51"></path><path d="M335,351L411,350L410,276Z" fill="rgb(208,38,33)" stroke="rgb(208,38,33)" stroke-width="1.51"></path><path d="M113,348L187,350L185,276Z" fill="rgb(222,111,87)" stroke="rgb(222,111,87)" stroke-width="1.51"></path><path d="M264,424L335,423L335,351Z" fill="rgb(174,53,40)" stroke="rgb(174,53,40)" stroke-width="1.51"></path><path d="M187,-99L186,-27L264,-26Z" fill="rgb(255,199,180)" stroke="rgb(255,199,180)" stroke-width="1.51"></path><path d="M264,-26L186,-27L189,51Z" fill="rgb(255,199,179)" stroke="rgb(255,199,179)" stroke-width="1.51"></path><path d="M335,351L335,423L411,350Z" fill="rgb(187,40,33)" stroke="rgb(187,40,33)" stroke-width="1.51"></path><path d="M264,424L335,351L262,348Z" fill="rgb(191,65,48)" stroke="rgb(191,65,48)" stroke-width="1.51"></path><path d="M187,350L264,424L262,348Z" fill="rgb(193,80,60)" stroke="rgb(193,80,60)" stroke-width="1.51"></path><path d="M113,272L113,348L185,276Z" fill="rgb(234,121,96)" stroke="rgb(234,121,96)" stroke-width="1.51"></path><path d="M562,198L561,123L486,200Z" fill="rgb(203,77,56)" stroke="rgb(203,77,56)" stroke-width="1.51"></path><path d="M485,49L486,-28L412,-23Z" fill="rgb(238,146,128)" stroke="rgb(238,146,128)" stroke-width="1.51"></path><path d="M488,273L562,198L486,200Z" fill="rgb(208,55,40)" stroke="rgb(208,55,40)" stroke-width="1.51"></path><path d="M488,273L560,275L562,198Z" fill="rgb(196,38,32)" stroke="rgb(196,38,32)" stroke-width="1.51"></path><path d="M411,350L487,349L410,276Z" fill="rgb(197,26,28)" stroke="rgb(197,26,28)" stroke-width="1.51"></path><path d="M413,424L487,349L411,350Z" fill="rgb(171,19,25)" stroke="rgb(171,19,25)" stroke-width="1.51"></path><path d="M187,426L264,424L187,350Z" fill="rgb(176,81,64)" stroke="rgb(176,81,64)" stroke-width="1.51"></path><path d="M113,126L37,199L114,201Z" fill="rgb(255,173,146)" stroke="rgb(255,173,146)" stroke-width="1.51"></path><path d="M113,272L36,274L113,348Z" fill="rgb(237,134,112)" stroke="rgb(237,134,112)" stroke-width="1.51"></path><path d="M114,51L38,126L113,126Z" fill="rgb(253,201,180)" stroke="rgb(253,201,180)" stroke-width="1.51"></path><path d="M35,49L38,126L114,51Z" fill="rgb(254,216,200)" stroke="rgb(254,216,200)" stroke-width="1.51"></path><path d="M335,-27L264,-101L264,-26Z" fill="rgb(255,181,158)" stroke="rgb(255,181,158)" stroke-width="1.51"></path><path d="M335,-102L264,-101L335,-27Z" fill="rgb(255,175,152)" stroke="rgb(255,175,152)" stroke-width="1.51"></path><path d="M38,126L37,199L113,126Z" fill="rgb(255,187,163)" stroke="rgb(255,187,163)" stroke-width="1.51"></path><path d="M562,-27L486,-28L485,49Z" fill="rgb(225,141,124)" stroke="rgb(225,141,124)" stroke-width="1.51"></path><path d="M410,-99L335,-102L335,-27Z" fill="rgb(255,163,141)" stroke="rgb(255,163,141)" stroke-width="1.51"></path><path d="M410,-99L335,-27L412,-23Z" fill="rgb(255,158,137)" stroke="rgb(255,158,137)" stroke-width="1.51"></path><path d="M186,-27L110,-25L114,51Z" fill="rgb(255,219,205)" stroke="rgb(255,219,205)" stroke-width="1.51"></path><path d="M113,-99L110,-25L186,-27Z" fill="rgb(255,219,205)" stroke="rgb(255,219,205)" stroke-width="1.51"></path><path d="M486,-28L410,-99L412,-23Z" fill="rgb(245,149,130)" stroke="rgb(245,149,130)" stroke-width="1.51"></path><path d="M487,349L560,275L488,273Z" fill="rgb(188,21,25)" stroke="rgb(188,21,25)" stroke-width="1.51"></path><path d="M264,-101L187,-99L264,-26Z" fill="rgb(255,192,172)" stroke="rgb(255,192,172)" stroke-width="1.51"></path><path d="M335,423L413,424L411,350Z" fill="rgb(167,27,28)" stroke="rgb(167,27,28)" stroke-width="1.51"></path><path d="M336,498L413,424L335,423Z" fill="rgb(169,35,31)" stroke="rgb(169,35,31)" stroke-width="1.51"></path><path d="M635,124L564,50L561,123Z" fill="rgb(185,101,83)" stroke="rgb(185,101,83)" stroke-width="1.51"></path><path d="M561,123L564,50L485,49Z" fill="rgb(210,118,98)" stroke="rgb(210,118,98)" stroke-width="1.51"></path><path d="M37,199L36,274L113,272Z" fill="rgb(255,152,127)" stroke="rgb(255,152,127)" stroke-width="1.51"></path><path d="M112,424L187,426L187,350Z" fill="rgb(178,95,78)" stroke="rgb(178,95,78)" stroke-width="1.51"></path><path d="M264,424L336,498L335,423Z" fill="rgb(173,52,40)" stroke="rgb(173,52,40)" stroke-width="1.51"></path><path d="M112,424L187,350L113,348Z" fill="rgb(197,107,88)" stroke="rgb(197,107,88)" stroke-width="1.51"></path><path d="M38,126L-39,200L37,199Z" fill="rgb(255,185,163)" stroke="rgb(255,185,163)" stroke-width="1.51"></path><path d="M37,199L-39,200L36,274Z" fill="rgb(255,167,144)" stroke="rgb(255,167,144)" stroke-width="1.51"></path><path d="M110,-25L35,49L114,51Z" fill="rgb(255,226,213)" stroke="rgb(255,226,213)" stroke-width="1.51"></path><path d="M487,349L561,348L560,275Z" fill="rgb(170,16,22)" stroke="rgb(170,16,22)" stroke-width="1.51"></path><path d="M639,198L635,124L562,198Z" fill="rgb(175,68,52)" stroke="rgb(175,68,52)" stroke-width="1.51"></path><path d="M562,198L635,124L561,123Z" fill="rgb(182,80,62)" stroke="rgb(182,80,62)" stroke-width="1.51"></path><path d="M489,424L561,348L487,349Z" fill="rgb(153,11,20)" stroke="rgb(153,11,20)" stroke-width="1.51"></path><path d="M110,-25L39,-24L35,49Z" fill="rgb(255,236,227)" stroke="rgb(255,236,227)" stroke-width="1.51"></path><path d="M37,-100L39,-24L110,-25Z" fill="rgb(255,236,227)" stroke="rgb(255,236,227)" stroke-width="1.51"></path><path d="M187,-99L113,-99L186,-27Z" fill="rgb(255,213,196)" stroke="rgb(255,213,196)" stroke-width="1.51"></path><path d="M264,-101L113,-99L187,-99Z" fill="rgb(255,206,187)" stroke="rgb(255,206,187)" stroke-width="1.51"></path><path d="M37,-100L113,-99L264,-101Z" fill="rgb(255,219,204)" stroke="rgb(255,219,204)" stroke-width="1.51"></path><path d="M36,349L112,424L113,348Z" fill="rgb(200,120,103)" stroke="rgb(200,120,103)" stroke-width="1.51"></path><path d="M562,-27L487,-101L486,-28Z" fill="rgb(225,141,124)" stroke="rgb(225,141,124)" stroke-width="1.51"></path><path d="M486,-28L487,-101L410,-99Z" fill="rgb(238,146,128)" stroke="rgb(238,146,128)" stroke-width="1.51"></path><path d="M410,-99L487,-101L335,-102Z" fill="rgb(251,154,134)" stroke="rgb(251,154,134)" stroke-width="1.51"></path><path d="M564,50L562,-27L485,49Z" fill="rgb(214,132,116)" stroke="rgb(214,132,116)" stroke-width="1.51"></path><path d="M413,424L489,424L487,349Z" fill="rgb(149,9,21)" stroke="rgb(149,9,21)" stroke-width="1.51"></path><path d="M413,499L489,424L413,424Z" fill="rgb(154,14,22)" stroke="rgb(154,14,22)" stroke-width="1.51"></path><path d="M-38,275L36,349L36,274Z" fill="rgb(241,145,126)" stroke="rgb(241,145,126)" stroke-width="1.51"></path><path d="M36,274L36,349L113,348Z" fill="rgb(229,135,115)" stroke="rgb(229,135,115)" stroke-width="1.51"></path><path d="M639,198L562,198L638,274Z" fill="rgb(172,45,36)" stroke="rgb(172,45,36)" stroke-width="1.51"></path><path d="M564,50L638,-24L562,-27Z" fill="rgb(191,128,118)" stroke="rgb(191,128,118)" stroke-width="1.51"></path><path d="M261,500L264,424L187,426Z" fill="rgb(176,74,57)" stroke="rgb(176,74,57)" stroke-width="1.51"></path><path d="M261,500L336,498L264,424Z" fill="rgb(175,60,45)" stroke="rgb(175,60,45)" stroke-width="1.51"></path><path d="M35,49L-37,122L38,126Z" fill="rgb(255,215,198)" stroke="rgb(255,215,198)" stroke-width="1.51"></path><path d="M-37,49L-37,122L35,49Z" fill="rgb(255,226,213)" stroke="rgb(255,226,213)" stroke-width="1.51"></path><path d="M188,499L261,500L187,426Z" fill="rgb(176,81,64)" stroke="rgb(176,81,64)" stroke-width="1.51"></path><path d="M638,274L562,198L560,275Z" fill="rgb(174,32,30)" stroke="rgb(174,32,30)" stroke-width="1.51"></path><path d="M-37,122L-39,200L38,126Z" fill="rgb(255,196,176)" stroke="rgb(255,196,176)" stroke-width="1.51"></path><path d="M711,50L635,49L635,124Z" fill="rgb(181,107,93)" stroke="rgb(181,107,93)" stroke-width="1.51"></path><path d="M635,124L635,49L564,50Z" fill="rgb(181,107,93)" stroke="rgb(181,107,93)" stroke-width="1.51"></path><path d="M114,502L188,499L187,426Z" fill="rgb(178,94,78)" stroke="rgb(178,94,78)" stroke-width="1.51"></path><path d="M336,498L413,499L413,424Z" fill="rgb(166,27,27)" stroke="rgb(166,27,27)" stroke-width="1.51"></path><path d="M261,500L413,499L336,498Z" fill="rgb(171,44,35)" stroke="rgb(171,44,35)" stroke-width="1.51"></path><path d="M-113,124L-113,199L-39,200Z" fill="rgb(255,187,165)" stroke="rgb(255,187,165)" stroke-width="1.51"></path><path d="M-39,-26L-37,49L35,49Z" fill="rgb(255,240,233)" stroke="rgb(255,240,233)" stroke-width="1.51"></path><path d="M-39,-26L35,49L39,-24Z" fill="rgb(255,243,237)" stroke="rgb(255,243,237)" stroke-width="1.51"></path><path d="M636,347L638,274L560,275Z" fill="rgb(152,10,21)" stroke="rgb(152,10,21)" stroke-width="1.51"></path><path d="M636,347L560,275L561,348Z" fill="rgb(149,10,20)" stroke="rgb(149,10,20)" stroke-width="1.51"></path><path d="M-39,200L-38,275L36,274Z" fill="rgb(255,160,138)" stroke="rgb(255,160,138)" stroke-width="1.51"></path><path d="M487,501L560,425L489,424Z" fill="rgb(136,7,18)" stroke="rgb(136,7,18)" stroke-width="1.51"></path><path d="M489,424L560,425L561,348Z" fill="rgb(129,5,17)" stroke="rgb(129,5,17)" stroke-width="1.51"></path><path d="M635,-101L563,-100L562,-27Z" fill="rgb(192,128,118)" stroke="rgb(192,128,118)" stroke-width="1.51"></path><path d="M562,-27L563,-100L487,-101Z" fill="rgb(215,137,122)" stroke="rgb(215,137,122)" stroke-width="1.51"></path><path d="M113,-99L37,-100L110,-25Z" fill="rgb(255,231,221)" stroke="rgb(255,231,221)" stroke-width="1.51"></path><path d="M-39,-101L37,-100L-115,-103Z" fill="rgb(255,245,240)" stroke="rgb(255,245,240)" stroke-width="1.51"></path><path d="M112,424L114,502L187,426Z" fill="rgb(179,101,85)" stroke="rgb(179,101,85)" stroke-width="1.51"></path><path d="M36,349L36,424L112,424Z" fill="rgb(183,118,106)" stroke="rgb(183,118,106)" stroke-width="1.51"></path><path d="M-38,349L36,424L36,349Z" fill="rgb(203,131,118)" stroke="rgb(203,131,118)" stroke-width="1.51"></path><path d="M639,422L636,347L561,348Z" fill="rgb(120,3,16)" stroke="rgb(120,3,16)" stroke-width="1.51"></path><path d="M635,49L638,-24L564,50Z" fill="rgb(184,120,110)" stroke="rgb(184,120,110)" stroke-width="1.51"></path><path d="M711,50L638,-24L635,49Z" fill="rgb(184,120,110)" stroke="rgb(184,120,110)" stroke-width="1.51"></path><path d="M-38,275L-38,349L36,349Z" fill="rgb(231,143,126)" stroke="rgb(231,143,126)" stroke-width="1.51"></path><path d="M-113,274L-38,349L-38,275Z" fill="rgb(241,147,129)" stroke="rgb(241,147,129)" stroke-width="1.51"></path><path d="M413,499L487,501L489,424Z" fill="rgb(148,9,21)" stroke="rgb(148,9,21)" stroke-width="1.51"></path><path d="M560,425L639,422L561,348Z" fill="rgb(109,1,14)" stroke="rgb(109,1,14)" stroke-width="1.51"></path><path d="M261,500L487,501L413,499Z" fill="rgb(166,27,28)" stroke="rgb(166,27,28)" stroke-width="1.51"></path><path d="M37,499L114,502L112,424Z" fill="rgb(182,113,100)" stroke="rgb(182,113,100)" stroke-width="1.51"></path><path d="M188,499L114,502L261,500Z" fill="rgb(177,88,71)" stroke="rgb(177,88,71)" stroke-width="1.51"></path><path d="M261,500L114,502L487,501Z" fill="rgb(175,60,45)" stroke="rgb(175,60,45)" stroke-width="1.51"></path><path d="M-113,124L-39,200L-37,122Z" fill="rgb(255,196,176)" stroke="rgb(255,196,176)" stroke-width="1.51"></path><path d="M37,-100L-39,-26L39,-24Z" fill="rgb(255,243,237)" stroke="rgb(255,243,237)" stroke-width="1.51"></path><path d="M639,198L711,125L635,124Z" fill="rgb(176,78,61)" stroke="rgb(176,78,61)" stroke-width="1.51"></path><path d="M714,200L711,125L639,198Z" fill="rgb(175,67,51)" stroke="rgb(175,67,51)" stroke-width="1.51"></path><path d="M714,200L639,198L713,273Z" fill="rgb(172,45,36)" stroke="rgb(172,45,36)" stroke-width="1.51"></path><path d="M-39,200L-113,274L-38,275Z" fill="rgb(255,160,138)" stroke="rgb(255,160,138)" stroke-width="1.51"></path><path d="M-113,124L-37,122L-111,50Z" fill="rgb(255,216,200)" stroke="rgb(255,216,200)" stroke-width="1.51"></path><path d="M-111,50L-37,122L-37,49Z" fill="rgb(255,225,213)" stroke="rgb(255,225,213)" stroke-width="1.51"></path><path d="M713,273L639,198L638,274Z" fill="rgb(168,31,29)" stroke="rgb(168,31,29)" stroke-width="1.51"></path><path d="M638,-24L635,-101L562,-27Z" fill="rgb(185,126,117)" stroke="rgb(185,126,117)" stroke-width="1.51"></path><path d="M563,-100L635,-101L487,-101Z" fill="rgb(203,133,120)" stroke="rgb(203,133,120)" stroke-width="1.51"></path><path d="M487,-101L712,-103L335,-102Z" fill="rgb(225,141,124)" stroke="rgb(225,141,124)" stroke-width="1.51"></path><path d="M712,-103L635,-101L638,-24Z" fill="rgb(185,126,117)" stroke="rgb(185,126,117)" stroke-width="1.51"></path><path d="M714,200L711,50L711,125Z" fill="rgb(177,88,71)" stroke="rgb(177,88,71)" stroke-width="1.51"></path><path d="M711,125L711,50L635,124Z" fill="rgb(178,98,82)" stroke="rgb(178,98,82)" stroke-width="1.51"></path><path d="M-39,-26L-111,50L-37,49Z" fill="rgb(255,240,232)" stroke="rgb(255,240,232)" stroke-width="1.51"></path><path d="M712,348L713,273L638,274Z" fill="rgb(152,10,21)" stroke="rgb(152,10,21)" stroke-width="1.51"></path><path d="M637,500L639,422L560,425Z" fill="rgb(103,0,13)" stroke="rgb(103,0,13)" stroke-width="1.51"></path><path d="M36,424L37,499L112,424Z" fill="rgb(183,118,106)" stroke="rgb(183,118,106)" stroke-width="1.51"></path><path d="M-37,499L37,499L36,424Z" fill="rgb(185,124,115)" stroke="rgb(185,124,115)" stroke-width="1.51"></path><path d="M712,348L638,274L636,347Z" fill="rgb(143,8,20)" stroke="rgb(143,8,20)" stroke-width="1.51"></path><path d="M-38,349L-39,425L36,424Z" fill="rgb(186,126,117)" stroke="rgb(186,126,117)" stroke-width="1.51"></path><path d="M-113,199L-113,274L-39,200Z" fill="rgb(255,169,146)" stroke="rgb(255,169,146)" stroke-width="1.51"></path><path d="M37,-100L-39,-101L-39,-26Z" fill="rgb(255,245,240)" stroke="rgb(255,245,240)" stroke-width="1.51"></path><path d="M-39,-26L-111,-27L-111,50Z" fill="rgb(255,245,240)" stroke="rgb(255,245,240)" stroke-width="1.51"></path><path d="M-115,-103L37,-100L264,-101Z" fill="rgb(255,236,227)" stroke="rgb(255,236,227)" stroke-width="1.51"></path><path d="M-113,350L-39,425L-38,349Z" fill="rgb(203,133,120)" stroke="rgb(203,133,120)" stroke-width="1.51"></path><path d="M487,501L564,501L560,425Z" fill="rgb(128,5,17)" stroke="rgb(128,5,17)" stroke-width="1.51"></path><path d="M114,502L564,501L487,501Z" fill="rgb(166,27,27)" stroke="rgb(166,27,27)" stroke-width="1.51"></path><path d="M639,422L712,348L636,347Z" fill="rgb(120,3,16)" stroke="rgb(120,3,16)" stroke-width="1.51"></path><path d="M713,273L712,425L714,200Z" fill="rgb(151,10,21)" stroke="rgb(151,10,21)" stroke-width="1.51"></path><path d="M712,425L712,348L639,422Z" fill="rgb(104,0,13)" stroke="rgb(104,0,13)" stroke-width="1.51"></path><path d="M-39,-101L-111,-27L-39,-26Z" fill="rgb(255,245,240)" stroke="rgb(255,245,240)" stroke-width="1.51"></path><path d="M-111,50L-115,-103L-113,124Z" fill="rgb(255,240,233)" stroke="rgb(255,240,233)" stroke-width="1.51"></path><path d="M711,50L713,-24L638,-24Z" fill="rgb(185,126,117)" stroke="rgb(185,126,117)" stroke-width="1.51"></path><path d="M714,200L713,-24L711,50Z" fill="rgb(181,107,92)" stroke="rgb(181,107,92)" stroke-width="1.51"></path><path d="M-113,274L-113,350L-38,349Z" fill="rgb(231,143,126)" stroke="rgb(231,143,126)" stroke-width="1.51"></path><path d="M-112,500L-37,499L-39,425Z" fill="rgb(185,126,117)" stroke="rgb(185,126,117)" stroke-width="1.51"></path><path d="M-39,425L-37,499L36,424Z" fill="rgb(185,126,117)" stroke="rgb(185,126,117)" stroke-width="1.51"></path><path d="M37,499L-37,499L114,502Z" fill="rgb(184,120,110)" stroke="rgb(184,120,110)" stroke-width="1.51"></path><path d="M564,501L637,500L560,425Z" fill="rgb(108,1,14)" stroke="rgb(108,1,14)" stroke-width="1.51"></path><path d="M710,500L712,425L639,422Z" fill="rgb(103,0,13)" stroke="rgb(103,0,13)" stroke-width="1.51"></path><path d="M712,348L712,425L713,273Z" fill="rgb(134,6,18)" stroke="rgb(134,6,18)" stroke-width="1.51"></path><path d="M713,-24L712,-103L638,-24Z" fill="rgb(185,126,117)" stroke="rgb(185,126,117)" stroke-width="1.51"></path><path d="M635,-101L712,-103L487,-101Z" fill="rgb(185,126,117)" stroke="rgb(185,126,117)" stroke-width="1.51"></path><path d="M-115,-103L-114,424L-113,199Z" fill="rgb(255,187,165)" stroke="rgb(255,187,165)" stroke-width="1.51"></path><path d="M-113,199L-114,424L-113,274Z" fill="rgb(242,147,129)" stroke="rgb(242,147,129)" stroke-width="1.51"></path><path d="M-113,274L-114,424L-113,350Z" fill="rgb(221,139,123)" stroke="rgb(221,139,123)" stroke-width="1.51"></path><path d="M-113,350L-114,424L-39,425Z" fill="rgb(185,126,117)" stroke="rgb(185,126,117)" stroke-width="1.51"></path><path d="M-39,-101L-115,-103L-111,-27Z" fill="rgb(255,245,240)" stroke="rgb(255,245,240)" stroke-width="1.51"></path><path d="M-111,-27L-115,-103L-111,50Z" fill="rgb(255,245,240)" stroke="rgb(255,245,240)" stroke-width="1.51"></path><path d="M-113,124L-115,-103L-113,199Z" fill="rgb(255,226,213)" stroke="rgb(255,226,213)" stroke-width="1.51"></path><path d="M335,-102L-115,-103L264,-101Z" fill="rgb(255,213,196)" stroke="rgb(255,213,196)" stroke-width="1.51"></path><path d="M712,-103L-115,-103L335,-102Z" fill="rgb(255,175,152)" stroke="rgb(255,175,152)" stroke-width="1.51"></path><path d="M637,500L710,500L639,422Z" fill="rgb(103,0,13)" stroke="rgb(103,0,13)" stroke-width="1.51"></path><path d="M564,501L710,500L637,500Z" fill="rgb(103,0,13)" stroke="rgb(103,0,13)" stroke-width="1.51"></path><path d="M-114,424L-112,500L-39,425Z" fill="rgb(185,126,117)" stroke="rgb(185,126,117)" stroke-width="1.51"></path><path d="M-37,499L-112,500L114,502Z" fill="rgb(185,126,117)" stroke="rgb(185,126,117)" stroke-width="1.51"></path></svg>