<svg width="600" height="400" xmlns="http://www.w3.org/2000/svg"><path d="M267,199L335,274L341,200Z" fill="rgb(226,240,238)" stroke="rgb(226,240,238)" stroke-width="1.51"></path><path d="M267,199L265,274L335,274Z" fill="rgb(216,236,228)" stroke="rgb(216,236,228)" stroke-width="1.51"></path><path d="M341,200L337,121L267,199Z" fill="rgb(240,239,226)" stroke="rgb(240,239,226)" stroke-width="1.51"></path><path d="M412,275L411,197L341,200Z" fill="rgb(193,230,223)" stroke="rgb(193,230,223)" stroke-width="1.51"></path><path d="M335,274L412,275L341,200Z" fill="rgb(189,230,223)" stroke="rgb(189,230,223)" stroke-width="1.51"></path><path d="M414,347L412,275L335,274Z" fill="rgb(132,200,191)" stroke="rgb(132,200,191)" stroke-width="1.51"></path><path d="M415,125L337,121L341,200Z" fill="rgb(219,227,201)" stroke="rgb(219,227,201)" stroke-width="1.51"></path><path d="M337,121L263,121L267,199Z" fill="rgb(243,231,204)" stroke="rgb(243,231,204)" stroke-width="1.51"></path><path d="M267,199L185,204L265,274Z" fill="rgb(232,234,215)" stroke="rgb(232,234,215)" stroke-width="1.51"></path><path d="M265,274L335,351L335,274Z" fill="rgb(167,211,204)" stroke="rgb(167,211,204)" stroke-width="1.51"></path><path d="M183,125L185,204L267,199Z" fill="rgb(241,225,188)" stroke="rgb(241,225,188)" stroke-width="1.51"></path><path d="M265,274L259,354L335,351Z" fill="rgb(153,192,183)" stroke="rgb(153,192,183)" stroke-width="1.51"></path><path d="M185,204L185,272L265,274Z" fill="rgb(212,221,191)" stroke="rgb(212,221,191)" stroke-width="1.51"></path><path d="M186,350L259,354L265,274Z" fill="rgb(155,186,163)" stroke="rgb(155,186,163)" stroke-width="1.51"></path><path d="M411,197L415,125L341,200Z" fill="rgb(208,229,212)" stroke="rgb(208,229,212)" stroke-width="1.51"></path><path d="M486,128L415,125L411,197Z" fill="rgb(180,206,178)" stroke="rgb(180,206,178)" stroke-width="1.51"></path><path d="M412,275L490,198L411,197Z" fill="rgb(164,214,207)" stroke="rgb(164,214,207)" stroke-width="1.51"></path><path d="M335,351L414,347L335,274Z" fill="rgb(128,189,182)" stroke="rgb(128,189,182)" stroke-width="1.51"></path><path d="M263,121L183,125L267,199Z" fill="rgb(243,225,183)" stroke="rgb(243,225,183)" stroke-width="1.51"></path><path d="M185,204L113,202L185,272Z" fill="rgb(219,205,167)" stroke="rgb(219,205,167)" stroke-width="1.51"></path><path d="M185,272L186,350L265,274Z" fill="rgb(173,197,166)" stroke="rgb(173,197,166)" stroke-width="1.51"></path><path d="M114,280L186,350L185,272Z" fill="rgb(164,176,135)" stroke="rgb(164,176,135)" stroke-width="1.51"></path><path d="M414,347L485,278L412,275Z" fill="rgb(100,183,173)" stroke="rgb(100,183,173)" stroke-width="1.51"></path><path d="M337,121L338,50L263,121Z" fill="rgb(225,199,160)" stroke="rgb(225,199,160)" stroke-width="1.51"></path><path d="M263,121L257,49L183,125Z" fill="rgb(227,192,134)" stroke="rgb(227,192,134)" stroke-width="1.51"></path><path d="M416,49L338,50L337,121Z" fill="rgb(198,175,132)" stroke="rgb(198,175,132)" stroke-width="1.51"></path><path d="M335,351L411,422L414,347Z" fill="rgb(91,152,143)" stroke="rgb(91,152,143)" stroke-width="1.51"></path><path d="M259,354L337,420L335,351Z" fill="rgb(126,162,155)" stroke="rgb(126,162,155)" stroke-width="1.51"></path><path d="M264,427L337,420L259,354Z" fill="rgb(123,146,135)" stroke="rgb(123,146,135)" stroke-width="1.51"></path><path d="M485,278L490,198L412,275Z" fill="rgb(131,197,188)" stroke="rgb(131,197,188)" stroke-width="1.51"></path><path d="M415,125L416,49L337,121Z" fill="rgb(195,189,146)" stroke="rgb(195,189,146)" stroke-width="1.51"></path><path d="M338,50L257,49L263,121Z" fill="rgb(220,180,135)" stroke="rgb(220,180,135)" stroke-width="1.51"></path><path d="M183,125L113,202L185,204Z" fill="rgb(232,204,157)" stroke="rgb(232,204,157)" stroke-width="1.51"></path><path d="M113,202L114,280L185,272Z" fill="rgb(199,186,143)" stroke="rgb(199,186,143)" stroke-width="1.51"></path><path d="M187,423L264,427L259,354Z" fill="rgb(124,141,115)" stroke="rgb(124,141,115)" stroke-width="1.51"></path><path d="M187,423L259,354L186,350Z" fill="rgb(129,147,117)" stroke="rgb(129,147,117)" stroke-width="1.51"></path><path d="M490,198L486,128L411,197Z" fill="rgb(167,202,185)" stroke="rgb(167,202,185)" stroke-width="1.51"></path><path d="M337,420L411,422L335,351Z" fill="rgb(100,144,134)" stroke="rgb(100,144,134)" stroke-width="1.51"></path><path d="M414,347L489,354L485,278Z" fill="rgb(62,154,146)" stroke="rgb(62,154,146)" stroke-width="1.51"></path><path d="M409,500L411,422L337,420Z" fill="rgb(85,137,125)" stroke="rgb(85,137,125)" stroke-width="1.51"></path><path d="M338,50L338,-23L257,49Z" fill="rgb(184,152,122)" stroke="rgb(184,152,122)" stroke-width="1.51"></path><path d="M490,52L416,49L415,125Z" fill="rgb(161,155,110)" stroke="rgb(161,155,110)" stroke-width="1.51"></path><path d="M485,278L565,270L490,198Z" fill="rgb(112,174,166)" stroke="rgb(112,174,166)" stroke-width="1.51"></path><path d="M411,422L489,354L414,347Z" fill="rgb(59,136,126)" stroke="rgb(59,136,126)" stroke-width="1.51"></path><path d="M39,354L112,347L114,280Z" fill="rgb(127,124,83)" stroke="rgb(127,124,83)" stroke-width="1.51"></path><path d="M183,125L109,129L113,202Z" fill="rgb(223,184,123)" stroke="rgb(223,184,123)" stroke-width="1.51"></path><path d="M117,46L109,129L183,125Z" fill="rgb(205,153,76)" stroke="rgb(205,153,76)" stroke-width="1.51"></path><path d="M257,49L183,48L183,125Z" fill="rgb(210,166,99)" stroke="rgb(210,166,99)" stroke-width="1.51"></path><path d="M191,-28L183,48L257,49Z" fill="rgb(176,137,83)" stroke="rgb(176,137,83)" stroke-width="1.51"></path><path d="M114,421L187,423L186,350Z" fill="rgb(115,117,76)" stroke="rgb(115,117,76)" stroke-width="1.51"></path><path d="M34,271L114,280L113,202Z" fill="rgb(183,163,122)" stroke="rgb(183,163,122)" stroke-width="1.51"></path><path d="M114,280L112,347L186,350Z" fill="rgb(143,147,104)" stroke="rgb(143,147,104)" stroke-width="1.51"></path><path d="M414,-21L338,-23L338,50Z" fill="rgb(147,136,110)" stroke="rgb(147,136,110)" stroke-width="1.51"></path><path d="M486,128L490,52L415,125Z" fill="rgb(156,165,124)" stroke="rgb(156,165,124)" stroke-width="1.51"></path><path d="M416,49L414,-21L338,50Z" fill="rgb(154,142,108)" stroke="rgb(154,142,108)" stroke-width="1.51"></path><path d="M562,124L490,52L486,128Z" fill="rgb(137,144,104)" stroke="rgb(137,144,104)" stroke-width="1.51"></path><path d="M490,198L562,124L486,128Z" fill="rgb(146,173,146)" stroke="rgb(146,173,146)" stroke-width="1.51"></path><path d="M563,350L565,270L485,278Z" fill="rgb(56,141,131)" stroke="rgb(56,141,131)" stroke-width="1.51"></path><path d="M565,270L566,198L490,198Z" fill="rgb(122,169,162)" stroke="rgb(122,169,162)" stroke-width="1.51"></path><path d="M183,48L117,46L183,125Z" fill="rgb(199,146,70)" stroke="rgb(199,146,70)" stroke-width="1.51"></path><path d="M114,-25L117,46L183,48Z" fill="rgb(158,106,39)" stroke="rgb(158,106,39)" stroke-width="1.51"></path><path d="M112,347L114,421L186,350Z" fill="rgb(120,118,76)" stroke="rgb(120,118,76)" stroke-width="1.51"></path><path d="M257,503L341,504L264,427Z" fill="rgb(123,146,135)" stroke="rgb(123,146,135)" stroke-width="1.51"></path><path d="M109,129L39,203L113,202Z" fill="rgb(209,168,120)" stroke="rgb(209,168,120)" stroke-width="1.51"></path><path d="M112,347L39,354L114,421Z" fill="rgb(105,97,56)" stroke="rgb(105,97,56)" stroke-width="1.51"></path><path d="M38,127L39,203L109,129Z" fill="rgb(195,151,97)" stroke="rgb(195,151,97)" stroke-width="1.51"></path><path d="M338,-23L261,-29L257,49Z" fill="rgb(166,139,112)" stroke="rgb(166,139,112)" stroke-width="1.51"></path><path d="M489,354L563,350L485,278Z" fill="rgb(37,133,125)" stroke="rgb(37,133,125)" stroke-width="1.51"></path><path d="M411,422L490,425L489,354Z" fill="rgb(38,111,100)" stroke="rgb(38,111,100)" stroke-width="1.51"></path><path d="M409,500L490,425L411,422Z" fill="rgb(55,122,110)" stroke="rgb(55,122,110)" stroke-width="1.51"></path><path d="M39,203L34,271L113,202Z" fill="rgb(188,158,122)" stroke="rgb(188,158,122)" stroke-width="1.51"></path><path d="M264,427L341,504L337,420Z" fill="rgb(117,146,138)" stroke="rgb(117,146,138)" stroke-width="1.51"></path><path d="M257,503L264,427L192,501Z" fill="rgb(124,141,116)" stroke="rgb(124,141,116)" stroke-width="1.51"></path><path d="M192,501L264,427L187,423Z" fill="rgb(121,135,104)" stroke="rgb(121,135,104)" stroke-width="1.51"></path><path d="M338,-23L332,-95L261,-29Z" fill="rgb(163,139,116)" stroke="rgb(163,139,116)" stroke-width="1.51"></path><path d="M483,-25L414,-21L416,49Z" fill="rgb(110,116,88)" stroke="rgb(110,116,88)" stroke-width="1.51"></path><path d="M566,198L562,124L490,198Z" fill="rgb(137,168,151)" stroke="rgb(137,168,151)" stroke-width="1.51"></path><path d="M567,423L563,350L489,354Z" fill="rgb(1,93,84)" stroke="rgb(1,93,84)" stroke-width="1.51"></path><path d="M261,-29L191,-28L257,49Z" fill="rgb(164,134,93)" stroke="rgb(164,134,93)" stroke-width="1.51"></path><path d="M341,504L409,500L337,420Z" fill="rgb(98,142,132)" stroke="rgb(98,142,132)" stroke-width="1.51"></path><path d="M-39,200L-36,280L34,271Z" fill="rgb(140,132,107)" stroke="rgb(140,132,107)" stroke-width="1.51"></path><path d="M33,46L38,127L109,129Z" fill="rgb(175,121,50)" stroke="rgb(175,121,50)" stroke-width="1.51"></path><path d="M112,502L192,501L187,423Z" fill="rgb(114,116,75)" stroke="rgb(114,116,75)" stroke-width="1.51"></path><path d="M34,271L39,354L114,280Z" fill="rgb(135,129,91)" stroke="rgb(135,129,91)" stroke-width="1.51"></path><path d="M114,421L112,502L187,423Z" fill="rgb(109,104,60)" stroke="rgb(109,104,60)" stroke-width="1.51"></path><path d="M415,-102L332,-95L338,-23Z" fill="rgb(147,135,110)" stroke="rgb(147,135,110)" stroke-width="1.51"></path><path d="M490,52L483,-25L416,49Z" fill="rgb(117,117,84)" stroke="rgb(117,117,84)" stroke-width="1.51"></path><path d="M563,-20L483,-25L490,52Z" fill="rgb(81,87,61)" stroke="rgb(81,87,61)" stroke-width="1.51"></path><path d="M562,124L567,54L490,52Z" fill="rgb(120,115,72)" stroke="rgb(120,115,72)" stroke-width="1.51"></path><path d="M634,128L567,54L562,124Z" fill="rgb(115,115,74)" stroke="rgb(115,115,74)" stroke-width="1.51"></path><path d="M117,46L33,46L109,129Z" fill="rgb(172,111,33)" stroke="rgb(172,111,33)" stroke-width="1.51"></path><path d="M191,-28L114,-25L183,48Z" fill="rgb(148,108,52)" stroke="rgb(148,108,52)" stroke-width="1.51"></path><path d="M-34,422L39,421L39,354Z" fill="rgb(64,60,31)" stroke="rgb(64,60,31)" stroke-width="1.51"></path><path d="M39,354L39,421L114,421Z" fill="rgb(86,74,36)" stroke="rgb(86,74,36)" stroke-width="1.51"></path><path d="M490,425L567,423L489,354Z" fill="rgb(12,90,80)" stroke="rgb(12,90,80)" stroke-width="1.51"></path><path d="M563,350L635,277L565,270Z" fill="rgb(49,121,110)" stroke="rgb(49,121,110)" stroke-width="1.51"></path><path d="M565,270L636,200L566,198Z" fill="rgb(112,149,141)" stroke="rgb(112,149,141)" stroke-width="1.51"></path><path d="M566,198L634,128L562,124Z" fill="rgb(126,143,114)" stroke="rgb(126,143,114)" stroke-width="1.51"></path><path d="M566,500L567,423L490,425Z" fill="rgb(1,80,70)" stroke="rgb(1,80,70)" stroke-width="1.51"></path><path d="M409,500L488,505L490,425Z" fill="rgb(39,111,100)" stroke="rgb(39,111,100)" stroke-width="1.51"></path><path d="M341,504L488,505L409,500Z" fill="rgb(69,131,118)" stroke="rgb(69,131,118)" stroke-width="1.51"></path><path d="M36,496L112,502L114,421Z" fill="rgb(94,82,41)" stroke="rgb(94,82,41)" stroke-width="1.51"></path><path d="M192,501L112,502L257,503Z" fill="rgb(117,126,89)" stroke="rgb(117,126,89)" stroke-width="1.51"></path><path d="M257,503L112,502L341,504Z" fill="rgb(124,141,115)" stroke="rgb(124,141,115)" stroke-width="1.51"></path><path d="M114,-25L33,46L117,46Z" fill="rgb(139,84,17)" stroke="rgb(139,84,17)" stroke-width="1.51"></path><path d="M-39,200L34,271L39,203Z" fill="rgb(161,141,115)" stroke="rgb(161,141,115)" stroke-width="1.51"></path><path d="M261,-29L258,-100L191,-28Z" fill="rgb(164,134,93)" stroke="rgb(164,134,93)" stroke-width="1.51"></path><path d="M191,-28L108,-98L114,-25Z" fill="rgb(140,96,36)" stroke="rgb(140,96,36)" stroke-width="1.51"></path><path d="M415,-102L338,-23L414,-21Z" fill="rgb(134,129,103)" stroke="rgb(134,129,103)" stroke-width="1.51"></path><path d="M635,346L635,277L563,350Z" fill="rgb(23,101,91)" stroke="rgb(23,101,91)" stroke-width="1.51"></path><path d="M635,277L636,200L565,270Z" fill="rgb(93,140,129)" stroke="rgb(93,140,129)" stroke-width="1.51"></path><path d="M332,-95L258,-100L261,-29Z" fill="rgb(166,138,111)" stroke="rgb(166,138,111)" stroke-width="1.51"></path><path d="M34,271L-36,280L39,354Z" fill="rgb(109,113,85)" stroke="rgb(109,113,85)" stroke-width="1.51"></path><path d="M-39,200L39,203L38,127Z" fill="rgb(172,141,106)" stroke="rgb(172,141,106)" stroke-width="1.51"></path><path d="M-36,122L-39,200L38,127Z" fill="rgb(162,130,87)" stroke="rgb(162,130,87)" stroke-width="1.51"></path><path d="M636,200L634,128L566,198Z" fill="rgb(124,144,126)" stroke="rgb(124,144,126)" stroke-width="1.51"></path><path d="M567,423L635,346L563,350Z" fill="rgb(0,78,68)" stroke="rgb(0,78,68)" stroke-width="1.51"></path><path d="M635,277L708,200L636,200Z" fill="rgb(108,144,135)" stroke="rgb(108,144,135)" stroke-width="1.51"></path><path d="M483,-25L415,-102L414,-21Z" fill="rgb(110,116,88)" stroke="rgb(110,116,88)" stroke-width="1.51"></path><path d="M332,-95L415,-102L258,-100Z" fill="rgb(155,138,114)" stroke="rgb(155,138,114)" stroke-width="1.51"></path><path d="M485,-98L415,-102L483,-25Z" fill="rgb(99,106,80)" stroke="rgb(99,106,80)" stroke-width="1.51"></path><path d="M415,-102L191,-105L258,-100Z" fill="rgb(166,139,113)" stroke="rgb(166,139,113)" stroke-width="1.51"></path><path d="M258,-100L191,-105L191,-28Z" fill="rgb(159,127,81)" stroke="rgb(159,127,81)" stroke-width="1.51"></path><path d="M114,-25L34,-28L33,46Z" fill="rgb(111,64,8)" stroke="rgb(111,64,8)" stroke-width="1.51"></path><path d="M33,46L-36,122L38,127Z" fill="rgb(149,104,44)" stroke="rgb(149,104,44)" stroke-width="1.51"></path><path d="M-36,280L-41,349L39,354Z" fill="rgb(86,94,68)" stroke="rgb(86,94,68)" stroke-width="1.51"></path><path d="M39,421L36,496L114,421Z" fill="rgb(85,73,35)" stroke="rgb(85,73,35)" stroke-width="1.51"></path><path d="M-113,351L-41,349L-36,280Z" fill="rgb(86,95,69)" stroke="rgb(86,95,69)" stroke-width="1.51"></path><path d="M567,54L563,-20L490,52Z" fill="rgb(91,88,55)" stroke="rgb(91,88,55)" stroke-width="1.51"></path><path d="M638,47L563,-20L567,54Z" fill="rgb(77,70,36)" stroke="rgb(77,70,36)" stroke-width="1.51"></path><path d="M567,423L640,421L635,346Z" fill="rgb(0,61,50)" stroke="rgb(0,61,50)" stroke-width="1.51"></path><path d="M488,505L566,500L490,425Z" fill="rgb(12,90,80)" stroke="rgb(12,90,80)" stroke-width="1.51"></path><path d="M-34,422L36,496L39,421Z" fill="rgb(63,59,30)" stroke="rgb(63,59,30)" stroke-width="1.51"></path><path d="M33,46L-39,51L-36,122Z" fill="rgb(131,83,22)" stroke="rgb(131,83,22)" stroke-width="1.51"></path><path d="M108,-98L34,-28L114,-25Z" fill="rgb(121,74,15)" stroke="rgb(121,74,15)" stroke-width="1.51"></path><path d="M557,-102L485,-98L483,-25Z" fill="rgb(80,87,62)" stroke="rgb(80,87,62)" stroke-width="1.51"></path><path d="M563,-20L557,-102L483,-25Z" fill="rgb(72,78,52)" stroke="rgb(72,78,52)" stroke-width="1.51"></path><path d="M634,128L638,47L567,54Z" fill="rgb(104,93,48)" stroke="rgb(104,93,48)" stroke-width="1.51"></path><path d="M711,127L638,47L634,128Z" fill="rgb(112,110,68)" stroke="rgb(112,110,68)" stroke-width="1.51"></path><path d="M708,200L634,128L636,200Z" fill="rgb(124,144,126)" stroke="rgb(124,144,126)" stroke-width="1.51"></path><path d="M715,272L708,200L635,277Z" fill="rgb(92,139,129)" stroke="rgb(92,139,129)" stroke-width="1.51"></path><path d="M632,499L640,421L567,423Z" fill="rgb(0,60,48)" stroke="rgb(0,60,48)" stroke-width="1.51"></path><path d="M191,-105L108,-98L191,-28Z" fill="rgb(148,109,52)" stroke="rgb(148,109,52)" stroke-width="1.51"></path><path d="M-41,349L-34,422L39,354Z" fill="rgb(65,68,42)" stroke="rgb(65,68,42)" stroke-width="1.51"></path><path d="M-39,200L-115,271L-36,280Z" fill="rgb(140,132,107)" stroke="rgb(140,132,107)" stroke-width="1.51"></path><path d="M-112,124L-114,200L-39,200Z" fill="rgb(165,137,103)" stroke="rgb(165,137,103)" stroke-width="1.51"></path><path d="M-33,-21L-39,51L33,46Z" fill="rgb(101,58,7)" stroke="rgb(101,58,7)" stroke-width="1.51"></path><path d="M715,272L635,277L635,346Z" fill="rgb(48,117,106)" stroke="rgb(48,117,106)" stroke-width="1.51"></path><path d="M714,352L715,272L635,346Z" fill="rgb(24,102,92)" stroke="rgb(24,102,92)" stroke-width="1.51"></path><path d="M-112,124L-39,200L-36,122Z" fill="rgb(161,129,86)" stroke="rgb(161,129,86)" stroke-width="1.51"></path><path d="M-41,349L-113,351L-34,422Z" fill="rgb(66,69,43)" stroke="rgb(66,69,43)" stroke-width="1.51"></path><path d="M-114,200L-115,271L-39,200Z" fill="rgb(155,138,114)" stroke="rgb(155,138,114)" stroke-width="1.51"></path><path d="M485,-98L557,-102L415,-102Z" fill="rgb(88,96,70)" stroke="rgb(88,96,70)" stroke-width="1.51"></path><path d="M415,-102L557,-102L191,-105Z" fill="rgb(134,130,103)" stroke="rgb(134,130,103)" stroke-width="1.51"></path><path d="M637,-23L557,-102L563,-20Z" fill="rgb(60,60,34)" stroke="rgb(60,60,34)" stroke-width="1.51"></path><path d="M638,47L637,-23L563,-20Z" fill="rgb(58,56,29)" stroke="rgb(58,56,29)" stroke-width="1.51"></path><path d="M714,-23L637,-23L638,47Z" fill="rgb(57,55,29)" stroke="rgb(57,55,29)" stroke-width="1.51"></path><path d="M715,272L711,127L708,200Z" fill="rgb(122,148,140)" stroke="rgb(122,148,140)" stroke-width="1.51"></path><path d="M708,200L711,127L634,128Z" fill="rgb(123,138,110)" stroke="rgb(123,138,110)" stroke-width="1.51"></path><path d="M640,421L714,352L635,346Z" fill="rgb(1,74,63)" stroke="rgb(1,74,63)" stroke-width="1.51"></path><path d="M566,500L632,499L567,423Z" fill="rgb(0,64,52)" stroke="rgb(0,64,52)" stroke-width="1.51"></path><path d="M488,505L632,499L566,500Z" fill="rgb(1,73,62)" stroke="rgb(1,73,62)" stroke-width="1.51"></path><path d="M34,-28L-33,-21L33,46Z" fill="rgb(89,51,6)" stroke="rgb(89,51,6)" stroke-width="1.51"></path><path d="M-39,51L-112,124L-36,122Z" fill="rgb(143,101,43)" stroke="rgb(143,101,43)" stroke-width="1.51"></path><path d="M-40,-100L-33,-21L34,-28Z" fill="rgb(84,48,5)" stroke="rgb(84,48,5)" stroke-width="1.51"></path><path d="M108,-98L36,-97L34,-28Z" fill="rgb(111,64,8)" stroke="rgb(111,64,8)" stroke-width="1.51"></path><path d="M191,-105L36,-97L108,-98Z" fill="rgb(132,84,22)" stroke="rgb(132,84,22)" stroke-width="1.51"></path><path d="M713,427L714,352L640,421Z" fill="rgb(0,60,48)" stroke="rgb(0,60,48)" stroke-width="1.51"></path><path d="M-114,51L-112,124L-39,51Z" fill="rgb(133,84,23)" stroke="rgb(133,84,23)" stroke-width="1.51"></path><path d="M36,496L-40,496L112,502Z" fill="rgb(73,65,32)" stroke="rgb(73,65,32)" stroke-width="1.51"></path><path d="M-34,422L-40,496L36,496Z" fill="rgb(57,55,29)" stroke="rgb(57,55,29)" stroke-width="1.51"></path><path d="M-115,427L-40,496L-34,422Z" fill="rgb(57,55,29)" stroke="rgb(57,55,29)" stroke-width="1.51"></path><path d="M-115,271L-113,351L-36,280Z" fill="rgb(103,110,83)" stroke="rgb(103,110,83)" stroke-width="1.51"></path><path d="M712,497L713,427L640,421Z" fill="rgb(0,60,48)" stroke="rgb(0,60,48)" stroke-width="1.51"></path><path d="M711,127L716,46L638,47Z" fill="rgb(102,91,47)" stroke="rgb(102,91,47)" stroke-width="1.51"></path><path d="M637,-23L640,-102L557,-102Z" fill="rgb(57,55,29)" stroke="rgb(57,55,29)" stroke-width="1.51"></path><path d="M715,272L716,46L711,127Z" fill="rgb(122,137,108)" stroke="rgb(122,137,108)" stroke-width="1.51"></path><path d="M-112,124L-114,51L-114,200Z" fill="rgb(153,119,67)" stroke="rgb(153,119,67)" stroke-width="1.51"></path><path d="M-114,200L-114,51L-115,271Z" fill="rgb(165,137,103)" stroke="rgb(165,137,103)" stroke-width="1.51"></path><path d="M-112,-27L-114,51L-39,51Z" fill="rgb(101,58,7)" stroke="rgb(101,58,7)" stroke-width="1.51"></path><path d="M-112,-27L-39,51L-33,-21Z" fill="rgb(84,48,5)" stroke="rgb(84,48,5)" stroke-width="1.51"></path><path d="M-115,271L-115,427L-113,351Z" fill="rgb(75,81,56)" stroke="rgb(75,81,56)" stroke-width="1.51"></path><path d="M-113,351L-115,427L-34,422Z" fill="rgb(57,55,29)" stroke="rgb(57,55,29)" stroke-width="1.51"></path><path d="M709,-98L640,-102L637,-23Z" fill="rgb(57,55,29)" stroke="rgb(57,55,29)" stroke-width="1.51"></path><path d="M557,-102L640,-102L191,-105Z" fill="rgb(98,105,79)" stroke="rgb(98,105,79)" stroke-width="1.51"></path><path d="M36,-97L-40,-100L34,-28Z" fill="rgb(88,50,6)" stroke="rgb(88,50,6)" stroke-width="1.51"></path><path d="M191,-105L-40,-100L36,-97Z" fill="rgb(112,65,9)" stroke="rgb(112,65,9)" stroke-width="1.51"></path><path d="M716,46L714,-23L638,47Z" fill="rgb(72,65,32)" stroke="rgb(72,65,32)" stroke-width="1.51"></path><path d="M632,499L712,497L640,421Z" fill="rgb(0,60,48)" stroke="rgb(0,60,48)" stroke-width="1.51"></path><path d="M488,505L712,497L632,499Z" fill="rgb(0,60,48)" stroke="rgb(0,60,48)" stroke-width="1.51"></path><path d="M-40,-100L-112,-27L-33,-21Z" fill="rgb(84,48,5)" stroke="rgb(84,48,5)" stroke-width="1.51"></path><path d="M-40,496L-115,497L112,502Z" fill="rgb(57,55,29)" stroke="rgb(57,55,29)" stroke-width="1.51"></path><path d="M-115,427L-115,497L-40,496Z" fill="rgb(57,55,29)" stroke="rgb(57,55,29)" stroke-width="1.51"></path><path d="M714,-23L709,-98L637,-23Z" fill="rgb(57,55,29)" stroke="rgb(57,55,29)" stroke-width="1.51"></path><path d="M-40,-100L-109,-102L-112,-27Z" fill="rgb(84,48,5)" stroke="rgb(84,48,5)" stroke-width="1.51"></path><path d="M191,-105L-109,-102L-40,-100Z" fill="rgb(90,51,6)" stroke="rgb(90,51,6)" stroke-width="1.51"></path></svg>