<svg width="600" height="400" xmlns="http://www.w3.org/2000/svg"><path d="M263,199L336,125L261,126Z" fill="rgb(152,212,133)" stroke="rgb(152,212,133)" stroke-width="1.51"></path><path d="M263,199L337,200L336,125Z" fill="rgb(130,202,124)" stroke="rgb(130,202,124)" stroke-width="1.51"></path><path d="M336,125L263,50L261,126Z" fill="rgb(174,221,144)" stroke="rgb(174,221,144)" stroke-width="1.51"></path><path d="M336,125L338,51L263,50Z" fill="rgb(174,220,145)" stroke="rgb(174,220,145)" stroke-width="1.51"></path><path d="M412,126L338,51L336,125Z" fill="rgb(150,208,130)" stroke="rgb(150,208,130)" stroke-width="1.51"></path><path d="M261,126L187,199L263,199Z" fill="rgb(156,214,135)" stroke="rgb(156,214,135)" stroke-width="1.51"></path><path d="M263,199L261,274L337,200Z" fill="rgb(113,194,116)" stroke="rgb(113,194,116)" stroke-width="1.51"></path><path d="M186,124L187,199L261,126Z" fill="rgb(177,223,144)" stroke="rgb(177,223,144)" stroke-width="1.51"></path><path d="M337,200L412,126L336,125Z" fill="rgb(127,199,120)" stroke="rgb(127,199,120)" stroke-width="1.51"></path><path d="M187,199L261,274L263,199Z" fill="rgb(131,201,123)" stroke="rgb(131,201,123)" stroke-width="1.51"></path><path d="M188,50L186,124L261,126Z" fill="rgb(199,232,154)" stroke="rgb(199,232,154)" stroke-width="1.51"></path><path d="M261,274L338,274L337,200Z" fill="rgb(90,182,104)" stroke="rgb(90,182,104)" stroke-width="1.51"></path><path d="M337,200L412,200L412,126Z" fill="rgb(106,187,110)" stroke="rgb(106,187,110)" stroke-width="1.51"></path><path d="M338,274L412,200L337,200Z" fill="rgb(85,180,102)" stroke="rgb(85,180,102)" stroke-width="1.51"></path><path d="M263,50L188,50L261,126Z" fill="rgb(199,232,156)" stroke="rgb(199,232,156)" stroke-width="1.51"></path><path d="M187,199L188,275L261,274Z" fill="rgb(127,198,119)" stroke="rgb(127,198,119)" stroke-width="1.51"></path><path d="M337,350L411,276L338,274Z" fill="rgb(56,154,82)" stroke="rgb(56,154,82)" stroke-width="1.51"></path><path d="M113,200L188,275L187,199Z" fill="rgb(154,211,133)" stroke="rgb(154,211,133)" stroke-width="1.51"></path><path d="M337,350L338,274L261,274Z" fill="rgb(76,163,91)" stroke="rgb(76,163,91)" stroke-width="1.51"></path><path d="M338,274L411,276L412,200Z" fill="rgb(63,168,91)" stroke="rgb(63,168,91)" stroke-width="1.51"></path><path d="M412,126L413,48L338,51Z" fill="rgb(151,205,130)" stroke="rgb(151,205,130)" stroke-width="1.51"></path><path d="M338,51L337,-24L263,50Z" fill="rgb(183,223,160)" stroke="rgb(183,223,160)" stroke-width="1.51"></path><path d="M263,50L261,-25L188,50Z" fill="rgb(208,235,173)" stroke="rgb(208,235,173)" stroke-width="1.51"></path><path d="M487,123L413,48L412,126Z" fill="rgb(134,188,115)" stroke="rgb(134,188,115)" stroke-width="1.51"></path><path d="M413,48L337,-24L338,51Z" fill="rgb(167,214,151)" stroke="rgb(167,214,151)" stroke-width="1.51"></path><path d="M186,124L113,200L187,199Z" fill="rgb(179,224,146)" stroke="rgb(179,224,146)" stroke-width="1.51"></path><path d="M188,50L113,123L186,124Z" fill="rgb(214,239,161)" stroke="rgb(214,239,161)" stroke-width="1.51"></path><path d="M113,123L113,200L186,124Z" fill="rgb(198,232,154)" stroke="rgb(198,232,154)" stroke-width="1.51"></path><path d="M337,-24L261,-25L263,50Z" fill="rgb(194,229,176)" stroke="rgb(194,229,176)" stroke-width="1.51"></path><path d="M188,50L111,49L113,123Z" fill="rgb(228,244,170)" stroke="rgb(228,244,170)" stroke-width="1.51"></path><path d="M412,200L486,200L412,126Z" fill="rgb(97,174,101)" stroke="rgb(97,174,101)" stroke-width="1.51"></path><path d="M486,275L486,200L412,200Z" fill="rgb(64,156,86)" stroke="rgb(64,156,86)" stroke-width="1.51"></path><path d="M486,200L487,123L412,126Z" fill="rgb(107,174,102)" stroke="rgb(107,174,102)" stroke-width="1.51"></path><path d="M188,275L261,350L261,274Z" fill="rgb(104,174,102)" stroke="rgb(104,174,102)" stroke-width="1.51"></path><path d="M186,349L261,350L188,275Z" fill="rgb(107,170,102)" stroke="rgb(107,170,102)" stroke-width="1.51"></path><path d="M261,350L337,350L261,274Z" fill="rgb(80,159,92)" stroke="rgb(80,159,92)" stroke-width="1.51"></path><path d="M113,200L113,276L188,275Z" fill="rgb(148,207,129)" stroke="rgb(148,207,129)" stroke-width="1.51"></path><path d="M411,276L486,275L412,200Z" fill="rgb(53,155,82)" stroke="rgb(53,155,82)" stroke-width="1.51"></path><path d="M486,200L561,200L487,123Z" fill="rgb(86,158,93)" stroke="rgb(86,158,93)" stroke-width="1.51"></path><path d="M411,350L486,275L411,276Z" fill="rgb(38,135,69)" stroke="rgb(38,135,69)" stroke-width="1.51"></path><path d="M261,-25L186,-26L188,50Z" fill="rgb(218,240,187)" stroke="rgb(218,240,187)" stroke-width="1.51"></path><path d="M187,-100L186,-26L261,-25Z" fill="rgb(218,240,187)" stroke="rgb(218,240,187)" stroke-width="1.51"></path><path d="M337,-24L261,-100L261,-25Z" fill="rgb(194,229,176)" stroke="rgb(194,229,176)" stroke-width="1.51"></path><path d="M413,48L412,-26L337,-24Z" fill="rgb(163,210,157)" stroke="rgb(163,210,157)" stroke-width="1.51"></path><path d="M488,-26L412,-26L413,48Z" fill="rgb(153,196,147)" stroke="rgb(153,196,147)" stroke-width="1.51"></path><path d="M113,276L186,349L188,275Z" fill="rgb(128,184,112)" stroke="rgb(128,184,112)" stroke-width="1.51"></path><path d="M113,-24L111,49L188,50Z" fill="rgb(237,248,187)" stroke="rgb(237,248,187)" stroke-width="1.51"></path><path d="M113,123L37,200L113,200Z" fill="rgb(196,230,156)" stroke="rgb(196,230,156)" stroke-width="1.51"></path><path d="M113,200L36,273L113,276Z" fill="rgb(159,211,136)" stroke="rgb(159,211,136)" stroke-width="1.51"></path><path d="M337,350L411,350L411,276Z" fill="rgb(42,141,75)" stroke="rgb(42,141,75)" stroke-width="1.51"></path><path d="M487,123L488,50L413,48Z" fill="rgb(137,186,118)" stroke="rgb(137,186,118)" stroke-width="1.51"></path><path d="M563,50L488,50L487,123Z" fill="rgb(129,176,113)" stroke="rgb(129,176,113)" stroke-width="1.51"></path><path d="M186,-26L113,-24L188,50Z" fill="rgb(233,246,194)" stroke="rgb(233,246,194)" stroke-width="1.51"></path><path d="M338,-101L261,-100L337,-24Z" fill="rgb(185,225,171)" stroke="rgb(185,225,171)" stroke-width="1.51"></path><path d="M186,-26L111,-100L113,-24Z" fill="rgb(239,249,198)" stroke="rgb(239,249,198)" stroke-width="1.51"></path><path d="M36,124L113,123L111,49Z" fill="rgb(230,245,173)" stroke="rgb(230,245,173)" stroke-width="1.51"></path><path d="M36,124L37,200L113,123Z" fill="rgb(212,237,167)" stroke="rgb(212,237,167)" stroke-width="1.51"></path><path d="M113,276L113,350L186,349Z" fill="rgb(128,179,112)" stroke="rgb(128,179,112)" stroke-width="1.51"></path><path d="M186,425L263,424L261,350Z" fill="rgb(86,140,88)" stroke="rgb(86,140,88)" stroke-width="1.51"></path><path d="M38,349L113,350L113,276Z" fill="rgb(138,183,118)" stroke="rgb(138,183,118)" stroke-width="1.51"></path><path d="M486,275L561,200L486,200Z" fill="rgb(56,146,81)" stroke="rgb(56,146,81)" stroke-width="1.51"></path><path d="M261,350L263,424L337,350Z" fill="rgb(71,142,85)" stroke="rgb(71,142,85)" stroke-width="1.51"></path><path d="M337,350L338,424L411,350Z" fill="rgb(41,130,72)" stroke="rgb(41,130,72)" stroke-width="1.51"></path><path d="M186,425L261,350L186,349Z" fill="rgb(97,153,95)" stroke="rgb(97,153,95)" stroke-width="1.51"></path><path d="M412,-26L338,-101L337,-24Z" fill="rgb(169,216,162)" stroke="rgb(169,216,162)" stroke-width="1.51"></path><path d="M413,-102L338,-101L412,-26Z" fill="rgb(163,210,157)" stroke="rgb(163,210,157)" stroke-width="1.51"></path><path d="M263,424L338,424L337,350Z" fill="rgb(58,128,77)" stroke="rgb(58,128,77)" stroke-width="1.51"></path><path d="M411,350L488,351L486,275Z" fill="rgb(26,123,63)" stroke="rgb(26,123,63)" stroke-width="1.51"></path><path d="M486,275L563,275L561,200Z" fill="rgb(37,134,73)" stroke="rgb(37,134,73)" stroke-width="1.51"></path><path d="M37,49L36,124L111,49Z" fill="rgb(241,250,183)" stroke="rgb(241,250,183)" stroke-width="1.51"></path><path d="M488,50L488,-26L413,48Z" fill="rgb(146,190,134)" stroke="rgb(146,190,134)" stroke-width="1.51"></path><path d="M562,-25L488,-26L488,50Z" fill="rgb(140,181,139)" stroke="rgb(140,181,139)" stroke-width="1.51"></path><path d="M561,200L563,126L487,123Z" fill="rgb(96,158,96)" stroke="rgb(96,158,96)" stroke-width="1.51"></path><path d="M413,425L488,351L411,350Z" fill="rgb(22,111,59)" stroke="rgb(22,111,59)" stroke-width="1.51"></path><path d="M338,-101L187,-100L261,-100Z" fill="rgb(202,233,180)" stroke="rgb(202,233,180)" stroke-width="1.51"></path><path d="M261,-100L187,-100L261,-25Z" fill="rgb(211,237,184)" stroke="rgb(211,237,184)" stroke-width="1.51"></path><path d="M36,-26L37,49L113,-24Z" fill="rgb(252,254,211)" stroke="rgb(252,254,211)" stroke-width="1.51"></path><path d="M113,-24L37,49L111,49Z" fill="rgb(247,252,194)" stroke="rgb(247,252,194)" stroke-width="1.51"></path><path d="M37,200L36,273L113,200Z" fill="rgb(175,219,149)" stroke="rgb(175,219,149)" stroke-width="1.51"></path><path d="M-38,198L36,273L37,200Z" fill="rgb(177,220,164)" stroke="rgb(177,220,164)" stroke-width="1.51"></path><path d="M563,126L563,50L487,123Z" fill="rgb(118,167,105)" stroke="rgb(118,167,105)" stroke-width="1.51"></path><path d="M113,350L186,425L186,349Z" fill="rgb(112,159,101)" stroke="rgb(112,159,101)" stroke-width="1.51"></path><path d="M338,501L413,425L338,424Z" fill="rgb(39,120,68)" stroke="rgb(39,120,68)" stroke-width="1.51"></path><path d="M112,425L186,425L113,350Z" fill="rgb(114,151,100)" stroke="rgb(114,151,100)" stroke-width="1.51"></path><path d="M338,-101L36,-101L187,-100Z" fill="rgb(225,243,191)" stroke="rgb(225,243,191)" stroke-width="1.51"></path><path d="M487,-100L413,-102L412,-26Z" fill="rgb(153,196,147)" stroke="rgb(153,196,147)" stroke-width="1.51"></path><path d="M338,424L413,425L411,350Z" fill="rgb(31,115,64)" stroke="rgb(31,115,64)" stroke-width="1.51"></path><path d="M262,499L338,424L263,424Z" fill="rgb(67,133,81)" stroke="rgb(67,133,81)" stroke-width="1.51"></path><path d="M488,351L563,275L486,275Z" fill="rgb(23,120,62)" stroke="rgb(23,120,62)" stroke-width="1.51"></path><path d="M637,200L637,123L563,126Z" fill="rgb(90,141,89)" stroke="rgb(90,141,89)" stroke-width="1.51"></path><path d="M36,273L38,349L113,276Z" fill="rgb(148,192,127)" stroke="rgb(148,192,127)" stroke-width="1.51"></path><path d="M187,-100L111,-100L186,-26Z" fill="rgb(233,246,194)" stroke="rgb(233,246,194)" stroke-width="1.51"></path><path d="M36,-101L111,-100L187,-100Z" fill="rgb(244,251,202)" stroke="rgb(244,251,202)" stroke-width="1.51"></path><path d="M563,-100L487,-100L488,-26Z" fill="rgb(140,181,139)" stroke="rgb(140,181,139)" stroke-width="1.51"></path><path d="M488,-26L487,-100L412,-26Z" fill="rgb(148,190,143)" stroke="rgb(148,190,143)" stroke-width="1.51"></path><path d="M563,50L562,-25L488,50Z" fill="rgb(135,173,126)" stroke="rgb(135,173,126)" stroke-width="1.51"></path><path d="M111,-100L36,-26L113,-24Z" fill="rgb(249,253,206)" stroke="rgb(249,253,206)" stroke-width="1.51"></path><path d="M-39,50L-37,125L36,124Z" fill="rgb(236,248,196)" stroke="rgb(236,248,196)" stroke-width="1.51"></path><path d="M38,349L112,425L113,350Z" fill="rgb(128,165,111)" stroke="rgb(128,165,111)" stroke-width="1.51"></path><path d="M413,425L487,425L488,351Z" fill="rgb(15,97,53)" stroke="rgb(15,97,53)" stroke-width="1.51"></path><path d="M488,351L562,351L563,275Z" fill="rgb(10,107,57)" stroke="rgb(10,107,57)" stroke-width="1.51"></path><path d="M562,423L562,351L488,351Z" fill="rgb(0,92,50)" stroke="rgb(0,92,50)" stroke-width="1.51"></path><path d="M36,124L-38,198L37,200Z" fill="rgb(202,233,176)" stroke="rgb(202,233,176)" stroke-width="1.51"></path><path d="M36,273L-39,275L38,349Z" fill="rgb(150,193,142)" stroke="rgb(150,193,142)" stroke-width="1.51"></path><path d="M-39,50L36,124L37,49Z" fill="rgb(243,251,198)" stroke="rgb(243,251,198)" stroke-width="1.51"></path><path d="M-37,125L-38,198L36,124Z" fill="rgb(215,238,185)" stroke="rgb(215,238,185)" stroke-width="1.51"></path><path d="M188,498L263,424L186,425Z" fill="rgb(94,143,91)" stroke="rgb(94,143,91)" stroke-width="1.51"></path><path d="M188,498L262,499L263,424Z" fill="rgb(85,140,87)" stroke="rgb(85,140,87)" stroke-width="1.51"></path><path d="M413,425L486,499L487,425Z" fill="rgb(15,97,53)" stroke="rgb(15,97,53)" stroke-width="1.51"></path><path d="M563,126L637,123L563,50Z" fill="rgb(113,154,100)" stroke="rgb(113,154,100)" stroke-width="1.51"></path><path d="M563,50L638,48L562,-25Z" fill="rgb(129,161,120)" stroke="rgb(129,161,120)" stroke-width="1.51"></path><path d="M637,200L563,126L561,200Z" fill="rgb(78,139,85)" stroke="rgb(78,139,85)" stroke-width="1.51"></path><path d="M637,200L561,200L563,275Z" fill="rgb(50,127,74)" stroke="rgb(50,127,74)" stroke-width="1.51"></path><path d="M636,275L637,200L563,275Z" fill="rgb(33,118,66)" stroke="rgb(33,118,66)" stroke-width="1.51"></path><path d="M262,499L338,501L338,424Z" fill="rgb(58,128,77)" stroke="rgb(58,128,77)" stroke-width="1.51"></path><path d="M262,499L111,500L338,501Z" fill="rgb(86,140,88)" stroke="rgb(86,140,88)" stroke-width="1.51"></path><path d="M112,425L188,498L186,425Z" fill="rgb(108,149,97)" stroke="rgb(108,149,97)" stroke-width="1.51"></path><path d="M638,348L636,275L563,275Z" fill="rgb(17,100,54)" stroke="rgb(17,100,54)" stroke-width="1.51"></path><path d="M-114,124L-113,200L-38,198Z" fill="rgb(202,233,180)" stroke="rgb(202,233,180)" stroke-width="1.51"></path><path d="M-39,-24L-39,50L37,49Z" fill="rgb(253,254,218)" stroke="rgb(253,254,218)" stroke-width="1.51"></path><path d="M-38,198L-39,275L36,273Z" fill="rgb(166,214,160)" stroke="rgb(166,214,160)" stroke-width="1.51"></path><path d="M38,349L37,425L112,425Z" fill="rgb(127,157,112)" stroke="rgb(127,157,112)" stroke-width="1.51"></path><path d="M-113,200L-39,275L-38,198Z" fill="rgb(178,220,167)" stroke="rgb(178,220,167)" stroke-width="1.51"></path><path d="M712,51L638,48L637,123Z" fill="rgb(119,153,104)" stroke="rgb(119,153,104)" stroke-width="1.51"></path><path d="M637,123L638,48L563,50Z" fill="rgb(119,153,104)" stroke="rgb(119,153,104)" stroke-width="1.51"></path><path d="M562,-25L563,-100L488,-26Z" fill="rgb(137,174,136)" stroke="rgb(137,174,136)" stroke-width="1.51"></path><path d="M338,501L413,501L413,425Z" fill="rgb(31,115,64)" stroke="rgb(31,115,64)" stroke-width="1.51"></path><path d="M487,425L562,423L488,351Z" fill="rgb(3,89,49)" stroke="rgb(3,89,49)" stroke-width="1.51"></path><path d="M562,351L638,348L563,275Z" fill="rgb(9,96,52)" stroke="rgb(9,96,52)" stroke-width="1.51"></path><path d="M563,499L562,423L487,425Z" fill="rgb(0,83,47)" stroke="rgb(0,83,47)" stroke-width="1.51"></path><path d="M36,-26L-39,-24L37,49Z" fill="rgb(255,255,226)" stroke="rgb(255,255,226)" stroke-width="1.51"></path><path d="M111,-100L36,-101L36,-26Z" fill="rgb(252,254,211)" stroke="rgb(252,254,211)" stroke-width="1.51"></path><path d="M413,-102L36,-101L338,-101Z" fill="rgb(202,233,179)" stroke="rgb(202,233,179)" stroke-width="1.51"></path><path d="M112,425L111,500L188,498Z" fill="rgb(114,151,100)" stroke="rgb(114,151,100)" stroke-width="1.51"></path><path d="M-39,350L37,425L38,349Z" fill="rgb(133,168,130)" stroke="rgb(133,168,130)" stroke-width="1.51"></path><path d="M637,-26L563,-100L562,-25Z" fill="rgb(131,161,130)" stroke="rgb(131,161,130)" stroke-width="1.51"></path><path d="M487,-100L563,-100L413,-102Z" fill="rgb(144,185,141)" stroke="rgb(144,185,141)" stroke-width="1.51"></path><path d="M-39,-99L-39,-24L36,-26Z" fill="rgb(255,255,229)" stroke="rgb(255,255,229)" stroke-width="1.51"></path><path d="M413,501L486,499L413,425Z" fill="rgb(20,102,56)" stroke="rgb(20,102,56)" stroke-width="1.51"></path><path d="M638,48L637,-26L562,-25Z" fill="rgb(129,158,129)" stroke="rgb(129,158,129)" stroke-width="1.51"></path><path d="M636,423L638,348L562,351Z" fill="rgb(0,78,44)" stroke="rgb(0,78,44)" stroke-width="1.51"></path><path d="M711,199L711,124L637,200Z" fill="rgb(77,136,84)" stroke="rgb(77,136,84)" stroke-width="1.51"></path><path d="M637,200L711,124L637,123Z" fill="rgb(90,141,89)" stroke="rgb(90,141,89)" stroke-width="1.51"></path><path d="M636,423L562,351L562,423Z" fill="rgb(0,72,42)" stroke="rgb(0,72,42)" stroke-width="1.51"></path><path d="M-39,275L-39,350L38,349Z" fill="rgb(144,185,141)" stroke="rgb(144,185,141)" stroke-width="1.51"></path><path d="M37,425L111,500L112,425Z" fill="rgb(123,155,107)" stroke="rgb(123,155,107)" stroke-width="1.51"></path><path d="M188,498L111,500L262,499Z" fill="rgb(101,146,94)" stroke="rgb(101,146,94)" stroke-width="1.51"></path><path d="M37,500L111,500L37,425Z" fill="rgb(127,157,112)" stroke="rgb(127,157,112)" stroke-width="1.51"></path><path d="M711,199L637,200L712,276Z" fill="rgb(49,124,73)" stroke="rgb(49,124,73)" stroke-width="1.51"></path><path d="M638,48L712,-26L637,-26Z" fill="rgb(129,158,129)" stroke="rgb(129,158,129)" stroke-width="1.51"></path><path d="M712,276L637,200L636,275Z" fill="rgb(33,118,66)" stroke="rgb(33,118,66)" stroke-width="1.51"></path><path d="M-114,124L-37,125L-39,50Z" fill="rgb(236,248,196)" stroke="rgb(236,248,196)" stroke-width="1.51"></path><path d="M-114,124L-38,198L-37,125Z" fill="rgb(215,238,185)" stroke="rgb(215,238,185)" stroke-width="1.51"></path><path d="M-39,275L-113,275L-39,350Z" fill="rgb(150,193,145)" stroke="rgb(150,193,145)" stroke-width="1.51"></path><path d="M-114,51L-114,124L-39,50Z" fill="rgb(244,251,202)" stroke="rgb(244,251,202)" stroke-width="1.51"></path><path d="M638,348L712,276L636,275Z" fill="rgb(17,100,54)" stroke="rgb(17,100,54)" stroke-width="1.51"></path><path d="M563,499L636,423L562,423Z" fill="rgb(0,72,42)" stroke="rgb(0,72,42)" stroke-width="1.51"></path><path d="M36,-101L-39,-99L36,-26Z" fill="rgb(255,255,226)" stroke="rgb(255,255,226)" stroke-width="1.51"></path><path d="M-112,-25L-114,51L-39,50Z" fill="rgb(253,254,218)" stroke="rgb(253,254,218)" stroke-width="1.51"></path><path d="M-113,200L-113,275L-39,275Z" fill="rgb(165,214,159)" stroke="rgb(165,214,159)" stroke-width="1.51"></path><path d="M-114,349L-113,275L-113,200Z" fill="rgb(158,204,152)" stroke="rgb(158,204,152)" stroke-width="1.51"></path><path d="M711,-100L637,-100L637,-26Z" fill="rgb(129,158,129)" stroke="rgb(129,158,129)" stroke-width="1.51"></path><path d="M637,-26L637,-100L563,-100Z" fill="rgb(129,158,129)" stroke="rgb(129,158,129)" stroke-width="1.51"></path><path d="M563,-100L637,-100L413,-102Z" fill="rgb(137,174,136)" stroke="rgb(137,174,136)" stroke-width="1.51"></path><path d="M-112,-25L-39,50L-39,-24Z" fill="rgb(255,255,229)" stroke="rgb(255,255,229)" stroke-width="1.51"></path><path d="M711,199L712,51L711,124Z" fill="rgb(101,146,94)" stroke="rgb(101,146,94)" stroke-width="1.51"></path><path d="M711,124L712,51L637,123Z" fill="rgb(111,150,99)" stroke="rgb(111,150,99)" stroke-width="1.51"></path><path d="M-113,426L-37,426L-39,350Z" fill="rgb(129,158,129)" stroke="rgb(129,158,129)" stroke-width="1.51"></path><path d="M-39,350L-37,426L37,425Z" fill="rgb(129,158,129)" stroke="rgb(129,158,129)" stroke-width="1.51"></path><path d="M-37,426L37,500L37,425Z" fill="rgb(129,158,125)" stroke="rgb(129,158,125)" stroke-width="1.51"></path><path d="M111,500L-39,501L338,501Z" fill="rgb(114,151,100)" stroke="rgb(114,151,100)" stroke-width="1.51"></path><path d="M486,499L563,499L487,425Z" fill="rgb(3,89,49)" stroke="rgb(3,89,49)" stroke-width="1.51"></path><path d="M413,501L563,499L486,499Z" fill="rgb(9,93,51)" stroke="rgb(9,93,51)" stroke-width="1.51"></path><path d="M711,349L712,276L638,348Z" fill="rgb(9,93,51)" stroke="rgb(9,93,51)" stroke-width="1.51"></path><path d="M711,199L712,276L712,51Z" fill="rgb(77,136,84)" stroke="rgb(77,136,84)" stroke-width="1.51"></path><path d="M-39,-99L-112,-25L-39,-24Z" fill="rgb(255,255,229)" stroke="rgb(255,255,229)" stroke-width="1.51"></path><path d="M636,423L711,349L638,348Z" fill="rgb(0,78,44)" stroke="rgb(0,78,44)" stroke-width="1.51"></path><path d="M711,426L711,349L636,423Z" fill="rgb(0,69,41)" stroke="rgb(0,69,41)" stroke-width="1.51"></path><path d="M-113,275L-114,349L-39,350Z" fill="rgb(144,185,141)" stroke="rgb(144,185,141)" stroke-width="1.51"></path><path d="M-114,124L-114,349L-113,200Z" fill="rgb(178,220,167)" stroke="rgb(178,220,167)" stroke-width="1.51"></path><path d="M712,51L712,-26L638,48Z" fill="rgb(127,157,119)" stroke="rgb(127,157,119)" stroke-width="1.51"></path><path d="M711,501L636,499L563,499Z" fill="rgb(0,69,41)" stroke="rgb(0,69,41)" stroke-width="1.51"></path><path d="M563,499L636,499L636,423Z" fill="rgb(0,69,41)" stroke="rgb(0,69,41)" stroke-width="1.51"></path><path d="M-37,426L-39,501L37,500Z" fill="rgb(129,158,129)" stroke="rgb(129,158,129)" stroke-width="1.51"></path><path d="M37,500L-39,501L111,500Z" fill="rgb(127,157,119)" stroke="rgb(127,157,119)" stroke-width="1.51"></path><path d="M-112,499L-39,501L-37,426Z" fill="rgb(129,158,129)" stroke="rgb(129,158,129)" stroke-width="1.51"></path><path d="M-39,-99L-112,-101L-112,-25Z" fill="rgb(255,255,229)" stroke="rgb(255,255,229)" stroke-width="1.51"></path><path d="M-112,-25L-112,-101L-114,51Z" fill="rgb(255,255,229)" stroke="rgb(255,255,229)" stroke-width="1.51"></path><path d="M36,-101L-112,-101L-39,-99Z" fill="rgb(255,255,229)" stroke="rgb(255,255,229)" stroke-width="1.51"></path><path d="M413,-102L-112,-101L36,-101Z" fill="rgb(244,251,202)" stroke="rgb(244,251,202)" stroke-width="1.51"></path><path d="M712,-26L711,-100L637,-26Z" fill="rgb(129,158,129)" stroke="rgb(129,158,129)" stroke-width="1.51"></path><path d="M637,-100L711,-100L413,-102Z" fill="rgb(131,161,130)" stroke="rgb(131,161,130)" stroke-width="1.51"></path><path d="M-114,349L-113,426L-39,350Z" fill="rgb(134,168,133)" stroke="rgb(134,168,133)" stroke-width="1.51"></path><path d="M636,499L711,426L636,423Z" fill="rgb(0,69,41)" stroke="rgb(0,69,41)" stroke-width="1.51"></path><path d="M711,349L711,426L712,276Z" fill="rgb(0,86,48)" stroke="rgb(0,86,48)" stroke-width="1.51"></path><path d="M-113,426L-112,499L-37,426Z" fill="rgb(129,158,129)" stroke="rgb(129,158,129)" stroke-width="1.51"></path><path d="M636,499L711,501L711,426Z" fill="rgb(0,69,41)" stroke="rgb(0,69,41)" stroke-width="1.51"></path><path d="M711,426L711,501L712,276Z" fill="rgb(0,69,41)" stroke="rgb(0,69,41)" stroke-width="1.51"></path><path d="M413,501L711,501L563,499Z" fill="rgb(0,77,44)" stroke="rgb(0,77,44)" stroke-width="1.51"></path></svg>