<svg width="600" height="400" xmlns="http://www.w3.org/2000/svg"><path d="M319,196L262,137L247,216Z" fill="rgb(255,243,169)" stroke="rgb(255,243,169)" stroke-width="1.51"></path><path d="M262,137L196,180L247,216Z" fill="rgb(255,229,148)" stroke="rgb(255,229,148)" stroke-width="1.51"></path><path d="M319,196L356,123L262,137Z" fill="rgb(253,233,156)" stroke="rgb(253,233,156)" stroke-width="1.51"></path><path d="M247,216L263,288L319,196Z" fill="rgb(245,245,165)" stroke="rgb(245,245,165)" stroke-width="1.51"></path><path d="M180,272L263,288L247,216Z" fill="rgb(230,225,145)" stroke="rgb(230,225,145)" stroke-width="1.51"></path><path d="M248,57L173,131L262,137Z" fill="rgb(254,185,109)" stroke="rgb(254,185,109)" stroke-width="1.51"></path><path d="M262,137L173,131L196,180Z" fill="rgb(254,205,123)" stroke="rgb(254,205,123)" stroke-width="1.51"></path><path d="M319,196L395,191L356,123Z" fill="rgb(243,239,153)" stroke="rgb(243,239,153)" stroke-width="1.51"></path><path d="M351,278L395,191L319,196Z" fill="rgb(237,248,163)" stroke="rgb(237,248,163)" stroke-width="1.51"></path><path d="M263,288L351,278L319,196Z" fill="rgb(230,245,170)" stroke="rgb(230,245,170)" stroke-width="1.51"></path><path d="M342,52L248,57L262,137Z" fill="rgb(255,182,121)" stroke="rgb(255,182,121)" stroke-width="1.51"></path><path d="M110,190L180,272L196,180Z" fill="rgb(252,204,132)" stroke="rgb(252,204,132)" stroke-width="1.51"></path><path d="M196,180L180,272L247,216Z" fill="rgb(249,223,142)" stroke="rgb(249,223,142)" stroke-width="1.51"></path><path d="M356,123L342,52L262,137Z" fill="rgb(253,201,131)" stroke="rgb(253,201,131)" stroke-width="1.51"></path><path d="M419,46L342,52L356,123Z" fill="rgb(236,175,110)" stroke="rgb(236,175,110)" stroke-width="1.51"></path><path d="M351,278L400,264L395,191Z" fill="rgb(217,239,155)" stroke="rgb(217,239,155)" stroke-width="1.51"></path><path d="M173,131L110,190L196,180Z" fill="rgb(255,191,117)" stroke="rgb(255,191,117)" stroke-width="1.51"></path><path d="M105,108L110,190L173,131Z" fill="rgb(252,163,95)" stroke="rgb(252,163,95)" stroke-width="1.51"></path><path d="M395,191L429,115L356,123Z" fill="rgb(229,218,140)" stroke="rgb(229,218,140)" stroke-width="1.51"></path><path d="M468,189L429,115L395,191Z" fill="rgb(210,222,155)" stroke="rgb(210,222,155)" stroke-width="1.51"></path><path d="M248,57L188,38L173,131Z" fill="rgb(249,150,90)" stroke="rgb(249,150,90)" stroke-width="1.51"></path><path d="M279,-23L188,38L248,57Z" fill="rgb(226,140,105)" stroke="rgb(226,140,105)" stroke-width="1.51"></path><path d="M351,278L421,346L400,264Z" fill="rgb(174,221,162)" stroke="rgb(174,221,162)" stroke-width="1.51"></path><path d="M263,288L338,338L351,278Z" fill="rgb(194,230,173)" stroke="rgb(194,230,173)" stroke-width="1.51"></path><path d="M252,364L338,338L263,288Z" fill="rgb(181,213,175)" stroke="rgb(181,213,175)" stroke-width="1.51"></path><path d="M180,272L252,364L263,288Z" fill="rgb(196,210,150)" stroke="rgb(196,210,150)" stroke-width="1.51"></path><path d="M110,190L130,292L180,272Z" fill="rgb(237,187,115)" stroke="rgb(237,187,115)" stroke-width="1.51"></path><path d="M173,367L252,364L180,272Z" fill="rgb(185,183,145)" stroke="rgb(185,183,145)" stroke-width="1.51"></path><path d="M188,38L105,108L173,131Z" fill="rgb(249,139,80)" stroke="rgb(249,139,80)" stroke-width="1.51"></path><path d="M400,264L468,189L395,191Z" fill="rgb(209,236,171)" stroke="rgb(209,236,171)" stroke-width="1.51"></path><path d="M479,291L468,189L400,264Z" fill="rgb(181,224,160)" stroke="rgb(181,224,160)" stroke-width="1.51"></path><path d="M429,115L419,46L356,123Z" fill="rgb(227,184,118)" stroke="rgb(227,184,118)" stroke-width="1.51"></path><path d="M342,52L279,-23L248,57Z" fill="rgb(232,156,126)" stroke="rgb(232,156,126)" stroke-width="1.51"></path><path d="M476,120L419,46L429,115Z" fill="rgb(210,175,120)" stroke="rgb(210,175,120)" stroke-width="1.51"></path><path d="M344,-26L279,-23L342,52Z" fill="rgb(209,142,119)" stroke="rgb(209,142,119)" stroke-width="1.51"></path><path d="M468,189L476,120L429,115Z" fill="rgb(199,204,143)" stroke="rgb(199,204,143)" stroke-width="1.51"></path><path d="M130,292L173,367L180,272Z" fill="rgb(199,180,126)" stroke="rgb(199,180,126)" stroke-width="1.51"></path><path d="M419,46L344,-26L342,52Z" fill="rgb(214,151,113)" stroke="rgb(214,151,113)" stroke-width="1.51"></path><path d="M338,338L421,346L351,278Z" fill="rgb(166,217,160)" stroke="rgb(166,217,160)" stroke-width="1.51"></path><path d="M341,422L421,346L338,338Z" fill="rgb(157,181,171)" stroke="rgb(157,181,171)" stroke-width="1.51"></path><path d="M188,38L97,43L105,108Z" fill="rgb(239,106,73)" stroke="rgb(239,106,73)" stroke-width="1.51"></path><path d="M105,108L52,116L110,190Z" fill="rgb(243,144,94)" stroke="rgb(243,144,94)" stroke-width="1.51"></path><path d="M128,-37L97,43L188,38Z" fill="rgb(213,84,75)" stroke="rgb(213,84,75)" stroke-width="1.51"></path><path d="M421,346L479,291L400,264Z" fill="rgb(148,211,165)" stroke="rgb(148,211,165)" stroke-width="1.51"></path><path d="M468,189L551,119L476,120Z" fill="rgb(185,190,148)" stroke="rgb(185,190,148)" stroke-width="1.51"></path><path d="M97,43L52,116L105,108Z" fill="rgb(237,104,75)" stroke="rgb(237,104,75)" stroke-width="1.51"></path><path d="M51,345L104,364L130,292Z" fill="rgb(182,139,122)" stroke="rgb(182,139,122)" stroke-width="1.51"></path><path d="M252,364L341,422L338,338Z" fill="rgb(171,181,184)" stroke="rgb(171,181,184)" stroke-width="1.51"></path><path d="M193,412L247,414L252,364Z" fill="rgb(180,147,152)" stroke="rgb(180,147,152)" stroke-width="1.51"></path><path d="M268,-84L175,-36L279,-23Z" fill="rgb(209,128,102)" stroke="rgb(209,128,102)" stroke-width="1.51"></path><path d="M279,-23L175,-36L188,38Z" fill="rgb(208,117,94)" stroke="rgb(208,117,94)" stroke-width="1.51"></path><path d="M119,437L193,412L173,367Z" fill="rgb(182,114,129)" stroke="rgb(182,114,129)" stroke-width="1.51"></path><path d="M173,367L193,412L252,364Z" fill="rgb(179,149,149)" stroke="rgb(179,149,149)" stroke-width="1.51"></path><path d="M484,34L423,-20L419,46Z" fill="rgb(181,136,116)" stroke="rgb(181,136,116)" stroke-width="1.51"></path><path d="M419,46L423,-20L344,-26Z" fill="rgb(187,134,111)" stroke="rgb(187,134,111)" stroke-width="1.51"></path><path d="M398,439L341,422L340,484Z" fill="rgb(169,159,161)" stroke="rgb(169,159,161)" stroke-width="1.51"></path><path d="M247,414L341,422L252,364Z" fill="rgb(179,158,171)" stroke="rgb(179,158,171)" stroke-width="1.51"></path><path d="M421,346L475,366L479,291Z" fill="rgb(110,188,170)" stroke="rgb(110,188,170)" stroke-width="1.51"></path><path d="M130,292L104,364L173,367Z" fill="rgb(186,149,127)" stroke="rgb(186,149,127)" stroke-width="1.51"></path><path d="M35,287L130,292L110,190Z" fill="rgb(226,167,113)" stroke="rgb(226,167,113)" stroke-width="1.51"></path><path d="M476,120L484,34L419,46Z" fill="rgb(197,155,117)" stroke="rgb(197,155,117)" stroke-width="1.51"></path><path d="M551,119L484,34L476,120Z" fill="rgb(188,153,126)" stroke="rgb(188,153,126)" stroke-width="1.51"></path><path d="M52,116L19,194L110,190Z" fill="rgb(238,151,112)" stroke="rgb(238,151,112)" stroke-width="1.51"></path><path d="M175,-36L128,-37L188,38Z" fill="rgb(205,92,79)" stroke="rgb(205,92,79)" stroke-width="1.51"></path><path d="M97,43L24,58L52,116Z" fill="rgb(225,81,75)" stroke="rgb(225,81,75)" stroke-width="1.51"></path><path d="M19,194L35,287L110,190Z" fill="rgb(231,160,121)" stroke="rgb(231,160,121)" stroke-width="1.51"></path><path d="M329,-113L268,-84L344,-26Z" fill="rgb(210,143,121)" stroke="rgb(210,143,121)" stroke-width="1.51"></path><path d="M344,-26L268,-84L279,-23Z" fill="rgb(212,142,124)" stroke="rgb(212,142,124)" stroke-width="1.51"></path><path d="M175,-36L122,-101L128,-37Z" fill="rgb(203,80,73)" stroke="rgb(203,80,73)" stroke-width="1.51"></path><path d="M468,425L475,366L421,346Z" fill="rgb(111,156,172)" stroke="rgb(111,156,172)" stroke-width="1.51"></path><path d="M104,364L119,437L173,367Z" fill="rgb(181,108,124)" stroke="rgb(181,108,124)" stroke-width="1.51"></path><path d="M35,287L51,345L130,292Z" fill="rgb(189,146,119)" stroke="rgb(189,146,119)" stroke-width="1.51"></path><path d="M-40,110L-22,192L19,194Z" fill="rgb(210,130,105)" stroke="rgb(210,130,105)" stroke-width="1.51"></path><path d="M20,-13L24,58L97,43Z" fill="rgb(199,51,76)" stroke="rgb(199,51,76)" stroke-width="1.51"></path><path d="M484,34L476,-17L423,-20Z" fill="rgb(159,122,113)" stroke="rgb(159,122,113)" stroke-width="1.51"></path><path d="M418,-102L329,-113L344,-26Z" fill="rgb(200,139,108)" stroke="rgb(200,139,108)" stroke-width="1.51"></path><path d="M484,34L565,-20L476,-17Z" fill="rgb(144,104,119)" stroke="rgb(144,104,119)" stroke-width="1.51"></path><path d="M580,183L551,119L468,189Z" fill="rgb(174,184,168)" stroke="rgb(174,184,168)" stroke-width="1.51"></path><path d="M555,273L468,189L479,291Z" fill="rgb(158,205,166)" stroke="rgb(158,205,166)" stroke-width="1.51"></path><path d="M341,422L398,439L421,346Z" fill="rgb(156,154,163)" stroke="rgb(156,154,163)" stroke-width="1.51"></path><path d="M340,484L341,422L247,414Z" fill="rgb(177,162,176)" stroke="rgb(177,162,176)" stroke-width="1.51"></path><path d="M561,349L555,273L479,291Z" fill="rgb(103,174,176)" stroke="rgb(103,174,176)" stroke-width="1.51"></path><path d="M-57,412L49,432L51,345Z" fill="rgb(143,62,115)" stroke="rgb(143,62,115)" stroke-width="1.51"></path><path d="M19,194L-22,192L35,287Z" fill="rgb(211,145,116)" stroke="rgb(211,145,116)" stroke-width="1.51"></path><path d="M-40,110L19,194L52,116Z" fill="rgb(213,118,93)" stroke="rgb(213,118,93)" stroke-width="1.51"></path><path d="M418,-102L344,-26L423,-20Z" fill="rgb(187,134,111)" stroke="rgb(187,134,111)" stroke-width="1.51"></path><path d="M268,-84L179,-110L175,-36Z" fill="rgb(208,114,91)" stroke="rgb(208,114,91)" stroke-width="1.51"></path><path d="M49,432L119,437L104,364Z" fill="rgb(173,83,119)" stroke="rgb(173,83,119)" stroke-width="1.51"></path><path d="M253,519L340,484L247,414Z" fill="rgb(179,158,171)" stroke="rgb(179,158,171)" stroke-width="1.51"></path><path d="M555,273L580,183L468,189Z" fill="rgb(166,194,184)" stroke="rgb(166,194,184)" stroke-width="1.51"></path><path d="M329,-113L179,-110L268,-84Z" fill="rgb(211,133,109)" stroke="rgb(211,133,109)" stroke-width="1.51"></path><path d="M128,-37L20,-13L97,43Z" fill="rgb(191,48,71)" stroke="rgb(191,48,71)" stroke-width="1.51"></path><path d="M204,505L247,414L193,412Z" fill="rgb(181,138,146)" stroke="rgb(181,138,146)" stroke-width="1.51"></path><path d="M422,489L468,425L398,439Z" fill="rgb(134,147,165)" stroke="rgb(134,147,165)" stroke-width="1.51"></path><path d="M398,439L468,425L421,346Z" fill="rgb(134,147,165)" stroke="rgb(134,147,165)" stroke-width="1.51"></path><path d="M475,366L561,349L479,291Z" fill="rgb(88,170,176)" stroke="rgb(88,170,176)" stroke-width="1.51"></path><path d="M476,-17L418,-102L423,-20Z" fill="rgb(168,126,113)" stroke="rgb(168,126,113)" stroke-width="1.51"></path><path d="M38,-91L20,-13L128,-37Z" fill="rgb(186,39,73)" stroke="rgb(186,39,73)" stroke-width="1.51"></path><path d="M24,58L-40,110L52,116Z" fill="rgb(209,84,75)" stroke="rgb(209,84,75)" stroke-width="1.51"></path><path d="M179,-110L122,-101L175,-36Z" fill="rgb(205,90,77)" stroke="rgb(205,90,77)" stroke-width="1.51"></path><path d="M476,-17L474,-114L418,-102Z" fill="rgb(161,123,113)" stroke="rgb(161,123,113)" stroke-width="1.51"></path><path d="M551,119L573,57L484,34Z" fill="rgb(175,124,130)" stroke="rgb(175,124,130)" stroke-width="1.51"></path><path d="M631,141L573,57L551,119Z" fill="rgb(182,121,131)" stroke="rgb(182,121,131)" stroke-width="1.51"></path><path d="M-26,42L-40,110L24,58Z" fill="rgb(197,59,70)" stroke="rgb(197,59,70)" stroke-width="1.51"></path><path d="M555,273L623,209L580,183Z" fill="rgb(172,168,172)" stroke="rgb(172,168,172)" stroke-width="1.51"></path><path d="M559,428L561,349L475,366Z" fill="rgb(74,126,181)" stroke="rgb(74,126,181)" stroke-width="1.51"></path><path d="M20,-13L-26,42L24,58Z" fill="rgb(180,33,72)" stroke="rgb(180,33,72)" stroke-width="1.51"></path><path d="M124,492L204,505L193,412Z" fill="rgb(182,120,132)" stroke="rgb(182,120,132)" stroke-width="1.51"></path><path d="M119,437L124,492L193,412Z" fill="rgb(182,106,124)" stroke="rgb(182,106,124)" stroke-width="1.51"></path><path d="M51,345L49,432L104,364Z" fill="rgb(166,93,126)" stroke="rgb(166,93,126)" stroke-width="1.51"></path><path d="M-57,356L51,345L35,287Z" fill="rgb(152,115,117)" stroke="rgb(152,115,117)" stroke-width="1.51"></path><path d="M204,505L253,519L247,414Z" fill="rgb(181,146,153)" stroke="rgb(181,146,153)" stroke-width="1.51"></path><path d="M468,425L559,428L475,366Z" fill="rgb(98,127,169)" stroke="rgb(98,127,169)" stroke-width="1.51"></path><path d="M340,484L422,489L398,439Z" fill="rgb(156,154,163)" stroke="rgb(156,154,163)" stroke-width="1.51"></path><path d="M253,519L422,489L340,484Z" fill="rgb(172,160,167)" stroke="rgb(172,160,167)" stroke-width="1.51"></path><path d="M-22,192L-48,289L35,287Z" fill="rgb(191,136,110)" stroke="rgb(191,136,110)" stroke-width="1.51"></path><path d="M-111,204L-48,289L-22,192Z" fill="rgb(204,141,113)" stroke="rgb(204,141,113)" stroke-width="1.51"></path><path d="M56,481L124,492L119,437Z" fill="rgb(175,86,119)" stroke="rgb(175,86,119)" stroke-width="1.51"></path><path d="M204,505L-55,511L253,519Z" fill="rgb(181,100,121)" stroke="rgb(181,100,121)" stroke-width="1.51"></path><path d="M580,183L631,141L551,119Z" fill="rgb(180,147,151)" stroke="rgb(180,147,151)" stroke-width="1.51"></path><path d="M653,255L623,209L555,273Z" fill="rgb(165,157,162)" stroke="rgb(165,157,162)" stroke-width="1.51"></path><path d="M573,57L565,-20L484,34Z" fill="rgb(151,99,130)" stroke="rgb(151,99,130)" stroke-width="1.51"></path><path d="M642,37L565,-20L573,57Z" fill="rgb(154,70,119)" stroke="rgb(154,70,119)" stroke-width="1.51"></path><path d="M418,-102L474,-114L329,-113Z" fill="rgb(182,132,112)" stroke="rgb(182,132,112)" stroke-width="1.51"></path><path d="M577,-88L474,-114L476,-17Z" fill="rgb(144,104,119)" stroke="rgb(144,104,119)" stroke-width="1.51"></path><path d="M623,209L631,141L580,183Z" fill="rgb(180,155,165)" stroke="rgb(180,155,165)" stroke-width="1.51"></path><path d="M20,-13L-48,-7L-26,42Z" fill="rgb(163,10,67)" stroke="rgb(163,10,67)" stroke-width="1.51"></path><path d="M122,-101L38,-91L128,-37Z" fill="rgb(195,55,70)" stroke="rgb(195,55,70)" stroke-width="1.51"></path><path d="M-29,-117L38,-91L122,-101Z" fill="rgb(178,30,71)" stroke="rgb(178,30,71)" stroke-width="1.51"></path><path d="M422,489L477,485L468,425Z" fill="rgb(119,141,165)" stroke="rgb(119,141,165)" stroke-width="1.51"></path><path d="M565,509L477,485L422,489Z" fill="rgb(103,133,166)" stroke="rgb(103,133,166)" stroke-width="1.51"></path><path d="M49,432L56,481L119,437Z" fill="rgb(169,78,120)" stroke="rgb(169,78,120)" stroke-width="1.51"></path><path d="M124,492L-55,511L204,505Z" fill="rgb(173,83,119)" stroke="rgb(173,83,119)" stroke-width="1.51"></path><path d="M-55,511L56,481L49,432Z" fill="rgb(144,59,115)" stroke="rgb(144,59,115)" stroke-width="1.51"></path><path d="M-29,-117L-48,-7L20,-13Z" fill="rgb(158,1,66)" stroke="rgb(158,1,66)" stroke-width="1.51"></path><path d="M-112,55L-98,108L-40,110Z" fill="rgb(202,76,72)" stroke="rgb(202,76,72)" stroke-width="1.51"></path><path d="M-40,110L-98,108L-22,192Z" fill="rgb(208,113,90)" stroke="rgb(208,113,90)" stroke-width="1.51"></path><path d="M646,341L653,255L555,273Z" fill="rgb(131,145,165)" stroke="rgb(131,145,165)" stroke-width="1.51"></path><path d="M477,485L559,428L468,425Z" fill="rgb(98,126,169)" stroke="rgb(98,126,169)" stroke-width="1.51"></path><path d="M-48,289L-57,356L35,287Z" fill="rgb(157,121,113)" stroke="rgb(157,121,113)" stroke-width="1.51"></path><path d="M-95,338L-57,356L-48,289Z" fill="rgb(148,113,115)" stroke="rgb(148,113,115)" stroke-width="1.51"></path><path d="M-112,55L-40,110L-26,42Z" fill="rgb(197,58,70)" stroke="rgb(197,58,70)" stroke-width="1.51"></path><path d="M715,207L700,126L631,141Z" fill="rgb(181,147,154)" stroke="rgb(181,147,154)" stroke-width="1.51"></path><path d="M646,341L555,273L561,349Z" fill="rgb(101,142,168)" stroke="rgb(101,142,168)" stroke-width="1.51"></path><path d="M-98,108L-111,204L-22,192Z" fill="rgb(210,131,106)" stroke="rgb(210,131,106)" stroke-width="1.51"></path><path d="M565,-20L577,-88L476,-17Z" fill="rgb(135,89,125)" stroke="rgb(135,89,125)" stroke-width="1.51"></path><path d="M631,141L642,37L573,57Z" fill="rgb(180,92,118)" stroke="rgb(180,92,118)" stroke-width="1.51"></path><path d="M700,126L642,37L631,141Z" fill="rgb(182,110,126)" stroke="rgb(182,110,126)" stroke-width="1.51"></path><path d="M-114,283L-95,338L-48,289Z" fill="rgb(162,123,113)" stroke="rgb(162,123,113)" stroke-width="1.51"></path><path d="M-57,356L-57,412L51,345Z" fill="rgb(136,79,122)" stroke="rgb(136,79,122)" stroke-width="1.51"></path><path d="M-111,204L-114,283L-48,289Z" fill="rgb(190,135,110)" stroke="rgb(190,135,110)" stroke-width="1.51"></path><path d="M649,431L646,341L561,349Z" fill="rgb(86,98,171)" stroke="rgb(86,98,171)" stroke-width="1.51"></path><path d="M619,-38L577,-88L565,-20Z" fill="rgb(137,62,115)" stroke="rgb(137,62,115)" stroke-width="1.51"></path><path d="M-95,338L-57,412L-57,356Z" fill="rgb(135,81,122)" stroke="rgb(135,81,122)" stroke-width="1.51"></path><path d="M642,37L619,-38L565,-20Z" fill="rgb(137,53,112)" stroke="rgb(137,53,112)" stroke-width="1.51"></path><path d="M-98,108L-112,55L-111,204Z" fill="rgb(206,103,84)" stroke="rgb(206,103,84)" stroke-width="1.51"></path><path d="M-111,204L-112,55L-114,283Z" fill="rgb(211,136,114)" stroke="rgb(211,136,114)" stroke-width="1.51"></path><path d="M-48,-7L-112,55L-26,42Z" fill="rgb(178,31,71)" stroke="rgb(178,31,71)" stroke-width="1.51"></path><path d="M-111,-34L-112,55L-48,-7Z" fill="rgb(161,6,67)" stroke="rgb(161,6,67)" stroke-width="1.51"></path><path d="M38,-91L-29,-117L20,-13Z" fill="rgb(162,9,67)" stroke="rgb(162,9,67)" stroke-width="1.51"></path><path d="M179,-110L-29,-117L122,-101Z" fill="rgb(193,53,71)" stroke="rgb(193,53,71)" stroke-width="1.51"></path><path d="M329,-113L-29,-117L179,-110Z" fill="rgb(205,90,78)" stroke="rgb(205,90,78)" stroke-width="1.51"></path><path d="M711,-119L-29,-117L329,-113Z" fill="rgb(206,141,115)" stroke="rgb(206,141,115)" stroke-width="1.51"></path><path d="M715,207L631,141L623,209Z" fill="rgb(180,158,170)" stroke="rgb(180,158,170)" stroke-width="1.51"></path><path d="M717,-25L618,-93L619,-38Z" fill="rgb(137,53,112)" stroke="rgb(137,53,112)" stroke-width="1.51"></path><path d="M715,207L623,209L653,255Z" fill="rgb(173,160,168)" stroke="rgb(173,160,168)" stroke-width="1.51"></path><path d="M253,519L565,509L422,489Z" fill="rgb(142,150,165)" stroke="rgb(142,150,165)" stroke-width="1.51"></path><path d="M477,485L565,509L559,428Z" fill="rgb(83,111,175)" stroke="rgb(83,111,175)" stroke-width="1.51"></path><path d="M559,428L649,431L561,349Z" fill="rgb(92,84,164)" stroke="rgb(92,84,164)" stroke-width="1.51"></path><path d="M717,-25L619,-38L642,37Z" fill="rgb(137,53,112)" stroke="rgb(137,53,112)" stroke-width="1.51"></path><path d="M619,-38L618,-93L577,-88Z" fill="rgb(137,53,112)" stroke="rgb(137,53,112)" stroke-width="1.51"></path><path d="M577,-88L618,-93L474,-114Z" fill="rgb(135,79,122)" stroke="rgb(135,79,122)" stroke-width="1.51"></path><path d="M698,343L653,255L646,341Z" fill="rgb(112,139,165)" stroke="rgb(112,139,165)" stroke-width="1.51"></path><path d="M727,286L715,207L653,255Z" fill="rgb(162,156,162)" stroke="rgb(162,156,162)" stroke-width="1.51"></path><path d="M717,-25L692,36L700,126Z" fill="rgb(166,75,120)" stroke="rgb(166,75,120)" stroke-width="1.51"></path><path d="M700,126L692,36L642,37Z" fill="rgb(175,86,119)" stroke="rgb(175,86,119)" stroke-width="1.51"></path><path d="M-29,-117L-111,-34L-48,-7Z" fill="rgb(158,1,66)" stroke="rgb(158,1,66)" stroke-width="1.51"></path><path d="M619,503L649,431L559,428Z" fill="rgb(94,79,162)" stroke="rgb(94,79,162)" stroke-width="1.51"></path><path d="M693,425L698,343L646,341Z" fill="rgb(84,102,172)" stroke="rgb(84,102,172)" stroke-width="1.51"></path><path d="M-57,412L-55,511L49,432Z" fill="rgb(137,53,112)" stroke="rgb(137,53,112)" stroke-width="1.51"></path><path d="M-95,338L-97,443L-57,412Z" fill="rgb(137,56,113)" stroke="rgb(137,56,113)" stroke-width="1.51"></path><path d="M-114,283L-97,443L-95,338Z" fill="rgb(137,92,123)" stroke="rgb(137,92,123)" stroke-width="1.51"></path><path d="M698,343L727,286L653,255Z" fill="rgb(127,144,165)" stroke="rgb(127,144,165)" stroke-width="1.51"></path><path d="M715,207L717,-25L700,126Z" fill="rgb(182,111,127)" stroke="rgb(182,111,127)" stroke-width="1.51"></path><path d="M-97,443L-55,511L-57,412Z" fill="rgb(137,53,112)" stroke="rgb(137,53,112)" stroke-width="1.51"></path><path d="M56,481L-55,511L124,492Z" fill="rgb(156,67,118)" stroke="rgb(156,67,118)" stroke-width="1.51"></path><path d="M698,343L723,490L727,286Z" fill="rgb(86,99,171)" stroke="rgb(86,99,171)" stroke-width="1.51"></path><path d="M649,431L693,425L646,341Z" fill="rgb(94,80,162)" stroke="rgb(94,80,162)" stroke-width="1.51"></path><path d="M565,509L619,503L559,428Z" fill="rgb(90,89,166)" stroke="rgb(90,89,166)" stroke-width="1.51"></path><path d="M723,490L693,425L649,431Z" fill="rgb(94,79,162)" stroke="rgb(94,79,162)" stroke-width="1.51"></path><path d="M692,36L717,-25L642,37Z" fill="rgb(148,61,116)" stroke="rgb(148,61,116)" stroke-width="1.51"></path><path d="M727,286L717,-25L715,207Z" fill="rgb(181,146,153)" stroke="rgb(181,146,153)" stroke-width="1.51"></path><path d="M-29,-117L-118,-111L-111,-34Z" fill="rgb(158,1,66)" stroke="rgb(158,1,66)" stroke-width="1.51"></path><path d="M-111,-34L-118,-111L-112,55Z" fill="rgb(158,1,66)" stroke="rgb(158,1,66)" stroke-width="1.51"></path><path d="M-112,55L-118,-111L-114,283Z" fill="rgb(199,62,69)" stroke="rgb(199,62,69)" stroke-width="1.51"></path><path d="M-97,443L-113,514L-55,511Z" fill="rgb(137,53,112)" stroke="rgb(137,53,112)" stroke-width="1.51"></path><path d="M-55,511L-113,514L253,519Z" fill="rgb(150,62,116)" stroke="rgb(150,62,116)" stroke-width="1.51"></path><path d="M-114,283L-113,514L-97,443Z" fill="rgb(137,53,112)" stroke="rgb(137,53,112)" stroke-width="1.51"></path><path d="M-118,-111L-113,514L-114,283Z" fill="rgb(204,141,113)" stroke="rgb(204,141,113)" stroke-width="1.51"></path><path d="M717,-25L711,-119L618,-93Z" fill="rgb(137,53,112)" stroke="rgb(137,53,112)" stroke-width="1.51"></path><path d="M618,-93L711,-119L474,-114Z" fill="rgb(137,53,112)" stroke="rgb(137,53,112)" stroke-width="1.51"></path><path d="M474,-114L711,-119L329,-113Z" fill="rgb(145,106,118)" stroke="rgb(145,106,118)" stroke-width="1.51"></path><path d="M619,503L723,490L649,431Z" fill="rgb(94,79,162)" stroke="rgb(94,79,162)" stroke-width="1.51"></path><path d="M693,425L723,490L698,343Z" fill="rgb(94,79,162)" stroke="rgb(94,79,162)" stroke-width="1.51"></path></svg>