<svg width="600" height="400" xmlns="http://www.w3.org/2000/svg"><path d="M318,193L334,113L289,168Z" fill="rgb(128,175,211)" stroke="rgb(128,175,211)" stroke-width="1.51"></path><path d="M334,113L260,118L289,168Z" fill="rgb(147,184,216)" stroke="rgb(147,184,216)" stroke-width="1.51"></path><path d="M318,193L395,197L334,113Z" fill="rgb(112,167,206)" stroke="rgb(112,167,206)" stroke-width="1.51"></path><path d="M334,113L315,70L260,118Z" fill="rgb(158,188,218)" stroke="rgb(158,188,218)" stroke-width="1.51"></path><path d="M401,60L315,70L334,113Z" fill="rgb(153,183,216)" stroke="rgb(153,183,216)" stroke-width="1.51"></path><path d="M318,193L316,256L395,197Z" fill="rgb(84,158,200)" stroke="rgb(84,158,200)" stroke-width="1.51"></path><path d="M287,277L316,256L318,193Z" fill="rgb(82,157,200)" stroke="rgb(82,157,200)" stroke-width="1.51"></path><path d="M287,277L318,193L289,168Z" fill="rgb(99,166,205)" stroke="rgb(99,166,205)" stroke-width="1.51"></path><path d="M395,197L433,106L334,113Z" fill="rgb(121,168,202)" stroke="rgb(121,168,202)" stroke-width="1.51"></path><path d="M433,106L401,60L334,113Z" fill="rgb(140,176,206)" stroke="rgb(140,176,206)" stroke-width="1.51"></path><path d="M186,242L287,277L289,168Z" fill="rgb(113,167,206)" stroke="rgb(113,167,206)" stroke-width="1.51"></path><path d="M395,197L482,197L433,106Z" fill="rgb(94,157,180)" stroke="rgb(94,157,180)" stroke-width="1.51"></path><path d="M316,256L421,265L395,197Z" fill="rgb(60,146,192)" stroke="rgb(60,146,192)" stroke-width="1.51"></path><path d="M331,330L421,265L316,256Z" fill="rgb(51,142,175)" stroke="rgb(51,142,175)" stroke-width="1.51"></path><path d="M260,118L155,179L289,168Z" fill="rgb(159,186,217)" stroke="rgb(159,186,217)" stroke-width="1.51"></path><path d="M163,80L179,121L260,118Z" fill="rgb(192,200,226)" stroke="rgb(192,200,226)" stroke-width="1.51"></path><path d="M401,60L368,6L315,70Z" fill="rgb(160,187,218)" stroke="rgb(160,187,218)" stroke-width="1.51"></path><path d="M315,70L234,25L260,118Z" fill="rgb(179,198,224)" stroke="rgb(179,198,224)" stroke-width="1.51"></path><path d="M396,-13L368,6L401,60Z" fill="rgb(159,189,214)" stroke="rgb(159,189,214)" stroke-width="1.51"></path><path d="M368,6L292,3L315,70Z" fill="rgb(172,198,224)" stroke="rgb(172,198,224)" stroke-width="1.51"></path><path d="M292,3L234,25L315,70Z" fill="rgb(184,203,227)" stroke="rgb(184,203,227)" stroke-width="1.51"></path><path d="M421,265L482,197L395,197Z" fill="rgb(59,146,175)" stroke="rgb(59,146,175)" stroke-width="1.51"></path><path d="M155,179L186,242L289,168Z" fill="rgb(143,181,215)" stroke="rgb(143,181,215)" stroke-width="1.51"></path><path d="M179,121L155,179L260,118Z" fill="rgb(178,194,222)" stroke="rgb(178,194,222)" stroke-width="1.51"></path><path d="M287,277L331,330L316,256Z" fill="rgb(66,149,178)" stroke="rgb(66,149,178)" stroke-width="1.51"></path><path d="M243,324L331,330L287,277Z" fill="rgb(72,148,168)" stroke="rgb(72,148,168)" stroke-width="1.51"></path><path d="M179,121L138,182L155,179Z" fill="rgb(179,196,223)" stroke="rgb(179,196,223)" stroke-width="1.51"></path><path d="M234,25L163,80L260,118Z" fill="rgb(196,204,228)" stroke="rgb(196,204,228)" stroke-width="1.51"></path><path d="M368,6L293,-87L292,3Z" fill="rgb(179,204,227)" stroke="rgb(179,204,227)" stroke-width="1.51"></path><path d="M516,-17L396,-13L401,60Z" fill="rgb(150,187,197)" stroke="rgb(150,187,197)" stroke-width="1.51"></path><path d="M498,79L401,60L433,106Z" fill="rgb(132,172,187)" stroke="rgb(132,172,187)" stroke-width="1.51"></path><path d="M482,197L502,100L433,106Z" fill="rgb(108,159,171)" stroke="rgb(108,159,171)" stroke-width="1.51"></path><path d="M502,100L498,79L433,106Z" fill="rgb(125,166,174)" stroke="rgb(125,166,174)" stroke-width="1.51"></path><path d="M186,242L243,324L287,277Z" fill="rgb(102,160,187)" stroke="rgb(102,160,187)" stroke-width="1.51"></path><path d="M155,179L138,182L186,242Z" fill="rgb(156,187,218)" stroke="rgb(156,187,218)" stroke-width="1.51"></path><path d="M186,242L194,318L243,324Z" fill="rgb(110,162,182)" stroke="rgb(110,162,182)" stroke-width="1.51"></path><path d="M103,110L138,182L179,121Z" fill="rgb(195,202,227)" stroke="rgb(195,202,227)" stroke-width="1.51"></path><path d="M571,150L540,73L502,100Z" fill="rgb(113,153,152)" stroke="rgb(113,153,152)" stroke-width="1.51"></path><path d="M421,265L474,298L482,197Z" fill="rgb(34,135,160)" stroke="rgb(34,135,160)" stroke-width="1.51"></path><path d="M382,381L474,298L421,265Z" fill="rgb(18,129,139)" stroke="rgb(18,129,139)" stroke-width="1.51"></path><path d="M112,289L194,318L186,242Z" fill="rgb(126,169,191)" stroke="rgb(126,169,191)" stroke-width="1.51"></path><path d="M502,100L540,73L498,79Z" fill="rgb(124,162,162)" stroke="rgb(124,162,162)" stroke-width="1.51"></path><path d="M498,79L516,-17L401,60Z" fill="rgb(140,176,181)" stroke="rgb(140,176,181)" stroke-width="1.51"></path><path d="M571,150L502,100L482,197Z" fill="rgb(98,149,154)" stroke="rgb(98,149,154)" stroke-width="1.51"></path><path d="M163,80L103,110L179,121Z" fill="rgb(207,209,229)" stroke="rgb(207,209,229)" stroke-width="1.51"></path><path d="M138,182L112,289L186,242Z" fill="rgb(147,180,214)" stroke="rgb(147,180,214)" stroke-width="1.51"></path><path d="M107,74L103,110L163,80Z" fill="rgb(217,214,233)" stroke="rgb(217,214,233)" stroke-width="1.51"></path><path d="M116,-30L107,74L163,80Z" fill="rgb(228,222,237)" stroke="rgb(228,222,237)" stroke-width="1.51"></path><path d="M331,330L382,381L421,265Z" fill="rgb(36,131,151)" stroke="rgb(36,131,151)" stroke-width="1.51"></path><path d="M356,430L382,381L331,330Z" fill="rgb(41,117,129)" stroke="rgb(41,117,129)" stroke-width="1.51"></path><path d="M356,430L331,330L240,433Z" fill="rgb(54,118,127)" stroke="rgb(54,118,127)" stroke-width="1.51"></path><path d="M234,25L116,-30L163,80Z" fill="rgb(221,219,236)" stroke="rgb(221,219,236)" stroke-width="1.51"></path><path d="M292,3L198,-51L234,25Z" fill="rgb(205,216,233)" stroke="rgb(205,216,233)" stroke-width="1.51"></path><path d="M210,-76L198,-51L292,3Z" fill="rgb(208,217,235)" stroke="rgb(208,217,235)" stroke-width="1.51"></path><path d="M396,-13L293,-87L368,6Z" fill="rgb(171,198,224)" stroke="rgb(171,198,224)" stroke-width="1.51"></path><path d="M336,-134L293,-87L396,-13Z" fill="rgb(173,200,225)" stroke="rgb(173,200,225)" stroke-width="1.51"></path><path d="M572,209L571,150L482,197Z" fill="rgb(71,137,144)" stroke="rgb(71,137,144)" stroke-width="1.51"></path><path d="M474,298L544,279L482,197Z" fill="rgb(33,129,143)" stroke="rgb(33,129,143)" stroke-width="1.51"></path><path d="M499,345L544,279L474,298Z" fill="rgb(5,119,116)" stroke="rgb(5,119,116)" stroke-width="1.51"></path><path d="M544,279L572,209L482,197Z" fill="rgb(48,129,140)" stroke="rgb(48,129,140)" stroke-width="1.51"></path><path d="M68,223L112,289L138,182Z" fill="rgb(156,186,217)" stroke="rgb(156,186,217)" stroke-width="1.51"></path><path d="M532,-7L516,-17L498,79Z" fill="rgb(139,174,168)" stroke="rgb(139,174,168)" stroke-width="1.51"></path><path d="M532,-7L498,79L540,73Z" fill="rgb(133,167,162)" stroke="rgb(133,167,162)" stroke-width="1.51"></path><path d="M198,-51L116,-30L234,25Z" fill="rgb(223,223,238)" stroke="rgb(223,223,238)" stroke-width="1.51"></path><path d="M293,-87L210,-76L292,3Z" fill="rgb(196,212,232)" stroke="rgb(196,212,232)" stroke-width="1.51"></path><path d="M382,381L499,345L474,298Z" fill="rgb(5,120,117)" stroke="rgb(5,120,117)" stroke-width="1.51"></path><path d="M640,45L532,-7L540,73Z" fill="rgb(128,156,150)" stroke="rgb(128,156,150)" stroke-width="1.51"></path><path d="M32,135L68,223L138,182Z" fill="rgb(184,201,226)" stroke="rgb(184,201,226)" stroke-width="1.51"></path><path d="M32,135L138,182L103,110Z" fill="rgb(202,207,230)" stroke="rgb(202,207,230)" stroke-width="1.51"></path><path d="M564,-79L471,-80L516,-17Z" fill="rgb(142,177,169)" stroke="rgb(142,177,169)" stroke-width="1.51"></path><path d="M516,-17L471,-80L396,-13Z" fill="rgb(148,186,189)" stroke="rgb(148,186,189)" stroke-width="1.51"></path><path d="M382,381L485,405L499,345Z" fill="rgb(4,107,101)" stroke="rgb(4,107,101)" stroke-width="1.51"></path><path d="M240,433L331,330L243,324Z" fill="rgb(74,137,143)" stroke="rgb(74,137,143)" stroke-width="1.51"></path><path d="M196,415L243,324L194,318Z" fill="rgb(100,149,151)" stroke="rgb(100,149,151)" stroke-width="1.51"></path><path d="M142,-123L116,-30L198,-51Z" fill="rgb(231,227,240)" stroke="rgb(231,227,240)" stroke-width="1.51"></path><path d="M107,74L32,135L103,110Z" fill="rgb(219,215,234)" stroke="rgb(219,215,234)" stroke-width="1.51"></path><path d="M356,430L412,421L382,381Z" fill="rgb(30,105,117)" stroke="rgb(30,105,117)" stroke-width="1.51"></path><path d="M293,-87L336,-134L210,-76Z" fill="rgb(191,210,231)" stroke="rgb(191,210,231)" stroke-width="1.51"></path><path d="M418,-130L336,-134L396,-13Z" fill="rgb(164,193,218)" stroke="rgb(164,193,218)" stroke-width="1.51"></path><path d="M112,289L120,357L194,318Z" fill="rgb(124,165,172)" stroke="rgb(124,165,172)" stroke-width="1.51"></path><path d="M63,368L120,357L112,289Z" fill="rgb(130,167,166)" stroke="rgb(130,167,166)" stroke-width="1.51"></path><path d="M120,357L196,415L194,318Z" fill="rgb(110,150,150)" stroke="rgb(110,150,150)" stroke-width="1.51"></path><path d="M196,415L240,433L243,324Z" fill="rgb(89,132,135)" stroke="rgb(89,132,135)" stroke-width="1.51"></path><path d="M6,47L32,135L107,74Z" fill="rgb(229,223,238)" stroke="rgb(229,223,238)" stroke-width="1.51"></path><path d="M68,223L37,268L112,289Z" fill="rgb(153,183,210)" stroke="rgb(153,183,210)" stroke-width="1.51"></path><path d="M412,421L485,405L382,381Z" fill="rgb(16,101,103)" stroke="rgb(16,101,103)" stroke-width="1.51"></path><path d="M499,345L548,375L544,279Z" fill="rgb(3,110,95)" stroke="rgb(3,110,95)" stroke-width="1.51"></path><path d="M471,-80L418,-130L396,-13Z" fill="rgb(154,189,201)" stroke="rgb(154,189,201)" stroke-width="1.51"></path><path d="M116,-30L61,-2L107,74Z" fill="rgb(239,231,242)" stroke="rgb(239,231,242)" stroke-width="1.51"></path><path d="M-57,195L37,268L68,223Z" fill="rgb(171,198,223)" stroke="rgb(171,198,223)" stroke-width="1.51"></path><path d="M485,405L548,375L499,345Z" fill="rgb(2,100,84)" stroke="rgb(2,100,84)" stroke-width="1.51"></path><path d="M544,279L646,217L572,209Z" fill="rgb(41,113,125)" stroke="rgb(41,113,125)" stroke-width="1.51"></path><path d="M571,150L640,45L540,73Z" fill="rgb(113,144,142)" stroke="rgb(113,144,142)" stroke-width="1.51"></path><path d="M572,209L646,217L571,150Z" fill="rgb(62,120,129)" stroke="rgb(62,120,129)" stroke-width="1.51"></path><path d="M664,292L646,217L544,279Z" fill="rgb(27,104,113)" stroke="rgb(27,104,113)" stroke-width="1.51"></path><path d="M532,-7L564,-79L516,-17Z" fill="rgb(139,173,163)" stroke="rgb(139,173,163)" stroke-width="1.51"></path><path d="M471,-80L564,-79L418,-130Z" fill="rgb(145,182,181)" stroke="rgb(145,182,181)" stroke-width="1.51"></path><path d="M666,153L640,45L571,150Z" fill="rgb(102,134,135)" stroke="rgb(102,134,135)" stroke-width="1.51"></path><path d="M620,-72L564,-79L532,-7Z" fill="rgb(134,163,154)" stroke="rgb(134,163,154)" stroke-width="1.51"></path><path d="M116,-30L5,-129L61,-2Z" fill="rgb(247,238,246)" stroke="rgb(247,238,246)" stroke-width="1.51"></path><path d="M210,-76L142,-123L198,-51Z" fill="rgb(223,223,238)" stroke="rgb(223,223,238)" stroke-width="1.51"></path><path d="M336,-134L142,-123L210,-76Z" fill="rgb(209,217,234)" stroke="rgb(209,217,234)" stroke-width="1.51"></path><path d="M178,523L291,496L240,433Z" fill="rgb(83,126,131)" stroke="rgb(83,126,131)" stroke-width="1.51"></path><path d="M120,357L95,396L196,415Z" fill="rgb(113,143,142)" stroke="rgb(113,143,142)" stroke-width="1.51"></path><path d="M63,368L95,396L120,357Z" fill="rgb(124,155,151)" stroke="rgb(124,155,151)" stroke-width="1.51"></path><path d="M32,135L-57,195L68,223Z" fill="rgb(190,209,230)" stroke="rgb(190,209,230)" stroke-width="1.51"></path><path d="M61,-2L6,47L107,74Z" fill="rgb(240,231,242)" stroke="rgb(240,231,242)" stroke-width="1.51"></path><path d="M-68,68L6,47L-65,-42Z" fill="rgb(250,242,248)" stroke="rgb(250,242,248)" stroke-width="1.51"></path><path d="M646,217L666,153L571,150Z" fill="rgb(74,123,129)" stroke="rgb(74,123,129)" stroke-width="1.51"></path><path d="M37,268L63,368L112,289Z" fill="rgb(139,176,184)" stroke="rgb(139,176,184)" stroke-width="1.51"></path><path d="M240,433L291,496L356,430Z" fill="rgb(58,118,127)" stroke="rgb(58,118,127)" stroke-width="1.51"></path><path d="M356,430L411,500L412,421Z" fill="rgb(27,104,114)" stroke="rgb(27,104,114)" stroke-width="1.51"></path><path d="M412,421L460,515L485,405Z" fill="rgb(4,98,94)" stroke="rgb(4,98,94)" stroke-width="1.51"></path><path d="M178,523L240,433L196,415Z" fill="rgb(94,130,133)" stroke="rgb(94,130,133)" stroke-width="1.51"></path><path d="M654,323L664,292L544,279Z" fill="rgb(6,99,95)" stroke="rgb(6,99,95)" stroke-width="1.51"></path><path d="M485,405L575,408L548,375Z" fill="rgb(1,87,70)" stroke="rgb(1,87,70)" stroke-width="1.51"></path><path d="M576,515L575,408L485,405Z" fill="rgb(1,83,66)" stroke="rgb(1,83,66)" stroke-width="1.51"></path><path d="M310,519L411,500L356,430Z" fill="rgb(38,108,121)" stroke="rgb(38,108,121)" stroke-width="1.51"></path><path d="M640,45L655,5L532,-7Z" fill="rgb(128,152,145)" stroke="rgb(128,152,145)" stroke-width="1.51"></path><path d="M691,60L655,5L640,45Z" fill="rgb(124,148,143)" stroke="rgb(124,148,143)" stroke-width="1.51"></path><path d="M654,323L544,279L548,375Z" fill="rgb(4,98,87)" stroke="rgb(4,98,87)" stroke-width="1.51"></path><path d="M646,217L745,207L666,153Z" fill="rgb(61,119,127)" stroke="rgb(61,119,127)" stroke-width="1.51"></path><path d="M291,496L310,519L356,430Z" fill="rgb(50,115,125)" stroke="rgb(50,115,125)" stroke-width="1.51"></path><path d="M178,523L310,519L291,496Z" fill="rgb(74,123,129)" stroke="rgb(74,123,129)" stroke-width="1.51"></path><path d="M575,408L654,323L548,375Z" fill="rgb(1,83,66)" stroke="rgb(1,83,66)" stroke-width="1.51"></path><path d="M6,47L-39,111L32,135Z" fill="rgb(232,228,240)" stroke="rgb(232,228,240)" stroke-width="1.51"></path><path d="M37,268L-12,303L63,368Z" fill="rgb(144,180,184)" stroke="rgb(144,180,184)" stroke-width="1.51"></path><path d="M655,5L620,-72L532,-7Z" fill="rgb(130,155,146)" stroke="rgb(130,155,146)" stroke-width="1.51"></path><path d="M564,-79L682,-129L418,-130Z" fill="rgb(137,168,158)" stroke="rgb(137,168,158)" stroke-width="1.51"></path><path d="M666,153L693,98L640,45Z" fill="rgb(109,137,137)" stroke="rgb(109,137,137)" stroke-width="1.51"></path><path d="M745,207L693,98L666,153Z" fill="rgb(86,127,131)" stroke="rgb(86,127,131)" stroke-width="1.51"></path><path d="M-57,195L-12,303L37,268Z" fill="rgb(164,193,218)" stroke="rgb(164,193,218)" stroke-width="1.51"></path><path d="M63,368L67,437L95,396Z" fill="rgb(122,145,141)" stroke="rgb(122,145,141)" stroke-width="1.51"></path><path d="M655,5L698,6L620,-72Z" fill="rgb(130,155,146)" stroke="rgb(130,155,146)" stroke-width="1.51"></path><path d="M693,98L691,60L640,45Z" fill="rgb(117,142,139)" stroke="rgb(117,142,139)" stroke-width="1.51"></path><path d="M95,396L87,466L196,415Z" fill="rgb(113,140,138)" stroke="rgb(113,140,138)" stroke-width="1.51"></path><path d="M-25,417L67,437L63,368Z" fill="rgb(126,150,144)" stroke="rgb(126,150,144)" stroke-width="1.51"></path><path d="M411,500L460,515L412,421Z" fill="rgb(16,101,102)" stroke="rgb(16,101,102)" stroke-width="1.51"></path><path d="M310,519L460,515L411,500Z" fill="rgb(27,104,113)" stroke="rgb(27,104,113)" stroke-width="1.51"></path><path d="M-39,111L-57,195L32,135Z" fill="rgb(212,218,236)" stroke="rgb(212,218,236)" stroke-width="1.51"></path><path d="M67,437L87,466L95,396Z" fill="rgb(120,144,141)" stroke="rgb(120,144,141)" stroke-width="1.51"></path><path d="M87,466L178,523L196,415Z" fill="rgb(107,137,136)" stroke="rgb(107,137,136)" stroke-width="1.51"></path><path d="M310,519L576,515L460,515Z" fill="rgb(5,99,95)" stroke="rgb(5,99,95)" stroke-width="1.51"></path><path d="M691,60L698,6L655,5Z" fill="rgb(126,150,144)" stroke="rgb(126,150,144)" stroke-width="1.51"></path><path d="M745,207L698,6L691,60Z" fill="rgb(111,139,138)" stroke="rgb(111,139,138)" stroke-width="1.51"></path><path d="M-137,151L-119,204L-57,195Z" fill="rgb(193,211,231)" stroke="rgb(193,211,231)" stroke-width="1.51"></path><path d="M6,47L-68,68L-39,111Z" fill="rgb(238,232,243)" stroke="rgb(238,232,243)" stroke-width="1.51"></path><path d="M-65,-42L6,47L61,-2Z" fill="rgb(255,247,251)" stroke="rgb(255,247,251)" stroke-width="1.51"></path><path d="M664,292L745,207L646,217Z" fill="rgb(38,109,121)" stroke="rgb(38,109,121)" stroke-width="1.51"></path><path d="M693,98L745,207L691,60Z" fill="rgb(100,133,135)" stroke="rgb(100,133,135)" stroke-width="1.51"></path><path d="M654,323L710,303L664,292Z" fill="rgb(4,97,92)" stroke="rgb(4,97,92)" stroke-width="1.51"></path><path d="M746,368L710,303L654,323Z" fill="rgb(3,93,80)" stroke="rgb(3,93,80)" stroke-width="1.51"></path><path d="M656,405L654,323L575,408Z" fill="rgb(1,78,61)" stroke="rgb(1,78,61)" stroke-width="1.51"></path><path d="M654,509L656,405L575,408Z" fill="rgb(1,70,54)" stroke="rgb(1,70,54)" stroke-width="1.51"></path><path d="M710,303L745,207L664,292Z" fill="rgb(25,104,111)" stroke="rgb(25,104,111)" stroke-width="1.51"></path><path d="M142,-123L5,-129L116,-30Z" fill="rgb(243,235,244)" stroke="rgb(243,235,244)" stroke-width="1.51"></path><path d="M336,-134L5,-129L142,-123Z" fill="rgb(228,226,239)" stroke="rgb(228,226,239)" stroke-width="1.51"></path><path d="M5,-129L-25,-97L61,-2Z" fill="rgb(253,245,250)" stroke="rgb(253,245,250)" stroke-width="1.51"></path><path d="M-25,-97L-65,-42L61,-2Z" fill="rgb(255,247,251)" stroke="rgb(255,247,251)" stroke-width="1.51"></path><path d="M460,515L576,515L485,405Z" fill="rgb(2,91,77)" stroke="rgb(2,91,77)" stroke-width="1.51"></path><path d="M178,523L576,515L310,519Z" fill="rgb(39,109,122)" stroke="rgb(39,109,122)" stroke-width="1.51"></path><path d="M-65,360L-25,417L-12,303Z" fill="rgb(139,172,162)" stroke="rgb(139,172,162)" stroke-width="1.51"></path><path d="M-12,303L-25,417L63,368Z" fill="rgb(137,170,161)" stroke="rgb(137,170,161)" stroke-width="1.51"></path><path d="M67,437L39,492L87,466Z" fill="rgb(123,147,142)" stroke="rgb(123,147,142)" stroke-width="1.51"></path><path d="M87,466L39,492L178,523Z" fill="rgb(117,142,139)" stroke="rgb(117,142,139)" stroke-width="1.51"></path><path d="M-117,287L-65,360L-12,303Z" fill="rgb(147,183,184)" stroke="rgb(147,183,184)" stroke-width="1.51"></path><path d="M-117,287L-12,303L-57,195Z" fill="rgb(162,193,215)" stroke="rgb(162,193,215)" stroke-width="1.51"></path><path d="M-25,417L39,492L67,437Z" fill="rgb(127,151,144)" stroke="rgb(127,151,144)" stroke-width="1.51"></path><path d="M-137,151L-39,111L-68,68Z" fill="rgb(227,226,239)" stroke="rgb(227,226,239)" stroke-width="1.51"></path><path d="M-137,151L-57,195L-39,111Z" fill="rgb(209,217,234)" stroke="rgb(209,217,234)" stroke-width="1.51"></path><path d="M698,6L682,-129L620,-72Z" fill="rgb(130,155,146)" stroke="rgb(130,155,146)" stroke-width="1.51"></path><path d="M620,-72L682,-129L564,-79Z" fill="rgb(130,155,146)" stroke="rgb(130,155,146)" stroke-width="1.51"></path><path d="M418,-130L682,-129L336,-134Z" fill="rgb(146,183,183)" stroke="rgb(146,183,183)" stroke-width="1.51"></path><path d="M745,207L682,-129L698,6Z" fill="rgb(125,149,144)" stroke="rgb(125,149,144)" stroke-width="1.51"></path><path d="M-119,204L-117,287L-57,195Z" fill="rgb(173,200,224)" stroke="rgb(173,200,224)" stroke-width="1.51"></path><path d="M-65,360L-130,401L-25,417Z" fill="rgb(132,158,149)" stroke="rgb(132,158,149)" stroke-width="1.51"></path><path d="M-130,60L-137,151L-68,68Z" fill="rgb(233,229,241)" stroke="rgb(233,229,241)" stroke-width="1.51"></path><path d="M-119,204L-136,343L-117,287Z" fill="rgb(156,190,205)" stroke="rgb(156,190,205)" stroke-width="1.51"></path><path d="M-145,-13L-130,60L-68,68Z" fill="rgb(247,239,247)" stroke="rgb(247,239,247)" stroke-width="1.51"></path><path d="M710,303L746,368L745,207Z" fill="rgb(10,100,98)" stroke="rgb(10,100,98)" stroke-width="1.51"></path><path d="M656,405L746,368L654,323Z" fill="rgb(1,83,66)" stroke="rgb(1,83,66)" stroke-width="1.51"></path><path d="M727,407L746,368L656,405Z" fill="rgb(1,72,56)" stroke="rgb(1,72,56)" stroke-width="1.51"></path><path d="M683,489L727,407L656,405Z" fill="rgb(1,70,54)" stroke="rgb(1,70,54)" stroke-width="1.51"></path><path d="M576,515L654,509L575,408Z" fill="rgb(1,70,54)" stroke="rgb(1,70,54)" stroke-width="1.51"></path><path d="M654,509L683,489L656,405Z" fill="rgb(1,70,54)" stroke="rgb(1,70,54)" stroke-width="1.51"></path><path d="M-137,151L-136,343L-119,204Z" fill="rgb(171,199,224)" stroke="rgb(171,199,224)" stroke-width="1.51"></path><path d="M-117,287L-136,343L-65,360Z" fill="rgb(144,180,177)" stroke="rgb(144,180,177)" stroke-width="1.51"></path><path d="M-25,417L-31,521L39,492Z" fill="rgb(130,155,146)" stroke="rgb(130,155,146)" stroke-width="1.51"></path><path d="M-137,151L-145,-13L-136,343Z" fill="rgb(205,216,234)" stroke="rgb(205,216,234)" stroke-width="1.51"></path><path d="M-130,60L-145,-13L-137,151Z" fill="rgb(241,234,244)" stroke="rgb(241,234,244)" stroke-width="1.51"></path><path d="M-65,-42L-145,-13L-68,68Z" fill="rgb(254,246,250)" stroke="rgb(254,246,250)" stroke-width="1.51"></path><path d="M-129,-126L-145,-13L-65,-42Z" fill="rgb(255,247,251)" stroke="rgb(255,247,251)" stroke-width="1.51"></path><path d="M-129,-126L-65,-42L-25,-97Z" fill="rgb(255,247,251)" stroke="rgb(255,247,251)" stroke-width="1.51"></path><path d="M-134,486L-31,521L-25,417Z" fill="rgb(130,155,146)" stroke="rgb(130,155,146)" stroke-width="1.51"></path><path d="M39,492L-31,521L178,523Z" fill="rgb(123,147,142)" stroke="rgb(123,147,142)" stroke-width="1.51"></path><path d="M-136,343L-130,401L-65,360Z" fill="rgb(137,168,159)" stroke="rgb(137,168,159)" stroke-width="1.51"></path><path d="M5,-129L-129,-126L-25,-97Z" fill="rgb(255,247,251)" stroke="rgb(255,247,251)" stroke-width="1.51"></path><path d="M-145,-13L-134,486L-136,343Z" fill="rgb(158,191,209)" stroke="rgb(158,191,209)" stroke-width="1.51"></path><path d="M-136,343L-134,486L-130,401Z" fill="rgb(130,155,146)" stroke="rgb(130,155,146)" stroke-width="1.51"></path><path d="M-130,401L-134,486L-25,417Z" fill="rgb(130,155,146)" stroke="rgb(130,155,146)" stroke-width="1.51"></path></svg>