<svg width="600" height="400" xmlns="http://www.w3.org/2000/svg"><path d="M260,217L278,261L325,262Z" fill="rgb(238,245,167)" stroke="rgb(238,245,167)" stroke-width="1.51"></path><path d="M325,262L350,193L260,217Z" fill="rgb(245,251,176)" stroke="rgb(245,251,176)" stroke-width="1.51"></path><path d="M350,193L286,147L260,217Z" fill="rgb(255,249,181)" stroke="rgb(255,249,181)" stroke-width="1.51"></path><path d="M350,193L314,142L286,147Z" fill="rgb(252,238,160)" stroke="rgb(252,238,160)" stroke-width="1.51"></path><path d="M260,217L183,254L278,261Z" fill="rgb(240,234,146)" stroke="rgb(240,234,146)" stroke-width="1.51"></path><path d="M205,130L203,214L260,217Z" fill="rgb(255,227,150)" stroke="rgb(255,227,150)" stroke-width="1.51"></path><path d="M278,261L265,325L325,262Z" fill="rgb(212,234,173)" stroke="rgb(212,234,173)" stroke-width="1.51"></path><path d="M183,254L265,325L278,261Z" fill="rgb(215,223,153)" stroke="rgb(215,223,153)" stroke-width="1.51"></path><path d="M325,262L405,271L350,193Z" fill="rgb(229,245,153)" stroke="rgb(229,245,153)" stroke-width="1.51"></path><path d="M331,358L405,271L325,262Z" fill="rgb(190,227,161)" stroke="rgb(190,227,161)" stroke-width="1.51"></path><path d="M203,214L183,254L260,217Z" fill="rgb(247,226,142)" stroke="rgb(247,226,142)" stroke-width="1.51"></path><path d="M350,193L407,147L314,142Z" fill="rgb(243,236,147)" stroke="rgb(243,236,147)" stroke-width="1.51"></path><path d="M405,271L418,184L350,193Z" fill="rgb(223,242,166)" stroke="rgb(223,242,166)" stroke-width="1.51"></path><path d="M418,184L407,147L350,193Z" fill="rgb(228,234,159)" stroke="rgb(228,234,159)" stroke-width="1.51"></path><path d="M265,325L331,358L325,262Z" fill="rgb(186,226,176)" stroke="rgb(186,226,176)" stroke-width="1.51"></path><path d="M286,147L205,130L260,217Z" fill="rgb(255,228,147)" stroke="rgb(255,228,147)" stroke-width="1.51"></path><path d="M203,214L126,177L183,254Z" fill="rgb(252,208,133)" stroke="rgb(252,208,133)" stroke-width="1.51"></path><path d="M266,74L205,130L286,147Z" fill="rgb(255,200,122)" stroke="rgb(255,200,122)" stroke-width="1.51"></path><path d="M266,74L286,147L314,142Z" fill="rgb(255,212,139)" stroke="rgb(255,212,139)" stroke-width="1.51"></path><path d="M319,65L266,74L314,142Z" fill="rgb(255,194,133)" stroke="rgb(255,194,133)" stroke-width="1.51"></path><path d="M407,147L319,65L314,142Z" fill="rgb(248,210,128)" stroke="rgb(248,210,128)" stroke-width="1.51"></path><path d="M405,271L473,201L418,184Z" fill="rgb(202,233,169)" stroke="rgb(202,233,169)" stroke-width="1.51"></path><path d="M331,358L420,340L405,271Z" fill="rgb(157,212,163)" stroke="rgb(157,212,163)" stroke-width="1.51"></path><path d="M510,293L473,201L405,271Z" fill="rgb(169,219,161)" stroke="rgb(169,219,161)" stroke-width="1.51"></path><path d="M418,184L498,136L407,147Z" fill="rgb(206,216,149)" stroke="rgb(206,216,149)" stroke-width="1.51"></path><path d="M407,147L393,47L319,65Z" fill="rgb(239,183,112)" stroke="rgb(239,183,112)" stroke-width="1.51"></path><path d="M183,254L169,339L265,325Z" fill="rgb(199,201,141)" stroke="rgb(199,201,141)" stroke-width="1.51"></path><path d="M265,325L243,413L331,358Z" fill="rgb(171,184,181)" stroke="rgb(171,184,181)" stroke-width="1.51"></path><path d="M205,130L126,177L203,214Z" fill="rgb(255,204,126)" stroke="rgb(255,204,126)" stroke-width="1.51"></path><path d="M183,254L88,262L169,339Z" fill="rgb(216,181,121)" stroke="rgb(216,181,121)" stroke-width="1.51"></path><path d="M119,104L126,177L205,130Z" fill="rgb(252,169,98)" stroke="rgb(252,169,98)" stroke-width="1.51"></path><path d="M169,339L243,413L265,325Z" fill="rgb(174,173,161)" stroke="rgb(174,173,161)" stroke-width="1.51"></path><path d="M331,358L413,447L420,340Z" fill="rgb(150,168,169)" stroke="rgb(150,168,169)" stroke-width="1.51"></path><path d="M243,413L328,421L331,358Z" fill="rgb(178,165,180)" stroke="rgb(178,165,180)" stroke-width="1.51"></path><path d="M269,-40L204,38L266,74Z" fill="rgb(227,142,108)" stroke="rgb(227,142,108)" stroke-width="1.51"></path><path d="M500,62L393,47L407,147Z" fill="rgb(213,171,117)" stroke="rgb(213,171,117)" stroke-width="1.51"></path><path d="M266,74L204,38L205,130Z" fill="rgb(252,163,97)" stroke="rgb(252,163,97)" stroke-width="1.51"></path><path d="M269,-40L266,74L319,65Z" fill="rgb(235,156,125)" stroke="rgb(235,156,125)" stroke-width="1.51"></path><path d="M420,340L481,343L405,271Z" fill="rgb(132,204,165)" stroke="rgb(132,204,165)" stroke-width="1.51"></path><path d="M468,444L481,343L420,340Z" fill="rgb(109,158,173)" stroke="rgb(109,158,173)" stroke-width="1.51"></path><path d="M473,201L498,136L418,184Z" fill="rgb(194,219,161)" stroke="rgb(194,219,161)" stroke-width="1.51"></path><path d="M539,186L498,136L473,201Z" fill="rgb(180,203,168)" stroke="rgb(180,203,168)" stroke-width="1.51"></path><path d="M126,177L88,262L183,254Z" fill="rgb(247,187,116)" stroke="rgb(247,187,116)" stroke-width="1.51"></path><path d="M169,339L171,450L243,413Z" fill="rgb(182,130,139)" stroke="rgb(182,130,139)" stroke-width="1.51"></path><path d="M481,343L510,293L405,271Z" fill="rgb(128,203,165)" stroke="rgb(128,203,165)" stroke-width="1.51"></path><path d="M204,38L119,104L205,130Z" fill="rgb(250,149,85)" stroke="rgb(250,149,85)" stroke-width="1.51"></path><path d="M126,177L45,205L88,262Z" fill="rgb(243,171,123)" stroke="rgb(243,171,123)" stroke-width="1.51"></path><path d="M541,268L539,186L473,201Z" fill="rgb(170,202,179)" stroke="rgb(170,202,179)" stroke-width="1.51"></path><path d="M545,366L541,268L510,293Z" fill="rgb(98,171,176)" stroke="rgb(98,171,176)" stroke-width="1.51"></path><path d="M510,293L541,268L473,201Z" fill="rgb(154,201,168)" stroke="rgb(154,201,168)" stroke-width="1.51"></path><path d="M88,262L92,355L169,339Z" fill="rgb(193,157,116)" stroke="rgb(193,157,116)" stroke-width="1.51"></path><path d="M328,421L413,447L331,358Z" fill="rgb(169,159,162)" stroke="rgb(169,159,162)" stroke-width="1.51"></path><path d="M481,343L545,366L510,293Z" fill="rgb(86,168,176)" stroke="rgb(86,168,176)" stroke-width="1.51"></path><path d="M319,507L413,447L328,421Z" fill="rgb(170,159,163)" stroke="rgb(170,159,163)" stroke-width="1.51"></path><path d="M498,136L500,62L407,147Z" fill="rgb(197,185,129)" stroke="rgb(197,185,129)" stroke-width="1.51"></path><path d="M567,105L500,62L498,136Z" fill="rgb(183,151,134)" stroke="rgb(183,151,134)" stroke-width="1.51"></path><path d="M61,113L45,205L126,177Z" fill="rgb(242,157,109)" stroke="rgb(242,157,109)" stroke-width="1.51"></path><path d="M88,262L46,297L92,355Z" fill="rgb(192,148,119)" stroke="rgb(192,148,119)" stroke-width="1.51"></path><path d="M110,405L171,450L169,339Z" fill="rgb(181,110,126)" stroke="rgb(181,110,126)" stroke-width="1.51"></path><path d="M248,504L319,507L328,421Z" fill="rgb(179,163,179)" stroke="rgb(179,163,179)" stroke-width="1.51"></path><path d="M393,47L351,-33L319,65Z" fill="rgb(220,154,114)" stroke="rgb(220,154,114)" stroke-width="1.51"></path><path d="M400,-31L351,-33L393,47Z" fill="rgb(192,136,110)" stroke="rgb(192,136,110)" stroke-width="1.51"></path><path d="M92,355L110,405L169,339Z" fill="rgb(179,122,129)" stroke="rgb(179,122,129)" stroke-width="1.51"></path><path d="M45,205L46,297L88,262Z" fill="rgb(220,157,116)" stroke="rgb(220,157,116)" stroke-width="1.51"></path><path d="M92,355L22,405L110,405Z" fill="rgb(168,88,124)" stroke="rgb(168,88,124)" stroke-width="1.51"></path><path d="M92,42L61,113L119,104Z" fill="rgb(238,104,73)" stroke="rgb(238,104,73)" stroke-width="1.51"></path><path d="M119,104L61,113L126,177Z" fill="rgb(246,144,89)" stroke="rgb(246,144,89)" stroke-width="1.51"></path><path d="M351,-33L269,-40L319,65Z" fill="rgb(210,143,122)" stroke="rgb(210,143,122)" stroke-width="1.51"></path><path d="M204,38L92,42L119,104Z" fill="rgb(239,110,75)" stroke="rgb(239,110,75)" stroke-width="1.51"></path><path d="M413,447L468,444L420,340Z" fill="rgb(132,146,165)" stroke="rgb(132,146,165)" stroke-width="1.51"></path><path d="M351,-33L354,-77L269,-40Z" fill="rgb(208,142,118)" stroke="rgb(208,142,118)" stroke-width="1.51"></path><path d="M485,-29L400,-31L393,47Z" fill="rgb(174,129,113)" stroke="rgb(174,129,113)" stroke-width="1.51"></path><path d="M176,-28L92,42L204,38Z" fill="rgb(216,97,80)" stroke="rgb(216,97,80)" stroke-width="1.51"></path><path d="M468,444L545,366L481,343Z" fill="rgb(92,139,174)" stroke="rgb(92,139,174)" stroke-width="1.51"></path><path d="M618,109L567,105L539,186Z" fill="rgb(180,145,146)" stroke="rgb(180,145,146)" stroke-width="1.51"></path><path d="M248,504L328,421L243,413Z" fill="rgb(180,156,168)" stroke="rgb(180,156,168)" stroke-width="1.51"></path><path d="M413,447L436,475L468,444Z" fill="rgb(129,144,165)" stroke="rgb(129,144,165)" stroke-width="1.51"></path><path d="M269,-40L176,-28L204,38Z" fill="rgb(208,118,94)" stroke="rgb(208,118,94)" stroke-width="1.51"></path><path d="M319,507L436,475L413,447Z" fill="rgb(154,153,163)" stroke="rgb(154,153,163)" stroke-width="1.51"></path><path d="M171,450L248,504L243,413Z" fill="rgb(181,140,148)" stroke="rgb(181,140,148)" stroke-width="1.51"></path><path d="M500,62L485,-29L393,47Z" fill="rgb(178,136,118)" stroke="rgb(178,136,118)" stroke-width="1.51"></path><path d="M539,186L567,105L498,136Z" fill="rgb(176,171,156)" stroke="rgb(176,171,156)" stroke-width="1.51"></path><path d="M618,109L539,186L646,180Z" fill="rgb(181,147,154)" stroke="rgb(181,147,154)" stroke-width="1.51"></path><path d="M46,297L33,343L92,355Z" fill="rgb(173,129,124)" stroke="rgb(173,129,124)" stroke-width="1.51"></path><path d="M-34,278L33,343L46,297Z" fill="rgb(167,127,115)" stroke="rgb(167,127,115)" stroke-width="1.51"></path><path d="M248,504L208,517L319,507Z" fill="rgb(180,152,162)" stroke="rgb(180,152,162)" stroke-width="1.51"></path><path d="M171,450L208,517L248,504Z" fill="rgb(182,135,144)" stroke="rgb(182,135,144)" stroke-width="1.51"></path><path d="M89,497L208,517L171,450Z" fill="rgb(182,112,127)" stroke="rgb(182,112,127)" stroke-width="1.51"></path><path d="M89,497L171,450L110,405Z" fill="rgb(181,95,119)" stroke="rgb(181,95,119)" stroke-width="1.51"></path><path d="M400,-31L354,-77L351,-33Z" fill="rgb(198,138,109)" stroke="rgb(198,138,109)" stroke-width="1.51"></path><path d="M269,-40L239,-80L176,-28Z" fill="rgb(209,123,98)" stroke="rgb(209,123,98)" stroke-width="1.51"></path><path d="M393,-84L354,-77L400,-31Z" fill="rgb(192,136,110)" stroke="rgb(192,136,110)" stroke-width="1.51"></path><path d="M354,-77L239,-80L269,-40Z" fill="rgb(212,140,121)" stroke="rgb(212,140,121)" stroke-width="1.51"></path><path d="M567,105L550,34L500,62Z" fill="rgb(174,121,131)" stroke="rgb(174,121,131)" stroke-width="1.51"></path><path d="M550,34L485,-29L500,62Z" fill="rgb(158,113,123)" stroke="rgb(158,113,123)" stroke-width="1.51"></path><path d="M45,205L-13,214L46,297Z" fill="rgb(214,149,111)" stroke="rgb(214,149,111)" stroke-width="1.51"></path><path d="M-22,126L-13,214L45,205Z" fill="rgb(213,137,115)" stroke="rgb(213,137,115)" stroke-width="1.51"></path><path d="M-22,126L45,205L61,113Z" fill="rgb(221,130,99)" stroke="rgb(221,130,99)" stroke-width="1.51"></path><path d="M92,42L48,33L61,113Z" fill="rgb(224,79,76)" stroke="rgb(224,79,76)" stroke-width="1.51"></path><path d="M176,-28L91,-10L92,42Z" fill="rgb(202,66,68)" stroke="rgb(202,66,68)" stroke-width="1.51"></path><path d="M105,-85L91,-10L176,-28Z" fill="rgb(201,68,69)" stroke="rgb(201,68,69)" stroke-width="1.51"></path><path d="M91,-10L48,33L92,42Z" fill="rgb(205,59,75)" stroke="rgb(205,59,75)" stroke-width="1.51"></path><path d="M469,-84L393,-84L400,-31Z" fill="rgb(176,130,113)" stroke="rgb(176,130,113)" stroke-width="1.51"></path><path d="M354,-77L393,-84L239,-80Z" fill="rgb(207,141,117)" stroke="rgb(207,141,117)" stroke-width="1.51"></path><path d="M436,475L477,503L468,444Z" fill="rgb(117,140,165)" stroke="rgb(117,140,165)" stroke-width="1.51"></path><path d="M468,444L568,429L545,366Z" fill="rgb(86,114,173)" stroke="rgb(86,114,173)" stroke-width="1.51"></path><path d="M319,507L477,503L436,475Z" fill="rgb(144,150,164)" stroke="rgb(144,150,164)" stroke-width="1.51"></path><path d="M208,517L477,503L319,507Z" fill="rgb(173,160,169)" stroke="rgb(173,160,169)" stroke-width="1.51"></path><path d="M33,343L22,405L92,355Z" fill="rgb(158,97,129)" stroke="rgb(158,97,129)" stroke-width="1.51"></path><path d="M-57,355L22,405L33,343Z" fill="rgb(135,82,122)" stroke="rgb(135,82,122)" stroke-width="1.51"></path><path d="M105,-85L164,-79L24,-122Z" fill="rgb(195,55,70)" stroke="rgb(195,55,70)" stroke-width="1.51"></path><path d="M239,-80L164,-79L176,-28Z" fill="rgb(207,108,87)" stroke="rgb(207,108,87)" stroke-width="1.51"></path><path d="M639,327L637,296L541,268Z" fill="rgb(125,143,165)" stroke="rgb(125,143,165)" stroke-width="1.51"></path><path d="M565,481L568,429L468,444Z" fill="rgb(83,111,175)" stroke="rgb(83,111,175)" stroke-width="1.51"></path><path d="M646,180L539,186L541,268Z" fill="rgb(172,174,179)" stroke="rgb(172,174,179)" stroke-width="1.51"></path><path d="M567,105L618,109L550,34Z" fill="rgb(180,107,123)" stroke="rgb(180,107,123)" stroke-width="1.51"></path><path d="M48,33L-22,126L61,113Z" fill="rgb(216,86,75)" stroke="rgb(216,86,75)" stroke-width="1.51"></path><path d="M-90,205L-34,278L-13,214Z" fill="rgb(203,140,111)" stroke="rgb(203,140,111)" stroke-width="1.51"></path><path d="M-13,214L-34,278L46,297Z" fill="rgb(187,134,111)" stroke="rgb(187,134,111)" stroke-width="1.51"></path><path d="M639,327L541,268L545,366Z" fill="rgb(98,148,170)" stroke="rgb(98,148,170)" stroke-width="1.51"></path><path d="M22,405L89,497L110,405Z" fill="rgb(168,77,120)" stroke="rgb(168,77,120)" stroke-width="1.51"></path><path d="M48,33L-59,65L-22,126Z" fill="rgb(199,62,69)" stroke="rgb(199,62,69)" stroke-width="1.51"></path><path d="M91,-10L42,-3L48,33Z" fill="rgb(190,42,74)" stroke="rgb(190,42,74)" stroke-width="1.51"></path><path d="M105,-85L42,-3L91,-10Z" fill="rgb(190,47,71)" stroke="rgb(190,47,71)" stroke-width="1.51"></path><path d="M637,296L646,180L541,268Z" fill="rgb(163,156,162)" stroke="rgb(163,156,162)" stroke-width="1.51"></path><path d="M568,-45L485,-29L550,34Z" fill="rgb(136,91,124)" stroke="rgb(136,91,124)" stroke-width="1.51"></path><path d="M568,-45L469,-84L485,-29Z" fill="rgb(144,105,119)" stroke="rgb(144,105,119)" stroke-width="1.51"></path><path d="M485,-29L469,-84L400,-31Z" fill="rgb(163,124,113)" stroke="rgb(163,124,113)" stroke-width="1.51"></path><path d="M653,399L639,327L545,366Z" fill="rgb(82,105,174)" stroke="rgb(82,105,174)" stroke-width="1.51"></path><path d="M637,296L693,292L646,180Z" fill="rgb(157,154,163)" stroke="rgb(157,154,163)" stroke-width="1.51"></path><path d="M568,429L653,399L545,366Z" fill="rgb(92,86,165)" stroke="rgb(92,86,165)" stroke-width="1.51"></path><path d="M477,503L565,481L468,444Z" fill="rgb(97,125,169)" stroke="rgb(97,125,169)" stroke-width="1.51"></path><path d="M164,-79L105,-85L176,-28Z" fill="rgb(204,83,75)" stroke="rgb(204,83,75)" stroke-width="1.51"></path><path d="M24,-122L164,-79L239,-80Z" fill="rgb(203,80,73)" stroke="rgb(203,80,73)" stroke-width="1.51"></path><path d="M24,-122L239,-80L393,-84Z" fill="rgb(208,119,95)" stroke="rgb(208,119,95)" stroke-width="1.51"></path><path d="M643,-3L568,-45L550,34Z" fill="rgb(137,62,115)" stroke="rgb(137,62,115)" stroke-width="1.51"></path><path d="M653,69L550,34L618,109Z" fill="rgb(177,88,118)" stroke="rgb(177,88,118)" stroke-width="1.51"></path><path d="M-34,278L-57,355L33,343Z" fill="rgb(149,114,115)" stroke="rgb(149,114,115)" stroke-width="1.51"></path><path d="M22,405L17,522L89,497Z" fill="rgb(156,67,118)" stroke="rgb(156,67,118)" stroke-width="1.51"></path><path d="M-94,333L-57,355L-34,278Z" fill="rgb(150,117,114)" stroke="rgb(150,117,114)" stroke-width="1.51"></path><path d="M688,60L653,69L720,126Z" fill="rgb(181,97,120)" stroke="rgb(181,97,120)" stroke-width="1.51"></path><path d="M720,126L653,69L618,109Z" fill="rgb(182,110,126)" stroke="rgb(182,110,126)" stroke-width="1.51"></path><path d="M639,327L693,292L637,296Z" fill="rgb(119,141,165)" stroke="rgb(119,141,165)" stroke-width="1.51"></path><path d="M639,482L653,399L568,429Z" fill="rgb(94,79,162)" stroke="rgb(94,79,162)" stroke-width="1.51"></path><path d="M-22,126L-90,205L-13,214Z" fill="rgb(211,136,115)" stroke="rgb(211,136,115)" stroke-width="1.51"></path><path d="M-115,125L-90,205L-22,126Z" fill="rgb(209,123,98)" stroke="rgb(209,123,98)" stroke-width="1.51"></path><path d="M-15,-22L48,33L42,-3Z" fill="rgb(171,22,70)" stroke="rgb(171,22,70)" stroke-width="1.51"></path><path d="M-15,-22L-59,65L48,33Z" fill="rgb(175,27,70)" stroke="rgb(175,27,70)" stroke-width="1.51"></path><path d="M732,361L693,292L639,327Z" fill="rgb(102,132,166)" stroke="rgb(102,132,166)" stroke-width="1.51"></path><path d="M-25,-85L-15,-22L42,-3Z" fill="rgb(158,1,66)" stroke="rgb(158,1,66)" stroke-width="1.51"></path><path d="M653,69L643,-3L550,34Z" fill="rgb(160,69,119)" stroke="rgb(160,69,119)" stroke-width="1.51"></path><path d="M688,60L643,-3L653,69Z" fill="rgb(165,74,121)" stroke="rgb(165,74,121)" stroke-width="1.51"></path><path d="M-51,444L17,522L22,405Z" fill="rgb(137,53,112)" stroke="rgb(137,53,112)" stroke-width="1.51"></path><path d="M-118,292L-94,333L-34,278Z" fill="rgb(163,124,113)" stroke="rgb(163,124,113)" stroke-width="1.51"></path><path d="M-51,444L22,405L-57,355Z" fill="rgb(137,53,112)" stroke="rgb(137,53,112)" stroke-width="1.51"></path><path d="M89,497L17,522L208,517Z" fill="rgb(176,88,118)" stroke="rgb(176,88,118)" stroke-width="1.51"></path><path d="M-119,424L-51,444L-57,355Z" fill="rgb(137,53,112)" stroke="rgb(137,53,112)" stroke-width="1.51"></path><path d="M720,126L618,109L646,180Z" fill="rgb(182,135,143)" stroke="rgb(182,135,143)" stroke-width="1.51"></path><path d="M633,-89L573,-99L568,-45Z" fill="rgb(137,59,114)" stroke="rgb(137,59,114)" stroke-width="1.51"></path><path d="M568,-45L573,-99L469,-84Z" fill="rgb(136,90,124)" stroke="rgb(136,90,124)" stroke-width="1.51"></path><path d="M469,-84L573,-99L393,-84Z" fill="rgb(152,119,113)" stroke="rgb(152,119,113)" stroke-width="1.51"></path><path d="M653,399L732,361L639,327Z" fill="rgb(81,107,174)" stroke="rgb(81,107,174)" stroke-width="1.51"></path><path d="M565,481L639,482L568,429Z" fill="rgb(93,84,164)" stroke="rgb(93,84,164)" stroke-width="1.51"></path><path d="M722,518L639,482L565,481Z" fill="rgb(94,79,162)" stroke="rgb(94,79,162)" stroke-width="1.51"></path><path d="M-121,492L-60,497L-51,444Z" fill="rgb(137,53,112)" stroke="rgb(137,53,112)" stroke-width="1.51"></path><path d="M-90,205L-118,292L-34,278Z" fill="rgb(190,135,110)" stroke="rgb(190,135,110)" stroke-width="1.51"></path><path d="M-115,125L-118,292L-90,205Z" fill="rgb(210,143,122)" stroke="rgb(210,143,122)" stroke-width="1.51"></path><path d="M693,292L730,214L646,180Z" fill="rgb(171,160,166)" stroke="rgb(171,160,166)" stroke-width="1.51"></path><path d="M732,361L730,214L693,292Z" fill="rgb(132,146,165)" stroke="rgb(132,146,165)" stroke-width="1.51"></path><path d="M-59,65L-115,125L-22,126Z" fill="rgb(204,89,77)" stroke="rgb(204,89,77)" stroke-width="1.51"></path><path d="M-112,33L-115,125L-59,65Z" fill="rgb(199,62,69)" stroke="rgb(199,62,69)" stroke-width="1.51"></path><path d="M730,214L720,126L646,180Z" fill="rgb(180,153,163)" stroke="rgb(180,153,163)" stroke-width="1.51"></path><path d="M-15,-22L-112,33L-59,65Z" fill="rgb(175,27,70)" stroke="rgb(175,27,70)" stroke-width="1.51"></path><path d="M105,-85L24,-122L42,-3Z" fill="rgb(184,36,72)" stroke="rgb(184,36,72)" stroke-width="1.51"></path><path d="M573,-99L24,-122L393,-84Z" fill="rgb(207,141,117)" stroke="rgb(207,141,117)" stroke-width="1.51"></path><path d="M720,448L732,361L653,399Z" fill="rgb(94,79,162)" stroke="rgb(94,79,162)" stroke-width="1.51"></path><path d="M24,-122L-25,-85L42,-3Z" fill="rgb(164,12,68)" stroke="rgb(164,12,68)" stroke-width="1.51"></path><path d="M-51,444L-60,497L17,522Z" fill="rgb(137,53,112)" stroke="rgb(137,53,112)" stroke-width="1.51"></path><path d="M-119,424L-57,355L-94,333Z" fill="rgb(135,79,122)" stroke="rgb(135,79,122)" stroke-width="1.51"></path><path d="M687,-24L643,-3L688,60Z" fill="rgb(144,59,115)" stroke="rgb(144,59,115)" stroke-width="1.51"></path><path d="M687,-24L633,-89L643,-3Z" fill="rgb(137,53,112)" stroke="rgb(137,53,112)" stroke-width="1.51"></path><path d="M643,-3L633,-89L568,-45Z" fill="rgb(137,53,112)" stroke="rgb(137,53,112)" stroke-width="1.51"></path><path d="M-117,-21L-112,33L-15,-22Z" fill="rgb(158,1,66)" stroke="rgb(158,1,66)" stroke-width="1.51"></path><path d="M720,-93L687,-24L688,60Z" fill="rgb(137,53,112)" stroke="rgb(137,53,112)" stroke-width="1.51"></path><path d="M-118,292L-119,424L-94,333Z" fill="rgb(139,96,122)" stroke="rgb(139,96,122)" stroke-width="1.51"></path><path d="M639,482L720,448L653,399Z" fill="rgb(94,79,162)" stroke="rgb(94,79,162)" stroke-width="1.51"></path><path d="M-25,-85L-117,-21L-15,-22Z" fill="rgb(158,1,66)" stroke="rgb(158,1,66)" stroke-width="1.51"></path><path d="M-112,33L-137,-109L-115,125Z" fill="rgb(169,20,69)" stroke="rgb(169,20,69)" stroke-width="1.51"></path><path d="M-115,125L-137,-109L-118,292Z" fill="rgb(204,87,76)" stroke="rgb(204,87,76)" stroke-width="1.51"></path><path d="M-118,292L-121,492L-119,424Z" fill="rgb(137,53,112)" stroke="rgb(137,53,112)" stroke-width="1.51"></path><path d="M-137,-109L-117,-21L-25,-85Z" fill="rgb(158,1,66)" stroke="rgb(158,1,66)" stroke-width="1.51"></path><path d="M-60,497L-121,492L17,522Z" fill="rgb(137,53,112)" stroke="rgb(137,53,112)" stroke-width="1.51"></path><path d="M-119,424L-121,492L-51,444Z" fill="rgb(137,53,112)" stroke="rgb(137,53,112)" stroke-width="1.51"></path><path d="M-137,-109L-121,492L-118,292Z" fill="rgb(205,141,115)" stroke="rgb(205,141,115)" stroke-width="1.51"></path><path d="M639,482L722,518L720,448Z" fill="rgb(94,79,162)" stroke="rgb(94,79,162)" stroke-width="1.51"></path><path d="M720,448L722,518L732,361Z" fill="rgb(94,79,162)" stroke="rgb(94,79,162)" stroke-width="1.51"></path><path d="M477,503L722,518L565,481Z" fill="rgb(92,85,164)" stroke="rgb(92,85,164)" stroke-width="1.51"></path><path d="M208,517L722,518L477,503Z" fill="rgb(112,139,165)" stroke="rgb(112,139,165)" stroke-width="1.51"></path><path d="M17,522L722,518L208,517Z" fill="rgb(176,162,174)" stroke="rgb(176,162,174)" stroke-width="1.51"></path><path d="M720,126L720,-93L688,60Z" fill="rgb(158,68,119)" stroke="rgb(158,68,119)" stroke-width="1.51"></path><path d="M687,-24L720,-93L633,-89Z" fill="rgb(137,53,112)" stroke="rgb(137,53,112)" stroke-width="1.51"></path><path d="M633,-89L720,-93L573,-99Z" fill="rgb(137,53,112)" stroke="rgb(137,53,112)" stroke-width="1.51"></path><path d="M573,-99L720,-93L24,-122Z" fill="rgb(168,126,113)" stroke="rgb(168,126,113)" stroke-width="1.51"></path><path d="M730,214L720,-93L720,126Z" fill="rgb(181,95,119)" stroke="rgb(181,95,119)" stroke-width="1.51"></path><path d="M-117,-21L-137,-109L-112,33Z" fill="rgb(158,1,66)" stroke="rgb(158,1,66)" stroke-width="1.51"></path><path d="M24,-122L-137,-109L-25,-85Z" fill="rgb(158,1,66)" stroke="rgb(158,1,66)" stroke-width="1.51"></path></svg>