<svg width="600" height="400" xmlns="http://www.w3.org/2000/svg"><path d="M270,200L334,200L336,127Z" fill="rgb(132,205,194)" stroke="rgb(132,205,194)" stroke-width="1.51"></path><path d="M336,127L270,121L270,200Z" fill="rgb(149,213,188)" stroke="rgb(149,213,188)" stroke-width="1.51"></path><path d="M342,47L256,50L270,121Z" fill="rgb(174,223,202)" stroke="rgb(174,223,202)" stroke-width="1.51"></path><path d="M417,194L405,117L336,127Z" fill="rgb(130,197,196)" stroke="rgb(130,197,196)" stroke-width="1.51"></path><path d="M270,200L341,269L334,200Z" fill="rgb(111,195,201)" stroke="rgb(111,195,201)" stroke-width="1.51"></path><path d="M334,200L417,194L336,127Z" fill="rgb(121,198,199)" stroke="rgb(121,198,199)" stroke-width="1.51"></path><path d="M270,121L191,192L270,200Z" fill="rgb(154,215,186)" stroke="rgb(154,215,186)" stroke-width="1.51"></path><path d="M270,200L257,281L341,269Z" fill="rgb(107,192,203)" stroke="rgb(107,192,203)" stroke-width="1.51"></path><path d="M270,121L192,120L191,192Z" fill="rgb(172,222,183)" stroke="rgb(172,222,183)" stroke-width="1.51"></path><path d="M256,50L192,120L270,121Z" fill="rgb(183,227,191)" stroke="rgb(183,227,191)" stroke-width="1.51"></path><path d="M341,269L417,194L334,200Z" fill="rgb(97,188,206)" stroke="rgb(97,188,206)" stroke-width="1.51"></path><path d="M342,47L270,121L336,127Z" fill="rgb(163,217,199)" stroke="rgb(163,217,199)" stroke-width="1.51"></path><path d="M405,117L342,47L336,127Z" fill="rgb(154,209,203)" stroke="rgb(154,209,203)" stroke-width="1.51"></path><path d="M191,192L257,281L270,200Z" fill="rgb(135,205,194)" stroke="rgb(135,205,194)" stroke-width="1.51"></path><path d="M405,117L412,48L342,47Z" fill="rgb(154,206,210)" stroke="rgb(154,206,210)" stroke-width="1.51"></path><path d="M490,51L412,48L405,117Z" fill="rgb(146,192,202)" stroke="rgb(146,192,202)" stroke-width="1.51"></path><path d="M408,343L411,282L341,269Z" fill="rgb(60,157,199)" stroke="rgb(60,157,199)" stroke-width="1.51"></path><path d="M341,269L411,282L417,194Z" fill="rgb(76,175,209)" stroke="rgb(76,175,209)" stroke-width="1.51"></path><path d="M256,50L182,54L192,120Z" fill="rgb(195,232,196)" stroke="rgb(195,232,196)" stroke-width="1.51"></path><path d="M192,120L119,126L191,192Z" fill="rgb(184,227,187)" stroke="rgb(184,227,187)" stroke-width="1.51"></path><path d="M257,281L331,354L341,269Z" fill="rgb(87,169,194)" stroke="rgb(87,169,194)" stroke-width="1.51"></path><path d="M191,192L189,282L257,281Z" fill="rgb(134,200,198)" stroke="rgb(134,200,198)" stroke-width="1.51"></path><path d="M116,194L189,282L191,192Z" fill="rgb(155,212,199)" stroke="rgb(155,212,199)" stroke-width="1.51"></path><path d="M189,282L255,342L257,281Z" fill="rgb(115,178,187)" stroke="rgb(115,178,187)" stroke-width="1.51"></path><path d="M342,47L331,-21L256,50Z" fill="rgb(179,224,213)" stroke="rgb(179,224,213)" stroke-width="1.51"></path><path d="M256,50L188,-19L182,54Z" fill="rgb(205,236,206)" stroke="rgb(205,236,206)" stroke-width="1.51"></path><path d="M415,-21L331,-21L342,47Z" fill="rgb(174,217,224)" stroke="rgb(174,217,224)" stroke-width="1.51"></path><path d="M495,203L485,130L417,194Z" fill="rgb(103,171,188)" stroke="rgb(103,171,188)" stroke-width="1.51"></path><path d="M417,194L485,130L405,117Z" fill="rgb(122,184,189)" stroke="rgb(122,184,189)" stroke-width="1.51"></path><path d="M182,54L119,126L192,120Z" fill="rgb(201,234,195)" stroke="rgb(201,234,195)" stroke-width="1.51"></path><path d="M119,126L116,194L191,192Z" fill="rgb(179,225,193)" stroke="rgb(179,225,193)" stroke-width="1.51"></path><path d="M331,-21L256,-23L256,50Z" fill="rgb(192,230,215)" stroke="rgb(192,230,215)" stroke-width="1.51"></path><path d="M255,342L331,354L257,281Z" fill="rgb(95,163,187)" stroke="rgb(95,163,187)" stroke-width="1.51"></path><path d="M485,268L495,203L417,194Z" fill="rgb(78,162,195)" stroke="rgb(78,162,195)" stroke-width="1.51"></path><path d="M331,354L408,343L341,269Z" fill="rgb(65,153,195)" stroke="rgb(65,153,195)" stroke-width="1.51"></path><path d="M411,282L485,268L417,194Z" fill="rgb(66,163,202)" stroke="rgb(66,163,202)" stroke-width="1.51"></path><path d="M487,347L485,268L411,282Z" fill="rgb(42,138,189)" stroke="rgb(42,138,189)" stroke-width="1.51"></path><path d="M182,54L111,55L119,126Z" fill="rgb(210,237,204)" stroke="rgb(210,237,204)" stroke-width="1.51"></path><path d="M256,-23L188,-19L256,50Z" fill="rgb(205,236,211)" stroke="rgb(205,236,211)" stroke-width="1.51"></path><path d="M331,-21L269,-94L256,-23Z" fill="rgb(192,230,216)" stroke="rgb(192,230,216)" stroke-width="1.51"></path><path d="M412,48L415,-21L342,47Z" fill="rgb(164,209,219)" stroke="rgb(164,209,219)" stroke-width="1.51"></path><path d="M490,51L415,-21L412,48Z" fill="rgb(155,195,211)" stroke="rgb(155,195,211)" stroke-width="1.51"></path><path d="M485,130L490,51L405,117Z" fill="rgb(137,183,194)" stroke="rgb(137,183,194)" stroke-width="1.51"></path><path d="M564,121L490,51L485,130Z" fill="rgb(131,170,187)" stroke="rgb(131,170,187)" stroke-width="1.51"></path><path d="M119,126L45,193L116,194Z" fill="rgb(185,228,200)" stroke="rgb(185,228,200)" stroke-width="1.51"></path><path d="M188,-19L111,55L182,54Z" fill="rgb(216,240,211)" stroke="rgb(216,240,211)" stroke-width="1.51"></path><path d="M189,282L185,350L255,342Z" fill="rgb(119,171,184)" stroke="rgb(119,171,184)" stroke-width="1.51"></path><path d="M262,429L329,428L331,354Z" fill="rgb(75,130,164)" stroke="rgb(75,130,164)" stroke-width="1.51"></path><path d="M113,279L185,350L189,282Z" fill="rgb(134,183,193)" stroke="rgb(134,183,193)" stroke-width="1.51"></path><path d="M45,193L113,279L116,194Z" fill="rgb(167,217,209)" stroke="rgb(167,217,209)" stroke-width="1.51"></path><path d="M116,194L113,279L189,282Z" fill="rgb(151,207,206)" stroke="rgb(151,207,206)" stroke-width="1.51"></path><path d="M415,-21L331,-93L331,-21Z" fill="rgb(175,218,224)" stroke="rgb(175,218,224)" stroke-width="1.51"></path><path d="M256,-23L185,-101L188,-19Z" fill="rgb(211,238,212)" stroke="rgb(211,238,212)" stroke-width="1.51"></path><path d="M331,-93L269,-94L331,-21Z" fill="rgb(185,226,219)" stroke="rgb(185,226,219)" stroke-width="1.51"></path><path d="M30,118L45,193L119,126Z" fill="rgb(199,233,202)" stroke="rgb(199,233,202)" stroke-width="1.51"></path><path d="M554,269L562,201L495,203Z" fill="rgb(70,143,184)" stroke="rgb(70,143,184)" stroke-width="1.51"></path><path d="M408,343L487,347L411,282Z" fill="rgb(42,135,187)" stroke="rgb(42,135,187)" stroke-width="1.51"></path><path d="M492,418L487,347L408,343Z" fill="rgb(28,111,171)" stroke="rgb(28,111,171)" stroke-width="1.51"></path><path d="M490,51L490,-21L415,-21Z" fill="rgb(156,190,213)" stroke="rgb(156,190,213)" stroke-width="1.51"></path><path d="M415,-21L418,-108L331,-93Z" fill="rgb(170,211,224)" stroke="rgb(170,211,224)" stroke-width="1.51"></path><path d="M557,50L490,-21L490,51Z" fill="rgb(146,176,203)" stroke="rgb(146,176,203)" stroke-width="1.51"></path><path d="M495,203L562,201L485,130Z" fill="rgb(97,158,183)" stroke="rgb(97,158,183)" stroke-width="1.51"></path><path d="M554,269L495,203L485,268Z" fill="rgb(57,145,193)" stroke="rgb(57,145,193)" stroke-width="1.51"></path><path d="M562,201L564,121L485,130Z" fill="rgb(109,156,174)" stroke="rgb(109,156,174)" stroke-width="1.51"></path><path d="M331,354L406,428L408,343Z" fill="rgb(50,128,179)" stroke="rgb(50,128,179)" stroke-width="1.51"></path><path d="M262,429L331,354L255,342Z" fill="rgb(87,143,172)" stroke="rgb(87,143,172)" stroke-width="1.51"></path><path d="M185,350L262,429L255,342Z" fill="rgb(105,149,168)" stroke="rgb(105,149,168)" stroke-width="1.51"></path><path d="M181,428L262,429L185,350Z" fill="rgb(108,139,158)" stroke="rgb(108,139,158)" stroke-width="1.51"></path><path d="M188,-19L110,-28L111,55Z" fill="rgb(227,244,220)" stroke="rgb(227,244,220)" stroke-width="1.51"></path><path d="M41,57L30,118L119,126Z" fill="rgb(216,240,209)" stroke="rgb(216,240,209)" stroke-width="1.51"></path><path d="M185,-101L110,-28L188,-19Z" fill="rgb(223,243,217)" stroke="rgb(223,243,217)" stroke-width="1.51"></path><path d="M113,279L105,350L185,350Z" fill="rgb(136,177,193)" stroke="rgb(136,177,193)" stroke-width="1.51"></path><path d="M40,281L105,350L113,279Z" fill="rgb(145,188,203)" stroke="rgb(145,188,203)" stroke-width="1.51"></path><path d="M487,347L554,269L485,268Z" fill="rgb(36,128,184)" stroke="rgb(36,128,184)" stroke-width="1.51"></path><path d="M41,57L119,126L111,55Z" fill="rgb(216,240,210)" stroke="rgb(216,240,210)" stroke-width="1.51"></path><path d="M564,121L557,50L490,51Z" fill="rgb(133,165,188)" stroke="rgb(133,165,188)" stroke-width="1.51"></path><path d="M110,-28L41,57L111,55Z" fill="rgb(228,245,221)" stroke="rgb(228,245,221)" stroke-width="1.51"></path><path d="M329,428L406,428L331,354Z" fill="rgb(59,122,168)" stroke="rgb(59,122,168)" stroke-width="1.51"></path><path d="M345,504L406,428L329,428Z" fill="rgb(57,121,168)" stroke="rgb(57,121,168)" stroke-width="1.51"></path><path d="M45,193L40,281L113,279Z" fill="rgb(161,211,217)" stroke="rgb(161,211,217)" stroke-width="1.51"></path><path d="M-31,202L40,281L45,193Z" fill="rgb(177,220,220)" stroke="rgb(177,220,220)" stroke-width="1.51"></path><path d="M418,-108L185,-101L269,-94Z" fill="rgb(190,229,217)" stroke="rgb(190,229,217)" stroke-width="1.51"></path><path d="M269,-94L185,-101L256,-23Z" fill="rgb(205,235,211)" stroke="rgb(205,235,211)" stroke-width="1.51"></path><path d="M105,350L181,428L185,350Z" fill="rgb(124,155,173)" stroke="rgb(124,155,173)" stroke-width="1.51"></path><path d="M331,-93L418,-108L269,-94Z" fill="rgb(179,221,222)" stroke="rgb(179,221,222)" stroke-width="1.51"></path><path d="M485,-95L418,-108L415,-21Z" fill="rgb(161,197,217)" stroke="rgb(161,197,217)" stroke-width="1.51"></path><path d="M485,-95L415,-21L490,-21Z" fill="rgb(157,191,214)" stroke="rgb(157,191,214)" stroke-width="1.51"></path><path d="M570,-23L485,-95L490,-21Z" fill="rgb(151,177,207)" stroke="rgb(151,177,207)" stroke-width="1.51"></path><path d="M406,428L492,418L408,343Z" fill="rgb(34,106,163)" stroke="rgb(34,106,163)" stroke-width="1.51"></path><path d="M487,347L564,352L554,269Z" fill="rgb(22,111,174)" stroke="rgb(22,111,174)" stroke-width="1.51"></path><path d="M105,350L105,426L181,428Z" fill="rgb(124,145,167)" stroke="rgb(124,145,167)" stroke-width="1.51"></path><path d="M40,281L45,357L105,350Z" fill="rgb(144,179,201)" stroke="rgb(144,179,201)" stroke-width="1.51"></path><path d="M555,417L564,352L487,347Z" fill="rgb(10,92,159)" stroke="rgb(10,92,159)" stroke-width="1.51"></path><path d="M642,196L635,130L562,201Z" fill="rgb(91,134,160)" stroke="rgb(91,134,160)" stroke-width="1.51"></path><path d="M562,201L635,130L564,121Z" fill="rgb(104,142,160)" stroke="rgb(104,142,160)" stroke-width="1.51"></path><path d="M35,-101L37,-26L110,-28Z" fill="rgb(238,249,231)" stroke="rgb(238,249,231)" stroke-width="1.51"></path><path d="M110,-28L37,-26L41,57Z" fill="rgb(238,248,231)" stroke="rgb(238,248,231)" stroke-width="1.51"></path><path d="M-45,128L-31,202L30,118Z" fill="rgb(208,237,210)" stroke="rgb(208,237,210)" stroke-width="1.51"></path><path d="M557,50L570,-23L490,-21Z" fill="rgb(148,170,202)" stroke="rgb(148,170,202)" stroke-width="1.51"></path><path d="M634,53L570,-23L557,50Z" fill="rgb(137,154,183)" stroke="rgb(137,154,183)" stroke-width="1.51"></path><path d="M634,53L557,50L564,121Z" fill="rgb(127,151,173)" stroke="rgb(127,151,173)" stroke-width="1.51"></path><path d="M45,357L105,426L105,350Z" fill="rgb(133,158,183)" stroke="rgb(133,158,183)" stroke-width="1.51"></path><path d="M185,-101L113,-108L110,-28Z" fill="rgb(228,245,220)" stroke="rgb(228,245,220)" stroke-width="1.51"></path><path d="M418,-108L113,-108L185,-101Z" fill="rgb(204,235,212)" stroke="rgb(204,235,212)" stroke-width="1.51"></path><path d="M642,196L562,201L638,281Z" fill="rgb(65,125,166)" stroke="rgb(65,125,166)" stroke-width="1.51"></path><path d="M40,281L-41,346L45,357Z" fill="rgb(152,182,208)" stroke="rgb(152,182,208)" stroke-width="1.51"></path><path d="M30,118L-31,202L45,193Z" fill="rgb(197,232,211)" stroke="rgb(197,232,211)" stroke-width="1.51"></path><path d="M-45,128L30,118L-45,55Z" fill="rgb(226,244,218)" stroke="rgb(226,244,218)" stroke-width="1.51"></path><path d="M262,429L264,499L329,428Z" fill="rgb(83,132,161)" stroke="rgb(83,132,161)" stroke-width="1.51"></path><path d="M406,428L489,498L492,418Z" fill="rgb(27,98,158)" stroke="rgb(27,98,158)" stroke-width="1.51"></path><path d="M190,507L264,499L262,429Z" fill="rgb(100,137,158)" stroke="rgb(100,137,158)" stroke-width="1.51"></path><path d="M190,507L262,429L181,428Z" fill="rgb(107,139,158)" stroke="rgb(107,139,158)" stroke-width="1.51"></path><path d="M638,281L562,201L554,269Z" fill="rgb(51,124,174)" stroke="rgb(51,124,174)" stroke-width="1.51"></path><path d="M264,499L345,504L329,428Z" fill="rgb(74,129,164)" stroke="rgb(74,129,164)" stroke-width="1.51"></path><path d="M-45,55L30,118L41,57Z" fill="rgb(229,245,222)" stroke="rgb(229,245,222)" stroke-width="1.51"></path><path d="M710,48L634,53L635,130Z" fill="rgb(125,146,169)" stroke="rgb(125,146,169)" stroke-width="1.51"></path><path d="M635,130L634,53L564,121Z" fill="rgb(121,144,164)" stroke="rgb(121,144,164)" stroke-width="1.51"></path><path d="M-31,202L-31,272L40,281Z" fill="rgb(171,215,225)" stroke="rgb(171,215,225)" stroke-width="1.51"></path><path d="M45,357L38,423L105,426Z" fill="rgb(132,148,176)" stroke="rgb(132,148,176)" stroke-width="1.51"></path><path d="M-109,268L-31,272L-31,202Z" fill="rgb(173,216,225)" stroke="rgb(173,216,225)" stroke-width="1.51"></path><path d="M564,352L638,281L554,269Z" fill="rgb(30,105,163)" stroke="rgb(30,105,163)" stroke-width="1.51"></path><path d="M564,352L642,342L638,281Z" fill="rgb(21,92,155)" stroke="rgb(21,92,155)" stroke-width="1.51"></path><path d="M492,418L555,417L487,347Z" fill="rgb(15,89,154)" stroke="rgb(15,89,154)" stroke-width="1.51"></path><path d="M558,495L555,417L492,418Z" fill="rgb(10,81,147)" stroke="rgb(10,81,147)" stroke-width="1.51"></path><path d="M345,504L418,503L406,428Z" fill="rgb(47,115,167)" stroke="rgb(47,115,167)" stroke-width="1.51"></path><path d="M264,499L190,507L345,504Z" fill="rgb(90,134,160)" stroke="rgb(90,134,160)" stroke-width="1.51"></path><path d="M345,504L631,505L418,503Z" fill="rgb(27,98,157)" stroke="rgb(27,98,157)" stroke-width="1.51"></path><path d="M111,492L190,507L181,428Z" fill="rgb(119,143,163)" stroke="rgb(119,143,163)" stroke-width="1.51"></path><path d="M-30,-21L41,57L37,-26Z" fill="rgb(244,251,237)" stroke="rgb(244,251,237)" stroke-width="1.51"></path><path d="M-30,-21L-45,55L41,57Z" fill="rgb(240,250,233)" stroke="rgb(240,250,233)" stroke-width="1.51"></path><path d="M105,426L111,492L181,428Z" fill="rgb(124,145,166)" stroke="rgb(124,145,166)" stroke-width="1.51"></path><path d="M-41,346L38,423L45,357Z" fill="rgb(144,162,193)" stroke="rgb(144,162,193)" stroke-width="1.51"></path><path d="M636,-94L568,-102L570,-23Z" fill="rgb(142,154,187)" stroke="rgb(142,154,187)" stroke-width="1.51"></path><path d="M570,-23L568,-102L485,-95Z" fill="rgb(148,170,202)" stroke="rgb(148,170,202)" stroke-width="1.51"></path><path d="M485,-95L568,-102L418,-108Z" fill="rgb(154,183,210)" stroke="rgb(154,183,210)" stroke-width="1.51"></path><path d="M113,-108L35,-101L110,-28Z" fill="rgb(234,247,228)" stroke="rgb(234,247,228)" stroke-width="1.51"></path><path d="M-37,-93L-30,-21L37,-26Z" fill="rgb(247,252,240)" stroke="rgb(247,252,240)" stroke-width="1.51"></path><path d="M33,491L111,492L105,426Z" fill="rgb(129,147,173)" stroke="rgb(129,147,173)" stroke-width="1.51"></path><path d="M418,503L489,498L406,428Z" fill="rgb(34,104,161)" stroke="rgb(34,104,161)" stroke-width="1.51"></path><path d="M639,427L642,342L564,352Z" fill="rgb(9,74,140)" stroke="rgb(9,74,140)" stroke-width="1.51"></path><path d="M707,272L708,195L642,196Z" fill="rgb(68,126,165)" stroke="rgb(68,126,165)" stroke-width="1.51"></path><path d="M639,427L564,352L555,417Z" fill="rgb(9,68,133)" stroke="rgb(9,68,133)" stroke-width="1.51"></path><path d="M634,53L640,-25L570,-23Z" fill="rgb(140,152,184)" stroke="rgb(140,152,184)" stroke-width="1.51"></path><path d="M710,48L640,-25L634,53Z" fill="rgb(135,150,179)" stroke="rgb(135,150,179)" stroke-width="1.51"></path><path d="M-31,272L-41,346L40,281Z" fill="rgb(159,194,215)" stroke="rgb(159,194,215)" stroke-width="1.51"></path><path d="M-109,268L-41,346L-31,272Z" fill="rgb(160,197,216)" stroke="rgb(160,197,216)" stroke-width="1.51"></path><path d="M642,196L708,195L635,130Z" fill="rgb(92,135,159)" stroke="rgb(92,135,159)" stroke-width="1.51"></path><path d="M707,272L642,196L638,281Z" fill="rgb(50,119,169)" stroke="rgb(50,119,169)" stroke-width="1.51"></path><path d="M708,195L717,130L635,130Z" fill="rgb(103,138,157)" stroke="rgb(103,138,157)" stroke-width="1.51"></path><path d="M-116,127L-45,128L-45,55Z" fill="rgb(225,243,218)" stroke="rgb(225,243,218)" stroke-width="1.51"></path><path d="M-116,127L-114,204L-45,128Z" fill="rgb(207,236,211)" stroke="rgb(207,236,211)" stroke-width="1.51"></path><path d="M-45,128L-114,204L-31,202Z" fill="rgb(197,232,215)" stroke="rgb(197,232,215)" stroke-width="1.51"></path><path d="M-106,43L-116,127L-45,55Z" fill="rgb(231,246,224)" stroke="rgb(231,246,224)" stroke-width="1.51"></path><path d="M642,342L707,272L638,281Z" fill="rgb(30,101,160)" stroke="rgb(30,101,160)" stroke-width="1.51"></path><path d="M708,195L707,272L717,130Z" fill="rgb(78,131,163)" stroke="rgb(78,131,163)" stroke-width="1.51"></path><path d="M489,498L558,495L492,418Z" fill="rgb(14,87,152)" stroke="rgb(14,87,152)" stroke-width="1.51"></path><path d="M642,342L715,352L707,272Z" fill="rgb(23,93,155)" stroke="rgb(23,93,155)" stroke-width="1.51"></path><path d="M631,505L558,495L489,498Z" fill="rgb(9,74,140)" stroke="rgb(9,74,140)" stroke-width="1.51"></path><path d="M640,-25L636,-94L570,-23Z" fill="rgb(141,152,184)" stroke="rgb(141,152,184)" stroke-width="1.51"></path><path d="M712,-17L636,-94L640,-25Z" fill="rgb(141,152,184)" stroke="rgb(141,152,184)" stroke-width="1.51"></path><path d="M717,130L710,48L635,130Z" fill="rgb(120,144,164)" stroke="rgb(120,144,164)" stroke-width="1.51"></path><path d="M-114,204L-109,268L-31,202Z" fill="rgb(180,222,222)" stroke="rgb(180,222,222)" stroke-width="1.51"></path><path d="M38,423L33,491L105,426Z" fill="rgb(132,149,177)" stroke="rgb(132,149,177)" stroke-width="1.51"></path><path d="M111,492L-43,504L190,507Z" fill="rgb(129,147,173)" stroke="rgb(129,147,173)" stroke-width="1.51"></path><path d="M-44,422L33,491L38,423Z" fill="rgb(139,151,183)" stroke="rgb(139,151,183)" stroke-width="1.51"></path><path d="M-44,422L38,423L-41,346Z" fill="rgb(141,153,186)" stroke="rgb(141,153,186)" stroke-width="1.51"></path><path d="M35,-101L-37,-93L37,-26Z" fill="rgb(245,252,238)" stroke="rgb(245,252,238)" stroke-width="1.51"></path><path d="M-30,-21L-106,43L-45,55Z" fill="rgb(241,250,234)" stroke="rgb(241,250,234)" stroke-width="1.51"></path><path d="M-110,-33L-106,43L-30,-21Z" fill="rgb(247,252,240)" stroke="rgb(247,252,240)" stroke-width="1.51"></path><path d="M558,495L639,427L555,417Z" fill="rgb(9,68,133)" stroke="rgb(9,68,133)" stroke-width="1.51"></path><path d="M-112,347L-44,422L-41,346Z" fill="rgb(146,164,197)" stroke="rgb(146,164,197)" stroke-width="1.51"></path><path d="M710,48L712,-17L640,-25Z" fill="rgb(140,152,184)" stroke="rgb(140,152,184)" stroke-width="1.51"></path><path d="M717,130L712,-17L710,48Z" fill="rgb(130,147,173)" stroke="rgb(130,147,173)" stroke-width="1.51"></path><path d="M-109,268L-112,347L-41,346Z" fill="rgb(155,186,212)" stroke="rgb(155,186,212)" stroke-width="1.51"></path><path d="M-114,204L-112,347L-109,268Z" fill="rgb(166,206,221)" stroke="rgb(166,206,221)" stroke-width="1.51"></path><path d="M-120,421L-112,347L-114,204Z" fill="rgb(155,185,211)" stroke="rgb(155,185,211)" stroke-width="1.51"></path><path d="M639,427L715,352L642,342Z" fill="rgb(9,74,140)" stroke="rgb(9,74,140)" stroke-width="1.51"></path><path d="M707,272L715,352L717,130Z" fill="rgb(50,119,169)" stroke="rgb(50,119,169)" stroke-width="1.51"></path><path d="M-37,-93L-110,-33L-30,-21Z" fill="rgb(247,252,240)" stroke="rgb(247,252,240)" stroke-width="1.51"></path><path d="M-106,43L-110,-33L-116,127Z" fill="rgb(237,248,230)" stroke="rgb(237,248,230)" stroke-width="1.51"></path><path d="M639,427L715,432L715,352Z" fill="rgb(8,64,129)" stroke="rgb(8,64,129)" stroke-width="1.51"></path><path d="M558,495L631,505L639,427Z" fill="rgb(8,64,129)" stroke="rgb(8,64,129)" stroke-width="1.51"></path><path d="M418,503L631,505L489,498Z" fill="rgb(14,87,152)" stroke="rgb(14,87,152)" stroke-width="1.51"></path><path d="M190,507L631,505L345,504Z" fill="rgb(47,116,167)" stroke="rgb(47,116,167)" stroke-width="1.51"></path><path d="M-44,422L-43,504L33,491Z" fill="rgb(141,152,184)" stroke="rgb(141,152,184)" stroke-width="1.51"></path><path d="M33,491L-43,504L111,492Z" fill="rgb(136,150,180)" stroke="rgb(136,150,180)" stroke-width="1.51"></path><path d="M-116,493L-43,504L-44,422Z" fill="rgb(141,152,184)" stroke="rgb(141,152,184)" stroke-width="1.51"></path><path d="M-37,-93L-108,-107L-110,-33Z" fill="rgb(247,252,240)" stroke="rgb(247,252,240)" stroke-width="1.51"></path><path d="M-110,-33L-108,-107L-116,127Z" fill="rgb(247,252,240)" stroke="rgb(247,252,240)" stroke-width="1.51"></path><path d="M35,-101L-108,-107L-37,-93Z" fill="rgb(247,252,240)" stroke="rgb(247,252,240)" stroke-width="1.51"></path><path d="M113,-108L-108,-107L35,-101Z" fill="rgb(245,251,238)" stroke="rgb(245,251,238)" stroke-width="1.51"></path><path d="M706,494L715,432L639,427Z" fill="rgb(8,64,129)" stroke="rgb(8,64,129)" stroke-width="1.51"></path><path d="M715,352L715,432L717,130Z" fill="rgb(28,99,158)" stroke="rgb(28,99,158)" stroke-width="1.51"></path><path d="M712,-17L717,-104L636,-94Z" fill="rgb(141,152,184)" stroke="rgb(141,152,184)" stroke-width="1.51"></path><path d="M636,-94L717,-104L568,-102Z" fill="rgb(141,152,184)" stroke="rgb(141,152,184)" stroke-width="1.51"></path><path d="M568,-102L717,-104L418,-108Z" fill="rgb(145,162,194)" stroke="rgb(145,162,194)" stroke-width="1.51"></path><path d="M717,130L717,-104L712,-17Z" fill="rgb(140,151,184)" stroke="rgb(140,151,184)" stroke-width="1.51"></path><path d="M-116,127L-120,421L-114,204Z" fill="rgb(172,215,226)" stroke="rgb(172,215,226)" stroke-width="1.51"></path><path d="M-112,347L-120,421L-44,422Z" fill="rgb(141,154,186)" stroke="rgb(141,154,186)" stroke-width="1.51"></path><path d="M631,505L706,494L639,427Z" fill="rgb(8,64,129)" stroke="rgb(8,64,129)" stroke-width="1.51"></path><path d="M-120,421L-116,493L-44,422Z" fill="rgb(141,152,184)" stroke="rgb(141,152,184)" stroke-width="1.51"></path></svg>