<svg width="600" height="400" xmlns="http://www.w3.org/2000/svg"><path d="M272,202L338,136L270,137Z" fill="rgb(149,167,207)" stroke="rgb(149,167,207)" stroke-width="1.51"></path><path d="M272,202L345,212L338,136Z" fill="rgb(144,151,199)" stroke="rgb(144,151,199)" stroke-width="1.51"></path><path d="M272,202L339,262L345,212Z" fill="rgb(141,134,190)" stroke="rgb(141,134,190)" stroke-width="1.51"></path><path d="M345,212L402,204L338,136Z" fill="rgb(144,139,192)" stroke="rgb(144,139,192)" stroke-width="1.51"></path><path d="M339,262L402,204L345,212Z" fill="rgb(141,122,184)" stroke="rgb(141,122,184)" stroke-width="1.51"></path><path d="M272,202L260,272L339,262Z" fill="rgb(142,133,190)" stroke="rgb(142,133,190)" stroke-width="1.51"></path><path d="M185,207L260,272L272,202Z" fill="rgb(149,154,200)" stroke="rgb(149,154,200)" stroke-width="1.51"></path><path d="M257,43L181,135L270,137Z" fill="rgb(172,195,222)" stroke="rgb(172,195,222)" stroke-width="1.51"></path><path d="M402,204L418,133L338,136Z" fill="rgb(149,142,194)" stroke="rgb(149,142,194)" stroke-width="1.51"></path><path d="M270,137L185,207L272,202Z" fill="rgb(151,171,209)" stroke="rgb(151,171,209)" stroke-width="1.51"></path><path d="M270,137L181,135L185,207Z" fill="rgb(160,186,217)" stroke="rgb(160,186,217)" stroke-width="1.51"></path><path d="M257,43L270,137L341,38Z" fill="rgb(176,189,219)" stroke="rgb(176,189,219)" stroke-width="1.51"></path><path d="M341,38L270,137L338,136Z" fill="rgb(165,174,211)" stroke="rgb(165,174,211)" stroke-width="1.51"></path><path d="M400,62L341,38L338,136Z" fill="rgb(173,168,208)" stroke="rgb(173,168,208)" stroke-width="1.51"></path><path d="M418,133L400,62L338,136Z" fill="rgb(163,153,201)" stroke="rgb(163,153,201)" stroke-width="1.51"></path><path d="M402,204L482,206L418,133Z" fill="rgb(144,121,183)" stroke="rgb(144,121,183)" stroke-width="1.51"></path><path d="M339,262L415,282L402,204Z" fill="rgb(140,105,175)" stroke="rgb(140,105,175)" stroke-width="1.51"></path><path d="M335,349L415,282L339,262Z" fill="rgb(139,91,169)" stroke="rgb(139,91,169)" stroke-width="1.51"></path><path d="M260,272L335,349L339,262Z" fill="rgb(140,108,177)" stroke="rgb(140,108,177)" stroke-width="1.51"></path><path d="M185,207L181,273L260,272Z" fill="rgb(154,149,199)" stroke="rgb(154,149,199)" stroke-width="1.51"></path><path d="M122,200L181,273L185,207Z" fill="rgb(163,166,207)" stroke="rgb(163,166,207)" stroke-width="1.51"></path><path d="M415,282L482,206L402,204Z" fill="rgb(140,100,173)" stroke="rgb(140,100,173)" stroke-width="1.51"></path><path d="M418,133L482,124L400,62Z" fill="rgb(165,142,194)" stroke="rgb(165,142,194)" stroke-width="1.51"></path><path d="M257,43L176,40L181,135Z" fill="rgb(188,209,229)" stroke="rgb(188,209,229)" stroke-width="1.51"></path><path d="M181,135L122,200L185,207Z" fill="rgb(166,186,217)" stroke="rgb(166,186,217)" stroke-width="1.51"></path><path d="M194,-18L176,40L257,43Z" fill="rgb(201,219,235)" stroke="rgb(201,219,235)" stroke-width="1.51"></path><path d="M482,206L482,124L418,133Z" fill="rgb(150,124,184)" stroke="rgb(150,124,184)" stroke-width="1.51"></path><path d="M269,352L335,349L260,272Z" fill="rgb(142,104,171)" stroke="rgb(142,104,171)" stroke-width="1.51"></path><path d="M122,112L122,200L181,135Z" fill="rgb(177,201,225)" stroke="rgb(177,201,225)" stroke-width="1.51"></path><path d="M189,338L269,352L260,272Z" fill="rgb(149,118,178)" stroke="rgb(149,118,178)" stroke-width="1.51"></path><path d="M341,38L269,-18L257,43Z" fill="rgb(190,200,225)" stroke="rgb(190,200,225)" stroke-width="1.51"></path><path d="M343,-36L269,-18L341,38Z" fill="rgb(194,194,223)" stroke="rgb(194,194,223)" stroke-width="1.51"></path><path d="M176,40L122,112L181,135Z" fill="rgb(191,210,229)" stroke="rgb(191,210,229)" stroke-width="1.51"></path><path d="M181,273L189,338L260,272Z" fill="rgb(154,133,189)" stroke="rgb(154,133,189)" stroke-width="1.51"></path><path d="M109,282L189,338L181,273Z" fill="rgb(164,138,193)" stroke="rgb(164,138,193)" stroke-width="1.51"></path><path d="M414,-28L343,-36L341,38Z" fill="rgb(194,180,216)" stroke="rgb(194,180,216)" stroke-width="1.51"></path><path d="M414,-28L341,38L400,62Z" fill="rgb(189,171,211)" stroke="rgb(189,171,211)" stroke-width="1.51"></path><path d="M335,349L407,355L415,282Z" fill="rgb(137,73,156)" stroke="rgb(137,73,156)" stroke-width="1.51"></path><path d="M415,282L491,278L482,206Z" fill="rgb(138,82,163)" stroke="rgb(138,82,163)" stroke-width="1.51"></path><path d="M333,425L407,355L335,349Z" fill="rgb(123,69,139)" stroke="rgb(123,69,139)" stroke-width="1.51"></path><path d="M483,350L491,278L415,282Z" fill="rgb(136,60,153)" stroke="rgb(136,60,153)" stroke-width="1.51"></path><path d="M568,123L494,44L482,124Z" fill="rgb(166,124,179)" stroke="rgb(166,124,179)" stroke-width="1.51"></path><path d="M176,40L116,43L122,112Z" fill="rgb(205,221,236)" stroke="rgb(205,221,236)" stroke-width="1.51"></path><path d="M269,-18L194,-18L257,43Z" fill="rgb(200,215,233)" stroke="rgb(200,215,233)" stroke-width="1.51"></path><path d="M272,-96L194,-18L269,-18Z" fill="rgb(200,214,233)" stroke="rgb(200,214,233)" stroke-width="1.51"></path><path d="M494,44L414,-28L400,62Z" fill="rgb(188,157,204)" stroke="rgb(188,157,204)" stroke-width="1.51"></path><path d="M49,206L109,282L122,200Z" fill="rgb(179,176,213)" stroke="rgb(179,176,213)" stroke-width="1.51"></path><path d="M122,200L109,282L181,273Z" fill="rgb(169,160,204)" stroke="rgb(169,160,204)" stroke-width="1.51"></path><path d="M114,-28L116,43L176,40Z" fill="rgb(218,231,241)" stroke="rgb(218,231,241)" stroke-width="1.51"></path><path d="M122,112L49,206L122,200Z" fill="rgb(182,199,224)" stroke="rgb(182,199,224)" stroke-width="1.51"></path><path d="M482,124L494,44L400,62Z" fill="rgb(173,142,195)" stroke="rgb(173,142,195)" stroke-width="1.51"></path><path d="M568,123L482,124L482,206Z" fill="rgb(150,114,173)" stroke="rgb(150,114,173)" stroke-width="1.51"></path><path d="M407,355L483,350L415,282Z" fill="rgb(135,59,149)" stroke="rgb(135,59,149)" stroke-width="1.51"></path><path d="M407,355L492,414L483,350Z" fill="rgb(120,36,126)" stroke="rgb(120,36,126)" stroke-width="1.51"></path><path d="M269,352L333,425L335,349Z" fill="rgb(125,83,146)" stroke="rgb(125,83,146)" stroke-width="1.51"></path><path d="M254,430L333,425L269,352Z" fill="rgb(114,83,136)" stroke="rgb(114,83,136)" stroke-width="1.51"></path><path d="M33,115L49,206L122,112Z" fill="rgb(194,214,232)" stroke="rgb(194,214,232)" stroke-width="1.51"></path><path d="M562,277L566,209L491,278Z" fill="rgb(131,64,144)" stroke="rgb(131,64,144)" stroke-width="1.51"></path><path d="M491,278L566,209L482,206Z" fill="rgb(138,81,157)" stroke="rgb(138,81,157)" stroke-width="1.51"></path><path d="M182,422L254,430L269,352Z" fill="rgb(121,96,142)" stroke="rgb(121,96,142)" stroke-width="1.51"></path><path d="M182,422L269,352L189,338Z" fill="rgb(141,108,160)" stroke="rgb(141,108,160)" stroke-width="1.51"></path><path d="M326,-111L272,-96L343,-36Z" fill="rgb(193,196,223)" stroke="rgb(193,196,223)" stroke-width="1.51"></path><path d="M343,-36L272,-96L269,-18Z" fill="rgb(194,201,226)" stroke="rgb(194,201,226)" stroke-width="1.51"></path><path d="M194,-18L114,-28L176,40Z" fill="rgb(217,229,240)" stroke="rgb(217,229,240)" stroke-width="1.51"></path><path d="M566,209L568,123L482,206Z" fill="rgb(139,98,160)" stroke="rgb(139,98,160)" stroke-width="1.51"></path><path d="M116,43L33,115L122,112Z" fill="rgb(208,223,237)" stroke="rgb(208,223,237)" stroke-width="1.51"></path><path d="M182,-99L114,-28L194,-18Z" fill="rgb(216,229,240)" stroke="rgb(216,229,240)" stroke-width="1.51"></path><path d="M494,44L498,-25L414,-28Z" fill="rgb(193,153,201)" stroke="rgb(193,153,201)" stroke-width="1.51"></path><path d="M413,-93L326,-111L343,-36Z" fill="rgb(194,182,217)" stroke="rgb(194,182,217)" stroke-width="1.51"></path><path d="M568,46L498,-25L494,44Z" fill="rgb(187,138,186)" stroke="rgb(187,138,186)" stroke-width="1.51"></path><path d="M109,282L101,354L189,338Z" fill="rgb(169,133,186)" stroke="rgb(169,133,186)" stroke-width="1.51"></path><path d="M50,345L101,354L109,282Z" fill="rgb(179,139,190)" stroke="rgb(179,139,190)" stroke-width="1.51"></path><path d="M26,47L33,115L116,43Z" fill="rgb(221,233,242)" stroke="rgb(221,233,242)" stroke-width="1.51"></path><path d="M563,350L562,277L491,278Z" fill="rgb(128,42,135)" stroke="rgb(128,42,135)" stroke-width="1.51"></path><path d="M413,-93L343,-36L414,-28Z" fill="rgb(194,173,213)" stroke="rgb(194,173,213)" stroke-width="1.51"></path><path d="M49,206L45,275L109,282Z" fill="rgb(184,169,210)" stroke="rgb(184,169,210)" stroke-width="1.51"></path><path d="M-43,268L45,275L49,206Z" fill="rgb(191,176,214)" stroke="rgb(191,176,214)" stroke-width="1.51"></path><path d="M101,354L182,422L189,338Z" fill="rgb(151,115,164)" stroke="rgb(151,115,164)" stroke-width="1.51"></path><path d="M487,-88L413,-93L414,-28Z" fill="rgb(194,160,206)" stroke="rgb(194,160,206)" stroke-width="1.51"></path><path d="M333,425L417,432L407,355Z" fill="rgb(109,55,123)" stroke="rgb(109,55,123)" stroke-width="1.51"></path><path d="M483,350L563,350L491,278Z" fill="rgb(132,36,134)" stroke="rgb(132,36,134)" stroke-width="1.51"></path><path d="M331,499L417,432L333,425Z" fill="rgb(110,63,126)" stroke="rgb(110,63,126)" stroke-width="1.51"></path><path d="M568,123L568,46L494,44Z" fill="rgb(167,125,173)" stroke="rgb(167,125,173)" stroke-width="1.51"></path><path d="M326,-111L182,-99L272,-96Z" fill="rgb(199,210,231)" stroke="rgb(199,210,231)" stroke-width="1.51"></path><path d="M272,-96L182,-99L194,-18Z" fill="rgb(205,221,236)" stroke="rgb(205,221,236)" stroke-width="1.51"></path><path d="M33,115L-27,127L49,206Z" fill="rgb(200,218,234)" stroke="rgb(200,218,234)" stroke-width="1.51"></path><path d="M38,-16L26,47L116,43Z" fill="rgb(232,241,247)" stroke="rgb(232,241,247)" stroke-width="1.51"></path><path d="M38,-16L116,43L114,-28Z" fill="rgb(233,241,247)" stroke="rgb(233,241,247)" stroke-width="1.51"></path><path d="M417,432L492,414L407,355Z" fill="rgb(107,39,116)" stroke="rgb(107,39,116)" stroke-width="1.51"></path><path d="M101,354L101,414L182,422Z" fill="rgb(143,112,153)" stroke="rgb(143,112,153)" stroke-width="1.51"></path><path d="M45,275L50,345L109,282Z" fill="rgb(183,150,201)" stroke="rgb(183,150,201)" stroke-width="1.51"></path><path d="M-43,268L50,345L45,275Z" fill="rgb(191,157,205)" stroke="rgb(191,157,205)" stroke-width="1.51"></path><path d="M413,-93L559,-113L326,-111Z" fill="rgb(193,162,207)" stroke="rgb(193,162,207)" stroke-width="1.51"></path><path d="M498,-25L487,-88L414,-28Z" fill="rgb(193,153,201)" stroke="rgb(193,153,201)" stroke-width="1.51"></path><path d="M571,-25L487,-88L498,-25Z" fill="rgb(192,142,189)" stroke="rgb(192,142,189)" stroke-width="1.51"></path><path d="M492,414L563,350L483,350Z" fill="rgb(118,18,116)" stroke="rgb(118,18,116)" stroke-width="1.51"></path><path d="M626,271L639,196L566,209Z" fill="rgb(111,69,129)" stroke="rgb(111,69,129)" stroke-width="1.51"></path><path d="M566,209L639,196L568,123Z" fill="rgb(120,90,142)" stroke="rgb(120,90,142)" stroke-width="1.51"></path><path d="M50,345L101,414L101,354Z" fill="rgb(167,126,170)" stroke="rgb(167,126,170)" stroke-width="1.51"></path><path d="M256,500L331,499L254,430Z" fill="rgb(115,85,136)" stroke="rgb(115,85,136)" stroke-width="1.51"></path><path d="M32,-98L38,-16L114,-28Z" fill="rgb(238,245,249)" stroke="rgb(238,245,249)" stroke-width="1.51"></path><path d="M568,46L571,-25L498,-25Z" fill="rgb(183,136,180)" stroke="rgb(183,136,180)" stroke-width="1.51"></path><path d="M634,-18L571,-25L568,46Z" fill="rgb(165,128,163)" stroke="rgb(165,128,163)" stroke-width="1.51"></path><path d="M254,430L331,499L333,425Z" fill="rgb(112,79,133)" stroke="rgb(112,79,133)" stroke-width="1.51"></path><path d="M417,432L477,500L492,414Z" fill="rgb(106,32,112)" stroke="rgb(106,32,112)" stroke-width="1.51"></path><path d="M256,500L254,430L177,504Z" fill="rgb(121,97,143)" stroke="rgb(121,97,143)" stroke-width="1.51"></path><path d="M182,-99L119,-107L114,-28Z" fill="rgb(222,233,242)" stroke="rgb(222,233,242)" stroke-width="1.51"></path><path d="M326,-111L119,-107L182,-99Z" fill="rgb(206,222,237)" stroke="rgb(206,222,237)" stroke-width="1.51"></path><path d="M-36,59L-27,127L33,115Z" fill="rgb(219,231,241)" stroke="rgb(219,231,241)" stroke-width="1.51"></path><path d="M-36,59L33,115L26,47Z" fill="rgb(227,237,244)" stroke="rgb(227,237,244)" stroke-width="1.51"></path><path d="M177,504L254,430L182,422Z" fill="rgb(126,101,145)" stroke="rgb(126,101,145)" stroke-width="1.51"></path><path d="M568,123L630,49L568,46Z" fill="rgb(149,117,157)" stroke="rgb(149,117,157)" stroke-width="1.51"></path><path d="M626,271L566,209L562,277Z" fill="rgb(115,59,129)" stroke="rgb(115,59,129)" stroke-width="1.51"></path><path d="M630,351L626,271L562,277Z" fill="rgb(106,35,115)" stroke="rgb(106,35,115)" stroke-width="1.51"></path><path d="M-27,127L-36,196L49,206Z" fill="rgb(198,209,230)" stroke="rgb(198,209,230)" stroke-width="1.51"></path><path d="M639,196L643,119L568,123Z" fill="rgb(123,99,144)" stroke="rgb(123,99,144)" stroke-width="1.51"></path><path d="M643,119L630,49L568,123Z" fill="rgb(137,109,150)" stroke="rgb(137,109,150)" stroke-width="1.51"></path><path d="M572,435L630,351L563,350Z" fill="rgb(92,3,88)" stroke="rgb(92,3,88)" stroke-width="1.51"></path><path d="M331,499L419,500L417,432Z" fill="rgb(109,54,122)" stroke="rgb(109,54,122)" stroke-width="1.51"></path><path d="M177,504L419,500L331,499Z" fill="rgb(111,78,133)" stroke="rgb(111,78,133)" stroke-width="1.51"></path><path d="M-113,123L-101,203L-36,196Z" fill="rgb(198,210,230)" stroke="rgb(198,210,230)" stroke-width="1.51"></path><path d="M-49,-36L-36,59L26,47Z" fill="rgb(242,248,251)" stroke="rgb(242,248,251)" stroke-width="1.51"></path><path d="M-49,-36L26,47L38,-16Z" fill="rgb(246,251,252)" stroke="rgb(246,251,252)" stroke-width="1.51"></path><path d="M118,505L177,504L182,422Z" fill="rgb(135,107,149)" stroke="rgb(135,107,149)" stroke-width="1.51"></path><path d="M256,500L177,504L331,499Z" fill="rgb(118,91,140)" stroke="rgb(118,91,140)" stroke-width="1.51"></path><path d="M-36,196L-43,268L49,206Z" fill="rgb(194,189,220)" stroke="rgb(194,189,220)" stroke-width="1.51"></path><path d="M50,345L41,433L101,414Z" fill="rgb(155,121,158)" stroke="rgb(155,121,158)" stroke-width="1.51"></path><path d="M101,414L118,505L182,422Z" fill="rgb(140,110,151)" stroke="rgb(140,110,151)" stroke-width="1.51"></path><path d="M-101,203L-43,268L-36,196Z" fill="rgb(194,190,221)" stroke="rgb(194,190,221)" stroke-width="1.51"></path><path d="M563,350L630,351L562,277Z" fill="rgb(110,24,111)" stroke="rgb(110,24,111)" stroke-width="1.51"></path><path d="M720,200L705,120L639,196Z" fill="rgb(117,90,139)" stroke="rgb(117,90,139)" stroke-width="1.51"></path><path d="M572,435L563,350L492,414Z" fill="rgb(97,4,93)" stroke="rgb(97,4,93)" stroke-width="1.51"></path><path d="M-51,362L41,433L50,345Z" fill="rgb(172,130,170)" stroke="rgb(172,130,170)" stroke-width="1.51"></path><path d="M419,500L477,500L417,432Z" fill="rgb(107,39,116)" stroke="rgb(107,39,116)" stroke-width="1.51"></path><path d="M724,506L477,500L419,500Z" fill="rgb(97,4,94)" stroke="rgb(97,4,94)" stroke-width="1.51"></path><path d="M552,490L572,435L492,414Z" fill="rgb(98,4,95)" stroke="rgb(98,4,95)" stroke-width="1.51"></path><path d="M630,49L634,-18L568,46Z" fill="rgb(157,123,158)" stroke="rgb(157,123,158)" stroke-width="1.51"></path><path d="M571,-25L559,-113L487,-88Z" fill="rgb(186,138,182)" stroke="rgb(186,138,182)" stroke-width="1.51"></path><path d="M702,37L634,-18L630,49Z" fill="rgb(157,123,158)" stroke="rgb(157,123,158)" stroke-width="1.51"></path><path d="M641,-89L559,-113L571,-25Z" fill="rgb(165,128,163)" stroke="rgb(165,128,163)" stroke-width="1.51"></path><path d="M487,-88L559,-113L413,-93Z" fill="rgb(192,149,196)" stroke="rgb(192,149,196)" stroke-width="1.51"></path><path d="M119,-107L32,-98L114,-28Z" fill="rgb(233,242,247)" stroke="rgb(233,242,247)" stroke-width="1.51"></path><path d="M177,504L724,506L419,500Z" fill="rgb(107,38,116)" stroke="rgb(107,38,116)" stroke-width="1.51"></path><path d="M41,433L118,505L101,414Z" fill="rgb(149,118,155)" stroke="rgb(149,118,155)" stroke-width="1.51"></path><path d="M643,119L702,37L630,49Z" fill="rgb(146,115,153)" stroke="rgb(146,115,153)" stroke-width="1.51"></path><path d="M639,196L705,120L643,119Z" fill="rgb(123,99,144)" stroke="rgb(123,99,144)" stroke-width="1.51"></path><path d="M702,266L639,196L626,271Z" fill="rgb(110,61,125)" stroke="rgb(110,61,125)" stroke-width="1.51"></path><path d="M-43,268L-51,362L50,345Z" fill="rgb(192,149,196)" stroke="rgb(192,149,196)" stroke-width="1.51"></path><path d="M41,433L41,497L118,505Z" fill="rgb(153,120,156)" stroke="rgb(153,120,156)" stroke-width="1.51"></path><path d="M-108,340L-51,362L-43,268Z" fill="rgb(192,149,196)" stroke="rgb(192,149,196)" stroke-width="1.51"></path><path d="M477,500L552,490L492,414Z" fill="rgb(103,15,103)" stroke="rgb(103,15,103)" stroke-width="1.51"></path><path d="M572,435L649,424L630,351Z" fill="rgb(77,0,75)" stroke="rgb(77,0,75)" stroke-width="1.51"></path><path d="M-113,123L-27,127L-36,59Z" fill="rgb(218,231,241)" stroke="rgb(218,231,241)" stroke-width="1.51"></path><path d="M-113,123L-36,196L-27,127Z" fill="rgb(203,220,235)" stroke="rgb(203,220,235)" stroke-width="1.51"></path><path d="M32,-98L-49,-36L38,-16Z" fill="rgb(246,251,252)" stroke="rgb(246,251,252)" stroke-width="1.51"></path><path d="M630,351L702,266L626,271Z" fill="rgb(106,37,116)" stroke="rgb(106,37,116)" stroke-width="1.51"></path><path d="M723,352L702,266L630,351Z" fill="rgb(104,24,108)" stroke="rgb(104,24,108)" stroke-width="1.51"></path><path d="M702,266L720,200L639,196Z" fill="rgb(111,71,130)" stroke="rgb(111,71,130)" stroke-width="1.51"></path><path d="M634,-18L641,-89L571,-25Z" fill="rgb(162,126,160)" stroke="rgb(162,126,160)" stroke-width="1.51"></path><path d="M705,120L702,37L643,119Z" fill="rgb(139,110,150)" stroke="rgb(139,110,150)" stroke-width="1.51"></path><path d="M724,-22L702,37L705,120Z" fill="rgb(153,120,156)" stroke="rgb(153,120,156)" stroke-width="1.51"></path><path d="M-113,50L-113,123L-36,59Z" fill="rgb(227,237,244)" stroke="rgb(227,237,244)" stroke-width="1.51"></path><path d="M-47,509L41,497L41,433Z" fill="rgb(160,125,160)" stroke="rgb(160,125,160)" stroke-width="1.51"></path><path d="M724,-22L641,-89L634,-18Z" fill="rgb(162,126,160)" stroke="rgb(162,126,160)" stroke-width="1.51"></path><path d="M-113,123L-107,270L-101,203Z" fill="rgb(194,200,226)" stroke="rgb(194,200,226)" stroke-width="1.51"></path><path d="M-101,203L-107,270L-43,268Z" fill="rgb(194,179,215)" stroke="rgb(194,179,215)" stroke-width="1.51"></path><path d="M644,494L649,424L572,435Z" fill="rgb(77,0,75)" stroke="rgb(77,0,75)" stroke-width="1.51"></path><path d="M-121,431L-50,416L-51,362Z" fill="rgb(162,126,160)" stroke="rgb(162,126,160)" stroke-width="1.51"></path><path d="M-51,362L-50,416L41,433Z" fill="rgb(162,126,160)" stroke="rgb(162,126,160)" stroke-width="1.51"></path><path d="M-112,-16L-113,50L-36,59Z" fill="rgb(240,247,250)" stroke="rgb(240,247,250)" stroke-width="1.51"></path><path d="M-49,-36L-112,-16L-36,59Z" fill="rgb(247,251,253)" stroke="rgb(247,251,253)" stroke-width="1.51"></path><path d="M32,-98L-35,-109L-49,-36Z" fill="rgb(247,252,253)" stroke="rgb(247,252,253)" stroke-width="1.51"></path><path d="M119,-107L-35,-109L32,-98Z" fill="rgb(241,248,250)" stroke="rgb(241,248,250)" stroke-width="1.51"></path><path d="M326,-111L-35,-109L119,-107Z" fill="rgb(222,233,242)" stroke="rgb(222,233,242)" stroke-width="1.51"></path><path d="M559,-113L-35,-109L326,-111Z" fill="rgb(196,204,227)" stroke="rgb(196,204,227)" stroke-width="1.51"></path><path d="M-107,270L-108,340L-43,268Z" fill="rgb(194,160,206)" stroke="rgb(194,160,206)" stroke-width="1.51"></path><path d="M-121,431L-108,340L-107,270Z" fill="rgb(192,141,188)" stroke="rgb(192,141,188)" stroke-width="1.51"></path><path d="M-113,-91L-112,-16L-49,-36Z" fill="rgb(247,252,253)" stroke="rgb(247,252,253)" stroke-width="1.51"></path><path d="M649,424L723,352L630,351Z" fill="rgb(89,2,86)" stroke="rgb(89,2,86)" stroke-width="1.51"></path><path d="M702,266L723,352L720,200Z" fill="rgb(108,48,120)" stroke="rgb(108,48,120)" stroke-width="1.51"></path><path d="M723,352L724,-22L720,200Z" fill="rgb(117,89,138)" stroke="rgb(117,89,138)" stroke-width="1.51"></path><path d="M720,200L724,-22L705,120Z" fill="rgb(137,108,149)" stroke="rgb(137,108,149)" stroke-width="1.51"></path><path d="M702,37L724,-22L634,-18Z" fill="rgb(162,126,160)" stroke="rgb(162,126,160)" stroke-width="1.51"></path><path d="M477,500L644,494L552,490Z" fill="rgb(91,3,88)" stroke="rgb(91,3,88)" stroke-width="1.51"></path><path d="M552,490L644,494L572,435Z" fill="rgb(80,0,78)" stroke="rgb(80,0,78)" stroke-width="1.51"></path><path d="M649,424L717,437L723,352Z" fill="rgb(77,0,75)" stroke="rgb(77,0,75)" stroke-width="1.51"></path><path d="M724,-22L705,-111L641,-89Z" fill="rgb(162,126,160)" stroke="rgb(162,126,160)" stroke-width="1.51"></path><path d="M641,-89L705,-111L559,-113Z" fill="rgb(162,126,160)" stroke="rgb(162,126,160)" stroke-width="1.51"></path><path d="M-50,416L-47,509L41,433Z" fill="rgb(162,126,160)" stroke="rgb(162,126,160)" stroke-width="1.51"></path><path d="M41,497L-47,509L118,505Z" fill="rgb(157,123,158)" stroke="rgb(157,123,158)" stroke-width="1.51"></path><path d="M118,505L-100,512L177,504Z" fill="rgb(153,120,156)" stroke="rgb(153,120,156)" stroke-width="1.51"></path><path d="M-100,512L-47,509L-50,416Z" fill="rgb(162,126,160)" stroke="rgb(162,126,160)" stroke-width="1.51"></path><path d="M-35,-109L-113,-91L-49,-36Z" fill="rgb(247,252,253)" stroke="rgb(247,252,253)" stroke-width="1.51"></path><path d="M-112,-16L-113,-91L-113,50Z" fill="rgb(247,252,253)" stroke="rgb(247,252,253)" stroke-width="1.51"></path><path d="M644,494L717,437L649,424Z" fill="rgb(77,0,75)" stroke="rgb(77,0,75)" stroke-width="1.51"></path><path d="M-113,-91L-121,431L-113,50Z" fill="rgb(209,224,238)" stroke="rgb(209,224,238)" stroke-width="1.51"></path><path d="M-113,50L-121,431L-113,123Z" fill="rgb(193,199,225)" stroke="rgb(193,199,225)" stroke-width="1.51"></path><path d="M-113,123L-121,431L-107,270Z" fill="rgb(194,168,210)" stroke="rgb(194,168,210)" stroke-width="1.51"></path><path d="M-108,340L-121,431L-51,362Z" fill="rgb(175,133,172)" stroke="rgb(175,133,172)" stroke-width="1.51"></path><path d="M-121,431L-100,512L-50,416Z" fill="rgb(162,126,160)" stroke="rgb(162,126,160)" stroke-width="1.51"></path><path d="M-47,509L-100,512L118,505Z" fill="rgb(162,126,160)" stroke="rgb(162,126,160)" stroke-width="1.51"></path><path d="M644,494L724,506L717,437Z" fill="rgb(77,0,75)" stroke="rgb(77,0,75)" stroke-width="1.51"></path><path d="M717,437L724,506L723,352Z" fill="rgb(77,0,75)" stroke="rgb(77,0,75)" stroke-width="1.51"></path><path d="M723,352L724,506L724,-22Z" fill="rgb(108,46,119)" stroke="rgb(108,46,119)" stroke-width="1.51"></path><path d="M477,500L724,506L644,494Z" fill="rgb(77,0,75)" stroke="rgb(77,0,75)" stroke-width="1.51"></path><path d="M-100,512L724,506L177,504Z" fill="rgb(116,88,138)" stroke="rgb(116,88,138)" stroke-width="1.51"></path></svg>