<svg width="600" height="400" xmlns="http://www.w3.org/2000/svg"><path d="M331,203L266,274L337,276Z" fill="rgb(77,154,198)" stroke="rgb(77,154,198)" stroke-width="1.51"></path><path d="M331,203L257,195L266,274Z" fill="rgb(100,165,205)" stroke="rgb(100,165,205)" stroke-width="1.51"></path><path d="M266,274L339,345L337,276Z" fill="rgb(61,147,171)" stroke="rgb(61,147,171)" stroke-width="1.51"></path><path d="M337,276L411,272L331,203Z" fill="rgb(60,146,193)" stroke="rgb(60,146,193)" stroke-width="1.51"></path><path d="M339,345L411,272L337,276Z" fill="rgb(43,139,167)" stroke="rgb(43,139,167)" stroke-width="1.51"></path><path d="M257,195L188,268L266,274Z" fill="rgb(114,166,205)" stroke="rgb(114,166,205)" stroke-width="1.51"></path><path d="M266,274L260,356L339,345Z" fill="rgb(70,145,160)" stroke="rgb(70,145,160)" stroke-width="1.51"></path><path d="M411,272L411,195L331,203Z" fill="rgb(67,149,192)" stroke="rgb(67,149,192)" stroke-width="1.51"></path><path d="M331,203L264,126L257,195Z" fill="rgb(128,176,212)" stroke="rgb(128,176,212)" stroke-width="1.51"></path><path d="M257,195L188,202L188,268Z" fill="rgb(133,175,211)" stroke="rgb(133,175,211)" stroke-width="1.51"></path><path d="M184,349L260,356L266,274Z" fill="rgb(94,152,163)" stroke="rgb(94,152,163)" stroke-width="1.51"></path><path d="M344,119L264,126L331,203Z" fill="rgb(134,177,211)" stroke="rgb(134,177,211)" stroke-width="1.51"></path><path d="M257,195L189,122L188,202Z" fill="rgb(157,186,217)" stroke="rgb(157,186,217)" stroke-width="1.51"></path><path d="M411,195L344,119L331,203Z" fill="rgb(106,164,205)" stroke="rgb(106,164,205)" stroke-width="1.51"></path><path d="M411,272L485,200L411,195Z" fill="rgb(56,145,174)" stroke="rgb(56,145,174)" stroke-width="1.51"></path><path d="M339,345L417,343L411,272Z" fill="rgb(33,131,150)" stroke="rgb(33,131,150)" stroke-width="1.51"></path><path d="M405,420L417,343L339,345Z" fill="rgb(32,117,127)" stroke="rgb(32,117,127)" stroke-width="1.51"></path><path d="M188,268L184,349L266,274Z" fill="rgb(107,161,180)" stroke="rgb(107,161,180)" stroke-width="1.51"></path><path d="M113,274L184,349L188,268Z" fill="rgb(123,168,184)" stroke="rgb(123,168,184)" stroke-width="1.51"></path><path d="M411,195L416,130L344,119Z" fill="rgb(116,165,200)" stroke="rgb(116,165,200)" stroke-width="1.51"></path><path d="M485,200L416,130L411,195Z" fill="rgb(88,155,179)" stroke="rgb(88,155,179)" stroke-width="1.51"></path><path d="M264,126L189,122L257,195Z" fill="rgb(163,188,218)" stroke="rgb(163,188,218)" stroke-width="1.51"></path><path d="M188,202L113,274L188,268Z" fill="rgb(138,175,211)" stroke="rgb(138,175,211)" stroke-width="1.51"></path><path d="M192,50L189,122L264,126Z" fill="rgb(190,200,225)" stroke="rgb(190,200,225)" stroke-width="1.51"></path><path d="M260,356L337,420L339,345Z" fill="rgb(55,127,136)" stroke="rgb(55,127,136)" stroke-width="1.51"></path><path d="M262,425L337,420L260,356Z" fill="rgb(62,120,127)" stroke="rgb(62,120,127)" stroke-width="1.51"></path><path d="M417,343L487,273L411,272Z" fill="rgb(14,131,144)" stroke="rgb(14,131,144)" stroke-width="1.51"></path><path d="M181,419L262,425L260,356Z" fill="rgb(84,127,131)" stroke="rgb(84,127,131)" stroke-width="1.51"></path><path d="M487,273L485,200L411,272Z" fill="rgb(37,136,161)" stroke="rgb(37,136,161)" stroke-width="1.51"></path><path d="M344,119L338,56L264,126Z" fill="rgb(155,186,217)" stroke="rgb(155,186,217)" stroke-width="1.51"></path><path d="M413,55L338,56L344,119Z" fill="rgb(150,181,215)" stroke="rgb(150,181,215)" stroke-width="1.51"></path><path d="M113,195L113,274L188,202Z" fill="rgb(153,184,216)" stroke="rgb(153,184,216)" stroke-width="1.51"></path><path d="M189,122L113,195L188,202Z" fill="rgb(171,192,221)" stroke="rgb(171,192,221)" stroke-width="1.51"></path><path d="M338,56L262,46L264,126Z" fill="rgb(170,194,222)" stroke="rgb(170,194,222)" stroke-width="1.51"></path><path d="M189,122L106,125L113,195Z" fill="rgb(191,201,226)" stroke="rgb(191,201,226)" stroke-width="1.51"></path><path d="M337,420L405,420L339,345Z" fill="rgb(38,111,123)" stroke="rgb(38,111,123)" stroke-width="1.51"></path><path d="M417,343L492,351L487,273Z" fill="rgb(5,122,122)" stroke="rgb(5,122,122)" stroke-width="1.51"></path><path d="M338,493L405,420L337,420Z" fill="rgb(38,108,121)" stroke="rgb(38,108,121)" stroke-width="1.51"></path><path d="M184,349L181,419L260,356Z" fill="rgb(97,140,142)" stroke="rgb(97,140,142)" stroke-width="1.51"></path><path d="M117,354L181,419L184,349Z" fill="rgb(110,146,146)" stroke="rgb(110,146,146)" stroke-width="1.51"></path><path d="M113,274L117,354L184,349Z" fill="rgb(124,165,171)" stroke="rgb(124,165,171)" stroke-width="1.51"></path><path d="M343,-30L256,-27L262,46Z" fill="rgb(188,209,230)" stroke="rgb(188,209,230)" stroke-width="1.51"></path><path d="M416,130L413,55L344,119Z" fill="rgb(137,174,205)" stroke="rgb(137,174,205)" stroke-width="1.51"></path><path d="M485,122L413,55L416,130Z" fill="rgb(127,169,187)" stroke="rgb(127,169,187)" stroke-width="1.51"></path><path d="M485,200L485,122L416,130Z" fill="rgb(101,158,173)" stroke="rgb(101,158,173)" stroke-width="1.51"></path><path d="M557,126L485,122L485,200Z" fill="rgb(98,150,157)" stroke="rgb(98,150,157)" stroke-width="1.51"></path><path d="M488,426L492,351L417,343Z" fill="rgb(4,107,99)" stroke="rgb(4,107,99)" stroke-width="1.51"></path><path d="M487,273L557,272L485,200Z" fill="rgb(37,129,144)" stroke="rgb(37,129,144)" stroke-width="1.51"></path><path d="M262,46L192,50L264,126Z" fill="rgb(190,201,226)" stroke="rgb(190,201,226)" stroke-width="1.51"></path><path d="M108,48L106,125L189,122Z" fill="rgb(212,211,231)" stroke="rgb(212,211,231)" stroke-width="1.51"></path><path d="M113,195L42,196L113,274Z" fill="rgb(163,190,219)" stroke="rgb(163,190,219)" stroke-width="1.51"></path><path d="M405,420L488,426L417,343Z" fill="rgb(11,102,100)" stroke="rgb(11,102,100)" stroke-width="1.51"></path><path d="M267,494L338,493L337,420Z" fill="rgb(52,116,125)" stroke="rgb(52,116,125)" stroke-width="1.51"></path><path d="M267,494L337,420L262,425Z" fill="rgb(61,119,127)" stroke="rgb(61,119,127)" stroke-width="1.51"></path><path d="M190,505L267,494L262,425Z" fill="rgb(82,126,131)" stroke="rgb(82,126,131)" stroke-width="1.51"></path><path d="M181,419L190,505L262,425Z" fill="rgb(92,130,133)" stroke="rgb(92,130,133)" stroke-width="1.51"></path><path d="M117,354L117,419L181,419Z" fill="rgb(111,140,139)" stroke="rgb(111,140,139)" stroke-width="1.51"></path><path d="M41,355L117,419L117,354Z" fill="rgb(124,153,150)" stroke="rgb(124,153,150)" stroke-width="1.51"></path><path d="M41,355L117,354L113,274Z" fill="rgb(133,170,172)" stroke="rgb(133,170,172)" stroke-width="1.51"></path><path d="M492,351L557,272L487,273Z" fill="rgb(6,120,118)" stroke="rgb(6,120,118)" stroke-width="1.51"></path><path d="M492,351L565,351L557,272Z" fill="rgb(4,110,98)" stroke="rgb(4,110,98)" stroke-width="1.51"></path><path d="M411,500L488,426L405,420Z" fill="rgb(12,100,100)" stroke="rgb(12,100,100)" stroke-width="1.51"></path><path d="M557,272L563,198L485,200Z" fill="rgb(50,130,140)" stroke="rgb(50,130,140)" stroke-width="1.51"></path><path d="M106,125L42,196L113,195Z" fill="rgb(187,201,226)" stroke="rgb(187,201,226)" stroke-width="1.51"></path><path d="M42,196L39,270L113,274Z" fill="rgb(159,187,218)" stroke="rgb(159,187,218)" stroke-width="1.51"></path><path d="M262,46L256,-27L192,50Z" fill="rgb(202,211,231)" stroke="rgb(202,211,231)" stroke-width="1.51"></path><path d="M192,50L108,48L189,122Z" fill="rgb(212,212,231)" stroke="rgb(212,212,231)" stroke-width="1.51"></path><path d="M343,-30L262,46L338,56Z" fill="rgb(175,200,225)" stroke="rgb(175,200,225)" stroke-width="1.51"></path><path d="M106,125L36,127L42,196Z" fill="rgb(203,209,231)" stroke="rgb(203,209,231)" stroke-width="1.51"></path><path d="M187,-31L108,48L192,50Z" fill="rgb(224,222,237)" stroke="rgb(224,222,237)" stroke-width="1.51"></path><path d="M413,55L343,-30L338,56Z" fill="rgb(163,191,220)" stroke="rgb(163,191,220)" stroke-width="1.51"></path><path d="M406,-31L343,-30L413,55Z" fill="rgb(163,193,217)" stroke="rgb(163,193,217)" stroke-width="1.51"></path><path d="M493,43L413,55L485,122Z" fill="rgb(132,171,181)" stroke="rgb(132,171,181)" stroke-width="1.51"></path><path d="M561,52L493,43L485,122Z" fill="rgb(127,164,164)" stroke="rgb(127,164,164)" stroke-width="1.51"></path><path d="M563,198L557,126L485,200Z" fill="rgb(80,141,146)" stroke="rgb(80,141,146)" stroke-width="1.51"></path><path d="M338,493L411,500L405,420Z" fill="rgb(30,105,117)" stroke="rgb(30,105,117)" stroke-width="1.51"></path><path d="M190,505L411,500L338,493Z" fill="rgb(52,116,125)" stroke="rgb(52,116,125)" stroke-width="1.51"></path><path d="M488,426L565,351L492,351Z" fill="rgb(2,99,82)" stroke="rgb(2,99,82)" stroke-width="1.51"></path><path d="M557,272L635,197L563,198Z" fill="rgb(47,116,127)" stroke="rgb(47,116,127)" stroke-width="1.51"></path><path d="M39,270L41,355L113,274Z" fill="rgb(142,179,189)" stroke="rgb(142,179,189)" stroke-width="1.51"></path><path d="M114,505L190,505L181,419Z" fill="rgb(105,136,136)" stroke="rgb(105,136,136)" stroke-width="1.51"></path><path d="M267,494L190,505L338,493Z" fill="rgb(72,122,129)" stroke="rgb(72,122,129)" stroke-width="1.51"></path><path d="M114,505L181,419L117,419Z" fill="rgb(111,139,138)" stroke="rgb(111,139,138)" stroke-width="1.51"></path><path d="M42,196L-34,196L39,270Z" fill="rgb(174,200,225)" stroke="rgb(174,200,225)" stroke-width="1.51"></path><path d="M41,47L36,127L106,125Z" fill="rgb(224,219,236)" stroke="rgb(224,219,236)" stroke-width="1.51"></path><path d="M489,-24L406,-31L413,55Z" fill="rgb(152,189,198)" stroke="rgb(152,189,198)" stroke-width="1.51"></path><path d="M268,-98L256,-27L343,-30Z" fill="rgb(187,209,230)" stroke="rgb(187,209,230)" stroke-width="1.51"></path><path d="M192,-103L187,-31L256,-27Z" fill="rgb(215,220,236)" stroke="rgb(215,220,236)" stroke-width="1.51"></path><path d="M256,-27L187,-31L192,50Z" fill="rgb(215,220,236)" stroke="rgb(215,220,236)" stroke-width="1.51"></path><path d="M411,500L488,502L488,426Z" fill="rgb(4,97,91)" stroke="rgb(4,97,91)" stroke-width="1.51"></path><path d="M488,426L567,429L565,351Z" fill="rgb(1,85,68)" stroke="rgb(1,85,68)" stroke-width="1.51"></path><path d="M190,505L488,502L411,500Z" fill="rgb(36,108,121)" stroke="rgb(36,108,121)" stroke-width="1.51"></path><path d="M-42,275L41,355L39,270Z" fill="rgb(148,185,192)" stroke="rgb(148,185,192)" stroke-width="1.51"></path><path d="M-43,352L35,419L41,355Z" fill="rgb(134,164,155)" stroke="rgb(134,164,155)" stroke-width="1.51"></path><path d="M41,355L35,419L117,419Z" fill="rgb(124,148,143)" stroke="rgb(124,148,143)" stroke-width="1.51"></path><path d="M493,43L489,-24L413,55Z" fill="rgb(143,180,185)" stroke="rgb(143,180,185)" stroke-width="1.51"></path><path d="M557,126L561,52L485,122Z" fill="rgb(117,155,154)" stroke="rgb(117,155,154)" stroke-width="1.51"></path><path d="M638,129L561,52L557,126Z" fill="rgb(109,141,140)" stroke="rgb(109,141,140)" stroke-width="1.51"></path><path d="M38,497L114,505L117,419Z" fill="rgb(119,144,140)" stroke="rgb(119,144,140)" stroke-width="1.51"></path><path d="M563,497L567,429L488,426Z" fill="rgb(1,85,68)" stroke="rgb(1,85,68)" stroke-width="1.51"></path><path d="M642,278L635,197L557,272Z" fill="rgb(33,106,120)" stroke="rgb(33,106,120)" stroke-width="1.51"></path><path d="M563,198L638,129L557,126Z" fill="rgb(89,132,135)" stroke="rgb(89,132,135)" stroke-width="1.51"></path><path d="M558,-32L489,-24L493,43Z" fill="rgb(142,178,170)" stroke="rgb(142,178,170)" stroke-width="1.51"></path><path d="M107,-26L41,47L108,48Z" fill="rgb(239,230,242)" stroke="rgb(239,230,242)" stroke-width="1.51"></path><path d="M108,48L41,47L106,125Z" fill="rgb(227,221,237)" stroke="rgb(227,221,237)" stroke-width="1.51"></path><path d="M187,-31L107,-26L108,48Z" fill="rgb(234,230,241)" stroke="rgb(234,230,241)" stroke-width="1.51"></path><path d="M642,278L557,272L565,351Z" fill="rgb(5,102,97)" stroke="rgb(5,102,97)" stroke-width="1.51"></path><path d="M36,127L-34,196L42,196Z" fill="rgb(196,211,231)" stroke="rgb(196,211,231)" stroke-width="1.51"></path><path d="M-39,120L-34,196L36,127Z" fill="rgb(212,218,236)" stroke="rgb(212,218,236)" stroke-width="1.51"></path><path d="M411,-97L337,-97L406,-31Z" fill="rgb(163,193,218)" stroke="rgb(163,193,218)" stroke-width="1.51"></path><path d="M406,-31L337,-97L343,-30Z" fill="rgb(168,196,223)" stroke="rgb(168,196,223)" stroke-width="1.51"></path><path d="M187,-31L118,-99L107,-26Z" fill="rgb(234,229,241)" stroke="rgb(234,229,241)" stroke-width="1.51"></path><path d="M636,354L642,278L565,351Z" fill="rgb(3,93,82)" stroke="rgb(3,93,82)" stroke-width="1.51"></path><path d="M337,-97L268,-98L343,-30Z" fill="rgb(179,205,228)" stroke="rgb(179,205,228)" stroke-width="1.51"></path><path d="M-34,196L-42,275L39,270Z" fill="rgb(167,195,222)" stroke="rgb(167,195,222)" stroke-width="1.51"></path><path d="M567,429L636,354L565,351Z" fill="rgb(1,80,64)" stroke="rgb(1,80,64)" stroke-width="1.51"></path><path d="M561,52L558,-32L493,43Z" fill="rgb(136,169,161)" stroke="rgb(136,169,161)" stroke-width="1.51"></path><path d="M635,197L638,129L563,198Z" fill="rgb(73,123,129)" stroke="rgb(73,123,129)" stroke-width="1.51"></path><path d="M709,130L638,129L635,197Z" fill="rgb(87,127,132)" stroke="rgb(87,127,132)" stroke-width="1.51"></path><path d="M337,-97L192,-103L268,-98Z" fill="rgb(196,212,231)" stroke="rgb(196,212,231)" stroke-width="1.51"></path><path d="M489,-24L411,-97L406,-31Z" fill="rgb(152,189,198)" stroke="rgb(152,189,198)" stroke-width="1.51"></path><path d="M268,-98L192,-103L256,-27Z" fill="rgb(206,216,234)" stroke="rgb(206,216,234)" stroke-width="1.51"></path><path d="M488,-101L192,-103L337,-97Z" fill="rgb(174,201,225)" stroke="rgb(174,201,225)" stroke-width="1.51"></path><path d="M-42,275L-43,352L41,355Z" fill="rgb(145,181,178)" stroke="rgb(145,181,178)" stroke-width="1.51"></path><path d="M35,419L38,497L117,419Z" fill="rgb(123,147,142)" stroke="rgb(123,147,142)" stroke-width="1.51"></path><path d="M-34,196L-107,200L-42,275Z" fill="rgb(175,201,226)" stroke="rgb(175,201,226)" stroke-width="1.51"></path><path d="M41,47L-39,120L36,127Z" fill="rgb(230,226,239)" stroke="rgb(230,226,239)" stroke-width="1.51"></path><path d="M-44,55L-39,120L41,47Z" fill="rgb(239,232,243)" stroke="rgb(239,232,243)" stroke-width="1.51"></path><path d="M567,429L642,430L636,354Z" fill="rgb(1,70,54)" stroke="rgb(1,70,54)" stroke-width="1.51"></path><path d="M488,502L563,497L488,426Z" fill="rgb(2,90,75)" stroke="rgb(2,90,75)" stroke-width="1.51"></path><path d="M-39,498L38,497L35,419Z" fill="rgb(129,153,145)" stroke="rgb(129,153,145)" stroke-width="1.51"></path><path d="M107,-26L36,-20L41,47Z" fill="rgb(247,238,246)" stroke="rgb(247,238,246)" stroke-width="1.51"></path><path d="M31,-94L36,-20L107,-26Z" fill="rgb(247,239,246)" stroke="rgb(247,239,246)" stroke-width="1.51"></path><path d="M637,-22L558,-32L561,52Z" fill="rgb(132,159,150)" stroke="rgb(132,159,150)" stroke-width="1.51"></path><path d="M489,-24L488,-101L411,-97Z" fill="rgb(148,185,189)" stroke="rgb(148,185,189)" stroke-width="1.51"></path><path d="M-43,352L-41,421L35,419Z" fill="rgb(131,156,147)" stroke="rgb(131,156,147)" stroke-width="1.51"></path><path d="M192,-103L118,-99L187,-31Z" fill="rgb(227,226,239)" stroke="rgb(227,226,239)" stroke-width="1.51"></path><path d="M637,497L642,430L567,429Z" fill="rgb(1,70,54)" stroke="rgb(1,70,54)" stroke-width="1.51"></path><path d="M717,347L707,276L642,278Z" fill="rgb(4,99,95)" stroke="rgb(4,99,95)" stroke-width="1.51"></path><path d="M411,-97L488,-101L337,-97Z" fill="rgb(158,191,207)" stroke="rgb(158,191,207)" stroke-width="1.51"></path><path d="M556,-95L488,-101L489,-24Z" fill="rgb(142,178,171)" stroke="rgb(142,178,171)" stroke-width="1.51"></path><path d="M558,-32L556,-95L489,-24Z" fill="rgb(139,173,163)" stroke="rgb(139,173,163)" stroke-width="1.51"></path><path d="M638,129L639,44L561,52Z" fill="rgb(115,141,139)" stroke="rgb(115,141,139)" stroke-width="1.51"></path><path d="M715,50L639,44L638,129Z" fill="rgb(115,141,139)" stroke="rgb(115,141,139)" stroke-width="1.51"></path><path d="M-39,120L-107,200L-34,196Z" fill="rgb(199,213,233)" stroke="rgb(199,213,233)" stroke-width="1.51"></path><path d="M-42,275L-107,349L-43,352Z" fill="rgb(145,181,179)" stroke="rgb(145,181,179)" stroke-width="1.51"></path><path d="M-40,-24L-44,55L41,47Z" fill="rgb(250,241,248)" stroke="rgb(250,241,248)" stroke-width="1.51"></path><path d="M-40,-24L41,47L36,-20Z" fill="rgb(253,245,250)" stroke="rgb(253,245,250)" stroke-width="1.51"></path><path d="M642,278L716,203L635,197Z" fill="rgb(44,112,123)" stroke="rgb(44,112,123)" stroke-width="1.51"></path><path d="M717,347L642,278L636,354Z" fill="rgb(3,93,82)" stroke="rgb(3,93,82)" stroke-width="1.51"></path><path d="M-114,123L-107,200L-39,120Z" fill="rgb(212,218,236)" stroke="rgb(212,218,236)" stroke-width="1.51"></path><path d="M-43,352L-109,420L-41,421Z" fill="rgb(131,156,147)" stroke="rgb(131,156,147)" stroke-width="1.51"></path><path d="M707,276L716,203L642,278Z" fill="rgb(31,106,118)" stroke="rgb(31,106,118)" stroke-width="1.51"></path><path d="M642,430L717,347L636,354Z" fill="rgb(1,78,62)" stroke="rgb(1,78,62)" stroke-width="1.51"></path><path d="M563,497L637,497L567,429Z" fill="rgb(1,72,56)" stroke="rgb(1,72,56)" stroke-width="1.51"></path><path d="M488,502L637,497L563,497Z" fill="rgb(1,79,62)" stroke="rgb(1,79,62)" stroke-width="1.51"></path><path d="M-107,200L-118,272L-42,275Z" fill="rgb(166,194,222)" stroke="rgb(166,194,222)" stroke-width="1.51"></path><path d="M716,203L709,130L635,197Z" fill="rgb(72,122,129)" stroke="rgb(72,122,129)" stroke-width="1.51"></path><path d="M637,-22L561,52L639,44Z" fill="rgb(126,150,144)" stroke="rgb(126,150,144)" stroke-width="1.51"></path><path d="M637,-22L556,-95L558,-32Z" fill="rgb(132,159,150)" stroke="rgb(132,159,150)" stroke-width="1.51"></path><path d="M-118,272L-107,349L-42,275Z" fill="rgb(150,187,194)" stroke="rgb(150,187,194)" stroke-width="1.51"></path><path d="M710,-29L637,-22L639,44Z" fill="rgb(130,155,146)" stroke="rgb(130,155,146)" stroke-width="1.51"></path><path d="M38,497L-39,498L114,505Z" fill="rgb(126,150,144)" stroke="rgb(126,150,144)" stroke-width="1.51"></path><path d="M-41,421L-39,498L35,419Z" fill="rgb(130,155,146)" stroke="rgb(130,155,146)" stroke-width="1.51"></path><path d="M-109,499L-39,498L-41,421Z" fill="rgb(130,155,146)" stroke="rgb(130,155,146)" stroke-width="1.51"></path><path d="M718,430L717,347L642,430Z" fill="rgb(1,70,54)" stroke="rgb(1,70,54)" stroke-width="1.51"></path><path d="M707,276L717,347L716,203Z" fill="rgb(21,102,107)" stroke="rgb(21,102,107)" stroke-width="1.51"></path><path d="M118,-99L31,-94L107,-26Z" fill="rgb(243,235,245)" stroke="rgb(243,235,245)" stroke-width="1.51"></path><path d="M-107,200L-114,123L-118,272Z" fill="rgb(184,208,229)" stroke="rgb(184,208,229)" stroke-width="1.51"></path><path d="M-44,55L-114,123L-39,120Z" fill="rgb(231,228,240)" stroke="rgb(231,228,240)" stroke-width="1.51"></path><path d="M-118,49L-114,123L-44,55Z" fill="rgb(238,232,243)" stroke="rgb(238,232,243)" stroke-width="1.51"></path><path d="M31,-94L-40,-24L36,-20Z" fill="rgb(254,245,251)" stroke="rgb(254,245,251)" stroke-width="1.51"></path><path d="M-107,349L-109,420L-43,352Z" fill="rgb(136,166,157)" stroke="rgb(136,166,157)" stroke-width="1.51"></path><path d="M-118,272L-109,420L-107,349Z" fill="rgb(141,177,168)" stroke="rgb(141,177,168)" stroke-width="1.51"></path><path d="M709,130L715,50L638,129Z" fill="rgb(107,137,136)" stroke="rgb(107,137,136)" stroke-width="1.51"></path><path d="M716,203L715,50L709,130Z" fill="rgb(97,132,134)" stroke="rgb(97,132,134)" stroke-width="1.51"></path><path d="M719,-105L715,50L716,203Z" fill="rgb(122,145,141)" stroke="rgb(122,145,141)" stroke-width="1.51"></path><path d="M717,347L719,-105L716,203Z" fill="rgb(88,128,132)" stroke="rgb(88,128,132)" stroke-width="1.51"></path><path d="M709,496L718,430L642,430Z" fill="rgb(1,70,54)" stroke="rgb(1,70,54)" stroke-width="1.51"></path><path d="M-114,123L-118,49L-118,272Z" fill="rgb(212,218,235)" stroke="rgb(212,218,235)" stroke-width="1.51"></path><path d="M-117,-21L-118,49L-44,55Z" fill="rgb(249,241,248)" stroke="rgb(249,241,248)" stroke-width="1.51"></path><path d="M-117,-21L-44,55L-40,-24Z" fill="rgb(254,246,250)" stroke="rgb(254,246,250)" stroke-width="1.51"></path><path d="M637,497L709,496L642,430Z" fill="rgb(1,70,54)" stroke="rgb(1,70,54)" stroke-width="1.51"></path><path d="M488,502L709,496L637,497Z" fill="rgb(1,70,54)" stroke="rgb(1,70,54)" stroke-width="1.51"></path><path d="M-39,498L-109,499L114,505Z" fill="rgb(130,155,146)" stroke="rgb(130,155,146)" stroke-width="1.51"></path><path d="M-109,420L-109,499L-41,421Z" fill="rgb(130,155,146)" stroke="rgb(130,155,146)" stroke-width="1.51"></path><path d="M-118,272L-109,499L-109,420Z" fill="rgb(131,156,147)" stroke="rgb(131,156,147)" stroke-width="1.51"></path><path d="M31,-94L-40,-105L-40,-24Z" fill="rgb(255,247,251)" stroke="rgb(255,247,251)" stroke-width="1.51"></path><path d="M118,-99L-40,-105L31,-94Z" fill="rgb(250,242,248)" stroke="rgb(250,242,248)" stroke-width="1.51"></path><path d="M192,-103L-40,-105L118,-99Z" fill="rgb(242,235,244)" stroke="rgb(242,235,244)" stroke-width="1.51"></path><path d="M643,-107L-40,-105L192,-103Z" fill="rgb(196,212,232)" stroke="rgb(196,212,232)" stroke-width="1.51"></path><path d="M710,-29L643,-107L637,-22Z" fill="rgb(130,155,146)" stroke="rgb(130,155,146)" stroke-width="1.51"></path><path d="M637,-22L643,-107L556,-95Z" fill="rgb(130,155,146)" stroke="rgb(130,155,146)" stroke-width="1.51"></path><path d="M556,-95L643,-107L488,-101Z" fill="rgb(136,166,156)" stroke="rgb(136,166,156)" stroke-width="1.51"></path><path d="M488,-101L643,-107L192,-103Z" fill="rgb(151,188,196)" stroke="rgb(151,188,196)" stroke-width="1.51"></path><path d="M715,50L710,-29L639,44Z" fill="rgb(127,151,144)" stroke="rgb(127,151,144)" stroke-width="1.51"></path><path d="M-117,-99L-117,-21L-40,-24Z" fill="rgb(255,247,251)" stroke="rgb(255,247,251)" stroke-width="1.51"></path><path d="M-40,-105L-117,-99L-40,-24Z" fill="rgb(255,247,251)" stroke="rgb(255,247,251)" stroke-width="1.51"></path><path d="M-117,-21L-117,-99L-118,49Z" fill="rgb(255,247,251)" stroke="rgb(255,247,251)" stroke-width="1.51"></path><path d="M715,50L719,-105L710,-29Z" fill="rgb(130,155,146)" stroke="rgb(130,155,146)" stroke-width="1.51"></path><path d="M710,-29L719,-105L643,-107Z" fill="rgb(130,155,146)" stroke="rgb(130,155,146)" stroke-width="1.51"></path><path d="M718,430L719,-105L717,347Z" fill="rgb(45,112,123)" stroke="rgb(45,112,123)" stroke-width="1.51"></path></svg>