<svg width="600" height="400" xmlns="http://www.w3.org/2000/svg"><path d="M327,193L326,133L271,133Z" fill="rgb(248,227,216)" stroke="rgb(248,227,216)" stroke-width="1.51"></path><path d="M271,133L265,192L327,193Z" fill="rgb(251,234,225)" stroke="rgb(251,234,225)" stroke-width="1.51"></path><path d="M271,133L197,189L265,192Z" fill="rgb(253,224,207)" stroke="rgb(253,224,207)" stroke-width="1.51"></path><path d="M271,133L195,129L197,189Z" fill="rgb(252,204,179)" stroke="rgb(252,204,179)" stroke-width="1.51"></path><path d="M251,51L195,129L271,133Z" fill="rgb(245,178,153)" stroke="rgb(245,178,153)" stroke-width="1.51"></path><path d="M326,133L331,49L271,133Z" fill="rgb(243,192,176)" stroke="rgb(243,192,176)" stroke-width="1.51"></path><path d="M327,193L405,133L326,133Z" fill="rgb(235,221,214)" stroke="rgb(235,221,214)" stroke-width="1.51"></path><path d="M265,192L271,271L327,193Z" fill="rgb(239,240,241)" stroke="rgb(239,240,241)" stroke-width="1.51"></path><path d="M327,193L413,209L405,133Z" fill="rgb(220,225,228)" stroke="rgb(220,225,228)" stroke-width="1.51"></path><path d="M197,189L271,271L265,192Z" fill="rgb(243,230,223)" stroke="rgb(243,230,223)" stroke-width="1.51"></path><path d="M405,133L331,49L326,133Z" fill="rgb(230,186,174)" stroke="rgb(230,186,174)" stroke-width="1.51"></path><path d="M271,271L342,276L327,193Z" fill="rgb(219,233,241)" stroke="rgb(219,233,241)" stroke-width="1.51"></path><path d="M331,49L251,51L271,133Z" fill="rgb(237,167,151)" stroke="rgb(237,167,151)" stroke-width="1.51"></path><path d="M342,276L413,209L327,193Z" fill="rgb(215,232,241)" stroke="rgb(215,232,241)" stroke-width="1.51"></path><path d="M342,276L408,263L413,209Z" fill="rgb(188,217,234)" stroke="rgb(188,217,234)" stroke-width="1.51"></path><path d="M251,51L186,52L195,129Z" fill="rgb(233,143,119)" stroke="rgb(233,143,119)" stroke-width="1.51"></path><path d="M195,129L123,189L197,189Z" fill="rgb(248,190,165)" stroke="rgb(248,190,165)" stroke-width="1.51"></path><path d="M195,-31L186,52L251,51Z" fill="rgb(201,111,98)" stroke="rgb(201,111,98)" stroke-width="1.51"></path><path d="M331,49L337,-15L251,51Z" fill="rgb(209,138,136)" stroke="rgb(209,138,136)" stroke-width="1.51"></path><path d="M405,133L399,37L331,49Z" fill="rgb(212,155,150)" stroke="rgb(212,155,150)" stroke-width="1.51"></path><path d="M475,132L399,37L405,133Z" fill="rgb(198,164,161)" stroke="rgb(198,164,161)" stroke-width="1.51"></path><path d="M197,189L192,285L271,271Z" fill="rgb(227,212,206)" stroke="rgb(227,212,206)" stroke-width="1.51"></path><path d="M271,271L347,337L342,276Z" fill="rgb(179,209,229)" stroke="rgb(179,209,229)" stroke-width="1.51"></path><path d="M123,189L192,285L197,189Z" fill="rgb(239,196,181)" stroke="rgb(239,196,181)" stroke-width="1.51"></path><path d="M120,128L123,189L195,129Z" fill="rgb(241,165,138)" stroke="rgb(241,165,138)" stroke-width="1.51"></path><path d="M413,209L475,132L405,133Z" fill="rgb(199,202,206)" stroke="rgb(199,202,206)" stroke-width="1.51"></path><path d="M483,211L475,132L413,209Z" fill="rgb(181,200,217)" stroke="rgb(181,200,217)" stroke-width="1.51"></path><path d="M342,276L347,337L408,263Z" fill="rgb(165,204,226)" stroke="rgb(165,204,226)" stroke-width="1.51"></path><path d="M258,345L347,337L271,271Z" fill="rgb(168,195,219)" stroke="rgb(168,195,219)" stroke-width="1.51"></path><path d="M186,52L120,128L195,129Z" fill="rgb(235,143,112)" stroke="rgb(235,143,112)" stroke-width="1.51"></path><path d="M399,37L337,-15L331,49Z" fill="rgb(192,130,132)" stroke="rgb(192,130,132)" stroke-width="1.51"></path><path d="M192,285L258,345L271,271Z" fill="rgb(188,195,204)" stroke="rgb(188,195,204)" stroke-width="1.51"></path><path d="M408,263L483,211L413,209Z" fill="rgb(176,209,229)" stroke="rgb(176,209,229)" stroke-width="1.51"></path><path d="M496,286L483,211L408,263Z" fill="rgb(144,189,219)" stroke="rgb(144,189,219)" stroke-width="1.51"></path><path d="M337,-15L255,-38L251,51Z" fill="rgb(181,123,123)" stroke="rgb(181,123,123)" stroke-width="1.51"></path><path d="M186,52L117,41L120,128Z" fill="rgb(217,104,83)" stroke="rgb(217,104,83)" stroke-width="1.51"></path><path d="M337,-15L262,-91L255,-38Z" fill="rgb(181,124,125)" stroke="rgb(181,124,125)" stroke-width="1.51"></path><path d="M399,37L405,-19L337,-15Z" fill="rgb(157,115,124)" stroke="rgb(157,115,124)" stroke-width="1.51"></path><path d="M474,-35L405,-19L399,37Z" fill="rgb(137,103,118)" stroke="rgb(137,103,118)" stroke-width="1.51"></path><path d="M192,285L186,344L258,345Z" fill="rgb(173,168,180)" stroke="rgb(173,168,180)" stroke-width="1.51"></path><path d="M114,353L186,344L192,285Z" fill="rgb(171,144,154)" stroke="rgb(171,144,154)" stroke-width="1.51"></path><path d="M123,189L107,266L192,285Z" fill="rgb(222,173,164)" stroke="rgb(222,173,164)" stroke-width="1.51"></path><path d="M43,211L107,266L123,189Z" fill="rgb(223,154,147)" stroke="rgb(223,154,147)" stroke-width="1.51"></path><path d="M119,-13L117,41L186,52Z" fill="rgb(189,74,66)" stroke="rgb(189,74,66)" stroke-width="1.51"></path><path d="M29,132L43,211L123,189Z" fill="rgb(224,139,128)" stroke="rgb(224,139,128)" stroke-width="1.51"></path><path d="M255,-38L195,-31L251,51Z" fill="rgb(179,111,106)" stroke="rgb(179,111,106)" stroke-width="1.51"></path><path d="M475,132L494,51L399,37Z" fill="rgb(176,130,137)" stroke="rgb(176,130,137)" stroke-width="1.51"></path><path d="M564,129L494,51L475,132Z" fill="rgb(165,131,147)" stroke="rgb(165,131,147)" stroke-width="1.51"></path><path d="M347,337L423,356L408,263Z" fill="rgb(127,179,213)" stroke="rgb(127,179,213)" stroke-width="1.51"></path><path d="M413,437L423,356L347,337Z" fill="rgb(106,142,184)" stroke="rgb(106,142,184)" stroke-width="1.51"></path><path d="M275,436L347,337L258,345Z" fill="rgb(147,160,194)" stroke="rgb(147,160,194)" stroke-width="1.51"></path><path d="M483,211L550,210L475,132Z" fill="rgb(163,181,207)" stroke="rgb(163,181,207)" stroke-width="1.51"></path><path d="M423,356L496,286L408,263Z" fill="rgb(113,174,209)" stroke="rgb(113,174,209)" stroke-width="1.51"></path><path d="M195,-31L119,-13L186,52Z" fill="rgb(172,81,73)" stroke="rgb(172,81,73)" stroke-width="1.51"></path><path d="M29,132L123,189L120,128Z" fill="rgb(228,138,118)" stroke="rgb(228,138,118)" stroke-width="1.51"></path><path d="M496,286L550,210L483,211Z" fill="rgb(140,176,213)" stroke="rgb(140,176,213)" stroke-width="1.51"></path><path d="M255,-38L195,-95L195,-31Z" fill="rgb(177,103,96)" stroke="rgb(177,103,96)" stroke-width="1.51"></path><path d="M195,-31L121,-97L119,-13Z" fill="rgb(164,67,63)" stroke="rgb(164,67,63)" stroke-width="1.51"></path><path d="M343,-97L262,-91L337,-15Z" fill="rgb(177,125,129)" stroke="rgb(177,125,129)" stroke-width="1.51"></path><path d="M107,266L114,353L192,285Z" fill="rgb(183,146,149)" stroke="rgb(183,146,149)" stroke-width="1.51"></path><path d="M29,132L120,128L36,50Z" fill="rgb(207,89,74)" stroke="rgb(207,89,74)" stroke-width="1.51"></path><path d="M405,-19L343,-97L337,-15Z" fill="rgb(164,119,127)" stroke="rgb(164,119,127)" stroke-width="1.51"></path><path d="M424,-89L343,-97L405,-19Z" fill="rgb(152,113,123)" stroke="rgb(152,113,123)" stroke-width="1.51"></path><path d="M199,420L275,436L258,345Z" fill="rgb(138,128,149)" stroke="rgb(138,128,149)" stroke-width="1.51"></path><path d="M45,341L114,353L107,266Z" fill="rgb(160,111,125)" stroke="rgb(160,111,125)" stroke-width="1.51"></path><path d="M494,51L474,-35L399,37Z" fill="rgb(141,99,116)" stroke="rgb(141,99,116)" stroke-width="1.51"></path><path d="M561,-29L474,-35L494,51Z" fill="rgb(105,71,102)" stroke="rgb(105,71,102)" stroke-width="1.51"></path><path d="M550,210L564,129L475,132Z" fill="rgb(162,160,186)" stroke="rgb(162,160,186)" stroke-width="1.51"></path><path d="M36,50L120,128L117,41Z" fill="rgb(203,76,65)" stroke="rgb(203,76,65)" stroke-width="1.51"></path><path d="M199,420L258,345L186,344Z" fill="rgb(155,139,163)" stroke="rgb(155,139,163)" stroke-width="1.51"></path><path d="M114,353L199,420L186,344Z" fill="rgb(153,116,135)" stroke="rgb(153,116,135)" stroke-width="1.51"></path><path d="M275,436L334,438L347,337Z" fill="rgb(126,138,169)" stroke="rgb(126,138,169)" stroke-width="1.51"></path><path d="M496,286L562,286L550,210Z" fill="rgb(116,157,203)" stroke="rgb(116,157,203)" stroke-width="1.51"></path><path d="M423,356L497,357L496,286Z" fill="rgb(69,142,194)" stroke="rgb(69,142,194)" stroke-width="1.51"></path><path d="M484,436L497,357L423,356Z" fill="rgb(55,112,163)" stroke="rgb(55,112,163)" stroke-width="1.51"></path><path d="M343,-97L195,-95L262,-91Z" fill="rgb(180,120,118)" stroke="rgb(180,120,118)" stroke-width="1.51"></path><path d="M262,-91L195,-95L255,-38Z" fill="rgb(180,113,107)" stroke="rgb(180,113,107)" stroke-width="1.51"></path><path d="M474,-35L424,-89L405,-19Z" fill="rgb(133,100,116)" stroke="rgb(133,100,116)" stroke-width="1.51"></path><path d="M29,-31L36,50L119,-13Z" fill="rgb(142,13,38)" stroke="rgb(142,13,38)" stroke-width="1.51"></path><path d="M119,-13L36,50L117,41Z" fill="rgb(174,44,49)" stroke="rgb(174,44,49)" stroke-width="1.51"></path><path d="M43,211L34,275L107,266Z" fill="rgb(201,133,134)" stroke="rgb(201,133,134)" stroke-width="1.51"></path><path d="M-41,213L34,275L43,211Z" fill="rgb(176,124,129)" stroke="rgb(176,124,129)" stroke-width="1.51"></path><path d="M565,341L562,286L496,286Z" fill="rgb(72,133,189)" stroke="rgb(72,133,189)" stroke-width="1.51"></path><path d="M639,212L624,127L564,129Z" fill="rgb(138,125,144)" stroke="rgb(138,125,144)" stroke-width="1.51"></path><path d="M334,438L413,437L347,337Z" fill="rgb(111,131,166)" stroke="rgb(111,131,166)" stroke-width="1.51"></path><path d="M474,-35L485,-109L424,-89Z" fill="rgb(120,90,111)" stroke="rgb(120,90,111)" stroke-width="1.51"></path><path d="M564,129L572,41L494,51Z" fill="rgb(149,95,120)" stroke="rgb(149,95,120)" stroke-width="1.51"></path><path d="M624,127L572,41L564,129Z" fill="rgb(138,93,110)" stroke="rgb(138,93,110)" stroke-width="1.51"></path><path d="M114,353L104,424L199,420Z" fill="rgb(132,82,98)" stroke="rgb(132,82,98)" stroke-width="1.51"></path><path d="M34,275L45,341L107,266Z" fill="rgb(173,115,124)" stroke="rgb(173,115,124)" stroke-width="1.51"></path><path d="M195,-95L121,-97L195,-31Z" fill="rgb(170,82,73)" stroke="rgb(170,82,73)" stroke-width="1.51"></path><path d="M485,-109L121,-97L195,-95Z" fill="rgb(180,120,118)" stroke="rgb(180,120,118)" stroke-width="1.51"></path><path d="M639,212L564,129L550,210Z" fill="rgb(140,143,171)" stroke="rgb(140,143,171)" stroke-width="1.51"></path><path d="M497,357L565,341L496,286Z" fill="rgb(54,127,185)" stroke="rgb(54,127,185)" stroke-width="1.51"></path><path d="M552,432L565,341L497,357Z" fill="rgb(28,91,156)" stroke="rgb(28,91,156)" stroke-width="1.51"></path><path d="M45,341L104,424L114,353Z" fill="rgb(138,77,103)" stroke="rgb(138,77,103)" stroke-width="1.51"></path><path d="M199,420L255,492L275,436Z" fill="rgb(138,128,149)" stroke="rgb(138,128,149)" stroke-width="1.51"></path><path d="M572,41L561,-29L494,51Z" fill="rgb(119,67,100)" stroke="rgb(119,67,100)" stroke-width="1.51"></path><path d="M625,266L550,210L562,286Z" fill="rgb(109,138,177)" stroke="rgb(109,138,177)" stroke-width="1.51"></path><path d="M572,41L646,-34L561,-29Z" fill="rgb(79,36,67)" stroke="rgb(79,36,67)" stroke-width="1.51"></path><path d="M413,437L484,436L423,356Z" fill="rgb(69,110,153)" stroke="rgb(69,110,153)" stroke-width="1.51"></path><path d="M343,-97L485,-109L195,-95Z" fill="rgb(170,122,128)" stroke="rgb(170,122,128)" stroke-width="1.51"></path><path d="M424,-89L485,-109L343,-97Z" fill="rgb(141,106,120)" stroke="rgb(141,106,120)" stroke-width="1.51"></path><path d="M550,-110L485,-109L474,-35Z" fill="rgb(107,74,103)" stroke="rgb(107,74,103)" stroke-width="1.51"></path><path d="M275,436L345,504L334,438Z" fill="rgb(127,138,169)" stroke="rgb(127,138,169)" stroke-width="1.51"></path><path d="M334,438L345,504L413,437Z" fill="rgb(111,131,166)" stroke="rgb(111,131,166)" stroke-width="1.51"></path><path d="M413,437L477,487L484,436Z" fill="rgb(56,104,149)" stroke="rgb(56,104,149)" stroke-width="1.51"></path><path d="M184,511L255,492L199,420Z" fill="rgb(139,116,133)" stroke="rgb(139,116,133)" stroke-width="1.51"></path><path d="M49,-94L29,-31L119,-13Z" fill="rgb(142,17,39)" stroke="rgb(142,17,39)" stroke-width="1.51"></path><path d="M-49,113L-41,213L29,132Z" fill="rgb(179,109,103)" stroke="rgb(179,109,103)" stroke-width="1.51"></path><path d="M565,341L625,266L562,286Z" fill="rgb(68,116,162)" stroke="rgb(68,116,162)" stroke-width="1.51"></path><path d="M34,275L-33,355L45,341Z" fill="rgb(121,85,108)" stroke="rgb(121,85,108)" stroke-width="1.51"></path><path d="M29,132L-41,213L43,211Z" fill="rgb(188,125,123)" stroke="rgb(188,125,123)" stroke-width="1.51"></path><path d="M-49,113L29,132L36,50Z" fill="rgb(168,70,65)" stroke="rgb(168,70,65)" stroke-width="1.51"></path><path d="M255,492L345,504L275,436Z" fill="rgb(133,138,166)" stroke="rgb(133,138,166)" stroke-width="1.51"></path><path d="M625,266L639,212L550,210Z" fill="rgb(118,135,167)" stroke="rgb(118,135,167)" stroke-width="1.51"></path><path d="M-32,39L-49,113L36,50Z" fill="rgb(152,42,48)" stroke="rgb(152,42,48)" stroke-width="1.51"></path><path d="M29,-31L-32,39L36,50Z" fill="rgb(127,6,35)" stroke="rgb(127,6,35)" stroke-width="1.51"></path><path d="M29,-31L-43,-17L-32,39Z" fill="rgb(103,0,31)" stroke="rgb(103,0,31)" stroke-width="1.51"></path><path d="M121,-97L49,-94L119,-13Z" fill="rgb(150,39,47)" stroke="rgb(150,39,47)" stroke-width="1.51"></path><path d="M561,-29L550,-110L474,-35Z" fill="rgb(101,65,99)" stroke="rgb(101,65,99)" stroke-width="1.51"></path><path d="M624,127L639,45L572,41Z" fill="rgb(125,66,85)" stroke="rgb(125,66,85)" stroke-width="1.51"></path><path d="M717,112L639,45L624,127Z" fill="rgb(132,83,99)" stroke="rgb(132,83,99)" stroke-width="1.51"></path><path d="M345,504L410,509L413,437Z" fill="rgb(98,125,162)" stroke="rgb(98,125,162)" stroke-width="1.51"></path><path d="M114,495L184,511L199,420Z" fill="rgb(136,95,109)" stroke="rgb(136,95,109)" stroke-width="1.51"></path><path d="M45,341L49,429L104,424Z" fill="rgb(117,50,75)" stroke="rgb(117,50,75)" stroke-width="1.51"></path><path d="M-33,355L49,429L45,341Z" fill="rgb(104,55,87)" stroke="rgb(104,55,87)" stroke-width="1.51"></path><path d="M255,492L184,511L345,504Z" fill="rgb(136,132,155)" stroke="rgb(136,132,155)" stroke-width="1.51"></path><path d="M345,504L184,511L410,509Z" fill="rgb(128,139,169)" stroke="rgb(128,139,169)" stroke-width="1.51"></path><path d="M114,495L199,420L104,424Z" fill="rgb(131,82,97)" stroke="rgb(131,82,97)" stroke-width="1.51"></path><path d="M-41,213L-48,283L34,275Z" fill="rgb(154,113,123)" stroke="rgb(154,113,123)" stroke-width="1.51"></path><path d="M-106,268L-48,283L-41,213Z" fill="rgb(156,114,124)" stroke="rgb(156,114,124)" stroke-width="1.51"></path><path d="M477,487L552,432L484,436Z" fill="rgb(32,86,140)" stroke="rgb(32,86,140)" stroke-width="1.51"></path><path d="M484,436L552,432L497,357Z" fill="rgb(30,84,139)" stroke="rgb(30,84,139)" stroke-width="1.51"></path><path d="M565,341L638,349L625,266Z" fill="rgb(40,96,145)" stroke="rgb(40,96,145)" stroke-width="1.51"></path><path d="M410,509L477,487L413,437Z" fill="rgb(73,113,155)" stroke="rgb(73,113,155)" stroke-width="1.51"></path><path d="M632,-90L550,-110L561,-29Z" fill="rgb(83,41,74)" stroke="rgb(83,41,74)" stroke-width="1.51"></path><path d="M49,429L114,495L104,424Z" fill="rgb(121,58,80)" stroke="rgb(121,58,80)" stroke-width="1.51"></path><path d="M49,429L27,503L114,495Z" fill="rgb(114,47,72)" stroke="rgb(114,47,72)" stroke-width="1.51"></path><path d="M-48,283L-33,355L34,275Z" fill="rgb(123,92,112)" stroke="rgb(123,92,112)" stroke-width="1.51"></path><path d="M-33,-90L-43,-17L29,-31Z" fill="rgb(103,0,31)" stroke="rgb(103,0,31)" stroke-width="1.51"></path><path d="M-123,54L-110,134L-49,113Z" fill="rgb(165,71,65)" stroke="rgb(165,71,65)" stroke-width="1.51"></path><path d="M552,432L638,349L565,341Z" fill="rgb(18,71,130)" stroke="rgb(18,71,130)" stroke-width="1.51"></path><path d="M722,271L720,210L639,212Z" fill="rgb(118,134,167)" stroke="rgb(118,134,167)" stroke-width="1.51"></path><path d="M639,45L646,-34L572,41Z" fill="rgb(93,38,66)" stroke="rgb(93,38,66)" stroke-width="1.51"></path><path d="M721,-21L646,-34L639,45Z" fill="rgb(76,33,63)" stroke="rgb(76,33,63)" stroke-width="1.51"></path><path d="M717,112L624,127L639,212Z" fill="rgb(139,122,140)" stroke="rgb(139,122,140)" stroke-width="1.51"></path><path d="M-123,54L-49,113L-32,39Z" fill="rgb(152,43,49)" stroke="rgb(152,43,49)" stroke-width="1.51"></path><path d="M-49,113L-110,134L-41,213Z" fill="rgb(179,109,103)" stroke="rgb(179,109,103)" stroke-width="1.51"></path><path d="M-48,283L-126,343L-33,355Z" fill="rgb(109,79,106)" stroke="rgb(109,79,106)" stroke-width="1.51"></path><path d="M-110,134L-112,195L-41,213Z" fill="rgb(181,120,120)" stroke="rgb(181,120,120)" stroke-width="1.51"></path><path d="M49,-94L-33,-90L29,-31Z" fill="rgb(112,2,33)" stroke="rgb(112,2,33)" stroke-width="1.51"></path><path d="M-43,-17L-123,54L-32,39Z" fill="rgb(126,6,35)" stroke="rgb(126,6,35)" stroke-width="1.51"></path><path d="M-112,195L-106,268L-41,213Z" fill="rgb(171,122,128)" stroke="rgb(171,122,128)" stroke-width="1.51"></path><path d="M646,-34L632,-90L561,-29Z" fill="rgb(76,33,63)" stroke="rgb(76,33,63)" stroke-width="1.51"></path><path d="M720,210L717,112L639,212Z" fill="rgb(136,133,157)" stroke="rgb(136,133,157)" stroke-width="1.51"></path><path d="M646,-34L699,-93L632,-90Z" fill="rgb(76,33,63)" stroke="rgb(76,33,63)" stroke-width="1.51"></path><path d="M722,271L639,212L625,266Z" fill="rgb(106,129,164)" stroke="rgb(106,129,164)" stroke-width="1.51"></path><path d="M410,509L560,503L477,487Z" fill="rgb(38,94,144)" stroke="rgb(38,94,144)" stroke-width="1.51"></path><path d="M477,487L560,503L552,432Z" fill="rgb(23,78,135)" stroke="rgb(23,78,135)" stroke-width="1.51"></path><path d="M552,432L648,434L638,349Z" fill="rgb(5,48,97)" stroke="rgb(5,48,97)" stroke-width="1.51"></path><path d="M638,349L722,271L625,266Z" fill="rgb(67,109,153)" stroke="rgb(67,109,153)" stroke-width="1.51"></path><path d="M-33,355L-37,434L49,429Z" fill="rgb(76,33,63)" stroke="rgb(76,33,63)" stroke-width="1.51"></path><path d="M-109,424L-37,434L-33,355Z" fill="rgb(76,33,63)" stroke="rgb(76,33,63)" stroke-width="1.51"></path><path d="M721,-21L716,52L717,112Z" fill="rgb(116,51,74)" stroke="rgb(116,51,74)" stroke-width="1.51"></path><path d="M717,112L716,52L639,45Z" fill="rgb(124,65,84)" stroke="rgb(124,65,84)" stroke-width="1.51"></path><path d="M-37,434L27,503L49,429Z" fill="rgb(84,36,65)" stroke="rgb(84,36,65)" stroke-width="1.51"></path><path d="M114,495L27,503L184,511Z" fill="rgb(125,67,85)" stroke="rgb(125,67,85)" stroke-width="1.51"></path><path d="M-110,134L-123,54L-112,195Z" fill="rgb(174,92,83)" stroke="rgb(174,92,83)" stroke-width="1.51"></path><path d="M-120,-20L-123,54L-43,-17Z" fill="rgb(108,1,32)" stroke="rgb(108,1,32)" stroke-width="1.51"></path><path d="M721,341L722,271L638,349Z" fill="rgb(39,95,145)" stroke="rgb(39,95,145)" stroke-width="1.51"></path><path d="M720,210L721,-21L717,112Z" fill="rgb(133,88,102)" stroke="rgb(133,88,102)" stroke-width="1.51"></path><path d="M560,503L648,434L552,432Z" fill="rgb(8,53,105)" stroke="rgb(8,53,105)" stroke-width="1.51"></path><path d="M-111,-95L-120,-20L-43,-17Z" fill="rgb(103,0,31)" stroke="rgb(103,0,31)" stroke-width="1.51"></path><path d="M708,432L721,341L638,349Z" fill="rgb(14,65,121)" stroke="rgb(14,65,121)" stroke-width="1.51"></path><path d="M-106,268L-126,343L-48,283Z" fill="rgb(127,95,114)" stroke="rgb(127,95,114)" stroke-width="1.51"></path><path d="M-37,434L-30,503L27,503Z" fill="rgb(76,33,63)" stroke="rgb(76,33,63)" stroke-width="1.51"></path><path d="M-112,195L-126,343L-106,268Z" fill="rgb(147,110,121)" stroke="rgb(147,110,121)" stroke-width="1.51"></path><path d="M-123,54L-126,343L-112,195Z" fill="rgb(181,126,129)" stroke="rgb(181,126,129)" stroke-width="1.51"></path><path d="M716,52L721,-21L639,45Z" fill="rgb(100,41,68)" stroke="rgb(100,41,68)" stroke-width="1.51"></path><path d="M722,271L721,-21L720,210Z" fill="rgb(138,123,142)" stroke="rgb(138,123,142)" stroke-width="1.51"></path><path d="M-115,497L-30,503L-37,434Z" fill="rgb(76,33,63)" stroke="rgb(76,33,63)" stroke-width="1.51"></path><path d="M27,503L-30,503L184,511Z" fill="rgb(114,46,71)" stroke="rgb(114,46,71)" stroke-width="1.51"></path><path d="M721,-21L699,-93L646,-34Z" fill="rgb(76,33,63)" stroke="rgb(76,33,63)" stroke-width="1.51"></path><path d="M632,-90L699,-93L550,-110Z" fill="rgb(76,33,63)" stroke="rgb(76,33,63)" stroke-width="1.51"></path><path d="M-126,343L-109,424L-33,355Z" fill="rgb(91,50,85)" stroke="rgb(91,50,85)" stroke-width="1.51"></path><path d="M-33,-90L-111,-95L-43,-17Z" fill="rgb(103,0,31)" stroke="rgb(103,0,31)" stroke-width="1.51"></path><path d="M49,-94L-111,-95L-33,-90Z" fill="rgb(103,0,31)" stroke="rgb(103,0,31)" stroke-width="1.51"></path><path d="M121,-97L-111,-95L49,-94Z" fill="rgb(115,3,33)" stroke="rgb(115,3,33)" stroke-width="1.51"></path><path d="M485,-109L-111,-95L121,-97Z" fill="rgb(169,79,71)" stroke="rgb(169,79,71)" stroke-width="1.51"></path><path d="M410,509L649,505L560,503Z" fill="rgb(19,74,134)" stroke="rgb(19,74,134)" stroke-width="1.51"></path><path d="M560,503L649,505L648,434Z" fill="rgb(5,48,97)" stroke="rgb(5,48,97)" stroke-width="1.51"></path><path d="M648,434L708,432L638,349Z" fill="rgb(5,48,97)" stroke="rgb(5,48,97)" stroke-width="1.51"></path><path d="M705,503L708,432L648,434Z" fill="rgb(5,48,97)" stroke="rgb(5,48,97)" stroke-width="1.51"></path><path d="M649,505L705,503L648,434Z" fill="rgb(5,48,97)" stroke="rgb(5,48,97)" stroke-width="1.51"></path><path d="M708,432L705,503L721,341Z" fill="rgb(5,48,97)" stroke="rgb(5,48,97)" stroke-width="1.51"></path><path d="M-109,424L-115,497L-37,434Z" fill="rgb(76,33,63)" stroke="rgb(76,33,63)" stroke-width="1.51"></path><path d="M-126,343L-115,497L-109,424Z" fill="rgb(76,33,63)" stroke="rgb(76,33,63)" stroke-width="1.51"></path></svg>