<?xml version="1.0" standalone="no"?>
<!DOCTYPE svg PUBLIC "-//W3C//DTD SVG 20010904//EN"
 "http://www.w3.org/TR/2001/REC-SVG-20010904/DTD/svg10.dtd">
<svg version="1.0" xmlns="http://www.w3.org/2000/svg"
 width="2000.000000pt" height="2000.000000pt" viewBox="0 0 2000.000000 2000.000000"
 preserveAspectRatio="xMidYMid meet">
<metadata>
Created by potrace 1.11, written by Peter Selinger 2001-2013
</metadata>
<g transform="translate(0.000000,2000.000000) scale(0.100000,-0.100000)"
fill="#000000" stroke="none">
<path d="M9797 17574 c-1 -1 -74 -5 -162 -8 -156 -7 -189 -9 -325 -21 -101 -9
-319 -35 -385 -45 -33 -5 -80 -12 -105 -15 -52 -8 -354 -64 -432 -81 -15 -3
-30 -5 -33 -5 -2 0 -19 -5 -37 -10 -18 -5 -46 -12 -63 -14 -16 -3 -41 -9 -55
-14 -14 -5 -59 -17 -100 -26 -99 -23 -340 -94 -520 -155 -557 -187 -1092 -440
-1600 -758 -116 -73 -262 -169 -295 -195 -13 -10 -143 -103 -175 -125 -90 -61
-418 -326 -534 -431 -204 -184 -453 -431 -591 -586 -49 -55 -92 -102 -95 -105
-3 -3 -30 -34 -59 -70 -30 -36 -57 -67 -60 -70 -4 -3 -31 -36 -61 -75 -30 -38
-57 -72 -60 -75 -3 -3 -46 -59 -95 -125 -50 -66 -93 -122 -96 -125 -11 -9
-283 -421 -333 -504 -144 -238 -320 -567 -404 -756 -11 -25 -34 -76 -52 -115
-93 -204 -232 -577 -309 -828 -60 -196 -136 -482 -155 -580 -2 -12 -16 -78
-30 -147 -14 -69 -28 -141 -31 -160 -3 -19 -10 -57 -15 -85 -14 -76 -32 -202
-44 -305 -4 -30 -9 -73 -13 -95 -3 -22 -7 -53 -8 -70 -1 -16 -6 -70 -10 -120
-4 -49 -9 -106 -11 -125 -22 -243 -22 -887 0 -1100 2 -19 7 -71 10 -115 8
-100 25 -258 30 -293 3 -15 10 -65 16 -112 6 -47 13 -96 16 -110 2 -14 9 -53
14 -88 6 -35 24 -132 41 -215 17 -84 32 -163 35 -177 3 -14 12 -52 21 -85 8
-33 17 -68 18 -77 36 -179 221 -756 316 -983 7 -16 13 -32 14 -35 1 -3 9 -22
18 -44 9 -21 17 -40 17 -42 0 -2 16 -38 35 -80 19 -41 35 -77 35 -80 0 -29
289 -590 378 -734 12 -19 25 -42 29 -50 4 -8 48 -80 99 -160 365 -579 817
-1119 1308 -1565 54 -50 104 -95 110 -100 109 -100 427 -351 596 -471 185
-132 569 -378 650 -417 8 -4 51 -27 95 -52 134 -76 423 -219 560 -279 72 -32
144 -63 160 -71 169 -75 533 -206 750 -271 91 -27 441 -119 486 -128 13 -2 80
-17 149 -31 166 -36 247 -50 455 -81 103 -15 119 -17 220 -28 33 -4 74 -9 90
-11 17 -2 68 -7 115 -10 47 -4 101 -9 120 -11 208 -22 884 -22 1105 0 17 2 68
7 115 10 47 4 96 9 110 11 14 2 57 6 95 10 39 3 77 8 85 10 8 2 38 6 65 10 28
3 77 10 110 15 33 5 78 12 100 15 22 4 99 18 170 31 72 14 144 27 160 30 17 3
44 9 60 14 17 5 44 11 60 14 43 7 369 91 450 116 318 99 679 229 855 308 25
11 70 31 100 43 91 40 457 223 580 291 361 201 827 514 1065 716 11 9 43 34
70 56 28 22 52 42 55 46 3 3 32 28 65 55 123 103 256 226 435 405 201 201 353
369 543 601 135 166 404 543 507 712 19 32 49 80 67 107 72 112 211 364 308
560 281 563 494 1171 624 1785 31 148 69 353 77 420 3 22 9 65 14 95 5 30 12
80 15 110 3 30 7 71 10 90 4 33 6 52 20 190 3 30 8 82 10 115 2 33 7 112 11
175 9 141 9 625 0 775 -13 224 -29 409 -41 495 -2 14 -11 81 -20 150 -13 102
-51 338 -69 425 -80 393 -193 806 -302 1099 -63 170 -87 233 -99 261 -7 17
-34 82 -61 145 -74 179 -221 484 -304 635 -248 449 -481 799 -785 1176 -60 74
-114 139 -119 145 -6 6 -40 44 -76 85 -871 991 -2011 1754 -3237 2169 -197 66
-540 167 -626 184 -12 2 -62 14 -112 26 -104 24 -304 66 -355 74 -19 3 -46 8
-60 11 -14 3 -43 7 -65 10 -22 3 -47 7 -55 10 -8 2 -37 7 -65 10 -27 4 -65 8
-82 11 -18 2 -50 6 -70 9 -21 3 -60 7 -88 10 -27 3 -66 7 -85 10 -151 21 -473
37 -773 39 -120 1 -219 1 -220 0z"/>
</g>
</svg>
